<?xml version="1.0" encoding="UTF-8"?>
<svg xmlns="http://www.w3.org/2000/svg" xmlns:xlink="http://www.w3.org/1999/xlink" version="1.2" >
<font id="Cera Regular">
<font-face  font-family="Cera" units-per-em="1000" ascent="808" descent="-192" font-style="normal" font-weight="400" font-stretch="normal" cap-height="660" x-height="480" underline-position="-68" underline-thickness="65" />
<missing-glyph  horiz-adv-x="707" d="M617 0 L91 0 L91 660 L617 660 L617 0 Z M147 607 L559 50 L559 607 L147 607 Z " />
<glyph glyph-name="Aacute" unicode="&#xc1;" horiz-adv-x="663" d="M633 0 L549 0 L492 134 L170 134 L114 0 L31 0 L318 671 L346 671 L633 0 Z M199 204 L463 204 L332 527 L199 204 Z M482 896 L362 724 L303 724 L388 910 L482 910 L482 896 Z " />
<glyph glyph-name="Abreve" unicode="&#x102;" horiz-adv-x="663" d="M633 0 L549 0 L492 134 L170 134 L114 0 L31 0 L318 671 L346 671 L633 0 Z M199 204 L463 204 L332 527 L199 204 Z M484 892 Q484 859 472.5 831 Q461 803 441 782.5 Q421 762 393 750.5 Q365 739 332 739 Q299 739 271 750.5 Q243 762 223 782.5 Q203 803 191.5 831 Q180 859 180 892 L245 892 Q245 849 270 824.5 Q295 800 332 800 Q370 800 394.5 824.5 Q419 849 419 892 L484 892 Z " />
<glyph glyph-name="Acircumflex" unicode="&#xc2;" horiz-adv-x="663" d="M633 0 L549 0 L492 134 L170 134 L114 0 L31 0 L318 671 L346 671 L633 0 Z M199 204 L463 204 L332 527 L199 204 Z M503 724 L442 724 L332 831 L222 724 L161 724 L308 910 L356 910 L503 724 Z " />
<glyph glyph-name="Adieresis" unicode="&#xc4;" horiz-adv-x="663" d="M633 0 L549 0 L492 134 L170 134 L114 0 L31 0 L318 671 L346 671 L633 0 Z M199 204 L463 204 L332 527 L199 204 Z M447 863 Q470 863 486 847.5 Q502 832 502 809 Q502 787 486 771.5 Q470 756 447 756 Q426 756 409 771.5 Q392 787 392 809 Q392 832 409 847.5 Q426 863 447 863 Z M215 863 Q238 863 254 848 Q270 833 270 810 Q270 787 254 772 Q238 757 215 757 Q194 757 177 772 Q160 787 160 810 Q160 833 177 848 Q194 863 215 863 Z " />
<glyph glyph-name="Agrave" unicode="&#xc0;" horiz-adv-x="663" d="M633 0 L549 0 L492 134 L170 134 L114 0 L31 0 L318 671 L346 671 L633 0 Z M199 204 L463 204 L332 527 L199 204 Z M362 724 L303 724 L183 896 L183 910 L277 910 L362 724 Z " />
<glyph glyph-name="Amacron" unicode="&#x100;" horiz-adv-x="663" d="M633 0 L549 0 L492 134 L170 134 L114 0 L31 0 L318 671 L346 671 L633 0 Z M199 204 L463 204 L332 527 L199 204 Z M479 770 L184 770 L184 833 L479 833 L479 770 Z " />
<glyph glyph-name="Aogonek" unicode="&#x104;" horiz-adv-x="663" d="M633 0 L549 0 L492 134 L170 134 L114 0 L31 0 L318 671 L346 671 L633 0 Z M199 204 L463 204 L332 527 L199 204 Z M632 0 L583 -33 Q560 -48 545.5 -60 Q531 -72 531 -92 Q531 -129 579 -129 Q590 -129 604 -127 Q618 -125 632 -122 L632 -180 Q618 -185 598.5 -188 Q579 -191 560 -191 Q512 -191 482.5 -167.5 Q453 -144 453 -104 Q453 -85 461 -69 Q469 -53 486.5 -36.5 Q504 -20 532.5 -3 Q561 14 602 35 L632 0 Z " />
<glyph glyph-name="Aring" unicode="&#xc5;" horiz-adv-x="663" d="M633 0 L549 0 L492 134 L170 134 L114 0 L31 0 L318 671 L346 671 L633 0 Z M199 204 L463 204 L332 527 L199 204 Z M331 914 Q355 914 375.5 905.5 Q396 897 411 882.5 Q426 868 434.5 848 Q443 828 443 806 Q443 783 434.5 763.5 Q426 744 411 729.5 Q396 715 375.5 706.5 Q355 698 331 698 Q308 698 288 706.5 Q268 715 253 729.5 Q238 744 229.5 763.5 Q221 783 221 806 Q221 828 229.5 848 Q238 868 253 882.5 Q268 897 288 905.5 Q308 914 331 914 Z M333 857 Q310 857 296 842.5 Q282 828 282 806 Q282 784 296.5 770 Q311 756 333 756 Q353 756 368 770 Q383 784 383 806 Q383 828 368.5 842.5 Q354 857 333 857 Z " />
<glyph glyph-name="Atilde" unicode="&#xc3;" horiz-adv-x="663" d="M633 0 L549 0 L492 134 L170 134 L114 0 L31 0 L318 671 L346 671 L633 0 Z M199 204 L463 204 L332 527 L199 204 Z M254 878 Q271 878 289 872 Q307 866 324 855 L358 833 Q371 825 380.5 819 Q390 813 402 813 Q417 813 424 823.5 Q431 834 431 850 L431 868 L496 868 Q497 862 497 855.5 Q497 849 497 842 Q497 800 474 771 Q451 742 412 742 Q393 742 374.5 748.5 Q356 755 339 766 L306 786 Q294 794 284 800 Q274 806 263 806 Q247 806 240 794.5 Q233 783 233 768 L233 752 L169 752 Q168 757 167.5 763 Q167 769 167 777 Q167 819 190 848.5 Q213 878 254 878 Z " />
<glyph glyph-name="AE" unicode="&#xc6;" horiz-adv-x="821" d="M689 318 L492 318 L534 70 L781 70 L781 0 L466 0 L443 134 L168 134 L97 0 L13 0 L357 660 L769 660 L769 590 L447 590 L481 388 L689 388 L689 318 Z M205 204 L431 204 L376 542 L205 204 Z " />
<glyph glyph-name="AEacute" unicode="&#x1fc;" horiz-adv-x="821" d="M689 318 L492 318 L534 70 L781 70 L781 0 L466 0 L443 134 L168 134 L97 0 L13 0 L357 660 L769 660 L769 590 L447 590 L481 388 L689 388 L689 318 Z M205 204 L431 204 L376 542 L205 204 Z M567 896 L447 724 L388 724 L473 910 L567 910 L567 896 Z " />
<glyph glyph-name="B" unicode="B" horiz-adv-x="616" d="M318 660 Q362 660 397 647.5 Q432 635 456 612.5 Q480 590 493 559.5 Q506 529 506 493 Q506 451 489.5 418 Q473 385 442 363 Q505 344 539 298.5 Q573 253 573 190 Q573 149 558.5 114.5 Q544 80 517 54.5 Q490 29 451 14.5 Q412 0 363 0 L91 0 L91 660 L318 660 Z M169 314 L169 70 L355 70 Q422 70 457 104 Q492 138 492 192 Q492 246 457 280 Q422 314 355 314 L169 314 Z M169 590 L169 385 L310 385 Q368 385 397 413.5 Q426 442 426 488 Q426 534 397 562 Q368 590 310 590 L169 590 Z " />
<glyph glyph-name="C" unicode="C" horiz-adv-x="715" d="M391 671 Q481 671 552 631.5 Q623 592 665 529 L607 483 Q569 537 515 568 Q461 599 392 599 Q336 599 288 578.5 Q240 558 204.5 522 Q169 486 149 437 Q129 388 129 330 Q129 272 149 223 Q169 174 204.5 138 Q240 102 288 81.5 Q336 61 392 61 Q461 61 515 92 Q569 123 607 177 L665 131 Q625 68 553 28.5 Q481 -11 391 -11 Q319 -11 256.5 15 Q194 41 147.5 87 Q101 133 74.5 195.5 Q48 258 48 330 Q48 402 74.5 464.5 Q101 527 147.5 573 Q194 619 256.5 645 Q319 671 391 671 Z " />
<glyph glyph-name="Cacute" unicode="&#x106;" horiz-adv-x="715" d="M391 671 Q481 671 552 631.5 Q623 592 665 529 L607 483 Q569 537 515 568 Q461 599 392 599 Q336 599 288 578.5 Q240 558 204.5 522 Q169 486 149 437 Q129 388 129 330 Q129 272 149 223 Q169 174 204.5 138 Q240 102 288 81.5 Q336 61 392 61 Q461 61 515 92 Q569 123 607 177 L665 131 Q625 68 553 28.5 Q481 -11 391 -11 Q319 -11 256.5 15 Q194 41 147.5 87 Q101 133 74.5 195.5 Q48 258 48 330 Q48 402 74.5 464.5 Q101 527 147.5 573 Q194 619 256.5 645 Q319 671 391 671 Z M541 896 L421 724 L362 724 L447 910 L541 910 L541 896 Z " />
<glyph glyph-name="Ccaron" unicode="&#x10c;" horiz-adv-x="715" d="M391 671 Q481 671 552 631.5 Q623 592 665 529 L607 483 Q569 537 515 568 Q461 599 392 599 Q336 599 288 578.5 Q240 558 204.5 522 Q169 486 149 437 Q129 388 129 330 Q129 272 149 223 Q169 174 204.5 138 Q240 102 288 81.5 Q336 61 392 61 Q461 61 515 92 Q569 123 607 177 L665 131 Q625 68 553 28.5 Q481 -11 391 -11 Q319 -11 256.5 15 Q194 41 147.5 87 Q101 133 74.5 195.5 Q48 258 48 330 Q48 402 74.5 464.5 Q101 527 147.5 573 Q194 619 256.5 645 Q319 671 391 671 Z M415 724 L367 724 L220 910 L281 910 L391 802 L501 910 L562 910 L415 724 Z " />
<glyph glyph-name="Ccedilla" unicode="&#xc7;" horiz-adv-x="715" d="M391 671 Q481 671 552 631.5 Q623 592 665 529 L607 483 Q569 537 515 568 Q461 599 392 599 Q336 599 288 578.5 Q240 558 204.5 522 Q169 486 149 437 Q129 388 129 330 Q129 272 149 223 Q169 174 204.5 138 Q240 102 288 81.5 Q336 61 392 61 Q461 61 515 92 Q569 123 607 177 L665 131 Q625 68 553 28.5 Q481 -11 391 -11 Q319 -11 256.5 15 Q194 41 147.5 87 Q101 133 74.5 195.5 Q48 258 48 330 Q48 402 74.5 464.5 Q101 527 147.5 573 Q194 619 256.5 645 Q319 671 391 671 Z M405 26 Q434 12 452.5 -14.5 Q471 -41 471 -76 Q471 -100 462 -120.5 Q453 -141 436.5 -157 Q420 -173 395.5 -182 Q371 -191 340 -191 Q323 -191 305 -188.5 Q287 -186 271 -181 L271 -126 Q289 -128 304 -129 Q319 -130 327 -130 Q360 -130 382.5 -115 Q405 -100 405 -65 Q405 -41 395 -23 Q385 -5 372 9 L405 26 Z " />
<glyph glyph-name="Ccircumflex" unicode="&#x108;" horiz-adv-x="715" d="M391 671 Q481 671 552 631.5 Q623 592 665 529 L607 483 Q569 537 515 568 Q461 599 392 599 Q336 599 288 578.5 Q240 558 204.5 522 Q169 486 149 437 Q129 388 129 330 Q129 272 149 223 Q169 174 204.5 138 Q240 102 288 81.5 Q336 61 392 61 Q461 61 515 92 Q569 123 607 177 L665 131 Q625 68 553 28.5 Q481 -11 391 -11 Q319 -11 256.5 15 Q194 41 147.5 87 Q101 133 74.5 195.5 Q48 258 48 330 Q48 402 74.5 464.5 Q101 527 147.5 573 Q194 619 256.5 645 Q319 671 391 671 Z M562 724 L501 724 L391 831 L281 724 L220 724 L367 910 L415 910 L562 724 Z " />
<glyph glyph-name="Cdotaccent" unicode="&#x10a;" horiz-adv-x="715" d="M391 671 Q481 671 552 631.5 Q623 592 665 529 L607 483 Q569 537 515 568 Q461 599 392 599 Q336 599 288 578.5 Q240 558 204.5 522 Q169 486 149 437 Q129 388 129 330 Q129 272 149 223 Q169 174 204.5 138 Q240 102 288 81.5 Q336 61 392 61 Q461 61 515 92 Q569 123 607 177 L665 131 Q625 68 553 28.5 Q481 -11 391 -11 Q319 -11 256.5 15 Q194 41 147.5 87 Q101 133 74.5 195.5 Q48 258 48 330 Q48 402 74.5 464.5 Q101 527 147.5 573 Q194 619 256.5 645 Q319 671 391 671 Z M391 866 Q414 866 431 849.5 Q448 833 448 810 Q448 786 431 770 Q414 754 391 754 Q367 754 350 770 Q333 786 333 810 Q333 833 350 849.5 Q367 866 391 866 Z " />
<glyph glyph-name="D" unicode="D" horiz-adv-x="694" d="M287 660 Q371 660 438 635.5 Q505 611 551 567.5 Q597 524 621.5 463.5 Q646 403 646 331 Q646 260 621.5 199.5 Q597 139 551 94.5 Q505 50 438 25 Q371 0 287 0 L91 0 L91 660 L287 660 Z M169 590 L169 70 L286 70 Q353 70 405 90 Q457 110 492.5 145 Q528 180 546.5 227.5 Q565 275 565 331 Q565 388 546.5 435.5 Q528 483 492.5 517.5 Q457 552 405 571 Q353 590 286 590 L169 590 Z " />
<glyph glyph-name="Eth" unicode="&#xd0;" horiz-adv-x="694" d="M287 660 Q371 660 438 635.5 Q505 611 551 567.5 Q597 524 621.5 463.5 Q646 403 646 331 Q646 260 621.5 199.5 Q597 139 551 94.5 Q505 50 438 25 Q371 0 287 0 L91 0 L91 274 L-4 274 L-4 340 L91 340 L91 660 L287 660 Z M169 590 L169 340 L300 340 L300 274 L169 274 L169 70 L286 70 Q353 70 405 90 Q457 110 492.5 145 Q528 180 546.5 227.5 Q565 275 565 331 Q565 388 546.5 435.5 Q528 483 492.5 517.5 Q457 552 405 571 Q353 590 286 590 L169 590 Z " />
<glyph glyph-name="Dcaron" unicode="&#x10e;" horiz-adv-x="694" d="M287 660 Q371 660 438 635.5 Q505 611 551 567.5 Q597 524 621.5 463.5 Q646 403 646 331 Q646 260 621.5 199.5 Q597 139 551 94.5 Q505 50 438 25 Q371 0 287 0 L91 0 L91 660 L287 660 Z M169 590 L169 70 L286 70 Q353 70 405 90 Q457 110 492.5 145 Q528 180 546.5 227.5 Q565 275 565 331 Q565 388 546.5 435.5 Q528 483 492.5 517.5 Q457 552 405 571 Q353 590 286 590 L169 590 Z M309 724 L261 724 L114 910 L175 910 L285 802 L395 910 L456 910 L309 724 Z " />
<glyph glyph-name="Dcroat" unicode="&#x110;" horiz-adv-x="694" d="M287 660 Q371 660 438 635.5 Q505 611 551 567.5 Q597 524 621.5 463.5 Q646 403 646 331 Q646 260 621.5 199.5 Q597 139 551 94.5 Q505 50 438 25 Q371 0 287 0 L91 0 L91 274 L-4 274 L-4 340 L91 340 L91 660 L287 660 Z M169 590 L169 340 L300 340 L300 274 L169 274 L169 70 L286 70 Q353 70 405 90 Q457 110 492.5 145 Q528 180 546.5 227.5 Q565 275 565 331 Q565 388 546.5 435.5 Q528 483 492.5 517.5 Q457 552 405 571 Q353 590 286 590 L169 590 Z " />
<glyph glyph-name="E" unicode="E" horiz-adv-x="566" d="M514 590 L169 590 L169 388 L433 388 L433 318 L169 318 L169 70 L526 70 L526 0 L91 0 L91 660 L514 660 L514 590 Z " />
<glyph glyph-name="Eacute" unicode="&#xc9;" horiz-adv-x="566" d="M514 590 L169 590 L169 388 L433 388 L433 318 L169 318 L169 70 L526 70 L526 0 L91 0 L91 660 L514 660 L514 590 Z M453 896 L333 724 L274 724 L359 910 L453 910 L453 896 Z " />
<glyph glyph-name="Ebreve" unicode="&#x114;" horiz-adv-x="566" d="M514 590 L169 590 L169 388 L433 388 L433 318 L169 318 L169 70 L526 70 L526 0 L91 0 L91 660 L514 660 L514 590 Z M455 892 Q455 859 443.5 831 Q432 803 412 782.5 Q392 762 364 750.5 Q336 739 303 739 Q270 739 242 750.5 Q214 762 194 782.5 Q174 803 162.5 831 Q151 859 151 892 L216 892 Q216 849 241 824.5 Q266 800 303 800 Q341 800 365.5 824.5 Q390 849 390 892 L455 892 Z " />
<glyph glyph-name="Ecaron" unicode="&#x11a;" horiz-adv-x="566" d="M514 590 L169 590 L169 388 L433 388 L433 318 L169 318 L169 70 L526 70 L526 0 L91 0 L91 660 L514 660 L514 590 Z M327 724 L279 724 L132 910 L193 910 L303 802 L413 910 L474 910 L327 724 Z " />
<glyph glyph-name="Ecircumflex" unicode="&#xca;" horiz-adv-x="566" d="M514 590 L169 590 L169 388 L433 388 L433 318 L169 318 L169 70 L526 70 L526 0 L91 0 L91 660 L514 660 L514 590 Z M474 724 L413 724 L303 831 L193 724 L132 724 L279 910 L327 910 L474 724 Z " />
<glyph glyph-name="Edieresis" unicode="&#xcb;" horiz-adv-x="566" d="M514 590 L169 590 L169 388 L433 388 L433 318 L169 318 L169 70 L526 70 L526 0 L91 0 L91 660 L514 660 L514 590 Z M418 863 Q441 863 457 847.5 Q473 832 473 809 Q473 787 457 771.5 Q441 756 418 756 Q397 756 380 771.5 Q363 787 363 809 Q363 832 380 847.5 Q397 863 418 863 Z M186 863 Q209 863 225 848 Q241 833 241 810 Q241 787 225 772 Q209 757 186 757 Q165 757 148 772 Q131 787 131 810 Q131 833 148 848 Q165 863 186 863 Z " />
<glyph glyph-name="Edotaccent" unicode="&#x116;" horiz-adv-x="566" d="M514 590 L169 590 L169 388 L433 388 L433 318 L169 318 L169 70 L526 70 L526 0 L91 0 L91 660 L514 660 L514 590 Z M303 866 Q326 866 343 849.5 Q360 833 360 810 Q360 786 343 770 Q326 754 303 754 Q279 754 262 770 Q245 786 245 810 Q245 833 262 849.5 Q279 866 303 866 Z " />
<glyph glyph-name="Egrave" unicode="&#xc8;" horiz-adv-x="566" d="M514 590 L169 590 L169 388 L433 388 L433 318 L169 318 L169 70 L526 70 L526 0 L91 0 L91 660 L514 660 L514 590 Z M333 724 L274 724 L154 896 L154 910 L248 910 L333 724 Z " />
<glyph glyph-name="Emacron" unicode="&#x112;" horiz-adv-x="566" d="M514 590 L169 590 L169 388 L433 388 L433 318 L169 318 L169 70 L526 70 L526 0 L91 0 L91 660 L514 660 L514 590 Z M450 770 L155 770 L155 833 L450 833 L450 770 Z " />
<glyph glyph-name="Eogonek" unicode="&#x118;" horiz-adv-x="566" d="M514 590 L169 590 L169 388 L433 388 L433 318 L169 318 L169 70 L526 70 L526 0 L91 0 L91 660 L514 660 L514 590 Z M526 0 L477 -33 Q454 -48 439.5 -60 Q425 -72 425 -92 Q425 -129 473 -129 Q484 -129 498 -127 Q512 -125 526 -122 L526 -180 Q512 -185 492.5 -188 Q473 -191 454 -191 Q406 -191 376.5 -167.5 Q347 -144 347 -104 Q347 -85 355 -69 Q363 -53 380.5 -36.5 Q398 -20 426.5 -3 Q455 14 496 35 L526 0 Z " />
<glyph glyph-name="F" unicode="F" horiz-adv-x="524" d="M504 590 L169 590 L169 363 L447 363 L447 292 L169 292 L169 0 L91 0 L91 660 L504 660 L504 590 Z " />
<glyph glyph-name="G" unicode="G" horiz-adv-x="746" d="M391 671 Q476 671 544.5 635 Q613 599 659 536 L601 490 Q564 541 511.5 570 Q459 599 391 599 Q334 599 285.5 578.5 Q237 558 202.5 522 Q168 486 148.5 437 Q129 388 129 331 Q129 273 149 223.5 Q169 174 204 137.5 Q239 101 288 80 Q337 59 395 59 Q470 59 526 92 Q582 125 614 177 L614 266 L390 266 L390 336 L692 336 L692 160 Q671 122 639.5 90.5 Q608 59 569 36.5 Q530 14 485 1.5 Q440 -11 391 -11 Q319 -11 256 15.5 Q193 42 147 87.5 Q101 133 74.5 195.5 Q48 258 48 330 Q48 402 74.5 464.5 Q101 527 147.5 573 Q194 619 256.5 645 Q319 671 391 671 Z " />
<glyph glyph-name="Gbreve" unicode="&#x11e;" horiz-adv-x="746" d="M391 671 Q476 671 544.5 635 Q613 599 659 536 L601 490 Q564 541 511.5 570 Q459 599 391 599 Q334 599 285.5 578.5 Q237 558 202.5 522 Q168 486 148.5 437 Q129 388 129 331 Q129 273 149 223.5 Q169 174 204 137.5 Q239 101 288 80 Q337 59 395 59 Q470 59 526 92 Q582 125 614 177 L614 266 L390 266 L390 336 L692 336 L692 160 Q671 122 639.5 90.5 Q608 59 569 36.5 Q530 14 485 1.5 Q440 -11 391 -11 Q319 -11 256 15.5 Q193 42 147 87.5 Q101 133 74.5 195.5 Q48 258 48 330 Q48 402 74.5 464.5 Q101 527 147.5 573 Q194 619 256.5 645 Q319 671 391 671 Z M545 892 Q545 859 533.5 831 Q522 803 502 782.5 Q482 762 454 750.5 Q426 739 393 739 Q360 739 332 750.5 Q304 762 284 782.5 Q264 803 252.5 831 Q241 859 241 892 L306 892 Q306 849 331 824.5 Q356 800 393 800 Q431 800 455.5 824.5 Q480 849 480 892 L545 892 Z " />
<glyph glyph-name="Gcircumflex" unicode="&#x11c;" horiz-adv-x="746" d="M391 671 Q476 671 544.5 635 Q613 599 659 536 L601 490 Q564 541 511.5 570 Q459 599 391 599 Q334 599 285.5 578.5 Q237 558 202.5 522 Q168 486 148.5 437 Q129 388 129 331 Q129 273 149 223.5 Q169 174 204 137.5 Q239 101 288 80 Q337 59 395 59 Q470 59 526 92 Q582 125 614 177 L614 266 L390 266 L390 336 L692 336 L692 160 Q671 122 639.5 90.5 Q608 59 569 36.5 Q530 14 485 1.5 Q440 -11 391 -11 Q319 -11 256 15.5 Q193 42 147 87.5 Q101 133 74.5 195.5 Q48 258 48 330 Q48 402 74.5 464.5 Q101 527 147.5 573 Q194 619 256.5 645 Q319 671 391 671 Z M564 724 L503 724 L393 831 L283 724 L222 724 L369 910 L417 910 L564 724 Z " />
<glyph glyph-name="Gcommaaccent" unicode="&#x122;" horiz-adv-x="746" d="M391 671 Q476 671 544.5 635 Q613 599 659 536 L601 490 Q564 541 511.5 570 Q459 599 391 599 Q334 599 285.5 578.5 Q237 558 202.5 522 Q168 486 148.5 437 Q129 388 129 331 Q129 273 149 223.5 Q169 174 204 137.5 Q239 101 288 80 Q337 59 395 59 Q470 59 526 92 Q582 125 614 177 L614 266 L390 266 L390 336 L692 336 L692 160 Q671 122 639.5 90.5 Q608 59 569 36.5 Q530 14 485 1.5 Q440 -11 391 -11 Q319 -11 256 15.5 Q193 42 147 87.5 Q101 133 74.5 195.5 Q48 258 48 330 Q48 402 74.5 464.5 Q101 527 147.5 573 Q194 619 256.5 645 Q319 671 391 671 Z M406 -220 L345 -220 L354 -49 L430 -49 L406 -220 Z " />
<glyph glyph-name="Gdotaccent" unicode="&#x120;" horiz-adv-x="746" d="M391 671 Q476 671 544.5 635 Q613 599 659 536 L601 490 Q564 541 511.5 570 Q459 599 391 599 Q334 599 285.5 578.5 Q237 558 202.5 522 Q168 486 148.5 437 Q129 388 129 331 Q129 273 149 223.5 Q169 174 204 137.5 Q239 101 288 80 Q337 59 395 59 Q470 59 526 92 Q582 125 614 177 L614 266 L390 266 L390 336 L692 336 L692 160 Q671 122 639.5 90.5 Q608 59 569 36.5 Q530 14 485 1.5 Q440 -11 391 -11 Q319 -11 256 15.5 Q193 42 147 87.5 Q101 133 74.5 195.5 Q48 258 48 330 Q48 402 74.5 464.5 Q101 527 147.5 573 Q194 619 256.5 645 Q319 671 391 671 Z M393 866 Q416 866 433 849.5 Q450 833 450 810 Q450 786 433 770 Q416 754 393 754 Q369 754 352 770 Q335 786 335 810 Q335 833 352 849.5 Q369 866 393 866 Z " />
<glyph glyph-name="H" unicode="H" horiz-adv-x="708" d="M618 0 L540 0 L540 318 L169 318 L169 0 L91 0 L91 660 L169 660 L169 388 L540 388 L540 660 L618 660 L618 0 Z " />
<glyph glyph-name="Hbar" unicode="&#x126;" horiz-adv-x="719" d="M622 526 L722 526 L722 460 L622 460 L622 0 L544 0 L544 253 L174 253 L174 0 L96 0 L96 460 L-4 460 L-4 526 L96 526 L96 660 L174 660 L174 526 L544 526 L544 660 L622 660 L622 526 Z M173 460 L173 324 L544 324 L544 460 L173 460 Z " />
<glyph glyph-name="Hcircumflex" unicode="&#x124;" horiz-adv-x="708" d="M618 0 L540 0 L540 318 L169 318 L169 0 L91 0 L91 660 L169 660 L169 388 L540 388 L540 660 L618 660 L618 0 Z M525 724 L464 724 L354 831 L244 724 L183 724 L330 910 L378 910 L525 724 Z " />
<glyph glyph-name="I" unicode="I" horiz-adv-x="259" d="M169 0 L91 0 L91 660 L169 660 L169 0 Z " />
<glyph glyph-name="IJ" unicode="&#x132;" horiz-adv-x="632" d="M169 0 L91 0 L91 660 L169 660 L169 0 Z M542 153 Q542 67 494 28 Q446 -11 370 -11 Q346 -11 324.5 -8 Q303 -5 283 0 L283 67 Q323 61 354 61 Q379 61 399 65.5 Q419 70 433.5 81 Q448 92 456 111 Q464 130 464 160 L464 660 L542 660 L542 153 Z " />
<glyph glyph-name="Iacute" unicode="&#xcd;" horiz-adv-x="259" d="M169 0 L91 0 L91 660 L169 660 L169 0 Z M281 896 L161 724 L102 724 L187 910 L281 910 L281 896 Z " />
<glyph glyph-name="Ibreve" unicode="&#x12c;" horiz-adv-x="259" d="M169 0 L91 0 L91 660 L169 660 L169 0 Z M284 892 Q284 859 272.5 831 Q261 803 241 782.5 Q221 762 193 750.5 Q165 739 132 739 Q99 739 71 750.5 Q43 762 23 782.5 Q3 803 -8.5 831 Q-20 859 -20 892 L45 892 Q45 849 70 824.5 Q95 800 132 800 Q170 800 194.5 824.5 Q219 849 219 892 L284 892 Z " />
<glyph glyph-name="Icircumflex" unicode="&#xce;" horiz-adv-x="259" d="M169 0 L91 0 L91 660 L169 660 L169 0 Z M303 724 L242 724 L132 831 L22 724 L-39 724 L108 910 L156 910 L303 724 Z " />
<glyph glyph-name="Idieresis" unicode="&#xcf;" horiz-adv-x="259" d="M169 0 L91 0 L91 660 L169 660 L169 0 Z M247 863 Q270 863 286 847.5 Q302 832 302 809 Q302 787 286 771.5 Q270 756 247 756 Q226 756 209 771.5 Q192 787 192 809 Q192 832 209 847.5 Q226 863 247 863 Z M15 863 Q38 863 54 848 Q70 833 70 810 Q70 787 54 772 Q38 757 15 757 Q-6 757 -23 772 Q-40 787 -40 810 Q-40 833 -23 848 Q-6 863 15 863 Z " />
<glyph glyph-name="Idotaccent" unicode="&#x130;" horiz-adv-x="259" d="M169 0 L91 0 L91 660 L169 660 L169 0 Z M131 866 Q154 866 171 849.5 Q188 833 188 810 Q188 786 171 770 Q154 754 131 754 Q107 754 90 770 Q73 786 73 810 Q73 833 90 849.5 Q107 866 131 866 Z " />
<glyph glyph-name="Igrave" unicode="&#xcc;" horiz-adv-x="259" d="M169 0 L91 0 L91 660 L169 660 L169 0 Z M162 724 L103 724 L-17 896 L-17 910 L77 910 L162 724 Z " />
<glyph glyph-name="Imacron" unicode="&#x12a;" horiz-adv-x="259" d="M169 0 L91 0 L91 660 L169 660 L169 0 Z M279 770 L-16 770 L-16 833 L279 833 L279 770 Z " />
<glyph glyph-name="Iogonek" unicode="&#x12e;" horiz-adv-x="259" d="M169 0 L91 0 L91 660 L169 660 L169 0 Z M170 0 L121 -33 Q98 -48 83.5 -60 Q69 -72 69 -92 Q69 -129 117 -129 Q128 -129 142 -127 Q156 -125 170 -122 L170 -180 Q156 -185 136.5 -188 Q117 -191 98 -191 Q50 -191 20.5 -167.5 Q-9 -144 -9 -104 Q-9 -85 -1 -69 Q7 -53 24.5 -36.5 Q42 -20 70.5 -3 Q99 14 140 35 L170 0 Z " />
<glyph glyph-name="Itilde" unicode="&#x128;" horiz-adv-x="259" d="M169 0 L91 0 L91 660 L169 660 L169 0 Z M54 878 Q71 878 89 872 Q107 866 124 855 L158 833 Q171 825 180.5 819 Q190 813 202 813 Q217 813 224 823.5 Q231 834 231 850 L231 868 L296 868 Q297 862 297 855.5 Q297 849 297 842 Q297 800 274 771 Q251 742 212 742 Q193 742 174.5 748.5 Q156 755 139 766 L106 786 Q94 794 84 800 Q74 806 63 806 Q47 806 40 794.5 Q33 783 33 768 L33 752 L-31 752 Q-32 757 -32.5 763 Q-33 769 -33 777 Q-33 819 -10 848.5 Q13 878 54 878 Z " />
<glyph glyph-name="J" unicode="J" horiz-adv-x="373" d="M283 153 Q283 67 235 28 Q187 -11 111 -11 Q87 -11 65.5 -8 Q44 -5 24 0 L24 67 Q64 61 95 61 Q120 61 140 65.5 Q160 70 174.5 81 Q189 92 197 111 Q205 130 205 160 L205 660 L283 660 L283 153 Z " />
<glyph glyph-name="Jcircumflex" unicode="&#x134;" horiz-adv-x="373" d="M283 153 Q283 67 235 28 Q187 -11 111 -11 Q87 -11 65.5 -8 Q44 -5 24 0 L24 67 Q64 61 95 61 Q120 61 140 65.5 Q160 70 174.5 81 Q189 92 197 111 Q205 130 205 160 L205 660 L283 660 L283 153 Z M406 724 L345 724 L235 831 L125 724 L64 724 L211 910 L259 910 L406 724 Z " />
<glyph glyph-name="K" unicode="K" horiz-adv-x="633" d="M279 354 L602 0 L503 0 L178 354 L475 660 L575 660 L279 354 Z M169 0 L91 0 L91 660 L169 660 L169 0 Z " />
<glyph glyph-name="Kcommaaccent" unicode="&#x136;" horiz-adv-x="633" d="M279 354 L602 0 L503 0 L178 354 L475 660 L575 660 L279 354 Z M169 0 L91 0 L91 660 L169 660 L169 0 Z M317 -220 L256 -220 L265 -49 L341 -49 L317 -220 Z " />
<glyph glyph-name="L" unicode="L" horiz-adv-x="506" d="M169 70 L483 70 L483 0 L91 0 L91 660 L169 660 L169 70 Z " />
<glyph glyph-name="Lacute" unicode="&#x139;" horiz-adv-x="506" d="M169 70 L483 70 L483 0 L91 0 L91 660 L169 660 L169 70 Z M280 896 L160 724 L101 724 L186 910 L280 910 L280 896 Z " />
<glyph glyph-name="Lcaron" unicode="&#x13d;" horiz-adv-x="506" d="M169 70 L483 70 L483 0 L91 0 L91 660 L169 660 L169 70 Z M421 510 L363 510 L376 721 L459 721 L421 510 Z " />
<glyph glyph-name="Lcommaaccent" unicode="&#x13b;" horiz-adv-x="506" d="M169 70 L483 70 L483 0 L91 0 L91 660 L169 660 L169 70 Z M292 -220 L231 -220 L240 -49 L316 -49 L292 -220 Z " />
<glyph glyph-name="Ldot" unicode="&#x13f;" horiz-adv-x="506" d="M169 70 L483 70 L483 0 L91 0 L91 660 L169 660 L169 70 Z M383 431 Q409 431 427.5 413.5 Q446 396 446 368 Q446 340 427.5 322.5 Q409 305 383 305 Q357 305 338.5 322.5 Q320 340 320 368 Q320 396 338.5 413.5 Q357 431 383 431 Z " />
<glyph glyph-name="Lslash" unicode="&#x141;" horiz-adv-x="506" d="M169 357 L389 457 L389 383 L169 283 L169 70 L483 70 L483 0 L91 0 L91 254 L12 219 L12 291 L91 326 L91 660 L169 660 L169 357 Z " />
<glyph glyph-name="M" unicode="M" horiz-adv-x="789" d="M699 0 L621 0 L621 475 L409 187 L382 187 L169 476 L169 0 L91 0 L91 671 L119 671 L395 289 L671 671 L699 671 L699 0 Z " />
<glyph glyph-name="N" unicode="N" horiz-adv-x="708" d="M540 162 L540 660 L618 660 L618 -11 L589 -11 L169 496 L169 0 L91 0 L91 671 L119 671 L540 162 Z " />
<glyph glyph-name="Nacute" unicode="&#x143;" horiz-adv-x="708" d="M540 162 L540 660 L618 660 L618 -11 L589 -11 L169 496 L169 0 L91 0 L91 671 L119 671 L540 162 Z M504 896 L384 724 L325 724 L410 910 L504 910 L504 896 Z " />
<glyph glyph-name="Ncaron" unicode="&#x147;" horiz-adv-x="708" d="M540 162 L540 660 L618 660 L618 -11 L589 -11 L169 496 L169 0 L91 0 L91 671 L119 671 L540 162 Z M378 724 L330 724 L183 910 L244 910 L354 802 L464 910 L525 910 L378 724 Z " />
<glyph glyph-name="Ncommaaccent" unicode="&#x145;" horiz-adv-x="708" d="M540 162 L540 660 L618 660 L618 -11 L589 -11 L169 496 L169 0 L91 0 L91 671 L119 671 L540 162 Z M367 -220 L306 -220 L315 -49 L391 -49 L367 -220 Z " />
<glyph glyph-name="Eng" unicode="&#x14a;" horiz-adv-x="708" d="M540 130 L540 660 L618 660 L618 -33 Q618 -116 573 -153.5 Q528 -191 458 -191 Q440 -191 425 -189 Q410 -187 396 -183 L396 -118 Q409 -120 419 -120.5 Q429 -121 441 -121 Q486 -121 513 -101.5 Q540 -82 540 -28 L540 12 L169 488 L169 0 L91 0 L91 671 L119 671 L540 130 Z " />
<glyph glyph-name="Ntilde" unicode="&#xd1;" horiz-adv-x="708" d="M540 162 L540 660 L618 660 L618 -11 L589 -11 L169 496 L169 0 L91 0 L91 671 L119 671 L540 162 Z M276 878 Q293 878 311 872 Q329 866 346 855 L380 833 Q393 825 402.5 819 Q412 813 424 813 Q439 813 446 823.5 Q453 834 453 850 L453 868 L518 868 Q519 862 519 855.5 Q519 849 519 842 Q519 800 496 771 Q473 742 434 742 Q415 742 396.5 748.5 Q378 755 361 766 L328 786 Q316 794 306 800 Q296 806 285 806 Q269 806 262 794.5 Q255 783 255 768 L255 752 L191 752 Q190 757 189.5 763 Q189 769 189 777 Q189 819 212 848.5 Q235 878 276 878 Z " />
<glyph glyph-name="O" unicode="O" horiz-adv-x="781" d="M390 671 Q461 671 523 645 Q585 619 631.5 573 Q678 527 705 464.5 Q732 402 732 330 Q732 258 705 195.5 Q678 133 631.5 87 Q585 41 523 15 Q461 -11 390 -11 Q318 -11 256 15.5 Q194 42 147.5 87.5 Q101 133 74.5 195.5 Q48 258 48 330 Q48 402 74.5 464.5 Q101 527 147.5 573 Q194 619 256.5 645 Q319 671 390 671 Z M391 599 Q334 599 286 578.5 Q238 558 203 522 Q168 486 148.5 437 Q129 388 129 331 Q129 273 148.5 223.5 Q168 174 203 138 Q238 102 286 81.5 Q334 61 391 61 Q447 61 494.5 81.5 Q542 102 577 138 Q612 174 631.5 223.5 Q651 273 651 331 Q651 388 631.5 437 Q612 486 577 522 Q542 558 494.5 578.5 Q447 599 391 599 Z " />
<glyph glyph-name="Oacute" unicode="&#xd3;" horiz-adv-x="781" d="M390 671 Q461 671 523 645 Q585 619 631.5 573 Q678 527 705 464.5 Q732 402 732 330 Q732 258 705 195.5 Q678 133 631.5 87 Q585 41 523 15 Q461 -11 390 -11 Q318 -11 256 15.5 Q194 42 147.5 87.5 Q101 133 74.5 195.5 Q48 258 48 330 Q48 402 74.5 464.5 Q101 527 147.5 573 Q194 619 256.5 645 Q319 671 390 671 Z M391 599 Q334 599 286 578.5 Q238 558 203 522 Q168 486 148.5 437 Q129 388 129 331 Q129 273 148.5 223.5 Q168 174 203 138 Q238 102 286 81.5 Q334 61 391 61 Q447 61 494.5 81.5 Q542 102 577 138 Q612 174 631.5 223.5 Q651 273 651 331 Q651 388 631.5 437 Q612 486 577 522 Q542 558 494.5 578.5 Q447 599 391 599 Z M541 896 L421 724 L362 724 L447 910 L541 910 L541 896 Z " />
<glyph glyph-name="Obreve" unicode="&#x14e;" horiz-adv-x="781" d="M390 671 Q461 671 523 645 Q585 619 631.5 573 Q678 527 705 464.5 Q732 402 732 330 Q732 258 705 195.5 Q678 133 631.5 87 Q585 41 523 15 Q461 -11 390 -11 Q318 -11 256 15.5 Q194 42 147.5 87.5 Q101 133 74.5 195.5 Q48 258 48 330 Q48 402 74.5 464.5 Q101 527 147.5 573 Q194 619 256.5 645 Q319 671 390 671 Z M391 599 Q334 599 286 578.5 Q238 558 203 522 Q168 486 148.5 437 Q129 388 129 331 Q129 273 148.5 223.5 Q168 174 203 138 Q238 102 286 81.5 Q334 61 391 61 Q447 61 494.5 81.5 Q542 102 577 138 Q612 174 631.5 223.5 Q651 273 651 331 Q651 388 631.5 437 Q612 486 577 522 Q542 558 494.5 578.5 Q447 599 391 599 Z M543 892 Q543 859 531.5 831 Q520 803 500 782.5 Q480 762 452 750.5 Q424 739 391 739 Q358 739 330 750.5 Q302 762 282 782.5 Q262 803 250.5 831 Q239 859 239 892 L304 892 Q304 849 329 824.5 Q354 800 391 800 Q429 800 453.5 824.5 Q478 849 478 892 L543 892 Z " />
<glyph glyph-name="Ocircumflex" unicode="&#xd4;" horiz-adv-x="781" d="M390 671 Q461 671 523 645 Q585 619 631.5 573 Q678 527 705 464.5 Q732 402 732 330 Q732 258 705 195.5 Q678 133 631.5 87 Q585 41 523 15 Q461 -11 390 -11 Q318 -11 256 15.5 Q194 42 147.5 87.5 Q101 133 74.5 195.5 Q48 258 48 330 Q48 402 74.5 464.5 Q101 527 147.5 573 Q194 619 256.5 645 Q319 671 390 671 Z M391 599 Q334 599 286 578.5 Q238 558 203 522 Q168 486 148.5 437 Q129 388 129 331 Q129 273 148.5 223.5 Q168 174 203 138 Q238 102 286 81.5 Q334 61 391 61 Q447 61 494.5 81.5 Q542 102 577 138 Q612 174 631.5 223.5 Q651 273 651 331 Q651 388 631.5 437 Q612 486 577 522 Q542 558 494.5 578.5 Q447 599 391 599 Z M562 724 L501 724 L391 831 L281 724 L220 724 L367 910 L415 910 L562 724 Z " />
<glyph glyph-name="Odieresis" unicode="&#xd6;" horiz-adv-x="781" d="M390 671 Q461 671 523 645 Q585 619 631.5 573 Q678 527 705 464.5 Q732 402 732 330 Q732 258 705 195.5 Q678 133 631.5 87 Q585 41 523 15 Q461 -11 390 -11 Q318 -11 256 15.5 Q194 42 147.5 87.5 Q101 133 74.5 195.5 Q48 258 48 330 Q48 402 74.5 464.5 Q101 527 147.5 573 Q194 619 256.5 645 Q319 671 390 671 Z M391 599 Q334 599 286 578.5 Q238 558 203 522 Q168 486 148.5 437 Q129 388 129 331 Q129 273 148.5 223.5 Q168 174 203 138 Q238 102 286 81.5 Q334 61 391 61 Q447 61 494.5 81.5 Q542 102 577 138 Q612 174 631.5 223.5 Q651 273 651 331 Q651 388 631.5 437 Q612 486 577 522 Q542 558 494.5 578.5 Q447 599 391 599 Z M506 863 Q529 863 545 847.5 Q561 832 561 809 Q561 787 545 771.5 Q529 756 506 756 Q485 756 468 771.5 Q451 787 451 809 Q451 832 468 847.5 Q485 863 506 863 Z M274 863 Q297 863 313 848 Q329 833 329 810 Q329 787 313 772 Q297 757 274 757 Q253 757 236 772 Q219 787 219 810 Q219 833 236 848 Q253 863 274 863 Z " />
<glyph glyph-name="Ograve" unicode="&#xd2;" horiz-adv-x="781" d="M390 671 Q461 671 523 645 Q585 619 631.5 573 Q678 527 705 464.5 Q732 402 732 330 Q732 258 705 195.5 Q678 133 631.5 87 Q585 41 523 15 Q461 -11 390 -11 Q318 -11 256 15.5 Q194 42 147.5 87.5 Q101 133 74.5 195.5 Q48 258 48 330 Q48 402 74.5 464.5 Q101 527 147.5 573 Q194 619 256.5 645 Q319 671 390 671 Z M391 599 Q334 599 286 578.5 Q238 558 203 522 Q168 486 148.5 437 Q129 388 129 331 Q129 273 148.5 223.5 Q168 174 203 138 Q238 102 286 81.5 Q334 61 391 61 Q447 61 494.5 81.5 Q542 102 577 138 Q612 174 631.5 223.5 Q651 273 651 331 Q651 388 631.5 437 Q612 486 577 522 Q542 558 494.5 578.5 Q447 599 391 599 Z M421 724 L362 724 L242 896 L242 910 L336 910 L421 724 Z " />
<glyph glyph-name="Ohungarumlaut" unicode="&#x150;" horiz-adv-x="781" d="M390 671 Q461 671 523 645 Q585 619 631.5 573 Q678 527 705 464.5 Q732 402 732 330 Q732 258 705 195.5 Q678 133 631.5 87 Q585 41 523 15 Q461 -11 390 -11 Q318 -11 256 15.5 Q194 42 147.5 87.5 Q101 133 74.5 195.5 Q48 258 48 330 Q48 402 74.5 464.5 Q101 527 147.5 573 Q194 619 256.5 645 Q319 671 390 671 Z M391 599 Q334 599 286 578.5 Q238 558 203 522 Q168 486 148.5 437 Q129 388 129 331 Q129 273 148.5 223.5 Q168 174 203 138 Q238 102 286 81.5 Q334 61 391 61 Q447 61 494.5 81.5 Q542 102 577 138 Q612 174 631.5 223.5 Q651 273 651 331 Q651 388 631.5 437 Q612 486 577 522 Q542 558 494.5 578.5 Q447 599 391 599 Z M613 896 L501 724 L445 724 L530 910 L613 910 L613 896 Z M431 896 L318 724 L263 724 L348 910 L431 910 L431 896 Z " />
<glyph glyph-name="Omacron" unicode="&#x14c;" horiz-adv-x="781" d="M390 671 Q461 671 523 645 Q585 619 631.5 573 Q678 527 705 464.5 Q732 402 732 330 Q732 258 705 195.5 Q678 133 631.5 87 Q585 41 523 15 Q461 -11 390 -11 Q318 -11 256 15.5 Q194 42 147.5 87.5 Q101 133 74.5 195.5 Q48 258 48 330 Q48 402 74.5 464.5 Q101 527 147.5 573 Q194 619 256.5 645 Q319 671 390 671 Z M391 599 Q334 599 286 578.5 Q238 558 203 522 Q168 486 148.5 437 Q129 388 129 331 Q129 273 148.5 223.5 Q168 174 203 138 Q238 102 286 81.5 Q334 61 391 61 Q447 61 494.5 81.5 Q542 102 577 138 Q612 174 631.5 223.5 Q651 273 651 331 Q651 388 631.5 437 Q612 486 577 522 Q542 558 494.5 578.5 Q447 599 391 599 Z M538 770 L243 770 L243 833 L538 833 L538 770 Z " />
<glyph glyph-name="Oslash" unicode="&#xd8;" horiz-adv-x="782" d="M390 671 Q452 671 506.5 651 Q561 631 606 595 L690 679 L738 631 L655 547 Q691 503 711.5 448 Q732 393 732 330 Q732 258 705 195.5 Q678 133 631.5 87 Q585 41 523 15 Q461 -11 390 -11 Q327 -11 272 9 Q217 29 173 64 L90 -19 L42 29 L125 112 Q89 156 68.5 211.5 Q48 267 48 330 Q48 402 74.5 464.5 Q101 527 147.5 573 Q194 619 256.5 645 Q319 671 390 671 Z M391 602 Q334 602 285.5 581.5 Q237 561 201.5 524.5 Q166 488 146 438.5 Q126 389 126 331 Q126 235 177 164 L556 544 Q522 571 480.5 586.5 Q439 602 391 602 Z M654 331 Q654 378 640.5 419.5 Q627 461 602 495 L223 115 Q257 88 299.5 73 Q342 58 391 58 Q447 58 495 79 Q543 100 578.5 136.5 Q614 173 634 223 Q654 273 654 331 Z " />
<glyph glyph-name="Oslashacute" unicode="&#x1fe;" horiz-adv-x="782" d="M390 671 Q452 671 506.5 651 Q561 631 606 595 L690 679 L738 631 L655 547 Q691 503 711.5 448 Q732 393 732 330 Q732 258 705 195.5 Q678 133 631.5 87 Q585 41 523 15 Q461 -11 390 -11 Q327 -11 272 9 Q217 29 173 64 L90 -19 L42 29 L125 112 Q89 156 68.5 211.5 Q48 267 48 330 Q48 402 74.5 464.5 Q101 527 147.5 573 Q194 619 256.5 645 Q319 671 390 671 Z M391 602 Q334 602 285.5 581.5 Q237 561 201.5 524.5 Q166 488 146 438.5 Q126 389 126 331 Q126 235 177 164 L556 544 Q522 571 480.5 586.5 Q439 602 391 602 Z M654 331 Q654 378 640.5 419.5 Q627 461 602 495 L223 115 Q257 88 299.5 73 Q342 58 391 58 Q447 58 495 79 Q543 100 578.5 136.5 Q614 173 634 223 Q654 273 654 331 Z M541 896 L421 724 L362 724 L447 910 L541 910 L541 896 Z " />
<glyph glyph-name="Otilde" unicode="&#xd5;" horiz-adv-x="781" d="M390 671 Q461 671 523 645 Q585 619 631.5 573 Q678 527 705 464.5 Q732 402 732 330 Q732 258 705 195.5 Q678 133 631.5 87 Q585 41 523 15 Q461 -11 390 -11 Q318 -11 256 15.5 Q194 42 147.5 87.5 Q101 133 74.5 195.5 Q48 258 48 330 Q48 402 74.5 464.5 Q101 527 147.5 573 Q194 619 256.5 645 Q319 671 390 671 Z M391 599 Q334 599 286 578.5 Q238 558 203 522 Q168 486 148.5 437 Q129 388 129 331 Q129 273 148.5 223.5 Q168 174 203 138 Q238 102 286 81.5 Q334 61 391 61 Q447 61 494.5 81.5 Q542 102 577 138 Q612 174 631.5 223.5 Q651 273 651 331 Q651 388 631.5 437 Q612 486 577 522 Q542 558 494.5 578.5 Q447 599 391 599 Z M313 878 Q330 878 348 872 Q366 866 383 855 L417 833 Q430 825 439.5 819 Q449 813 461 813 Q476 813 483 823.5 Q490 834 490 850 L490 868 L555 868 Q556 862 556 855.5 Q556 849 556 842 Q556 800 533 771 Q510 742 471 742 Q452 742 433.5 748.5 Q415 755 398 766 L365 786 Q353 794 343 800 Q333 806 322 806 Q306 806 299 794.5 Q292 783 292 768 L292 752 L228 752 Q227 757 226.5 763 Q226 769 226 777 Q226 819 249 848.5 Q272 878 313 878 Z " />
<glyph glyph-name="OE" unicode="&#x152;" horiz-adv-x="1127" d="M1075 590 L730 590 L730 386 L994 386 L994 320 L730 320 L730 70 L1087 70 L1087 0 L652 0 L652 124 Q610 61 541.5 25 Q473 -11 389 -11 Q317 -11 254.5 15.5 Q192 42 146.5 87.5 Q101 133 74.5 195.5 Q48 258 48 330 Q48 402 74.5 464.5 Q101 527 147 573 Q193 619 255.5 645 Q318 671 390 671 Q475 671 543 634.5 Q611 598 652 535 L652 660 L1075 660 L1075 590 Z M390 599 Q334 599 286 578.5 Q238 558 203 522 Q168 486 148.5 437 Q129 388 129 330 Q129 273 148.5 223.5 Q168 174 203 138 Q238 102 286 81.5 Q334 61 390 61 Q446 61 494 81.5 Q542 102 577 138 Q612 174 631.5 223.5 Q651 273 651 330 Q651 387 631.5 436.5 Q612 486 577 522 Q542 558 494 578.5 Q446 599 390 599 Z " />
<glyph glyph-name="P" unicode="P" horiz-adv-x="573" d="M323 660 Q372 660 411 646 Q450 632 477.5 606.5 Q505 581 520 546 Q535 511 535 469 Q535 427 520 391.5 Q505 356 477.5 330.5 Q450 305 411 290.5 Q372 276 323 276 L169 276 L169 0 L91 0 L91 660 L323 660 Z M169 590 L169 346 L321 346 Q387 346 420.5 380 Q454 414 454 468 Q454 521 420.5 555.5 Q387 590 321 590 L169 590 Z " />
<glyph glyph-name="Thorn" unicode="&#xde;" horiz-adv-x="573" d="M169 542 L323 542 Q372 542 411 527.5 Q450 513 477.5 487.5 Q505 462 520 425.5 Q535 389 535 346 Q535 303 520 267 Q505 231 477.5 204.5 Q450 178 411 163.5 Q372 149 323 149 L169 149 L169 0 L91 0 L91 660 L169 660 L169 542 Z M169 472 L169 219 L321 219 Q387 219 420.5 254.5 Q454 290 454 345 Q454 401 420.5 436.5 Q387 472 321 472 L169 472 Z " />
<glyph glyph-name="Q" unicode="Q" horiz-adv-x="781" d="M390 671 Q461 671 523 645 Q585 619 631.5 573 Q678 527 705 464.5 Q732 402 732 330 Q732 239 691.5 166 Q651 93 583 47 Q652 -44 740 -90 Q828 -136 944 -136 Q966 -136 990.5 -134.5 Q1015 -133 1041 -131 L1041 -193 Q1016 -198 989.5 -200.5 Q963 -203 934 -203 Q803 -203 699 -147.5 Q595 -92 519 13 Q489 2 457 -4.5 Q425 -11 390 -11 Q318 -11 256 15.5 Q194 42 147.5 87.5 Q101 133 74.5 195.5 Q48 258 48 330 Q48 402 74.5 464.5 Q101 527 147.5 573 Q194 619 256.5 645 Q319 671 390 671 Z M390 599 Q334 599 286 578.5 Q238 558 203 522 Q168 486 148.5 437 Q129 388 129 331 Q129 273 149 223.5 Q169 174 204 138 Q239 102 287 81.5 Q335 61 391 61 Q447 61 494.5 81.5 Q542 102 577 138 Q612 174 631.5 223.5 Q651 273 651 330 Q651 387 631.5 436.5 Q612 486 577 522 Q542 558 494.5 578.5 Q447 599 390 599 Z " />
<glyph glyph-name="R" unicode="R" horiz-adv-x="622" d="M323 660 Q372 660 411 646 Q450 632 477.5 606.5 Q505 581 520 546 Q535 511 535 469 Q535 401 498 352.5 Q461 304 395 286 L607 0 L516 0 L310 277 L169 277 L169 0 L91 0 L91 660 L323 660 Z M169 590 L169 347 L320 347 Q386 347 420 380.5 Q454 414 454 468 Q454 521 420 555.5 Q386 590 320 590 L169 590 Z " />
<glyph glyph-name="Racute" unicode="&#x154;" horiz-adv-x="622" d="M323 660 Q372 660 411 646 Q450 632 477.5 606.5 Q505 581 520 546 Q535 511 535 469 Q535 401 498 352.5 Q461 304 395 286 L607 0 L516 0 L310 277 L169 277 L169 0 L91 0 L91 660 L323 660 Z M169 590 L169 347 L320 347 Q386 347 420 380.5 Q454 414 454 468 Q454 521 420 555.5 Q386 590 320 590 L169 590 Z M412 896 L292 724 L233 724 L318 910 L412 910 L412 896 Z " />
<glyph glyph-name="Rcaron" unicode="&#x158;" horiz-adv-x="622" d="M323 660 Q372 660 411 646 Q450 632 477.5 606.5 Q505 581 520 546 Q535 511 535 469 Q535 401 498 352.5 Q461 304 395 286 L607 0 L516 0 L310 277 L169 277 L169 0 L91 0 L91 660 L323 660 Z M169 590 L169 347 L320 347 Q386 347 420 380.5 Q454 414 454 468 Q454 521 420 555.5 Q386 590 320 590 L169 590 Z M286 724 L238 724 L91 910 L152 910 L262 802 L372 910 L433 910 L286 724 Z " />
<glyph glyph-name="Rcommaaccent" unicode="&#x156;" horiz-adv-x="622" d="M323 660 Q372 660 411 646 Q450 632 477.5 606.5 Q505 581 520 546 Q535 511 535 469 Q535 401 498 352.5 Q461 304 395 286 L607 0 L516 0 L310 277 L169 277 L169 0 L91 0 L91 660 L323 660 Z M169 590 L169 347 L320 347 Q386 347 420 380.5 Q454 414 454 468 Q454 521 420 555.5 Q386 590 320 590 L169 590 Z M315 -220 L254 -220 L263 -49 L339 -49 L315 -220 Z " />
<glyph glyph-name="S" unicode="S" horiz-adv-x="558" d="M282 671 Q350 671 404 639.5 Q458 608 489 559 L431 516 Q405 556 365.5 577.5 Q326 599 281 599 Q258 599 236.5 593 Q215 587 198.5 575 Q182 563 172.5 545 Q163 527 163 503 Q163 480 171.5 464 Q180 448 194 435.5 Q208 423 227.5 413 Q247 403 270 392 L343 357 Q379 340 407.5 321.5 Q436 303 456 281 Q476 259 486.5 232.5 Q497 206 497 173 Q497 131 480.5 97 Q464 63 435.5 39 Q407 15 368 2 Q329 -11 284 -11 Q205 -11 142 27 Q79 65 41 131 L99 174 Q114 151 132.5 130.5 Q151 110 173.5 94.5 Q196 79 223.5 70 Q251 61 283 61 Q341 61 378.5 90.5 Q416 120 416 171 Q416 194 408 210.5 Q400 227 385 240 Q370 253 350 264 Q330 275 306 287 L232 322 Q203 336 176 352 Q149 368 128 389 Q107 410 94.5 437 Q82 464 82 499 Q82 538 98 570 Q114 602 141.5 624.5 Q169 647 205.5 659 Q242 671 282 671 Z " />
<glyph glyph-name="Sacute" unicode="&#x15a;" horiz-adv-x="558" d="M282 671 Q350 671 404 639.5 Q458 608 489 559 L431 516 Q405 556 365.5 577.5 Q326 599 281 599 Q258 599 236.5 593 Q215 587 198.5 575 Q182 563 172.5 545 Q163 527 163 503 Q163 480 171.5 464 Q180 448 194 435.5 Q208 423 227.5 413 Q247 403 270 392 L343 357 Q379 340 407.5 321.5 Q436 303 456 281 Q476 259 486.5 232.5 Q497 206 497 173 Q497 131 480.5 97 Q464 63 435.5 39 Q407 15 368 2 Q329 -11 284 -11 Q205 -11 142 27 Q79 65 41 131 L99 174 Q114 151 132.5 130.5 Q151 110 173.5 94.5 Q196 79 223.5 70 Q251 61 283 61 Q341 61 378.5 90.5 Q416 120 416 171 Q416 194 408 210.5 Q400 227 385 240 Q370 253 350 264 Q330 275 306 287 L232 322 Q203 336 176 352 Q149 368 128 389 Q107 410 94.5 437 Q82 464 82 499 Q82 538 98 570 Q114 602 141.5 624.5 Q169 647 205.5 659 Q242 671 282 671 Z M433 896 L313 724 L254 724 L339 910 L433 910 L433 896 Z " />
<glyph glyph-name="Scaron" unicode="&#x160;" horiz-adv-x="558" d="M282 671 Q350 671 404 639.5 Q458 608 489 559 L431 516 Q405 556 365.5 577.5 Q326 599 281 599 Q258 599 236.5 593 Q215 587 198.5 575 Q182 563 172.5 545 Q163 527 163 503 Q163 480 171.5 464 Q180 448 194 435.5 Q208 423 227.5 413 Q247 403 270 392 L343 357 Q379 340 407.5 321.5 Q436 303 456 281 Q476 259 486.5 232.5 Q497 206 497 173 Q497 131 480.5 97 Q464 63 435.5 39 Q407 15 368 2 Q329 -11 284 -11 Q205 -11 142 27 Q79 65 41 131 L99 174 Q114 151 132.5 130.5 Q151 110 173.5 94.5 Q196 79 223.5 70 Q251 61 283 61 Q341 61 378.5 90.5 Q416 120 416 171 Q416 194 408 210.5 Q400 227 385 240 Q370 253 350 264 Q330 275 306 287 L232 322 Q203 336 176 352 Q149 368 128 389 Q107 410 94.5 437 Q82 464 82 499 Q82 538 98 570 Q114 602 141.5 624.5 Q169 647 205.5 659 Q242 671 282 671 Z M307 724 L259 724 L112 910 L173 910 L283 802 L393 910 L454 910 L307 724 Z " />
<glyph glyph-name="Scedilla" unicode="&#x15e;" horiz-adv-x="558" d="M282 671 Q350 671 404 639.5 Q458 608 489 559 L431 516 Q405 556 365.5 577.5 Q326 599 281 599 Q258 599 236.5 593 Q215 587 198.5 575 Q182 563 172.5 545 Q163 527 163 503 Q163 480 171.5 464 Q180 448 194 435.5 Q208 423 227.5 413 Q247 403 270 392 L343 357 Q379 340 407.5 321.5 Q436 303 456 281 Q476 259 486.5 232.5 Q497 206 497 173 Q497 131 480.5 97 Q464 63 435.5 39 Q407 15 368 2 Q329 -11 284 -11 Q205 -11 142 27 Q79 65 41 131 L99 174 Q114 151 132.5 130.5 Q151 110 173.5 94.5 Q196 79 223.5 70 Q251 61 283 61 Q341 61 378.5 90.5 Q416 120 416 171 Q416 194 408 210.5 Q400 227 385 240 Q370 253 350 264 Q330 275 306 287 L232 322 Q203 336 176 352 Q149 368 128 389 Q107 410 94.5 437 Q82 464 82 499 Q82 538 98 570 Q114 602 141.5 624.5 Q169 647 205.5 659 Q242 671 282 671 Z M296 26 Q325 12 343.5 -14.5 Q362 -41 362 -76 Q362 -100 353 -120.5 Q344 -141 327.5 -157 Q311 -173 286.5 -182 Q262 -191 231 -191 Q214 -191 196 -188.5 Q178 -186 162 -181 L162 -126 Q180 -128 195 -129 Q210 -130 218 -130 Q251 -130 273.5 -115 Q296 -100 296 -65 Q296 -41 286 -23 Q276 -5 263 9 L296 26 Z " />
<glyph glyph-name="Scircumflex" unicode="&#x15c;" horiz-adv-x="558" d="M282 671 Q350 671 404 639.5 Q458 608 489 559 L431 516 Q405 556 365.5 577.5 Q326 599 281 599 Q258 599 236.5 593 Q215 587 198.5 575 Q182 563 172.5 545 Q163 527 163 503 Q163 480 171.5 464 Q180 448 194 435.5 Q208 423 227.5 413 Q247 403 270 392 L343 357 Q379 340 407.5 321.5 Q436 303 456 281 Q476 259 486.5 232.5 Q497 206 497 173 Q497 131 480.5 97 Q464 63 435.5 39 Q407 15 368 2 Q329 -11 284 -11 Q205 -11 142 27 Q79 65 41 131 L99 174 Q114 151 132.5 130.5 Q151 110 173.5 94.5 Q196 79 223.5 70 Q251 61 283 61 Q341 61 378.5 90.5 Q416 120 416 171 Q416 194 408 210.5 Q400 227 385 240 Q370 253 350 264 Q330 275 306 287 L232 322 Q203 336 176 352 Q149 368 128 389 Q107 410 94.5 437 Q82 464 82 499 Q82 538 98 570 Q114 602 141.5 624.5 Q169 647 205.5 659 Q242 671 282 671 Z M454 724 L393 724 L283 831 L173 724 L112 724 L259 910 L307 910 L454 724 Z " />
<glyph glyph-name="Scommaaccent" unicode="&#x218;" horiz-adv-x="558" d="M282 671 Q350 671 404 639.5 Q458 608 489 559 L431 516 Q405 556 365.5 577.5 Q326 599 281 599 Q258 599 236.5 593 Q215 587 198.5 575 Q182 563 172.5 545 Q163 527 163 503 Q163 480 171.5 464 Q180 448 194 435.5 Q208 423 227.5 413 Q247 403 270 392 L343 357 Q379 340 407.5 321.5 Q436 303 456 281 Q476 259 486.5 232.5 Q497 206 497 173 Q497 131 480.5 97 Q464 63 435.5 39 Q407 15 368 2 Q329 -11 284 -11 Q205 -11 142 27 Q79 65 41 131 L99 174 Q114 151 132.5 130.5 Q151 110 173.5 94.5 Q196 79 223.5 70 Q251 61 283 61 Q341 61 378.5 90.5 Q416 120 416 171 Q416 194 408 210.5 Q400 227 385 240 Q370 253 350 264 Q330 275 306 287 L232 322 Q203 336 176 352 Q149 368 128 389 Q107 410 94.5 437 Q82 464 82 499 Q82 538 98 570 Q114 602 141.5 624.5 Q169 647 205.5 659 Q242 671 282 671 Z M305 -220 L244 -220 L253 -49 L329 -49 L305 -220 Z " />
<glyph glyph-name="uni1E9E" unicode="&#x1e9e;" horiz-adv-x="710" d="M609 637 L470 411 Q508 406 542.5 389 Q577 372 603 345 Q629 318 644.5 281 Q660 244 660 200 Q660 153 643 114 Q626 75 596.5 47.5 Q567 20 528 4.5 Q489 -11 445 -11 Q391 -11 342 12 Q293 35 258 74 L305 130 Q331 100 365.5 80.5 Q400 61 442 61 Q472 61 497 71.5 Q522 82 540 100.5 Q558 119 568.5 144.5 Q579 170 579 201 Q579 267 533 306 Q487 345 411 345 L359 345 L359 367 L495 590 L169 590 L169 0 L91 0 L91 660 L609 660 L609 637 Z " />
<glyph glyph-name="uni018F" unicode="&#x18f;" horiz-adv-x="733" d="M351 671 Q421 671 481.5 644.5 Q542 618 586.5 572.5 Q631 527 656.5 465 Q682 403 682 332 Q682 260 655.5 197.5 Q629 135 583.5 88.5 Q538 42 477 15.5 Q416 -11 347 -11 Q286 -11 232 9.5 Q178 30 137 68.5 Q96 107 72 161 Q48 215 48 282 Q48 305 50 323.5 Q52 342 54 353 L600 353 Q596 407 575.5 452 Q555 497 522 530 Q489 563 445 581 Q401 599 350 599 Q284 599 228.5 569.5 Q173 540 135 488 L81 533 Q126 596 195.5 633.5 Q265 671 351 671 Z M350 61 Q398 61 440 77.5 Q482 94 514 123.5 Q546 153 567.5 194 Q589 235 597 283 L124 283 Q123 230 141 189 Q159 148 190.5 119.5 Q222 91 263.5 76 Q305 61 350 61 Z " />
<glyph glyph-name="T" unicode="T" horiz-adv-x="581" d="M561 590 L329 590 L329 0 L251 0 L251 590 L19 590 L19 660 L561 660 L561 590 Z " />
<glyph glyph-name="Tbar" unicode="&#x166;" horiz-adv-x="581" d="M561 590 L329 590 L329 326 L524 326 L524 260 L329 260 L329 0 L251 0 L251 260 L56 260 L56 326 L251 326 L251 590 L19 590 L19 660 L561 660 L561 590 Z " />
<glyph glyph-name="Tcaron" unicode="&#x164;" horiz-adv-x="581" d="M561 590 L329 590 L329 0 L251 0 L251 590 L19 590 L19 660 L561 660 L561 590 Z M315 724 L267 724 L120 910 L181 910 L291 802 L401 910 L462 910 L315 724 Z " />
<glyph glyph-name="uni0162" unicode="&#x162;" horiz-adv-x="581" d="M561 590 L329 590 L329 0 L251 0 L251 590 L19 590 L19 660 L561 660 L561 590 Z M295 26 Q324 12 342.5 -14.5 Q361 -41 361 -76 Q361 -100 352 -120.5 Q343 -141 326.5 -157 Q310 -173 285.5 -182 Q261 -191 230 -191 Q213 -191 195 -188.5 Q177 -186 161 -181 L161 -126 Q179 -128 194 -129 Q209 -130 217 -130 Q250 -130 272.5 -115 Q295 -100 295 -65 Q295 -41 285 -23 Q275 -5 262 9 L295 26 Z " />
<glyph glyph-name="U" unicode="U" horiz-adv-x="689" d="M606 262 Q606 196 586 145 Q566 94 531 59.5 Q496 25 448 7 Q400 -11 344 -11 Q287 -11 239 7 Q191 25 156 59.5 Q121 94 101.5 145 Q82 196 82 262 L82 660 L160 660 L160 257 Q160 207 174.5 170 Q189 133 213.5 109 Q238 85 271.5 73 Q305 61 344 61 Q382 61 415.5 73 Q449 85 474 109 Q499 133 513.5 170 Q528 207 528 257 L528 660 L606 660 L606 262 Z " />
<glyph glyph-name="Uacute" unicode="&#xda;" horiz-adv-x="689" d="M606 262 Q606 196 586 145 Q566 94 531 59.5 Q496 25 448 7 Q400 -11 344 -11 Q287 -11 239 7 Q191 25 156 59.5 Q121 94 101.5 145 Q82 196 82 262 L82 660 L160 660 L160 257 Q160 207 174.5 170 Q189 133 213.5 109 Q238 85 271.5 73 Q305 61 344 61 Q382 61 415.5 73 Q449 85 474 109 Q499 133 513.5 170 Q528 207 528 257 L528 660 L606 660 L606 262 Z M494 896 L374 724 L315 724 L400 910 L494 910 L494 896 Z " />
<glyph glyph-name="Ubreve" unicode="&#x16c;" horiz-adv-x="689" d="M606 262 Q606 196 586 145 Q566 94 531 59.5 Q496 25 448 7 Q400 -11 344 -11 Q287 -11 239 7 Q191 25 156 59.5 Q121 94 101.5 145 Q82 196 82 262 L82 660 L160 660 L160 257 Q160 207 174.5 170 Q189 133 213.5 109 Q238 85 271.5 73 Q305 61 344 61 Q382 61 415.5 73 Q449 85 474 109 Q499 133 513.5 170 Q528 207 528 257 L528 660 L606 660 L606 262 Z M496 892 Q496 859 484.5 831 Q473 803 453 782.5 Q433 762 405 750.5 Q377 739 344 739 Q311 739 283 750.5 Q255 762 235 782.5 Q215 803 203.5 831 Q192 859 192 892 L257 892 Q257 849 282 824.5 Q307 800 344 800 Q382 800 406.5 824.5 Q431 849 431 892 L496 892 Z " />
<glyph glyph-name="Ucircumflex" unicode="&#xdb;" horiz-adv-x="689" d="M606 262 Q606 196 586 145 Q566 94 531 59.5 Q496 25 448 7 Q400 -11 344 -11 Q287 -11 239 7 Q191 25 156 59.5 Q121 94 101.5 145 Q82 196 82 262 L82 660 L160 660 L160 257 Q160 207 174.5 170 Q189 133 213.5 109 Q238 85 271.5 73 Q305 61 344 61 Q382 61 415.5 73 Q449 85 474 109 Q499 133 513.5 170 Q528 207 528 257 L528 660 L606 660 L606 262 Z M515 724 L454 724 L344 831 L234 724 L173 724 L320 910 L368 910 L515 724 Z " />
<glyph glyph-name="Udieresis" unicode="&#xdc;" horiz-adv-x="689" d="M606 262 Q606 196 586 145 Q566 94 531 59.5 Q496 25 448 7 Q400 -11 344 -11 Q287 -11 239 7 Q191 25 156 59.5 Q121 94 101.5 145 Q82 196 82 262 L82 660 L160 660 L160 257 Q160 207 174.5 170 Q189 133 213.5 109 Q238 85 271.5 73 Q305 61 344 61 Q382 61 415.5 73 Q449 85 474 109 Q499 133 513.5 170 Q528 207 528 257 L528 660 L606 660 L606 262 Z M459 863 Q482 863 498 847.5 Q514 832 514 809 Q514 787 498 771.5 Q482 756 459 756 Q438 756 421 771.5 Q404 787 404 809 Q404 832 421 847.5 Q438 863 459 863 Z M227 863 Q250 863 266 848 Q282 833 282 810 Q282 787 266 772 Q250 757 227 757 Q206 757 189 772 Q172 787 172 810 Q172 833 189 848 Q206 863 227 863 Z " />
<glyph glyph-name="Ugrave" unicode="&#xd9;" horiz-adv-x="689" d="M606 262 Q606 196 586 145 Q566 94 531 59.5 Q496 25 448 7 Q400 -11 344 -11 Q287 -11 239 7 Q191 25 156 59.5 Q121 94 101.5 145 Q82 196 82 262 L82 660 L160 660 L160 257 Q160 207 174.5 170 Q189 133 213.5 109 Q238 85 271.5 73 Q305 61 344 61 Q382 61 415.5 73 Q449 85 474 109 Q499 133 513.5 170 Q528 207 528 257 L528 660 L606 660 L606 262 Z M374 724 L315 724 L195 896 L195 910 L289 910 L374 724 Z " />
<glyph glyph-name="Uhungarumlaut" unicode="&#x170;" horiz-adv-x="689" d="M606 262 Q606 196 586 145 Q566 94 531 59.5 Q496 25 448 7 Q400 -11 344 -11 Q287 -11 239 7 Q191 25 156 59.5 Q121 94 101.5 145 Q82 196 82 262 L82 660 L160 660 L160 257 Q160 207 174.5 170 Q189 133 213.5 109 Q238 85 271.5 73 Q305 61 344 61 Q382 61 415.5 73 Q449 85 474 109 Q499 133 513.5 170 Q528 207 528 257 L528 660 L606 660 L606 262 Z M566 896 L454 724 L398 724 L483 910 L566 910 L566 896 Z M384 896 L271 724 L216 724 L301 910 L384 910 L384 896 Z " />
<glyph glyph-name="Umacron" unicode="&#x16a;" horiz-adv-x="689" d="M606 262 Q606 196 586 145 Q566 94 531 59.5 Q496 25 448 7 Q400 -11 344 -11 Q287 -11 239 7 Q191 25 156 59.5 Q121 94 101.5 145 Q82 196 82 262 L82 660 L160 660 L160 257 Q160 207 174.5 170 Q189 133 213.5 109 Q238 85 271.5 73 Q305 61 344 61 Q382 61 415.5 73 Q449 85 474 109 Q499 133 513.5 170 Q528 207 528 257 L528 660 L606 660 L606 262 Z M491 770 L196 770 L196 833 L491 833 L491 770 Z " />
<glyph glyph-name="Uogonek" unicode="&#x172;" horiz-adv-x="689" d="M606 262 Q606 204 592 163 Q578 122 556 91 Q534 60 506 35.5 Q478 11 451 -14 Q429 -34 416 -50.5 Q403 -67 403 -89 Q403 -110 416.5 -119.5 Q430 -129 454 -129 Q466 -129 479.5 -127 Q493 -125 507 -122 L507 -179 Q493 -184 474 -187.5 Q455 -191 433 -191 Q388 -191 357.5 -170.5 Q327 -150 327 -107 Q327 -78 342.5 -54 Q358 -30 389 -6 Q377 -8 364.5 -9.5 Q352 -11 339 -11 Q285 -11 238.5 8.5 Q192 28 157 63.5 Q122 99 102 149.5 Q82 200 82 262 L82 660 L160 660 L160 257 Q160 211 174.5 174.5 Q189 138 213.5 113 Q238 88 271.5 74.5 Q305 61 343 61 Q382 61 415.5 74.5 Q449 88 474 113 Q499 138 513.5 174.5 Q528 211 528 257 L528 660 L606 660 L606 262 Z " />
<glyph glyph-name="Uring" unicode="&#x16e;" horiz-adv-x="689" d="M606 262 Q606 196 586 145 Q566 94 531 59.5 Q496 25 448 7 Q400 -11 344 -11 Q287 -11 239 7 Q191 25 156 59.5 Q121 94 101.5 145 Q82 196 82 262 L82 660 L160 660 L160 257 Q160 207 174.5 170 Q189 133 213.5 109 Q238 85 271.5 73 Q305 61 344 61 Q382 61 415.5 73 Q449 85 474 109 Q499 133 513.5 170 Q528 207 528 257 L528 660 L606 660 L606 262 Z M343 914 Q367 914 387.5 905.5 Q408 897 423 882.5 Q438 868 446.5 848 Q455 828 455 806 Q455 783 446.5 763.5 Q438 744 423 729.5 Q408 715 387.5 706.5 Q367 698 343 698 Q320 698 300 706.5 Q280 715 265 729.5 Q250 744 241.5 763.5 Q233 783 233 806 Q233 828 241.5 848 Q250 868 265 882.5 Q280 897 300 905.5 Q320 914 343 914 Z M345 857 Q322 857 308 842.5 Q294 828 294 806 Q294 784 308.5 770 Q323 756 345 756 Q365 756 380 770 Q395 784 395 806 Q395 828 380.5 842.5 Q366 857 345 857 Z " />
<glyph glyph-name="Utilde" unicode="&#x168;" horiz-adv-x="689" d="M606 262 Q606 196 586 145 Q566 94 531 59.5 Q496 25 448 7 Q400 -11 344 -11 Q287 -11 239 7 Q191 25 156 59.5 Q121 94 101.5 145 Q82 196 82 262 L82 660 L160 660 L160 257 Q160 207 174.5 170 Q189 133 213.5 109 Q238 85 271.5 73 Q305 61 344 61 Q382 61 415.5 73 Q449 85 474 109 Q499 133 513.5 170 Q528 207 528 257 L528 660 L606 660 L606 262 Z M266 878 Q283 878 301 872 Q319 866 336 855 L370 833 Q383 825 392.5 819 Q402 813 414 813 Q429 813 436 823.5 Q443 834 443 850 L443 868 L508 868 Q509 862 509 855.5 Q509 849 509 842 Q509 800 486 771 Q463 742 424 742 Q405 742 386.5 748.5 Q368 755 351 766 L318 786 Q306 794 296 800 Q286 806 275 806 Q259 806 252 794.5 Q245 783 245 768 L245 752 L181 752 Q180 757 179.5 763 Q179 769 179 777 Q179 819 202 848.5 Q225 878 266 878 Z " />
<glyph glyph-name="V" unicode="V" horiz-adv-x="663" d="M346 -11 L318 -11 L31 660 L118 660 L332 143 L546 660 L633 660 L346 -11 Z " />
<glyph glyph-name="W" unicode="W" horiz-adv-x="1066" d="M753 157 L935 660 L1020 660 L769 -11 L742 -11 L532 512 L324 -11 L296 -11 L45 660 L131 660 L312 156 L518 671 L547 671 L753 157 Z " />
<glyph glyph-name="Wacute" unicode="&#x1e82;" horiz-adv-x="1066" d="M753 157 L935 660 L1020 660 L769 -11 L742 -11 L532 512 L324 -11 L296 -11 L45 660 L131 660 L312 156 L518 671 L547 671 L753 157 Z M683 896 L563 724 L504 724 L589 910 L683 910 L683 896 Z " />
<glyph glyph-name="Wcircumflex" unicode="&#x174;" horiz-adv-x="1066" d="M753 157 L935 660 L1020 660 L769 -11 L742 -11 L532 512 L324 -11 L296 -11 L45 660 L131 660 L312 156 L518 671 L547 671 L753 157 Z M704 724 L643 724 L533 831 L423 724 L362 724 L509 910 L557 910 L704 724 Z " />
<glyph glyph-name="Wdieresis" unicode="&#x1e84;" horiz-adv-x="1066" d="M753 157 L935 660 L1020 660 L769 -11 L742 -11 L532 512 L324 -11 L296 -11 L45 660 L131 660 L312 156 L518 671 L547 671 L753 157 Z M648 863 Q671 863 687 847.5 Q703 832 703 809 Q703 787 687 771.5 Q671 756 648 756 Q627 756 610 771.5 Q593 787 593 809 Q593 832 610 847.5 Q627 863 648 863 Z M416 863 Q439 863 455 848 Q471 833 471 810 Q471 787 455 772 Q439 757 416 757 Q395 757 378 772 Q361 787 361 810 Q361 833 378 848 Q395 863 416 863 Z " />
<glyph glyph-name="Wgrave" unicode="&#x1e80;" horiz-adv-x="1066" d="M753 157 L935 660 L1020 660 L769 -11 L742 -11 L532 512 L324 -11 L296 -11 L45 660 L131 660 L312 156 L518 671 L547 671 L753 157 Z M563 724 L504 724 L384 896 L384 910 L478 910 L563 724 Z " />
<glyph glyph-name="X" unicode="X" horiz-adv-x="599" d="M344 337 L568 0 L478 0 L299 271 L121 0 L30 0 L256 338 L45 660 L136 660 L300 403 L463 660 L552 660 L344 337 Z " />
<glyph glyph-name="Y" unicode="Y" horiz-adv-x="616" d="M347 273 L347 0 L269 0 L269 273 L40 660 L128 660 L308 350 L489 660 L576 660 L347 273 Z " />
<glyph glyph-name="Yacute" unicode="&#xdd;" horiz-adv-x="616" d="M347 273 L347 0 L269 0 L269 273 L40 660 L128 660 L308 350 L489 660 L576 660 L347 273 Z M455 896 L335 724 L276 724 L361 910 L455 910 L455 896 Z " />
<glyph glyph-name="Ycircumflex" unicode="&#x176;" horiz-adv-x="616" d="M347 273 L347 0 L269 0 L269 273 L40 660 L128 660 L308 350 L489 660 L576 660 L347 273 Z M476 724 L415 724 L305 831 L195 724 L134 724 L281 910 L329 910 L476 724 Z " />
<glyph glyph-name="Ydieresis" unicode="&#x178;" horiz-adv-x="616" d="M347 273 L347 0 L269 0 L269 273 L40 660 L128 660 L308 350 L489 660 L576 660 L347 273 Z M420 863 Q443 863 459 847.5 Q475 832 475 809 Q475 787 459 771.5 Q443 756 420 756 Q399 756 382 771.5 Q365 787 365 809 Q365 832 382 847.5 Q399 863 420 863 Z M188 863 Q211 863 227 848 Q243 833 243 810 Q243 787 227 772 Q211 757 188 757 Q167 757 150 772 Q133 787 133 810 Q133 833 150 848 Q167 863 188 863 Z " />
<glyph glyph-name="Ygrave" unicode="&#x1ef2;" horiz-adv-x="616" d="M347 273 L347 0 L269 0 L269 273 L40 660 L128 660 L308 350 L489 660 L576 660 L347 273 Z M335 724 L276 724 L156 896 L156 910 L250 910 L335 724 Z " />
<glyph glyph-name="Z" unicode="Z" horiz-adv-x="589" d="M553 637 L153 70 L554 70 L554 0 L32 0 L32 23 L430 590 L75 590 L75 660 L553 660 L553 637 Z " />
<glyph glyph-name="Zacute" unicode="&#x179;" horiz-adv-x="589" d="M553 637 L153 70 L554 70 L554 0 L32 0 L32 23 L430 590 L75 590 L75 660 L553 660 L553 637 Z M450 896 L330 724 L271 724 L356 910 L450 910 L450 896 Z " />
<glyph glyph-name="Zcaron" unicode="&#x17d;" horiz-adv-x="589" d="M553 637 L153 70 L554 70 L554 0 L32 0 L32 23 L430 590 L75 590 L75 660 L553 660 L553 637 Z M324 724 L276 724 L129 910 L190 910 L300 802 L410 910 L471 910 L324 724 Z " />
<glyph glyph-name="Zdotaccent" unicode="&#x17b;" horiz-adv-x="589" d="M553 637 L153 70 L554 70 L554 0 L32 0 L32 23 L430 590 L75 590 L75 660 L553 660 L553 637 Z M300 866 Q323 866 340 849.5 Q357 833 357 810 Q357 786 340 770 Q323 754 300 754 Q276 754 259 770 Q242 786 242 810 Q242 833 259 849.5 Q276 866 300 866 Z " />
<glyph glyph-name="uni021A" unicode="&#x21a;" horiz-adv-x="581" d="M561 590 L329 590 L329 0 L251 0 L251 590 L19 590 L19 660 L561 660 L561 590 Z M304 -220 L243 -220 L252 -49 L328 -49 L304 -220 Z " />
<glyph glyph-name="a" unicode="a" horiz-adv-x="528" d="M259 498 Q301 498 336 485.5 Q371 473 396.5 448 Q422 423 436 386 Q450 349 450 300 L450 0 L377 0 L377 62 Q351 27 309.5 8 Q268 -11 214 -11 Q177 -11 145.5 -1.5 Q114 8 91.5 25.5 Q69 43 56.5 68.5 Q44 94 44 126 Q44 188 91.5 225 Q139 262 219 262 L373 262 L373 304 Q373 366 341 396.5 Q309 427 254 427 Q209 427 175.5 406.5 Q142 386 113 349 L61 391 Q96 447 148 472.5 Q200 498 259 498 Z M223 53 Q253 53 280.5 63 Q308 73 328.5 91 Q349 109 361 133.5 Q373 158 373 187 L373 199 L227 199 Q123 199 123 130 Q123 91 153 72 Q183 53 223 53 Z " />
<glyph glyph-name="aacute" unicode="&#xe1;" horiz-adv-x="528" d="M259 498 Q301 498 336 485.5 Q371 473 396.5 448 Q422 423 436 386 Q450 349 450 300 L450 0 L377 0 L377 62 Q351 27 309.5 8 Q268 -11 214 -11 Q177 -11 145.5 -1.5 Q114 8 91.5 25.5 Q69 43 56.5 68.5 Q44 94 44 126 Q44 188 91.5 225 Q139 262 219 262 L373 262 L373 304 Q373 366 341 396.5 Q309 427 254 427 Q209 427 175.5 406.5 Q142 386 113 349 L61 391 Q96 447 148 472.5 Q200 498 259 498 Z M223 53 Q253 53 280.5 63 Q308 73 328.5 91 Q349 109 361 133.5 Q373 158 373 187 L373 199 L227 199 Q123 199 123 130 Q123 91 153 72 Q183 53 223 53 Z M411 766 L291 566 L232 566 L317 780 L411 780 L411 766 Z " />
<glyph glyph-name="abreve" unicode="&#x103;" horiz-adv-x="528" d="M259 498 Q301 498 336 485.5 Q371 473 396.5 448 Q422 423 436 386 Q450 349 450 300 L450 0 L377 0 L377 62 Q351 27 309.5 8 Q268 -11 214 -11 Q177 -11 145.5 -1.5 Q114 8 91.5 25.5 Q69 43 56.5 68.5 Q44 94 44 126 Q44 188 91.5 225 Q139 262 219 262 L373 262 L373 304 Q373 366 341 396.5 Q309 427 254 427 Q209 427 175.5 406.5 Q142 386 113 349 L61 391 Q96 447 148 472.5 Q200 498 259 498 Z M223 53 Q253 53 280.5 63 Q308 73 328.5 91 Q349 109 361 133.5 Q373 158 373 187 L373 199 L227 199 Q123 199 123 130 Q123 91 153 72 Q183 53 223 53 Z M411 736 Q411 704 399.5 676 Q388 648 368 627.5 Q348 607 320 595.5 Q292 584 259 584 Q226 584 198 595.5 Q170 607 150 627.5 Q130 648 118.5 676 Q107 704 107 736 L172 736 Q172 694 197 669.5 Q222 645 259 645 Q297 645 322 669.5 Q347 694 347 736 L411 736 Z " />
<glyph glyph-name="acircumflex" unicode="&#xe2;" horiz-adv-x="528" d="M259 498 Q301 498 336 485.5 Q371 473 396.5 448 Q422 423 436 386 Q450 349 450 300 L450 0 L377 0 L377 62 Q351 27 309.5 8 Q268 -11 214 -11 Q177 -11 145.5 -1.5 Q114 8 91.5 25.5 Q69 43 56.5 68.5 Q44 94 44 126 Q44 188 91.5 225 Q139 262 219 262 L373 262 L373 304 Q373 366 341 396.5 Q309 427 254 427 Q209 427 175.5 406.5 Q142 386 113 349 L61 391 Q96 447 148 472.5 Q200 498 259 498 Z M223 53 Q253 53 280.5 63 Q308 73 328.5 91 Q349 109 361 133.5 Q373 158 373 187 L373 199 L227 199 Q123 199 123 130 Q123 91 153 72 Q183 53 223 53 Z M419 566 L360 566 L260 693 L160 566 L100 566 L236 780 L284 780 L419 566 Z " />
<glyph glyph-name="adieresis" unicode="&#xe4;" horiz-adv-x="528" d="M259 498 Q301 498 336 485.5 Q371 473 396.5 448 Q422 423 436 386 Q450 349 450 300 L450 0 L377 0 L377 62 Q351 27 309.5 8 Q268 -11 214 -11 Q177 -11 145.5 -1.5 Q114 8 91.5 25.5 Q69 43 56.5 68.5 Q44 94 44 126 Q44 188 91.5 225 Q139 262 219 262 L373 262 L373 304 Q373 366 341 396.5 Q309 427 254 427 Q209 427 175.5 406.5 Q142 386 113 349 L61 391 Q96 447 148 472.5 Q200 498 259 498 Z M223 53 Q253 53 280.5 63 Q308 73 328.5 91 Q349 109 361 133.5 Q373 158 373 187 L373 199 L227 199 Q123 199 123 130 Q123 91 153 72 Q183 53 223 53 Z M364 727 Q387 727 403 711.5 Q419 696 419 673 Q419 651 403 635.5 Q387 620 364 620 Q343 620 326 635.5 Q309 651 309 673 Q309 696 326 711.5 Q343 727 364 727 Z M152 727 Q175 727 191 711.5 Q207 696 207 673 Q207 651 191 635.5 Q175 620 152 620 Q131 620 114 635.5 Q97 651 97 673 Q97 696 114 711.5 Q131 727 152 727 Z " />
<glyph glyph-name="agrave" unicode="&#xe0;" horiz-adv-x="528" d="M259 498 Q301 498 336 485.5 Q371 473 396.5 448 Q422 423 436 386 Q450 349 450 300 L450 0 L377 0 L377 62 Q351 27 309.5 8 Q268 -11 214 -11 Q177 -11 145.5 -1.5 Q114 8 91.5 25.5 Q69 43 56.5 68.5 Q44 94 44 126 Q44 188 91.5 225 Q139 262 219 262 L373 262 L373 304 Q373 366 341 396.5 Q309 427 254 427 Q209 427 175.5 406.5 Q142 386 113 349 L61 391 Q96 447 148 472.5 Q200 498 259 498 Z M223 53 Q253 53 280.5 63 Q308 73 328.5 91 Q349 109 361 133.5 Q373 158 373 187 L373 199 L227 199 Q123 199 123 130 Q123 91 153 72 Q183 53 223 53 Z M288 566 L229 566 L109 766 L109 780 L203 780 L288 566 Z " />
<glyph glyph-name="amacron" unicode="&#x101;" horiz-adv-x="528" d="M259 498 Q301 498 336 485.5 Q371 473 396.5 448 Q422 423 436 386 Q450 349 450 300 L450 0 L377 0 L377 62 Q351 27 309.5 8 Q268 -11 214 -11 Q177 -11 145.5 -1.5 Q114 8 91.5 25.5 Q69 43 56.5 68.5 Q44 94 44 126 Q44 188 91.5 225 Q139 262 219 262 L373 262 L373 304 Q373 366 341 396.5 Q309 427 254 427 Q209 427 175.5 406.5 Q142 386 113 349 L61 391 Q96 447 148 472.5 Q200 498 259 498 Z M223 53 Q253 53 280.5 63 Q308 73 328.5 91 Q349 109 361 133.5 Q373 158 373 187 L373 199 L227 199 Q123 199 123 130 Q123 91 153 72 Q183 53 223 53 Z M396 642 L121 642 L121 704 L396 704 L396 642 Z " />
<glyph glyph-name="aogonek" unicode="&#x105;" horiz-adv-x="528" d="M259 498 Q301 498 336 485.5 Q371 473 396.5 448 Q422 423 436 386 Q450 349 450 300 L450 0 L377 0 L377 62 Q351 27 309.5 8 Q268 -11 214 -11 Q177 -11 145.5 -1.5 Q114 8 91.5 25.5 Q69 43 56.5 68.5 Q44 94 44 126 Q44 188 91.5 225 Q139 262 219 262 L373 262 L373 304 Q373 366 341 396.5 Q309 427 254 427 Q209 427 175.5 406.5 Q142 386 113 349 L61 391 Q96 447 148 472.5 Q200 498 259 498 Z M223 53 Q253 53 280.5 63 Q308 73 328.5 91 Q349 109 361 133.5 Q373 158 373 187 L373 199 L227 199 Q123 199 123 130 Q123 91 153 72 Q183 53 223 53 Z M450 0 L401 -33 Q378 -48 363.5 -60 Q349 -72 349 -92 Q349 -129 397 -129 Q408 -129 422 -127 Q436 -125 450 -122 L450 -180 Q436 -185 416.5 -188 Q397 -191 378 -191 Q330 -191 300.5 -167.5 Q271 -144 271 -104 Q271 -85 279 -69 Q287 -53 304.5 -36.5 Q322 -20 350.5 -3 Q379 14 420 35 L450 0 Z " />
<glyph glyph-name="aring" unicode="&#xe5;" horiz-adv-x="528" d="M259 498 Q301 498 336 485.5 Q371 473 396.5 448 Q422 423 436 386 Q450 349 450 300 L450 0 L377 0 L377 62 Q351 27 309.5 8 Q268 -11 214 -11 Q177 -11 145.5 -1.5 Q114 8 91.5 25.5 Q69 43 56.5 68.5 Q44 94 44 126 Q44 188 91.5 225 Q139 262 219 262 L373 262 L373 304 Q373 366 341 396.5 Q309 427 254 427 Q209 427 175.5 406.5 Q142 386 113 349 L61 391 Q96 447 148 472.5 Q200 498 259 498 Z M223 53 Q253 53 280.5 63 Q308 73 328.5 91 Q349 109 361 133.5 Q373 158 373 187 L373 199 L227 199 Q123 199 123 130 Q123 91 153 72 Q183 53 223 53 Z M258 776 Q282 776 302.5 767.5 Q323 759 338 744.5 Q353 730 361.5 710.5 Q370 691 370 668 Q370 645 361.5 625.5 Q353 606 338 591 Q323 576 302.5 567.5 Q282 559 258 559 Q235 559 215 567.5 Q195 576 180 591 Q165 606 156.5 625.5 Q148 645 148 668 Q148 691 156.5 710.5 Q165 730 180 744.5 Q195 759 215 767.5 Q235 776 258 776 Z M260 720 Q238 720 223.5 705 Q209 690 209 668 Q209 646 223 632 Q237 618 260 618 Q281 618 295.5 632 Q310 646 310 668 Q310 690 295 705 Q280 720 260 720 Z " />
<glyph glyph-name="atilde" unicode="&#xe3;" horiz-adv-x="528" d="M259 498 Q301 498 336 485.5 Q371 473 396.5 448 Q422 423 436 386 Q450 349 450 300 L450 0 L377 0 L377 62 Q351 27 309.5 8 Q268 -11 214 -11 Q177 -11 145.5 -1.5 Q114 8 91.5 25.5 Q69 43 56.5 68.5 Q44 94 44 126 Q44 188 91.5 225 Q139 262 219 262 L373 262 L373 304 Q373 366 341 396.5 Q309 427 254 427 Q209 427 175.5 406.5 Q142 386 113 349 L61 391 Q96 447 148 472.5 Q200 498 259 498 Z M223 53 Q253 53 280.5 63 Q308 73 328.5 91 Q349 109 361 133.5 Q373 158 373 187 L373 199 L227 199 Q123 199 123 130 Q123 91 153 72 Q183 53 223 53 Z M187 738 Q224 738 255 712 L281 690 Q293 679 302.5 673 Q312 667 323 667 Q339 667 345 679 Q351 691 351 708 L351 725 L415 725 Q416 718 416 712 Q416 706 416 700 Q416 656 394 626 Q372 596 331 596 Q294 596 263 622 L237 644 Q225 654 216 660.5 Q207 667 195 667 Q179 667 173 655 Q167 643 167 626 L167 609 L103 609 Q102 616 102 621.5 Q102 627 102 634 Q102 679 124 708.5 Q146 738 187 738 Z " />
<glyph glyph-name="ae" unicode="&#xe6;" horiz-adv-x="895" d="M260 498 Q318 498 362 472 Q406 446 427 395 Q460 443 510.5 470.5 Q561 498 624 498 Q670 498 710.5 482 Q751 466 781 436.5 Q811 407 828 366.5 Q845 326 845 277 Q845 257 842.5 238 Q840 219 838 211 L455 211 Q465 142 513.5 101 Q562 60 633 60 Q678 60 714 77.5 Q750 95 780 125 L826 74 Q788 33 738.5 11 Q689 -11 632 -11 Q561 -11 505 21.5 Q449 54 417 108 Q391 50 337 19.5 Q283 -11 216 -11 Q138 -11 91 27 Q44 65 44 130 Q44 195 91.5 234.5 Q139 274 219 274 L373 274 L373 304 Q373 366 340.5 396.5 Q308 427 255 427 Q210 427 176.5 406 Q143 385 115 349 L63 391 Q98 447 150.5 472.5 Q203 498 260 498 Z M621 428 Q588 428 560 417 Q532 406 510 385.5 Q488 365 473.5 336.5 Q459 308 455 274 L765 274 Q767 311 756.5 339.5 Q746 368 726 387.5 Q706 407 678.5 417.5 Q651 428 621 428 Z M224 54 Q254 54 281 64 Q308 74 328.5 91.5 Q349 109 361 133 Q373 157 373 186 L373 211 L227 211 Q123 211 123 138 Q123 96 153 75 Q183 54 224 54 Z " />
<glyph glyph-name="aeacute" unicode="&#x1fd;" horiz-adv-x="895" d="M260 498 Q318 498 362 472 Q406 446 427 395 Q460 443 510.5 470.5 Q561 498 624 498 Q670 498 710.5 482 Q751 466 781 436.5 Q811 407 828 366.5 Q845 326 845 277 Q845 257 842.5 238 Q840 219 838 211 L455 211 Q465 142 513.5 101 Q562 60 633 60 Q678 60 714 77.5 Q750 95 780 125 L826 74 Q788 33 738.5 11 Q689 -11 632 -11 Q561 -11 505 21.5 Q449 54 417 108 Q391 50 337 19.5 Q283 -11 216 -11 Q138 -11 91 27 Q44 65 44 130 Q44 195 91.5 234.5 Q139 274 219 274 L373 274 L373 304 Q373 366 340.5 396.5 Q308 427 255 427 Q210 427 176.5 406 Q143 385 115 349 L63 391 Q98 447 150.5 472.5 Q203 498 260 498 Z M621 428 Q588 428 560 417 Q532 406 510 385.5 Q488 365 473.5 336.5 Q459 308 455 274 L765 274 Q767 311 756.5 339.5 Q746 368 726 387.5 Q706 407 678.5 417.5 Q651 428 621 428 Z M224 54 Q254 54 281 64 Q308 74 328.5 91.5 Q349 109 361 133 Q373 157 373 186 L373 211 L227 211 Q123 211 123 138 Q123 96 153 75 Q183 54 224 54 Z M578 766 L458 566 L399 566 L484 780 L578 780 L578 766 Z " />
<glyph glyph-name="b" unicode="b" horiz-adv-x="632" d="M162 415 Q191 453 238 475.5 Q285 498 341 498 Q393 498 437 478.5 Q481 459 513.5 424.5 Q546 390 564 343.5 Q582 297 582 243 Q582 189 564 143 Q546 97 514 62.5 Q482 28 438 8.5 Q394 -11 342 -11 Q285 -11 235.5 12.5 Q186 36 157 78 L157 0 L85 0 L85 750 L162 750 L162 415 Z M331 427 Q299 427 268.5 416 Q238 405 214 382.5 Q190 360 175.5 325.5 Q161 291 161 243 Q161 195 175.5 160.5 Q190 126 214 103.5 Q238 81 268.5 70.5 Q299 60 331 60 Q368 60 400 74 Q432 88 454.5 112.5 Q477 137 490 170.5 Q503 204 503 244 Q503 284 490 317.5 Q477 351 454 375.5 Q431 400 399.5 413.5 Q368 427 331 427 Z " />
<glyph glyph-name="c" unicode="c" horiz-adv-x="551" d="M305 498 Q371 498 422 469 Q473 440 505 392 L451 348 Q424 384 389 405.5 Q354 427 306 427 Q268 427 235.5 412.5 Q203 398 179.5 373.5 Q156 349 142.5 315.5 Q129 282 129 244 Q129 205 142.5 171.5 Q156 138 179.5 113.5 Q203 89 235.5 74.5 Q268 60 306 60 Q353 60 388 81 Q423 102 450 138 L504 95 Q472 47 421 18 Q370 -11 305 -11 Q252 -11 205.5 8.5 Q159 28 124.5 62.5 Q90 97 70 143.5 Q50 190 50 244 Q50 297 70 343.5 Q90 390 124.5 424.5 Q159 459 205.5 478.5 Q252 498 305 498 Z " />
<glyph glyph-name="cacute" unicode="&#x107;" horiz-adv-x="551" d="M305 498 Q371 498 422 469 Q473 440 505 392 L451 348 Q424 384 389 405.5 Q354 427 306 427 Q268 427 235.5 412.5 Q203 398 179.5 373.5 Q156 349 142.5 315.5 Q129 282 129 244 Q129 205 142.5 171.5 Q156 138 179.5 113.5 Q203 89 235.5 74.5 Q268 60 306 60 Q353 60 388 81 Q423 102 450 138 L504 95 Q472 47 421 18 Q370 -11 305 -11 Q252 -11 205.5 8.5 Q159 28 124.5 62.5 Q90 97 70 143.5 Q50 190 50 244 Q50 297 70 343.5 Q90 390 124.5 424.5 Q159 459 205.5 478.5 Q252 498 305 498 Z M456 766 L336 566 L277 566 L362 780 L456 780 L456 766 Z " />
<glyph glyph-name="ccaron" unicode="&#x10d;" horiz-adv-x="551" d="M305 498 Q371 498 422 469 Q473 440 505 392 L451 348 Q424 384 389 405.5 Q354 427 306 427 Q268 427 235.5 412.5 Q203 398 179.5 373.5 Q156 349 142.5 315.5 Q129 282 129 244 Q129 205 142.5 171.5 Q156 138 179.5 113.5 Q203 89 235.5 74.5 Q268 60 306 60 Q353 60 388 81 Q423 102 450 138 L504 95 Q472 47 421 18 Q370 -11 305 -11 Q252 -11 205.5 8.5 Q159 28 124.5 62.5 Q90 97 70 143.5 Q50 190 50 244 Q50 297 70 343.5 Q90 390 124.5 424.5 Q159 459 205.5 478.5 Q252 498 305 498 Z M329 566 L281 566 L145 780 L205 780 L305 653 L405 780 L464 780 L329 566 Z " />
<glyph glyph-name="ccedilla" unicode="&#xe7;" horiz-adv-x="551" d="M305 498 Q371 498 422 469 Q473 440 505 392 L451 348 Q424 384 389 405.5 Q354 427 306 427 Q268 427 235.5 412.5 Q203 398 179.5 373.5 Q156 349 142.5 315.5 Q129 282 129 244 Q129 205 142.5 171.5 Q156 138 179.5 113.5 Q203 89 235.5 74.5 Q268 60 306 60 Q353 60 388 81 Q423 102 450 138 L504 95 Q472 47 421 18 Q370 -11 305 -11 Q252 -11 205.5 8.5 Q159 28 124.5 62.5 Q90 97 70 143.5 Q50 190 50 244 Q50 297 70 343.5 Q90 390 124.5 424.5 Q159 459 205.5 478.5 Q252 498 305 498 Z M308 26 Q337 12 355.5 -14.5 Q374 -41 374 -76 Q374 -100 365 -120.5 Q356 -141 339.5 -157 Q323 -173 298.5 -182 Q274 -191 243 -191 Q226 -191 208 -188.5 Q190 -186 174 -181 L174 -126 Q192 -128 207 -129 Q222 -130 230 -130 Q263 -130 285.5 -115 Q308 -100 308 -65 Q308 -41 298 -23 Q288 -5 275 9 L308 26 Z " />
<glyph glyph-name="ccircumflex" unicode="&#x109;" horiz-adv-x="551" d="M305 498 Q371 498 422 469 Q473 440 505 392 L451 348 Q424 384 389 405.5 Q354 427 306 427 Q268 427 235.5 412.5 Q203 398 179.5 373.5 Q156 349 142.5 315.5 Q129 282 129 244 Q129 205 142.5 171.5 Q156 138 179.5 113.5 Q203 89 235.5 74.5 Q268 60 306 60 Q353 60 388 81 Q423 102 450 138 L504 95 Q472 47 421 18 Q370 -11 305 -11 Q252 -11 205.5 8.5 Q159 28 124.5 62.5 Q90 97 70 143.5 Q50 190 50 244 Q50 297 70 343.5 Q90 390 124.5 424.5 Q159 459 205.5 478.5 Q252 498 305 498 Z M464 566 L405 566 L305 693 L205 566 L145 566 L281 780 L329 780 L464 566 Z " />
<glyph glyph-name="cdotaccent" unicode="&#x10b;" horiz-adv-x="551" d="M305 498 Q371 498 422 469 Q473 440 505 392 L451 348 Q424 384 389 405.5 Q354 427 306 427 Q268 427 235.5 412.5 Q203 398 179.5 373.5 Q156 349 142.5 315.5 Q129 282 129 244 Q129 205 142.5 171.5 Q156 138 179.5 113.5 Q203 89 235.5 74.5 Q268 60 306 60 Q353 60 388 81 Q423 102 450 138 L504 95 Q472 47 421 18 Q370 -11 305 -11 Q252 -11 205.5 8.5 Q159 28 124.5 62.5 Q90 97 70 143.5 Q50 190 50 244 Q50 297 70 343.5 Q90 390 124.5 424.5 Q159 459 205.5 478.5 Q252 498 305 498 Z M304 729 Q327 729 344 712.5 Q361 696 361 673 Q361 649 344 633 Q327 617 304 617 Q280 617 263 633 Q246 649 246 673 Q246 696 263 712.5 Q280 729 304 729 Z " />
<glyph glyph-name="d" unicode="d" horiz-adv-x="632" d="M547 0 L475 0 L475 78 Q446 36 397.5 12.5 Q349 -11 291 -11 Q238 -11 194 8.5 Q150 28 118 62.5 Q86 97 68 143 Q50 189 50 243 Q50 297 68 343.5 Q86 390 118.5 424.5 Q151 459 195 478.5 Q239 498 291 498 Q346 498 393.5 475.5 Q441 453 470 414 L470 750 L547 750 L547 0 Z M302 427 Q265 427 233.5 413.5 Q202 400 178.5 375.5 Q155 351 142 317.5 Q129 284 129 244 Q129 204 142 170.5 Q155 137 178 112.5 Q201 88 232.5 74 Q264 60 302 60 Q333 60 363.5 70.5 Q394 81 418 103.5 Q442 126 456.5 160.5 Q471 195 471 243 Q471 291 456.5 325.5 Q442 360 418 382.5 Q394 405 363.5 416 Q333 427 302 427 Z " />
<glyph glyph-name="eth" unicode="&#xf0;" horiz-adv-x="569" d="M446 676 L301 606 L409 459 Q432 428 452 400 Q472 372 486.5 343.5 Q501 315 509.5 285.5 Q518 256 518 222 Q518 172 500.5 129.5 Q483 87 451.5 56 Q420 25 377.5 7 Q335 -11 284 -11 Q233 -11 190 6.5 Q147 24 116 55 Q85 86 67.5 127.5 Q50 169 50 217 Q50 265 67.5 306.5 Q85 348 115.5 378 Q146 408 187 425 Q228 442 275 442 Q308 442 335 433 L233 573 L85 502 L58 559 L196 625 L129 718 L187 761 L263 657 L418 731 L446 676 Z M284 373 Q251 373 222.5 361.5 Q194 350 173 329 Q152 308 140.5 279 Q129 250 129 216 Q129 182 140.5 153.5 Q152 125 172.5 104 Q193 83 221.5 71.5 Q250 60 284 60 Q317 60 345.5 71.5 Q374 83 394.5 104 Q415 125 427 154 Q439 183 439 217 Q439 251 427 279.5 Q415 308 394.5 329 Q374 350 345.5 361.5 Q317 373 284 373 Z " />
<glyph glyph-name="dcaron" unicode="&#x10f;" horiz-adv-x="632" d="M547 0 L475 0 L475 78 Q446 36 397.5 12.5 Q349 -11 291 -11 Q238 -11 194 8.5 Q150 28 118 62.5 Q86 97 68 143 Q50 189 50 243 Q50 297 68 343.5 Q86 390 118.5 424.5 Q151 459 195 478.5 Q239 498 291 498 Q346 498 393.5 475.5 Q441 453 470 414 L470 750 L547 750 L547 0 Z M302 427 Q265 427 233.5 413.5 Q202 400 178.5 375.5 Q155 351 142 317.5 Q129 284 129 244 Q129 204 142 170.5 Q155 137 178 112.5 Q201 88 232.5 74 Q264 60 302 60 Q333 60 363.5 70.5 Q394 81 418 103.5 Q442 126 456.5 160.5 Q471 195 471 243 Q471 291 456.5 325.5 Q442 360 418 382.5 Q394 405 363.5 416 Q333 427 302 427 Z M706 539 L648 539 L661 750 L744 750 L706 539 Z " />
<glyph glyph-name="dcroat" unicode="&#x111;" horiz-adv-x="634" d="M629 581 L546 581 L546 0 L474 0 L474 80 Q445 37 394.5 13 Q344 -11 287 -11 Q236 -11 192.5 8 Q149 27 117 60 Q85 93 67 138 Q49 183 49 236 Q49 289 67 334.5 Q85 380 117 413 Q149 446 192.5 465 Q236 484 287 484 Q342 484 390.5 461 Q439 438 469 399 L469 581 L251 581 L251 645 L469 645 L469 750 L546 750 L546 645 L629 645 L629 581 Z M301 415 Q264 415 232.5 402 Q201 389 177.5 365 Q154 341 141 308 Q128 275 128 236 Q128 197 141 164.5 Q154 132 177 108 Q200 84 231.5 71 Q263 58 301 58 Q332 58 362.5 68 Q393 78 417 99.5 Q441 121 455.5 155 Q470 189 470 236 Q470 283 455.5 317 Q441 351 417 372.5 Q393 394 362.5 404.5 Q332 415 301 415 Z " />
<glyph glyph-name="e" unicode="e" horiz-adv-x="571" d="M299 498 Q345 498 385.5 482 Q426 466 456 437 Q486 408 503 367.5 Q520 327 520 278 Q520 258 518 242.5 Q516 227 514 220 L130 220 Q134 183 148.5 153.5 Q163 124 186.5 103 Q210 82 241 71 Q272 60 308 60 Q355 60 391 78 Q427 96 457 126 L502 74 Q466 35 416.5 12 Q367 -11 307 -11 Q252 -11 205 8.5 Q158 28 123.5 62.5 Q89 97 69.5 143 Q50 189 50 243 Q50 296 69 342.5 Q88 389 122 423.5 Q156 458 201 478 Q246 498 299 498 Z M297 428 Q266 428 238.5 418 Q211 408 189.5 389.5 Q168 371 153.5 345 Q139 319 133 288 L441 288 Q441 322 429 348 Q417 374 397.5 392 Q378 410 352 419 Q326 428 297 428 Z " />
<glyph glyph-name="eacute" unicode="&#xe9;" horiz-adv-x="571" d="M299 498 Q345 498 385.5 482 Q426 466 456 437 Q486 408 503 367.5 Q520 327 520 278 Q520 258 518 242.5 Q516 227 514 220 L130 220 Q134 183 148.5 153.5 Q163 124 186.5 103 Q210 82 241 71 Q272 60 308 60 Q355 60 391 78 Q427 96 457 126 L502 74 Q466 35 416.5 12 Q367 -11 307 -11 Q252 -11 205 8.5 Q158 28 123.5 62.5 Q89 97 69.5 143 Q50 189 50 243 Q50 296 69 342.5 Q88 389 122 423.5 Q156 458 201 478 Q246 498 299 498 Z M297 428 Q266 428 238.5 418 Q211 408 189.5 389.5 Q168 371 153.5 345 Q139 319 133 288 L441 288 Q441 322 429 348 Q417 374 397.5 392 Q378 410 352 419 Q326 428 297 428 Z M449 766 L329 566 L270 566 L355 780 L449 780 L449 766 Z " />
<glyph glyph-name="ebreve" unicode="&#x115;" horiz-adv-x="571" d="M299 498 Q345 498 385.5 482 Q426 466 456 437 Q486 408 503 367.5 Q520 327 520 278 Q520 258 518 242.5 Q516 227 514 220 L130 220 Q134 183 148.5 153.5 Q163 124 186.5 103 Q210 82 241 71 Q272 60 308 60 Q355 60 391 78 Q427 96 457 126 L502 74 Q466 35 416.5 12 Q367 -11 307 -11 Q252 -11 205 8.5 Q158 28 123.5 62.5 Q89 97 69.5 143 Q50 189 50 243 Q50 296 69 342.5 Q88 389 122 423.5 Q156 458 201 478 Q246 498 299 498 Z M297 428 Q266 428 238.5 418 Q211 408 189.5 389.5 Q168 371 153.5 345 Q139 319 133 288 L441 288 Q441 322 429 348 Q417 374 397.5 392 Q378 410 352 419 Q326 428 297 428 Z M449 736 Q449 704 437.5 676 Q426 648 406 627.5 Q386 607 358 595.5 Q330 584 297 584 Q264 584 236 595.5 Q208 607 188 627.5 Q168 648 156.5 676 Q145 704 145 736 L210 736 Q210 694 235 669.5 Q260 645 297 645 Q335 645 360 669.5 Q385 694 385 736 L449 736 Z " />
<glyph glyph-name="ecaron" unicode="&#x11b;" horiz-adv-x="571" d="M299 498 Q345 498 385.5 482 Q426 466 456 437 Q486 408 503 367.5 Q520 327 520 278 Q520 258 518 242.5 Q516 227 514 220 L130 220 Q134 183 148.5 153.5 Q163 124 186.5 103 Q210 82 241 71 Q272 60 308 60 Q355 60 391 78 Q427 96 457 126 L502 74 Q466 35 416.5 12 Q367 -11 307 -11 Q252 -11 205 8.5 Q158 28 123.5 62.5 Q89 97 69.5 143 Q50 189 50 243 Q50 296 69 342.5 Q88 389 122 423.5 Q156 458 201 478 Q246 498 299 498 Z M297 428 Q266 428 238.5 418 Q211 408 189.5 389.5 Q168 371 153.5 345 Q139 319 133 288 L441 288 Q441 322 429 348 Q417 374 397.5 392 Q378 410 352 419 Q326 428 297 428 Z M322 566 L274 566 L138 780 L198 780 L298 653 L398 780 L457 780 L322 566 Z " />
<glyph glyph-name="ecircumflex" unicode="&#xea;" horiz-adv-x="571" d="M299 498 Q345 498 385.5 482 Q426 466 456 437 Q486 408 503 367.5 Q520 327 520 278 Q520 258 518 242.5 Q516 227 514 220 L130 220 Q134 183 148.5 153.5 Q163 124 186.5 103 Q210 82 241 71 Q272 60 308 60 Q355 60 391 78 Q427 96 457 126 L502 74 Q466 35 416.5 12 Q367 -11 307 -11 Q252 -11 205 8.5 Q158 28 123.5 62.5 Q89 97 69.5 143 Q50 189 50 243 Q50 296 69 342.5 Q88 389 122 423.5 Q156 458 201 478 Q246 498 299 498 Z M297 428 Q266 428 238.5 418 Q211 408 189.5 389.5 Q168 371 153.5 345 Q139 319 133 288 L441 288 Q441 322 429 348 Q417 374 397.5 392 Q378 410 352 419 Q326 428 297 428 Z M457 566 L398 566 L298 693 L198 566 L138 566 L274 780 L322 780 L457 566 Z " />
<glyph glyph-name="edieresis" unicode="&#xeb;" horiz-adv-x="571" d="M299 498 Q345 498 385.5 482 Q426 466 456 437 Q486 408 503 367.5 Q520 327 520 278 Q520 258 518 242.5 Q516 227 514 220 L130 220 Q134 183 148.5 153.5 Q163 124 186.5 103 Q210 82 241 71 Q272 60 308 60 Q355 60 391 78 Q427 96 457 126 L502 74 Q466 35 416.5 12 Q367 -11 307 -11 Q252 -11 205 8.5 Q158 28 123.5 62.5 Q89 97 69.5 143 Q50 189 50 243 Q50 296 69 342.5 Q88 389 122 423.5 Q156 458 201 478 Q246 498 299 498 Z M297 428 Q266 428 238.5 418 Q211 408 189.5 389.5 Q168 371 153.5 345 Q139 319 133 288 L441 288 Q441 322 429 348 Q417 374 397.5 392 Q378 410 352 419 Q326 428 297 428 Z M402 727 Q425 727 441 711.5 Q457 696 457 673 Q457 651 441 635.5 Q425 620 402 620 Q381 620 364 635.5 Q347 651 347 673 Q347 696 364 711.5 Q381 727 402 727 Z M190 727 Q213 727 229 711.5 Q245 696 245 673 Q245 651 229 635.5 Q213 620 190 620 Q169 620 152 635.5 Q135 651 135 673 Q135 696 152 711.5 Q169 727 190 727 Z " />
<glyph glyph-name="edotaccent" unicode="&#x117;" horiz-adv-x="571" d="M299 498 Q345 498 385.5 482 Q426 466 456 437 Q486 408 503 367.5 Q520 327 520 278 Q520 258 518 242.5 Q516 227 514 220 L130 220 Q134 183 148.5 153.5 Q163 124 186.5 103 Q210 82 241 71 Q272 60 308 60 Q355 60 391 78 Q427 96 457 126 L502 74 Q466 35 416.5 12 Q367 -11 307 -11 Q252 -11 205 8.5 Q158 28 123.5 62.5 Q89 97 69.5 143 Q50 189 50 243 Q50 296 69 342.5 Q88 389 122 423.5 Q156 458 201 478 Q246 498 299 498 Z M297 428 Q266 428 238.5 418 Q211 408 189.5 389.5 Q168 371 153.5 345 Q139 319 133 288 L441 288 Q441 322 429 348 Q417 374 397.5 392 Q378 410 352 419 Q326 428 297 428 Z M297 729 Q320 729 337 712.5 Q354 696 354 673 Q354 649 337 633 Q320 617 297 617 Q273 617 256 633 Q239 649 239 673 Q239 696 256 712.5 Q273 729 297 729 Z " />
<glyph glyph-name="egrave" unicode="&#xe8;" horiz-adv-x="571" d="M299 498 Q345 498 385.5 482 Q426 466 456 437 Q486 408 503 367.5 Q520 327 520 278 Q520 258 518 242.5 Q516 227 514 220 L130 220 Q134 183 148.5 153.5 Q163 124 186.5 103 Q210 82 241 71 Q272 60 308 60 Q355 60 391 78 Q427 96 457 126 L502 74 Q466 35 416.5 12 Q367 -11 307 -11 Q252 -11 205 8.5 Q158 28 123.5 62.5 Q89 97 69.5 143 Q50 189 50 243 Q50 296 69 342.5 Q88 389 122 423.5 Q156 458 201 478 Q246 498 299 498 Z M297 428 Q266 428 238.5 418 Q211 408 189.5 389.5 Q168 371 153.5 345 Q139 319 133 288 L441 288 Q441 322 429 348 Q417 374 397.5 392 Q378 410 352 419 Q326 428 297 428 Z M326 566 L267 566 L147 766 L147 780 L241 780 L326 566 Z " />
<glyph glyph-name="emacron" unicode="&#x113;" horiz-adv-x="571" d="M299 498 Q345 498 385.5 482 Q426 466 456 437 Q486 408 503 367.5 Q520 327 520 278 Q520 258 518 242.5 Q516 227 514 220 L130 220 Q134 183 148.5 153.5 Q163 124 186.5 103 Q210 82 241 71 Q272 60 308 60 Q355 60 391 78 Q427 96 457 126 L502 74 Q466 35 416.5 12 Q367 -11 307 -11 Q252 -11 205 8.5 Q158 28 123.5 62.5 Q89 97 69.5 143 Q50 189 50 243 Q50 296 69 342.5 Q88 389 122 423.5 Q156 458 201 478 Q246 498 299 498 Z M297 428 Q266 428 238.5 418 Q211 408 189.5 389.5 Q168 371 153.5 345 Q139 319 133 288 L441 288 Q441 322 429 348 Q417 374 397.5 392 Q378 410 352 419 Q326 428 297 428 Z M434 642 L159 642 L159 704 L434 704 L434 642 Z " />
<glyph glyph-name="eogonek" unicode="&#x119;" horiz-adv-x="571" d="M299 498 Q345 498 385.5 482 Q426 466 456 437 Q486 408 503 367.5 Q520 327 520 278 Q520 258 518 242.5 Q516 227 514 220 L130 220 Q134 183 148.5 153.5 Q163 124 186.5 103 Q210 82 241 71 Q272 60 308 60 Q355 60 392 78 Q429 96 460 128 L501 75 Q479 49 452 31 Q425 13 391 -10 Q365 -28 346 -46.5 Q327 -65 327 -90 Q327 -130 379 -130 Q390 -130 404 -128 Q418 -126 432 -123 L432 -178 Q421 -183 401.5 -187 Q382 -191 360 -191 Q312 -191 282.5 -168 Q253 -145 253 -104 Q253 -78 267.5 -56 Q282 -34 314 -11 L302 -11 Q249 -11 203.5 8.5 Q158 28 123.5 62.5 Q89 97 69.5 143 Q50 189 50 243 Q50 296 69 342.5 Q88 389 122 423.5 Q156 458 201 478 Q246 498 299 498 Z M297 428 Q266 428 238.5 418 Q211 408 189.5 389.5 Q168 371 153.5 345 Q139 319 133 288 L441 288 Q441 322 429 348 Q417 374 397.5 392 Q378 410 352 419 Q326 428 297 428 Z " />
<glyph glyph-name="f" unicode="f" horiz-adv-x="303" d="M295 418 L174 418 L174 0 L97 0 L97 418 L27 418 L27 487 L97 487 L97 603 Q97 645 109 674.5 Q121 704 142.5 723.5 Q164 743 193.5 752 Q223 761 258 761 Q276 761 290.5 759 Q305 757 318 753 L318 688 Q294 691 275 691 Q230 691 202 672 Q174 653 174 598 L174 487 L295 487 L295 418 Z " />
<glyph glyph-name="g" unicode="g" horiz-adv-x="637" d="M294 498 Q352 498 401.5 474 Q451 450 480 407 L480 487 L552 487 L552 47 Q552 -9 535 -53.5 Q518 -98 487 -128.5 Q456 -159 412.5 -175 Q369 -191 316 -191 Q277 -191 243.5 -183 Q210 -175 181 -162 Q152 -149 128 -132 Q104 -115 86 -97 L131 -43 Q167 -74 210.5 -97 Q254 -120 314 -120 Q388 -120 431.5 -79 Q475 -38 475 43 L475 85 Q445 47 397 26 Q349 5 294 5 Q243 5 199 23.5 Q155 42 123 75 Q91 108 73 153 Q55 198 55 251 Q55 304 73 349 Q91 394 123 427 Q155 460 199 479 Q243 498 294 498 Z M307 425 Q270 425 238.5 412 Q207 399 183.5 376 Q160 353 147 321 Q134 289 134 250 Q134 211 147 179 Q160 147 183.5 124 Q207 101 238.5 88.5 Q270 76 307 76 Q338 76 368.5 86 Q399 96 423 117.5 Q447 139 461.5 172 Q476 205 476 251 Q476 297 461.5 330 Q447 363 423 384 Q399 405 368.5 415 Q338 425 307 425 Z " />
<glyph glyph-name="gbreve" unicode="&#x11f;" horiz-adv-x="637" d="M294 498 Q352 498 401.5 474 Q451 450 480 407 L480 487 L552 487 L552 47 Q552 -9 535 -53.5 Q518 -98 487 -128.5 Q456 -159 412.5 -175 Q369 -191 316 -191 Q277 -191 243.5 -183 Q210 -175 181 -162 Q152 -149 128 -132 Q104 -115 86 -97 L131 -43 Q167 -74 210.5 -97 Q254 -120 314 -120 Q388 -120 431.5 -79 Q475 -38 475 43 L475 85 Q445 47 397 26 Q349 5 294 5 Q243 5 199 23.5 Q155 42 123 75 Q91 108 73 153 Q55 198 55 251 Q55 304 73 349 Q91 394 123 427 Q155 460 199 479 Q243 498 294 498 Z M307 425 Q270 425 238.5 412 Q207 399 183.5 376 Q160 353 147 321 Q134 289 134 250 Q134 211 147 179 Q160 147 183.5 124 Q207 101 238.5 88.5 Q270 76 307 76 Q338 76 368.5 86 Q399 96 423 117.5 Q447 139 461.5 172 Q476 205 476 251 Q476 297 461.5 330 Q447 363 423 384 Q399 405 368.5 415 Q338 425 307 425 Z M463 736 Q463 704 451.5 676 Q440 648 420 627.5 Q400 607 372 595.5 Q344 584 311 584 Q278 584 250 595.5 Q222 607 202 627.5 Q182 648 170.5 676 Q159 704 159 736 L224 736 Q224 694 249 669.5 Q274 645 311 645 Q349 645 374 669.5 Q399 694 399 736 L463 736 Z " />
<glyph glyph-name="gcircumflex" unicode="&#x11d;" horiz-adv-x="637" d="M294 498 Q352 498 401.5 474 Q451 450 480 407 L480 487 L552 487 L552 47 Q552 -9 535 -53.5 Q518 -98 487 -128.5 Q456 -159 412.5 -175 Q369 -191 316 -191 Q277 -191 243.5 -183 Q210 -175 181 -162 Q152 -149 128 -132 Q104 -115 86 -97 L131 -43 Q167 -74 210.5 -97 Q254 -120 314 -120 Q388 -120 431.5 -79 Q475 -38 475 43 L475 85 Q445 47 397 26 Q349 5 294 5 Q243 5 199 23.5 Q155 42 123 75 Q91 108 73 153 Q55 198 55 251 Q55 304 73 349 Q91 394 123 427 Q155 460 199 479 Q243 498 294 498 Z M307 425 Q270 425 238.5 412 Q207 399 183.5 376 Q160 353 147 321 Q134 289 134 250 Q134 211 147 179 Q160 147 183.5 124 Q207 101 238.5 88.5 Q270 76 307 76 Q338 76 368.5 86 Q399 96 423 117.5 Q447 139 461.5 172 Q476 205 476 251 Q476 297 461.5 330 Q447 363 423 384 Q399 405 368.5 415 Q338 425 307 425 Z M471 566 L412 566 L312 693 L212 566 L152 566 L288 780 L336 780 L471 566 Z " />
<glyph glyph-name="gcommaaccent" unicode="&#x123;" horiz-adv-x="637" d="M294 498 Q352 498 401.5 474 Q451 450 480 407 L480 487 L552 487 L552 47 Q552 -9 535 -53.5 Q518 -98 487 -128.5 Q456 -159 412.5 -175 Q369 -191 316 -191 Q277 -191 243.5 -183 Q210 -175 181 -162 Q152 -149 128 -132 Q104 -115 86 -97 L131 -43 Q167 -74 210.5 -97 Q254 -120 314 -120 Q388 -120 431.5 -79 Q475 -38 475 43 L475 85 Q445 47 397 26 Q349 5 294 5 Q243 5 199 23.5 Q155 42 123 75 Q91 108 73 153 Q55 198 55 251 Q55 304 73 349 Q91 394 123 427 Q155 460 199 479 Q243 498 294 498 Z M307 425 Q270 425 238.5 412 Q207 399 183.5 376 Q160 353 147 321 Q134 289 134 250 Q134 211 147 179 Q160 147 183.5 124 Q207 101 238.5 88.5 Q270 76 307 76 Q338 76 368.5 86 Q399 96 423 117.5 Q447 139 461.5 172 Q476 205 476 251 Q476 297 461.5 330 Q447 363 423 384 Q399 405 368.5 415 Q338 425 307 425 Z M349 566 L273 566 L305 780 L364 780 L349 566 Z " />
<glyph glyph-name="gdotaccent" unicode="&#x121;" horiz-adv-x="637" d="M294 498 Q352 498 401.5 474 Q451 450 480 407 L480 487 L552 487 L552 47 Q552 -9 535 -53.5 Q518 -98 487 -128.5 Q456 -159 412.5 -175 Q369 -191 316 -191 Q277 -191 243.5 -183 Q210 -175 181 -162 Q152 -149 128 -132 Q104 -115 86 -97 L131 -43 Q167 -74 210.5 -97 Q254 -120 314 -120 Q388 -120 431.5 -79 Q475 -38 475 43 L475 85 Q445 47 397 26 Q349 5 294 5 Q243 5 199 23.5 Q155 42 123 75 Q91 108 73 153 Q55 198 55 251 Q55 304 73 349 Q91 394 123 427 Q155 460 199 479 Q243 498 294 498 Z M307 425 Q270 425 238.5 412 Q207 399 183.5 376 Q160 353 147 321 Q134 289 134 250 Q134 211 147 179 Q160 147 183.5 124 Q207 101 238.5 88.5 Q270 76 307 76 Q338 76 368.5 86 Q399 96 423 117.5 Q447 139 461.5 172 Q476 205 476 251 Q476 297 461.5 330 Q447 363 423 384 Q399 405 368.5 415 Q338 425 307 425 Z M311 729 Q334 729 351 712.5 Q368 696 368 673 Q368 649 351 633 Q334 617 311 617 Q287 617 270 633 Q253 649 253 673 Q253 696 270 712.5 Q287 729 311 729 Z " />
<glyph glyph-name="h" unicode="h" horiz-adv-x="566" d="M162 432 Q186 463 223 480.5 Q260 498 308 498 Q351 498 384.5 484 Q418 470 441 444.5 Q464 419 476 383.5 Q488 348 488 306 L488 0 L411 0 L411 296 Q411 354 379 390.5 Q347 427 290 427 Q262 427 238.5 417 Q215 407 198 390 Q181 373 171.5 348.5 Q162 324 162 296 L162 0 L85 0 L85 750 L162 750 L162 432 Z " />
<glyph glyph-name="hbar" unicode="&#x127;" horiz-adv-x="570" d="M366 579 L164 579 L164 418 Q188 449 225 466.5 Q262 484 310 484 Q353 484 386.5 470 Q420 456 443 430.5 Q466 405 478.5 370 Q491 335 491 293 L491 0 L414 0 L414 284 Q414 341 382 377 Q350 413 293 413 Q236 413 200 377 Q164 341 164 284 L164 0 L88 0 L88 579 L5 579 L5 647 L88 647 L88 750 L164 750 L164 647 L366 647 L366 579 Z " />
<glyph glyph-name="hcircumflex" unicode="&#x125;" horiz-adv-x="566" d="M162 432 Q186 463 223 480.5 Q260 498 308 498 Q351 498 384.5 484 Q418 470 441 444.5 Q464 419 476 383.5 Q488 348 488 306 L488 0 L411 0 L411 296 Q411 354 379 390.5 Q347 427 290 427 Q262 427 238.5 417 Q215 407 198 390 Q181 373 171.5 348.5 Q162 324 162 296 L162 0 L85 0 L85 750 L162 750 L162 432 Z M334 814 L273 814 L163 921 L53 814 L-8 814 L139 1000 L187 1000 L334 814 Z " />
<glyph glyph-name="i" unicode="i" horiz-adv-x="246" d="M162 0 L85 0 L85 487 L162 487 L162 0 Z M124 729 Q147 729 164 712.5 Q181 696 181 673 Q181 649 164 633 Q147 617 124 617 Q100 617 83 633 Q66 649 66 673 Q66 696 83 712.5 Q100 729 124 729 Z " />
<glyph glyph-name="dotlessi" unicode="&#x131;" horiz-adv-x="246" d="M162 0 L85 0 L85 487 L162 487 L162 0 Z " />
<glyph glyph-name="iacute" unicode="&#xed;" horiz-adv-x="246" d="M162 0 L85 0 L85 487 L162 487 L162 0 Z M243 766 L153 566 L94 566 L149 780 L243 780 L243 766 Z " />
<glyph glyph-name="ibreve" unicode="&#x12d;" horiz-adv-x="246" d="M162 0 L85 0 L85 487 L162 487 L162 0 Z M277 736 Q277 704 265.5 676 Q254 648 234 627.5 Q214 607 186 595.5 Q158 584 125 584 Q92 584 64 595.5 Q36 607 16 627.5 Q-4 648 -15.5 676 Q-27 704 -27 736 L38 736 Q38 694 63 669.5 Q88 645 125 645 Q163 645 188 669.5 Q213 694 213 736 L277 736 Z " />
<glyph glyph-name="icircumflex" unicode="&#xee;" horiz-adv-x="246" d="M162 0 L85 0 L85 487 L162 487 L162 0 Z M285 566 L226 566 L126 693 L26 566 L-34 566 L102 780 L150 780 L285 566 Z " />
<glyph glyph-name="idieresis" unicode="&#xef;" horiz-adv-x="246" d="M162 0 L85 0 L85 487 L162 487 L162 0 Z M215 727 Q238 727 254 711.5 Q270 696 270 673 Q270 651 254 635.5 Q238 620 215 620 Q194 620 177 635.5 Q160 651 160 673 Q160 696 177 711.5 Q194 727 215 727 Z M33 727 Q56 727 72 711.5 Q88 696 88 673 Q88 651 72 635.5 Q56 620 33 620 Q11 620 -5.5 635.5 Q-22 651 -22 673 Q-22 696 -5.5 711.5 Q11 727 33 727 Z " />
<glyph glyph-name="igrave" unicode="&#xec;" horiz-adv-x="246" d="M162 0 L85 0 L85 487 L162 487 L162 0 Z M155 566 L96 566 L6 766 L6 780 L100 780 L155 566 Z " />
<glyph glyph-name="ij" unicode="&#x133;" horiz-adv-x="492" d="M408 -33 Q408 -116 363 -153.5 Q318 -191 248 -191 Q229 -191 214.5 -189 Q200 -187 186 -183 L186 -118 Q199 -120 209 -120.5 Q219 -121 231 -121 Q276 -121 303.5 -101.5 Q331 -82 331 -28 L331 487 L408 487 L408 -33 Z M370 729 Q393 729 410 712.5 Q427 696 427 673 Q427 649 410 633 Q393 617 370 617 Q346 617 329 633 Q312 649 312 673 Q312 696 329 712.5 Q346 729 370 729 Z M162 0 L85 0 L85 487 L162 487 L162 0 Z M124 729 Q147 729 164 712.5 Q181 696 181 673 Q181 649 164 633 Q147 617 124 617 Q100 617 83 633 Q66 649 66 673 Q66 696 83 712.5 Q100 729 124 729 Z " />
<glyph glyph-name="imacron" unicode="&#x12b;" horiz-adv-x="246" d="M162 0 L85 0 L85 487 L162 487 L162 0 Z M236 641 L15 641 L15 705 L236 705 L236 641 Z " />
<glyph glyph-name="iogonek" unicode="&#x12f;" horiz-adv-x="246" d="M162 0 L85 0 L85 487 L162 487 L162 0 Z M124 729 Q147 729 164 712.5 Q181 696 181 673 Q181 649 164 633 Q147 617 124 617 Q100 617 83 633 Q66 649 66 673 Q66 696 83 712.5 Q100 729 124 729 Z M163 0 L114 -33 Q91 -48 76.5 -60 Q62 -72 62 -92 Q62 -129 110 -129 Q121 -129 135 -127 Q149 -125 163 -122 L163 -180 Q149 -185 129.5 -188 Q110 -191 91 -191 Q43 -191 13.5 -167.5 Q-16 -144 -16 -104 Q-16 -85 -8 -69 Q0 -53 17.5 -36.5 Q35 -20 63.5 -3 Q92 14 133 35 L163 0 Z " />
<glyph glyph-name="itilde" unicode="&#x129;" horiz-adv-x="246" d="M162 0 L85 0 L85 487 L162 487 L162 0 Z M61 738 Q97 738 126 709 L145 690 Q156 679 163.5 673 Q171 667 181 667 Q196 667 201.5 679 Q207 691 207 708 L207 725 L270 725 Q272 715 272 701 Q272 658 250.5 627 Q229 596 190 596 Q170 596 154.5 604 Q139 612 125 626 L106 644 Q95 655 87.5 661 Q80 667 70 667 Q54 667 48 654.5 Q42 642 42 626 L42 609 L-21 609 Q-23 617 -23 633 Q-23 676 -2 707 Q19 738 61 738 Z " />
<glyph glyph-name="j" unicode="j" horiz-adv-x="246" d="M162 -33 Q162 -116 117 -153.5 Q72 -191 2 -191 Q-17 -191 -31.5 -189 Q-46 -187 -60 -183 L-60 -118 Q-47 -120 -37 -120.5 Q-27 -121 -15 -121 Q30 -121 57.5 -101.5 Q85 -82 85 -28 L85 487 L162 487 L162 -33 Z M124 729 Q147 729 164 712.5 Q181 696 181 673 Q181 649 164 633 Q147 617 124 617 Q100 617 83 633 Q66 649 66 673 Q66 696 83 712.5 Q100 729 124 729 Z " />
<glyph glyph-name="dotlessj" unicode="&#x237;" horiz-adv-x="246" d="M162 -33 Q162 -116 117 -153.5 Q72 -191 2 -191 Q-17 -191 -31.5 -189 Q-46 -187 -60 -183 L-60 -118 Q-47 -120 -37 -120.5 Q-27 -121 -15 -121 Q30 -121 57.5 -101.5 Q85 -82 85 -28 L85 487 L162 487 L162 -33 Z " />
<glyph glyph-name="jcircumflex" unicode="&#x135;" horiz-adv-x="246" d="M162 -33 Q162 -116 117 -153.5 Q72 -191 2 -191 Q-17 -191 -31.5 -189 Q-46 -187 -60 -183 L-60 -118 Q-47 -120 -37 -120.5 Q-27 -121 -15 -121 Q30 -121 57.5 -101.5 Q85 -82 85 -28 L85 487 L162 487 L162 -33 Z M285 566 L226 566 L126 693 L26 566 L-34 566 L102 780 L150 780 L285 566 Z " />
<glyph glyph-name="k" unicode="k" horiz-adv-x="506" d="M162 0 L85 0 L85 750 L162 750 L162 0 Z M263 273 L493 0 L394 0 L170 274 L373 487 L474 487 L263 273 Z " />
<glyph glyph-name="kcommaaccent" unicode="&#x137;" horiz-adv-x="506" d="M162 0 L85 0 L85 750 L162 750 L162 0 Z M263 273 L493 0 L394 0 L170 274 L373 487 L474 487 L263 273 Z M267 -220 L206 -220 L215 -49 L291 -49 L267 -220 Z " />
<glyph glyph-name="l" unicode="l" horiz-adv-x="246" d="M162 0 L85 0 L85 750 L162 750 L162 0 Z " />
<glyph glyph-name="lacute" unicode="&#x13a;" horiz-adv-x="246" d="M162 0 L85 0 L85 750 L162 750 L162 0 Z M274 986 L154 814 L95 814 L180 1000 L274 1000 L274 986 Z " />
<glyph glyph-name="lcaron" unicode="&#x13e;" horiz-adv-x="246" d="M162 0 L85 0 L85 750 L162 750 L162 0 Z M315 539 L257 539 L270 750 L353 750 L315 539 Z " />
<glyph glyph-name="lcommaaccent" unicode="&#x13c;" horiz-adv-x="246" d="M162 0 L85 0 L85 750 L162 750 L162 0 Z M137 -220 L76 -220 L85 -49 L161 -49 L137 -220 Z " />
<glyph glyph-name="ldot" unicode="&#x140;" horiz-adv-x="246" d="M162 0 L85 0 L85 750 L162 750 L162 0 Z M278 377 Q304 377 322.5 359.5 Q341 342 341 314 Q341 286 322.5 268.5 Q304 251 278 251 Q252 251 233.5 268.5 Q215 286 215 314 Q215 342 233.5 359.5 Q252 377 278 377 Z " />
<glyph glyph-name="lslash" unicode="&#x142;" horiz-adv-x="360" d="M298 377 L211 337 L211 0 L134 0 L134 310 L56 274 L56 347 L134 384 L134 750 L211 750 L211 410 L298 450 L298 377 Z " />
<glyph glyph-name="m" unicode="m" horiz-adv-x="874" d="M620 498 Q662 498 695 484 Q728 470 750.5 444.5 Q773 419 784.5 383.5 Q796 348 796 306 L796 0 L719 0 L719 296 Q719 354 689 390.5 Q659 427 604 427 Q577 427 554 417 Q531 407 514.5 390.5 Q498 374 488.5 351 Q479 328 479 303 L479 0 L402 0 L402 296 Q402 354 371.5 390.5 Q341 427 286 427 Q230 427 196 390.5 Q162 354 162 296 L162 0 L85 0 L85 487 L157 487 L157 435 Q182 464 219 481 Q256 498 302 498 Q357 498 394.5 475 Q432 452 452 414 Q478 451 520.5 474.5 Q563 498 620 498 Z " />
<glyph glyph-name="n" unicode="n" horiz-adv-x="566" d="M307 498 Q350 498 383.5 484 Q417 470 440.5 444.5 Q464 419 476 383.5 Q488 348 488 306 L488 0 L411 0 L411 297 Q411 355 379 391 Q347 427 290 427 Q262 427 238.5 417.5 Q215 408 198 390.5 Q181 373 171.5 349 Q162 325 162 297 L162 0 L85 0 L85 487 L157 487 L157 433 Q183 463 221 480.5 Q259 498 307 498 Z " />
<glyph glyph-name="nacute" unicode="&#x144;" horiz-adv-x="566" d="M307 498 Q350 498 383.5 484 Q417 470 440.5 444.5 Q464 419 476 383.5 Q488 348 488 306 L488 0 L411 0 L411 297 Q411 355 379 391 Q347 427 290 427 Q262 427 238.5 417.5 Q215 408 198 390.5 Q181 373 171.5 349 Q162 325 162 297 L162 0 L85 0 L85 487 L157 487 L157 433 Q183 463 221 480.5 Q259 498 307 498 Z M437 766 L317 566 L258 566 L343 780 L437 780 L437 766 Z " />
<glyph glyph-name="ncaron" unicode="&#x148;" horiz-adv-x="566" d="M307 498 Q350 498 383.5 484 Q417 470 440.5 444.5 Q464 419 476 383.5 Q488 348 488 306 L488 0 L411 0 L411 297 Q411 355 379 391 Q347 427 290 427 Q262 427 238.5 417.5 Q215 408 198 390.5 Q181 373 171.5 349 Q162 325 162 297 L162 0 L85 0 L85 487 L157 487 L157 433 Q183 463 221 480.5 Q259 498 307 498 Z M310 566 L262 566 L126 780 L186 780 L286 653 L386 780 L445 780 L310 566 Z " />
<glyph glyph-name="ncommaaccent" unicode="&#x146;" horiz-adv-x="566" d="M307 498 Q350 498 383.5 484 Q417 470 440.5 444.5 Q464 419 476 383.5 Q488 348 488 306 L488 0 L411 0 L411 297 Q411 355 379 391 Q347 427 290 427 Q262 427 238.5 417.5 Q215 408 198 390.5 Q181 373 171.5 349 Q162 325 162 297 L162 0 L85 0 L85 487 L157 487 L157 433 Q183 463 221 480.5 Q259 498 307 498 Z M298 -220 L237 -220 L246 -49 L322 -49 L298 -220 Z " />
<glyph glyph-name="eng" unicode="&#x14b;" horiz-adv-x="566" d="M307 498 Q350 498 383.5 484 Q417 470 440.5 444.5 Q464 419 476 383.5 Q488 348 488 306 L488 -33 Q488 -116 443 -153.5 Q398 -191 328 -191 Q310 -191 295.5 -189 Q281 -187 267 -183 L267 -118 Q292 -121 310 -121 Q355 -121 383 -102 Q411 -83 411 -28 L411 296 Q411 354 379 390.5 Q347 427 290 427 Q262 427 238.5 417 Q215 407 198 390 Q181 373 171.5 348.5 Q162 324 162 296 L162 0 L85 0 L85 487 L157 487 L157 433 Q183 463 221 480.5 Q259 498 307 498 Z " />
<glyph glyph-name="ntilde" unicode="&#xf1;" horiz-adv-x="566" d="M307 498 Q350 498 383.5 484 Q417 470 440.5 444.5 Q464 419 476 383.5 Q488 348 488 306 L488 0 L411 0 L411 297 Q411 355 379 391 Q347 427 290 427 Q262 427 238.5 417.5 Q215 408 198 390.5 Q181 373 171.5 349 Q162 325 162 297 L162 0 L85 0 L85 487 L157 487 L157 433 Q183 463 221 480.5 Q259 498 307 498 Z M213 738 Q250 738 281 712 L307 690 Q319 679 328.5 673 Q338 667 349 667 Q365 667 371 679 Q377 691 377 708 L377 725 L441 725 Q442 718 442 712 Q442 706 442 700 Q442 656 420 626 Q398 596 357 596 Q320 596 289 622 L263 644 Q251 654 242 660.5 Q233 667 221 667 Q205 667 199 655 Q193 643 193 626 L193 609 L129 609 Q128 616 128 621.5 Q128 627 128 634 Q128 679 150 708.5 Q172 738 213 738 Z " />
<glyph glyph-name="o" unicode="o" horiz-adv-x="610" d="M305 498 Q357 498 403.5 478.5 Q450 459 484.5 424.5 Q519 390 539 344 Q559 298 559 244 Q559 191 539 144.5 Q519 98 484.5 63.5 Q450 29 403.5 9.5 Q357 -10 304 -10 Q251 -10 205 10 Q159 30 124.5 64 Q90 98 70 144 Q50 190 50 244 Q50 298 69.5 344 Q89 390 123.5 424.5 Q158 459 204.5 478.5 Q251 498 305 498 Z M305 427 Q267 427 234.5 413 Q202 399 178.5 374 Q155 349 142 315.5 Q129 282 129 243 Q129 204 142 171 Q155 138 178.5 113.5 Q202 89 234 75 Q266 61 304 61 Q342 61 374 75 Q406 89 429.5 113.5 Q453 138 466.5 171.5 Q480 205 480 243 Q480 282 466.5 316 Q453 350 430 374.5 Q407 399 374.5 413 Q342 427 305 427 Z " />
<glyph glyph-name="oacute" unicode="&#xf3;" horiz-adv-x="610" d="M305 498 Q357 498 403.5 478.5 Q450 459 484.5 424.5 Q519 390 539 344 Q559 298 559 244 Q559 191 539 144.5 Q519 98 484.5 63.5 Q450 29 403.5 9.5 Q357 -10 304 -10 Q251 -10 205 10 Q159 30 124.5 64 Q90 98 70 144 Q50 190 50 244 Q50 298 69.5 344 Q89 390 123.5 424.5 Q158 459 204.5 478.5 Q251 498 305 498 Z M305 427 Q267 427 234.5 413 Q202 399 178.5 374 Q155 349 142 315.5 Q129 282 129 243 Q129 204 142 171 Q155 138 178.5 113.5 Q202 89 234 75 Q266 61 304 61 Q342 61 374 75 Q406 89 429.5 113.5 Q453 138 466.5 171.5 Q480 205 480 243 Q480 282 466.5 316 Q453 350 430 374.5 Q407 399 374.5 413 Q342 427 305 427 Z M457 766 L337 566 L278 566 L363 780 L457 780 L457 766 Z " />
<glyph glyph-name="obreve" unicode="&#x14f;" horiz-adv-x="610" d="M305 498 Q357 498 403.5 478.5 Q450 459 484.5 424.5 Q519 390 539 344 Q559 298 559 244 Q559 191 539 144.5 Q519 98 484.5 63.5 Q450 29 403.5 9.5 Q357 -10 304 -10 Q251 -10 205 10 Q159 30 124.5 64 Q90 98 70 144 Q50 190 50 244 Q50 298 69.5 344 Q89 390 123.5 424.5 Q158 459 204.5 478.5 Q251 498 305 498 Z M305 427 Q267 427 234.5 413 Q202 399 178.5 374 Q155 349 142 315.5 Q129 282 129 243 Q129 204 142 171 Q155 138 178.5 113.5 Q202 89 234 75 Q266 61 304 61 Q342 61 374 75 Q406 89 429.5 113.5 Q453 138 466.5 171.5 Q480 205 480 243 Q480 282 466.5 316 Q453 350 430 374.5 Q407 399 374.5 413 Q342 427 305 427 Z M457 736 Q457 704 445.5 676 Q434 648 414 627.5 Q394 607 366 595.5 Q338 584 305 584 Q272 584 244 595.5 Q216 607 196 627.5 Q176 648 164.5 676 Q153 704 153 736 L218 736 Q218 694 243 669.5 Q268 645 305 645 Q343 645 368 669.5 Q393 694 393 736 L457 736 Z " />
<glyph glyph-name="ocircumflex" unicode="&#xf4;" horiz-adv-x="610" d="M305 498 Q357 498 403.5 478.5 Q450 459 484.5 424.5 Q519 390 539 344 Q559 298 559 244 Q559 191 539 144.5 Q519 98 484.5 63.5 Q450 29 403.5 9.5 Q357 -10 304 -10 Q251 -10 205 10 Q159 30 124.5 64 Q90 98 70 144 Q50 190 50 244 Q50 298 69.5 344 Q89 390 123.5 424.5 Q158 459 204.5 478.5 Q251 498 305 498 Z M305 427 Q267 427 234.5 413 Q202 399 178.5 374 Q155 349 142 315.5 Q129 282 129 243 Q129 204 142 171 Q155 138 178.5 113.5 Q202 89 234 75 Q266 61 304 61 Q342 61 374 75 Q406 89 429.5 113.5 Q453 138 466.5 171.5 Q480 205 480 243 Q480 282 466.5 316 Q453 350 430 374.5 Q407 399 374.5 413 Q342 427 305 427 Z M465 566 L406 566 L306 693 L206 566 L146 566 L282 780 L330 780 L465 566 Z " />
<glyph glyph-name="odieresis" unicode="&#xf6;" horiz-adv-x="610" d="M305 498 Q357 498 403.5 478.5 Q450 459 484.5 424.5 Q519 390 539 344 Q559 298 559 244 Q559 191 539 144.5 Q519 98 484.5 63.5 Q450 29 403.5 9.5 Q357 -10 304 -10 Q251 -10 205 10 Q159 30 124.5 64 Q90 98 70 144 Q50 190 50 244 Q50 298 69.5 344 Q89 390 123.5 424.5 Q158 459 204.5 478.5 Q251 498 305 498 Z M305 427 Q267 427 234.5 413 Q202 399 178.5 374 Q155 349 142 315.5 Q129 282 129 243 Q129 204 142 171 Q155 138 178.5 113.5 Q202 89 234 75 Q266 61 304 61 Q342 61 374 75 Q406 89 429.5 113.5 Q453 138 466.5 171.5 Q480 205 480 243 Q480 282 466.5 316 Q453 350 430 374.5 Q407 399 374.5 413 Q342 427 305 427 Z M410 727 Q433 727 449 711.5 Q465 696 465 673 Q465 651 449 635.5 Q433 620 410 620 Q389 620 372 635.5 Q355 651 355 673 Q355 696 372 711.5 Q389 727 410 727 Z M198 727 Q221 727 237 711.5 Q253 696 253 673 Q253 651 237 635.5 Q221 620 198 620 Q177 620 160 635.5 Q143 651 143 673 Q143 696 160 711.5 Q177 727 198 727 Z " />
<glyph glyph-name="ograve" unicode="&#xf2;" horiz-adv-x="610" d="M305 498 Q357 498 403.5 478.5 Q450 459 484.5 424.5 Q519 390 539 344 Q559 298 559 244 Q559 191 539 144.5 Q519 98 484.5 63.5 Q450 29 403.5 9.5 Q357 -10 304 -10 Q251 -10 205 10 Q159 30 124.5 64 Q90 98 70 144 Q50 190 50 244 Q50 298 69.5 344 Q89 390 123.5 424.5 Q158 459 204.5 478.5 Q251 498 305 498 Z M305 427 Q267 427 234.5 413 Q202 399 178.5 374 Q155 349 142 315.5 Q129 282 129 243 Q129 204 142 171 Q155 138 178.5 113.5 Q202 89 234 75 Q266 61 304 61 Q342 61 374 75 Q406 89 429.5 113.5 Q453 138 466.5 171.5 Q480 205 480 243 Q480 282 466.5 316 Q453 350 430 374.5 Q407 399 374.5 413 Q342 427 305 427 Z M334 566 L275 566 L155 766 L155 780 L249 780 L334 566 Z " />
<glyph glyph-name="ohungarumlaut" unicode="&#x151;" horiz-adv-x="610" d="M305 498 Q357 498 403.5 478.5 Q450 459 484.5 424.5 Q519 390 539 344 Q559 298 559 244 Q559 191 539 144.5 Q519 98 484.5 63.5 Q450 29 403.5 9.5 Q357 -10 304 -10 Q251 -10 205 10 Q159 30 124.5 64 Q90 98 70 144 Q50 190 50 244 Q50 298 69.5 344 Q89 390 123.5 424.5 Q158 459 204.5 478.5 Q251 498 305 498 Z M305 427 Q267 427 234.5 413 Q202 399 178.5 374 Q155 349 142 315.5 Q129 282 129 243 Q129 204 142 171 Q155 138 178.5 113.5 Q202 89 234 75 Q266 61 304 61 Q342 61 374 75 Q406 89 429.5 113.5 Q453 138 466.5 171.5 Q480 205 480 243 Q480 282 466.5 316 Q453 350 430 374.5 Q407 399 374.5 413 Q342 427 305 427 Z M522 766 L410 566 L354 566 L439 780 L522 780 L522 766 Z M360 766 L247 566 L192 566 L277 780 L360 780 L360 766 Z " />
<glyph glyph-name="omacron" unicode="&#x14d;" horiz-adv-x="610" d="M305 498 Q357 498 403.5 478.5 Q450 459 484.5 424.5 Q519 390 539 344 Q559 298 559 244 Q559 191 539 144.5 Q519 98 484.5 63.5 Q450 29 403.5 9.5 Q357 -10 304 -10 Q251 -10 205 10 Q159 30 124.5 64 Q90 98 70 144 Q50 190 50 244 Q50 298 69.5 344 Q89 390 123.5 424.5 Q158 459 204.5 478.5 Q251 498 305 498 Z M305 427 Q267 427 234.5 413 Q202 399 178.5 374 Q155 349 142 315.5 Q129 282 129 243 Q129 204 142 171 Q155 138 178.5 113.5 Q202 89 234 75 Q266 61 304 61 Q342 61 374 75 Q406 89 429.5 113.5 Q453 138 466.5 171.5 Q480 205 480 243 Q480 282 466.5 316 Q453 350 430 374.5 Q407 399 374.5 413 Q342 427 305 427 Z M442 642 L167 642 L167 704 L442 704 L442 642 Z " />
<glyph glyph-name="oslash" unicode="&#xf8;" horiz-adv-x="621" d="M572 458 L512 397 Q536 365 550 326 Q564 287 564 243 Q564 190 544 144 Q524 98 489 63.5 Q454 29 407.5 9 Q361 -11 309 -11 Q265 -11 226 2.5 Q187 16 155 40 L97 -19 L49 29 L107 88 Q82 120 68.5 159 Q55 198 55 243 Q55 297 75 343.5 Q95 390 129.5 424.5 Q164 459 210.5 478.5 Q257 498 310 498 Q354 498 393 484 Q432 470 464 445 L524 504 L572 458 Z M310 430 Q271 430 238 416 Q205 402 181 377 Q157 352 143.5 317.5 Q130 283 130 243 Q130 181 160 136 L418 395 Q395 412 368 421 Q341 430 310 430 Z M491 243 Q491 302 461 349 L202 90 Q224 73 251 64 Q278 55 309 55 Q348 55 381.5 69.5 Q415 84 439 109.5 Q463 135 477 169 Q491 203 491 243 Z " />
<glyph glyph-name="oslashacute" unicode="&#x1ff;" horiz-adv-x="621" d="M572 458 L512 397 Q536 365 550 326 Q564 287 564 243 Q564 190 544 144 Q524 98 489 63.5 Q454 29 407.5 9 Q361 -11 309 -11 Q265 -11 226 2.5 Q187 16 155 40 L97 -19 L49 29 L107 88 Q82 120 68.5 159 Q55 198 55 243 Q55 297 75 343.5 Q95 390 129.5 424.5 Q164 459 210.5 478.5 Q257 498 310 498 Q354 498 393 484 Q432 470 464 445 L524 504 L572 458 Z M310 430 Q271 430 238 416 Q205 402 181 377 Q157 352 143.5 317.5 Q130 283 130 243 Q130 181 160 136 L418 395 Q395 412 368 421 Q341 430 310 430 Z M491 243 Q491 302 461 349 L202 90 Q224 73 251 64 Q278 55 309 55 Q348 55 381.5 69.5 Q415 84 439 109.5 Q463 135 477 169 Q491 203 491 243 Z M463 766 L343 566 L284 566 L369 780 L463 780 L463 766 Z " />
<glyph glyph-name="otilde" unicode="&#xf5;" horiz-adv-x="610" d="M305 498 Q357 498 403.5 478.5 Q450 459 484.5 424.5 Q519 390 539 344 Q559 298 559 244 Q559 191 539 144.5 Q519 98 484.5 63.5 Q450 29 403.5 9.5 Q357 -10 304 -10 Q251 -10 205 10 Q159 30 124.5 64 Q90 98 70 144 Q50 190 50 244 Q50 298 69.5 344 Q89 390 123.5 424.5 Q158 459 204.5 478.5 Q251 498 305 498 Z M305 427 Q267 427 234.5 413 Q202 399 178.5 374 Q155 349 142 315.5 Q129 282 129 243 Q129 204 142 171 Q155 138 178.5 113.5 Q202 89 234 75 Q266 61 304 61 Q342 61 374 75 Q406 89 429.5 113.5 Q453 138 466.5 171.5 Q480 205 480 243 Q480 282 466.5 316 Q453 350 430 374.5 Q407 399 374.5 413 Q342 427 305 427 Z M233 738 Q270 738 301 712 L327 690 Q339 679 348.5 673 Q358 667 369 667 Q385 667 391 679 Q397 691 397 708 L397 725 L461 725 Q462 718 462 712 Q462 706 462 700 Q462 656 440 626 Q418 596 377 596 Q340 596 309 622 L283 644 Q271 654 262 660.5 Q253 667 241 667 Q225 667 219 655 Q213 643 213 626 L213 609 L149 609 Q148 616 148 621.5 Q148 627 148 634 Q148 679 170 708.5 Q192 738 233 738 Z " />
<glyph glyph-name="oe" unicode="&#x153;" horiz-adv-x="981" d="M714 497 Q758 497 797.5 481 Q837 465 866.5 436 Q896 407 913.5 366.5 Q931 326 931 277 Q931 257 929 241.5 Q927 226 926 219 L547 219 Q555 145 602.5 102 Q650 59 721 59 Q765 59 800.5 76 Q836 93 867 125 L914 74 Q876 33 826 10.5 Q776 -12 720 -12 Q651 -12 595.5 21 Q540 54 508 111 Q478 55 425 22 Q372 -11 302 -11 Q249 -11 203 8.5 Q157 28 123 62.5 Q89 97 69.5 143 Q50 189 50 243 Q50 297 70 343.5 Q90 390 124 424.5 Q158 459 204 478.5 Q250 498 303 498 Q372 498 425.5 464.5 Q479 431 508 375 Q540 430 594 463.5 Q648 497 714 497 Z M303 427 Q265 427 233 413 Q201 399 178 374 Q155 349 142 315.5 Q129 282 129 243 Q129 204 142 170.5 Q155 137 178 112.5 Q201 88 232.5 74 Q264 60 302 60 Q340 60 371 74 Q402 88 424 113 Q446 138 458 171 Q470 204 470 243 Q470 282 458 315.5 Q446 349 424 374 Q402 399 371 413 Q340 427 303 427 Z M709 427 Q679 427 653 417 Q627 407 606 388.5 Q585 370 570.5 344 Q556 318 550 287 L852 287 Q852 321 840 347 Q828 373 808.5 391 Q789 409 763 418 Q737 427 709 427 Z " />
<glyph glyph-name="p" unicode="p" horiz-adv-x="632" d="M341 498 Q393 498 437.5 478.5 Q482 459 514 424.5 Q546 390 564 344 Q582 298 582 244 Q582 190 564 143.5 Q546 97 513.5 62.5 Q481 28 437 8.5 Q393 -11 341 -11 Q287 -11 239 10.5 Q191 32 162 71 L162 -180 L85 -180 L85 487 L157 487 L157 408 Q186 450 234.5 474 Q283 498 341 498 Z M331 427 Q299 427 268.5 416.5 Q238 406 214 383.5 Q190 361 175.5 326.5 Q161 292 161 244 Q161 196 175.5 161 Q190 126 214 103.5 Q238 81 268.5 70.5 Q299 60 331 60 Q368 60 399.5 73.5 Q431 87 454 111.5 Q477 136 490 169.5 Q503 203 503 243 Q503 283 490 316.5 Q477 350 454.5 374.5 Q432 399 400 413 Q368 427 331 427 Z " />
<glyph glyph-name="thorn" unicode="&#xfe;" horiz-adv-x="632" d="M162 415 Q191 454 238 476 Q285 498 341 498 Q393 498 437.5 478.5 Q482 459 514 424.5 Q546 390 564 344 Q582 298 582 244 Q582 190 564 143.5 Q546 97 513.5 62.5 Q481 28 437 8.5 Q393 -11 341 -11 Q287 -11 239 10.5 Q191 32 162 71 L162 -180 L85 -180 L85 750 L162 750 L162 415 Z M331 427 Q299 427 268.5 416.5 Q238 406 214 383.5 Q190 361 175.5 326.5 Q161 292 161 244 Q161 196 175.5 161 Q190 126 214 103.5 Q238 81 268.5 70.5 Q299 60 331 60 Q368 60 399.5 73.5 Q431 87 454 111.5 Q477 136 490 169.5 Q503 203 503 243 Q503 283 490 316.5 Q477 350 454.5 374.5 Q432 399 400 413 Q368 427 331 427 Z " />
<glyph glyph-name="q" unicode="q" horiz-adv-x="632" d="M291 498 Q349 498 397.5 474 Q446 450 475 408 L475 487 L547 487 L547 -180 L470 -180 L470 71 Q440 32 392.5 10.5 Q345 -11 291 -11 Q239 -11 195 8.5 Q151 28 118.5 62.5 Q86 97 68 143.5 Q50 190 50 244 Q50 298 68 344 Q86 390 118 424.5 Q150 459 194 478.5 Q238 498 291 498 Z M302 427 Q264 427 232.5 413 Q201 399 178 374.5 Q155 350 142 316 Q129 282 129 243 Q129 203 142 169.5 Q155 136 178.5 111.5 Q202 87 233.5 73.5 Q265 60 302 60 Q333 60 363.5 70.5 Q394 81 418 103.5 Q442 126 456.5 161 Q471 196 471 244 Q471 292 456.5 326.5 Q442 361 418 383.5 Q394 406 363.5 416.5 Q333 427 302 427 Z " />
<glyph glyph-name="r" unicode="r" horiz-adv-x="362" d="M309 491 Q321 491 329 490 Q337 489 344 487 L344 419 L316 419 Q286 419 258.5 409.5 Q231 400 209.5 382 Q188 364 175 337.5 Q162 311 162 276 L162 0 L85 0 L85 487 L157 487 L157 417 Q184 453 224 472 Q264 491 309 491 Z " />
<glyph glyph-name="racute" unicode="&#x155;" horiz-adv-x="362" d="M309 491 Q321 491 329 490 Q337 489 344 487 L344 419 L316 419 Q286 419 258.5 409.5 Q231 400 209.5 382 Q188 364 175 337.5 Q162 311 162 276 L162 0 L85 0 L85 487 L157 487 L157 417 Q184 453 224 472 Q264 491 309 491 Z M325 766 L205 566 L146 566 L231 780 L325 780 L325 766 Z " />
<glyph glyph-name="rcaron" unicode="&#x159;" horiz-adv-x="362" d="M309 491 Q321 491 329 490 Q337 489 344 487 L344 419 L316 419 Q286 419 258.5 409.5 Q231 400 209.5 382 Q188 364 175 337.5 Q162 311 162 276 L162 0 L85 0 L85 487 L157 487 L157 417 Q184 453 224 472 Q264 491 309 491 Z M199 566 L151 566 L15 780 L75 780 L175 653 L275 780 L334 780 L199 566 Z " />
<glyph glyph-name="rcommaaccent" unicode="&#x157;" horiz-adv-x="362" d="M309 491 Q321 491 329 490 Q337 489 344 487 L344 419 L316 419 Q286 419 258.5 409.5 Q231 400 209.5 382 Q188 364 175 337.5 Q162 311 162 276 L162 0 L85 0 L85 487 L157 487 L157 417 Q184 453 224 472 Q264 491 309 491 Z M136 -220 L75 -220 L84 -49 L160 -49 L136 -220 Z " />
<glyph glyph-name="s" unicode="s" horiz-adv-x="454" d="M232 498 Q286 498 326 477 Q366 456 395 421 L348 373 Q325 398 294 412.5 Q263 427 229 427 Q194 427 170.5 411.5 Q147 396 147 366 Q147 341 166 326.5 Q185 312 226 295 L271 276 Q337 248 369 216 Q401 184 401 132 Q401 96 387 69.5 Q373 43 349 25 Q325 7 294 -2 Q263 -11 230 -11 Q165 -11 117 17 Q69 45 39 84 L89 135 Q118 103 151 81.5 Q184 60 229 60 Q267 60 294.5 78 Q322 96 322 129 Q322 160 297.5 176 Q273 192 237 207 L189 227 Q162 239 139.5 251.5 Q117 264 101 280 Q85 296 76.5 316 Q68 336 68 362 Q68 395 81 420.5 Q94 446 116.5 463 Q139 480 169 489 Q199 498 232 498 Z " />
<glyph glyph-name="sacute" unicode="&#x15b;" horiz-adv-x="454" d="M232 498 Q286 498 326 477 Q366 456 395 421 L348 373 Q325 398 294 412.5 Q263 427 229 427 Q194 427 170.5 411.5 Q147 396 147 366 Q147 341 166 326.5 Q185 312 226 295 L271 276 Q337 248 369 216 Q401 184 401 132 Q401 96 387 69.5 Q373 43 349 25 Q325 7 294 -2 Q263 -11 230 -11 Q165 -11 117 17 Q69 45 39 84 L89 135 Q118 103 151 81.5 Q184 60 229 60 Q267 60 294.5 78 Q322 96 322 129 Q322 160 297.5 176 Q273 192 237 207 L189 227 Q162 239 139.5 251.5 Q117 264 101 280 Q85 296 76.5 316 Q68 336 68 362 Q68 395 81 420.5 Q94 446 116.5 463 Q139 480 169 489 Q199 498 232 498 Z M382 766 L262 566 L203 566 L288 780 L382 780 L382 766 Z " />
<glyph glyph-name="scaron" unicode="&#x161;" horiz-adv-x="454" d="M232 498 Q286 498 326 477 Q366 456 395 421 L348 373 Q325 398 294 412.5 Q263 427 229 427 Q194 427 170.5 411.5 Q147 396 147 366 Q147 341 166 326.5 Q185 312 226 295 L271 276 Q337 248 369 216 Q401 184 401 132 Q401 96 387 69.5 Q373 43 349 25 Q325 7 294 -2 Q263 -11 230 -11 Q165 -11 117 17 Q69 45 39 84 L89 135 Q118 103 151 81.5 Q184 60 229 60 Q267 60 294.5 78 Q322 96 322 129 Q322 160 297.5 176 Q273 192 237 207 L189 227 Q162 239 139.5 251.5 Q117 264 101 280 Q85 296 76.5 316 Q68 336 68 362 Q68 395 81 420.5 Q94 446 116.5 463 Q139 480 169 489 Q199 498 232 498 Z M255 566 L207 566 L71 780 L131 780 L231 653 L331 780 L390 780 L255 566 Z " />
<glyph glyph-name="scedilla" unicode="&#x15f;" horiz-adv-x="454" d="M232 498 Q286 498 326 477 Q366 456 395 421 L348 373 Q325 398 294 412.5 Q263 427 229 427 Q194 427 170.5 411.5 Q147 396 147 366 Q147 341 166 326.5 Q185 312 226 295 L271 276 Q337 248 369 216 Q401 184 401 132 Q401 96 387 69.5 Q373 43 349 25 Q325 7 294 -2 Q263 -11 230 -11 Q165 -11 117 17 Q69 45 39 84 L89 135 Q118 103 151 81.5 Q184 60 229 60 Q267 60 294.5 78 Q322 96 322 129 Q322 160 297.5 176 Q273 192 237 207 L189 227 Q162 239 139.5 251.5 Q117 264 101 280 Q85 296 76.5 316 Q68 336 68 362 Q68 395 81 420.5 Q94 446 116.5 463 Q139 480 169 489 Q199 498 232 498 Z M246 26 Q275 12 293.5 -14.5 Q312 -41 312 -76 Q312 -100 303 -120.5 Q294 -141 277.5 -157 Q261 -173 236.5 -182 Q212 -191 181 -191 Q164 -191 146 -188.5 Q128 -186 112 -181 L112 -126 Q130 -128 145 -129 Q160 -130 168 -130 Q201 -130 223.5 -115 Q246 -100 246 -65 Q246 -41 236 -23 Q226 -5 213 9 L246 26 Z " />
<glyph glyph-name="scircumflex" unicode="&#x15d;" horiz-adv-x="454" d="M232 498 Q286 498 326 477 Q366 456 395 421 L348 373 Q325 398 294 412.5 Q263 427 229 427 Q194 427 170.5 411.5 Q147 396 147 366 Q147 341 166 326.5 Q185 312 226 295 L271 276 Q337 248 369 216 Q401 184 401 132 Q401 96 387 69.5 Q373 43 349 25 Q325 7 294 -2 Q263 -11 230 -11 Q165 -11 117 17 Q69 45 39 84 L89 135 Q118 103 151 81.5 Q184 60 229 60 Q267 60 294.5 78 Q322 96 322 129 Q322 160 297.5 176 Q273 192 237 207 L189 227 Q162 239 139.5 251.5 Q117 264 101 280 Q85 296 76.5 316 Q68 336 68 362 Q68 395 81 420.5 Q94 446 116.5 463 Q139 480 169 489 Q199 498 232 498 Z M390 566 L331 566 L231 693 L131 566 L71 566 L207 780 L255 780 L390 566 Z " />
<glyph glyph-name="scommaaccent" unicode="&#x219;" horiz-adv-x="454" d="M232 498 Q286 498 326 477 Q366 456 395 421 L348 373 Q325 398 294 412.5 Q263 427 229 427 Q194 427 170.5 411.5 Q147 396 147 366 Q147 341 166 326.5 Q185 312 226 295 L271 276 Q337 248 369 216 Q401 184 401 132 Q401 96 387 69.5 Q373 43 349 25 Q325 7 294 -2 Q263 -11 230 -11 Q165 -11 117 17 Q69 45 39 84 L89 135 Q118 103 151 81.5 Q184 60 229 60 Q267 60 294.5 78 Q322 96 322 129 Q322 160 297.5 176 Q273 192 237 207 L189 227 Q162 239 139.5 251.5 Q117 264 101 280 Q85 296 76.5 316 Q68 336 68 362 Q68 395 81 420.5 Q94 446 116.5 463 Q139 480 169 489 Q199 498 232 498 Z M255 -220 L194 -220 L203 -49 L279 -49 L255 -220 Z " />
<glyph glyph-name="germandbls" unicode="&#xdf;" horiz-adv-x="611" d="M295 761 Q370 761 417.5 722.5 Q465 684 465 615 Q465 601 462 580.5 Q459 560 451 537 L408 416 Q401 396 396 379.5 Q391 363 391 349 Q391 322 413 305.5 Q435 289 473 267 Q524 236 553.5 204.5 Q583 173 583 125 Q583 93 570 67.5 Q557 42 534 24.5 Q511 7 480 -2.5 Q449 -12 414 -12 Q360 -12 318.5 7.5 Q277 27 248 57 L291 113 Q318 87 349.5 73 Q381 59 419 59 Q456 59 480.5 74 Q505 89 505 121 Q505 137 498 149.5 Q491 162 479 172 Q467 182 451 191 Q435 200 417 211 Q369 239 340 267 Q311 295 311 336 Q311 353 316 373 Q321 393 329 415 L371 531 Q378 551 382 568.5 Q386 586 386 603 Q386 641 361 665.5 Q336 690 290 690 Q236 690 198.5 652 Q161 614 161 537 L161 0 L85 0 L85 540 Q85 592 100.5 633.5 Q116 675 144 703 Q172 731 210.5 746 Q249 761 295 761 Z " />
<glyph glyph-name="uni0259" unicode="&#x259;" horiz-adv-x="571" d="M272 498 Q325 498 370.5 478.5 Q416 459 449 425 Q482 391 501 344.5 Q520 298 520 245 Q520 191 501 144.5 Q482 98 448.5 63.5 Q415 29 369.5 9 Q324 -11 272 -11 Q225 -11 184.5 5 Q144 21 114 50 Q84 79 67 119.5 Q50 160 50 209 Q50 229 52 244 Q54 259 56 267 L440 267 Q432 340 386 383.5 Q340 427 270 427 Q225 427 189 409 Q153 391 123 361 L78 413 Q115 452 164 475 Q213 498 272 498 Z M274 58 Q336 58 380 96.5 Q424 135 437 199 L129 199 Q129 165 141 139 Q153 113 172.5 95 Q192 77 218.5 67.5 Q245 58 274 58 Z " />
<glyph glyph-name="t" unicode="t" horiz-adv-x="381" d="M335 418 L183 418 L183 152 Q183 125 190.5 107 Q198 89 211.5 78.5 Q225 68 243.5 63.5 Q262 59 285 59 Q300 59 315.5 60.5 Q331 62 350 65 L350 0 Q331 -5 312 -8 Q293 -11 270 -11 Q198 -11 152 26.5 Q106 64 106 147 L106 418 L24 418 L24 487 L106 487 L106 620 L183 620 L183 487 L335 487 L335 418 Z " />
<glyph glyph-name="tbar" unicode="&#x167;" horiz-adv-x="394" d="M344 219 L192 219 L192 152 Q192 98 219.5 78.5 Q247 59 292 59 Q309 59 324.5 60.5 Q340 62 359 65 L359 0 Q341 -5 321.5 -8 Q302 -11 279 -11 Q243 -11 213.5 -2 Q184 7 162 26.5 Q140 46 128 75.5 Q116 105 116 147 L116 219 L33 219 L33 285 L116 285 L116 420 L33 420 L33 487 L116 487 L116 620 L192 620 L192 487 L344 487 L344 420 L192 420 L192 285 L344 285 L344 219 Z " />
<glyph glyph-name="tcaron" unicode="&#x165;" horiz-adv-x="381" d="M335 418 L183 418 L183 152 Q183 125 190.5 107 Q198 89 211.5 78.5 Q225 68 243.5 63.5 Q262 59 285 59 Q300 59 315.5 60.5 Q331 62 350 65 L350 0 Q331 -5 312 -8 Q293 -11 270 -11 Q198 -11 152 26.5 Q106 64 106 147 L106 418 L24 418 L24 487 L106 487 L106 620 L183 620 L183 487 L335 487 L335 418 Z M337 539 L279 539 L292 750 L375 750 L337 539 Z " />
<glyph glyph-name="uni0163" unicode="&#x163;" horiz-adv-x="381" d="M335 418 L183 418 L183 152 Q183 125 190.5 107 Q198 89 211.5 78.5 Q225 68 243.5 63.5 Q262 59 285 59 Q300 59 315.5 60.5 Q331 62 350 65 L350 0 Q331 -5 312 -8 Q293 -11 270 -11 Q198 -11 152 26.5 Q106 64 106 147 L106 418 L24 418 L24 487 L106 487 L106 620 L183 620 L183 487 L335 487 L335 418 Z M226 26 Q255 12 273.5 -14.5 Q292 -41 292 -76 Q292 -100 283 -120.5 Q274 -141 257.5 -157 Q241 -173 216.5 -182 Q192 -191 161 -191 Q144 -191 126 -188.5 Q108 -186 92 -181 L92 -126 Q110 -128 125 -129 Q140 -130 148 -130 Q181 -130 203.5 -115 Q226 -100 226 -65 Q226 -41 216 -23 Q206 -5 193 9 L226 26 Z " />
<glyph glyph-name="u" unicode="u" horiz-adv-x="560" d="M482 194 Q482 147 466.5 109 Q451 71 424 44.5 Q397 18 360 3.5 Q323 -11 281 -11 Q239 -11 202 3.5 Q165 18 137.5 44.5 Q110 71 94.5 109 Q79 147 79 194 L79 487 L155 487 L155 189 Q155 159 165 135 Q175 111 192 94.5 Q209 78 232 69 Q255 60 281 60 Q307 60 329.5 69 Q352 78 369 94.5 Q386 111 395.5 135 Q405 159 405 189 L405 487 L482 487 L482 194 Z " />
<glyph glyph-name="uacute" unicode="&#xfa;" horiz-adv-x="560" d="M482 194 Q482 147 466.5 109 Q451 71 424 44.5 Q397 18 360 3.5 Q323 -11 281 -11 Q239 -11 202 3.5 Q165 18 137.5 44.5 Q110 71 94.5 109 Q79 147 79 194 L79 487 L155 487 L155 189 Q155 159 165 135 Q175 111 192 94.5 Q209 78 232 69 Q255 60 281 60 Q307 60 329.5 69 Q352 78 369 94.5 Q386 111 395.5 135 Q405 159 405 189 L405 487 L482 487 L482 194 Z M432 766 L312 566 L253 566 L338 780 L432 780 L432 766 Z " />
<glyph glyph-name="ubreve" unicode="&#x16d;" horiz-adv-x="560" d="M482 194 Q482 147 466.5 109 Q451 71 424 44.5 Q397 18 360 3.5 Q323 -11 281 -11 Q239 -11 202 3.5 Q165 18 137.5 44.5 Q110 71 94.5 109 Q79 147 79 194 L79 487 L155 487 L155 189 Q155 159 165 135 Q175 111 192 94.5 Q209 78 232 69 Q255 60 281 60 Q307 60 329.5 69 Q352 78 369 94.5 Q386 111 395.5 135 Q405 159 405 189 L405 487 L482 487 L482 194 Z M432 736 Q432 704 420.5 676 Q409 648 389 627.5 Q369 607 341 595.5 Q313 584 280 584 Q247 584 219 595.5 Q191 607 171 627.5 Q151 648 139.5 676 Q128 704 128 736 L193 736 Q193 694 218 669.5 Q243 645 280 645 Q318 645 343 669.5 Q368 694 368 736 L432 736 Z " />
<glyph glyph-name="uni01D4" unicode="&#x1d4;" horiz-adv-x="560" d="M482 194 Q482 147 466.5 109 Q451 71 424 44.5 Q397 18 360 3.5 Q323 -11 281 -11 Q239 -11 202 3.5 Q165 18 137.5 44.5 Q110 71 94.5 109 Q79 147 79 194 L79 487 L155 487 L155 189 Q155 159 165 135 Q175 111 192 94.5 Q209 78 232 69 Q255 60 281 60 Q307 60 329.5 69 Q352 78 369 94.5 Q386 111 395.5 135 Q405 159 405 189 L405 487 L482 487 L482 194 Z M305 566 L257 566 L121 780 L181 780 L281 653 L381 780 L440 780 L305 566 Z " />
<glyph glyph-name="ucircumflex" unicode="&#xfb;" horiz-adv-x="560" d="M482 194 Q482 147 466.5 109 Q451 71 424 44.5 Q397 18 360 3.5 Q323 -11 281 -11 Q239 -11 202 3.5 Q165 18 137.5 44.5 Q110 71 94.5 109 Q79 147 79 194 L79 487 L155 487 L155 189 Q155 159 165 135 Q175 111 192 94.5 Q209 78 232 69 Q255 60 281 60 Q307 60 329.5 69 Q352 78 369 94.5 Q386 111 395.5 135 Q405 159 405 189 L405 487 L482 487 L482 194 Z M440 566 L381 566 L281 693 L181 566 L121 566 L257 780 L305 780 L440 566 Z " />
<glyph glyph-name="udieresis" unicode="&#xfc;" horiz-adv-x="560" d="M482 194 Q482 147 466.5 109 Q451 71 424 44.5 Q397 18 360 3.5 Q323 -11 281 -11 Q239 -11 202 3.5 Q165 18 137.5 44.5 Q110 71 94.5 109 Q79 147 79 194 L79 487 L155 487 L155 189 Q155 159 165 135 Q175 111 192 94.5 Q209 78 232 69 Q255 60 281 60 Q307 60 329.5 69 Q352 78 369 94.5 Q386 111 395.5 135 Q405 159 405 189 L405 487 L482 487 L482 194 Z M385 727 Q408 727 424 711.5 Q440 696 440 673 Q440 651 424 635.5 Q408 620 385 620 Q364 620 347 635.5 Q330 651 330 673 Q330 696 347 711.5 Q364 727 385 727 Z M173 727 Q196 727 212 711.5 Q228 696 228 673 Q228 651 212 635.5 Q196 620 173 620 Q152 620 135 635.5 Q118 651 118 673 Q118 696 135 711.5 Q152 727 173 727 Z " />
<glyph glyph-name="ugrave" unicode="&#xf9;" horiz-adv-x="560" d="M482 194 Q482 147 466.5 109 Q451 71 424 44.5 Q397 18 360 3.5 Q323 -11 281 -11 Q239 -11 202 3.5 Q165 18 137.5 44.5 Q110 71 94.5 109 Q79 147 79 194 L79 487 L155 487 L155 189 Q155 159 165 135 Q175 111 192 94.5 Q209 78 232 69 Q255 60 281 60 Q307 60 329.5 69 Q352 78 369 94.5 Q386 111 395.5 135 Q405 159 405 189 L405 487 L482 487 L482 194 Z M309 566 L250 566 L130 766 L130 780 L224 780 L309 566 Z " />
<glyph glyph-name="uhungarumlaut" unicode="&#x171;" horiz-adv-x="560" d="M482 194 Q482 147 466.5 109 Q451 71 424 44.5 Q397 18 360 3.5 Q323 -11 281 -11 Q239 -11 202 3.5 Q165 18 137.5 44.5 Q110 71 94.5 109 Q79 147 79 194 L79 487 L155 487 L155 189 Q155 159 165 135 Q175 111 192 94.5 Q209 78 232 69 Q255 60 281 60 Q307 60 329.5 69 Q352 78 369 94.5 Q386 111 395.5 135 Q405 159 405 189 L405 487 L482 487 L482 194 Z M497 766 L385 566 L329 566 L414 780 L497 780 L497 766 Z M335 766 L222 566 L167 566 L252 780 L335 780 L335 766 Z " />
<glyph glyph-name="umacron" unicode="&#x16b;" horiz-adv-x="560" d="M482 194 Q482 147 466.5 109 Q451 71 424 44.5 Q397 18 360 3.5 Q323 -11 281 -11 Q239 -11 202 3.5 Q165 18 137.5 44.5 Q110 71 94.5 109 Q79 147 79 194 L79 487 L155 487 L155 189 Q155 159 165 135 Q175 111 192 94.5 Q209 78 232 69 Q255 60 281 60 Q307 60 329.5 69 Q352 78 369 94.5 Q386 111 395.5 135 Q405 159 405 189 L405 487 L482 487 L482 194 Z M417 642 L142 642 L142 704 L417 704 L417 642 Z " />
<glyph glyph-name="uni021B" unicode="&#x21b;" horiz-adv-x="381" d="M335 418 L183 418 L183 152 Q183 125 190.5 107 Q198 89 211.5 78.5 Q225 68 243.5 63.5 Q262 59 285 59 Q300 59 315.5 60.5 Q331 62 350 65 L350 0 Q331 -5 312 -8 Q293 -11 270 -11 Q198 -11 152 26.5 Q106 64 106 147 L106 418 L24 418 L24 487 L106 487 L106 620 L183 620 L183 487 L335 487 L335 418 Z M235 -220 L174 -220 L183 -49 L259 -49 L235 -220 Z " />
<glyph glyph-name="uogonek" unicode="&#x173;" horiz-adv-x="560" d="M482 194 Q482 154 473 126 Q464 98 448 75 Q432 52 408.5 30.5 Q385 9 357 -16 Q334 -37 321.5 -53.5 Q309 -70 309 -90 Q309 -111 322.5 -121.5 Q336 -132 360 -132 Q372 -132 386 -130 Q400 -128 414 -125 L414 -178 Q400 -183 381 -187 Q362 -191 339 -191 Q294 -191 265 -170.5 Q236 -150 236 -107 Q236 -54 292 -11 L281 -11 Q238 -11 201 3.5 Q164 18 137 44.5 Q110 71 94.5 109 Q79 147 79 194 L79 487 L155 487 L155 189 Q155 159 165 135 Q175 111 192 94.5 Q209 78 232 69 Q255 60 281 60 Q307 60 329.5 69 Q352 78 369 94.5 Q386 111 395.5 135 Q405 159 405 189 L405 487 L482 487 L482 194 Z " />
<glyph glyph-name="uring" unicode="&#x16f;" horiz-adv-x="560" d="M482 194 Q482 147 466.5 109 Q451 71 424 44.5 Q397 18 360 3.5 Q323 -11 281 -11 Q239 -11 202 3.5 Q165 18 137.5 44.5 Q110 71 94.5 109 Q79 147 79 194 L79 487 L155 487 L155 189 Q155 159 165 135 Q175 111 192 94.5 Q209 78 232 69 Q255 60 281 60 Q307 60 329.5 69 Q352 78 369 94.5 Q386 111 395.5 135 Q405 159 405 189 L405 487 L482 487 L482 194 Z M279 776 Q303 776 323.5 767.5 Q344 759 359 744.5 Q374 730 382.5 710.5 Q391 691 391 668 Q391 645 382.5 625.5 Q374 606 359 591 Q344 576 323.5 567.5 Q303 559 279 559 Q256 559 236 567.5 Q216 576 201 591 Q186 606 177.5 625.5 Q169 645 169 668 Q169 691 177.5 710.5 Q186 730 201 744.5 Q216 759 236 767.5 Q256 776 279 776 Z M281 720 Q259 720 244.5 705 Q230 690 230 668 Q230 646 244 632 Q258 618 281 618 Q302 618 316.5 632 Q331 646 331 668 Q331 690 316 705 Q301 720 281 720 Z " />
<glyph glyph-name="utilde" unicode="&#x169;" horiz-adv-x="560" d="M482 194 Q482 147 466.5 109 Q451 71 424 44.5 Q397 18 360 3.5 Q323 -11 281 -11 Q239 -11 202 3.5 Q165 18 137.5 44.5 Q110 71 94.5 109 Q79 147 79 194 L79 487 L155 487 L155 189 Q155 159 165 135 Q175 111 192 94.5 Q209 78 232 69 Q255 60 281 60 Q307 60 329.5 69 Q352 78 369 94.5 Q386 111 395.5 135 Q405 159 405 189 L405 487 L482 487 L482 194 Z M208 738 Q245 738 276 712 L302 690 Q314 679 323.5 673 Q333 667 344 667 Q360 667 366 679 Q372 691 372 708 L372 725 L436 725 Q437 718 437 712 Q437 706 437 700 Q437 656 415 626 Q393 596 352 596 Q315 596 284 622 L258 644 Q246 654 237 660.5 Q228 667 216 667 Q200 667 194 655 Q188 643 188 626 L188 609 L124 609 Q123 616 123 621.5 Q123 627 123 634 Q123 679 145 708.5 Q167 738 208 738 Z " />
<glyph glyph-name="v" unicode="v" horiz-adv-x="539" d="M284 -11 L255 -11 L26 487 L108 487 L269 120 L430 487 L512 487 L284 -11 Z " />
<glyph glyph-name="w" unicode="w" horiz-adv-x="851" d="M603 130 L742 487 L824 487 L619 -11 L590 -11 L425 357 L260 -11 L232 -11 L26 487 L108 487 L247 126 L411 498 L439 498 L603 130 Z " />
<glyph glyph-name="wacute" unicode="&#x1e83;" horiz-adv-x="851" d="M603 130 L742 487 L824 487 L619 -11 L590 -11 L425 357 L260 -11 L232 -11 L26 487 L108 487 L247 126 L411 498 L439 498 L603 130 Z M575 766 L455 566 L396 566 L481 780 L575 780 L575 766 Z " />
<glyph glyph-name="wcircumflex" unicode="&#x175;" horiz-adv-x="851" d="M603 130 L742 487 L824 487 L619 -11 L590 -11 L425 357 L260 -11 L232 -11 L26 487 L108 487 L247 126 L411 498 L439 498 L603 130 Z M583 566 L524 566 L424 693 L324 566 L264 566 L400 780 L448 780 L583 566 Z " />
<glyph glyph-name="wdieresis" unicode="&#x1e85;" horiz-adv-x="851" d="M603 130 L742 487 L824 487 L619 -11 L590 -11 L425 357 L260 -11 L232 -11 L26 487 L108 487 L247 126 L411 498 L439 498 L603 130 Z M528 727 Q551 727 567 711.5 Q583 696 583 673 Q583 651 567 635.5 Q551 620 528 620 Q507 620 490 635.5 Q473 651 473 673 Q473 696 490 711.5 Q507 727 528 727 Z M316 727 Q339 727 355 711.5 Q371 696 371 673 Q371 651 355 635.5 Q339 620 316 620 Q295 620 278 635.5 Q261 651 261 673 Q261 696 278 711.5 Q295 727 316 727 Z " />
<glyph glyph-name="wgrave" unicode="&#x1e81;" horiz-adv-x="851" d="M603 130 L742 487 L824 487 L619 -11 L590 -11 L425 357 L260 -11 L232 -11 L26 487 L108 487 L247 126 L411 498 L439 498 L603 130 Z M452 566 L393 566 L273 766 L273 780 L367 780 L452 566 Z " />
<glyph glyph-name="x" unicode="x" horiz-adv-x="497" d="M291 253 L476 0 L386 0 L247 196 L110 0 L20 0 L203 254 L34 487 L124 487 L248 310 L372 487 L462 487 L291 253 Z " />
<glyph glyph-name="y" unicode="y" horiz-adv-x="539" d="M272 -68 Q243 -134 203.5 -162.5 Q164 -191 107 -191 Q89 -191 69.5 -188.5 Q50 -186 33 -181 L33 -116 Q50 -118 64.5 -119.5 Q79 -121 92 -121 Q127 -121 154.5 -105.5 Q182 -90 202 -43 L228 16 L26 487 L109 487 L269 99 L430 487 L512 487 L272 -68 Z " />
<glyph glyph-name="yacute" unicode="&#xfd;" horiz-adv-x="539" d="M272 -68 Q243 -134 203.5 -162.5 Q164 -191 107 -191 Q89 -191 69.5 -188.5 Q50 -186 33 -181 L33 -116 Q50 -118 64.5 -119.5 Q79 -121 92 -121 Q127 -121 154.5 -105.5 Q182 -90 202 -43 L228 16 L26 487 L109 487 L269 99 L430 487 L512 487 L272 -68 Z M419 766 L299 566 L240 566 L325 780 L419 780 L419 766 Z " />
<glyph glyph-name="ycircumflex" unicode="&#x177;" horiz-adv-x="539" d="M272 -68 Q243 -134 203.5 -162.5 Q164 -191 107 -191 Q89 -191 69.5 -188.5 Q50 -186 33 -181 L33 -116 Q50 -118 64.5 -119.5 Q79 -121 92 -121 Q127 -121 154.5 -105.5 Q182 -90 202 -43 L228 16 L26 487 L109 487 L269 99 L430 487 L512 487 L272 -68 Z M427 566 L368 566 L268 693 L168 566 L108 566 L244 780 L292 780 L427 566 Z " />
<glyph glyph-name="ydieresis" unicode="&#xff;" horiz-adv-x="539" d="M272 -68 Q243 -134 203.5 -162.5 Q164 -191 107 -191 Q89 -191 69.5 -188.5 Q50 -186 33 -181 L33 -116 Q50 -118 64.5 -119.5 Q79 -121 92 -121 Q127 -121 154.5 -105.5 Q182 -90 202 -43 L228 16 L26 487 L109 487 L269 99 L430 487 L512 487 L272 -68 Z M372 727 Q395 727 411 711.5 Q427 696 427 673 Q427 651 411 635.5 Q395 620 372 620 Q351 620 334 635.5 Q317 651 317 673 Q317 696 334 711.5 Q351 727 372 727 Z M160 727 Q183 727 199 711.5 Q215 696 215 673 Q215 651 199 635.5 Q183 620 160 620 Q139 620 122 635.5 Q105 651 105 673 Q105 696 122 711.5 Q139 727 160 727 Z " />
<glyph glyph-name="ygrave" unicode="&#x1ef3;" horiz-adv-x="539" d="M272 -68 Q243 -134 203.5 -162.5 Q164 -191 107 -191 Q89 -191 69.5 -188.5 Q50 -186 33 -181 L33 -116 Q50 -118 64.5 -119.5 Q79 -121 92 -121 Q127 -121 154.5 -105.5 Q182 -90 202 -43 L228 16 L26 487 L109 487 L269 99 L430 487 L512 487 L272 -68 Z M296 566 L237 566 L117 766 L117 780 L211 780 L296 566 Z " />
<glyph glyph-name="z" unicode="z" horiz-adv-x="454" d="M424 464 L144 68 L427 68 L427 0 L27 0 L27 23 L304 418 L50 418 L50 487 L424 487 L424 464 Z " />
<glyph glyph-name="zacute" unicode="&#x17a;" horiz-adv-x="454" d="M424 464 L144 68 L427 68 L427 0 L27 0 L27 23 L304 418 L50 418 L50 487 L424 487 L424 464 Z M389 766 L269 566 L210 566 L295 780 L389 780 L389 766 Z " />
<glyph glyph-name="zcaron" unicode="&#x17e;" horiz-adv-x="454" d="M424 464 L144 68 L427 68 L427 0 L27 0 L27 23 L304 418 L50 418 L50 487 L424 487 L424 464 Z M262 566 L214 566 L78 780 L138 780 L238 653 L338 780 L397 780 L262 566 Z " />
<glyph glyph-name="zdotaccent" unicode="&#x17c;" horiz-adv-x="454" d="M424 464 L144 68 L427 68 L427 0 L27 0 L27 23 L304 418 L50 418 L50 487 L424 487 L424 464 Z M237 729 Q260 729 277 712.5 Q294 696 294 673 Q294 649 277 633 Q260 617 237 617 Q213 617 196 633 Q179 649 179 673 Q179 696 196 712.5 Q213 729 237 729 Z " />
<glyph glyph-name="fi" unicode="&#xfb01;" horiz-adv-x="564" d="M295 418 L174 418 L174 0 L97 0 L97 418 L27 418 L27 487 L97 487 L97 603 Q97 645 109 674.5 Q121 704 142.5 723.5 Q164 743 193.5 752 Q223 761 258 761 Q276 761 290.5 759 Q305 757 318 753 L318 688 Q294 691 275 691 Q230 691 202 672 Q174 653 174 598 L174 487 L295 487 L295 418 Z M480 0 L403 0 L403 487 L480 487 L480 0 Z M442 729 Q465 729 482 712.5 Q499 696 499 673 Q499 649 482 633 Q465 617 442 617 Q418 617 401 633 Q384 649 384 673 Q384 696 401 712.5 Q418 729 442 729 Z " />
<glyph glyph-name="fl" unicode="&#xfb02;" horiz-adv-x="564" d="M295 418 L174 418 L174 0 L97 0 L97 418 L27 418 L27 487 L97 487 L97 603 Q97 645 109 674.5 Q121 704 142.5 723.5 Q164 743 193.5 752 Q223 761 258 761 Q276 761 290.5 759 Q305 757 318 753 L318 688 Q294 691 275 691 Q230 691 202 672 Q174 653 174 598 L174 487 L295 487 L295 418 Z M480 0 L403 0 L403 750 L480 750 L480 0 Z " />
<glyph glyph-name="ordfeminine" unicode="&#xaa;" horiz-adv-x="364" d="M179 560 Q236 560 270.5 527.5 Q305 495 305 432 L305 244 L244 244 L244 275 Q227 258 203.5 247.5 Q180 237 148 237 Q98 237 69.5 262 Q41 287 41 328 Q41 370 72 393.5 Q103 417 154 417 L239 417 L239 436 Q239 468 221.5 484.5 Q204 501 172 501 Q146 501 126 490.5 Q106 480 87 463 L53 506 Q79 532 110 546 Q141 560 179 560 Z M163 290 Q195 290 217 308.5 Q239 327 239 359 L239 369 L163 369 Q137 369 123 358 Q109 347 109 330 Q109 309 125.5 299.5 Q142 290 163 290 Z " />
<glyph glyph-name="ordmasculine" unicode="&#xba;" horiz-adv-x="407" d="M203 559 Q237 559 266.5 546.5 Q296 534 318.5 512.5 Q341 491 354 461.5 Q367 432 367 398 Q367 364 354 334.5 Q341 305 318.5 283.5 Q296 262 266.5 249.5 Q237 237 203 237 Q169 237 139 249.5 Q109 262 87 283.5 Q65 305 52.5 334.5 Q40 364 40 398 Q40 432 52.5 461.5 Q65 491 87 512.5 Q109 534 139 546.5 Q169 559 203 559 Z M203 500 Q160 500 133 471.5 Q106 443 106 398 Q106 353 133 324.5 Q160 296 203 296 Q247 296 274 324.5 Q301 353 301 398 Q301 443 274 471.5 Q247 500 203 500 Z " />
<glyph glyph-name="zero" unicode="0" horiz-adv-x="663" d="M331 544 Q389 544 440.5 522.5 Q492 501 530.5 463.5 Q569 426 591 375 Q613 324 613 266 Q613 208 591 157 Q569 106 530.5 68.5 Q492 31 440.5 9.5 Q389 -12 330 -12 Q271 -12 220 9.5 Q169 31 131.5 68.5 Q94 106 72 157 Q50 208 50 266 Q50 324 72 375 Q94 426 132 463.5 Q170 501 221 522.5 Q272 544 331 544 Z M331 473 Q287 473 250 457 Q213 441 186.5 413.5 Q160 386 145 348 Q130 310 130 266 Q130 222 145 184.5 Q160 147 186.5 119 Q213 91 250 75 Q287 59 331 59 Q374 59 411 75 Q448 91 475 119 Q502 147 517.5 184.5 Q533 222 533 266 Q533 310 517.5 348 Q502 386 475 413.5 Q448 441 411 457 Q374 473 331 473 Z " />
<glyph glyph-name="one" unicode="1" horiz-adv-x="492" d="M307 68 L449 68 L449 0 L78 0 L78 68 L229 68 L229 462 L88 462 L88 533 L307 533 L307 68 Z " />
<glyph glyph-name="two" unicode="2" horiz-adv-x="553" d="M275 544 Q318 544 354.5 530.5 Q391 517 417.5 492.5 Q444 468 458.5 434 Q473 400 473 360 Q473 322 460 289.5 Q447 257 424.5 229 Q402 201 371.5 175.5 Q341 150 307 126 L227 68 L500 68 L500 0 L45 0 L45 20 L241 164 Q272 187 299.5 208 Q327 229 348 251.5 Q369 274 381 299 Q393 324 393 355 Q393 379 385 400.5 Q377 422 362 438.5 Q347 455 324.5 464.5 Q302 474 274 474 Q244 474 220.5 464 Q197 454 181.5 437 Q166 420 157.5 398.5 Q149 377 149 355 Q149 343 151 329.5 Q153 316 155 303 L79 303 Q71 332 71 360 Q71 395 85 428 Q99 461 125.5 487 Q152 513 190 528.5 Q228 544 275 544 Z " />
<glyph glyph-name="three" unicode="3" horiz-adv-x="518" d="M448 510 L274 289 Q308 286 342 271.5 Q376 257 403.5 232 Q431 207 448 170.5 Q465 134 465 86 Q465 35 445.5 -5.5 Q426 -46 393.5 -74.5 Q361 -103 318.5 -118 Q276 -133 230 -133 Q189 -133 155 -122 Q121 -111 93 -92 Q65 -73 43.5 -48.5 Q22 -24 7 3 L62 43 Q75 22 91.5 3 Q108 -16 128.5 -30.5 Q149 -45 174 -53.5 Q199 -62 230 -62 Q263 -62 291.5 -51.5 Q320 -41 341 -21.5 Q362 -2 373.5 25.5 Q385 53 385 86 Q385 150 341 186.5 Q297 223 216 223 L156 223 L156 246 L324 462 L51 462 L51 533 L448 533 L448 510 Z " />
<glyph glyph-name="four" unicode="4" horiz-adv-x="543" d="M430 68 L527 68 L527 0 L430 0 L430 -121 L353 -121 L353 0 L22 0 L22 23 L235 533 L315 533 L120 68 L353 68 L353 290 L430 290 L430 68 Z " />
<glyph glyph-name="five" unicode="5" horiz-adv-x="542" d="M432 462 L168 462 L168 283 Q190 287 213 289 Q236 291 264 291 Q307 291 348 278.5 Q389 266 420 241 Q451 216 470 177.5 Q489 139 489 87 Q489 36 469.5 -5 Q450 -46 418 -74.5 Q386 -103 343.5 -118 Q301 -133 255 -133 Q213 -133 178 -122 Q143 -111 114.5 -92 Q86 -73 64 -48.5 Q42 -24 27 3 L82 43 Q95 22 111.5 3 Q128 -16 149 -30.5 Q170 -45 196.5 -53.5 Q223 -62 255 -62 Q288 -62 316 -51 Q344 -40 364.5 -20.5 Q385 -1 397 26.5 Q409 54 409 87 Q409 152 365 187.5 Q321 223 241 223 L91 223 L91 533 L432 533 L432 462 Z " />
<glyph glyph-name="six" unicode="6" horiz-adv-x="551" d="M229 418 Q253 427 285 427 Q328 427 367.5 410.5 Q407 394 436 365 Q465 336 482.5 296.5 Q500 257 500 211 Q500 164 482.5 123.5 Q465 83 434 53 Q403 23 362 6 Q321 -11 274 -11 Q228 -11 187 6 Q146 23 115.5 52.5 Q85 82 67.5 123 Q50 164 50 212 Q50 243 57 269.5 Q64 296 76.5 320.5 Q89 345 105.5 370 Q122 395 141 422 L305 660 L398 660 L229 418 Z M274 361 Q243 361 216 349.5 Q189 338 169.5 317.5 Q150 297 138.5 269.5 Q127 242 127 211 Q127 179 138.5 151 Q150 123 169.5 103 Q189 83 216 71.5 Q243 60 274 60 Q305 60 332.5 71.5 Q360 83 380 103 Q400 123 411.5 151 Q423 179 423 211 Q423 242 411.5 269.5 Q400 297 380 317.5 Q360 338 332.5 349.5 Q305 361 274 361 Z " />
<glyph glyph-name="seven" unicode="7" horiz-adv-x="501" d="M476 510 L144 -121 L60 -121 L369 462 L35 462 L35 533 L476 533 L476 510 Z " />
<glyph glyph-name="eight" unicode="8" horiz-adv-x="578" d="M288 671 Q329 671 365.5 660.5 Q402 650 429.5 629 Q457 608 473 577.5 Q489 547 489 507 Q489 450 456.5 410.5 Q424 371 364 345 Q394 334 422 318.5 Q450 303 472 282 Q494 261 507 232.5 Q520 204 520 168 Q520 128 503.5 95 Q487 62 456.5 38.5 Q426 15 383 2 Q340 -11 288 -11 Q236 -11 193 2 Q150 15 119.5 39 Q89 63 72.5 96 Q56 129 56 169 Q56 204 68.5 231.5 Q81 259 102 280.5 Q123 302 151.5 318 Q180 334 212 345 Q155 371 121 409.5 Q87 448 87 507 Q87 547 103 577.5 Q119 608 146.5 629 Q174 650 210.5 660.5 Q247 671 288 671 Z M441 171 Q441 199 429 220 Q417 241 396 256.5 Q375 272 347 284.5 Q319 297 288 308 Q256 297 228 284.5 Q200 272 179.5 256.5 Q159 241 147 220 Q135 199 135 171 Q135 120 174.5 88 Q214 56 288 56 Q363 56 402 88 Q441 120 441 171 Z M288 604 Q235 604 199.5 578 Q164 552 164 504 Q164 458 197.5 431.5 Q231 405 287 382 Q315 393 338 405 Q361 417 377.5 431 Q394 445 403 463 Q412 481 412 504 Q412 552 376.5 578 Q341 604 288 604 Z " />
<glyph glyph-name="nine" unicode="9" horiz-adv-x="551" d="M275 544 Q321 544 362 527 Q403 510 434 480.5 Q465 451 482.5 410.5 Q500 370 500 322 Q500 292 493.5 266.5 Q487 241 475 216.5 Q463 192 446.5 167 Q430 142 409 112 L248 -121 L156 -121 L321 116 Q295 107 265 107 Q221 107 182 123.5 Q143 140 114 169 Q85 198 67.5 237 Q50 276 50 322 Q50 370 67.5 410.5 Q85 451 116 480.5 Q147 510 187.5 527 Q228 544 275 544 Z M274 474 Q243 474 216.5 462.5 Q190 451 170 430.5 Q150 410 138.5 382.5 Q127 355 127 323 Q127 291 138.5 263.5 Q150 236 170 215.5 Q190 195 216.5 183.5 Q243 172 274 172 Q306 172 333 183.5 Q360 195 380 215.5 Q400 236 411.5 263.5 Q423 291 423 323 Q423 355 411.5 382.5 Q400 410 380 430.5 Q360 451 333 462.5 Q306 474 274 474 Z " />
<glyph glyph-name="uni2780" unicode="&#x2780;" horiz-adv-x="975" d="M487 761 Q577 761 655.5 727 Q734 693 792.5 634.5 Q851 576 884.5 497.5 Q918 419 918 330 Q918 241 884.5 162.5 Q851 84 792.5 25.5 Q734 -33 655.5 -67 Q577 -101 487 -101 Q398 -101 319.5 -67 Q241 -33 182.5 25.5 Q124 84 90.5 162.5 Q57 241 57 330 Q57 419 90.5 497.5 Q124 576 182.5 634.5 Q241 693 319.5 727 Q398 761 487 761 Z M487 694 Q412 694 346 666 Q280 638 231 589 Q182 540 153.5 473.5 Q125 407 125 330 Q125 253 153.5 186.5 Q182 120 231 71 Q280 22 346 -6 Q412 -34 487 -34 Q563 -34 629 -6 Q695 22 744 71 Q793 120 821 186.5 Q849 253 849 330 Q849 407 821 473.5 Q793 540 744 589 Q695 638 629 666 Q563 694 487 694 Z M528 166 L621 166 L621 105 L356 105 L356 166 L456 166 L456 493 L363 493 L363 554 L528 554 L528 166 Z " />
<glyph glyph-name="uni2781" unicode="&#x2781;" horiz-adv-x="975" d="M487 761 Q577 761 655.5 727 Q734 693 792.5 634.5 Q851 576 884.5 497.5 Q918 419 918 330 Q918 241 884.5 162.5 Q851 84 792.5 25.5 Q734 -33 655.5 -67 Q577 -101 487 -101 Q398 -101 319.5 -67 Q241 -33 182.5 25.5 Q124 84 90.5 162.5 Q57 241 57 330 Q57 419 90.5 497.5 Q124 576 182.5 634.5 Q241 693 319.5 727 Q398 761 487 761 Z M487 694 Q412 694 346 666 Q280 638 231 589 Q182 540 153.5 473.5 Q125 407 125 330 Q125 253 153.5 186.5 Q182 120 231 71 Q280 22 346 -6 Q412 -34 487 -34 Q563 -34 629 -6 Q695 22 744 71 Q793 120 821 186.5 Q849 253 849 330 Q849 407 821 473.5 Q793 540 744 589 Q695 638 629 666 Q563 694 487 694 Z M483 561 Q516 561 543.5 550.5 Q571 540 590.5 522 Q610 504 621 478.5 Q632 453 632 423 Q632 399 625 377.5 Q618 356 606 336.5 Q594 317 578 299 Q562 281 545 263 L452 166 L650 166 L650 105 L328 105 L328 121 L487 293 Q517 325 538 354.5 Q559 384 559 419 Q559 451 538.5 474 Q518 497 480 497 Q439 497 416.5 472 Q394 447 394 413 Q394 404 395.5 394 Q397 384 399 375 L333 375 Q328 398 328 418 Q328 446 339 471.5 Q350 497 370 517 Q390 537 419 549 Q448 561 483 561 Z " />
<glyph glyph-name="uni2782" unicode="&#x2782;" horiz-adv-x="975" d="M487 761 Q577 761 655.5 727 Q734 693 792.5 634.5 Q851 576 884.5 497.5 Q918 419 918 330 Q918 241 884.5 162.5 Q851 84 792.5 25.5 Q734 -33 655.5 -67 Q577 -101 487 -101 Q398 -101 319.5 -67 Q241 -33 182.5 25.5 Q124 84 90.5 162.5 Q57 241 57 330 Q57 419 90.5 497.5 Q124 576 182.5 634.5 Q241 693 319.5 727 Q398 761 487 761 Z M629 534 L515 385 Q539 382 561 372 Q583 362 600.5 345 Q618 328 628.5 304 Q639 280 639 249 Q639 214 625.5 186.5 Q612 159 589.5 139 Q567 119 537.5 108.5 Q508 98 475 98 Q418 98 378.5 126 Q339 154 317 194 L367 230 Q386 202 411 182 Q436 162 474 162 Q512 162 538.5 186 Q565 210 565 249 Q565 287 538.5 307.5 Q512 328 461 328 L411 328 L411 348 L521 491 L349 491 L349 554 L629 554 L629 534 Z M487 694 Q412 694 346 666 Q280 638 231 589 Q182 540 153.5 473.5 Q125 407 125 330 Q125 253 153.5 186.5 Q182 120 231 71 Q280 22 346 -6 Q412 -34 487 -34 Q563 -34 629 -6 Q695 22 744 71 Q793 120 821 186.5 Q849 253 849 330 Q849 407 821 473.5 Q793 540 744 589 Q695 638 629 666 Q563 694 487 694 Z " />
<glyph glyph-name="uni2783" unicode="&#x2783;" horiz-adv-x="975" d="M487 761 Q577 761 655.5 727 Q734 693 792.5 634.5 Q851 576 884.5 497.5 Q918 419 918 330 Q918 241 884.5 162.5 Q851 84 792.5 25.5 Q734 -33 655.5 -67 Q577 -101 487 -101 Q398 -101 319.5 -67 Q241 -33 182.5 25.5 Q124 84 90.5 162.5 Q57 241 57 330 Q57 419 90.5 497.5 Q124 576 182.5 634.5 Q241 693 319.5 727 Q398 761 487 761 Z M386 246 L525 246 L525 379 L595 379 L595 246 L657 246 L657 183 L595 183 L595 105 L525 105 L525 183 L299 183 L299 203 L438 554 L513 554 L386 246 Z M487 694 Q412 694 346 666 Q280 638 231 589 Q182 540 153.5 473.5 Q125 407 125 330 Q125 253 153.5 186.5 Q182 120 231 71 Q280 22 346 -6 Q412 -34 487 -34 Q563 -34 629 -6 Q695 22 744 71 Q793 120 821 186.5 Q849 253 849 330 Q849 407 821 473.5 Q793 540 744 589 Q695 638 629 666 Q563 694 487 694 Z " />
<glyph glyph-name="uni2784" unicode="&#x2784;" horiz-adv-x="975" d="M487 761 Q577 761 655.5 727 Q734 693 792.5 634.5 Q851 576 884.5 497.5 Q918 419 918 330 Q918 241 884.5 162.5 Q851 84 792.5 25.5 Q734 -33 655.5 -67 Q577 -101 487 -101 Q398 -101 319.5 -67 Q241 -33 182.5 25.5 Q124 84 90.5 162.5 Q57 241 57 330 Q57 419 90.5 497.5 Q124 576 182.5 634.5 Q241 693 319.5 727 Q398 761 487 761 Z M615 491 L437 491 L437 386 Q451 388 465 389 Q479 390 496 390 Q525 390 552.5 381.5 Q580 373 602 355.5 Q624 338 637 311.5 Q650 285 650 250 Q650 215 636.5 187 Q623 159 600.5 139 Q578 119 547.5 108 Q517 97 484 97 Q425 97 385 125.5 Q345 154 323 194 L374 230 Q393 202 417.5 181.5 Q442 161 482 161 Q522 161 549 185 Q576 209 576 249 Q576 287 549 307.5 Q522 328 472 328 L368 328 L368 554 L615 554 L615 491 Z M487 694 Q412 694 346 666 Q280 638 231 589 Q182 540 153.5 473.5 Q125 407 125 330 Q125 253 153.5 186.5 Q182 120 231 71 Q280 22 346 -6 Q412 -34 487 -34 Q563 -34 629 -6 Q695 22 744 71 Q793 120 821 186.5 Q849 253 849 330 Q849 407 821 473.5 Q793 540 744 589 Q695 638 629 666 Q563 694 487 694 Z " />
<glyph glyph-name="uni2785" unicode="&#x2785;" horiz-adv-x="975" d="M487 761 Q577 761 655.5 727 Q734 693 792.5 634.5 Q851 576 884.5 497.5 Q918 419 918 330 Q918 241 884.5 162.5 Q851 84 792.5 25.5 Q734 -33 655.5 -67 Q577 -101 487 -101 Q398 -101 319.5 -67 Q241 -33 182.5 25.5 Q124 84 90.5 162.5 Q57 241 57 330 Q57 419 90.5 497.5 Q124 576 182.5 634.5 Q241 693 319.5 727 Q398 761 487 761 Z M477 342 Q440 342 415 316 Q390 290 390 253 Q390 234 396.5 217.5 Q403 201 415 188.5 Q427 176 443 169 Q459 162 477 162 Q496 162 512 169 Q528 176 540 188.5 Q552 201 558.5 217.5 Q565 234 565 253 Q565 291 540 316.5 Q515 342 477 342 Z M462 390 Q487 400 516 395 Q541 391 563 379 Q585 367 601.5 348 Q618 329 627.5 304.5 Q637 280 637 252 Q637 219 624 190.5 Q611 162 589 141.5 Q567 121 538 109.5 Q509 98 477 98 Q445 98 416.5 109.5 Q388 121 366 141.5 Q344 162 331.5 190.5 Q319 219 319 253 Q319 273 323.5 290.5 Q328 308 336 324.5 Q344 341 355.5 358.5 Q367 376 381 396 L493 554 L577 554 L462 390 Z M487 694 Q412 694 346 666 Q280 638 231 589 Q182 540 153.5 473.5 Q125 407 125 330 Q125 253 153.5 186.5 Q182 120 231 71 Q280 22 346 -6 Q412 -34 487 -34 Q563 -34 629 -6 Q695 22 744 71 Q793 120 821 186.5 Q849 253 849 330 Q849 407 821 473.5 Q793 540 744 589 Q695 638 629 666 Q563 694 487 694 Z " />
<glyph glyph-name="uni2786" unicode="&#x2786;" horiz-adv-x="975" d="M487 761 Q577 761 655.5 727 Q734 693 792.5 634.5 Q851 576 884.5 497.5 Q918 419 918 330 Q918 241 884.5 162.5 Q851 84 792.5 25.5 Q734 -33 655.5 -67 Q577 -101 487 -101 Q398 -101 319.5 -67 Q241 -33 182.5 25.5 Q124 84 90.5 162.5 Q57 241 57 330 Q57 419 90.5 497.5 Q124 576 182.5 634.5 Q241 693 319.5 727 Q398 761 487 761 Z M487 694 Q412 694 346 666 Q280 638 231 589 Q182 540 153.5 473.5 Q125 407 125 330 Q125 253 153.5 186.5 Q182 120 231 71 Q280 22 346 -6 Q412 -34 487 -34 Q563 -34 629 -6 Q695 22 744 71 Q793 120 821 186.5 Q849 253 849 330 Q849 407 821 473.5 Q793 540 744 589 Q695 638 629 666 Q563 694 487 694 Z M651 535 L434 106 L356 106 L557 490 L344 490 L344 555 L651 555 L651 535 Z " />
<glyph glyph-name="uni2787" unicode="&#x2787;" horiz-adv-x="975" d="M487 761 Q577 761 655.5 727 Q734 693 792.5 634.5 Q851 576 884.5 497.5 Q918 419 918 330 Q918 241 884.5 162.5 Q851 84 792.5 25.5 Q734 -33 655.5 -67 Q577 -101 487 -101 Q398 -101 319.5 -67 Q241 -33 182.5 25.5 Q124 84 90.5 162.5 Q57 241 57 330 Q57 419 90.5 497.5 Q124 576 182.5 634.5 Q241 693 319.5 727 Q398 761 487 761 Z M487 313 Q450 299 423 280.5 Q396 262 396 227 Q396 195 419 175 Q442 155 488 155 Q533 155 556 175 Q579 195 579 226 Q579 262 552 280.5 Q525 299 487 313 Z M489 561 Q518 561 544 553.5 Q570 546 589 531.5 Q608 517 619 495.5 Q630 474 630 446 Q630 410 610 384 Q590 358 552 340 Q592 324 621.5 296 Q651 268 651 222 Q651 194 639 171 Q627 148 605.5 132 Q584 116 554.5 107 Q525 98 489 98 Q453 98 423 107 Q393 116 371 132 Q349 148 337 171 Q325 194 325 223 Q325 268 353.5 295.5 Q382 323 426 339 Q389 356 367.5 382 Q346 408 346 446 Q346 474 357 495.5 Q368 517 387.5 531.5 Q407 546 433 553.5 Q459 561 489 561 Z M487 694 Q412 694 346 666 Q280 638 231 589 Q182 540 153.5 473.5 Q125 407 125 330 Q125 253 153.5 186.5 Q182 120 231 71 Q280 22 346 -6 Q412 -34 487 -34 Q563 -34 629 -6 Q695 22 744 71 Q793 120 821 186.5 Q849 253 849 330 Q849 407 821 473.5 Q793 540 744 589 Q695 638 629 666 Q563 694 487 694 Z M488 504 Q456 504 435.5 487.5 Q415 471 415 442 Q415 413 435 397 Q455 381 487 369 Q520 381 540.5 397 Q561 413 561 442 Q561 471 540.5 487.5 Q520 504 488 504 Z " />
<glyph glyph-name="uni2788" unicode="&#x2788;" horiz-adv-x="975" d="M488 761 Q577 761 655.5 727 Q734 693 792.5 634.5 Q851 576 884.5 497.5 Q918 419 918 330 Q918 241 884.5 162.5 Q851 84 792.5 25.5 Q734 -33 655.5 -67 Q577 -101 488 -101 Q398 -101 319.5 -67 Q241 -33 182.5 25.5 Q124 84 90.5 162.5 Q57 241 57 330 Q57 419 90.5 497.5 Q124 576 182.5 634.5 Q241 693 319.5 727 Q398 761 488 761 Z M488 694 Q412 694 346 666 Q280 638 231 589 Q182 540 153.5 473.5 Q125 407 125 330 Q125 253 153.5 186.5 Q182 120 231 71 Q280 22 346 -6 Q412 -34 488 -34 Q563 -34 629 -6 Q695 22 744 71 Q793 120 821 186.5 Q849 253 849 330 Q849 407 821 473.5 Q793 540 744 589 Q695 638 629 666 Q563 694 488 694 Z M498 562 Q530 562 559 550.5 Q588 539 609.5 518.5 Q631 498 644 469.5 Q657 441 657 407 Q657 387 652.5 369.5 Q648 352 640 335.5 Q632 319 620.5 301.5 Q609 284 595 264 L483 106 L399 106 L514 270 Q489 260 460 265 Q434 269 412 281 Q390 293 374 312 Q358 331 348.5 355.5 Q339 380 339 408 Q339 441 352 469.5 Q365 498 386.5 518.5 Q408 539 437 550.5 Q466 562 498 562 Z M498 498 Q480 498 464 491 Q448 484 436 471.5 Q424 459 417 442.5 Q410 426 410 407 Q410 369 435.5 343.5 Q461 318 498 318 Q536 318 560.5 344 Q585 370 585 407 Q585 445 560.5 471.5 Q536 498 498 498 Z " />
<glyph glyph-name="uni24FF" unicode="&#x24ff;" horiz-adv-x="975" d="M487 761 Q577 761 655.5 727 Q734 693 792.5 634.5 Q851 576 884.5 497.5 Q918 419 918 330 Q918 241 884.5 162.5 Q851 84 792.5 25.5 Q734 -33 655.5 -67 Q577 -101 487 -101 Q398 -101 319.5 -67 Q241 -33 182.5 25.5 Q124 84 90.5 162.5 Q57 241 57 330 Q57 419 90.5 497.5 Q124 576 182.5 634.5 Q241 693 319.5 727 Q398 761 487 761 Z M487 561 Q444 561 412 544 Q380 527 359 496.5 Q338 466 328 424 Q318 382 318 333 Q318 285 328 242.5 Q338 200 358.5 167.5 Q379 135 411 116.5 Q443 98 487 98 Q532 98 564.5 116.5 Q597 135 618 167.5 Q639 200 649 242.5 Q659 285 659 333 Q659 382 648.5 424 Q638 466 617 496.5 Q596 527 563.5 544 Q531 561 487 561 Z M487 497 Q540 497 562.5 452.5 Q585 408 585 333 Q585 256 562 209 Q539 162 487 162 Q435 162 413 209 Q391 256 391 333 Q391 408 413 452.5 Q435 497 487 497 Z " />
<glyph glyph-name="uni2776" unicode="&#x2776;" horiz-adv-x="975" d="M487 761 Q577 761 655.5 727 Q734 693 792.5 634.5 Q851 576 884.5 497.5 Q918 419 918 330 Q918 241 884.5 162.5 Q851 84 792.5 25.5 Q734 -33 655.5 -67 Q577 -101 487 -101 Q398 -101 319.5 -67 Q241 -33 182.5 25.5 Q124 84 90.5 162.5 Q57 241 57 330 Q57 419 90.5 497.5 Q124 576 182.5 634.5 Q241 693 319.5 727 Q398 761 487 761 Z M363 554 L363 493 L456 493 L456 166 L356 166 L356 105 L621 105 L621 166 L528 166 L528 554 L363 554 Z " />
<glyph glyph-name="uni2777" unicode="&#x2777;" horiz-adv-x="975" d="M487 761 Q577 761 655.5 727 Q734 693 792.5 634.5 Q851 576 884.5 497.5 Q918 419 918 330 Q918 241 884.5 162.5 Q851 84 792.5 25.5 Q734 -33 655.5 -67 Q577 -101 487 -101 Q398 -101 319.5 -67 Q241 -33 182.5 25.5 Q124 84 90.5 162.5 Q57 241 57 330 Q57 419 90.5 497.5 Q124 576 182.5 634.5 Q241 693 319.5 727 Q398 761 487 761 Z M483 561 Q448 561 419 549 Q390 537 370 517 Q350 497 339 471.5 Q328 446 328 418 Q328 398 333 375 L399 375 Q397 384 395.5 394 Q394 404 394 413 Q394 447 416.5 472 Q439 497 480 497 Q518 497 538.5 474 Q559 451 559 419 Q559 384 538 354.5 Q517 325 487 293 L328 121 L328 105 L650 105 L650 166 L452 166 L545 263 Q562 281 578 299 Q594 317 606 336.5 Q618 356 625 377.5 Q632 399 632 423 Q632 453 621 478.5 Q610 504 590.5 522 Q571 540 543.5 550.5 Q516 561 483 561 Z " />
<glyph glyph-name="uni2778" unicode="&#x2778;" horiz-adv-x="975" d="M487 761 Q577 761 655.5 727 Q734 693 792.5 634.5 Q851 576 884.5 497.5 Q918 419 918 330 Q918 241 884.5 162.5 Q851 84 792.5 25.5 Q734 -33 655.5 -67 Q577 -101 487 -101 Q398 -101 319.5 -67 Q241 -33 182.5 25.5 Q124 84 90.5 162.5 Q57 241 57 330 Q57 419 90.5 497.5 Q124 576 182.5 634.5 Q241 693 319.5 727 Q398 761 487 761 Z M349 554 L349 491 L521 491 L411 348 L411 328 L461 328 Q512 328 538.5 307.5 Q565 287 565 249 Q565 210 538.5 186 Q512 162 474 162 Q436 162 411 182 Q386 202 367 230 L317 194 Q339 154 378.5 126 Q418 98 475 98 Q508 98 537.5 108.5 Q567 119 589.5 139 Q612 159 625.5 186.5 Q639 214 639 249 Q639 280 628.5 304 Q618 328 600.5 345 Q583 362 561 372 Q539 382 515 385 L629 534 L629 554 L349 554 Z " />
<glyph glyph-name="uni2779" unicode="&#x2779;" horiz-adv-x="975" d="M487 761 Q577 761 655.5 727 Q734 693 792.5 634.5 Q851 576 884.5 497.5 Q918 419 918 330 Q918 241 884.5 162.5 Q851 84 792.5 25.5 Q734 -33 655.5 -67 Q577 -101 487 -101 Q398 -101 319.5 -67 Q241 -33 182.5 25.5 Q124 84 90.5 162.5 Q57 241 57 330 Q57 419 90.5 497.5 Q124 576 182.5 634.5 Q241 693 319.5 727 Q398 761 487 761 Z M438 554 L299 203 L299 183 L525 183 L525 105 L595 105 L595 183 L657 183 L657 246 L595 246 L595 379 L525 379 L525 246 L386 246 L513 554 L438 554 Z " />
<glyph glyph-name="uni277A" unicode="&#x277a;" horiz-adv-x="975" d="M487 761 Q577 761 655.5 727 Q734 693 792.5 634.5 Q851 576 884.5 497.5 Q918 419 918 330 Q918 241 884.5 162.5 Q851 84 792.5 25.5 Q734 -33 655.5 -67 Q577 -101 487 -101 Q398 -101 319.5 -67 Q241 -33 182.5 25.5 Q124 84 90.5 162.5 Q57 241 57 330 Q57 419 90.5 497.5 Q124 576 182.5 634.5 Q241 693 319.5 727 Q398 761 487 761 Z M368 554 L368 328 L471 328 Q522 328 548.5 307.5 Q575 287 575 249 Q575 209 548.5 185 Q522 161 482 161 Q442 161 417 181.5 Q392 202 373 230 L323 194 Q344 154 384.5 125.5 Q425 97 484 97 Q517 97 546.5 108 Q576 119 598.5 139 Q621 159 634.5 187 Q648 215 648 250 Q648 285 635 311.5 Q622 338 601 355.5 Q580 373 552.5 381.5 Q525 390 496 390 Q479 390 464.5 389 Q450 388 436 386 L436 491 L614 491 L614 554 L368 554 Z " />
<glyph glyph-name="uni277B" unicode="&#x277b;" horiz-adv-x="975" d="M487 761 Q577 761 655.5 727 Q734 693 792.5 634.5 Q851 576 884.5 497.5 Q918 419 918 330 Q918 241 884.5 162.5 Q851 84 792.5 25.5 Q734 -33 655.5 -67 Q577 -101 487 -101 Q398 -101 319.5 -67 Q241 -33 182.5 25.5 Q124 84 90.5 162.5 Q57 241 57 330 Q57 419 90.5 497.5 Q124 576 182.5 634.5 Q241 693 319.5 727 Q398 761 487 761 Z M477 342 Q515 342 540 316.5 Q565 291 565 253 Q565 234 558.5 217.5 Q552 201 540 188.5 Q528 176 512 169 Q496 162 477 162 Q459 162 443 169 Q427 176 415 188.5 Q403 201 396.5 217.5 Q390 234 390 253 Q390 290 415 316 Q440 342 477 342 Z M493 554 L381 396 Q367 376 355.5 358.5 Q344 341 336 324.5 Q328 308 323.5 290.5 Q319 273 319 253 Q319 219 331.5 190.5 Q344 162 366 141.5 Q388 121 416.5 109.5 Q445 98 477 98 Q509 98 538 109.5 Q567 121 589 141.5 Q611 162 624 190.5 Q637 219 637 252 Q637 280 627.5 304.5 Q618 329 601.5 348 Q585 367 563 379 Q541 391 516 395 Q487 400 462 390 L577 554 L493 554 Z " />
<glyph glyph-name="uni277C" unicode="&#x277c;" horiz-adv-x="975" d="M487 761 Q577 761 655.5 727 Q734 693 792.5 634.5 Q851 576 884.5 497.5 Q918 419 918 330 Q918 241 884.5 162.5 Q851 84 792.5 25.5 Q734 -33 655.5 -67 Q577 -101 487 -101 Q398 -101 319.5 -67 Q241 -33 182.5 25.5 Q124 84 90.5 162.5 Q57 241 57 330 Q57 419 90.5 497.5 Q124 576 182.5 634.5 Q241 693 319.5 727 Q398 761 487 761 Z M344 555 L344 490 L557 490 L356 106 L434 106 L651 535 L651 555 L344 555 Z " />
<glyph glyph-name="uni277D" unicode="&#x277d;" horiz-adv-x="975" d="M487 761 Q577 761 655.5 727 Q734 693 792.5 634.5 Q851 576 884.5 497.5 Q918 419 918 330 Q918 241 884.5 162.5 Q851 84 792.5 25.5 Q734 -33 655.5 -67 Q577 -101 487 -101 Q398 -101 319.5 -67 Q241 -33 182.5 25.5 Q124 84 90.5 162.5 Q57 241 57 330 Q57 419 90.5 497.5 Q124 576 182.5 634.5 Q241 693 319.5 727 Q398 761 487 761 Z M487 313 Q525 299 552 280.5 Q579 262 579 226 Q579 195 556 175 Q533 155 488 155 Q442 155 419 175 Q396 195 396 227 Q396 262 423 280.5 Q450 299 487 313 Z M489 561 Q459 561 433 553.5 Q407 546 387.5 531.5 Q368 517 357 495.5 Q346 474 346 446 Q346 408 367.5 382 Q389 356 426 339 Q382 323 353.5 295.5 Q325 268 325 223 Q325 194 337 171 Q349 148 371 132 Q393 116 423 107 Q453 98 489 98 Q525 98 554.5 107 Q584 116 605.5 132 Q627 148 639 171 Q651 194 651 222 Q651 268 621.5 296 Q592 324 552 340 Q590 358 610 384 Q630 410 630 446 Q630 474 619 495.5 Q608 517 589 531.5 Q570 546 544 553.5 Q518 561 489 561 Z M488 504 Q520 504 540.5 487.5 Q561 471 561 442 Q561 413 540.5 397 Q520 381 487 369 Q455 381 435 397 Q415 413 415 442 Q415 471 435.5 487.5 Q456 504 488 504 Z " />
<glyph glyph-name="uni277E" unicode="&#x277e;" horiz-adv-x="975" d="M488 761 Q577 761 655.5 727 Q734 693 792.5 634.5 Q851 576 884.5 497.5 Q918 419 918 330 Q918 241 884.5 162.5 Q851 84 792.5 25.5 Q734 -33 655.5 -67 Q577 -101 488 -101 Q398 -101 319.5 -67 Q241 -33 182.5 25.5 Q124 84 90.5 162.5 Q57 241 57 330 Q57 419 90.5 497.5 Q124 576 182.5 634.5 Q241 693 319.5 727 Q398 761 488 761 Z M498 562 Q466 562 437 550.5 Q408 539 386.5 518.5 Q365 498 352 469.5 Q339 441 339 408 Q339 380 348.5 355.5 Q358 331 374 312 Q390 293 412 281 Q434 269 460 265 Q489 260 514 270 L399 106 L483 106 L595 264 Q609 284 620.5 301.5 Q632 319 640 335.5 Q648 352 652.5 369.5 Q657 387 657 407 Q657 441 644 469.5 Q631 498 609.5 518.5 Q588 539 559 550.5 Q530 562 498 562 Z M498 498 Q536 498 560.5 471.5 Q585 445 585 407 Q585 370 560.5 344 Q536 318 498 318 Q461 318 435.5 343.5 Q410 369 410 407 Q410 426 417 442.5 Q424 459 436 471.5 Q448 484 464 491 Q480 498 498 498 Z " />
<glyph glyph-name="uni24EA" unicode="&#x24ea;" horiz-adv-x="975" d="M487 761 Q577 761 655.5 727 Q734 693 792.5 634.5 Q851 576 884.5 497.5 Q918 419 918 330 Q918 241 884.5 162.5 Q851 84 792.5 25.5 Q734 -33 655.5 -67 Q577 -101 487 -101 Q398 -101 319.5 -67 Q241 -33 182.5 25.5 Q124 84 90.5 162.5 Q57 241 57 330 Q57 419 90.5 497.5 Q124 576 182.5 634.5 Q241 693 319.5 727 Q398 761 487 761 Z M488 561 Q531 561 563 544 Q595 527 616 496.5 Q637 466 647 424 Q657 382 657 333 Q657 285 647 242.5 Q637 200 616.5 167.5 Q596 135 564 116.5 Q532 98 488 98 Q444 98 412 116.5 Q380 135 359.5 167.5 Q339 200 329.5 242.5 Q320 285 320 333 Q320 382 330 424 Q340 466 361 496.5 Q382 527 413.5 544 Q445 561 488 561 Z M487 501 Q433 501 410 455.5 Q387 410 387 333 Q387 294 392.5 262 Q398 230 410 207 Q422 184 441 171 Q460 158 487 158 Q514 158 533.5 171 Q553 184 565.5 207 Q578 230 583.5 262 Q589 294 589 333 Q589 410 565.5 455.5 Q542 501 487 501 Z M488 699 Q411 699 344 670.5 Q277 642 227.5 592.5 Q178 543 149 475.5 Q120 408 120 330 Q120 252 149 184.5 Q178 117 227.5 67.5 Q277 18 344 -10.5 Q411 -39 488 -39 Q564 -39 631.5 -10.5 Q699 18 748.5 68 Q798 118 827 185 Q856 252 856 330 Q856 408 827 475 Q798 542 748.5 592 Q699 642 631.5 670.5 Q564 699 488 699 Z " />
<glyph glyph-name="fraction" unicode="&#x2044;" horiz-adv-x="238" d="M-37 0 L-105 0 L272 660 L342 660 L-37 0 Z " />
<glyph glyph-name="onehalf" unicode="&#xbd;" horiz-adv-x="925" d="M219 304 L309 304 L309 244 L47 244 L47 304 L152 304 L152 600 L52 600 L52 660 L219 660 L219 304 Z M316 0 L248 0 L625 660 L695 660 L316 0 Z M734 424 Q764 424 789 414 Q814 404 832 387 Q850 370 860 346.5 Q870 323 870 295 Q870 272 863 251.5 Q856 231 844 211.5 Q832 192 815.5 173.5 Q799 155 781 136 L710 61 L884 61 L884 1 L591 1 L591 16 L739 175 Q768 207 785.5 234 Q803 261 803 290 Q803 320 784.5 341.5 Q766 363 734 363 Q701 363 682 341.5 Q663 320 663 287 Q663 280 663.5 272 Q664 264 665 255 L600 255 Q598 264 597 273.5 Q596 283 596 291 Q596 316 605.5 340 Q615 364 633 382.5 Q651 401 676.5 412.5 Q702 424 734 424 Z " />
<glyph glyph-name="uni2153" unicode="&#x2153;" horiz-adv-x="945" d="M219 304 L309 304 L309 244 L47 244 L47 304 L152 304 L152 600 L52 600 L52 660 L219 660 L219 304 Z M316 0 L248 0 L625 660 L695 660 L316 0 Z M895 398 L795 263 Q814 259 833.5 249.5 Q853 240 869 224.5 Q885 209 894.5 186.5 Q904 164 904 135 Q904 103 892 77 Q880 51 859.5 32.5 Q839 14 812 4 Q785 -6 755 -6 Q702 -6 666 20 Q630 46 610 84 L656 117 Q673 90 695.5 72.5 Q718 55 753 55 Q789 55 813 76.5 Q837 98 837 135 Q837 170 812.5 189 Q788 208 742 208 L700 208 L700 226 L797 357 L639 357 L639 417 L895 417 L895 398 Z " />
<glyph glyph-name="uni2154" unicode="&#x2154;" horiz-adv-x="961" d="M178 667 Q208 667 233 657 Q258 647 276 630 Q294 613 304 589.5 Q314 566 314 538 Q314 515 307 494.5 Q300 474 288 454.5 Q276 435 259.5 416.5 Q243 398 225 379 L154 304 L328 304 L328 244 L35 244 L35 259 L183 418 Q212 450 229.5 477 Q247 504 247 533 Q247 563 228.5 584.5 Q210 606 178 606 Q145 606 126 584.5 Q107 563 107 530 Q107 523 107.5 515 Q108 507 109 498 L44 498 Q42 507 41 516.5 Q40 526 40 534 Q40 559 49.5 583 Q59 607 77 625.5 Q95 644 120.5 655.5 Q146 667 178 667 Z M332 0 L264 0 L641 660 L711 660 L332 0 Z M911 398 L811 263 Q830 259 849.5 249.5 Q869 240 885 224.5 Q901 209 910.5 186.5 Q920 164 920 135 Q920 103 908 77 Q896 51 875.5 32.5 Q855 14 828 4 Q801 -6 771 -6 Q718 -6 682 20 Q646 46 626 84 L672 117 Q689 90 711.5 72.5 Q734 55 769 55 Q805 55 829 76.5 Q853 98 853 135 Q853 170 828.5 189 Q804 208 758 208 L716 208 L716 226 L813 357 L655 357 L655 417 L911 417 L911 398 Z " />
<glyph glyph-name="onequarter" unicode="&#xbc;" horiz-adv-x="887" d="M219 304 L309 304 L309 244 L47 244 L47 304 L152 304 L152 600 L52 600 L52 660 L219 660 L219 304 Z M316 0 L248 0 L625 660 L695 660 L316 0 Z M815 129 L871 129 L871 74 L815 74 L815 1 L754 1 L754 74 L547 74 L547 92 L676 417 L744 417 L627 129 L754 129 L754 259 L815 259 L815 129 Z " />
<glyph glyph-name="threequarters" unicode="&#xbe;" horiz-adv-x="853" d="M304 641 L204 506 Q223 502 242.5 492.5 Q262 483 278 467.5 Q294 452 303.5 429.5 Q313 407 313 378 Q313 346 301 320 Q289 294 268.5 275.5 Q248 257 221 247 Q194 237 164 237 Q111 237 75 263 Q39 289 19 327 L65 360 Q82 333 104.5 315.5 Q127 298 162 298 Q198 298 222 319.5 Q246 341 246 378 Q246 413 221.5 432 Q197 451 151 451 L109 451 L109 469 L206 600 L48 600 L48 660 L304 660 L304 641 Z M282 0 L214 0 L591 660 L661 660 L282 0 Z M781 129 L837 129 L837 74 L781 74 L781 1 L720 1 L720 74 L513 74 L513 92 L642 417 L710 417 L593 129 L720 129 L720 259 L781 259 L781 129 Z " />
<glyph glyph-name="uni2155" unicode="&#x2155;" horiz-adv-x="949" d="M219 304 L309 304 L309 244 L47 244 L47 304 L152 304 L152 600 L52 600 L52 660 L219 660 L219 304 Z M316 0 L248 0 L625 660 L695 660 L316 0 Z M878 357 L715 357 L715 259 Q740 265 765 265 Q793 265 819.5 257 Q846 249 865.5 233 Q885 217 897 193 Q909 169 909 137 Q909 104 897 77.5 Q885 51 864 32.5 Q843 14 815.5 4 Q788 -6 757 -6 Q704 -6 667.5 20 Q631 46 611 84 L657 117 Q674 90 697.5 72.5 Q721 55 756 55 Q793 55 817.5 76.5 Q842 98 842 134 Q842 170 817.5 189 Q793 208 746 208 L652 208 L652 417 L878 417 L878 357 Z " />
<glyph glyph-name="uni2156" unicode="&#x2156;" horiz-adv-x="965" d="M178 667 Q208 667 233 657 Q258 647 276 630 Q294 613 304 589.5 Q314 566 314 538 Q314 515 307 494.5 Q300 474 288 454.5 Q276 435 259.5 416.5 Q243 398 225 379 L154 304 L328 304 L328 244 L35 244 L35 259 L183 418 Q212 450 229.5 477 Q247 504 247 533 Q247 563 228.5 584.5 Q210 606 178 606 Q145 606 126 584.5 Q107 563 107 530 Q107 523 107.5 515 Q108 507 109 498 L44 498 Q42 507 41 516.5 Q40 526 40 534 Q40 559 49.5 583 Q59 607 77 625.5 Q95 644 120.5 655.5 Q146 667 178 667 Z M332 0 L264 0 L641 660 L711 660 L332 0 Z M894 357 L731 357 L731 259 Q756 265 781 265 Q809 265 835.5 257 Q862 249 881.5 233 Q901 217 913 193 Q925 169 925 137 Q925 104 913 77.5 Q901 51 880 32.5 Q859 14 831.5 4 Q804 -6 773 -6 Q720 -6 683.5 20 Q647 46 627 84 L673 117 Q690 90 713.5 72.5 Q737 55 772 55 Q809 55 833.5 76.5 Q858 98 858 134 Q858 170 833.5 189 Q809 208 762 208 L668 208 L668 417 L894 417 L894 357 Z " />
<glyph glyph-name="uni2157" unicode="&#x2157;" horiz-adv-x="915" d="M304 641 L204 506 Q223 502 242.5 492.5 Q262 483 278 467.5 Q294 452 303.5 429.5 Q313 407 313 378 Q313 346 301 320 Q289 294 268.5 275.5 Q248 257 221 247 Q194 237 164 237 Q111 237 75 263 Q39 289 19 327 L65 360 Q82 333 104.5 315.5 Q127 298 162 298 Q198 298 222 319.5 Q246 341 246 378 Q246 413 221.5 432 Q197 451 151 451 L109 451 L109 469 L206 600 L48 600 L48 660 L304 660 L304 641 Z M282 0 L214 0 L591 660 L661 660 L282 0 Z M844 357 L681 357 L681 259 Q706 265 731 265 Q759 265 785.5 257 Q812 249 831.5 233 Q851 217 863 193 Q875 169 875 137 Q875 104 863 77.5 Q851 51 830 32.5 Q809 14 781.5 4 Q754 -6 723 -6 Q670 -6 633.5 20 Q597 46 577 84 L623 117 Q640 90 663.5 72.5 Q687 55 722 55 Q759 55 783.5 76.5 Q808 98 808 134 Q808 170 783.5 189 Q759 208 712 208 L618 208 L618 417 L844 417 L844 357 Z " />
<glyph glyph-name="uni2158" unicode="&#x2158;" horiz-adv-x="962" d="M284 372 L340 372 L340 317 L284 317 L284 244 L223 244 L223 317 L16 317 L16 335 L145 660 L213 660 L96 372 L223 372 L223 502 L284 502 L284 372 Z M329 0 L261 0 L638 660 L708 660 L329 0 Z M891 357 L728 357 L728 259 Q753 265 778 265 Q806 265 832.5 257 Q859 249 878.5 233 Q898 217 910 193 Q922 169 922 137 Q922 104 910 77.5 Q898 51 877 32.5 Q856 14 828.5 4 Q801 -6 770 -6 Q717 -6 680.5 20 Q644 46 624 84 L670 117 Q687 90 710.5 72.5 Q734 55 769 55 Q806 55 830.5 76.5 Q855 98 855 134 Q855 170 830.5 189 Q806 208 759 208 L665 208 L665 417 L891 417 L891 357 Z " />
<glyph glyph-name="uni2159" unicode="&#x2159;" horiz-adv-x="884" d="M219 304 L309 304 L309 244 L47 244 L47 304 L152 304 L152 600 L52 600 L52 660 L219 660 L219 304 Z M316 0 L248 0 L625 660 L695 660 L316 0 Z M689 274 Q694 275 698.5 275.5 Q703 276 708 276 Q734 276 758.5 265.5 Q783 255 801.5 236.5 Q820 218 831.5 192.5 Q843 167 843 137 Q843 106 831.5 80 Q820 54 800 35 Q780 16 753.5 5 Q727 -6 697 -6 Q667 -6 641 4.5 Q615 15 595 34.5 Q575 54 563.5 80.5 Q552 107 552 139 Q552 177 567.5 206 Q583 235 608 270 L711 417 L788 417 L689 274 Z M697 221 Q663 221 640.5 196.5 Q618 172 618 137 Q618 101 640.5 78 Q663 55 697 55 Q732 55 754.5 78 Q777 101 777 137 Q777 172 754.5 196.5 Q732 221 697 221 Z " />
<glyph glyph-name="uni215A" unicode="&#x215a;" horiz-adv-x="862" d="M295 600 L132 600 L132 502 Q157 508 182 508 Q210 508 236.5 500 Q263 492 282.5 476 Q302 460 314 436 Q326 412 326 380 Q326 347 314 320.5 Q302 294 281 275.5 Q260 257 232.5 247 Q205 237 174 237 Q121 237 84.5 263 Q48 289 28 327 L74 360 Q91 333 114.5 315.5 Q138 298 173 298 Q210 298 234.5 319.5 Q259 341 259 377 Q259 413 234.5 432 Q210 451 163 451 L69 451 L69 660 L295 660 L295 600 Z M294 0 L226 0 L603 660 L673 660 L294 0 Z M667 274 Q672 275 676.5 275.5 Q681 276 686 276 Q712 276 736.5 265.5 Q761 255 779.5 236.5 Q798 218 809.5 192.5 Q821 167 821 137 Q821 106 809.5 80 Q798 54 778 35 Q758 16 731.5 5 Q705 -6 675 -6 Q645 -6 619 4.5 Q593 15 573 34.5 Q553 54 541.5 80.5 Q530 107 530 139 Q530 177 545.5 206 Q561 235 586 270 L689 417 L766 417 L667 274 Z M675 221 Q641 221 618.5 196.5 Q596 172 596 137 Q596 101 618.5 78 Q641 55 675 55 Q710 55 732.5 78 Q755 101 755 137 Q755 172 732.5 196.5 Q710 221 675 221 Z " />
<glyph glyph-name="uni2150" unicode="&#x2150;" horiz-adv-x="918" d="M219 304 L309 304 L309 244 L47 244 L47 304 L152 304 L152 600 L52 600 L52 660 L219 660 L219 304 Z M316 0 L248 0 L625 660 L695 660 L316 0 Z M900 398 L702 1 L630 1 L811 357 L619 357 L619 417 L900 417 L900 398 Z " />
<glyph glyph-name="oneeighth" unicode="&#x215b;" horiz-adv-x="928" d="M219 304 L309 304 L309 244 L47 244 L47 304 L152 304 L152 600 L52 600 L52 660 L219 660 L219 304 Z M316 0 L248 0 L625 660 L695 660 L316 0 Z M736 424 Q791 424 828.5 396.5 Q866 369 866 317 Q866 282 848 258 Q830 234 797 217 Q834 202 859.5 176.5 Q885 151 885 109 Q885 56 844 25 Q803 -6 736 -6 Q670 -6 629 25 Q588 56 588 110 Q588 150 612.5 176 Q637 202 675 217 Q643 234 625 258.5 Q607 283 607 318 Q607 369 644.5 396.5 Q682 424 736 424 Z M821 112 Q821 143 796.5 159.5 Q772 176 736 190 Q700 176 676.5 159.5 Q653 143 653 112 Q653 84 674.5 66 Q696 48 736 48 Q778 48 799.5 66 Q821 84 821 112 Z M736 371 Q707 371 687.5 356 Q668 341 668 314 Q668 288 686.5 273.5 Q705 259 736 245 Q768 258 787 273 Q806 288 806 314 Q806 341 786 356 Q766 371 736 371 Z " />
<glyph glyph-name="threeeighths" unicode="&#x215c;" horiz-adv-x="894" d="M304 641 L204 506 Q223 502 242.5 492.5 Q262 483 278 467.5 Q294 452 303.5 429.5 Q313 407 313 378 Q313 346 301 320 Q289 294 268.5 275.5 Q248 257 221 247 Q194 237 164 237 Q111 237 75 263 Q39 289 19 327 L65 360 Q82 333 104.5 315.5 Q127 298 162 298 Q198 298 222 319.5 Q246 341 246 378 Q246 413 221.5 432 Q197 451 151 451 L109 451 L109 469 L206 600 L48 600 L48 660 L304 660 L304 641 Z M282 0 L214 0 L591 660 L661 660 L282 0 Z M702 424 Q757 424 794.5 396.5 Q832 369 832 317 Q832 282 814 258 Q796 234 763 217 Q800 202 825.5 176.5 Q851 151 851 109 Q851 56 810 25 Q769 -6 702 -6 Q636 -6 595 25 Q554 56 554 110 Q554 150 578.5 176 Q603 202 641 217 Q609 234 591 258.5 Q573 283 573 318 Q573 369 610.5 396.5 Q648 424 702 424 Z M787 112 Q787 143 762.5 159.5 Q738 176 702 190 Q666 176 642.5 159.5 Q619 143 619 112 Q619 84 640.5 66 Q662 48 702 48 Q744 48 765.5 66 Q787 84 787 112 Z M702 371 Q673 371 653.5 356 Q634 341 634 314 Q634 288 652.5 273.5 Q671 259 702 245 Q734 258 753 273 Q772 288 772 314 Q772 341 752 356 Q732 371 702 371 Z " />
<glyph glyph-name="fiveeighths" unicode="&#x215d;" horiz-adv-x="906" d="M295 600 L132 600 L132 502 Q157 508 182 508 Q210 508 236.5 500 Q263 492 282.5 476 Q302 460 314 436 Q326 412 326 380 Q326 347 314 320.5 Q302 294 281 275.5 Q260 257 232.5 247 Q205 237 174 237 Q121 237 84.5 263 Q48 289 28 327 L74 360 Q91 333 114.5 315.5 Q138 298 173 298 Q210 298 234.5 319.5 Q259 341 259 377 Q259 413 234.5 432 Q210 451 163 451 L69 451 L69 660 L295 660 L295 600 Z M294 0 L226 0 L603 660 L673 660 L294 0 Z M714 424 Q769 424 806.5 396.5 Q844 369 844 317 Q844 282 826 258 Q808 234 775 217 Q812 202 837.5 176.5 Q863 151 863 109 Q863 56 822 25 Q781 -6 714 -6 Q648 -6 607 25 Q566 56 566 110 Q566 150 590.5 176 Q615 202 653 217 Q621 234 603 258.5 Q585 283 585 318 Q585 369 622.5 396.5 Q660 424 714 424 Z M799 112 Q799 143 774.5 159.5 Q750 176 714 190 Q678 176 654.5 159.5 Q631 143 631 112 Q631 84 652.5 66 Q674 48 714 48 Q756 48 777.5 66 Q799 84 799 112 Z M714 371 Q685 371 665.5 356 Q646 341 646 314 Q646 288 664.5 273.5 Q683 259 714 245 Q746 258 765 273 Q784 288 784 314 Q784 341 764 356 Q744 371 714 371 Z " />
<glyph glyph-name="seveneighths" unicode="&#x215e;" horiz-adv-x="804" d="M309 641 L111 244 L39 244 L220 600 L28 600 L28 660 L309 660 L309 641 Z M192 0 L124 0 L501 660 L571 660 L192 0 Z M612 424 Q667 424 704.5 396.5 Q742 369 742 317 Q742 282 724 258 Q706 234 673 217 Q710 202 735.5 176.5 Q761 151 761 109 Q761 56 720 25 Q679 -6 612 -6 Q546 -6 505 25 Q464 56 464 110 Q464 150 488.5 176 Q513 202 551 217 Q519 234 501 258.5 Q483 283 483 318 Q483 369 520.5 396.5 Q558 424 612 424 Z M697 112 Q697 143 672.5 159.5 Q648 176 612 190 Q576 176 552.5 159.5 Q529 143 529 112 Q529 84 550.5 66 Q572 48 612 48 Q654 48 675.5 66 Q697 84 697 112 Z M612 371 Q583 371 563.5 356 Q544 341 544 314 Q544 288 562.5 273.5 Q581 259 612 245 Q644 258 663 273 Q682 288 682 314 Q682 341 662 356 Q642 371 612 371 Z " />
<glyph glyph-name="uni2151" unicode="&#x2151;" horiz-adv-x="934" d="M219 304 L309 304 L309 244 L47 244 L47 304 L152 304 L152 600 L52 600 L52 660 L219 660 L219 304 Z M316 0 L248 0 L625 660 L695 660 L316 0 Z M748 424 Q777 424 803.5 413.5 Q830 403 849.5 383.5 Q869 364 880.5 337.5 Q892 311 892 279 Q892 241 876.5 212 Q861 183 836 148 L733 1 L656 1 L754 143 Q750 142 745.5 142 Q741 142 736 142 Q710 142 685.5 152.5 Q661 163 642.5 181.5 Q624 200 612.5 225.5 Q601 251 601 281 Q601 312 612.5 338 Q624 364 644.5 383 Q665 402 691.5 413 Q718 424 748 424 Z M748 363 Q713 363 690.5 340 Q668 317 668 281 Q668 246 690.5 221.5 Q713 197 748 197 Q782 197 804.5 221.5 Q827 246 827 281 Q827 317 804.5 340 Q782 363 748 363 Z " />
<glyph glyph-name="uni2152" unicode="&#x2152;" horiz-adv-x="1354" d="M219 304 L309 304 L309 244 L47 244 L47 304 L152 304 L152 600 L52 600 L52 660 L219 660 L219 304 Z M316 0 L248 0 L625 660 L695 660 L316 0 Z M1149 424 Q1189 424 1218.5 408 Q1248 392 1267 363.5 Q1286 335 1295 296.5 Q1304 258 1304 213 Q1304 168 1295 128 Q1286 88 1267 58.5 Q1248 29 1218.5 11.5 Q1189 -6 1149 -6 Q1109 -6 1079.5 11.5 Q1050 29 1031 58.5 Q1012 88 1002.5 128 Q993 168 993 213 Q993 258 1002.5 296.5 Q1012 335 1031 363.5 Q1050 392 1079.5 408 Q1109 424 1149 424 Z M1149 363 Q1101 363 1081 322.5 Q1061 282 1061 212 Q1061 177 1066 148 Q1071 119 1081.5 98 Q1092 77 1109 65.5 Q1126 54 1149 54 Q1197 54 1217.5 98.5 Q1238 143 1238 212 Q1238 282 1217.5 322.5 Q1197 363 1149 363 Z M810 61 L900 61 L900 1 L638 1 L638 61 L743 61 L743 357 L643 357 L643 417 L810 417 L810 61 Z " />
<glyph glyph-name="uni2080" unicode="&#x2080;" horiz-adv-x="410" d="M205 304 Q245 304 274.5 288 Q304 272 323 243.5 Q342 215 351 176.5 Q360 138 360 93 Q360 48 351 8 Q342 -32 323 -61.5 Q304 -91 274.5 -108.5 Q245 -126 205 -126 Q165 -126 135.5 -108.5 Q106 -91 87 -61.5 Q68 -32 58.5 8 Q49 48 49 93 Q49 138 58.5 176.5 Q68 215 87 243.5 Q106 272 135.5 288 Q165 304 205 304 Z M205 243 Q157 243 137 202.5 Q117 162 117 92 Q117 57 122 28 Q127 -1 137.5 -22 Q148 -43 165 -54.5 Q182 -66 205 -66 Q253 -66 273.5 -21.5 Q294 23 294 92 Q294 162 273.5 202.5 Q253 243 205 243 Z " />
<glyph glyph-name="uni2081" unicode="&#x2081;" horiz-adv-x="353" d="M219 -59 L309 -59 L309 -119 L47 -119 L47 -59 L152 -59 L152 237 L52 237 L52 297 L219 297 L219 -59 Z " />
<glyph glyph-name="uni2082" unicode="&#x2082;" horiz-adv-x="369" d="M178 304 Q208 304 233 294 Q258 284 276 267 Q294 250 304 226.5 Q314 203 314 175 Q314 152 307 131.5 Q300 111 288 91.5 Q276 72 259.5 53.5 Q243 35 225 16 L154 -59 L328 -59 L328 -119 L35 -119 L35 -104 L183 55 Q212 87 229.5 114 Q247 141 247 170 Q247 200 228.5 221.5 Q210 243 178 243 Q145 243 126 221.5 Q107 200 107 167 Q107 160 107.5 152 Q108 144 109 135 L44 135 Q42 144 41 153.5 Q40 163 40 171 Q40 196 49.5 220 Q59 244 77 262.5 Q95 281 120.5 292.5 Q146 304 178 304 Z " />
<glyph glyph-name="uni2083" unicode="&#x2083;" horiz-adv-x="354" d="M304 278 L204 143 Q223 139 242.5 129.5 Q262 120 278 104.5 Q294 89 303.5 66.5 Q313 44 313 15 Q313 -17 301 -43 Q289 -69 268.5 -87.5 Q248 -106 221 -116 Q194 -126 164 -126 Q111 -126 75 -100 Q39 -74 19 -36 L65 -3 Q82 -30 104.5 -47.5 Q127 -65 162 -65 Q198 -65 222 -43.5 Q246 -22 246 15 Q246 50 221.5 69 Q197 88 151 88 L109 88 L109 106 L206 237 L48 237 L48 297 L304 297 L304 278 Z " />
<glyph glyph-name="uni2084" unicode="&#x2084;" horiz-adv-x="356" d="M284 9 L340 9 L340 -46 L284 -46 L284 -119 L223 -119 L223 -46 L16 -46 L16 -28 L145 297 L213 297 L96 9 L223 9 L223 139 L284 139 L284 9 Z " />
<glyph glyph-name="uni2085" unicode="&#x2085;" horiz-adv-x="366" d="M295 237 L132 237 L132 139 Q157 145 182 145 Q210 145 236.5 137 Q263 129 282.5 113 Q302 97 314 73 Q326 49 326 17 Q326 -16 314 -42.5 Q302 -69 281 -87.5 Q260 -106 232.5 -116 Q205 -126 174 -126 Q121 -126 84.5 -100 Q48 -74 28 -36 L74 -3 Q91 -30 114.5 -47.5 Q138 -65 173 -65 Q210 -65 234.5 -43.5 Q259 -22 259 14 Q259 50 234.5 69 Q210 88 163 88 L69 88 L69 297 L295 297 L295 237 Z " />
<glyph glyph-name="uni2086" unicode="&#x2086;" horiz-adv-x="373" d="M178 154 Q183 155 187.5 155.5 Q192 156 197 156 Q223 156 247.5 145.5 Q272 135 290.5 116.5 Q309 98 320.5 72.5 Q332 47 332 17 Q332 -14 320.5 -40 Q309 -66 289 -85 Q269 -104 242.5 -115 Q216 -126 186 -126 Q156 -126 130 -115.5 Q104 -105 84 -85.5 Q64 -66 52.5 -39.5 Q41 -13 41 19 Q41 57 56.5 86 Q72 115 97 150 L200 297 L277 297 L178 154 Z M186 101 Q152 101 129.5 76.5 Q107 52 107 17 Q107 -19 129.5 -42 Q152 -65 186 -65 Q221 -65 243.5 -42 Q266 -19 266 17 Q266 52 243.5 76.5 Q221 101 186 101 Z " />
<glyph glyph-name="uni2087" unicode="&#x2087;" horiz-adv-x="327" d="M309 278 L111 -119 L39 -119 L220 237 L28 237 L28 297 L309 297 L309 278 Z " />
<glyph glyph-name="uni2088" unicode="&#x2088;" horiz-adv-x="382" d="M190 304 Q245 304 282.5 276.5 Q320 249 320 197 Q320 162 302 138 Q284 114 251 97 Q288 82 313.5 56.5 Q339 31 339 -11 Q339 -64 298 -95 Q257 -126 190 -126 Q124 -126 83 -95 Q42 -64 42 -10 Q42 30 66.5 56 Q91 82 129 97 Q97 114 79 138.5 Q61 163 61 198 Q61 249 98.5 276.5 Q136 304 190 304 Z M275 -8 Q275 23 250.5 39.5 Q226 56 190 70 Q154 56 130.5 39.5 Q107 23 107 -8 Q107 -36 128.5 -54 Q150 -72 190 -72 Q232 -72 253.5 -54 Q275 -36 275 -8 Z M190 251 Q161 251 141.5 236 Q122 221 122 194 Q122 168 140.5 153.5 Q159 139 190 125 Q222 138 241 153 Q260 168 260 194 Q260 221 240 236 Q220 251 190 251 Z " />
<glyph glyph-name="uni2089" unicode="&#x2089;" horiz-adv-x="373" d="M187 304 Q216 304 242.5 293.5 Q269 283 288.5 263.5 Q308 244 319.5 217.5 Q331 191 331 159 Q331 121 315.5 92 Q300 63 275 28 L172 -119 L95 -119 L193 23 Q189 22 184.5 22 Q180 22 175 22 Q149 22 124.5 32.5 Q100 43 81.5 61.5 Q63 80 51.5 105.5 Q40 131 40 161 Q40 192 51.5 218 Q63 244 83.5 263 Q104 282 130.5 293 Q157 304 187 304 Z M187 243 Q152 243 129.5 220 Q107 197 107 161 Q107 126 129.5 101.5 Q152 77 187 77 Q221 77 243.5 101.5 Q266 126 266 161 Q266 197 243.5 220 Q221 243 187 243 Z " />
<glyph glyph-name="uni2070" unicode="&#x2070;" horiz-adv-x="410" d="M205 787 Q245 787 274.5 771 Q304 755 323 726.5 Q342 698 351 659.5 Q360 621 360 576 Q360 531 351 491 Q342 451 323 421.5 Q304 392 274.5 374.5 Q245 357 205 357 Q165 357 135.5 374.5 Q106 392 87 421.5 Q68 451 58.5 491 Q49 531 49 576 Q49 621 58.5 659.5 Q68 698 87 726.5 Q106 755 135.5 771 Q165 787 205 787 Z M205 726 Q157 726 137 685.5 Q117 645 117 575 Q117 540 122 511 Q127 482 137.5 461 Q148 440 165 428.5 Q182 417 205 417 Q253 417 273.5 461.5 Q294 506 294 575 Q294 645 273.5 685.5 Q253 726 205 726 Z " />
<glyph glyph-name="uni00B9" unicode="&#xb9;" horiz-adv-x="353" d="M219 424 L309 424 L309 364 L47 364 L47 424 L152 424 L152 720 L52 720 L52 780 L219 780 L219 424 Z " />
<glyph glyph-name="uni00B2" unicode="&#xb2;" horiz-adv-x="369" d="M178 787 Q208 787 233 777 Q258 767 276 750 Q294 733 304 709.5 Q314 686 314 658 Q314 635 307 614.5 Q300 594 288 574.5 Q276 555 259.5 536.5 Q243 518 225 499 L154 424 L328 424 L328 364 L35 364 L35 379 L183 538 Q212 570 229.5 597 Q247 624 247 653 Q247 683 228.5 704.5 Q210 726 178 726 Q145 726 126 704.5 Q107 683 107 650 Q107 643 107.5 635 Q108 627 109 618 L44 618 Q42 627 41 636.5 Q40 646 40 654 Q40 679 49.5 703 Q59 727 77 745.5 Q95 764 120.5 775.5 Q146 787 178 787 Z " />
<glyph glyph-name="uni00B3" unicode="&#xb3;" horiz-adv-x="354" d="M304 761 L204 626 Q223 622 242.5 612.5 Q262 603 278 587.5 Q294 572 303.5 549.5 Q313 527 313 498 Q313 466 301 440 Q289 414 268.5 395.5 Q248 377 221 367 Q194 357 164 357 Q111 357 75 383 Q39 409 19 447 L65 480 Q82 453 104.5 435.5 Q127 418 162 418 Q198 418 222 439.5 Q246 461 246 498 Q246 533 221.5 552 Q197 571 151 571 L109 571 L109 589 L206 720 L48 720 L48 780 L304 780 L304 761 Z " />
<glyph glyph-name="uni2074" unicode="&#x2074;" horiz-adv-x="356" d="M284 492 L340 492 L340 437 L284 437 L284 364 L223 364 L223 437 L16 437 L16 455 L145 780 L213 780 L96 492 L223 492 L223 622 L284 622 L284 492 Z " />
<glyph glyph-name="uni2075" unicode="&#x2075;" horiz-adv-x="366" d="M295 720 L132 720 L132 622 Q157 628 182 628 Q210 628 236.5 620 Q263 612 282.5 596 Q302 580 314 556 Q326 532 326 500 Q326 467 314 440.5 Q302 414 281 395.5 Q260 377 232.5 367 Q205 357 174 357 Q121 357 84.5 383 Q48 409 28 447 L74 480 Q91 453 114.5 435.5 Q138 418 173 418 Q210 418 234.5 439.5 Q259 461 259 497 Q259 533 234.5 552 Q210 571 163 571 L69 571 L69 780 L295 780 L295 720 Z " />
<glyph glyph-name="uni2076" unicode="&#x2076;" horiz-adv-x="373" d="M178 637 Q183 638 187.5 638.5 Q192 639 197 639 Q223 639 247.5 628.5 Q272 618 290.5 599.5 Q309 581 320.5 555.5 Q332 530 332 500 Q332 469 320.5 443 Q309 417 289 398 Q269 379 242.5 368 Q216 357 186 357 Q156 357 130 367.5 Q104 378 84 397.5 Q64 417 52.5 443.5 Q41 470 41 502 Q41 540 56.5 569 Q72 598 97 633 L200 780 L277 780 L178 637 Z M186 584 Q152 584 129.5 559.5 Q107 535 107 500 Q107 464 129.5 441 Q152 418 186 418 Q221 418 243.5 441 Q266 464 266 500 Q266 535 243.5 559.5 Q221 584 186 584 Z " />
<glyph glyph-name="uni2077" unicode="&#x2077;" horiz-adv-x="327" d="M309 761 L111 364 L39 364 L220 720 L28 720 L28 780 L309 780 L309 761 Z " />
<glyph glyph-name="uni2078" unicode="&#x2078;" horiz-adv-x="382" d="M190 787 Q245 787 282.5 759.5 Q320 732 320 680 Q320 645 302 621 Q284 597 251 580 Q288 565 313.5 539.5 Q339 514 339 472 Q339 419 298 388 Q257 357 190 357 Q124 357 83 388 Q42 419 42 473 Q42 513 66.5 539 Q91 565 129 580 Q97 597 79 621.5 Q61 646 61 681 Q61 732 98.5 759.5 Q136 787 190 787 Z M275 475 Q275 506 250.5 522.5 Q226 539 190 553 Q154 539 130.5 522.5 Q107 506 107 475 Q107 447 128.5 429 Q150 411 190 411 Q232 411 253.5 429 Q275 447 275 475 Z M190 734 Q161 734 141.5 719 Q122 704 122 677 Q122 651 140.5 636.5 Q159 622 190 608 Q222 621 241 636 Q260 651 260 677 Q260 704 240 719 Q220 734 190 734 Z " />
<glyph glyph-name="uni2079" unicode="&#x2079;" horiz-adv-x="373" d="M187 787 Q216 787 242.5 776.5 Q269 766 288.5 746.5 Q308 727 319.5 700.5 Q331 674 331 642 Q331 604 315.5 575 Q300 546 275 511 L172 364 L95 364 L193 506 Q189 505 184.5 505 Q180 505 175 505 Q149 505 124.5 515.5 Q100 526 81.5 544.5 Q63 563 51.5 588.5 Q40 614 40 644 Q40 675 51.5 701 Q63 727 83.5 746 Q104 765 130.5 776 Q157 787 187 787 Z M187 726 Q152 726 129.5 703 Q107 680 107 644 Q107 609 129.5 584.5 Q152 560 187 560 Q221 560 243.5 584.5 Q266 609 266 644 Q266 680 243.5 703 Q221 726 187 726 Z " />
<glyph glyph-name="asterisk" unicode="&#x2a;" horiz-adv-x="410" d="M70 686 L172 636 L181 750 L229 750 L237 636 L339 686 L364 644 L269 580 L364 516 L339 475 L237 524 L229 411 L181 411 L172 525 L70 475 L46 516 L140 580 L46 644 L70 686 Z " />
<glyph glyph-name="backslash" unicode="&#x5c;" horiz-adv-x="628" d="M97 780 L620 -121 L530 -121 L7 780 L97 780 Z " />
<glyph glyph-name="periodcentered" unicode="&#xb7;" horiz-adv-x="270" d="M135 377 Q161 377 179.5 359.5 Q198 342 198 314 Q198 286 179.5 268.5 Q161 251 135 251 Q109 251 90.5 268.5 Q72 286 72 314 Q72 342 90.5 359.5 Q109 377 135 377 Z " />
<glyph glyph-name="bullet" unicode="&#x2022;" horiz-adv-x="377" d="M189 397 Q215 397 238.5 387.5 Q262 378 280 361 Q298 344 309 320 Q320 296 320 267 Q320 238 309 214.5 Q298 191 280 174 Q262 157 238.5 147.5 Q215 138 189 138 Q163 138 139 147.5 Q115 157 97 174 Q79 191 68 214.5 Q57 238 57 267 Q57 296 68 320 Q79 344 97 361 Q115 378 139 387.5 Q163 397 189 397 Z " />
<glyph glyph-name="colon" unicode="&#x3a;" horiz-adv-x="270" d="M135 492 Q161 492 179.5 474.5 Q198 457 198 429 Q198 401 179.5 383.5 Q161 366 135 366 Q109 366 90.5 383.5 Q72 401 72 429 Q72 457 90.5 474.5 Q109 492 135 492 Z M135 115 Q161 115 179.5 97.5 Q198 80 198 52 Q198 24 179.5 6.5 Q161 -11 135 -11 Q109 -11 90.5 6.5 Q72 24 72 52 Q72 80 90.5 97.5 Q109 115 135 115 Z " />
<glyph glyph-name="comma" unicode="&#x2c;" horiz-adv-x="270" d="M148 -179 L85 -179 L98 90 L189 90 L148 -179 Z " />
<glyph glyph-name="ellipsis" unicode="&#x2026;" horiz-adv-x="769" d="M385 115 Q411 115 429.5 97.5 Q448 80 448 52 Q448 24 429.5 6.5 Q411 -11 385 -11 Q359 -11 340.5 6.5 Q322 24 322 52 Q322 80 340.5 97.5 Q359 115 385 115 Z M135 115 Q161 115 179.5 97.5 Q198 80 198 52 Q198 24 179.5 6.5 Q161 -11 135 -11 Q109 -11 90.5 6.5 Q72 24 72 52 Q72 80 90.5 97.5 Q109 115 135 115 Z M634 115 Q660 115 678.5 97.5 Q697 80 697 52 Q697 24 678.5 6.5 Q660 -11 634 -11 Q608 -11 589.5 6.5 Q571 24 571 52 Q571 80 589.5 97.5 Q608 115 634 115 Z " />
<glyph glyph-name="exclam" unicode="&#x21;" horiz-adv-x="305" d="M184 209 L120 209 L105 660 L198 660 L184 209 Z M152 115 Q178 115 196.5 97.5 Q215 80 215 52 Q215 24 196.5 6.5 Q178 -11 152 -11 Q126 -11 107.5 6.5 Q89 24 89 52 Q89 80 107.5 97.5 Q126 115 152 115 Z " />
<glyph glyph-name="exclamdown" unicode="&#xa1;" horiz-adv-x="305" d="M199 -180 L105 -180 L120 278 L184 278 L199 -180 Z M152 498 Q178 498 196.5 480.5 Q215 463 215 435 Q215 406 196.5 389 Q178 372 152 372 Q126 372 107.5 389 Q89 406 89 435 Q89 463 107.5 480.5 Q126 498 152 498 Z " />
<glyph glyph-name="numbersign" unicode="&#x23;" horiz-adv-x="597" d="M221 467 L412 467 L438 660 L504 660 L478 467 L568 467 L568 401 L469 401 L449 259 L547 259 L547 193 L440 193 L414 0 L350 0 L375 193 L183 193 L157 0 L93 0 L118 193 L29 193 L29 259 L127 259 L146 401 L51 401 L51 467 L155 467 L181 660 L247 660 L221 467 Z M192 259 L384 259 L403 401 L212 401 L192 259 Z " />
<glyph glyph-name="period" unicode="&#x2e;" horiz-adv-x="270" d="M135 115 Q161 115 179.5 97.5 Q198 80 198 52 Q198 24 179.5 6.5 Q161 -11 135 -11 Q109 -11 90.5 6.5 Q72 24 72 52 Q72 80 90.5 97.5 Q109 115 135 115 Z " />
<glyph glyph-name="question" unicode="&#x3f;" horiz-adv-x="445" d="M224 671 Q260 671 292.5 658.5 Q325 646 349 624 Q373 602 387 571.5 Q401 541 401 504 Q401 454 374 416.5 Q347 379 305 342 Q272 312 253 290 Q234 268 234 241 Q234 232 235.5 224 Q237 216 239 209 L172 209 Q162 229 162 253 Q162 290 186 318.5 Q210 347 242 376 Q261 394 275.5 408.5 Q290 423 300 437 Q310 451 315.5 466 Q321 481 321 499 Q321 521 313 540 Q305 559 291.5 572 Q278 585 260 592.5 Q242 600 222 600 Q184 600 154.5 576 Q125 552 110 504 L45 531 Q65 598 111.5 634.5 Q158 671 224 671 Z M210 115 Q236 115 255 97.5 Q274 80 274 52 Q274 24 255 6.5 Q236 -11 210 -11 Q185 -11 166 6.5 Q147 24 147 52 Q147 80 166 97.5 Q185 115 210 115 Z " />
<glyph glyph-name="questiondown" unicode="&#xbf;" horiz-adv-x="444" d="M273 278 Q277 269 280 257.5 Q283 246 283 234 Q283 196 257.5 166 Q232 136 202 109 Q164 74 143.5 46 Q123 18 123 -19 Q123 -64 152 -92 Q181 -120 222 -120 Q302 -120 334 -24 L399 -51 Q380 -118 333 -154.5 Q286 -191 220 -191 Q184 -191 152 -178.5 Q120 -166 96 -143.5 Q72 -121 58 -90 Q44 -59 44 -22 Q44 31 71 69 Q98 107 139 143 Q174 175 192 197 Q210 219 210 245 Q210 255 208.5 263 Q207 271 205 278 L273 278 Z M233 498 Q259 498 277.5 480.5 Q296 463 296 435 Q296 406 277.5 388.5 Q259 371 233 371 Q207 371 188.5 388.5 Q170 406 170 435 Q170 463 188.5 480.5 Q207 498 233 498 Z " />
<glyph glyph-name="quotedbl" unicode="&#x22;" horiz-adv-x="463" d="M155 403 L94 403 L107 660 L197 660 L155 403 Z M338 403 L277 403 L290 660 L380 660 L338 403 Z " />
<glyph glyph-name="quotesingle" unicode="&#x27;" horiz-adv-x="280" d="M155 403 L94 403 L107 660 L197 660 L155 403 Z " />
<glyph glyph-name="semicolon" unicode="&#x3b;" horiz-adv-x="270" d="M135 492 Q161 492 179.5 474.5 Q198 457 198 429 Q198 401 179.5 383.5 Q161 366 135 366 Q109 366 90.5 383.5 Q72 401 72 429 Q72 457 90.5 474.5 Q109 492 135 492 Z M148 -179 L85 -179 L98 90 L189 90 L148 -179 Z " />
<glyph glyph-name="slash" unicode="&#x2f;" horiz-adv-x="628" d="M97 -121 L7 -121 L530 780 L620 780 L97 -121 Z " />
<glyph glyph-name="underscore" unicode="&#x5f;" horiz-adv-x="506" d="M462 -140 L43 -140 L43 -75 L462 -75 L462 -140 Z " />
<glyph glyph-name="uni208D" unicode="&#x208d;" horiz-adv-x="255" d="M233 377 Q211 363 190 341 Q169 319 152.5 284.5 Q136 250 126 202 Q116 154 116 88 Q116 22 126 -26 Q136 -74 152.5 -108 Q169 -142 190 -164.5 Q211 -187 233 -200 L208 -241 Q180 -222 153 -196 Q126 -170 105 -131.5 Q84 -93 71 -39.5 Q58 14 58 88 Q58 163 71 219 Q84 275 105 314.5 Q126 354 153 378.5 Q180 403 208 417 L233 377 Z " />
<glyph glyph-name="uni208E" unicode="&#x208e;" horiz-adv-x="255" d="M46 417 Q74 403 101 378.5 Q128 354 149 314.5 Q170 275 183 219 Q196 163 196 88 Q196 13 183 -42.5 Q170 -98 149 -138 Q128 -178 101 -203 Q74 -228 46 -241 L21 -200 Q43 -187 64 -164.5 Q85 -142 101.5 -108 Q118 -74 128 -26 Q138 22 138 88 Q138 154 128 202 Q118 250 101.5 284.5 Q85 319 64 341 Q43 363 21 377 L46 417 Z " />
<glyph glyph-name="braceleft" unicode="&#x7b;" horiz-adv-x="397" d="M283 -131 Q221 -131 183 -101 Q145 -71 145 2 Q145 27 149 56 Q153 85 157.5 113 Q162 141 166 165.5 Q170 190 170 207 Q170 265 110 265 L53 265 L53 333 L110 333 Q170 333 170 391 Q170 407 166 432 Q162 457 157.5 485 Q153 513 149 542 Q145 571 145 596 Q145 669 183 699 Q221 729 283 729 L346 729 L346 661 L296 661 Q259 661 238.5 641.5 Q218 622 218 577 Q218 557 222 531.5 Q226 506 231 480 Q236 454 240 429 Q244 404 244 384 Q244 349 230.5 330 Q217 311 191 299 Q217 287 230.5 268 Q244 249 244 214 Q244 194 240 169 Q236 144 231 118 Q226 92 222 67 Q218 42 218 21 Q218 -24 238.5 -43.5 Q259 -63 296 -63 L346 -63 L346 -131 L283 -131 Z " />
<glyph glyph-name="braceright" unicode="&#x7d;" horiz-adv-x="397" d="M50 -63 L100 -63 Q137 -63 157.5 -43.5 Q178 -24 178 21 Q178 42 174 67 Q170 92 165.5 118 Q161 144 157 169 Q153 194 153 214 Q153 249 166 268 Q179 287 205 299 Q179 311 166 330 Q153 349 153 384 Q153 404 157 429 Q161 454 165.5 480 Q170 506 174 531.5 Q178 557 178 577 Q178 622 158 641.5 Q138 661 100 661 L50 661 L50 729 L113 729 Q175 729 213 699 Q251 669 251 596 Q251 571 247 542 Q243 513 238.5 485 Q234 457 230 432 Q226 407 226 391 Q226 333 286 333 L343 333 L343 265 L286 265 Q226 265 226 207 Q226 190 230 165.5 Q234 141 238.5 113 Q243 85 247 56 Q251 27 251 2 Q251 -71 213 -101 Q175 -131 113 -131 L50 -131 L50 -63 Z " />
<glyph glyph-name="bracketleft" unicode="&#x5b;" horiz-adv-x="343" d="M292 661 L175 661 L175 -61 L292 -61 L292 -131 L101 -131 L101 729 L292 729 L292 661 Z " />
<glyph glyph-name="bracketright" unicode="&#x5d;" horiz-adv-x="343" d="M241 -131 L50 -131 L50 -61 L167 -61 L167 661 L50 661 L50 729 L241 729 L241 -131 Z " />
<glyph glyph-name="parenleft" unicode="&#x28;" horiz-adv-x="333" d="M305 681 Q277 663 250 634 Q223 605 201.5 560 Q180 515 167 451.5 Q154 388 154 301 Q154 214 167 150.5 Q180 87 201.5 42 Q223 -3 250 -32 Q277 -61 305 -78 L272 -131 Q236 -113 201 -81 Q166 -49 138.5 3 Q111 55 94.5 128.5 Q78 202 78 301 Q78 401 94.5 474.5 Q111 548 138.5 599.5 Q166 651 201 683.5 Q236 716 272 734 L305 681 Z " />
<glyph glyph-name="parenright" unicode="&#x29;" horiz-adv-x="333" d="M62 734 Q98 716 132.5 683.5 Q167 651 194.5 599.5 Q222 548 238.5 474.5 Q255 401 255 301 Q255 202 238.5 128.5 Q222 55 194.5 3 Q167 -49 132.5 -81 Q98 -113 62 -131 L28 -78 Q56 -61 83 -32 Q110 -3 131.5 42 Q153 87 166.5 150.5 Q180 214 180 301 Q180 388 166.5 451.5 Q153 515 131.5 560 Q110 605 83 634 Q56 663 28 681 L62 734 Z " />
<glyph glyph-name="uni207D" unicode="&#x207d;" horiz-adv-x="255" d="M233 861 Q211 847 190 825 Q169 803 152.5 768.5 Q136 734 126 686 Q116 638 116 572 Q116 506 126 458 Q136 410 152.5 376 Q169 342 190 319.5 Q211 297 233 284 L208 243 Q180 262 153 288 Q126 314 105 352.5 Q84 391 71 444.5 Q58 498 58 572 Q58 647 71 703 Q84 759 105 798.5 Q126 838 153 862.5 Q180 887 208 901 L233 861 Z " />
<glyph glyph-name="uni207E" unicode="&#x207e;" horiz-adv-x="255" d="M46 901 Q74 887 101 862.5 Q128 838 149 798.5 Q170 759 183 703 Q196 647 196 572 Q196 497 183 441.5 Q170 386 149 346 Q128 306 101 281 Q74 256 46 243 L21 284 Q43 297 64 319.5 Q85 342 101.5 376 Q118 410 128 458 Q138 506 138 572 Q138 638 128 686 Q118 734 101.5 768.5 Q85 803 64 825 Q43 847 21 861 L46 901 Z " />
<glyph glyph-name="emdash" unicode="&#x2014;" horiz-adv-x="1000" d="M950 282 L50 282 L50 347 L950 347 L950 282 Z " />
<glyph glyph-name="endash" unicode="&#x2013;" horiz-adv-x="506" d="M462 282 L43 282 L43 347 L462 347 L462 282 Z " />
<glyph glyph-name="hyphen" unicode="&#x2d;" horiz-adv-x="346" d="M292 282 L53 282 L53 347 L292 347 L292 282 Z " />
<glyph glyph-name="uni00AD" unicode="&#xad;" horiz-adv-x="346" d="M292 282 L53 282 L53 347 L292 347 L292 282 Z " />
<glyph glyph-name="uni2015" unicode="&#x2015;" horiz-adv-x="1000" d="M950 282 L50 282 L50 347 L950 347 L950 282 Z " />
<glyph glyph-name="guillemotleft" unicode="&#xab;" horiz-adv-x="504" d="M266 426 L125 271 L266 114 L215 71 L38 259 L38 282 L215 471 L266 426 Z M464 426 L323 271 L464 114 L413 71 L236 259 L236 282 L413 471 L464 426 Z " />
<glyph glyph-name="guillemotright" unicode="&#xbb;" horiz-adv-x="504" d="M267 282 L267 259 L90 71 L39 114 L180 271 L39 426 L90 471 L267 282 Z M465 282 L465 259 L288 71 L237 114 L378 271 L237 426 L288 471 L465 282 Z " />
<glyph glyph-name="guilsinglleft" unicode="&#x2039;" horiz-adv-x="306" d="M266 426 L125 271 L266 114 L215 71 L38 259 L38 282 L215 471 L266 426 Z " />
<glyph glyph-name="guilsinglright" unicode="&#x203a;" horiz-adv-x="306" d="M267 282 L267 259 L90 71 L39 114 L180 271 L39 426 L90 471 L267 282 Z " />
<glyph glyph-name="quotedblbase" unicode="&#x201e;" horiz-adv-x="463" d="M155 -167 L94 -167 L107 90 L197 90 L155 -167 Z M338 -167 L277 -167 L290 90 L380 90 L338 -167 Z " />
<glyph glyph-name="quotedblleft" unicode="&#x201c;" horiz-adv-x="463" d="M173 403 L83 403 L126 660 L186 660 L173 403 Z M356 403 L266 403 L309 660 L369 660 L356 403 Z " />
<glyph glyph-name="quotedblright" unicode="&#x201d;" horiz-adv-x="463" d="M338 403 L277 403 L290 660 L380 660 L338 403 Z M155 403 L94 403 L107 660 L197 660 L155 403 Z " />
<glyph glyph-name="quoteleft" unicode="&#x2018;" horiz-adv-x="280" d="M173 403 L83 403 L126 660 L186 660 L173 403 Z " />
<glyph glyph-name="quoteright" unicode="&#x2019;" horiz-adv-x="280" d="M155 403 L94 403 L107 660 L197 660 L155 403 Z " />
<glyph glyph-name="quotesinglbase" unicode="&#x201a;" horiz-adv-x="280" d="M155 -167 L94 -167 L107 90 L197 90 L155 -167 Z " />
<glyph glyph-name="space" unicode="&#x20;" horiz-adv-x="280" d="" />
<glyph glyph-name="uni2009" unicode="&#x2009;" horiz-adv-x="147" d="" />
<glyph glyph-name="A" unicode="A" horiz-adv-x="663" d="M633 0 L549 0 L492 134 L170 134 L114 0 L31 0 L318 671 L346 671 L633 0 Z M199 204 L463 204 L332 527 L199 204 Z " />
<glyph glyph-name="Euro" unicode="&#x20ac;" horiz-adv-x="681" d="M428 217 L197 217 Q221 146 275.5 103.5 Q330 61 411 61 Q467 61 508 83 Q549 105 577 142 L632 97 Q597 47 540 18 Q483 -11 408 -11 Q352 -11 304.5 5.5 Q257 22 219.5 52 Q182 82 155 124 Q128 166 113 217 L5 217 L5 285 L100 285 Q99 296 98.5 307 Q98 318 98 330 Q98 341 98.5 350.5 Q99 360 100 371 L7 371 L7 439 L112 439 Q126 490 153 533 Q180 576 218 606.5 Q256 637 304 654 Q352 671 408 671 Q483 671 540 642 Q597 613 632 563 L577 518 Q549 555 508 577 Q467 599 411 599 Q330 599 275 555 Q220 511 196 439 L487 439 L470 371 L181 371 Q179 360 179 350.5 Q179 341 179 330 Q179 318 179.5 307 Q180 296 181 285 L445 285 L428 217 Z " />
<glyph glyph-name="cent" unicode="&#xa2;" horiz-adv-x="554" d="M317 581 Q374 575 418 547 Q462 519 491 476 L438 433 Q414 464 384.5 484 Q355 504 317 509 L317 146 Q355 151 384.5 171 Q414 191 437 223 L490 179 Q461 135 417 107 Q373 79 317 74 L317 -94 L240 -94 L240 78 Q196 87 158.5 109 Q121 131 94 164 Q67 197 51.5 239 Q36 281 36 328 Q36 374 51.5 415.5 Q67 457 94 490 Q121 523 158.5 545.5 Q196 568 240 577 L240 750 L317 750 L317 581 Z M115 328 Q115 264 149 216 Q183 168 240 151 L240 503 Q183 486 149 438.5 Q115 391 115 328 Z " />
<glyph glyph-name="currency" unicode="&#xa4;" horiz-adv-x="643" d="M321 556 Q359 556 393.5 545 Q428 534 457 514 L569 625 L616 579 L505 468 Q528 439 541 404 Q554 369 554 330 Q554 291 541.5 256 Q529 221 506 192 L615 82 L570 36 L458 147 Q429 127 393.5 115.5 Q358 104 320 104 Q282 104 248 115.5 Q214 127 185 147 L74 36 L27 82 L137 192 Q114 221 102 255.5 Q90 290 90 330 Q90 369 102 404 Q114 439 137 468 L27 579 L74 625 L185 514 Q214 534 248.5 545 Q283 556 321 556 Z M322 486 Q289 486 260.5 474 Q232 462 212 441 Q192 420 180.5 391 Q169 362 169 329 Q169 296 180.5 268 Q192 240 212 219.5 Q232 199 260 187 Q288 175 321 175 Q354 175 382 187 Q410 199 431 219.5 Q452 240 463.5 268 Q475 296 475 329 Q475 363 463 391.5 Q451 420 430.5 441 Q410 462 382 474 Q354 486 322 486 Z " />
<glyph glyph-name="dollar" unicode="&#x24;" horiz-adv-x="536" d="M306 633 Q360 625 397.5 596.5 Q435 568 460 526 L406 485 Q384 517 360 536 Q336 555 306 561 L306 361 L327 353 Q392 326 432.5 287 Q473 248 473 186 Q473 152 460.5 123.5 Q448 95 425.5 74 Q403 53 372.5 40 Q342 27 306 23 L306 -94 L229 -94 L229 24 Q165 34 117.5 70 Q70 106 40 161 L96 201 Q120 160 152.5 132 Q185 104 229 94 L229 317 L223 320 Q196 331 170.5 345.5 Q145 360 125.5 379 Q106 398 94.5 423 Q83 448 83 481 Q83 512 94 537 Q105 562 124.5 581.5 Q144 601 171 613.5 Q198 626 229 631 L229 750 L306 750 L306 633 Z M395 185 Q395 222 370 244 Q345 266 306 284 L306 93 Q344 100 369.5 123.5 Q395 147 395 185 Z M161 482 Q161 448 180.5 429 Q200 410 229 395 L229 559 Q201 552 181 533.5 Q161 515 161 482 Z " />
<glyph glyph-name="florin" unicode="&#x192;" horiz-adv-x="443" d="M380 330 L267 330 L229 24 Q219 -59 176 -96 Q133 -133 63 -133 Q46 -133 32 -131 Q18 -129 5 -126 L5 -61 Q30 -64 49 -64 Q94 -64 120 -44 Q146 -24 153 30 L190 330 L113 330 L113 399 L199 399 L213 513 Q223 596 266 633.5 Q309 671 379 671 Q411 671 437 663 L437 599 Q424 600 413 600.5 Q402 601 392 601 Q347 601 321.5 581 Q296 561 289 508 L275 399 L380 399 L380 330 Z " />
<glyph glyph-name="uni20B4" unicode="&#x20b4;" horiz-adv-x="542" d="M520 222 L164 222 Q150 200 150 170 Q150 119 185 90 Q220 61 275 61 Q337 61 383 94 Q429 127 458 173 L515 131 Q480 67 417 28 Q354 -11 274 -11 Q231 -11 193.5 1.5 Q156 14 128.5 37.5 Q101 61 85 94.5 Q69 128 69 169 Q69 184 71 197 Q73 210 77 222 L22 222 L22 286 L120 286 Q141 305 167.5 321 Q194 337 225 354 L252 369 L23 369 L23 433 L355 433 Q369 445 376.5 461.5 Q384 478 384 501 Q384 527 373.5 545.5 Q363 564 346.5 576 Q330 588 309.5 593.5 Q289 599 268 599 Q223 599 187 576.5 Q151 554 125 518 L70 559 Q99 610 150.5 640.5 Q202 671 270 671 Q311 671 346.5 659.5 Q382 648 408 626 Q434 604 449 573 Q464 542 464 503 Q464 462 447 433 L520 433 L520 369 L384 369 Q368 358 350.5 347.5 Q333 337 315 326 L262 295 L246 286 L520 286 L520 222 Z " />
<glyph glyph-name="lira" unicode="&#x20a4;" horiz-adv-x="529" d="M395 173 L264 173 Q253 110 208 68 L484 68 L484 0 L57 0 L57 20 Q105 49 140 87 Q175 125 186 173 L66 173 L66 241 L187 241 Q183 263 175.5 283.5 Q168 304 157 324 L66 324 L66 392 L123 392 Q112 415 105 441 Q98 467 98 496 Q98 535 112 567.5 Q126 600 151.5 623 Q177 646 212 658.5 Q247 671 289 671 Q365 671 417.5 629 Q470 587 493 508 L424 482 Q407 537 375.5 568 Q344 599 293 599 Q265 599 243.5 590 Q222 581 207.5 565 Q193 549 185.5 528.5 Q178 508 178 484 Q178 459 185 436.5 Q192 414 203 392 L395 392 L395 324 L239 324 Q248 304 255.5 284 Q263 264 266 241 L395 241 L395 173 Z " />
<glyph glyph-name="peseta" unicode="&#x20a7;" horiz-adv-x="590" d="M591 421 L507 421 Q501 383 483 352.5 Q465 322 436.5 299.5 Q408 277 370 265 Q332 253 286 253 L184 253 L184 0 L106 0 L106 421 L24 421 L24 489 L106 489 L106 660 L286 660 Q380 660 438 612.5 Q496 565 507 489 L591 489 L591 421 Z M184 590 L184 488 L426 488 Q417 537 381 563.5 Q345 590 285 590 L184 590 Z M285 323 Q344 323 380 348.5 Q416 374 426 422 L184 422 L184 323 L285 323 Z " />
<glyph glyph-name="sterling" unicode="&#xa3;" horiz-adv-x="529" d="M404 244 L265 244 Q268 229 268 212 Q268 169 252.5 131.5 Q237 94 208 68 L484 68 L484 0 L57 0 L57 20 Q114 55 152 102 Q190 149 190 211 Q190 227 187 244 L66 244 L66 312 L163 312 Q153 333 141.5 354 Q130 375 120.5 397.5 Q111 420 104.5 444 Q98 468 98 496 Q98 535 112 567.5 Q126 600 151.5 623 Q177 646 212 658.5 Q247 671 289 671 Q365 671 417.5 629 Q470 587 493 508 L424 482 Q407 537 375.5 568 Q344 599 293 599 Q265 599 243.5 590 Q222 581 207.5 565 Q193 549 185.5 528.5 Q178 508 178 484 Q178 460 184.5 439 Q191 418 201 397 Q211 376 222.5 355 Q234 334 244 312 L404 312 L404 244 Z " />
<glyph glyph-name="uni20AE" unicode="&#x20ae;" horiz-adv-x="581" d="M512 245 L329 176 L329 0 L251 0 L251 146 L70 78 L70 152 L251 220 L251 309 L70 241 L70 314 L251 382 L251 590 L19 590 L19 660 L561 660 L561 590 L329 590 L329 411 L512 480 L512 407 L329 338 L329 249 L512 318 L512 245 Z " />
<glyph glyph-name="uni20B8" unicode="&#x20b8;" horiz-adv-x="581" d="M561 434 L329 434 L329 0 L251 0 L251 434 L19 434 L19 504 L561 504 L561 434 Z M561 590 L19 590 L19 660 L561 660 L561 590 Z " />
<glyph glyph-name="uni20B9" unicode="&#x20b9;" horiz-adv-x="513" d="M439 443 L363 443 Q355 367 300 322.5 Q245 278 153 277 L439 0 L341 0 L55 277 L55 345 L147 345 Q207 345 240.5 370.5 Q274 396 282 443 L53 443 L53 511 L278 511 Q267 549 234 570.5 Q201 592 147 592 L55 592 L55 660 L439 660 L439 592 L320 592 Q352 558 361 511 L439 511 L439 443 Z " />
<glyph glyph-name="uni20BA" unicode="&#x20ba;" horiz-adv-x="518" d="M387 355 L200 268 L200 62 Q240 65 278.5 76.5 Q317 88 347 108.5 Q377 129 395 159.5 Q413 190 413 231 Q413 242 411.5 258.5 Q410 275 408 290 L474 290 Q483 258 483 225 Q483 162 456 117.5 Q429 73 380.5 44.5 Q332 16 266 2.5 Q200 -11 122 -11 L122 232 L25 188 L25 261 L122 305 L122 395 L25 351 L25 424 L122 468 L122 660 L200 660 L200 503 L387 589 L387 516 L200 430 L200 341 L387 428 L387 355 Z " />
<glyph glyph-name="uni20BD" unicode="&#x20bd;" horiz-adv-x="576" d="M328 660 Q374 660 411 646.5 Q448 633 474.5 609 Q501 585 515 551.5 Q529 518 529 477 Q529 436 514.5 402.5 Q500 369 474 345 Q448 321 411 308 Q374 295 328 295 L183 295 L183 202 L448 202 L448 134 L183 134 L183 0 L105 0 L105 134 L24 134 L24 202 L105 202 L105 295 L24 295 L24 363 L105 363 L105 660 L328 660 Z M184 592 L184 363 L327 363 Q388 363 420.5 394 Q453 425 453 476 Q453 527 420.5 559.5 Q388 592 327 592 L184 592 Z " />
<glyph glyph-name="yen" unicode="&#xa5;" horiz-adv-x="552" d="M511 131 L316 131 L316 0 L238 0 L238 131 L44 131 L44 200 L238 200 L238 292 L44 292 L44 360 L219 360 L9 660 L97 660 L277 401 L456 660 L544 660 L333 360 L511 360 L511 292 L316 292 L316 200 L511 200 L511 131 Z " />
<glyph glyph-name="approxequal" unicode="&#x2248;" horiz-adv-x="560" d="M154 509 Q194 509 238 482 L332 425 Q351 414 365.5 407 Q380 400 394 400 Q413 400 422.5 413 Q432 426 432 444 L432 463 L495 463 Q496 460 496.5 452 Q497 444 497 436 Q497 391 471 360.5 Q445 330 400 330 Q361 330 317 356 L223 413 Q205 424 190.5 431.5 Q176 439 162 439 Q143 439 133.5 426.5 Q124 414 124 394 L124 375 L60 375 Q60 378 59.5 386 Q59 394 59 402 Q59 445 84.5 477 Q110 509 154 509 Z M154 297 Q194 297 238 270 L332 213 Q351 202 365.5 195 Q380 188 394 188 Q413 188 422.5 201 Q432 214 432 232 L432 251 L495 251 Q496 248 496.5 240 Q497 232 497 224 Q497 179 471 148.5 Q445 118 400 118 Q361 118 317 144 L223 201 Q205 212 190.5 219.5 Q176 227 162 227 Q143 227 133.5 214.5 Q124 202 124 182 L124 163 L60 163 Q60 166 59.5 174 Q59 182 59 190 Q59 233 84.5 265 Q110 297 154 297 Z " />
<glyph glyph-name="asciitilde" unicode="&#x7e;" horiz-adv-x="560" d="M156 403 Q196 403 240 376 L334 319 Q353 308 367.5 301 Q382 294 396 294 Q415 294 424.5 307 Q434 320 434 338 L434 357 L497 357 Q498 354 498.5 346 Q499 338 499 330 Q499 285 473 254.5 Q447 224 402 224 Q363 224 319 250 L225 307 Q207 318 192.5 325.5 Q178 333 164 333 Q145 333 135.5 320.5 Q126 308 126 288 L126 269 L62 269 Q62 272 61.5 280 Q61 288 61 296 Q61 339 86.5 371 Q112 403 156 403 Z " />
<glyph glyph-name="uni2219" unicode="&#x2219;" horiz-adv-x="270" d="M135 377 Q161 377 179.5 359.5 Q198 342 198 314 Q198 286 179.5 268.5 Q161 251 135 251 Q109 251 90.5 268.5 Q72 286 72 314 Q72 342 90.5 359.5 Q109 377 135 377 Z " />
<glyph glyph-name="divide" unicode="&#xf7;" horiz-adv-x="560" d="M278 545 Q301 545 317 529.5 Q333 514 333 491 Q333 469 317 453.5 Q301 438 278 438 Q255 438 239 453.5 Q223 469 223 491 Q223 514 239 529.5 Q255 545 278 545 Z M278 188 Q301 188 317 173 Q333 158 333 135 Q333 113 317 97.5 Q301 82 278 82 Q255 82 239 97.5 Q223 113 223 135 Q223 158 239 173 Q255 188 278 188 Z M502 281 L56 281 L56 349 L502 349 L502 281 Z " />
<glyph glyph-name="equal" unicode="&#x3d;" horiz-adv-x="560" d="M493 384 L66 384 L66 453 L493 453 L493 384 Z M493 177 L66 177 L66 245 L493 245 L493 177 Z " />
<glyph glyph-name="uni207C" unicode="&#x207c;" horiz-adv-x="427" d="M49 680 L377 680 L377 623 L49 623 L49 680 Z M49 522 L377 522 L377 465 L49 465 L49 522 Z " />
<glyph glyph-name="greater" unicode="&#x3e;" horiz-adv-x="560" d="M508 327 L508 303 L70 116 L70 189 L372 315 L70 442 L70 514 L508 327 Z " />
<glyph glyph-name="greaterequal" unicode="&#x2265;" horiz-adv-x="560" d="M508 355 L508 333 L70 161 L70 234 L363 344 L70 454 L70 527 L508 355 Z M497 0 L70 0 L70 68 L497 68 L497 0 Z " />
<glyph glyph-name="uni2206" unicode="&#x2206;" horiz-adv-x="663" d="M633 0 L31 0 L318 671 L346 671 L633 0 Z M142 70 L520 70 L331 518 L142 70 Z " />
</font>
</svg>
