<?xml version="1.0" encoding="UTF-8"?>
<svg xmlns="http://www.w3.org/2000/svg" xmlns:xlink="http://www.w3.org/1999/xlink" version="1.2" >
<font id="Cera Light">
<font-face  font-family="Cera" units-per-em="1000" ascent="808" descent="-192" font-style="normal" font-weight="300" font-stretch="normal" cap-height="660" x-height="480" underline-position="-78" underline-thickness="44" />
<missing-glyph  horiz-adv-x="704" d="M607 0 L98 0 L98 660 L607 660 L607 0 Z M138 621 L564 39 L564 621 L138 621 Z " />
<glyph glyph-name="Aacute" unicode="&#xc1;" horiz-adv-x="664" d="M626 0 L571 0 L505 157 L159 157 L94 0 L39 0 L322 670 L343 670 L626 0 Z M179 204 L485 204 L332 576 L179 204 Z M465 901 L352 724 L312 724 L403 910 L465 910 L465 901 Z " />
<glyph glyph-name="Abreve" unicode="&#x102;" horiz-adv-x="664" d="M626 0 L571 0 L505 157 L159 157 L94 0 L39 0 L322 670 L343 670 L626 0 Z M179 204 L485 204 L332 576 L179 204 Z M475 887 Q475 857 464 830.5 Q453 804 434 785 Q415 766 389 755 Q363 744 333 744 Q302 744 276 755 Q250 766 231 785 Q212 804 201 830.5 Q190 857 190 887 L235 887 Q235 839 263 812.5 Q291 786 333 786 Q374 786 402 812.5 Q430 839 430 887 L475 887 Z " />
<glyph glyph-name="Acircumflex" unicode="&#xc2;" horiz-adv-x="664" d="M626 0 L571 0 L505 157 L159 157 L94 0 L39 0 L322 670 L343 670 L626 0 Z M179 204 L485 204 L332 576 L179 204 Z M493 724 L451 724 L332 853 L213 724 L171 724 L317 910 L347 910 L493 724 Z " />
<glyph glyph-name="Adieresis" unicode="&#xc4;" horiz-adv-x="664" d="M626 0 L571 0 L505 157 L159 157 L94 0 L39 0 L322 670 L343 670 L626 0 Z M179 204 L485 204 L332 576 L179 204 Z M445 850 Q463 850 475.5 837.5 Q488 825 488 807 Q488 790 475.5 777.5 Q463 765 445 765 Q428 765 415 777.5 Q402 790 402 807 Q402 825 415 837.5 Q428 850 445 850 Z M219 850 Q237 850 249.5 838 Q262 826 262 808 Q262 790 249.5 777.5 Q237 765 219 765 Q202 765 189 777.5 Q176 790 176 808 Q176 826 189 838 Q202 850 219 850 Z " />
<glyph glyph-name="Agrave" unicode="&#xc0;" horiz-adv-x="664" d="M626 0 L571 0 L505 157 L159 157 L94 0 L39 0 L322 670 L343 670 L626 0 Z M179 204 L485 204 L332 576 L179 204 Z M353 724 L313 724 L200 901 L200 910 L262 910 L353 724 Z " />
<glyph glyph-name="Amacron" unicode="&#x100;" horiz-adv-x="664" d="M626 0 L571 0 L505 157 L159 157 L94 0 L39 0 L322 670 L343 670 L626 0 Z M179 204 L485 204 L332 576 L179 204 Z M474 777 L192 777 L192 820 L474 820 L474 777 Z " />
<glyph glyph-name="Aogonek" unicode="&#x104;" horiz-adv-x="664" d="M626 0 L571 0 L505 157 L159 157 L94 0 L39 0 L322 670 L343 670 L626 0 Z M179 204 L485 204 L332 576 L179 204 Z M625 0 L571 -35 Q543 -53 526.5 -67 Q510 -81 510 -103 Q510 -124 525.5 -136 Q541 -148 567 -148 Q580 -148 595.5 -145.5 Q611 -143 625 -140 L625 -180 Q611 -184 594 -187 Q577 -190 559 -190 Q517 -190 488 -169 Q459 -148 459 -110 Q459 -92 467 -76 Q475 -60 493 -44 Q511 -28 539 -11 Q567 6 606 27 L625 0 Z " />
<glyph glyph-name="Aring" unicode="&#xc5;" horiz-adv-x="664" d="M626 0 L571 0 L505 157 L159 157 L94 0 L39 0 L322 670 L343 670 L626 0 Z M179 204 L485 204 L332 576 L179 204 Z M332 912 Q354 912 373 904 Q392 896 406 882.5 Q420 869 428 850 Q436 831 436 810 Q436 789 428 770 Q420 751 406 737.5 Q392 724 373 716 Q354 708 332 708 Q311 708 292 716 Q273 724 259 737.5 Q245 751 237 770 Q229 789 229 810 Q229 831 237 850 Q245 869 259 882.5 Q273 896 292 904 Q311 912 332 912 Z M333 871 Q307 871 289.5 853.5 Q272 836 272 810 Q272 784 289.5 766.5 Q307 749 333 749 Q358 749 375.5 766.5 Q393 784 393 810 Q393 836 375.5 853.5 Q358 871 333 871 Z " />
<glyph glyph-name="Atilde" unicode="&#xc3;" horiz-adv-x="664" d="M626 0 L571 0 L505 157 L159 157 L94 0 L39 0 L322 670 L343 670 L626 0 Z M179 204 L485 204 L332 576 L179 204 Z M256 867 Q276 867 292 859 Q308 851 324 840 L360 816 Q373 807 383 801 Q393 795 405 795 Q422 795 429.5 807.5 Q437 820 437 837 L437 857 L481 857 Q482 852 482 846.5 Q482 841 482 835 Q482 802 464.5 775.5 Q447 749 411 749 Q391 749 374.5 757 Q358 765 342 776 L307 799 Q293 808 283 814 Q273 820 262 820 Q245 820 237.5 807 Q230 794 230 778 L230 759 L185 759 Q184 764 184 769 Q184 774 184 781 Q184 814 202 840.5 Q220 867 256 867 Z " />
<glyph glyph-name="AE" unicode="&#xc6;" horiz-adv-x="807" d="M675 333 L470 333 L520 47 L767 47 L767 0 L474 0 L447 158 L155 158 L73 0 L17 0 L361 660 L755 660 L755 613 L421 613 L462 380 L675 380 L675 333 Z M180 205 L439 205 L374 583 L180 205 Z " />
<glyph glyph-name="AEacute" unicode="&#x1fc;" horiz-adv-x="807" d="M675 333 L470 333 L520 47 L767 47 L767 0 L474 0 L447 158 L155 158 L73 0 L17 0 L361 660 L755 660 L755 613 L421 613 L462 380 L675 380 L675 333 Z M180 205 L439 205 L374 583 L180 205 Z M535 901 L422 724 L382 724 L473 910 L535 910 L535 901 Z " />
<glyph glyph-name="B" unicode="B" horiz-adv-x="613" d="M322 660 Q365 660 398 648 Q431 636 453.5 614 Q476 592 488 562.5 Q500 533 500 499 Q500 455 480.5 420 Q461 385 424 365 Q493 349 529.5 301.5 Q566 254 566 188 Q566 148 552.5 114 Q539 80 512.5 54.5 Q486 29 447.5 14.5 Q409 0 360 0 L98 0 L98 660 L322 660 Z M150 332 L150 47 L355 47 Q433 47 472.5 87.5 Q512 128 512 189 Q512 219 502 245 Q492 271 472 290.5 Q452 310 423 321 Q394 332 355 332 L150 332 Z M150 613 L150 379 L317 379 Q383 379 414.5 412 Q446 445 446 496 Q446 548 414.5 581 Q383 614 317 614 L150 613 Z " />
<glyph glyph-name="C" unicode="C" horiz-adv-x="712" d="M391 670 Q476 670 545 633.5 Q614 597 658 536 L619 505 Q580 559 522 590.5 Q464 622 392 622 Q331 622 279 599.5 Q227 577 188.5 538 Q150 499 128.5 446 Q107 393 107 331 Q107 269 128.5 215.5 Q150 162 188.5 123 Q227 84 279 61.5 Q331 39 392 39 Q464 39 522 70 Q580 101 619 155 L658 124 Q615 63 545.5 26.5 Q476 -10 391 -10 Q320 -10 258.5 16 Q197 42 151 88 Q105 134 79 196 Q53 258 53 330 Q53 402 79.5 464.5 Q106 527 151.5 572.5 Q197 618 258.5 644 Q320 670 391 670 Z " />
<glyph glyph-name="Cacute" unicode="&#x106;" horiz-adv-x="712" d="M391 670 Q476 670 545 633.5 Q614 597 658 536 L619 505 Q580 559 522 590.5 Q464 622 392 622 Q331 622 279 599.5 Q227 577 188.5 538 Q150 499 128.5 446 Q107 393 107 331 Q107 269 128.5 215.5 Q150 162 188.5 123 Q227 84 279 61.5 Q331 39 392 39 Q464 39 522 70 Q580 101 619 155 L658 124 Q615 63 545.5 26.5 Q476 -10 391 -10 Q320 -10 258.5 16 Q197 42 151 88 Q105 134 79 196 Q53 258 53 330 Q53 402 79.5 464.5 Q106 527 151.5 572.5 Q197 618 258.5 644 Q320 670 391 670 Z M524 901 L411 724 L371 724 L462 910 L524 910 L524 901 Z " />
<glyph glyph-name="Ccaron" unicode="&#x10c;" horiz-adv-x="712" d="M391 670 Q476 670 545 633.5 Q614 597 658 536 L619 505 Q580 559 522 590.5 Q464 622 392 622 Q331 622 279 599.5 Q227 577 188.5 538 Q150 499 128.5 446 Q107 393 107 331 Q107 269 128.5 215.5 Q150 162 188.5 123 Q227 84 279 61.5 Q331 39 392 39 Q464 39 522 70 Q580 101 619 155 L658 124 Q615 63 545.5 26.5 Q476 -10 391 -10 Q320 -10 258.5 16 Q197 42 151 88 Q105 134 79 196 Q53 258 53 330 Q53 402 79.5 464.5 Q106 527 151.5 572.5 Q197 618 258.5 644 Q320 670 391 670 Z M406 724 L376 724 L230 910 L272 910 L391 780 L510 910 L552 910 L406 724 Z " />
<glyph glyph-name="Ccedilla" unicode="&#xc7;" horiz-adv-x="712" d="M391 670 Q476 670 545 633.5 Q614 597 658 536 L619 505 Q580 559 522 590.5 Q464 622 392 622 Q331 622 279 599.5 Q227 577 188.5 538 Q150 499 128.5 446 Q107 393 107 331 Q107 269 128.5 215.5 Q150 162 188.5 123 Q227 84 279 61.5 Q331 39 392 39 Q464 39 522 70 Q580 101 619 155 L658 124 Q615 63 545.5 26.5 Q476 -10 391 -10 Q320 -10 258.5 16 Q197 42 151 88 Q105 134 79 196 Q53 258 53 330 Q53 402 79.5 464.5 Q106 527 151.5 572.5 Q197 618 258.5 644 Q320 670 391 670 Z M393 19 Q424 5 444 -21 Q464 -47 464 -82 Q464 -104 456 -123.5 Q448 -143 432.5 -158 Q417 -173 394.5 -181.5 Q372 -190 344 -190 Q327 -190 310 -187.5 Q293 -185 277 -180 L277 -141 Q294 -145 310 -146.5 Q326 -148 337 -148 Q369 -148 393 -131 Q417 -114 417 -76 Q417 -48 404 -29 Q391 -10 374 4 L393 19 Z " />
<glyph glyph-name="Ccircumflex" unicode="&#x108;" horiz-adv-x="712" d="M391 670 Q476 670 545 633.5 Q614 597 658 536 L619 505 Q580 559 522 590.5 Q464 622 392 622 Q331 622 279 599.5 Q227 577 188.5 538 Q150 499 128.5 446 Q107 393 107 331 Q107 269 128.5 215.5 Q150 162 188.5 123 Q227 84 279 61.5 Q331 39 392 39 Q464 39 522 70 Q580 101 619 155 L658 124 Q615 63 545.5 26.5 Q476 -10 391 -10 Q320 -10 258.5 16 Q197 42 151 88 Q105 134 79 196 Q53 258 53 330 Q53 402 79.5 464.5 Q106 527 151.5 572.5 Q197 618 258.5 644 Q320 670 391 670 Z M552 724 L510 724 L391 853 L272 724 L230 724 L376 910 L406 910 L552 724 Z " />
<glyph glyph-name="Cdotaccent" unicode="&#x10a;" horiz-adv-x="712" d="M391 670 Q476 670 545 633.5 Q614 597 658 536 L619 505 Q580 559 522 590.5 Q464 622 392 622 Q331 622 279 599.5 Q227 577 188.5 538 Q150 499 128.5 446 Q107 393 107 331 Q107 269 128.5 215.5 Q150 162 188.5 123 Q227 84 279 61.5 Q331 39 392 39 Q464 39 522 70 Q580 101 619 155 L658 124 Q615 63 545.5 26.5 Q476 -10 391 -10 Q320 -10 258.5 16 Q197 42 151 88 Q105 134 79 196 Q53 258 53 330 Q53 402 79.5 464.5 Q106 527 151.5 572.5 Q197 618 258.5 644 Q320 670 391 670 Z M392 851 Q411 851 423.5 838.5 Q436 826 436 808 Q436 789 423.5 776.5 Q411 764 392 764 Q374 764 361 776.5 Q348 789 348 808 Q348 826 361 838.5 Q374 851 392 851 Z " />
<glyph glyph-name="D" unicode="D" horiz-adv-x="696" d="M285 660 Q371 660 438 635 Q505 610 550.5 566 Q596 522 619.5 462 Q643 402 643 331 Q643 261 619.5 200.5 Q596 140 550.5 95.5 Q505 51 438 25.5 Q371 0 285 0 L98 0 L98 660 L285 660 Z M150 613 L150 47 L284 47 Q358 47 415 69.5 Q472 92 510.5 130.5 Q549 169 569 220.5 Q589 272 589 331 Q589 391 569 442.5 Q549 494 510.5 532 Q472 570 415 591.5 Q358 613 284 613 L150 613 Z " />
<glyph glyph-name="Eth" unicode="&#xd0;" horiz-adv-x="696" d="M285 660 Q371 660 438 635 Q505 610 550.5 566 Q596 522 619.5 462 Q643 402 643 331 Q643 261 619.5 200.5 Q596 140 550.5 95.5 Q505 51 438 25.5 Q371 0 285 0 L98 0 L98 281 L-1 281 L-1 326 L98 326 L98 660 L285 660 Z M150 613 L150 326 L292 326 L292 281 L150 281 L150 47 L284 47 Q358 47 415 69.5 Q472 92 510.5 130.5 Q549 169 569 220.5 Q589 272 589 331 Q589 391 569 442.5 Q549 494 510.5 532 Q472 570 415 591.5 Q358 613 284 613 L150 613 Z " />
<glyph glyph-name="Dcaron" unicode="&#x10e;" horiz-adv-x="696" d="M285 660 Q371 660 438 635 Q505 610 550.5 566 Q596 522 619.5 462 Q643 402 643 331 Q643 261 619.5 200.5 Q596 140 550.5 95.5 Q505 51 438 25.5 Q371 0 285 0 L98 0 L98 660 L285 660 Z M150 613 L150 47 L284 47 Q358 47 415 69.5 Q472 92 510.5 130.5 Q549 169 569 220.5 Q589 272 589 331 Q589 391 569 442.5 Q549 494 510.5 532 Q472 570 415 591.5 Q358 613 284 613 L150 613 Z M297 724 L267 724 L121 910 L163 910 L282 780 L401 910 L443 910 L297 724 Z " />
<glyph glyph-name="Dcroat" unicode="&#x110;" horiz-adv-x="696" d="M285 660 Q371 660 438 635 Q505 610 550.5 566 Q596 522 619.5 462 Q643 402 643 331 Q643 261 619.5 200.5 Q596 140 550.5 95.5 Q505 51 438 25.5 Q371 0 285 0 L98 0 L98 281 L-1 281 L-1 326 L98 326 L98 660 L285 660 Z M150 613 L150 326 L292 326 L292 281 L150 281 L150 47 L284 47 Q358 47 415 69.5 Q472 92 510.5 130.5 Q549 169 569 220.5 Q589 272 589 331 Q589 391 569 442.5 Q549 494 510.5 532 Q472 570 415 591.5 Q358 613 284 613 L150 613 Z " />
<glyph glyph-name="E" unicode="E" horiz-adv-x="563" d="M512 613 L150 613 L150 380 L431 380 L431 333 L150 333 L150 47 L524 47 L524 0 L98 0 L98 660 L512 660 L512 613 Z " />
<glyph glyph-name="Eacute" unicode="&#xc9;" horiz-adv-x="563" d="M512 613 L150 613 L150 380 L431 380 L431 333 L150 333 L150 47 L524 47 L524 0 L98 0 L98 660 L512 660 L512 613 Z M434 901 L321 724 L281 724 L372 910 L434 910 L434 901 Z " />
<glyph glyph-name="Ebreve" unicode="&#x114;" horiz-adv-x="563" d="M512 613 L150 613 L150 380 L431 380 L431 333 L150 333 L150 47 L524 47 L524 0 L98 0 L98 660 L512 660 L512 613 Z M444 887 Q444 857 433 830.5 Q422 804 403 785 Q384 766 358 755 Q332 744 302 744 Q271 744 245 755 Q219 766 200 785 Q181 804 170 830.5 Q159 857 159 887 L204 887 Q204 839 232 812.5 Q260 786 302 786 Q343 786 371 812.5 Q399 839 399 887 L444 887 Z " />
<glyph glyph-name="Ecaron" unicode="&#x11a;" horiz-adv-x="563" d="M512 613 L150 613 L150 380 L431 380 L431 333 L150 333 L150 47 L524 47 L524 0 L98 0 L98 660 L512 660 L512 613 Z M316 724 L286 724 L140 910 L182 910 L301 780 L420 910 L462 910 L316 724 Z " />
<glyph glyph-name="Ecircumflex" unicode="&#xca;" horiz-adv-x="563" d="M512 613 L150 613 L150 380 L431 380 L431 333 L150 333 L150 47 L524 47 L524 0 L98 0 L98 660 L512 660 L512 613 Z M462 724 L420 724 L301 853 L182 724 L140 724 L286 910 L316 910 L462 724 Z " />
<glyph glyph-name="Edieresis" unicode="&#xcb;" horiz-adv-x="563" d="M512 613 L150 613 L150 380 L431 380 L431 333 L150 333 L150 47 L524 47 L524 0 L98 0 L98 660 L512 660 L512 613 Z M414 850 Q432 850 444.5 837.5 Q457 825 457 807 Q457 790 444.5 777.5 Q432 765 414 765 Q397 765 384 777.5 Q371 790 371 807 Q371 825 384 837.5 Q397 850 414 850 Z M188 850 Q206 850 218.5 838 Q231 826 231 808 Q231 790 218.5 777.5 Q206 765 188 765 Q171 765 158 777.5 Q145 790 145 808 Q145 826 158 838 Q171 850 188 850 Z " />
<glyph glyph-name="Edotaccent" unicode="&#x116;" horiz-adv-x="563" d="M512 613 L150 613 L150 380 L431 380 L431 333 L150 333 L150 47 L524 47 L524 0 L98 0 L98 660 L512 660 L512 613 Z M302 851 Q321 851 333.5 838.5 Q346 826 346 808 Q346 789 333.5 776.5 Q321 764 302 764 Q284 764 271 776.5 Q258 789 258 808 Q258 826 271 838.5 Q284 851 302 851 Z " />
<glyph glyph-name="Egrave" unicode="&#xc8;" horiz-adv-x="563" d="M512 613 L150 613 L150 380 L431 380 L431 333 L150 333 L150 47 L524 47 L524 0 L98 0 L98 660 L512 660 L512 613 Z M322 724 L282 724 L169 901 L169 910 L231 910 L322 724 Z " />
<glyph glyph-name="Emacron" unicode="&#x112;" horiz-adv-x="563" d="M512 613 L150 613 L150 380 L431 380 L431 333 L150 333 L150 47 L524 47 L524 0 L98 0 L98 660 L512 660 L512 613 Z M443 777 L161 777 L161 820 L443 820 L443 777 Z " />
<glyph glyph-name="Eogonek" unicode="&#x118;" horiz-adv-x="563" d="M512 613 L150 613 L150 380 L431 380 L431 333 L150 333 L150 47 L524 47 L524 0 L98 0 L98 660 L512 660 L512 613 Z M523 0 L469 -35 Q441 -53 424.5 -67 Q408 -81 408 -103 Q408 -124 423.5 -136 Q439 -148 465 -148 Q478 -148 493.5 -145.5 Q509 -143 523 -140 L523 -180 Q509 -184 492 -187 Q475 -190 457 -190 Q415 -190 386 -169 Q357 -148 357 -110 Q357 -92 365 -76 Q373 -60 391 -44 Q409 -28 437 -11 Q465 6 504 27 L523 0 Z " />
<glyph glyph-name="F" unicode="F" horiz-adv-x="518" d="M502 613 L150 613 L150 358 L443 358 L443 311 L150 311 L150 0 L98 0 L98 660 L502 660 L502 613 Z " />
<glyph glyph-name="G" unicode="G" horiz-adv-x="745" d="M391 670 Q474 670 542 635 Q610 600 655 539 L616 508 Q578 561 520.5 591.5 Q463 622 391 622 Q330 622 278 599.5 Q226 577 188 538 Q150 499 128.5 445.5 Q107 392 107 331 Q107 269 128.5 215.5 Q150 162 188 122.5 Q226 83 279 60.5 Q332 38 394 38 Q473 38 535.5 73 Q598 108 634 168 L634 277 L390 277 L390 325 L686 325 L686 157 Q642 79 563.5 34.5 Q485 -10 391 -10 Q320 -10 258 16.5 Q196 43 150.5 88.5 Q105 134 79 196 Q53 258 53 330 Q53 402 79 464.5 Q105 527 151 572.5 Q197 618 258.5 644 Q320 670 391 670 Z " />
<glyph glyph-name="Gbreve" unicode="&#x11e;" horiz-adv-x="745" d="M391 670 Q474 670 542 635 Q610 600 655 539 L616 508 Q578 561 520.5 591.5 Q463 622 391 622 Q330 622 278 599.5 Q226 577 188 538 Q150 499 128.5 445.5 Q107 392 107 331 Q107 269 128.5 215.5 Q150 162 188 122.5 Q226 83 279 60.5 Q332 38 394 38 Q473 38 535.5 73 Q598 108 634 168 L634 277 L390 277 L390 325 L686 325 L686 157 Q642 79 563.5 34.5 Q485 -10 391 -10 Q320 -10 258 16.5 Q196 43 150.5 88.5 Q105 134 79 196 Q53 258 53 330 Q53 402 79 464.5 Q105 527 151 572.5 Q197 618 258.5 644 Q320 670 391 670 Z M534 887 Q534 857 523 830.5 Q512 804 493 785 Q474 766 448 755 Q422 744 392 744 Q361 744 335 755 Q309 766 290 785 Q271 804 260 830.5 Q249 857 249 887 L294 887 Q294 839 322 812.5 Q350 786 392 786 Q433 786 461 812.5 Q489 839 489 887 L534 887 Z " />
<glyph glyph-name="Gcircumflex" unicode="&#x11c;" horiz-adv-x="745" d="M391 670 Q474 670 542 635 Q610 600 655 539 L616 508 Q578 561 520.5 591.5 Q463 622 391 622 Q330 622 278 599.5 Q226 577 188 538 Q150 499 128.5 445.5 Q107 392 107 331 Q107 269 128.5 215.5 Q150 162 188 122.5 Q226 83 279 60.5 Q332 38 394 38 Q473 38 535.5 73 Q598 108 634 168 L634 277 L390 277 L390 325 L686 325 L686 157 Q642 79 563.5 34.5 Q485 -10 391 -10 Q320 -10 258 16.5 Q196 43 150.5 88.5 Q105 134 79 196 Q53 258 53 330 Q53 402 79 464.5 Q105 527 151 572.5 Q197 618 258.5 644 Q320 670 391 670 Z M552 724 L510 724 L391 853 L272 724 L230 724 L376 910 L406 910 L552 724 Z " />
<glyph glyph-name="Gcommaaccent" unicode="&#x122;" horiz-adv-x="745" d="M391 670 Q474 670 542 635 Q610 600 655 539 L616 508 Q578 561 520.5 591.5 Q463 622 391 622 Q330 622 278 599.5 Q226 577 188 538 Q150 499 128.5 445.5 Q107 392 107 331 Q107 269 128.5 215.5 Q150 162 188 122.5 Q226 83 279 60.5 Q332 38 394 38 Q473 38 535.5 73 Q598 108 634 168 L634 277 L390 277 L390 325 L686 325 L686 157 Q642 79 563.5 34.5 Q485 -10 391 -10 Q320 -10 258 16.5 Q196 43 150.5 88.5 Q105 134 79 196 Q53 258 53 330 Q53 402 79 464.5 Q105 527 151 572.5 Q197 618 258.5 644 Q320 670 391 670 Z M394 -220 L353 -220 L365 -51 L418 -51 L394 -220 Z " />
<glyph glyph-name="Gdotaccent" unicode="&#x120;" horiz-adv-x="745" d="M391 670 Q474 670 542 635 Q610 600 655 539 L616 508 Q578 561 520.5 591.5 Q463 622 391 622 Q330 622 278 599.5 Q226 577 188 538 Q150 499 128.5 445.5 Q107 392 107 331 Q107 269 128.5 215.5 Q150 162 188 122.5 Q226 83 279 60.5 Q332 38 394 38 Q473 38 535.5 73 Q598 108 634 168 L634 277 L390 277 L390 325 L686 325 L686 157 Q642 79 563.5 34.5 Q485 -10 391 -10 Q320 -10 258 16.5 Q196 43 150.5 88.5 Q105 134 79 196 Q53 258 53 330 Q53 402 79 464.5 Q105 527 151 572.5 Q197 618 258.5 644 Q320 670 391 670 Z M392 851 Q411 851 423.5 838.5 Q436 826 436 808 Q436 789 423.5 776.5 Q411 764 392 764 Q374 764 361 776.5 Q348 789 348 808 Q348 826 361 838.5 Q374 851 392 851 Z " />
<glyph glyph-name="H" unicode="H" horiz-adv-x="706" d="M609 0 L557 0 L557 333 L150 333 L150 0 L98 0 L98 660 L150 660 L150 380 L557 380 L557 660 L609 660 L609 0 Z " />
<glyph glyph-name="Hbar" unicode="&#x126;" horiz-adv-x="714" d="M612 516 L715 516 L715 471 L612 471 L612 0 L560 0 L560 272 L154 272 L154 0 L102 0 L102 471 L-1 471 L-1 516 L102 516 L102 660 L154 660 L154 516 L560 516 L560 660 L612 660 L612 516 Z M153 471 L153 319 L560 319 L560 471 L153 471 Z " />
<glyph glyph-name="Hcircumflex" unicode="&#x124;" horiz-adv-x="706" d="M609 0 L557 0 L557 333 L150 333 L150 0 L98 0 L98 660 L150 660 L150 380 L557 380 L557 660 L609 660 L609 0 Z M513 724 L471 724 L352 853 L233 724 L191 724 L337 910 L367 910 L513 724 Z " />
<glyph glyph-name="I" unicode="I" horiz-adv-x="247" d="M150 0 L98 0 L98 660 L150 660 L150 0 Z " />
<glyph glyph-name="IJ" unicode="&#x132;" horiz-adv-x="613" d="M150 0 L98 0 L98 660 L150 660 L150 0 Z M515 143 Q515 102 503 73 Q491 44 469.5 25.5 Q448 7 419 -1.5 Q390 -10 356 -10 Q334 -10 313.5 -7.5 Q293 -5 274 0 L274 46 Q312 39 349 39 Q373 39 394 43.5 Q415 48 430 60 Q445 72 454 92.5 Q463 113 463 146 L463 660 L515 660 L515 143 Z " />
<glyph glyph-name="Iacute" unicode="&#xcd;" horiz-adv-x="247" d="M150 0 L98 0 L98 660 L150 660 L150 0 Z M256 901 L143 724 L103 724 L194 910 L256 910 L256 901 Z " />
<glyph glyph-name="Ibreve" unicode="&#x12c;" horiz-adv-x="247" d="M150 0 L98 0 L98 660 L150 660 L150 0 Z M267 887 Q267 857 256 830.5 Q245 804 226 785 Q207 766 181 755 Q155 744 125 744 Q94 744 68 755 Q42 766 23 785 Q4 804 -7 830.5 Q-18 857 -18 887 L27 887 Q27 839 55 812.5 Q83 786 125 786 Q166 786 194 812.5 Q222 839 222 887 L267 887 Z " />
<glyph glyph-name="Icircumflex" unicode="&#xce;" horiz-adv-x="247" d="M150 0 L98 0 L98 660 L150 660 L150 0 Z M285 724 L243 724 L124 853 L5 724 L-37 724 L109 910 L139 910 L285 724 Z " />
<glyph glyph-name="Idieresis" unicode="&#xcf;" horiz-adv-x="247" d="M150 0 L98 0 L98 660 L150 660 L150 0 Z M237 850 Q255 850 267.5 837.5 Q280 825 280 807 Q280 790 267.5 777.5 Q255 765 237 765 Q220 765 207 777.5 Q194 790 194 807 Q194 825 207 837.5 Q220 850 237 850 Z M11 850 Q29 850 41.5 838 Q54 826 54 808 Q54 790 41.5 777.5 Q29 765 11 765 Q-6 765 -19 777.5 Q-32 790 -32 808 Q-32 826 -19 838 Q-6 850 11 850 Z " />
<glyph glyph-name="Idotaccent" unicode="&#x130;" horiz-adv-x="247" d="M150 0 L98 0 L98 660 L150 660 L150 0 Z M124 851 Q143 851 155.5 838.5 Q168 826 168 808 Q168 789 155.5 776.5 Q143 764 124 764 Q106 764 93 776.5 Q80 789 80 808 Q80 826 93 838.5 Q106 851 124 851 Z " />
<glyph glyph-name="Igrave" unicode="&#xcc;" horiz-adv-x="247" d="M150 0 L98 0 L98 660 L150 660 L150 0 Z M145 724 L105 724 L-8 901 L-8 910 L54 910 L145 724 Z " />
<glyph glyph-name="Imacron" unicode="&#x12a;" horiz-adv-x="247" d="M150 0 L98 0 L98 660 L150 660 L150 0 Z M266 777 L-16 777 L-16 820 L266 820 L266 777 Z " />
<glyph glyph-name="Iogonek" unicode="&#x12e;" horiz-adv-x="247" d="M150 0 L98 0 L98 660 L150 660 L150 0 Z M151 0 L97 -35 Q69 -53 52.5 -67 Q36 -81 36 -103 Q36 -124 51.5 -136 Q67 -148 93 -148 Q106 -148 121.5 -145.5 Q137 -143 151 -140 L151 -180 Q137 -184 120 -187 Q103 -190 85 -190 Q43 -190 14 -169 Q-15 -148 -15 -110 Q-15 -92 -7 -76 Q1 -60 19 -44 Q37 -28 65 -11 Q93 6 132 27 L151 0 Z " />
<glyph glyph-name="Itilde" unicode="&#x128;" horiz-adv-x="247" d="M150 0 L98 0 L98 660 L150 660 L150 0 Z M48 867 Q68 867 84 859 Q100 851 116 840 L152 816 Q165 807 175 801 Q185 795 197 795 Q214 795 221.5 807.5 Q229 820 229 837 L229 857 L273 857 Q274 852 274 846.5 Q274 841 274 835 Q274 802 256.5 775.5 Q239 749 203 749 Q183 749 166.5 757 Q150 765 134 776 L99 799 Q85 808 75 814 Q65 820 54 820 Q37 820 29.5 807 Q22 794 22 778 L22 759 L-23 759 Q-24 764 -24 769 Q-24 774 -24 781 Q-24 814 -6 840.5 Q12 867 48 867 Z " />
<glyph glyph-name="J" unicode="J" horiz-adv-x="366" d="M268 143 Q268 102 256 73 Q244 44 222.5 25.5 Q201 7 172 -1.5 Q143 -10 109 -10 Q87 -10 66.5 -7.5 Q46 -5 27 0 L27 46 Q65 39 102 39 Q126 39 147 43.5 Q168 48 183 60 Q198 72 207 92.5 Q216 113 216 146 L216 660 L268 660 L268 143 Z " />
<glyph glyph-name="Jcircumflex" unicode="&#x134;" horiz-adv-x="366" d="M268 143 Q268 102 256 73 Q244 44 222.5 25.5 Q201 7 172 -1.5 Q143 -10 109 -10 Q87 -10 66.5 -7.5 Q46 -5 27 0 L27 46 Q65 39 102 39 Q126 39 147 43.5 Q168 48 183 60 Q198 72 207 92.5 Q216 113 216 146 L216 660 L268 660 L268 143 Z M397 724 L355 724 L236 853 L117 724 L75 724 L221 910 L251 910 L397 724 Z " />
<glyph glyph-name="K" unicode="K" horiz-adv-x="613" d="M233 356 L577 0 L509 0 L164 357 L483 660 L553 660 L233 356 Z M150 0 L98 0 L98 660 L150 660 L150 0 Z " />
<glyph glyph-name="Kcommaaccent" unicode="&#x136;" horiz-adv-x="613" d="M233 356 L577 0 L509 0 L164 357 L483 660 L553 660 L233 356 Z M150 0 L98 0 L98 660 L150 660 L150 0 Z M293 -220 L252 -220 L264 -51 L317 -51 L293 -220 Z " />
<glyph glyph-name="L" unicode="L" horiz-adv-x="499" d="M150 47 L475 47 L475 0 L98 0 L98 660 L150 660 L150 47 Z " />
<glyph glyph-name="Lacute" unicode="&#x139;" horiz-adv-x="499" d="M150 47 L475 47 L475 0 L98 0 L98 660 L150 660 L150 47 Z M256 901 L143 724 L103 724 L194 910 L256 910 L256 901 Z " />
<glyph glyph-name="Lcaron" unicode="&#x13d;" horiz-adv-x="499" d="M150 47 L475 47 L475 0 L98 0 L98 660 L150 660 L150 47 Z M406 511 L366 511 L383 721 L441 721 L406 511 Z " />
<glyph glyph-name="Lcommaaccent" unicode="&#x13b;" horiz-adv-x="499" d="M150 47 L475 47 L475 0 L98 0 L98 660 L150 660 L150 47 Z M283 -220 L242 -220 L254 -51 L307 -51 L283 -220 Z " />
<glyph glyph-name="Ldot" unicode="&#x13f;" horiz-adv-x="499" d="M150 47 L475 47 L475 0 L98 0 L98 660 L150 660 L150 47 Z M374 413 Q394 413 409 399.5 Q424 386 424 363 Q424 341 409 328 Q394 315 374 315 Q355 315 340 328 Q325 341 325 363 Q325 386 340 399.5 Q355 413 374 413 Z " />
<glyph glyph-name="Lslash" unicode="&#x141;" horiz-adv-x="499" d="M150 345 L382 450 L382 401 L150 296 L150 47 L475 47 L475 0 L98 0 L98 276 L17 239 L17 288 L98 325 L98 660 L150 660 L150 345 Z " />
<glyph glyph-name="M" unicode="M" horiz-adv-x="785" d="M688 0 L636 0 L636 537 L404 206 L383 206 L150 537 L150 0 L98 0 L98 670 L119 670 L393 277 L667 670 L688 670 L688 0 Z " />
<glyph glyph-name="N" unicode="N" horiz-adv-x="706" d="M557 107 L557 660 L609 660 L609 -10 L588 -10 L150 550 L150 0 L98 0 L98 670 L119 670 L557 107 Z " />
<glyph glyph-name="Nacute" unicode="&#x143;" horiz-adv-x="706" d="M557 107 L557 660 L609 660 L609 -10 L588 -10 L150 550 L150 0 L98 0 L98 670 L119 670 L557 107 Z M485 901 L372 724 L332 724 L423 910 L485 910 L485 901 Z " />
<glyph glyph-name="Ncaron" unicode="&#x147;" horiz-adv-x="706" d="M557 107 L557 660 L609 660 L609 -10 L588 -10 L150 550 L150 0 L98 0 L98 670 L119 670 L557 107 Z M367 724 L337 724 L191 910 L233 910 L352 780 L471 910 L513 910 L367 724 Z " />
<glyph glyph-name="Ncommaaccent" unicode="&#x145;" horiz-adv-x="706" d="M557 107 L557 660 L609 660 L609 -10 L588 -10 L150 550 L150 0 L98 0 L98 670 L119 670 L557 107 Z M355 -220 L314 -220 L326 -51 L379 -51 L355 -220 Z " />
<glyph glyph-name="Eng" unicode="&#x14a;" horiz-adv-x="706" d="M557 85 L557 660 L609 660 L609 -45 Q609 -84 598 -112 Q587 -140 567 -157 Q547 -174 520 -182 Q493 -190 462 -190 Q432 -190 407 -184 L407 -140 Q430 -144 454 -144 Q476 -144 495 -139.5 Q514 -135 527.5 -123.5 Q541 -112 549 -92.5 Q557 -73 557 -43 L557 1 L150 544 L150 0 L98 0 L98 670 L119 670 L557 85 Z " />
<glyph glyph-name="Ntilde" unicode="&#xd1;" horiz-adv-x="706" d="M557 107 L557 660 L609 660 L609 -10 L588 -10 L150 550 L150 0 L98 0 L98 670 L119 670 L557 107 Z M276 867 Q296 867 312 859 Q328 851 344 840 L380 816 Q393 807 403 801 Q413 795 425 795 Q442 795 449.5 807.5 Q457 820 457 837 L457 857 L501 857 Q502 852 502 846.5 Q502 841 502 835 Q502 802 484.5 775.5 Q467 749 431 749 Q411 749 394.5 757 Q378 765 362 776 L327 799 Q313 808 303 814 Q293 820 282 820 Q265 820 257.5 807 Q250 794 250 778 L250 759 L205 759 Q204 764 204 769 Q204 774 204 781 Q204 814 222 840.5 Q240 867 276 867 Z " />
<glyph glyph-name="O" unicode="O" horiz-adv-x="783" d="M390 670 Q460 670 522 644 Q584 618 630 572.5 Q676 527 702.5 464.5 Q729 402 729 330 Q729 258 702.5 196 Q676 134 630 88 Q584 42 522 16 Q460 -10 390 -10 Q319 -10 258 16.5 Q197 43 151 88.5 Q105 134 79 196 Q53 258 53 330 Q53 402 79.5 464.5 Q106 527 151.5 572.5 Q197 618 258.5 644 Q320 670 390 670 Z M392 622 Q331 622 279 599.5 Q227 577 189 538 Q151 499 129.5 446 Q108 393 108 331 Q108 269 129.5 215.5 Q151 162 189 123 Q227 84 279 61.5 Q331 39 392 39 Q452 39 504 61.5 Q556 84 594 123 Q632 162 653.5 215.5 Q675 269 675 331 Q675 392 653.5 445.5 Q632 499 594 538 Q556 577 504 599.5 Q452 622 392 622 Z " />
<glyph glyph-name="Oacute" unicode="&#xd3;" horiz-adv-x="783" d="M390 670 Q460 670 522 644 Q584 618 630 572.5 Q676 527 702.5 464.5 Q729 402 729 330 Q729 258 702.5 196 Q676 134 630 88 Q584 42 522 16 Q460 -10 390 -10 Q319 -10 258 16.5 Q197 43 151 88.5 Q105 134 79 196 Q53 258 53 330 Q53 402 79.5 464.5 Q106 527 151.5 572.5 Q197 618 258.5 644 Q320 670 390 670 Z M392 622 Q331 622 279 599.5 Q227 577 189 538 Q151 499 129.5 446 Q108 393 108 331 Q108 269 129.5 215.5 Q151 162 189 123 Q227 84 279 61.5 Q331 39 392 39 Q452 39 504 61.5 Q556 84 594 123 Q632 162 653.5 215.5 Q675 269 675 331 Q675 392 653.5 445.5 Q632 499 594 538 Q556 577 504 599.5 Q452 622 392 622 Z M524 901 L411 724 L371 724 L462 910 L524 910 L524 901 Z " />
<glyph glyph-name="Obreve" unicode="&#x14e;" horiz-adv-x="783" d="M390 670 Q460 670 522 644 Q584 618 630 572.5 Q676 527 702.5 464.5 Q729 402 729 330 Q729 258 702.5 196 Q676 134 630 88 Q584 42 522 16 Q460 -10 390 -10 Q319 -10 258 16.5 Q197 43 151 88.5 Q105 134 79 196 Q53 258 53 330 Q53 402 79.5 464.5 Q106 527 151.5 572.5 Q197 618 258.5 644 Q320 670 390 670 Z M392 622 Q331 622 279 599.5 Q227 577 189 538 Q151 499 129.5 446 Q108 393 108 331 Q108 269 129.5 215.5 Q151 162 189 123 Q227 84 279 61.5 Q331 39 392 39 Q452 39 504 61.5 Q556 84 594 123 Q632 162 653.5 215.5 Q675 269 675 331 Q675 392 653.5 445.5 Q632 499 594 538 Q556 577 504 599.5 Q452 622 392 622 Z M534 887 Q534 857 523 830.5 Q512 804 493 785 Q474 766 448 755 Q422 744 392 744 Q361 744 335 755 Q309 766 290 785 Q271 804 260 830.5 Q249 857 249 887 L294 887 Q294 839 322 812.5 Q350 786 392 786 Q433 786 461 812.5 Q489 839 489 887 L534 887 Z " />
<glyph glyph-name="Ocircumflex" unicode="&#xd4;" horiz-adv-x="783" d="M390 670 Q460 670 522 644 Q584 618 630 572.5 Q676 527 702.5 464.5 Q729 402 729 330 Q729 258 702.5 196 Q676 134 630 88 Q584 42 522 16 Q460 -10 390 -10 Q319 -10 258 16.5 Q197 43 151 88.5 Q105 134 79 196 Q53 258 53 330 Q53 402 79.5 464.5 Q106 527 151.5 572.5 Q197 618 258.5 644 Q320 670 390 670 Z M392 622 Q331 622 279 599.5 Q227 577 189 538 Q151 499 129.5 446 Q108 393 108 331 Q108 269 129.5 215.5 Q151 162 189 123 Q227 84 279 61.5 Q331 39 392 39 Q452 39 504 61.5 Q556 84 594 123 Q632 162 653.5 215.5 Q675 269 675 331 Q675 392 653.5 445.5 Q632 499 594 538 Q556 577 504 599.5 Q452 622 392 622 Z M552 724 L510 724 L391 853 L272 724 L230 724 L376 910 L406 910 L552 724 Z " />
<glyph glyph-name="Odieresis" unicode="&#xd6;" horiz-adv-x="783" d="M390 670 Q460 670 522 644 Q584 618 630 572.5 Q676 527 702.5 464.5 Q729 402 729 330 Q729 258 702.5 196 Q676 134 630 88 Q584 42 522 16 Q460 -10 390 -10 Q319 -10 258 16.5 Q197 43 151 88.5 Q105 134 79 196 Q53 258 53 330 Q53 402 79.5 464.5 Q106 527 151.5 572.5 Q197 618 258.5 644 Q320 670 390 670 Z M392 622 Q331 622 279 599.5 Q227 577 189 538 Q151 499 129.5 446 Q108 393 108 331 Q108 269 129.5 215.5 Q151 162 189 123 Q227 84 279 61.5 Q331 39 392 39 Q452 39 504 61.5 Q556 84 594 123 Q632 162 653.5 215.5 Q675 269 675 331 Q675 392 653.5 445.5 Q632 499 594 538 Q556 577 504 599.5 Q452 622 392 622 Z M504 850 Q522 850 534.5 837.5 Q547 825 547 807 Q547 790 534.5 777.5 Q522 765 504 765 Q487 765 474 777.5 Q461 790 461 807 Q461 825 474 837.5 Q487 850 504 850 Z M278 850 Q296 850 308.5 838 Q321 826 321 808 Q321 790 308.5 777.5 Q296 765 278 765 Q261 765 248 777.5 Q235 790 235 808 Q235 826 248 838 Q261 850 278 850 Z " />
<glyph glyph-name="Ograve" unicode="&#xd2;" horiz-adv-x="783" d="M390 670 Q460 670 522 644 Q584 618 630 572.5 Q676 527 702.5 464.5 Q729 402 729 330 Q729 258 702.5 196 Q676 134 630 88 Q584 42 522 16 Q460 -10 390 -10 Q319 -10 258 16.5 Q197 43 151 88.5 Q105 134 79 196 Q53 258 53 330 Q53 402 79.5 464.5 Q106 527 151.5 572.5 Q197 618 258.5 644 Q320 670 390 670 Z M392 622 Q331 622 279 599.5 Q227 577 189 538 Q151 499 129.5 446 Q108 393 108 331 Q108 269 129.5 215.5 Q151 162 189 123 Q227 84 279 61.5 Q331 39 392 39 Q452 39 504 61.5 Q556 84 594 123 Q632 162 653.5 215.5 Q675 269 675 331 Q675 392 653.5 445.5 Q632 499 594 538 Q556 577 504 599.5 Q452 622 392 622 Z M412 724 L372 724 L259 901 L259 910 L321 910 L412 724 Z " />
<glyph glyph-name="Ohungarumlaut" unicode="&#x150;" horiz-adv-x="783" d="M390 670 Q460 670 522 644 Q584 618 630 572.5 Q676 527 702.5 464.5 Q729 402 729 330 Q729 258 702.5 196 Q676 134 630 88 Q584 42 522 16 Q460 -10 390 -10 Q319 -10 258 16.5 Q197 43 151 88.5 Q105 134 79 196 Q53 258 53 330 Q53 402 79.5 464.5 Q106 527 151.5 572.5 Q197 618 258.5 644 Q320 670 390 670 Z M392 622 Q331 622 279 599.5 Q227 577 189 538 Q151 499 129.5 446 Q108 393 108 331 Q108 269 129.5 215.5 Q151 162 189 123 Q227 84 279 61.5 Q331 39 392 39 Q452 39 504 61.5 Q556 84 594 123 Q632 162 653.5 215.5 Q675 269 675 331 Q675 392 653.5 445.5 Q632 499 594 538 Q556 577 504 599.5 Q452 622 392 622 Z M594 901 L485 724 L446 724 L537 910 L594 910 L594 901 Z M428 901 L319 724 L280 724 L371 910 L428 910 L428 901 Z " />
<glyph glyph-name="Omacron" unicode="&#x14c;" horiz-adv-x="783" d="M390 670 Q460 670 522 644 Q584 618 630 572.5 Q676 527 702.5 464.5 Q729 402 729 330 Q729 258 702.5 196 Q676 134 630 88 Q584 42 522 16 Q460 -10 390 -10 Q319 -10 258 16.5 Q197 43 151 88.5 Q105 134 79 196 Q53 258 53 330 Q53 402 79.5 464.5 Q106 527 151.5 572.5 Q197 618 258.5 644 Q320 670 390 670 Z M392 622 Q331 622 279 599.5 Q227 577 189 538 Q151 499 129.5 446 Q108 393 108 331 Q108 269 129.5 215.5 Q151 162 189 123 Q227 84 279 61.5 Q331 39 392 39 Q452 39 504 61.5 Q556 84 594 123 Q632 162 653.5 215.5 Q675 269 675 331 Q675 392 653.5 445.5 Q632 499 594 538 Q556 577 504 599.5 Q452 622 392 622 Z M533 777 L251 777 L251 820 L533 820 L533 777 Z " />
<glyph glyph-name="Oslash" unicode="&#xd8;" horiz-adv-x="783" d="M390 670 Q455 670 512.5 648 Q570 626 615 586 L702 674 L735 641 L647 553 Q685 508 707 452 Q729 396 729 330 Q729 258 702.5 196 Q676 134 630 88 Q584 42 522 16 Q460 -10 390 -10 Q325 -10 269 12 Q213 34 168 73 L81 -14 L48 19 L135 106 Q97 151 75 207.5 Q53 264 53 330 Q53 402 79.5 464.5 Q106 527 151.5 572.5 Q197 618 258.5 644 Q320 670 390 670 Z M391 623 Q330 623 278 600.5 Q226 578 187.5 539 Q149 500 127.5 446.5 Q106 393 106 331 Q106 275 122.5 227 Q139 179 170 141 L580 552 Q543 585 495 604 Q447 623 391 623 Z M676 331 Q676 385 659 432.5 Q642 480 612 518 L202 107 Q239 74 286.5 55.5 Q334 37 391 37 Q452 37 504 59.5 Q556 82 594.5 121.5 Q633 161 654.5 215 Q676 269 676 331 Z " />
<glyph glyph-name="Oslashacute" unicode="&#x1fe;" horiz-adv-x="783" d="M390 670 Q455 670 512.5 648 Q570 626 615 586 L702 674 L735 641 L647 553 Q685 508 707 452 Q729 396 729 330 Q729 258 702.5 196 Q676 134 630 88 Q584 42 522 16 Q460 -10 390 -10 Q325 -10 269 12 Q213 34 168 73 L81 -14 L48 19 L135 106 Q97 151 75 207.5 Q53 264 53 330 Q53 402 79.5 464.5 Q106 527 151.5 572.5 Q197 618 258.5 644 Q320 670 390 670 Z M391 623 Q330 623 278 600.5 Q226 578 187.5 539 Q149 500 127.5 446.5 Q106 393 106 331 Q106 275 122.5 227 Q139 179 170 141 L580 552 Q543 585 495 604 Q447 623 391 623 Z M676 331 Q676 385 659 432.5 Q642 480 612 518 L202 107 Q239 74 286.5 55.5 Q334 37 391 37 Q452 37 504 59.5 Q556 82 594.5 121.5 Q633 161 654.5 215 Q676 269 676 331 Z M524 901 L411 724 L371 724 L462 910 L524 910 L524 901 Z " />
<glyph glyph-name="Otilde" unicode="&#xd5;" horiz-adv-x="783" d="M390 670 Q460 670 522 644 Q584 618 630 572.5 Q676 527 702.5 464.5 Q729 402 729 330 Q729 258 702.5 196 Q676 134 630 88 Q584 42 522 16 Q460 -10 390 -10 Q319 -10 258 16.5 Q197 43 151 88.5 Q105 134 79 196 Q53 258 53 330 Q53 402 79.5 464.5 Q106 527 151.5 572.5 Q197 618 258.5 644 Q320 670 390 670 Z M392 622 Q331 622 279 599.5 Q227 577 189 538 Q151 499 129.5 446 Q108 393 108 331 Q108 269 129.5 215.5 Q151 162 189 123 Q227 84 279 61.5 Q331 39 392 39 Q452 39 504 61.5 Q556 84 594 123 Q632 162 653.5 215.5 Q675 269 675 331 Q675 392 653.5 445.5 Q632 499 594 538 Q556 577 504 599.5 Q452 622 392 622 Z M315 867 Q335 867 351 859 Q367 851 383 840 L419 816 Q432 807 442 801 Q452 795 464 795 Q481 795 488.5 807.5 Q496 820 496 837 L496 857 L540 857 Q541 852 541 846.5 Q541 841 541 835 Q541 802 523.5 775.5 Q506 749 470 749 Q450 749 433.5 757 Q417 765 401 776 L366 799 Q352 808 342 814 Q332 820 321 820 Q304 820 296.5 807 Q289 794 289 778 L289 759 L244 759 Q243 764 243 769 Q243 774 243 781 Q243 814 261 840.5 Q279 867 315 867 Z " />
<glyph glyph-name="OE" unicode="&#x152;" horiz-adv-x="1141" d="M1089 613 L727 613 L727 379 L1008 379 L1008 334 L727 334 L727 47 L1101 47 L1101 0 L675 0 L675 158 Q656 120 626.5 89 Q597 58 560 36 Q523 14 480 2 Q437 -10 390 -10 Q319 -10 257.5 16.5 Q196 43 150.5 88.5 Q105 134 79 196 Q53 258 53 330 Q53 402 79 464.5 Q105 527 151 572.5 Q197 618 258 644 Q319 670 390 670 Q437 670 480.5 658 Q524 646 561 624 Q598 602 627 571 Q656 540 675 502 L675 660 L1089 660 L1089 613 Z M392 622 Q331 622 279 599.5 Q227 577 189 538 Q151 499 129.5 446 Q108 393 108 331 Q108 269 129.5 215.5 Q151 162 189 123 Q227 84 279 61.5 Q331 39 392 39 Q453 39 504.5 61.5 Q556 84 594 123 Q632 162 653.5 215.5 Q675 269 675 331 L675 343 Q673 402 650.5 453 Q628 504 590.5 541.5 Q553 579 502 600.5 Q451 622 392 622 Z " />
<glyph glyph-name="P" unicode="P" horiz-adv-x="564" d="M323 660 Q370 660 407 646 Q444 632 469.5 608 Q495 584 508.5 551 Q522 518 522 479 Q522 440 508.5 406.5 Q495 373 469.5 348.5 Q444 324 407 310 Q370 296 323 296 L150 296 L150 0 L98 0 L98 660 L323 660 Z M150 613 L150 343 L321 343 Q395 343 431.5 381.5 Q468 420 468 478 Q468 536 431.5 574.5 Q395 613 321 613 L150 613 Z " />
<glyph glyph-name="Thorn" unicode="&#xde;" horiz-adv-x="564" d="M150 534 L323 534 Q370 534 407 520 Q444 506 469.5 481.5 Q495 457 508.5 422.5 Q522 388 522 347 Q522 306 508.5 272 Q495 238 469.5 213 Q444 188 407 174 Q370 160 323 160 L150 160 L150 0 L98 0 L98 660 L150 660 L150 534 Z M150 487 L150 207 L321 207 Q395 207 431.5 246 Q468 285 468 346 Q468 407 431.5 447 Q395 487 321 487 L150 487 Z " />
<glyph glyph-name="Q" unicode="Q" horiz-adv-x="783" d="M390 670 Q460 670 522 644 Q584 618 630 572.5 Q676 527 702.5 464.5 Q729 402 729 330 Q729 236 685.5 161 Q642 86 570 41 Q641 -53 730.5 -101.5 Q820 -150 935 -150 Q958 -150 983 -148.5 Q1008 -147 1033 -144 L1033 -186 Q1007 -191 982 -193.5 Q957 -196 931 -196 Q802 -196 701.5 -140 Q601 -84 528 18 Q463 -10 390 -10 Q319 -10 258 16.5 Q197 43 151 88.5 Q105 134 79 196 Q53 258 53 330 Q53 402 79.5 464.5 Q106 527 151.5 572.5 Q197 618 258.5 644 Q320 670 390 670 Z M392 622 Q331 622 279 599.5 Q227 577 189 538 Q151 499 129.5 446 Q108 393 108 331 Q108 269 129.5 215.5 Q151 162 189 123 Q227 84 279 61.5 Q331 39 392 39 Q453 39 504.5 61.5 Q556 84 594 123 Q632 162 653.5 215.5 Q675 269 675 331 Q675 392 653.5 445.5 Q632 499 594 538 Q556 577 504.5 599.5 Q453 622 392 622 Z " />
<glyph glyph-name="R" unicode="R" horiz-adv-x="614" d="M323 660 Q370 660 407 646 Q444 632 469.5 608 Q495 584 508.5 551 Q522 518 522 479 Q522 410 482.5 361.5 Q443 313 371 300 L594 0 L533 0 L311 296 L150 296 L150 0 L98 0 L98 660 L323 660 Z M150 613 L150 343 L320 343 Q394 343 431 381.5 Q468 420 468 478 Q468 536 431 574.5 Q394 613 320 613 L150 613 Z " />
<glyph glyph-name="Racute" unicode="&#x154;" horiz-adv-x="614" d="M323 660 Q370 660 407 646 Q444 632 469.5 608 Q495 584 508.5 551 Q522 518 522 479 Q522 410 482.5 361.5 Q443 313 371 300 L594 0 L533 0 L311 296 L150 296 L150 0 L98 0 L98 660 L323 660 Z M150 613 L150 343 L320 343 Q394 343 431 381.5 Q468 420 468 478 Q468 536 431 574.5 Q394 613 320 613 L150 613 Z M395 901 L282 724 L242 724 L333 910 L395 910 L395 901 Z " />
<glyph glyph-name="Rcaron" unicode="&#x158;" horiz-adv-x="614" d="M323 660 Q370 660 407 646 Q444 632 469.5 608 Q495 584 508.5 551 Q522 518 522 479 Q522 410 482.5 361.5 Q443 313 371 300 L594 0 L533 0 L311 296 L150 296 L150 0 L98 0 L98 660 L323 660 Z M150 613 L150 343 L320 343 Q394 343 431 381.5 Q468 420 468 478 Q468 536 431 574.5 Q394 613 320 613 L150 613 Z M277 724 L247 724 L101 910 L143 910 L262 780 L381 910 L423 910 L277 724 Z " />
<glyph glyph-name="Rcommaaccent" unicode="&#x156;" horiz-adv-x="614" d="M323 660 Q370 660 407 646 Q444 632 469.5 608 Q495 584 508.5 551 Q522 518 522 479 Q522 410 482.5 361.5 Q443 313 371 300 L594 0 L533 0 L311 296 L150 296 L150 0 L98 0 L98 660 L323 660 Z M150 613 L150 343 L320 343 Q394 343 431 381.5 Q468 420 468 478 Q468 536 431 574.5 Q394 613 320 613 L150 613 Z M299 -220 L258 -220 L270 -51 L323 -51 L299 -220 Z " />
<glyph glyph-name="S" unicode="S" horiz-adv-x="556" d="M282 670 Q348 670 398.5 641 Q449 612 480 565 L442 536 Q413 579 372 600.5 Q331 622 283 622 Q258 622 233 616 Q208 610 188.5 596.5 Q169 583 157 561.5 Q145 540 145 510 Q145 484 154 465 Q163 446 178.5 431.5 Q194 417 215 405.5 Q236 394 261 382 L336 346 Q372 329 400 311 Q428 293 447.5 272 Q467 251 477.5 225 Q488 199 488 165 Q488 125 472.5 93 Q457 61 429 38 Q401 15 363.5 2.5 Q326 -10 283 -10 Q205 -10 144.5 28 Q84 66 46 130 L85 159 Q117 108 166 73.5 Q215 39 283 39 Q315 39 342.5 47.5 Q370 56 390 72 Q410 88 421.5 111 Q433 134 433 164 Q433 190 425 209.5 Q417 229 401.5 244 Q386 259 363.5 272.5 Q341 286 312 300 L236 336 Q209 349 182.5 364 Q156 379 136 399 Q116 419 103.5 445 Q91 471 91 507 Q91 546 106.5 576 Q122 606 148 627 Q174 648 208.5 659 Q243 670 282 670 Z " />
<glyph glyph-name="Sacute" unicode="&#x15a;" horiz-adv-x="556" d="M282 670 Q348 670 398.5 641 Q449 612 480 565 L442 536 Q413 579 372 600.5 Q331 622 283 622 Q258 622 233 616 Q208 610 188.5 596.5 Q169 583 157 561.5 Q145 540 145 510 Q145 484 154 465 Q163 446 178.5 431.5 Q194 417 215 405.5 Q236 394 261 382 L336 346 Q372 329 400 311 Q428 293 447.5 272 Q467 251 477.5 225 Q488 199 488 165 Q488 125 472.5 93 Q457 61 429 38 Q401 15 363.5 2.5 Q326 -10 283 -10 Q205 -10 144.5 28 Q84 66 46 130 L85 159 Q117 108 166 73.5 Q215 39 283 39 Q315 39 342.5 47.5 Q370 56 390 72 Q410 88 421.5 111 Q433 134 433 164 Q433 190 425 209.5 Q417 229 401.5 244 Q386 259 363.5 272.5 Q341 286 312 300 L236 336 Q209 349 182.5 364 Q156 379 136 399 Q116 419 103.5 445 Q91 471 91 507 Q91 546 106.5 576 Q122 606 148 627 Q174 648 208.5 659 Q243 670 282 670 Z M415 901 L302 724 L262 724 L353 910 L415 910 L415 901 Z " />
<glyph glyph-name="Scaron" unicode="&#x160;" horiz-adv-x="556" d="M282 670 Q348 670 398.5 641 Q449 612 480 565 L442 536 Q413 579 372 600.5 Q331 622 283 622 Q258 622 233 616 Q208 610 188.5 596.5 Q169 583 157 561.5 Q145 540 145 510 Q145 484 154 465 Q163 446 178.5 431.5 Q194 417 215 405.5 Q236 394 261 382 L336 346 Q372 329 400 311 Q428 293 447.5 272 Q467 251 477.5 225 Q488 199 488 165 Q488 125 472.5 93 Q457 61 429 38 Q401 15 363.5 2.5 Q326 -10 283 -10 Q205 -10 144.5 28 Q84 66 46 130 L85 159 Q117 108 166 73.5 Q215 39 283 39 Q315 39 342.5 47.5 Q370 56 390 72 Q410 88 421.5 111 Q433 134 433 164 Q433 190 425 209.5 Q417 229 401.5 244 Q386 259 363.5 272.5 Q341 286 312 300 L236 336 Q209 349 182.5 364 Q156 379 136 399 Q116 419 103.5 445 Q91 471 91 507 Q91 546 106.5 576 Q122 606 148 627 Q174 648 208.5 659 Q243 670 282 670 Z M297 724 L267 724 L121 910 L163 910 L282 780 L401 910 L443 910 L297 724 Z " />
<glyph glyph-name="Scedilla" unicode="&#x15e;" horiz-adv-x="556" d="M282 670 Q348 670 398.5 641 Q449 612 480 565 L442 536 Q413 579 372 600.5 Q331 622 283 622 Q258 622 233 616 Q208 610 188.5 596.5 Q169 583 157 561.5 Q145 540 145 510 Q145 484 154 465 Q163 446 178.5 431.5 Q194 417 215 405.5 Q236 394 261 382 L336 346 Q372 329 400 311 Q428 293 447.5 272 Q467 251 477.5 225 Q488 199 488 165 Q488 125 472.5 93 Q457 61 429 38 Q401 15 363.5 2.5 Q326 -10 283 -10 Q205 -10 144.5 28 Q84 66 46 130 L85 159 Q117 108 166 73.5 Q215 39 283 39 Q315 39 342.5 47.5 Q370 56 390 72 Q410 88 421.5 111 Q433 134 433 164 Q433 190 425 209.5 Q417 229 401.5 244 Q386 259 363.5 272.5 Q341 286 312 300 L236 336 Q209 349 182.5 364 Q156 379 136 399 Q116 419 103.5 445 Q91 471 91 507 Q91 546 106.5 576 Q122 606 148 627 Q174 648 208.5 659 Q243 670 282 670 Z M284 19 Q315 5 335 -21 Q355 -47 355 -82 Q355 -104 347 -123.5 Q339 -143 323.5 -158 Q308 -173 285.5 -181.5 Q263 -190 235 -190 Q218 -190 201 -187.5 Q184 -185 168 -180 L168 -141 Q185 -145 201 -146.5 Q217 -148 228 -148 Q260 -148 284 -131 Q308 -114 308 -76 Q308 -48 295 -29 Q282 -10 265 4 L284 19 Z " />
<glyph glyph-name="Scircumflex" unicode="&#x15c;" horiz-adv-x="556" d="M282 670 Q348 670 398.5 641 Q449 612 480 565 L442 536 Q413 579 372 600.5 Q331 622 283 622 Q258 622 233 616 Q208 610 188.5 596.5 Q169 583 157 561.5 Q145 540 145 510 Q145 484 154 465 Q163 446 178.5 431.5 Q194 417 215 405.5 Q236 394 261 382 L336 346 Q372 329 400 311 Q428 293 447.5 272 Q467 251 477.5 225 Q488 199 488 165 Q488 125 472.5 93 Q457 61 429 38 Q401 15 363.5 2.5 Q326 -10 283 -10 Q205 -10 144.5 28 Q84 66 46 130 L85 159 Q117 108 166 73.5 Q215 39 283 39 Q315 39 342.5 47.5 Q370 56 390 72 Q410 88 421.5 111 Q433 134 433 164 Q433 190 425 209.5 Q417 229 401.5 244 Q386 259 363.5 272.5 Q341 286 312 300 L236 336 Q209 349 182.5 364 Q156 379 136 399 Q116 419 103.5 445 Q91 471 91 507 Q91 546 106.5 576 Q122 606 148 627 Q174 648 208.5 659 Q243 670 282 670 Z M443 724 L401 724 L282 853 L163 724 L121 724 L267 910 L297 910 L443 724 Z " />
<glyph glyph-name="Scommaaccent" unicode="&#x218;" horiz-adv-x="556" d="M282 670 Q348 670 398.5 641 Q449 612 480 565 L442 536 Q413 579 372 600.5 Q331 622 283 622 Q258 622 233 616 Q208 610 188.5 596.5 Q169 583 157 561.5 Q145 540 145 510 Q145 484 154 465 Q163 446 178.5 431.5 Q194 417 215 405.5 Q236 394 261 382 L336 346 Q372 329 400 311 Q428 293 447.5 272 Q467 251 477.5 225 Q488 199 488 165 Q488 125 472.5 93 Q457 61 429 38 Q401 15 363.5 2.5 Q326 -10 283 -10 Q205 -10 144.5 28 Q84 66 46 130 L85 159 Q117 108 166 73.5 Q215 39 283 39 Q315 39 342.5 47.5 Q370 56 390 72 Q410 88 421.5 111 Q433 134 433 164 Q433 190 425 209.5 Q417 229 401.5 244 Q386 259 363.5 272.5 Q341 286 312 300 L236 336 Q209 349 182.5 364 Q156 379 136 399 Q116 419 103.5 445 Q91 471 91 507 Q91 546 106.5 576 Q122 606 148 627 Q174 648 208.5 659 Q243 670 282 670 Z M289 -220 L248 -220 L260 -51 L313 -51 L289 -220 Z " />
<glyph glyph-name="uni1E9E" unicode="&#x1e9e;" horiz-adv-x="701" d="M594 643 L439 405 Q481 402 519 386 Q557 370 585 343 Q613 316 629.5 279 Q646 242 646 197 Q646 152 629 114 Q612 76 583.5 48.5 Q555 21 517 5.5 Q479 -10 436 -10 Q382 -10 334 13 Q286 36 254 75 L287 112 Q313 79 351.5 59 Q390 39 435 39 Q468 39 496.5 50.5 Q525 62 546 83 Q567 104 579 132.5 Q591 161 591 196 Q591 233 577.5 263.5 Q564 294 539.5 315.5 Q515 337 481 349 Q447 361 407 361 L365 361 L365 377 L518 613 L150 613 L150 0 L98 0 L98 660 L594 660 L594 643 Z " />
<glyph glyph-name="uni018F" unicode="&#x18f;" horiz-adv-x="757" d="M350 670 Q420 670 479.5 643.5 Q539 617 583 571.5 Q627 526 652 464 Q677 402 677 332 Q677 260 651 197.5 Q625 135 580.5 89 Q536 43 476 16.5 Q416 -10 347 -10 Q288 -10 235 10 Q182 30 141.5 67.5 Q101 105 77 159 Q53 213 53 282 Q53 302 54.5 317 Q56 332 57 341 L623 341 Q621 401 600 452.5 Q579 504 542 541.5 Q505 579 455.5 600.5 Q406 622 349 622 Q279 622 219.5 591.5 Q160 561 121 507 L84 538 Q129 598 198.5 634 Q268 670 350 670 Z M349 39 Q403 39 449.5 58.5 Q496 78 532 112 Q568 146 591 192.5 Q614 239 620 294 L106 294 Q103 234 121.5 187 Q140 140 174 107 Q208 74 253.5 56.5 Q299 39 349 39 Z " />
<glyph glyph-name="T" unicode="T" horiz-adv-x="583" d="M559 613 L318 613 L318 0 L265 0 L265 613 L24 613 L24 660 L559 660 L559 613 Z " />
<glyph glyph-name="Tbar" unicode="&#x166;" horiz-adv-x="583" d="M559 613 L318 613 L318 319 L521 319 L521 275 L318 275 L318 0 L265 0 L265 275 L62 275 L62 319 L265 319 L265 613 L24 613 L24 660 L559 660 L559 613 Z " />
<glyph glyph-name="Tcaron" unicode="&#x164;" horiz-adv-x="583" d="M559 613 L318 613 L318 0 L265 0 L265 613 L24 613 L24 660 L559 660 L559 613 Z M306 724 L276 724 L130 910 L172 910 L291 780 L410 910 L452 910 L306 724 Z " />
<glyph glyph-name="uni0162" unicode="&#x162;" horiz-adv-x="583" d="M559 613 L318 613 L318 0 L265 0 L265 613 L24 613 L24 660 L559 660 L559 613 Z M289 19 Q320 5 340 -21 Q360 -47 360 -82 Q360 -104 352 -123.5 Q344 -143 328.5 -158 Q313 -173 290.5 -181.5 Q268 -190 240 -190 Q223 -190 206 -187.5 Q189 -185 173 -180 L173 -141 Q190 -145 206 -146.5 Q222 -148 233 -148 Q265 -148 289 -131 Q313 -114 313 -76 Q313 -48 300 -29 Q287 -10 270 4 L289 19 Z " />
<glyph glyph-name="U" unicode="U" horiz-adv-x="683" d="M595 256 Q595 193 576.5 143.5 Q558 94 524.5 60 Q491 26 444.5 8 Q398 -10 342 -10 Q285 -10 238 8 Q191 26 158 60 Q125 94 106.5 143.5 Q88 193 88 256 L88 660 L140 660 L140 254 Q140 201 155 161 Q170 121 197 94 Q224 67 261 53 Q298 39 342 39 Q385 39 422 53 Q459 67 486 94 Q513 121 528 161 Q543 201 543 254 L543 660 L595 660 L595 256 Z " />
<glyph glyph-name="Uacute" unicode="&#xda;" horiz-adv-x="683" d="M595 256 Q595 193 576.5 143.5 Q558 94 524.5 60 Q491 26 444.5 8 Q398 -10 342 -10 Q285 -10 238 8 Q191 26 158 60 Q125 94 106.5 143.5 Q88 193 88 256 L88 660 L140 660 L140 254 Q140 201 155 161 Q170 121 197 94 Q224 67 261 53 Q298 39 342 39 Q385 39 422 53 Q459 67 486 94 Q513 121 528 161 Q543 201 543 254 L543 660 L595 660 L595 256 Z M473 901 L360 724 L320 724 L411 910 L473 910 L473 901 Z " />
<glyph glyph-name="Ubreve" unicode="&#x16c;" horiz-adv-x="683" d="M595 256 Q595 193 576.5 143.5 Q558 94 524.5 60 Q491 26 444.5 8 Q398 -10 342 -10 Q285 -10 238 8 Q191 26 158 60 Q125 94 106.5 143.5 Q88 193 88 256 L88 660 L140 660 L140 254 Q140 201 155 161 Q170 121 197 94 Q224 67 261 53 Q298 39 342 39 Q385 39 422 53 Q459 67 486 94 Q513 121 528 161 Q543 201 543 254 L543 660 L595 660 L595 256 Z M483 887 Q483 857 472 830.5 Q461 804 442 785 Q423 766 397 755 Q371 744 341 744 Q310 744 284 755 Q258 766 239 785 Q220 804 209 830.5 Q198 857 198 887 L243 887 Q243 839 271 812.5 Q299 786 341 786 Q382 786 410 812.5 Q438 839 438 887 L483 887 Z " />
<glyph glyph-name="Ucircumflex" unicode="&#xdb;" horiz-adv-x="683" d="M595 256 Q595 193 576.5 143.5 Q558 94 524.5 60 Q491 26 444.5 8 Q398 -10 342 -10 Q285 -10 238 8 Q191 26 158 60 Q125 94 106.5 143.5 Q88 193 88 256 L88 660 L140 660 L140 254 Q140 201 155 161 Q170 121 197 94 Q224 67 261 53 Q298 39 342 39 Q385 39 422 53 Q459 67 486 94 Q513 121 528 161 Q543 201 543 254 L543 660 L595 660 L595 256 Z M501 724 L459 724 L340 853 L221 724 L179 724 L325 910 L355 910 L501 724 Z " />
<glyph glyph-name="Udieresis" unicode="&#xdc;" horiz-adv-x="683" d="M595 256 Q595 193 576.5 143.5 Q558 94 524.5 60 Q491 26 444.5 8 Q398 -10 342 -10 Q285 -10 238 8 Q191 26 158 60 Q125 94 106.5 143.5 Q88 193 88 256 L88 660 L140 660 L140 254 Q140 201 155 161 Q170 121 197 94 Q224 67 261 53 Q298 39 342 39 Q385 39 422 53 Q459 67 486 94 Q513 121 528 161 Q543 201 543 254 L543 660 L595 660 L595 256 Z M453 850 Q471 850 483.5 837.5 Q496 825 496 807 Q496 790 483.5 777.5 Q471 765 453 765 Q436 765 423 777.5 Q410 790 410 807 Q410 825 423 837.5 Q436 850 453 850 Z M227 850 Q245 850 257.5 838 Q270 826 270 808 Q270 790 257.5 777.5 Q245 765 227 765 Q210 765 197 777.5 Q184 790 184 808 Q184 826 197 838 Q210 850 227 850 Z " />
<glyph glyph-name="Ugrave" unicode="&#xd9;" horiz-adv-x="683" d="M595 256 Q595 193 576.5 143.5 Q558 94 524.5 60 Q491 26 444.5 8 Q398 -10 342 -10 Q285 -10 238 8 Q191 26 158 60 Q125 94 106.5 143.5 Q88 193 88 256 L88 660 L140 660 L140 254 Q140 201 155 161 Q170 121 197 94 Q224 67 261 53 Q298 39 342 39 Q385 39 422 53 Q459 67 486 94 Q513 121 528 161 Q543 201 543 254 L543 660 L595 660 L595 256 Z M361 724 L321 724 L208 901 L208 910 L270 910 L361 724 Z " />
<glyph glyph-name="Uhungarumlaut" unicode="&#x170;" horiz-adv-x="683" d="M595 256 Q595 193 576.5 143.5 Q558 94 524.5 60 Q491 26 444.5 8 Q398 -10 342 -10 Q285 -10 238 8 Q191 26 158 60 Q125 94 106.5 143.5 Q88 193 88 256 L88 660 L140 660 L140 254 Q140 201 155 161 Q170 121 197 94 Q224 67 261 53 Q298 39 342 39 Q385 39 422 53 Q459 67 486 94 Q513 121 528 161 Q543 201 543 254 L543 660 L595 660 L595 256 Z M543 901 L434 724 L395 724 L486 910 L543 910 L543 901 Z M377 901 L268 724 L229 724 L320 910 L377 910 L377 901 Z " />
<glyph glyph-name="Umacron" unicode="&#x16a;" horiz-adv-x="683" d="M595 256 Q595 193 576.5 143.5 Q558 94 524.5 60 Q491 26 444.5 8 Q398 -10 342 -10 Q285 -10 238 8 Q191 26 158 60 Q125 94 106.5 143.5 Q88 193 88 256 L88 660 L140 660 L140 254 Q140 201 155 161 Q170 121 197 94 Q224 67 261 53 Q298 39 342 39 Q385 39 422 53 Q459 67 486 94 Q513 121 528 161 Q543 201 543 254 L543 660 L595 660 L595 256 Z M482 777 L200 777 L200 820 L482 820 L482 777 Z " />
<glyph glyph-name="Uogonek" unicode="&#x172;" horiz-adv-x="683" d="M595 256 Q595 199 581 158 Q567 117 545 86 Q523 55 495 30.5 Q467 6 439 -19 Q415 -41 399.5 -59.5 Q384 -78 384 -103 Q384 -126 399.5 -137 Q415 -148 441 -148 Q455 -148 470.5 -145.5 Q486 -143 500 -140 L500 -180 Q486 -184 469 -187 Q452 -190 432 -190 Q391 -190 362.5 -171.5 Q334 -153 334 -112 Q334 -81 353 -54 Q372 -27 410 1 Q374 -10 337 -10 Q285 -10 239.5 8.5 Q194 27 160.5 61.5 Q127 96 107.5 145.5 Q88 195 88 256 L88 660 L140 660 L140 254 Q140 203 156 163 Q172 123 199 95.5 Q226 68 262.5 53.5 Q299 39 341 39 Q383 39 420 53.5 Q457 68 484 95.5 Q511 123 527 163 Q543 203 543 254 L543 660 L595 660 L595 256 Z " />
<glyph glyph-name="Uring" unicode="&#x16e;" horiz-adv-x="683" d="M595 256 Q595 193 576.5 143.5 Q558 94 524.5 60 Q491 26 444.5 8 Q398 -10 342 -10 Q285 -10 238 8 Q191 26 158 60 Q125 94 106.5 143.5 Q88 193 88 256 L88 660 L140 660 L140 254 Q140 201 155 161 Q170 121 197 94 Q224 67 261 53 Q298 39 342 39 Q385 39 422 53 Q459 67 486 94 Q513 121 528 161 Q543 201 543 254 L543 660 L595 660 L595 256 Z M340 912 Q362 912 381 904 Q400 896 414 882.5 Q428 869 436 850 Q444 831 444 810 Q444 789 436 770 Q428 751 414 737.5 Q400 724 381 716 Q362 708 340 708 Q319 708 300 716 Q281 724 267 737.5 Q253 751 245 770 Q237 789 237 810 Q237 831 245 850 Q253 869 267 882.5 Q281 896 300 904 Q319 912 340 912 Z M341 871 Q315 871 297.5 853.5 Q280 836 280 810 Q280 784 297.5 766.5 Q315 749 341 749 Q366 749 383.5 766.5 Q401 784 401 810 Q401 836 383.5 853.5 Q366 871 341 871 Z " />
<glyph glyph-name="Utilde" unicode="&#x168;" horiz-adv-x="683" d="M595 256 Q595 193 576.5 143.5 Q558 94 524.5 60 Q491 26 444.5 8 Q398 -10 342 -10 Q285 -10 238 8 Q191 26 158 60 Q125 94 106.5 143.5 Q88 193 88 256 L88 660 L140 660 L140 254 Q140 201 155 161 Q170 121 197 94 Q224 67 261 53 Q298 39 342 39 Q385 39 422 53 Q459 67 486 94 Q513 121 528 161 Q543 201 543 254 L543 660 L595 660 L595 256 Z M264 867 Q284 867 300 859 Q316 851 332 840 L368 816 Q381 807 391 801 Q401 795 413 795 Q430 795 437.5 807.5 Q445 820 445 837 L445 857 L489 857 Q490 852 490 846.5 Q490 841 490 835 Q490 802 472.5 775.5 Q455 749 419 749 Q399 749 382.5 757 Q366 765 350 776 L315 799 Q301 808 291 814 Q281 820 270 820 Q253 820 245.5 807 Q238 794 238 778 L238 759 L193 759 Q192 764 192 769 Q192 774 192 781 Q192 814 210 840.5 Q228 867 264 867 Z " />
<glyph glyph-name="V" unicode="V" horiz-adv-x="664" d="M343 -10 L322 -10 L39 660 L95 660 L332 90 L569 660 L626 660 L343 -10 Z " />
<glyph glyph-name="W" unicode="W" horiz-adv-x="1072" d="M765 96 L966 660 L1021 660 L777 -10 L756 -10 L536 567 L316 -10 L296 -10 L51 660 L107 660 L307 96 L526 670 L547 670 L765 96 Z " />
<glyph glyph-name="Wacute" unicode="&#x1e82;" horiz-adv-x="1072" d="M765 96 L966 660 L1021 660 L777 -10 L756 -10 L536 567 L316 -10 L296 -10 L51 660 L107 660 L307 96 L526 670 L547 670 L765 96 Z M669 901 L556 724 L516 724 L607 910 L669 910 L669 901 Z " />
<glyph glyph-name="Wcircumflex" unicode="&#x174;" horiz-adv-x="1072" d="M765 96 L966 660 L1021 660 L777 -10 L756 -10 L536 567 L316 -10 L296 -10 L51 660 L107 660 L307 96 L526 670 L547 670 L765 96 Z M697 724 L655 724 L536 853 L417 724 L375 724 L521 910 L551 910 L697 724 Z " />
<glyph glyph-name="Wdieresis" unicode="&#x1e84;" horiz-adv-x="1072" d="M765 96 L966 660 L1021 660 L777 -10 L756 -10 L536 567 L316 -10 L296 -10 L51 660 L107 660 L307 96 L526 670 L547 670 L765 96 Z M649 850 Q667 850 679.5 837.5 Q692 825 692 807 Q692 790 679.5 777.5 Q667 765 649 765 Q632 765 619 777.5 Q606 790 606 807 Q606 825 619 837.5 Q632 850 649 850 Z M423 850 Q441 850 453.5 838 Q466 826 466 808 Q466 790 453.5 777.5 Q441 765 423 765 Q406 765 393 777.5 Q380 790 380 808 Q380 826 393 838 Q406 850 423 850 Z " />
<glyph glyph-name="Wgrave" unicode="&#x1e80;" horiz-adv-x="1072" d="M765 96 L966 660 L1021 660 L777 -10 L756 -10 L536 567 L316 -10 L296 -10 L51 660 L107 660 L307 96 L526 670 L547 670 L765 96 Z M557 724 L517 724 L404 901 L404 910 L466 910 L557 724 Z " />
<glyph glyph-name="X" unicode="X" horiz-adv-x="588" d="M324 338 L552 0 L492 0 L294 295 L96 0 L36 0 L265 339 L52 660 L112 660 L294 381 L476 660 L535 660 L324 338 Z " />
<glyph glyph-name="Y" unicode="Y" horiz-adv-x="613" d="M332 279 L332 0 L280 0 L280 281 L51 660 L108 660 L306 329 L505 660 L562 660 L332 279 Z " />
<glyph glyph-name="Yacute" unicode="&#xdd;" horiz-adv-x="613" d="M332 279 L332 0 L280 0 L280 281 L51 660 L108 660 L306 329 L505 660 L562 660 L332 279 Z M437 901 L324 724 L284 724 L375 910 L437 910 L437 901 Z " />
<glyph glyph-name="Ycircumflex" unicode="&#x176;" horiz-adv-x="613" d="M332 279 L332 0 L280 0 L280 281 L51 660 L108 660 L306 329 L505 660 L562 660 L332 279 Z M465 724 L423 724 L304 853 L185 724 L143 724 L289 910 L319 910 L465 724 Z " />
<glyph glyph-name="Ydieresis" unicode="&#x178;" horiz-adv-x="613" d="M332 279 L332 0 L280 0 L280 281 L51 660 L108 660 L306 329 L505 660 L562 660 L332 279 Z M417 850 Q435 850 447.5 837.5 Q460 825 460 807 Q460 790 447.5 777.5 Q435 765 417 765 Q400 765 387 777.5 Q374 790 374 807 Q374 825 387 837.5 Q400 850 417 850 Z M191 850 Q209 850 221.5 838 Q234 826 234 808 Q234 790 221.5 777.5 Q209 765 191 765 Q174 765 161 777.5 Q148 790 148 808 Q148 826 161 838 Q174 850 191 850 Z " />
<glyph glyph-name="Ygrave" unicode="&#x1ef2;" horiz-adv-x="613" d="M332 279 L332 0 L280 0 L280 281 L51 660 L108 660 L306 329 L505 660 L562 660 L332 279 Z M325 724 L285 724 L172 901 L172 910 L234 910 L325 724 Z " />
<glyph glyph-name="Z" unicode="Z" horiz-adv-x="590" d="M551 643 L118 47 L552 47 L552 0 L38 0 L38 17 L470 613 L82 613 L82 660 L551 660 L551 643 Z " />
<glyph glyph-name="Zacute" unicode="&#x179;" horiz-adv-x="590" d="M551 643 L118 47 L552 47 L552 0 L38 0 L38 17 L470 613 L82 613 L82 660 L551 660 L551 643 Z M431 901 L318 724 L278 724 L369 910 L431 910 L431 901 Z " />
<glyph glyph-name="Zcaron" unicode="&#x17d;" horiz-adv-x="590" d="M551 643 L118 47 L552 47 L552 0 L38 0 L38 17 L470 613 L82 613 L82 660 L551 660 L551 643 Z M313 724 L283 724 L137 910 L179 910 L298 780 L417 910 L459 910 L313 724 Z " />
<glyph glyph-name="Zdotaccent" unicode="&#x17b;" horiz-adv-x="590" d="M551 643 L118 47 L552 47 L552 0 L38 0 L38 17 L470 613 L82 613 L82 660 L551 660 L551 643 Z M299 851 Q318 851 330.5 838.5 Q343 826 343 808 Q343 789 330.5 776.5 Q318 764 299 764 Q281 764 268 776.5 Q255 789 255 808 Q255 826 268 838.5 Q281 851 299 851 Z " />
<glyph glyph-name="uni021A" unicode="&#x21a;" horiz-adv-x="583" d="M559 613 L318 613 L318 0 L265 0 L265 613 L24 613 L24 660 L559 660 L559 613 Z M294 -220 L253 -220 L265 -51 L318 -51 L294 -220 Z " />
<glyph glyph-name="a" unicode="a" horiz-adv-x="521" d="M256 493 Q295 493 328 481 Q361 469 385 445 Q409 421 422.5 385.5 Q436 350 436 303 L436 0 L388 0 L388 75 Q362 35 317.5 12.5 Q273 -10 216 -10 Q182 -10 152 -1.5 Q122 7 99 23.5 Q76 40 62.5 64.5 Q49 89 49 121 Q49 181 95 215.5 Q141 250 218 250 L386 250 L386 305 Q386 377 349 411.5 Q312 446 252 446 Q203 446 168.5 424 Q134 402 106 365 L71 393 Q139 493 256 493 Z M220 34 Q254 34 284 45 Q314 56 336.5 75.5 Q359 95 372.5 121.5 Q386 148 386 180 L386 207 L222 207 Q162 207 131.5 185.5 Q101 164 101 124 Q101 100 111.5 83 Q122 66 138.5 55 Q155 44 176.5 39 Q198 34 220 34 Z " />
<glyph glyph-name="aacute" unicode="&#xe1;" horiz-adv-x="521" d="M256 493 Q295 493 328 481 Q361 469 385 445 Q409 421 422.5 385.5 Q436 350 436 303 L436 0 L388 0 L388 75 Q362 35 317.5 12.5 Q273 -10 216 -10 Q182 -10 152 -1.5 Q122 7 99 23.5 Q76 40 62.5 64.5 Q49 89 49 121 Q49 181 95 215.5 Q141 250 218 250 L386 250 L386 305 Q386 377 349 411.5 Q312 446 252 446 Q203 446 168.5 424 Q134 402 106 365 L71 393 Q139 493 256 493 Z M220 34 Q254 34 284 45 Q314 56 336.5 75.5 Q359 95 372.5 121.5 Q386 148 386 180 L386 207 L222 207 Q162 207 131.5 185.5 Q101 164 101 124 Q101 100 111.5 83 Q122 66 138.5 55 Q155 44 176.5 39 Q198 34 220 34 Z M388 771 L275 564 L235 564 L326 780 L388 780 L388 771 Z " />
<glyph glyph-name="abreve" unicode="&#x103;" horiz-adv-x="521" d="M256 493 Q295 493 328 481 Q361 469 385 445 Q409 421 422.5 385.5 Q436 350 436 303 L436 0 L388 0 L388 75 Q362 35 317.5 12.5 Q273 -10 216 -10 Q182 -10 152 -1.5 Q122 7 99 23.5 Q76 40 62.5 64.5 Q49 89 49 121 Q49 181 95 215.5 Q141 250 218 250 L386 250 L386 305 Q386 377 349 411.5 Q312 446 252 446 Q203 446 168.5 424 Q134 402 106 365 L71 393 Q139 493 256 493 Z M220 34 Q254 34 284 45 Q314 56 336.5 75.5 Q359 95 372.5 121.5 Q386 148 386 180 L386 207 L222 207 Q162 207 131.5 185.5 Q101 164 101 124 Q101 100 111.5 83 Q122 66 138.5 55 Q155 44 176.5 39 Q198 34 220 34 Z M396 729 Q396 699 385 672.5 Q374 646 355 627 Q336 608 310 597 Q284 586 254 586 Q223 586 197 597 Q171 608 152 627 Q133 646 122 672.5 Q111 699 111 729 L156 729 Q156 681 184 654.5 Q212 628 254 628 Q295 628 323 654.5 Q351 681 351 729 L396 729 Z " />
<glyph glyph-name="acircumflex" unicode="&#xe2;" horiz-adv-x="521" d="M256 493 Q295 493 328 481 Q361 469 385 445 Q409 421 422.5 385.5 Q436 350 436 303 L436 0 L388 0 L388 75 Q362 35 317.5 12.5 Q273 -10 216 -10 Q182 -10 152 -1.5 Q122 7 99 23.5 Q76 40 62.5 64.5 Q49 89 49 121 Q49 181 95 215.5 Q141 250 218 250 L386 250 L386 305 Q386 377 349 411.5 Q312 446 252 446 Q203 446 168.5 424 Q134 402 106 365 L71 393 Q139 493 256 493 Z M220 34 Q254 34 284 45 Q314 56 336.5 75.5 Q359 95 372.5 121.5 Q386 148 386 180 L386 207 L222 207 Q162 207 131.5 185.5 Q101 164 101 124 Q101 100 111.5 83 Q122 66 138.5 55 Q155 44 176.5 39 Q198 34 220 34 Z M404 564 L363 564 L254 715 L144 564 L103 564 L239 780 L268 780 L404 564 Z " />
<glyph glyph-name="adieresis" unicode="&#xe4;" horiz-adv-x="521" d="M256 493 Q295 493 328 481 Q361 469 385 445 Q409 421 422.5 385.5 Q436 350 436 303 L436 0 L388 0 L388 75 Q362 35 317.5 12.5 Q273 -10 216 -10 Q182 -10 152 -1.5 Q122 7 99 23.5 Q76 40 62.5 64.5 Q49 89 49 121 Q49 181 95 215.5 Q141 250 218 250 L386 250 L386 305 Q386 377 349 411.5 Q312 446 252 446 Q203 446 168.5 424 Q134 402 106 365 L71 393 Q139 493 256 493 Z M220 34 Q254 34 284 45 Q314 56 336.5 75.5 Q359 95 372.5 121.5 Q386 148 386 180 L386 207 L222 207 Q162 207 131.5 185.5 Q101 164 101 124 Q101 100 111.5 83 Q122 66 138.5 55 Q155 44 176.5 39 Q198 34 220 34 Z M353 712 Q371 712 383.5 699.5 Q396 687 396 669 Q396 652 383.5 639.5 Q371 627 353 627 Q336 627 323 639.5 Q310 652 310 669 Q310 687 323 699.5 Q336 712 353 712 Z M153 712 Q171 712 183.5 699.5 Q196 687 196 669 Q196 652 183.5 639.5 Q171 627 153 627 Q136 627 123 639.5 Q110 652 110 669 Q110 687 123 699.5 Q136 712 153 712 Z " />
<glyph glyph-name="agrave" unicode="&#xe0;" horiz-adv-x="521" d="M256 493 Q295 493 328 481 Q361 469 385 445 Q409 421 422.5 385.5 Q436 350 436 303 L436 0 L388 0 L388 75 Q362 35 317.5 12.5 Q273 -10 216 -10 Q182 -10 152 -1.5 Q122 7 99 23.5 Q76 40 62.5 64.5 Q49 89 49 121 Q49 181 95 215.5 Q141 250 218 250 L386 250 L386 305 Q386 377 349 411.5 Q312 446 252 446 Q203 446 168.5 424 Q134 402 106 365 L71 393 Q139 493 256 493 Z M220 34 Q254 34 284 45 Q314 56 336.5 75.5 Q359 95 372.5 121.5 Q386 148 386 180 L386 207 L222 207 Q162 207 131.5 185.5 Q101 164 101 124 Q101 100 111.5 83 Q122 66 138.5 55 Q155 44 176.5 39 Q198 34 220 34 Z M276 564 L236 564 L123 771 L123 780 L185 780 L276 564 Z " />
<glyph glyph-name="amacron" unicode="&#x101;" horiz-adv-x="521" d="M256 493 Q295 493 328 481 Q361 469 385 445 Q409 421 422.5 385.5 Q436 350 436 303 L436 0 L388 0 L388 75 Q362 35 317.5 12.5 Q273 -10 216 -10 Q182 -10 152 -1.5 Q122 7 99 23.5 Q76 40 62.5 64.5 Q49 89 49 121 Q49 181 95 215.5 Q141 250 218 250 L386 250 L386 305 Q386 377 349 411.5 Q312 446 252 446 Q203 446 168.5 424 Q134 402 106 365 L71 393 Q139 493 256 493 Z M220 34 Q254 34 284 45 Q314 56 336.5 75.5 Q359 95 372.5 121.5 Q386 148 386 180 L386 207 L222 207 Q162 207 131.5 185.5 Q101 164 101 124 Q101 100 111.5 83 Q122 66 138.5 55 Q155 44 176.5 39 Q198 34 220 34 Z M385 648 L123 648 L123 691 L385 691 L385 648 Z " />
<glyph glyph-name="aogonek" unicode="&#x105;" horiz-adv-x="521" d="M256 493 Q295 493 328 481 Q361 469 385 445 Q409 421 422.5 385.5 Q436 350 436 303 L436 0 L388 0 L388 75 Q362 35 317.5 12.5 Q273 -10 216 -10 Q182 -10 152 -1.5 Q122 7 99 23.5 Q76 40 62.5 64.5 Q49 89 49 121 Q49 181 95 215.5 Q141 250 218 250 L386 250 L386 305 Q386 377 349 411.5 Q312 446 252 446 Q203 446 168.5 424 Q134 402 106 365 L71 393 Q139 493 256 493 Z M220 34 Q254 34 284 45 Q314 56 336.5 75.5 Q359 95 372.5 121.5 Q386 148 386 180 L386 207 L222 207 Q162 207 131.5 185.5 Q101 164 101 124 Q101 100 111.5 83 Q122 66 138.5 55 Q155 44 176.5 39 Q198 34 220 34 Z M436 0 L382 -35 Q354 -53 337.5 -67 Q321 -81 321 -103 Q321 -124 336.5 -136 Q352 -148 378 -148 Q391 -148 406.5 -145.5 Q422 -143 436 -140 L436 -180 Q422 -184 405 -187 Q388 -190 370 -190 Q328 -190 299 -169 Q270 -148 270 -110 Q270 -92 278 -76 Q286 -60 304 -44 Q322 -28 350 -11 Q378 6 417 27 L436 0 Z " />
<glyph glyph-name="aring" unicode="&#xe5;" horiz-adv-x="521" d="M256 493 Q295 493 328 481 Q361 469 385 445 Q409 421 422.5 385.5 Q436 350 436 303 L436 0 L388 0 L388 75 Q362 35 317.5 12.5 Q273 -10 216 -10 Q182 -10 152 -1.5 Q122 7 99 23.5 Q76 40 62.5 64.5 Q49 89 49 121 Q49 181 95 215.5 Q141 250 218 250 L386 250 L386 305 Q386 377 349 411.5 Q312 446 252 446 Q203 446 168.5 424 Q134 402 106 365 L71 393 Q139 493 256 493 Z M220 34 Q254 34 284 45 Q314 56 336.5 75.5 Q359 95 372.5 121.5 Q386 148 386 180 L386 207 L222 207 Q162 207 131.5 185.5 Q101 164 101 124 Q101 100 111.5 83 Q122 66 138.5 55 Q155 44 176.5 39 Q198 34 220 34 Z M253 769 Q275 769 294 761 Q313 753 327 739.5 Q341 726 349 707 Q357 688 357 667 Q357 646 349 627 Q341 608 327 594.5 Q313 581 294 573 Q275 565 253 565 Q232 565 213 573 Q194 581 180 594.5 Q166 608 158 627 Q150 646 150 667 Q150 688 158 707 Q166 726 180 739.5 Q194 753 213 761 Q232 769 253 769 Z M254 728 Q228 728 210.5 710.5 Q193 693 193 667 Q193 641 210.5 623.5 Q228 606 254 606 Q279 606 296.5 623.5 Q314 641 314 667 Q314 693 296.5 710.5 Q279 728 254 728 Z " />
<glyph glyph-name="atilde" unicode="&#xe3;" horiz-adv-x="521" d="M256 493 Q295 493 328 481 Q361 469 385 445 Q409 421 422.5 385.5 Q436 350 436 303 L436 0 L388 0 L388 75 Q362 35 317.5 12.5 Q273 -10 216 -10 Q182 -10 152 -1.5 Q122 7 99 23.5 Q76 40 62.5 64.5 Q49 89 49 121 Q49 181 95 215.5 Q141 250 218 250 L386 250 L386 305 Q386 377 349 411.5 Q312 446 252 446 Q203 446 168.5 424 Q134 402 106 365 L71 393 Q139 493 256 493 Z M220 34 Q254 34 284 45 Q314 56 336.5 75.5 Q359 95 372.5 121.5 Q386 148 386 180 L386 207 L222 207 Q162 207 131.5 185.5 Q101 164 101 124 Q101 100 111.5 83 Q122 66 138.5 55 Q155 44 176.5 39 Q198 34 220 34 Z M185 729 Q205 729 220.5 721 Q236 713 250 699 L275 674 Q287 662 296.5 656 Q306 650 318 650 Q335 650 342 663.5 Q349 677 349 696 L349 715 L393 715 Q394 710 394 704.5 Q394 699 394 693 Q394 676 390 659.5 Q386 643 377 630.5 Q368 618 354.5 610.5 Q341 603 323 603 Q303 603 287.5 611 Q272 619 258 633 L232 658 Q220 670 211 676 Q202 682 190 682 Q172 682 165 668.5 Q158 655 158 637 L158 617 L114 617 Q113 623 113 628 Q113 633 113 639 Q113 674 130.5 701.5 Q148 729 185 729 Z " />
<glyph glyph-name="ae" unicode="&#xe6;" horiz-adv-x="902" d="M256 493 Q317 493 362 463.5 Q407 434 424 374 Q456 428 509.5 460.5 Q563 493 630 493 Q674 493 713.5 478 Q753 463 782.5 435 Q812 407 829.5 367 Q847 327 847 277 Q847 258 845 241.5 Q843 225 842 221 L440 221 Q443 180 459.5 146.5 Q476 113 502 88.5 Q528 64 562.5 50.5 Q597 37 637 37 Q687 37 727.5 57.5 Q768 78 798 113 L830 80 Q795 38 745 14 Q695 -10 637 -10 Q564 -10 506.5 25.5 Q449 61 418 121 Q396 59 341 24.5 Q286 -10 217 -10 Q182 -10 151.5 -1 Q121 8 98 25.5 Q75 43 62 69 Q49 95 49 128 Q49 191 95 228 Q141 265 218 265 L386 265 L386 305 Q386 377 349 411.5 Q312 446 253 446 Q204 446 169 424 Q134 402 106 365 L72 393 Q140 493 256 493 Z M627 447 Q590 447 557.5 433 Q525 419 500 395 Q475 371 459.5 337.5 Q444 304 440 265 L793 265 Q796 307 783.5 340.5 Q771 374 748 397.5 Q725 421 693.5 434 Q662 447 627 447 Z M222 34 Q255 34 284.5 45 Q314 56 336.5 75.5 Q359 95 372.5 121.5 Q386 148 386 180 L386 221 L222 221 Q101 221 101 133 Q101 107 111.5 88.5 Q122 70 139 58 Q156 46 177.5 40 Q199 34 222 34 Z " />
<glyph glyph-name="aeacute" unicode="&#x1fd;" horiz-adv-x="902" d="M256 493 Q317 493 362 463.5 Q407 434 424 374 Q456 428 509.5 460.5 Q563 493 630 493 Q674 493 713.5 478 Q753 463 782.5 435 Q812 407 829.5 367 Q847 327 847 277 Q847 258 845 241.5 Q843 225 842 221 L440 221 Q443 180 459.5 146.5 Q476 113 502 88.5 Q528 64 562.5 50.5 Q597 37 637 37 Q687 37 727.5 57.5 Q768 78 798 113 L830 80 Q795 38 745 14 Q695 -10 637 -10 Q564 -10 506.5 25.5 Q449 61 418 121 Q396 59 341 24.5 Q286 -10 217 -10 Q182 -10 151.5 -1 Q121 8 98 25.5 Q75 43 62 69 Q49 95 49 128 Q49 191 95 228 Q141 265 218 265 L386 265 L386 305 Q386 377 349 411.5 Q312 446 253 446 Q204 446 169 424 Q134 402 106 365 L72 393 Q140 493 256 493 Z M627 447 Q590 447 557.5 433 Q525 419 500 395 Q475 371 459.5 337.5 Q444 304 440 265 L793 265 Q796 307 783.5 340.5 Q771 374 748 397.5 Q725 421 693.5 434 Q662 447 627 447 Z M222 34 Q255 34 284.5 45 Q314 56 336.5 75.5 Q359 95 372.5 121.5 Q386 148 386 180 L386 221 L222 221 Q101 221 101 133 Q101 107 111.5 88.5 Q122 70 139 58 Q156 46 177.5 40 Q199 34 222 34 Z M563 771 L450 564 L410 564 L501 780 L563 780 L563 771 Z " />
<glyph glyph-name="b" unicode="b" horiz-adv-x="634" d="M143 390 Q171 438 223.5 465.5 Q276 493 338 493 Q390 493 434 473.5 Q478 454 510 420 Q542 386 560 340 Q578 294 578 241 Q578 188 560 142.5 Q542 97 509.5 63 Q477 29 433 9.5 Q389 -10 338 -10 Q275 -10 221.5 18 Q168 46 141 97 L141 0 L93 0 L93 750 L143 750 L143 390 Z M333 446 Q297 446 263 434 Q229 422 202.5 397.5 Q176 373 159.5 334 Q143 295 143 241 Q143 187 159.5 148.5 Q176 110 203 85.5 Q230 61 264 49 Q298 37 333 37 Q375 37 410.5 52.5 Q446 68 471.5 96 Q497 124 511.5 161 Q526 198 526 242 Q526 285 511.5 322.5 Q497 360 471.5 387.5 Q446 415 410.5 430.5 Q375 446 333 446 Z " />
<glyph glyph-name="c" unicode="c" horiz-adv-x="552" d="M306 493 Q369 493 418.5 466 Q468 439 502 394 L465 365 Q436 403 396.5 424.5 Q357 446 306 446 Q264 446 227.5 430 Q191 414 164.5 386.5 Q138 359 123 322 Q108 285 108 242 Q108 199 123 161.5 Q138 124 164.5 96.5 Q191 69 227.5 53 Q264 37 306 37 Q357 37 396.5 58.5 Q436 80 465 118 L501 89 Q468 44 418 17 Q368 -10 305 -10 Q253 -10 207.5 9.5 Q162 29 128.5 63.5 Q95 98 75.5 143.5 Q56 189 56 242 Q56 294 75.5 340 Q95 386 128.5 420 Q162 454 207.5 473.5 Q253 493 306 493 Z " />
<glyph glyph-name="cacute" unicode="&#x107;" horiz-adv-x="552" d="M306 493 Q369 493 418.5 466 Q468 439 502 394 L465 365 Q436 403 396.5 424.5 Q357 446 306 446 Q264 446 227.5 430 Q191 414 164.5 386.5 Q138 359 123 322 Q108 285 108 242 Q108 199 123 161.5 Q138 124 164.5 96.5 Q191 69 227.5 53 Q264 37 306 37 Q357 37 396.5 58.5 Q436 80 465 118 L501 89 Q468 44 418 17 Q368 -10 305 -10 Q253 -10 207.5 9.5 Q162 29 128.5 63.5 Q95 98 75.5 143.5 Q56 189 56 242 Q56 294 75.5 340 Q95 386 128.5 420 Q162 454 207.5 473.5 Q253 493 306 493 Z M439 771 L326 564 L286 564 L377 780 L439 780 L439 771 Z " />
<glyph glyph-name="ccaron" unicode="&#x10d;" horiz-adv-x="552" d="M306 493 Q369 493 418.5 466 Q468 439 502 394 L465 365 Q436 403 396.5 424.5 Q357 446 306 446 Q264 446 227.5 430 Q191 414 164.5 386.5 Q138 359 123 322 Q108 285 108 242 Q108 199 123 161.5 Q138 124 164.5 96.5 Q191 69 227.5 53 Q264 37 306 37 Q357 37 396.5 58.5 Q436 80 465 118 L501 89 Q468 44 418 17 Q368 -10 305 -10 Q253 -10 207.5 9.5 Q162 29 128.5 63.5 Q95 98 75.5 143.5 Q56 189 56 242 Q56 294 75.5 340 Q95 386 128.5 420 Q162 454 207.5 473.5 Q253 493 306 493 Z M319 564 L290 564 L154 780 L195 780 L305 628 L414 780 L455 780 L319 564 Z " />
<glyph glyph-name="ccedilla" unicode="&#xe7;" horiz-adv-x="552" d="M306 493 Q369 493 418.5 466 Q468 439 502 394 L465 365 Q436 403 396.5 424.5 Q357 446 306 446 Q264 446 227.5 430 Q191 414 164.5 386.5 Q138 359 123 322 Q108 285 108 242 Q108 199 123 161.5 Q138 124 164.5 96.5 Q191 69 227.5 53 Q264 37 306 37 Q357 37 396.5 58.5 Q436 80 465 118 L501 89 Q468 44 418 17 Q368 -10 305 -10 Q253 -10 207.5 9.5 Q162 29 128.5 63.5 Q95 98 75.5 143.5 Q56 189 56 242 Q56 294 75.5 340 Q95 386 128.5 420 Q162 454 207.5 473.5 Q253 493 306 493 Z M302 19 Q333 5 353 -21 Q373 -47 373 -82 Q373 -104 365 -123.5 Q357 -143 341.5 -158 Q326 -173 303.5 -181.5 Q281 -190 253 -190 Q236 -190 219 -187.5 Q202 -185 186 -180 L186 -141 Q203 -145 219 -146.5 Q235 -148 246 -148 Q278 -148 302 -131 Q326 -114 326 -76 Q326 -48 313 -29 Q300 -10 283 4 L302 19 Z " />
<glyph glyph-name="ccircumflex" unicode="&#x109;" horiz-adv-x="552" d="M306 493 Q369 493 418.5 466 Q468 439 502 394 L465 365 Q436 403 396.5 424.5 Q357 446 306 446 Q264 446 227.5 430 Q191 414 164.5 386.5 Q138 359 123 322 Q108 285 108 242 Q108 199 123 161.5 Q138 124 164.5 96.5 Q191 69 227.5 53 Q264 37 306 37 Q357 37 396.5 58.5 Q436 80 465 118 L501 89 Q468 44 418 17 Q368 -10 305 -10 Q253 -10 207.5 9.5 Q162 29 128.5 63.5 Q95 98 75.5 143.5 Q56 189 56 242 Q56 294 75.5 340 Q95 386 128.5 420 Q162 454 207.5 473.5 Q253 493 306 493 Z M455 564 L414 564 L305 715 L195 564 L154 564 L290 780 L319 780 L455 564 Z " />
<glyph glyph-name="cdotaccent" unicode="&#x10b;" horiz-adv-x="552" d="M306 493 Q369 493 418.5 466 Q468 439 502 394 L465 365 Q436 403 396.5 424.5 Q357 446 306 446 Q264 446 227.5 430 Q191 414 164.5 386.5 Q138 359 123 322 Q108 285 108 242 Q108 199 123 161.5 Q138 124 164.5 96.5 Q191 69 227.5 53 Q264 37 306 37 Q357 37 396.5 58.5 Q436 80 465 118 L501 89 Q468 44 418 17 Q368 -10 305 -10 Q253 -10 207.5 9.5 Q162 29 128.5 63.5 Q95 98 75.5 143.5 Q56 189 56 242 Q56 294 75.5 340 Q95 386 128.5 420 Q162 454 207.5 473.5 Q253 493 306 493 Z M305 713 Q324 713 336.5 700 Q349 687 349 669 Q349 651 336.5 638 Q324 625 305 625 Q287 625 274 638 Q261 651 261 669 Q261 687 274 700 Q287 713 305 713 Z " />
<glyph glyph-name="d" unicode="d" horiz-adv-x="634" d="M541 0 L493 0 L493 97 Q466 47 412.5 18.5 Q359 -10 296 -10 Q245 -10 201 9.5 Q157 29 124.5 63 Q92 97 74 142.5 Q56 188 56 241 Q56 294 74 340 Q92 386 124.5 420 Q157 454 201 473.5 Q245 493 296 493 Q357 493 410 465.5 Q463 438 491 390 L491 750 L541 750 L541 0 Z M301 446 Q259 446 223.5 430.5 Q188 415 162.5 387.5 Q137 360 122.5 322.5 Q108 285 108 242 Q108 198 122.5 161 Q137 124 162.5 96 Q188 68 223.5 52.5 Q259 37 301 37 Q336 37 370 49 Q404 61 431 85.5 Q458 110 474.5 148.5 Q491 187 491 241 Q491 295 474.5 334 Q458 373 431 397.5 Q404 422 370 434 Q336 446 301 446 Z " />
<glyph glyph-name="eth" unicode="&#xf0;" horiz-adv-x="567" d="M432 685 L285 615 L407 449 Q429 418 448.5 391 Q468 364 481.5 337 Q495 310 503 281.5 Q511 253 511 220 Q511 172 494 130 Q477 88 447 57 Q417 26 375 8 Q333 -10 283 -10 Q233 -10 191.5 7.5 Q150 25 120 55.5 Q90 86 73 127 Q56 168 56 215 Q56 263 73 304.5 Q90 346 120 376 Q150 406 190 423.5 Q230 441 276 441 Q302 441 324.5 435.5 Q347 430 365 422 L240 594 L86 521 L67 560 L215 629 L141 732 L180 760 L260 650 L413 723 L432 685 Z M282 394 Q245 394 213 380.5 Q181 367 158 343 Q135 319 121.5 286.5 Q108 254 108 215 Q108 177 121 144.5 Q134 112 157.5 88 Q181 64 213 50.5 Q245 37 283 37 Q320 37 352 50.5 Q384 64 407.5 88 Q431 112 444.5 145 Q458 178 458 216 Q458 254 444.5 286.5 Q431 319 407.5 343 Q384 367 351.5 380.5 Q319 394 282 394 Z " />
<glyph glyph-name="dcaron" unicode="&#x10f;" horiz-adv-x="634" d="M541 0 L493 0 L493 97 Q466 47 412.5 18.5 Q359 -10 296 -10 Q245 -10 201 9.5 Q157 29 124.5 63 Q92 97 74 142.5 Q56 188 56 241 Q56 294 74 340 Q92 386 124.5 420 Q157 454 201 473.5 Q245 493 296 493 Q357 493 410 465.5 Q463 438 491 390 L491 750 L541 750 L541 0 Z M301 446 Q259 446 223.5 430.5 Q188 415 162.5 387.5 Q137 360 122.5 322.5 Q108 285 108 242 Q108 198 122.5 161 Q137 124 162.5 96 Q188 68 223.5 52.5 Q259 37 301 37 Q336 37 370 49 Q404 61 431 85.5 Q458 110 474.5 148.5 Q491 187 491 241 Q491 295 474.5 334 Q458 373 431 397.5 Q404 422 370 434 Q336 446 301 446 Z M688 540 L648 540 L665 750 L723 750 L688 540 Z " />
<glyph glyph-name="dcroat" unicode="&#x111;" horiz-adv-x="633" d="M624 594 L539 594 L539 0 L491 0 L491 98 Q463 47 409.5 18.5 Q356 -10 293 -10 Q242 -10 198.5 9 Q155 28 123 61.5 Q91 95 72.5 140.5 Q54 186 54 238 Q54 290 72 336 Q90 382 122.5 415.5 Q155 449 198.5 468.5 Q242 488 293 488 Q354 488 407.5 459.5 Q461 431 489 382 L489 594 L264 594 L264 638 L489 638 L489 750 L539 750 L539 638 L624 638 L624 594 Z M300 441 Q258 441 222.5 425.5 Q187 410 161.5 383 Q136 356 121.5 318.5 Q107 281 107 238 Q107 195 121.5 158 Q136 121 161.5 94 Q187 67 222.5 51.5 Q258 36 300 36 Q335 36 369 47.5 Q403 59 430 83.5 Q457 108 473.5 146.5 Q490 185 490 238 Q490 292 473.5 330 Q457 368 430 393 Q403 418 369 429.5 Q335 441 300 441 Z " />
<glyph glyph-name="e" unicode="e" horiz-adv-x="572" d="M300 493 Q344 493 383.5 478 Q423 463 452.5 435 Q482 407 499 367 Q516 327 516 278 Q516 260 514.5 246.5 Q513 233 512 230 L108 230 Q110 188 126 152.5 Q142 117 168.5 91.5 Q195 66 230.5 51.5 Q266 37 307 37 Q358 37 398 57.5 Q438 78 468 113 L500 80 Q465 38 415.5 14 Q366 -10 306 -10 Q253 -10 207.5 9.5 Q162 29 128.5 62.5 Q95 96 75.5 142 Q56 188 56 241 Q56 293 75 339 Q94 385 127 419.5 Q160 454 204.5 473.5 Q249 493 300 493 Z M298 447 Q261 447 229 434 Q197 421 172.5 398 Q148 375 131.5 343.5 Q115 312 110 275 L464 275 Q465 315 452 347 Q439 379 416 401.5 Q393 424 362.5 435.5 Q332 447 298 447 Z " />
<glyph glyph-name="eacute" unicode="&#xe9;" horiz-adv-x="572" d="M300 493 Q344 493 383.5 478 Q423 463 452.5 435 Q482 407 499 367 Q516 327 516 278 Q516 260 514.5 246.5 Q513 233 512 230 L108 230 Q110 188 126 152.5 Q142 117 168.5 91.5 Q195 66 230.5 51.5 Q266 37 307 37 Q358 37 398 57.5 Q438 78 468 113 L500 80 Q465 38 415.5 14 Q366 -10 306 -10 Q253 -10 207.5 9.5 Q162 29 128.5 62.5 Q95 96 75.5 142 Q56 188 56 241 Q56 293 75 339 Q94 385 127 419.5 Q160 454 204.5 473.5 Q249 493 300 493 Z M298 447 Q261 447 229 434 Q197 421 172.5 398 Q148 375 131.5 343.5 Q115 312 110 275 L464 275 Q465 315 452 347 Q439 379 416 401.5 Q393 424 362.5 435.5 Q332 447 298 447 Z M433 771 L320 564 L280 564 L371 780 L433 780 L433 771 Z " />
<glyph glyph-name="ebreve" unicode="&#x115;" horiz-adv-x="572" d="M300 493 Q344 493 383.5 478 Q423 463 452.5 435 Q482 407 499 367 Q516 327 516 278 Q516 260 514.5 246.5 Q513 233 512 230 L108 230 Q110 188 126 152.5 Q142 117 168.5 91.5 Q195 66 230.5 51.5 Q266 37 307 37 Q358 37 398 57.5 Q438 78 468 113 L500 80 Q465 38 415.5 14 Q366 -10 306 -10 Q253 -10 207.5 9.5 Q162 29 128.5 62.5 Q95 96 75.5 142 Q56 188 56 241 Q56 293 75 339 Q94 385 127 419.5 Q160 454 204.5 473.5 Q249 493 300 493 Z M298 447 Q261 447 229 434 Q197 421 172.5 398 Q148 375 131.5 343.5 Q115 312 110 275 L464 275 Q465 315 452 347 Q439 379 416 401.5 Q393 424 362.5 435.5 Q332 447 298 447 Z M441 729 Q441 699 430 672.5 Q419 646 400 627 Q381 608 355 597 Q329 586 299 586 Q268 586 242 597 Q216 608 197 627 Q178 646 167 672.5 Q156 699 156 729 L201 729 Q201 681 229 654.5 Q257 628 299 628 Q340 628 368 654.5 Q396 681 396 729 L441 729 Z " />
<glyph glyph-name="ecaron" unicode="&#x11b;" horiz-adv-x="572" d="M300 493 Q344 493 383.5 478 Q423 463 452.5 435 Q482 407 499 367 Q516 327 516 278 Q516 260 514.5 246.5 Q513 233 512 230 L108 230 Q110 188 126 152.5 Q142 117 168.5 91.5 Q195 66 230.5 51.5 Q266 37 307 37 Q358 37 398 57.5 Q438 78 468 113 L500 80 Q465 38 415.5 14 Q366 -10 306 -10 Q253 -10 207.5 9.5 Q162 29 128.5 62.5 Q95 96 75.5 142 Q56 188 56 241 Q56 293 75 339 Q94 385 127 419.5 Q160 454 204.5 473.5 Q249 493 300 493 Z M298 447 Q261 447 229 434 Q197 421 172.5 398 Q148 375 131.5 343.5 Q115 312 110 275 L464 275 Q465 315 452 347 Q439 379 416 401.5 Q393 424 362.5 435.5 Q332 447 298 447 Z M313 564 L284 564 L148 780 L189 780 L299 628 L408 780 L449 780 L313 564 Z " />
<glyph glyph-name="ecircumflex" unicode="&#xea;" horiz-adv-x="572" d="M300 493 Q344 493 383.5 478 Q423 463 452.5 435 Q482 407 499 367 Q516 327 516 278 Q516 260 514.5 246.5 Q513 233 512 230 L108 230 Q110 188 126 152.5 Q142 117 168.5 91.5 Q195 66 230.5 51.5 Q266 37 307 37 Q358 37 398 57.5 Q438 78 468 113 L500 80 Q465 38 415.5 14 Q366 -10 306 -10 Q253 -10 207.5 9.5 Q162 29 128.5 62.5 Q95 96 75.5 142 Q56 188 56 241 Q56 293 75 339 Q94 385 127 419.5 Q160 454 204.5 473.5 Q249 493 300 493 Z M298 447 Q261 447 229 434 Q197 421 172.5 398 Q148 375 131.5 343.5 Q115 312 110 275 L464 275 Q465 315 452 347 Q439 379 416 401.5 Q393 424 362.5 435.5 Q332 447 298 447 Z M449 564 L408 564 L299 715 L189 564 L148 564 L284 780 L313 780 L449 564 Z " />
<glyph glyph-name="edieresis" unicode="&#xeb;" horiz-adv-x="572" d="M300 493 Q344 493 383.5 478 Q423 463 452.5 435 Q482 407 499 367 Q516 327 516 278 Q516 260 514.5 246.5 Q513 233 512 230 L108 230 Q110 188 126 152.5 Q142 117 168.5 91.5 Q195 66 230.5 51.5 Q266 37 307 37 Q358 37 398 57.5 Q438 78 468 113 L500 80 Q465 38 415.5 14 Q366 -10 306 -10 Q253 -10 207.5 9.5 Q162 29 128.5 62.5 Q95 96 75.5 142 Q56 188 56 241 Q56 293 75 339 Q94 385 127 419.5 Q160 454 204.5 473.5 Q249 493 300 493 Z M298 447 Q261 447 229 434 Q197 421 172.5 398 Q148 375 131.5 343.5 Q115 312 110 275 L464 275 Q465 315 452 347 Q439 379 416 401.5 Q393 424 362.5 435.5 Q332 447 298 447 Z M398 712 Q416 712 428.5 699.5 Q441 687 441 669 Q441 652 428.5 639.5 Q416 627 398 627 Q381 627 368 639.5 Q355 652 355 669 Q355 687 368 699.5 Q381 712 398 712 Z M198 712 Q216 712 228.5 699.5 Q241 687 241 669 Q241 652 228.5 639.5 Q216 627 198 627 Q181 627 168 639.5 Q155 652 155 669 Q155 687 168 699.5 Q181 712 198 712 Z " />
<glyph glyph-name="edotaccent" unicode="&#x117;" horiz-adv-x="572" d="M300 493 Q344 493 383.5 478 Q423 463 452.5 435 Q482 407 499 367 Q516 327 516 278 Q516 260 514.5 246.5 Q513 233 512 230 L108 230 Q110 188 126 152.5 Q142 117 168.5 91.5 Q195 66 230.5 51.5 Q266 37 307 37 Q358 37 398 57.5 Q438 78 468 113 L500 80 Q465 38 415.5 14 Q366 -10 306 -10 Q253 -10 207.5 9.5 Q162 29 128.5 62.5 Q95 96 75.5 142 Q56 188 56 241 Q56 293 75 339 Q94 385 127 419.5 Q160 454 204.5 473.5 Q249 493 300 493 Z M298 447 Q261 447 229 434 Q197 421 172.5 398 Q148 375 131.5 343.5 Q115 312 110 275 L464 275 Q465 315 452 347 Q439 379 416 401.5 Q393 424 362.5 435.5 Q332 447 298 447 Z M299 713 Q318 713 330.5 700 Q343 687 343 669 Q343 651 330.5 638 Q318 625 299 625 Q281 625 268 638 Q255 651 255 669 Q255 687 268 700 Q281 713 299 713 Z " />
<glyph glyph-name="egrave" unicode="&#xe8;" horiz-adv-x="572" d="M300 493 Q344 493 383.5 478 Q423 463 452.5 435 Q482 407 499 367 Q516 327 516 278 Q516 260 514.5 246.5 Q513 233 512 230 L108 230 Q110 188 126 152.5 Q142 117 168.5 91.5 Q195 66 230.5 51.5 Q266 37 307 37 Q358 37 398 57.5 Q438 78 468 113 L500 80 Q465 38 415.5 14 Q366 -10 306 -10 Q253 -10 207.5 9.5 Q162 29 128.5 62.5 Q95 96 75.5 142 Q56 188 56 241 Q56 293 75 339 Q94 385 127 419.5 Q160 454 204.5 473.5 Q249 493 300 493 Z M298 447 Q261 447 229 434 Q197 421 172.5 398 Q148 375 131.5 343.5 Q115 312 110 275 L464 275 Q465 315 452 347 Q439 379 416 401.5 Q393 424 362.5 435.5 Q332 447 298 447 Z M321 564 L281 564 L168 771 L168 780 L230 780 L321 564 Z " />
<glyph glyph-name="emacron" unicode="&#x113;" horiz-adv-x="572" d="M300 493 Q344 493 383.5 478 Q423 463 452.5 435 Q482 407 499 367 Q516 327 516 278 Q516 260 514.5 246.5 Q513 233 512 230 L108 230 Q110 188 126 152.5 Q142 117 168.5 91.5 Q195 66 230.5 51.5 Q266 37 307 37 Q358 37 398 57.5 Q438 78 468 113 L500 80 Q465 38 415.5 14 Q366 -10 306 -10 Q253 -10 207.5 9.5 Q162 29 128.5 62.5 Q95 96 75.5 142 Q56 188 56 241 Q56 293 75 339 Q94 385 127 419.5 Q160 454 204.5 473.5 Q249 493 300 493 Z M298 447 Q261 447 229 434 Q197 421 172.5 398 Q148 375 131.5 343.5 Q115 312 110 275 L464 275 Q465 315 452 347 Q439 379 416 401.5 Q393 424 362.5 435.5 Q332 447 298 447 Z M430 648 L168 648 L168 691 L430 691 L430 648 Z " />
<glyph glyph-name="eogonek" unicode="&#x119;" horiz-adv-x="572" d="M300 493 Q344 493 383.5 478 Q423 463 452.5 435 Q482 407 499 367 Q516 327 516 278 Q516 260 514.5 246.5 Q513 233 512 230 L108 230 Q110 188 126 152.5 Q142 117 168.5 91.5 Q195 66 230.5 51.5 Q266 37 307 37 Q358 37 398.5 57.5 Q439 78 470 114 L500 81 Q474 48 439.5 25.5 Q405 3 370 -22 Q343 -42 325.5 -60.5 Q308 -79 308 -102 Q308 -125 324 -136.5 Q340 -148 367 -148 Q394 -148 424 -140 L424 -179 Q412 -184 395 -187 Q378 -190 358 -190 Q316 -190 287 -169.5 Q258 -149 258 -110 Q258 -81 276 -58 Q294 -35 336 -8 Q328 -9 320 -9.5 Q312 -10 304 -10 Q252 -10 207 9.5 Q162 29 128.5 62.5 Q95 96 75.5 142 Q56 188 56 241 Q56 293 75 339 Q94 385 127 419.5 Q160 454 204.5 473.5 Q249 493 300 493 Z M298 447 Q261 447 229 434 Q197 421 172.5 398 Q148 375 131.5 343.5 Q115 312 110 275 L464 275 Q465 315 452 347 Q439 379 416 401.5 Q393 424 362.5 435.5 Q332 447 298 447 Z " />
<glyph glyph-name="f" unicode="f" horiz-adv-x="284" d="M277 437 L150 437 L150 0 L100 0 L100 437 L30 437 L30 483 L100 483 L100 615 Q100 654 111 682 Q122 710 142 727 Q162 744 188.5 752 Q215 760 247 760 Q277 760 301 754 L301 710 Q289 712 278 713 Q267 714 256 714 Q233 714 214 709.5 Q195 705 180.5 693.5 Q166 682 158 662.5 Q150 643 150 613 L150 483 L277 483 L277 437 Z " />
<glyph glyph-name="g" unicode="g" horiz-adv-x="640" d="M301 494 Q364 494 418 465 Q472 436 499 387 L499 483 L547 483 L547 43 Q547 -12 530 -55.5 Q513 -99 482 -129 Q451 -159 409 -174.5 Q367 -190 316 -190 Q244 -190 186.5 -162.5 Q129 -135 94 -96 L125 -62 Q160 -97 207.5 -120 Q255 -143 315 -143 Q355 -143 388.5 -131 Q422 -119 446 -96 Q470 -73 483.5 -38.5 Q497 -4 497 41 L497 105 Q469 57 416 29.5 Q363 2 301 2 Q250 2 206.5 21 Q163 40 130.5 73 Q98 106 80 151 Q62 196 62 248 Q62 299 80 344 Q98 389 130.5 422.5 Q163 456 206.5 475 Q250 494 301 494 Z M307 446 Q265 446 229.5 430.5 Q194 415 168.5 388.5 Q143 362 128.5 325.5 Q114 289 114 247 Q114 205 128.5 169 Q143 133 168.5 106 Q194 79 229.5 64 Q265 49 307 49 Q343 49 377 60.5 Q411 72 437.5 96.5 Q464 121 480.5 158.5 Q497 196 497 248 Q497 300 480.5 337.5 Q464 375 437 399 Q410 423 376 434.5 Q342 446 307 446 Z " />
<glyph glyph-name="gbreve" unicode="&#x11f;" horiz-adv-x="640" d="M301 494 Q364 494 418 465 Q472 436 499 387 L499 483 L547 483 L547 43 Q547 -12 530 -55.5 Q513 -99 482 -129 Q451 -159 409 -174.5 Q367 -190 316 -190 Q244 -190 186.5 -162.5 Q129 -135 94 -96 L125 -62 Q160 -97 207.5 -120 Q255 -143 315 -143 Q355 -143 388.5 -131 Q422 -119 446 -96 Q470 -73 483.5 -38.5 Q497 -4 497 41 L497 105 Q469 57 416 29.5 Q363 2 301 2 Q250 2 206.5 21 Q163 40 130.5 73 Q98 106 80 151 Q62 196 62 248 Q62 299 80 344 Q98 389 130.5 422.5 Q163 456 206.5 475 Q250 494 301 494 Z M307 446 Q265 446 229.5 430.5 Q194 415 168.5 388.5 Q143 362 128.5 325.5 Q114 289 114 247 Q114 205 128.5 169 Q143 133 168.5 106 Q194 79 229.5 64 Q265 49 307 49 Q343 49 377 60.5 Q411 72 437.5 96.5 Q464 121 480.5 158.5 Q497 196 497 248 Q497 300 480.5 337.5 Q464 375 437 399 Q410 423 376 434.5 Q342 446 307 446 Z M453 729 Q453 699 442 672.5 Q431 646 412 627 Q393 608 367 597 Q341 586 311 586 Q280 586 254 597 Q228 608 209 627 Q190 646 179 672.5 Q168 699 168 729 L213 729 Q213 681 241 654.5 Q269 628 311 628 Q352 628 380 654.5 Q408 681 408 729 L453 729 Z " />
<glyph glyph-name="gcircumflex" unicode="&#x11d;" horiz-adv-x="640" d="M301 494 Q364 494 418 465 Q472 436 499 387 L499 483 L547 483 L547 43 Q547 -12 530 -55.5 Q513 -99 482 -129 Q451 -159 409 -174.5 Q367 -190 316 -190 Q244 -190 186.5 -162.5 Q129 -135 94 -96 L125 -62 Q160 -97 207.5 -120 Q255 -143 315 -143 Q355 -143 388.5 -131 Q422 -119 446 -96 Q470 -73 483.5 -38.5 Q497 -4 497 41 L497 105 Q469 57 416 29.5 Q363 2 301 2 Q250 2 206.5 21 Q163 40 130.5 73 Q98 106 80 151 Q62 196 62 248 Q62 299 80 344 Q98 389 130.5 422.5 Q163 456 206.5 475 Q250 494 301 494 Z M307 446 Q265 446 229.5 430.5 Q194 415 168.5 388.5 Q143 362 128.5 325.5 Q114 289 114 247 Q114 205 128.5 169 Q143 133 168.5 106 Q194 79 229.5 64 Q265 49 307 49 Q343 49 377 60.5 Q411 72 437.5 96.5 Q464 121 480.5 158.5 Q497 196 497 248 Q497 300 480.5 337.5 Q464 375 437 399 Q410 423 376 434.5 Q342 446 307 446 Z M461 564 L420 564 L311 715 L201 564 L160 564 L296 780 L325 780 L461 564 Z " />
<glyph glyph-name="gcommaaccent" unicode="&#x123;" horiz-adv-x="640" d="M301 494 Q364 494 418 465 Q472 436 499 387 L499 483 L547 483 L547 43 Q547 -12 530 -55.5 Q513 -99 482 -129 Q451 -159 409 -174.5 Q367 -190 316 -190 Q244 -190 186.5 -162.5 Q129 -135 94 -96 L125 -62 Q160 -97 207.5 -120 Q255 -143 315 -143 Q355 -143 388.5 -131 Q422 -119 446 -96 Q470 -73 483.5 -38.5 Q497 -4 497 41 L497 105 Q469 57 416 29.5 Q363 2 301 2 Q250 2 206.5 21 Q163 40 130.5 73 Q98 106 80 151 Q62 196 62 248 Q62 299 80 344 Q98 389 130.5 422.5 Q163 456 206.5 475 Q250 494 301 494 Z M307 446 Q265 446 229.5 430.5 Q194 415 168.5 388.5 Q143 362 128.5 325.5 Q114 289 114 247 Q114 205 128.5 169 Q143 133 168.5 106 Q194 79 229.5 64 Q265 49 307 49 Q343 49 377 60.5 Q411 72 437.5 96.5 Q464 121 480.5 158.5 Q497 196 497 248 Q497 300 480.5 337.5 Q464 375 437 399 Q410 423 376 434.5 Q342 446 307 446 Z M337 564 L283 564 L314 780 L354 780 L337 564 Z " />
<glyph glyph-name="gdotaccent" unicode="&#x121;" horiz-adv-x="640" d="M301 494 Q364 494 418 465 Q472 436 499 387 L499 483 L547 483 L547 43 Q547 -12 530 -55.5 Q513 -99 482 -129 Q451 -159 409 -174.5 Q367 -190 316 -190 Q244 -190 186.5 -162.5 Q129 -135 94 -96 L125 -62 Q160 -97 207.5 -120 Q255 -143 315 -143 Q355 -143 388.5 -131 Q422 -119 446 -96 Q470 -73 483.5 -38.5 Q497 -4 497 41 L497 105 Q469 57 416 29.5 Q363 2 301 2 Q250 2 206.5 21 Q163 40 130.5 73 Q98 106 80 151 Q62 196 62 248 Q62 299 80 344 Q98 389 130.5 422.5 Q163 456 206.5 475 Q250 494 301 494 Z M307 446 Q265 446 229.5 430.5 Q194 415 168.5 388.5 Q143 362 128.5 325.5 Q114 289 114 247 Q114 205 128.5 169 Q143 133 168.5 106 Q194 79 229.5 64 Q265 49 307 49 Q343 49 377 60.5 Q411 72 437.5 96.5 Q464 121 480.5 158.5 Q497 196 497 248 Q497 300 480.5 337.5 Q464 375 437 399 Q410 423 376 434.5 Q342 446 307 446 Z M311 713 Q330 713 342.5 700 Q355 687 355 669 Q355 651 342.5 638 Q330 625 311 625 Q293 625 280 638 Q267 651 267 669 Q267 687 280 700 Q293 713 311 713 Z " />
<glyph glyph-name="h" unicode="h" horiz-adv-x="558" d="M143 416 Q166 452 205.5 472.5 Q245 493 296 493 Q338 493 370.5 479 Q403 465 425.5 440 Q448 415 460 380.5 Q472 346 472 305 L472 0 L422 0 L422 301 Q422 365 386 405.5 Q350 446 287 446 Q255 446 229 435 Q203 424 183.5 405 Q164 386 153.5 359 Q143 332 143 301 L143 0 L93 0 L93 750 L143 750 L143 416 Z " />
<glyph glyph-name="hbar" unicode="&#x127;" horiz-adv-x="559" d="M351 593 L144 593 L144 410 Q167 446 206 467 Q245 488 296 488 Q338 488 371 474 Q404 460 426.5 435 Q449 410 461 375.5 Q473 341 473 300 L473 0 L423 0 L423 296 Q423 359 387 399.5 Q351 440 288 440 Q256 440 230 429 Q204 418 184.5 399 Q165 380 154.5 353.5 Q144 327 144 296 L144 0 L94 0 L94 593 L10 593 L10 639 L94 639 L94 750 L144 750 L144 639 L351 639 L351 593 Z " />
<glyph glyph-name="hcircumflex" unicode="&#x125;" horiz-adv-x="558" d="M143 416 Q166 452 205.5 472.5 Q245 493 296 493 Q338 493 370.5 479 Q403 465 425.5 440 Q448 415 460 380.5 Q472 346 472 305 L472 0 L422 0 L422 301 Q422 365 386 405.5 Q350 446 287 446 Q255 446 229 435 Q203 424 183.5 405 Q164 386 153.5 359 Q143 332 143 301 L143 0 L93 0 L93 750 L143 750 L143 416 Z M304 814 L262 814 L143 943 L24 814 L-18 814 L128 1000 L158 1000 L304 814 Z " />
<glyph glyph-name="i" unicode="i" horiz-adv-x="236" d="M143 0 L93 0 L93 483 L143 483 L143 0 Z M118 713 Q137 713 149.5 700 Q162 687 162 669 Q162 651 149.5 638 Q137 625 118 625 Q100 625 87 638 Q74 651 74 669 Q74 687 87 700 Q100 713 118 713 Z " />
<glyph glyph-name="dotlessi" unicode="&#x131;" horiz-adv-x="236" d="M143 0 L93 0 L93 483 L143 483 L143 0 Z " />
<glyph glyph-name="iacute" unicode="&#xed;" horiz-adv-x="236" d="M143 0 L93 0 L93 483 L143 483 L143 0 Z M220 771 L137 564 L97 564 L158 780 L220 780 L220 771 Z " />
<glyph glyph-name="ibreve" unicode="&#x12d;" horiz-adv-x="236" d="M143 0 L93 0 L93 483 L143 483 L143 0 Z M261 729 Q261 699 250 672.5 Q239 646 220 627 Q201 608 175 597 Q149 586 119 586 Q88 586 62 597 Q36 608 17 627 Q-2 646 -13 672.5 Q-24 699 -24 729 L21 729 Q21 681 49 654.5 Q77 628 119 628 Q160 628 188 654.5 Q216 681 216 729 L261 729 Z " />
<glyph glyph-name="icircumflex" unicode="&#xee;" horiz-adv-x="236" d="M143 0 L93 0 L93 483 L143 483 L143 0 Z M269 564 L228 564 L119 715 L9 564 L-32 564 L104 780 L133 780 L269 564 Z " />
<glyph glyph-name="idieresis" unicode="&#xef;" horiz-adv-x="236" d="M143 0 L93 0 L93 483 L143 483 L143 0 Z M203 712 Q221 712 233.5 699.5 Q246 687 246 669 Q246 652 233.5 639.5 Q221 627 203 627 Q186 627 173 639.5 Q160 652 160 669 Q160 687 173 699.5 Q186 712 203 712 Z M33 712 Q51 712 63.5 699.5 Q76 687 76 669 Q76 652 63.5 639.5 Q51 627 33 627 Q16 627 3 639.5 Q-10 652 -10 669 Q-10 687 3 699.5 Q16 712 33 712 Z " />
<glyph glyph-name="igrave" unicode="&#xec;" horiz-adv-x="236" d="M143 0 L93 0 L93 483 L143 483 L143 0 Z M141 564 L101 564 L18 771 L18 780 L80 780 L141 564 Z " />
<glyph glyph-name="ij" unicode="&#x133;" horiz-adv-x="472" d="M379 -45 Q379 -84 368 -112 Q357 -140 337 -157 Q317 -174 290 -182 Q263 -190 232 -190 Q202 -190 177 -184 L177 -140 Q200 -144 224 -144 Q246 -144 265 -139.5 Q284 -135 298.5 -123.5 Q313 -112 321 -92.5 Q329 -73 329 -43 L329 483 L379 483 L379 -45 Z M354 713 Q373 713 385.5 700 Q398 687 398 669 Q398 651 385.5 638 Q373 625 354 625 Q336 625 323 638 Q310 651 310 669 Q310 687 323 700 Q336 713 354 713 Z M143 0 L93 0 L93 483 L143 483 L143 0 Z M118 713 Q137 713 149.5 700 Q162 687 162 669 Q162 651 149.5 638 Q137 625 118 625 Q100 625 87 638 Q74 651 74 669 Q74 687 87 700 Q100 713 118 713 Z " />
<glyph glyph-name="imacron" unicode="&#x12b;" horiz-adv-x="236" d="M143 0 L93 0 L93 483 L143 483 L143 0 Z M222 647 L17 647 L17 691 L222 691 L222 647 Z " />
<glyph glyph-name="iogonek" unicode="&#x12f;" horiz-adv-x="236" d="M143 0 L93 0 L93 483 L143 483 L143 0 Z M118 713 Q137 713 149.5 700 Q162 687 162 669 Q162 651 149.5 638 Q137 625 118 625 Q100 625 87 638 Q74 651 74 669 Q74 687 87 700 Q100 713 118 713 Z M144 0 L90 -35 Q62 -53 45.5 -67 Q29 -81 29 -103 Q29 -124 44.5 -136 Q60 -148 86 -148 Q99 -148 114.5 -145.5 Q130 -143 144 -140 L144 -180 Q130 -184 113 -187 Q96 -190 78 -190 Q36 -190 7 -169 Q-22 -148 -22 -110 Q-22 -92 -14 -76 Q-6 -60 12 -44 Q30 -28 58 -11 Q86 6 125 27 L144 0 Z " />
<glyph glyph-name="itilde" unicode="&#x129;" horiz-adv-x="236" d="M143 0 L93 0 L93 483 L143 483 L143 0 Z M56 729 Q76 729 91 720 Q106 711 118 697 L138 675 Q149 663 156.5 656.5 Q164 650 175 650 Q192 650 198.5 663.5 Q205 677 205 696 L205 715 L249 715 Q249 713 249.5 707 Q250 701 250 694 Q250 677 246 660.5 Q242 644 233.5 631.5 Q225 619 212 611 Q199 603 181 603 Q161 603 147 612.5 Q133 622 120 636 L100 658 Q89 669 81 675.5 Q73 682 62 682 Q45 682 38 668.5 Q31 655 31 637 L31 617 L-13 617 Q-13 619 -13.5 625 Q-14 631 -14 638 Q-14 655 -10 671.5 Q-6 688 3 700.5 Q12 713 25 721 Q38 729 56 729 Z " />
<glyph glyph-name="j" unicode="j" horiz-adv-x="236" d="M143 -45 Q143 -84 132 -112 Q121 -140 101 -157 Q81 -174 54 -182 Q27 -190 -4 -190 Q-34 -190 -59 -184 L-59 -140 Q-36 -144 -12 -144 Q10 -144 29 -139.5 Q48 -135 62.5 -123.5 Q77 -112 85 -92.5 Q93 -73 93 -43 L93 483 L143 483 L143 -45 Z M118 713 Q137 713 149.5 700 Q162 687 162 669 Q162 651 149.5 638 Q137 625 118 625 Q100 625 87 638 Q74 651 74 669 Q74 687 87 700 Q100 713 118 713 Z " />
<glyph glyph-name="dotlessj" unicode="&#x237;" horiz-adv-x="236" d="M143 -45 Q143 -84 132 -112 Q121 -140 101 -157 Q81 -174 54 -182 Q27 -190 -4 -190 Q-34 -190 -59 -184 L-59 -140 Q-36 -144 -12 -144 Q10 -144 29 -139.5 Q48 -135 62.5 -123.5 Q77 -112 85 -92.5 Q93 -73 93 -43 L93 483 L143 483 L143 -45 Z " />
<glyph glyph-name="jcircumflex" unicode="&#x135;" horiz-adv-x="236" d="M143 -45 Q143 -84 132 -112 Q121 -140 101 -157 Q81 -174 54 -182 Q27 -190 -4 -190 Q-34 -190 -59 -184 L-59 -140 Q-36 -144 -12 -144 Q10 -144 29 -139.5 Q48 -135 62.5 -123.5 Q77 -112 85 -92.5 Q93 -73 93 -43 L93 483 L143 483 L143 -45 Z M269 564 L228 564 L119 715 L9 564 L-32 564 L104 780 L133 780 L269 564 Z " />
<glyph glyph-name="k" unicode="k" horiz-adv-x="482" d="M143 0 L93 0 L93 750 L143 750 L143 0 Z M222 270 L465 0 L400 0 L158 272 L376 483 L444 483 L222 270 Z " />
<glyph glyph-name="kcommaaccent" unicode="&#x137;" horiz-adv-x="482" d="M143 0 L93 0 L93 750 L143 750 L143 0 Z M222 270 L465 0 L400 0 L158 272 L376 483 L444 483 L222 270 Z M243 -220 L202 -220 L214 -51 L267 -51 L243 -220 Z " />
<glyph glyph-name="l" unicode="l" horiz-adv-x="236" d="M143 0 L93 0 L93 750 L143 750 L143 0 Z " />
<glyph glyph-name="lacute" unicode="&#x13a;" horiz-adv-x="236" d="M143 0 L93 0 L93 750 L143 750 L143 0 Z M250 991 L137 814 L97 814 L188 1000 L250 1000 L250 991 Z " />
<glyph glyph-name="lcaron" unicode="&#x13e;" horiz-adv-x="236" d="M143 0 L93 0 L93 750 L143 750 L143 0 Z M284 540 L244 540 L261 750 L319 750 L284 540 Z " />
<glyph glyph-name="lcommaaccent" unicode="&#x13c;" horiz-adv-x="236" d="M143 0 L93 0 L93 750 L143 750 L143 0 Z M120 -220 L79 -220 L91 -51 L144 -51 L120 -220 Z " />
<glyph glyph-name="ldot" unicode="&#x140;" horiz-adv-x="238" d="M143 0 L93 0 L93 750 L143 750 L143 0 Z M251 360 Q271 360 286 346.5 Q301 333 301 310 Q301 288 286 275 Q271 262 251 262 Q232 262 217 275 Q202 288 202 310 Q202 333 217 346.5 Q232 360 251 360 Z " />
<glyph glyph-name="lslash" unicode="&#x142;" horiz-adv-x="286" d="M251 399 L164 358 L164 0 L114 0 L114 341 L32 303 L32 352 L114 390 L114 750 L164 750 L164 407 L251 448 L251 399 Z " />
<glyph glyph-name="m" unicode="m" horiz-adv-x="866" d="M609 493 Q651 493 683 479 Q715 465 736.5 440 Q758 415 769.5 380.5 Q781 346 781 305 L781 0 L731 0 L731 301 Q731 364 697.5 405 Q664 446 603 446 Q572 446 546 435 Q520 424 501.5 405 Q483 386 472.5 361.5 Q462 337 462 309 L462 0 L412 0 L412 301 Q412 365 378.5 405.5 Q345 446 283 446 Q252 446 226 435 Q200 424 181.5 405 Q163 386 153 359 Q143 332 143 301 L143 0 L93 0 L93 483 L141 483 L141 419 Q164 454 202 473.5 Q240 493 290 493 Q347 493 385 467.5 Q423 442 443 399 Q465 439 507 466 Q549 493 609 493 Z " />
<glyph glyph-name="n" unicode="n" horiz-adv-x="558" d="M295 493 Q337 493 370 479 Q403 465 425.5 440 Q448 415 460 380.5 Q472 346 472 305 L472 0 L422 0 L422 302 Q422 365 386 405.5 Q350 446 287 446 Q255 446 229 435 Q203 424 183.5 405 Q164 386 153.5 359.5 Q143 333 143 302 L143 0 L93 0 L93 483 L141 483 L141 417 Q165 452 204.5 472.5 Q244 493 295 493 Z " />
<glyph glyph-name="nacute" unicode="&#x144;" horiz-adv-x="558" d="M295 493 Q337 493 370 479 Q403 465 425.5 440 Q448 415 460 380.5 Q472 346 472 305 L472 0 L422 0 L422 302 Q422 365 386 405.5 Q350 446 287 446 Q255 446 229 435 Q203 424 183.5 405 Q164 386 153.5 359.5 Q143 333 143 302 L143 0 L93 0 L93 483 L141 483 L141 417 Q165 452 204.5 472.5 Q244 493 295 493 Z M418 771 L305 564 L265 564 L356 780 L418 780 L418 771 Z " />
<glyph glyph-name="ncaron" unicode="&#x148;" horiz-adv-x="558" d="M295 493 Q337 493 370 479 Q403 465 425.5 440 Q448 415 460 380.5 Q472 346 472 305 L472 0 L422 0 L422 302 Q422 365 386 405.5 Q350 446 287 446 Q255 446 229 435 Q203 424 183.5 405 Q164 386 153.5 359.5 Q143 333 143 302 L143 0 L93 0 L93 483 L141 483 L141 417 Q165 452 204.5 472.5 Q244 493 295 493 Z M298 564 L269 564 L133 780 L174 780 L284 628 L393 780 L434 780 L298 564 Z " />
<glyph glyph-name="ncommaaccent" unicode="&#x146;" horiz-adv-x="558" d="M295 493 Q337 493 370 479 Q403 465 425.5 440 Q448 415 460 380.5 Q472 346 472 305 L472 0 L422 0 L422 302 Q422 365 386 405.5 Q350 446 287 446 Q255 446 229 435 Q203 424 183.5 405 Q164 386 153.5 359.5 Q143 333 143 302 L143 0 L93 0 L93 483 L141 483 L141 417 Q165 452 204.5 472.5 Q244 493 295 493 Z M286 -220 L245 -220 L257 -51 L310 -51 L286 -220 Z " />
<glyph glyph-name="eng" unicode="&#x14b;" horiz-adv-x="558" d="M295 493 Q337 493 370 479 Q403 465 425.5 440 Q448 415 460 380.5 Q472 346 472 305 L472 -45 Q472 -84 461 -112 Q450 -140 430.5 -157 Q411 -174 384 -182 Q357 -190 326 -190 Q296 -190 271 -184 L271 -140 Q294 -144 317 -144 Q339 -144 358 -139.5 Q377 -135 391.5 -123.5 Q406 -112 414 -92.5 Q422 -73 422 -43 L422 301 Q422 365 386 405.5 Q350 446 287 446 Q255 446 229 435 Q203 424 183.5 405 Q164 386 153.5 359 Q143 332 143 301 L143 0 L93 0 L93 483 L141 483 L141 417 Q165 452 204.5 472.5 Q244 493 295 493 Z " />
<glyph glyph-name="ntilde" unicode="&#xf1;" horiz-adv-x="558" d="M295 493 Q337 493 370 479 Q403 465 425.5 440 Q448 415 460 380.5 Q472 346 472 305 L472 0 L422 0 L422 302 Q422 365 386 405.5 Q350 446 287 446 Q255 446 229 435 Q203 424 183.5 405 Q164 386 153.5 359.5 Q143 333 143 302 L143 0 L93 0 L93 483 L141 483 L141 417 Q165 452 204.5 472.5 Q244 493 295 493 Z M215 729 Q235 729 250.5 721 Q266 713 280 699 L305 674 Q317 662 326.5 656 Q336 650 348 650 Q365 650 372 663.5 Q379 677 379 696 L379 715 L423 715 Q424 710 424 704.5 Q424 699 424 693 Q424 676 420 659.5 Q416 643 407 630.5 Q398 618 384.5 610.5 Q371 603 353 603 Q333 603 317.5 611 Q302 619 288 633 L262 658 Q250 670 241 676 Q232 682 220 682 Q202 682 195 668.5 Q188 655 188 637 L188 617 L144 617 Q143 623 143 628 Q143 633 143 639 Q143 674 160.5 701.5 Q178 729 215 729 Z " />
<glyph glyph-name="o" unicode="o" horiz-adv-x="612" d="M306 493 Q358 493 403.5 473.5 Q449 454 483 420.5 Q517 387 536.5 341 Q556 295 556 242 Q556 189 536.5 143 Q517 97 483 63 Q449 29 403 9.5 Q357 -10 305 -10 Q253 -10 207.5 9.5 Q162 29 128.5 63 Q95 97 75.5 143 Q56 189 56 242 Q56 295 75.5 341 Q95 387 128.5 420.5 Q162 454 207.5 473.5 Q253 493 306 493 Z M306 446 Q263 446 227 430.5 Q191 415 164.5 387 Q138 359 123 321.5 Q108 284 108 241 Q108 198 123 160.5 Q138 123 164 95.5 Q190 68 226.5 52.5 Q263 37 305 37 Q347 37 383.5 53 Q420 69 447 96.5 Q474 124 489 161 Q504 198 504 241 Q504 284 489 321.5 Q474 359 447 387 Q420 415 384 430.5 Q348 446 306 446 Z " />
<glyph glyph-name="oacute" unicode="&#xf3;" horiz-adv-x="612" d="M306 493 Q358 493 403.5 473.5 Q449 454 483 420.5 Q517 387 536.5 341 Q556 295 556 242 Q556 189 536.5 143 Q517 97 483 63 Q449 29 403 9.5 Q357 -10 305 -10 Q253 -10 207.5 9.5 Q162 29 128.5 63 Q95 97 75.5 143 Q56 189 56 242 Q56 295 75.5 341 Q95 387 128.5 420.5 Q162 454 207.5 473.5 Q253 493 306 493 Z M306 446 Q263 446 227 430.5 Q191 415 164.5 387 Q138 359 123 321.5 Q108 284 108 241 Q108 198 123 160.5 Q138 123 164 95.5 Q190 68 226.5 52.5 Q263 37 305 37 Q347 37 383.5 53 Q420 69 447 96.5 Q474 124 489 161 Q504 198 504 241 Q504 284 489 321.5 Q474 359 447 387 Q420 415 384 430.5 Q348 446 306 446 Z M440 771 L327 564 L287 564 L378 780 L440 780 L440 771 Z " />
<glyph glyph-name="obreve" unicode="&#x14f;" horiz-adv-x="612" d="M306 493 Q358 493 403.5 473.5 Q449 454 483 420.5 Q517 387 536.5 341 Q556 295 556 242 Q556 189 536.5 143 Q517 97 483 63 Q449 29 403 9.5 Q357 -10 305 -10 Q253 -10 207.5 9.5 Q162 29 128.5 63 Q95 97 75.5 143 Q56 189 56 242 Q56 295 75.5 341 Q95 387 128.5 420.5 Q162 454 207.5 473.5 Q253 493 306 493 Z M306 446 Q263 446 227 430.5 Q191 415 164.5 387 Q138 359 123 321.5 Q108 284 108 241 Q108 198 123 160.5 Q138 123 164 95.5 Q190 68 226.5 52.5 Q263 37 305 37 Q347 37 383.5 53 Q420 69 447 96.5 Q474 124 489 161 Q504 198 504 241 Q504 284 489 321.5 Q474 359 447 387 Q420 415 384 430.5 Q348 446 306 446 Z M448 729 Q448 699 437 672.5 Q426 646 407 627 Q388 608 362 597 Q336 586 306 586 Q275 586 249 597 Q223 608 204 627 Q185 646 174 672.5 Q163 699 163 729 L208 729 Q208 681 236 654.5 Q264 628 306 628 Q347 628 375 654.5 Q403 681 403 729 L448 729 Z " />
<glyph glyph-name="ocircumflex" unicode="&#xf4;" horiz-adv-x="612" d="M306 493 Q358 493 403.5 473.5 Q449 454 483 420.5 Q517 387 536.5 341 Q556 295 556 242 Q556 189 536.5 143 Q517 97 483 63 Q449 29 403 9.5 Q357 -10 305 -10 Q253 -10 207.5 9.5 Q162 29 128.5 63 Q95 97 75.5 143 Q56 189 56 242 Q56 295 75.5 341 Q95 387 128.5 420.5 Q162 454 207.5 473.5 Q253 493 306 493 Z M306 446 Q263 446 227 430.5 Q191 415 164.5 387 Q138 359 123 321.5 Q108 284 108 241 Q108 198 123 160.5 Q138 123 164 95.5 Q190 68 226.5 52.5 Q263 37 305 37 Q347 37 383.5 53 Q420 69 447 96.5 Q474 124 489 161 Q504 198 504 241 Q504 284 489 321.5 Q474 359 447 387 Q420 415 384 430.5 Q348 446 306 446 Z M456 564 L415 564 L306 715 L196 564 L155 564 L291 780 L320 780 L456 564 Z " />
<glyph glyph-name="odieresis" unicode="&#xf6;" horiz-adv-x="612" d="M306 493 Q358 493 403.5 473.5 Q449 454 483 420.5 Q517 387 536.5 341 Q556 295 556 242 Q556 189 536.5 143 Q517 97 483 63 Q449 29 403 9.5 Q357 -10 305 -10 Q253 -10 207.5 9.5 Q162 29 128.5 63 Q95 97 75.5 143 Q56 189 56 242 Q56 295 75.5 341 Q95 387 128.5 420.5 Q162 454 207.5 473.5 Q253 493 306 493 Z M306 446 Q263 446 227 430.5 Q191 415 164.5 387 Q138 359 123 321.5 Q108 284 108 241 Q108 198 123 160.5 Q138 123 164 95.5 Q190 68 226.5 52.5 Q263 37 305 37 Q347 37 383.5 53 Q420 69 447 96.5 Q474 124 489 161 Q504 198 504 241 Q504 284 489 321.5 Q474 359 447 387 Q420 415 384 430.5 Q348 446 306 446 Z M405 712 Q423 712 435.5 699.5 Q448 687 448 669 Q448 652 435.5 639.5 Q423 627 405 627 Q388 627 375 639.5 Q362 652 362 669 Q362 687 375 699.5 Q388 712 405 712 Z M205 712 Q223 712 235.5 699.5 Q248 687 248 669 Q248 652 235.5 639.5 Q223 627 205 627 Q188 627 175 639.5 Q162 652 162 669 Q162 687 175 699.5 Q188 712 205 712 Z " />
<glyph glyph-name="ograve" unicode="&#xf2;" horiz-adv-x="612" d="M306 493 Q358 493 403.5 473.5 Q449 454 483 420.5 Q517 387 536.5 341 Q556 295 556 242 Q556 189 536.5 143 Q517 97 483 63 Q449 29 403 9.5 Q357 -10 305 -10 Q253 -10 207.5 9.5 Q162 29 128.5 63 Q95 97 75.5 143 Q56 189 56 242 Q56 295 75.5 341 Q95 387 128.5 420.5 Q162 454 207.5 473.5 Q253 493 306 493 Z M306 446 Q263 446 227 430.5 Q191 415 164.5 387 Q138 359 123 321.5 Q108 284 108 241 Q108 198 123 160.5 Q138 123 164 95.5 Q190 68 226.5 52.5 Q263 37 305 37 Q347 37 383.5 53 Q420 69 447 96.5 Q474 124 489 161 Q504 198 504 241 Q504 284 489 321.5 Q474 359 447 387 Q420 415 384 430.5 Q348 446 306 446 Z M328 564 L288 564 L175 771 L175 780 L237 780 L328 564 Z " />
<glyph glyph-name="ohungarumlaut" unicode="&#x151;" horiz-adv-x="612" d="M306 493 Q358 493 403.5 473.5 Q449 454 483 420.5 Q517 387 536.5 341 Q556 295 556 242 Q556 189 536.5 143 Q517 97 483 63 Q449 29 403 9.5 Q357 -10 305 -10 Q253 -10 207.5 9.5 Q162 29 128.5 63 Q95 97 75.5 143 Q56 189 56 242 Q56 295 75.5 341 Q95 387 128.5 420.5 Q162 454 207.5 473.5 Q253 493 306 493 Z M306 446 Q263 446 227 430.5 Q191 415 164.5 387 Q138 359 123 321.5 Q108 284 108 241 Q108 198 123 160.5 Q138 123 164 95.5 Q190 68 226.5 52.5 Q263 37 305 37 Q347 37 383.5 53 Q420 69 447 96.5 Q474 124 489 161 Q504 198 504 241 Q504 284 489 321.5 Q474 359 447 387 Q420 415 384 430.5 Q348 446 306 446 Z M506 771 L397 564 L358 564 L449 780 L506 780 L506 771 Z M360 771 L251 564 L212 564 L303 780 L360 780 L360 771 Z " />
<glyph glyph-name="omacron" unicode="&#x14d;" horiz-adv-x="612" d="M306 493 Q358 493 403.5 473.5 Q449 454 483 420.5 Q517 387 536.5 341 Q556 295 556 242 Q556 189 536.5 143 Q517 97 483 63 Q449 29 403 9.5 Q357 -10 305 -10 Q253 -10 207.5 9.5 Q162 29 128.5 63 Q95 97 75.5 143 Q56 189 56 242 Q56 295 75.5 341 Q95 387 128.5 420.5 Q162 454 207.5 473.5 Q253 493 306 493 Z M306 446 Q263 446 227 430.5 Q191 415 164.5 387 Q138 359 123 321.5 Q108 284 108 241 Q108 198 123 160.5 Q138 123 164 95.5 Q190 68 226.5 52.5 Q263 37 305 37 Q347 37 383.5 53 Q420 69 447 96.5 Q474 124 489 161 Q504 198 504 241 Q504 284 489 321.5 Q474 359 447 387 Q420 415 384 430.5 Q348 446 306 446 Z M437 648 L175 648 L175 691 L437 691 L437 648 Z " />
<glyph glyph-name="oslash" unicode="&#xf8;" horiz-adv-x="625" d="M566 464 L504 402 Q531 369 546.5 328 Q562 287 562 241 Q562 189 542 143 Q522 97 488 63 Q454 29 408.5 9.5 Q363 -10 311 -10 Q265 -10 224 5.5 Q183 21 151 48 L90 -14 L57 19 L119 81 Q92 113 77 154 Q62 195 62 241 Q62 294 81.5 340 Q101 386 135 420 Q169 454 214.5 473.5 Q260 493 312 493 Q358 493 399 477.5 Q440 462 472 434 L534 496 L566 464 Z M311 448 Q268 448 231.5 432 Q195 416 168.5 388.5 Q142 361 127 323 Q112 285 112 241 Q112 167 152 113 L440 400 Q414 423 381.5 435.5 Q349 448 311 448 Z M511 241 Q511 277 500.5 309.5 Q490 342 470 368 L183 81 Q209 59 241 47 Q273 35 310 35 Q353 35 390 51 Q427 67 454 95 Q481 123 496 160.5 Q511 198 511 241 Z " />
<glyph glyph-name="oslashacute" unicode="&#x1ff;" horiz-adv-x="625" d="M566 464 L504 402 Q531 369 546.5 328 Q562 287 562 241 Q562 189 542 143 Q522 97 488 63 Q454 29 408.5 9.5 Q363 -10 311 -10 Q265 -10 224 5.5 Q183 21 151 48 L90 -14 L57 19 L119 81 Q92 113 77 154 Q62 195 62 241 Q62 294 81.5 340 Q101 386 135 420 Q169 454 214.5 473.5 Q260 493 312 493 Q358 493 399 477.5 Q440 462 472 434 L534 496 L566 464 Z M311 448 Q268 448 231.5 432 Q195 416 168.5 388.5 Q142 361 127 323 Q112 285 112 241 Q112 167 152 113 L440 400 Q414 423 381.5 435.5 Q349 448 311 448 Z M511 241 Q511 277 500.5 309.5 Q490 342 470 368 L183 81 Q209 59 241 47 Q273 35 310 35 Q353 35 390 51 Q427 67 454 95 Q481 123 496 160.5 Q511 198 511 241 Z M447 771 L334 564 L294 564 L385 780 L447 780 L447 771 Z " />
<glyph glyph-name="otilde" unicode="&#xf5;" horiz-adv-x="612" d="M306 493 Q358 493 403.5 473.5 Q449 454 483 420.5 Q517 387 536.5 341 Q556 295 556 242 Q556 189 536.5 143 Q517 97 483 63 Q449 29 403 9.5 Q357 -10 305 -10 Q253 -10 207.5 9.5 Q162 29 128.5 63 Q95 97 75.5 143 Q56 189 56 242 Q56 295 75.5 341 Q95 387 128.5 420.5 Q162 454 207.5 473.5 Q253 493 306 493 Z M306 446 Q263 446 227 430.5 Q191 415 164.5 387 Q138 359 123 321.5 Q108 284 108 241 Q108 198 123 160.5 Q138 123 164 95.5 Q190 68 226.5 52.5 Q263 37 305 37 Q347 37 383.5 53 Q420 69 447 96.5 Q474 124 489 161 Q504 198 504 241 Q504 284 489 321.5 Q474 359 447 387 Q420 415 384 430.5 Q348 446 306 446 Z M237 729 Q257 729 272.5 721 Q288 713 302 699 L327 674 Q339 662 348.5 656 Q358 650 370 650 Q387 650 394 663.5 Q401 677 401 696 L401 715 L445 715 Q446 710 446 704.5 Q446 699 446 693 Q446 676 442 659.5 Q438 643 429 630.5 Q420 618 406.5 610.5 Q393 603 375 603 Q355 603 339.5 611 Q324 619 310 633 L284 658 Q272 670 263 676 Q254 682 242 682 Q224 682 217 668.5 Q210 655 210 637 L210 617 L166 617 Q165 623 165 628 Q165 633 165 639 Q165 674 182.5 701.5 Q200 729 237 729 Z " />
<glyph glyph-name="oe" unicode="&#x153;" horiz-adv-x="1000" d="M729 493 Q772 493 811.5 478 Q851 463 880 435 Q909 407 926.5 367 Q944 327 944 278 Q944 259 942.5 245.5 Q941 232 940 229 L545 229 Q547 187 561.5 151.5 Q576 116 601 90.5 Q626 65 660 51 Q694 37 735 37 Q785 37 825 57 Q865 77 895 113 L928 80 Q893 38 843 13.5 Q793 -11 735 -11 Q661 -11 604 27.5 Q547 66 518 129 Q490 66 434.5 28 Q379 -10 304 -10 Q252 -10 207 9.5 Q162 29 128.5 63 Q95 97 75.5 142.5 Q56 188 56 241 Q56 294 75.5 340 Q95 386 128.5 420 Q162 454 207.5 473.5 Q253 493 305 493 Q379 493 434.5 455 Q490 417 518 354 Q547 416 602 454.5 Q657 493 729 493 Z M305 446 Q263 446 226.5 430.5 Q190 415 164 387 Q138 359 123 321.5 Q108 284 108 241 Q108 198 123 161 Q138 124 164 96.5 Q190 69 226 53 Q262 37 304 37 Q346 37 381 53 Q416 69 441 96.5 Q466 124 479.5 161 Q493 198 493 241 Q493 284 479.5 321.5 Q466 359 441 387 Q416 415 381.5 430.5 Q347 446 305 446 Z M726 446 Q690 446 659.5 433 Q629 420 605.5 397.5 Q582 375 567 343.5 Q552 312 547 275 L892 275 Q893 315 880 347 Q867 379 844 401 Q821 423 790.5 434.5 Q760 446 726 446 Z " />
<glyph glyph-name="p" unicode="p" horiz-adv-x="634" d="M338 493 Q389 493 433 473.5 Q477 454 509.5 420 Q542 386 560 340 Q578 294 578 242 Q578 189 560 143 Q542 97 510 63 Q478 29 434 9.5 Q390 -10 338 -10 Q277 -10 224 17.5 Q171 45 143 93 L143 -180 L93 -180 L93 483 L141 483 L141 386 Q168 436 221.5 464.5 Q275 493 338 493 Z M333 446 Q298 446 264 434 Q230 422 203 397.5 Q176 373 159.5 334.5 Q143 296 143 242 Q143 188 159.5 149 Q176 110 202.5 85.5 Q229 61 263 49 Q297 37 333 37 Q375 37 410.5 52.5 Q446 68 471.5 95.5 Q497 123 511.5 160 Q526 197 526 241 Q526 284 511.5 321.5 Q497 359 471.5 387 Q446 415 410.5 430.5 Q375 446 333 446 Z " />
<glyph glyph-name="thorn" unicode="&#xfe;" horiz-adv-x="634" d="M143 390 Q171 438 223.5 465.5 Q276 493 338 493 Q389 493 433 473.5 Q477 454 509.5 420 Q542 386 560 340 Q578 294 578 242 Q578 189 560 143 Q542 97 510 63 Q478 29 434 9.5 Q390 -10 338 -10 Q277 -10 224 17.5 Q171 45 143 93 L143 -180 L93 -180 L93 750 L143 750 L143 390 Z M333 446 Q298 446 264 434 Q230 422 203 397.5 Q176 373 159.5 334.5 Q143 296 143 242 Q143 188 159.5 149 Q176 110 202.5 85.5 Q229 61 263 49 Q297 37 333 37 Q375 37 410.5 52.5 Q446 68 471.5 95.5 Q497 123 511.5 160 Q526 197 526 241 Q526 284 511.5 321.5 Q497 359 471.5 387 Q446 415 410.5 430.5 Q375 446 333 446 Z " />
<glyph glyph-name="q" unicode="q" horiz-adv-x="634" d="M296 493 Q359 493 412.5 464.5 Q466 436 493 385 L493 483 L541 483 L541 -180 L491 -180 L491 93 Q463 45 410 17.5 Q357 -10 296 -10 Q245 -10 201 9.5 Q157 29 124.5 63 Q92 97 74 143 Q56 189 56 242 Q56 294 74 340 Q92 386 124.5 420 Q157 454 201 473.5 Q245 493 296 493 Z M301 446 Q259 446 223.5 430 Q188 414 162.5 386.5 Q137 359 122.5 321.5 Q108 284 108 241 Q108 197 122.5 160 Q137 123 162.5 95.5 Q188 68 223.5 52.5 Q259 37 301 37 Q336 37 370 49 Q404 61 431 85.5 Q458 110 474.5 149 Q491 188 491 242 Q491 296 474.5 334.5 Q458 373 431 397.5 Q404 422 370 434 Q336 446 301 446 Z " />
<glyph glyph-name="r" unicode="r" horiz-adv-x="350" d="M301 486 Q312 486 319 485 Q326 484 332 483 L332 439 L307 439 Q277 439 247.5 429 Q218 419 195 399 Q172 379 157.5 350 Q143 321 143 284 L143 0 L93 0 L93 483 L141 483 L141 400 Q167 443 210 464.5 Q253 486 301 486 Z " />
<glyph glyph-name="racute" unicode="&#x155;" horiz-adv-x="350" d="M301 486 Q312 486 319 485 Q326 484 332 483 L332 439 L307 439 Q277 439 247.5 429 Q218 419 195 399 Q172 379 157.5 350 Q143 321 143 284 L143 0 L93 0 L93 483 L141 483 L141 400 Q167 443 210 464.5 Q253 486 301 486 Z M292 771 L179 564 L139 564 L230 780 L292 780 L292 771 Z " />
<glyph glyph-name="rcaron" unicode="&#x159;" horiz-adv-x="350" d="M301 486 Q312 486 319 485 Q326 484 332 483 L332 439 L307 439 Q277 439 247.5 429 Q218 419 195 399 Q172 379 157.5 350 Q143 321 143 284 L143 0 L93 0 L93 483 L141 483 L141 400 Q167 443 210 464.5 Q253 486 301 486 Z M173 564 L144 564 L8 780 L49 780 L159 628 L268 780 L309 780 L173 564 Z " />
<glyph glyph-name="rcommaaccent" unicode="&#x157;" horiz-adv-x="350" d="M301 486 Q312 486 319 485 Q326 484 332 483 L332 439 L307 439 Q277 439 247.5 429 Q218 419 195 399 Q172 379 157.5 350 Q143 321 143 284 L143 0 L93 0 L93 483 L141 483 L141 400 Q167 443 210 464.5 Q253 486 301 486 Z M120 -220 L79 -220 L91 -51 L144 -51 L120 -220 Z " />
<glyph glyph-name="s" unicode="s" horiz-adv-x="455" d="M232 493 Q286 493 324.5 470.5 Q363 448 388 416 L355 384 Q330 412 299 429 Q268 446 229 446 Q210 446 192 441.5 Q174 437 160.5 428 Q147 419 138.5 404.5 Q130 390 130 370 Q130 336 154.5 318.5 Q179 301 222 283 L267 263 Q295 251 318 238 Q341 225 357.5 208.5 Q374 192 383 171.5 Q392 151 392 124 Q392 91 378.5 65.5 Q365 40 343 23.5 Q321 7 291.5 -1.5 Q262 -10 231 -10 Q167 -10 121 19.5 Q75 49 46 90 L81 123 Q111 85 147 61 Q183 37 231 37 Q253 37 272.5 42.5 Q292 48 307 58.5 Q322 69 331 85 Q340 101 340 122 Q340 142 332 156.5 Q324 171 310.5 182 Q297 193 279 201.5 Q261 210 241 219 L197 238 Q173 248 151 260 Q129 272 113 287 Q97 302 87.5 321.5 Q78 341 78 367 Q78 397 90.5 420.5 Q103 444 124.5 460 Q146 476 174 484.5 Q202 493 232 493 Z " />
<glyph glyph-name="sacute" unicode="&#x15b;" horiz-adv-x="455" d="M232 493 Q286 493 324.5 470.5 Q363 448 388 416 L355 384 Q330 412 299 429 Q268 446 229 446 Q210 446 192 441.5 Q174 437 160.5 428 Q147 419 138.5 404.5 Q130 390 130 370 Q130 336 154.5 318.5 Q179 301 222 283 L267 263 Q295 251 318 238 Q341 225 357.5 208.5 Q374 192 383 171.5 Q392 151 392 124 Q392 91 378.5 65.5 Q365 40 343 23.5 Q321 7 291.5 -1.5 Q262 -10 231 -10 Q167 -10 121 19.5 Q75 49 46 90 L81 123 Q111 85 147 61 Q183 37 231 37 Q253 37 272.5 42.5 Q292 48 307 58.5 Q322 69 331 85 Q340 101 340 122 Q340 142 332 156.5 Q324 171 310.5 182 Q297 193 279 201.5 Q261 210 241 219 L197 238 Q173 248 151 260 Q129 272 113 287 Q97 302 87.5 321.5 Q78 341 78 367 Q78 397 90.5 420.5 Q103 444 124.5 460 Q146 476 174 484.5 Q202 493 232 493 Z M365 771 L252 564 L212 564 L303 780 L365 780 L365 771 Z " />
<glyph glyph-name="scaron" unicode="&#x161;" horiz-adv-x="455" d="M232 493 Q286 493 324.5 470.5 Q363 448 388 416 L355 384 Q330 412 299 429 Q268 446 229 446 Q210 446 192 441.5 Q174 437 160.5 428 Q147 419 138.5 404.5 Q130 390 130 370 Q130 336 154.5 318.5 Q179 301 222 283 L267 263 Q295 251 318 238 Q341 225 357.5 208.5 Q374 192 383 171.5 Q392 151 392 124 Q392 91 378.5 65.5 Q365 40 343 23.5 Q321 7 291.5 -1.5 Q262 -10 231 -10 Q167 -10 121 19.5 Q75 49 46 90 L81 123 Q111 85 147 61 Q183 37 231 37 Q253 37 272.5 42.5 Q292 48 307 58.5 Q322 69 331 85 Q340 101 340 122 Q340 142 332 156.5 Q324 171 310.5 182 Q297 193 279 201.5 Q261 210 241 219 L197 238 Q173 248 151 260 Q129 272 113 287 Q97 302 87.5 321.5 Q78 341 78 367 Q78 397 90.5 420.5 Q103 444 124.5 460 Q146 476 174 484.5 Q202 493 232 493 Z M245 564 L216 564 L80 780 L121 780 L231 628 L340 780 L381 780 L245 564 Z " />
<glyph glyph-name="scedilla" unicode="&#x15f;" horiz-adv-x="455" d="M232 493 Q286 493 324.5 470.5 Q363 448 388 416 L355 384 Q330 412 299 429 Q268 446 229 446 Q210 446 192 441.5 Q174 437 160.5 428 Q147 419 138.5 404.5 Q130 390 130 370 Q130 336 154.5 318.5 Q179 301 222 283 L267 263 Q295 251 318 238 Q341 225 357.5 208.5 Q374 192 383 171.5 Q392 151 392 124 Q392 91 378.5 65.5 Q365 40 343 23.5 Q321 7 291.5 -1.5 Q262 -10 231 -10 Q167 -10 121 19.5 Q75 49 46 90 L81 123 Q111 85 147 61 Q183 37 231 37 Q253 37 272.5 42.5 Q292 48 307 58.5 Q322 69 331 85 Q340 101 340 122 Q340 142 332 156.5 Q324 171 310.5 182 Q297 193 279 201.5 Q261 210 241 219 L197 238 Q173 248 151 260 Q129 272 113 287 Q97 302 87.5 321.5 Q78 341 78 367 Q78 397 90.5 420.5 Q103 444 124.5 460 Q146 476 174 484.5 Q202 493 232 493 Z M237 19 Q268 5 288 -21 Q308 -47 308 -82 Q308 -104 300 -123.5 Q292 -143 276.5 -158 Q261 -173 238.5 -181.5 Q216 -190 188 -190 Q171 -190 154 -187.5 Q137 -185 121 -180 L121 -141 Q138 -145 154 -146.5 Q170 -148 181 -148 Q213 -148 237 -131 Q261 -114 261 -76 Q261 -48 248 -29 Q235 -10 218 4 L237 19 Z " />
<glyph glyph-name="scircumflex" unicode="&#x15d;" horiz-adv-x="455" d="M232 493 Q286 493 324.5 470.5 Q363 448 388 416 L355 384 Q330 412 299 429 Q268 446 229 446 Q210 446 192 441.5 Q174 437 160.5 428 Q147 419 138.5 404.5 Q130 390 130 370 Q130 336 154.5 318.5 Q179 301 222 283 L267 263 Q295 251 318 238 Q341 225 357.5 208.5 Q374 192 383 171.5 Q392 151 392 124 Q392 91 378.5 65.5 Q365 40 343 23.5 Q321 7 291.5 -1.5 Q262 -10 231 -10 Q167 -10 121 19.5 Q75 49 46 90 L81 123 Q111 85 147 61 Q183 37 231 37 Q253 37 272.5 42.5 Q292 48 307 58.5 Q322 69 331 85 Q340 101 340 122 Q340 142 332 156.5 Q324 171 310.5 182 Q297 193 279 201.5 Q261 210 241 219 L197 238 Q173 248 151 260 Q129 272 113 287 Q97 302 87.5 321.5 Q78 341 78 367 Q78 397 90.5 420.5 Q103 444 124.5 460 Q146 476 174 484.5 Q202 493 232 493 Z M381 564 L340 564 L231 715 L121 564 L80 564 L216 780 L245 780 L381 564 Z " />
<glyph glyph-name="scommaaccent" unicode="&#x219;" horiz-adv-x="455" d="M232 493 Q286 493 324.5 470.5 Q363 448 388 416 L355 384 Q330 412 299 429 Q268 446 229 446 Q210 446 192 441.5 Q174 437 160.5 428 Q147 419 138.5 404.5 Q130 390 130 370 Q130 336 154.5 318.5 Q179 301 222 283 L267 263 Q295 251 318 238 Q341 225 357.5 208.5 Q374 192 383 171.5 Q392 151 392 124 Q392 91 378.5 65.5 Q365 40 343 23.5 Q321 7 291.5 -1.5 Q262 -10 231 -10 Q167 -10 121 19.5 Q75 49 46 90 L81 123 Q111 85 147 61 Q183 37 231 37 Q253 37 272.5 42.5 Q292 48 307 58.5 Q322 69 331 85 Q340 101 340 122 Q340 142 332 156.5 Q324 171 310.5 182 Q297 193 279 201.5 Q261 210 241 219 L197 238 Q173 248 151 260 Q129 272 113 287 Q97 302 87.5 321.5 Q78 341 78 367 Q78 397 90.5 420.5 Q103 444 124.5 460 Q146 476 174 484.5 Q202 493 232 493 Z M242 -220 L201 -220 L213 -51 L266 -51 L242 -220 Z " />
<glyph glyph-name="germandbls" unicode="&#xdf;" horiz-adv-x="593" d="M288 760 Q321 760 349 751 Q377 742 397.5 724.5 Q418 707 429.5 682 Q441 657 441 624 Q441 608 438 588 Q435 568 427 545 L381 407 Q374 386 369.5 368 Q365 350 365 336 Q365 322 370.5 311.5 Q376 301 386.5 292 Q397 283 412.5 273.5 Q428 264 448 252 Q473 238 494 224 Q515 210 530.5 194.5 Q546 179 554.5 160 Q563 141 563 116 Q563 85 550 61 Q537 37 514.5 21 Q492 5 463 -3.5 Q434 -12 402 -12 Q350 -12 310.5 8.5 Q271 29 242 61 L271 96 Q297 68 330 51.5 Q363 35 407 35 Q451 35 481 54 Q511 73 511 115 Q511 132 505 144.5 Q499 157 487 168 Q475 179 457.5 190 Q440 201 417 214 Q394 227 374.5 239 Q355 251 341 264.5 Q327 278 319.5 294 Q312 310 312 330 Q312 347 317 367.5 Q322 388 330 411 L375 546 Q382 567 385 585.5 Q388 604 388 618 Q388 662 361 687.5 Q334 713 285 713 Q225 713 184 671.5 Q143 630 143 547 L143 0 L93 0 L93 548 Q93 599 108 638.5 Q123 678 149 705 Q175 732 210.5 746 Q246 760 288 760 Z " />
<glyph glyph-name="uni0259" unicode="&#x259;" horiz-adv-x="572" d="M275 493 Q326 493 370 473.5 Q414 454 446.5 420.5 Q479 387 497.5 341 Q516 295 516 243 Q516 190 497.5 144 Q479 98 446 63.5 Q413 29 368.5 9.5 Q324 -10 273 -10 Q229 -10 189.5 5 Q150 20 120.5 48 Q91 76 73.5 115.5 Q56 155 56 205 Q56 223 57.5 236.5 Q59 250 60 253 L464 253 Q462 295 447 330.5 Q432 366 406.5 391.5 Q381 417 347 431.5 Q313 446 274 446 Q226 446 185 425.5 Q144 405 114 370 L82 403 Q117 445 167 469 Q217 493 275 493 Z M275 36 Q311 36 343 48.5 Q375 61 399.5 84 Q424 107 440 138.5 Q456 170 461 208 L108 208 Q107 167 120 135.5 Q133 104 156 81.5 Q179 59 209.5 47.5 Q240 36 275 36 Z " />
<glyph glyph-name="t" unicode="t" horiz-adv-x="363" d="M319 437 L162 437 L162 137 Q162 107 170 87.5 Q178 68 192.5 56.5 Q207 45 226 40.5 Q245 36 267 36 Q285 36 300.5 38 Q316 40 335 44 L335 0 Q317 -5 299.5 -7.5 Q282 -10 260 -10 Q228 -10 201 -2 Q174 6 154.5 23 Q135 40 123.5 68 Q112 96 112 135 L112 437 L28 437 L28 483 L112 483 L112 620 L162 620 L162 483 L319 483 L319 437 Z " />
<glyph glyph-name="tbar" unicode="&#x167;" horiz-adv-x="377" d="M328 229 L172 229 L172 137 Q172 107 180 87.5 Q188 68 202 56.5 Q216 45 235 40.5 Q254 36 276 36 Q295 36 310.5 38 Q326 40 344 44 L344 0 Q327 -5 309 -7.5 Q291 -10 269 -10 Q238 -10 211 -2 Q184 6 164.5 23 Q145 40 133.5 68 Q122 96 122 135 L122 229 L37 229 L37 273 L122 273 L122 438 L37 438 L37 483 L122 483 L122 620 L172 620 L172 483 L328 483 L328 438 L172 438 L172 273 L328 273 L328 229 Z " />
<glyph glyph-name="tcaron" unicode="&#x165;" horiz-adv-x="363" d="M319 437 L162 437 L162 137 Q162 107 170 87.5 Q178 68 192.5 56.5 Q207 45 226 40.5 Q245 36 267 36 Q285 36 300.5 38 Q316 40 335 44 L335 0 Q317 -5 299.5 -7.5 Q282 -10 260 -10 Q228 -10 201 -2 Q174 6 154.5 23 Q135 40 123.5 68 Q112 96 112 135 L112 437 L28 437 L28 483 L112 483 L112 620 L162 620 L162 483 L319 483 L319 437 Z M304 540 L264 540 L281 750 L339 750 L304 540 Z " />
<glyph glyph-name="uni0163" unicode="&#x163;" horiz-adv-x="363" d="M319 437 L162 437 L162 137 Q162 107 170 87.5 Q178 68 192.5 56.5 Q207 45 226 40.5 Q245 36 267 36 Q285 36 300.5 38 Q316 40 335 44 L335 0 Q317 -5 299.5 -7.5 Q282 -10 260 -10 Q228 -10 201 -2 Q174 6 154.5 23 Q135 40 123.5 68 Q112 96 112 135 L112 437 L28 437 L28 483 L112 483 L112 620 L162 620 L162 483 L319 483 L319 437 Z M211 19 Q242 5 262 -21 Q282 -47 282 -82 Q282 -104 274 -123.5 Q266 -143 250.5 -158 Q235 -173 212.5 -181.5 Q190 -190 162 -190 Q145 -190 128 -187.5 Q111 -185 95 -180 L95 -141 Q112 -145 128 -146.5 Q144 -148 155 -148 Q187 -148 211 -131 Q235 -114 235 -76 Q235 -48 222 -29 Q209 -10 192 4 L211 19 Z " />
<glyph glyph-name="u" unicode="u" horiz-adv-x="551" d="M465 183 Q465 138 450 102.5 Q435 67 409.5 42 Q384 17 349.5 3.5 Q315 -10 276 -10 Q236 -10 201.5 3.5 Q167 17 141.5 42 Q116 67 101 102.5 Q86 138 86 183 L86 483 L136 483 L136 181 Q136 147 147 120 Q158 93 177 74.5 Q196 56 221.5 46.5 Q247 37 276 37 Q304 37 329.5 46.5 Q355 56 374 74.5 Q393 93 404 120 Q415 147 415 181 L415 483 L465 483 L465 183 Z " />
<glyph glyph-name="uacute" unicode="&#xfa;" horiz-adv-x="551" d="M465 183 Q465 138 450 102.5 Q435 67 409.5 42 Q384 17 349.5 3.5 Q315 -10 276 -10 Q236 -10 201.5 3.5 Q167 17 141.5 42 Q116 67 101 102.5 Q86 138 86 183 L86 483 L136 483 L136 181 Q136 147 147 120 Q158 93 177 74.5 Q196 56 221.5 46.5 Q247 37 276 37 Q304 37 329.5 46.5 Q355 56 374 74.5 Q393 93 404 120 Q415 147 415 181 L415 483 L465 483 L465 183 Z M409 771 L296 564 L256 564 L347 780 L409 780 L409 771 Z " />
<glyph glyph-name="ubreve" unicode="&#x16d;" horiz-adv-x="551" d="M465 183 Q465 138 450 102.5 Q435 67 409.5 42 Q384 17 349.5 3.5 Q315 -10 276 -10 Q236 -10 201.5 3.5 Q167 17 141.5 42 Q116 67 101 102.5 Q86 138 86 183 L86 483 L136 483 L136 181 Q136 147 147 120 Q158 93 177 74.5 Q196 56 221.5 46.5 Q247 37 276 37 Q304 37 329.5 46.5 Q355 56 374 74.5 Q393 93 404 120 Q415 147 415 181 L415 483 L465 483 L465 183 Z M417 729 Q417 699 406 672.5 Q395 646 376 627 Q357 608 331 597 Q305 586 275 586 Q244 586 218 597 Q192 608 173 627 Q154 646 143 672.5 Q132 699 132 729 L177 729 Q177 681 205 654.5 Q233 628 275 628 Q316 628 344 654.5 Q372 681 372 729 L417 729 Z " />
<glyph glyph-name="uni01D4" unicode="&#x1d4;" horiz-adv-x="551" d="M465 183 Q465 138 450 102.5 Q435 67 409.5 42 Q384 17 349.5 3.5 Q315 -10 276 -10 Q236 -10 201.5 3.5 Q167 17 141.5 42 Q116 67 101 102.5 Q86 138 86 183 L86 483 L136 483 L136 181 Q136 147 147 120 Q158 93 177 74.5 Q196 56 221.5 46.5 Q247 37 276 37 Q304 37 329.5 46.5 Q355 56 374 74.5 Q393 93 404 120 Q415 147 415 181 L415 483 L465 483 L465 183 Z M289 564 L260 564 L124 780 L165 780 L275 628 L384 780 L425 780 L289 564 Z " />
<glyph glyph-name="ucircumflex" unicode="&#xfb;" horiz-adv-x="551" d="M465 183 Q465 138 450 102.5 Q435 67 409.5 42 Q384 17 349.5 3.5 Q315 -10 276 -10 Q236 -10 201.5 3.5 Q167 17 141.5 42 Q116 67 101 102.5 Q86 138 86 183 L86 483 L136 483 L136 181 Q136 147 147 120 Q158 93 177 74.5 Q196 56 221.5 46.5 Q247 37 276 37 Q304 37 329.5 46.5 Q355 56 374 74.5 Q393 93 404 120 Q415 147 415 181 L415 483 L465 483 L465 183 Z M425 564 L384 564 L275 715 L165 564 L124 564 L260 780 L289 780 L425 564 Z " />
<glyph glyph-name="udieresis" unicode="&#xfc;" horiz-adv-x="551" d="M465 183 Q465 138 450 102.5 Q435 67 409.5 42 Q384 17 349.5 3.5 Q315 -10 276 -10 Q236 -10 201.5 3.5 Q167 17 141.5 42 Q116 67 101 102.5 Q86 138 86 183 L86 483 L136 483 L136 181 Q136 147 147 120 Q158 93 177 74.5 Q196 56 221.5 46.5 Q247 37 276 37 Q304 37 329.5 46.5 Q355 56 374 74.5 Q393 93 404 120 Q415 147 415 181 L415 483 L465 483 L465 183 Z M374 712 Q392 712 404.5 699.5 Q417 687 417 669 Q417 652 404.5 639.5 Q392 627 374 627 Q357 627 344 639.5 Q331 652 331 669 Q331 687 344 699.5 Q357 712 374 712 Z M174 712 Q192 712 204.5 699.5 Q217 687 217 669 Q217 652 204.5 639.5 Q192 627 174 627 Q157 627 144 639.5 Q131 652 131 669 Q131 687 144 699.5 Q157 712 174 712 Z " />
<glyph glyph-name="ugrave" unicode="&#xf9;" horiz-adv-x="551" d="M465 183 Q465 138 450 102.5 Q435 67 409.5 42 Q384 17 349.5 3.5 Q315 -10 276 -10 Q236 -10 201.5 3.5 Q167 17 141.5 42 Q116 67 101 102.5 Q86 138 86 183 L86 483 L136 483 L136 181 Q136 147 147 120 Q158 93 177 74.5 Q196 56 221.5 46.5 Q247 37 276 37 Q304 37 329.5 46.5 Q355 56 374 74.5 Q393 93 404 120 Q415 147 415 181 L415 483 L465 483 L465 183 Z M297 564 L257 564 L144 771 L144 780 L206 780 L297 564 Z " />
<glyph glyph-name="uhungarumlaut" unicode="&#x171;" horiz-adv-x="551" d="M465 183 Q465 138 450 102.5 Q435 67 409.5 42 Q384 17 349.5 3.5 Q315 -10 276 -10 Q236 -10 201.5 3.5 Q167 17 141.5 42 Q116 67 101 102.5 Q86 138 86 183 L86 483 L136 483 L136 181 Q136 147 147 120 Q158 93 177 74.5 Q196 56 221.5 46.5 Q247 37 276 37 Q304 37 329.5 46.5 Q355 56 374 74.5 Q393 93 404 120 Q415 147 415 181 L415 483 L465 483 L465 183 Z M475 771 L366 564 L327 564 L418 780 L475 780 L475 771 Z M329 771 L220 564 L181 564 L272 780 L329 780 L329 771 Z " />
<glyph glyph-name="umacron" unicode="&#x16b;" horiz-adv-x="551" d="M465 183 Q465 138 450 102.5 Q435 67 409.5 42 Q384 17 349.5 3.5 Q315 -10 276 -10 Q236 -10 201.5 3.5 Q167 17 141.5 42 Q116 67 101 102.5 Q86 138 86 183 L86 483 L136 483 L136 181 Q136 147 147 120 Q158 93 177 74.5 Q196 56 221.5 46.5 Q247 37 276 37 Q304 37 329.5 46.5 Q355 56 374 74.5 Q393 93 404 120 Q415 147 415 181 L415 483 L465 483 L465 183 Z M406 648 L144 648 L144 691 L406 691 L406 648 Z " />
<glyph glyph-name="uni021B" unicode="&#x21b;" horiz-adv-x="363" d="M319 437 L162 437 L162 137 Q162 107 170 87.5 Q178 68 192.5 56.5 Q207 45 226 40.5 Q245 36 267 36 Q285 36 300.5 38 Q316 40 335 44 L335 0 Q317 -5 299.5 -7.5 Q282 -10 260 -10 Q228 -10 201 -2 Q174 6 154.5 23 Q135 40 123.5 68 Q112 96 112 135 L112 437 L28 437 L28 483 L112 483 L112 620 L162 620 L162 483 L319 483 L319 437 Z M216 -220 L175 -220 L187 -51 L240 -51 L216 -220 Z " />
<glyph glyph-name="uogonek" unicode="&#x173;" horiz-adv-x="551" d="M465 183 Q465 145 456 118 Q447 91 431 68.5 Q415 46 392.5 25.5 Q370 5 342 -20 Q316 -43 301.5 -61.5 Q287 -80 287 -103 Q287 -127 302 -138 Q317 -149 344 -149 Q373 -149 403 -141 L403 -179 Q389 -184 372 -187 Q355 -190 335 -190 Q294 -190 265.5 -171.5 Q237 -153 237 -112 Q237 -83 253.5 -58 Q270 -33 303 -8 Q296 -9 289.5 -9.5 Q283 -10 276 -10 Q236 -10 201.5 3.5 Q167 17 141.5 42 Q116 67 101 102.5 Q86 138 86 183 L86 483 L136 483 L136 181 Q136 147 147 120 Q158 93 177 74.5 Q196 56 221.5 46.5 Q247 37 276 37 Q304 37 329.5 46.5 Q355 56 374 74.5 Q393 93 404 120 Q415 147 415 181 L415 483 L465 483 L465 183 Z " />
<glyph glyph-name="uring" unicode="&#x16f;" horiz-adv-x="551" d="M465 183 Q465 138 450 102.5 Q435 67 409.5 42 Q384 17 349.5 3.5 Q315 -10 276 -10 Q236 -10 201.5 3.5 Q167 17 141.5 42 Q116 67 101 102.5 Q86 138 86 183 L86 483 L136 483 L136 181 Q136 147 147 120 Q158 93 177 74.5 Q196 56 221.5 46.5 Q247 37 276 37 Q304 37 329.5 46.5 Q355 56 374 74.5 Q393 93 404 120 Q415 147 415 181 L415 483 L465 483 L465 183 Z M274 769 Q296 769 315 761 Q334 753 348 739.5 Q362 726 370 707 Q378 688 378 667 Q378 646 370 627 Q362 608 348 594.5 Q334 581 315 573 Q296 565 274 565 Q253 565 234 573 Q215 581 201 594.5 Q187 608 179 627 Q171 646 171 667 Q171 688 179 707 Q187 726 201 739.5 Q215 753 234 761 Q253 769 274 769 Z M275 728 Q249 728 231.5 710.5 Q214 693 214 667 Q214 641 231.5 623.5 Q249 606 275 606 Q300 606 317.5 623.5 Q335 641 335 667 Q335 693 317.5 710.5 Q300 728 275 728 Z " />
<glyph glyph-name="utilde" unicode="&#x169;" horiz-adv-x="551" d="M465 183 Q465 138 450 102.5 Q435 67 409.5 42 Q384 17 349.5 3.5 Q315 -10 276 -10 Q236 -10 201.5 3.5 Q167 17 141.5 42 Q116 67 101 102.5 Q86 138 86 183 L86 483 L136 483 L136 181 Q136 147 147 120 Q158 93 177 74.5 Q196 56 221.5 46.5 Q247 37 276 37 Q304 37 329.5 46.5 Q355 56 374 74.5 Q393 93 404 120 Q415 147 415 181 L415 483 L465 483 L465 183 Z M206 729 Q226 729 241.5 721 Q257 713 271 699 L296 674 Q308 662 317.5 656 Q327 650 339 650 Q356 650 363 663.5 Q370 677 370 696 L370 715 L414 715 Q415 710 415 704.5 Q415 699 415 693 Q415 676 411 659.5 Q407 643 398 630.5 Q389 618 375.5 610.5 Q362 603 344 603 Q324 603 308.5 611 Q293 619 279 633 L253 658 Q241 670 232 676 Q223 682 211 682 Q193 682 186 668.5 Q179 655 179 637 L179 617 L135 617 Q134 623 134 628 Q134 633 134 639 Q134 674 151.5 701.5 Q169 729 206 729 Z " />
<glyph glyph-name="v" unicode="v" horiz-adv-x="527" d="M275 -10 L254 -10 L32 483 L86 483 L263 76 L441 483 L496 483 L275 -10 Z " />
<glyph glyph-name="w" unicode="w" horiz-adv-x="845" d="M609 83 L759 483 L813 483 L619 -10 L598 -10 L422 398 L247 -10 L227 -10 L32 483 L86 483 L238 82 L412 493 L433 493 L609 83 Z " />
<glyph glyph-name="wacute" unicode="&#x1e83;" horiz-adv-x="845" d="M609 83 L759 483 L813 483 L619 -10 L598 -10 L422 398 L247 -10 L227 -10 L32 483 L86 483 L238 82 L412 493 L433 493 L609 83 Z M556 771 L443 564 L403 564 L494 780 L556 780 L556 771 Z " />
<glyph glyph-name="wcircumflex" unicode="&#x175;" horiz-adv-x="845" d="M609 83 L759 483 L813 483 L619 -10 L598 -10 L422 398 L247 -10 L227 -10 L32 483 L86 483 L238 82 L412 493 L433 493 L609 83 Z M572 564 L531 564 L422 715 L312 564 L271 564 L407 780 L436 780 L572 564 Z " />
<glyph glyph-name="wdieresis" unicode="&#x1e85;" horiz-adv-x="845" d="M609 83 L759 483 L813 483 L619 -10 L598 -10 L422 398 L247 -10 L227 -10 L32 483 L86 483 L238 82 L412 493 L433 493 L609 83 Z M521 712 Q539 712 551.5 699.5 Q564 687 564 669 Q564 652 551.5 639.5 Q539 627 521 627 Q504 627 491 639.5 Q478 652 478 669 Q478 687 491 699.5 Q504 712 521 712 Z M321 712 Q339 712 351.5 699.5 Q364 687 364 669 Q364 652 351.5 639.5 Q339 627 321 627 Q304 627 291 639.5 Q278 652 278 669 Q278 687 291 699.5 Q304 712 321 712 Z " />
<glyph glyph-name="wgrave" unicode="&#x1e81;" horiz-adv-x="845" d="M609 83 L759 483 L813 483 L619 -10 L598 -10 L422 398 L247 -10 L227 -10 L32 483 L86 483 L238 82 L412 493 L433 493 L609 83 Z M444 564 L404 564 L291 771 L291 780 L353 780 L444 564 Z " />
<glyph glyph-name="x" unicode="x" horiz-adv-x="480" d="M268 252 L454 0 L394 0 L239 214 L86 0 L26 0 L209 253 L41 483 L101 483 L239 290 L379 483 L439 483 L268 252 Z " />
<glyph glyph-name="y" unicode="y" horiz-adv-x="527" d="M254 -79 Q228 -140 191 -165 Q154 -190 104 -190 Q87 -190 69.5 -188 Q52 -186 35 -181 L35 -137 Q67 -144 96 -144 Q132 -144 159.5 -126.5 Q187 -109 209 -61 L239 10 L32 483 L87 483 L266 67 L441 483 L496 483 L254 -79 Z " />
<glyph glyph-name="yacute" unicode="&#xfd;" horiz-adv-x="527" d="M254 -79 Q228 -140 191 -165 Q154 -190 104 -190 Q87 -190 69.5 -188 Q52 -186 35 -181 L35 -137 Q67 -144 96 -144 Q132 -144 159.5 -126.5 Q187 -109 209 -61 L239 10 L32 483 L87 483 L266 67 L441 483 L496 483 L254 -79 Z M396 771 L283 564 L243 564 L334 780 L396 780 L396 771 Z " />
<glyph glyph-name="ycircumflex" unicode="&#x177;" horiz-adv-x="527" d="M254 -79 Q228 -140 191 -165 Q154 -190 104 -190 Q87 -190 69.5 -188 Q52 -186 35 -181 L35 -137 Q67 -144 96 -144 Q132 -144 159.5 -126.5 Q187 -109 209 -61 L239 10 L32 483 L87 483 L266 67 L441 483 L496 483 L254 -79 Z M412 564 L371 564 L262 715 L152 564 L111 564 L247 780 L276 780 L412 564 Z " />
<glyph glyph-name="ydieresis" unicode="&#xff;" horiz-adv-x="527" d="M254 -79 Q228 -140 191 -165 Q154 -190 104 -190 Q87 -190 69.5 -188 Q52 -186 35 -181 L35 -137 Q67 -144 96 -144 Q132 -144 159.5 -126.5 Q187 -109 209 -61 L239 10 L32 483 L87 483 L266 67 L441 483 L496 483 L254 -79 Z M361 712 Q379 712 391.5 699.5 Q404 687 404 669 Q404 652 391.5 639.5 Q379 627 361 627 Q344 627 331 639.5 Q318 652 318 669 Q318 687 331 699.5 Q344 712 361 712 Z M161 712 Q179 712 191.5 699.5 Q204 687 204 669 Q204 652 191.5 639.5 Q179 627 161 627 Q144 627 131 639.5 Q118 652 118 669 Q118 687 131 699.5 Q144 712 161 712 Z " />
<glyph glyph-name="ygrave" unicode="&#x1ef3;" horiz-adv-x="527" d="M254 -79 Q228 -140 191 -165 Q154 -190 104 -190 Q87 -190 69.5 -188 Q52 -186 35 -181 L35 -137 Q67 -144 96 -144 Q132 -144 159.5 -126.5 Q187 -109 209 -61 L239 10 L32 483 L87 483 L266 67 L441 483 L496 483 L254 -79 Z M284 564 L244 564 L131 771 L131 780 L193 780 L284 564 Z " />
<glyph glyph-name="z" unicode="z" horiz-adv-x="450" d="M413 466 L110 46 L417 46 L417 0 L33 0 L33 17 L335 437 L56 437 L56 483 L413 483 L413 466 Z " />
<glyph glyph-name="zacute" unicode="&#x17a;" horiz-adv-x="450" d="M413 466 L110 46 L417 46 L417 0 L33 0 L33 17 L335 437 L56 437 L56 483 L413 483 L413 466 Z M369 771 L256 564 L216 564 L307 780 L369 780 L369 771 Z " />
<glyph glyph-name="zcaron" unicode="&#x17e;" horiz-adv-x="450" d="M413 466 L110 46 L417 46 L417 0 L33 0 L33 17 L335 437 L56 437 L56 483 L413 483 L413 466 Z M249 564 L220 564 L84 780 L125 780 L235 628 L344 780 L385 780 L249 564 Z " />
<glyph glyph-name="zdotaccent" unicode="&#x17c;" horiz-adv-x="450" d="M413 466 L110 46 L417 46 L417 0 L33 0 L33 17 L335 437 L56 437 L56 483 L413 483 L413 466 Z M235 713 Q254 713 266.5 700 Q279 687 279 669 Q279 651 266.5 638 Q254 625 235 625 Q217 625 204 638 Q191 651 191 669 Q191 687 204 700 Q217 713 235 713 Z " />
<glyph glyph-name="fi" unicode="&#xfb01;" horiz-adv-x="535" d="M277 437 L150 437 L150 0 L100 0 L100 437 L30 437 L30 483 L100 483 L100 615 Q100 654 111 682 Q122 710 142 727 Q162 744 188.5 752 Q215 760 247 760 Q277 760 301 754 L301 710 Q289 712 278 713 Q267 714 256 714 Q233 714 214 709.5 Q195 705 180.5 693.5 Q166 682 158 662.5 Q150 643 150 613 L150 483 L277 483 L277 437 Z M442 0 L392 0 L392 483 L442 483 L442 0 Z M417 713 Q436 713 448.5 700 Q461 687 461 669 Q461 651 448.5 638 Q436 625 417 625 Q399 625 386 638 Q373 651 373 669 Q373 687 386 700 Q399 713 417 713 Z " />
<glyph glyph-name="fl" unicode="&#xfb02;" horiz-adv-x="535" d="M277 437 L150 437 L150 0 L100 0 L100 437 L30 437 L30 483 L100 483 L100 615 Q100 654 111 682 Q122 710 142 727 Q162 744 188.5 752 Q215 760 247 760 Q277 760 301 754 L301 710 Q289 712 278 713 Q267 714 256 714 Q233 714 214 709.5 Q195 705 180.5 693.5 Q166 682 158 662.5 Q150 643 150 613 L150 483 L277 483 L277 437 Z M442 0 L392 0 L392 750 L442 750 L442 0 Z " />
<glyph glyph-name="ordfeminine" unicode="&#xaa;" horiz-adv-x="362" d="M179 557 Q232 557 265 526 Q298 495 298 434 L298 244 L255 244 L255 284 Q238 262 211.5 250 Q185 238 151 238 Q106 238 76 260 Q46 282 46 323 Q46 363 75.5 385.5 Q105 408 155 408 L252 408 L252 436 Q252 476 231 495.5 Q210 515 175 515 Q146 515 125 502.5 Q104 490 85 470 L60 499 Q84 527 112.5 542 Q141 557 179 557 Z M160 276 Q199 276 225.5 298.5 Q252 321 252 357 L252 372 L160 372 Q127 372 110.5 359.5 Q94 347 94 324 Q94 298 114.5 287 Q135 276 160 276 Z " />
<glyph glyph-name="ordmasculine" unicode="&#xba;" horiz-adv-x="412" d="M206 556 Q239 556 268 544 Q297 532 319 510.5 Q341 489 353.5 460 Q366 431 366 397 Q366 363 353.5 334 Q341 305 319 283.5 Q297 262 268 250 Q239 238 206 238 Q173 238 143.5 250 Q114 262 92.5 283.5 Q71 305 58.5 334 Q46 363 46 397 Q46 431 58.5 460 Q71 489 92.5 510.5 Q114 532 143.5 544 Q173 556 206 556 Z M205 514 Q155 514 123.5 481 Q92 448 92 397 Q92 346 123.5 313 Q155 280 205 280 Q255 280 287 313 Q319 346 319 397 Q319 448 287 481 Q255 514 205 514 Z " />
<glyph glyph-name="zero" unicode="0" horiz-adv-x="665" d="M332 542 Q390 542 441 520.5 Q492 499 529.5 461.5 Q567 424 589 373.5 Q611 323 611 265 Q611 208 589 157.5 Q567 107 529.5 69.5 Q492 32 441 10.5 Q390 -11 332 -11 Q274 -11 223.5 10.5 Q173 32 135.5 69.5 Q98 107 76.5 157.5 Q55 208 55 265 Q55 323 76.5 373.5 Q98 424 135.5 461.5 Q173 499 223.5 520.5 Q274 542 332 542 Z M332 494 Q283 494 241.5 476.5 Q200 459 170 428 Q140 397 123.5 355 Q107 313 107 265 Q107 217 123.5 175 Q140 133 170 102.5 Q200 72 241 54 Q282 36 331 36 Q380 36 421.5 54 Q463 72 493 102.5 Q523 133 540 175 Q557 217 557 265 Q557 313 540 355 Q523 397 493 428 Q463 459 422 476.5 Q381 494 332 494 Z " />
<glyph glyph-name="one" unicode="1" horiz-adv-x="481" d="M290 46 L437 46 L437 0 L82 0 L82 46 L238 46 L238 485 L93 485 L93 531 L290 531 L290 46 Z " />
<glyph glyph-name="two" unicode="2" horiz-adv-x="541" d="M270 542 Q311 542 345 529 Q379 516 403.5 492.5 Q428 469 441.5 437 Q455 405 455 366 Q455 326 440.5 293 Q426 260 401.5 231 Q377 202 344.5 175.5 Q312 149 276 124 L166 46 L486 46 L486 0 L47 0 L47 15 L237 153 Q271 177 301 200 Q331 223 353.5 247.5 Q376 272 389 299.5 Q402 327 402 362 Q402 389 393.5 413.5 Q385 438 368 456 Q351 474 326.5 484.5 Q302 495 269 495 Q235 495 209 484 Q183 473 165.5 454 Q148 435 139 411 Q130 387 130 362 Q130 349 132 334.5 Q134 320 136 307 L86 307 Q78 336 78 364 Q78 398 91 430 Q104 462 129 487 Q154 512 189.5 527 Q225 542 270 542 Z " />
<glyph glyph-name="three" unicode="3" horiz-adv-x="510" d="M434 515 L246 283 Q282 282 319 269.5 Q356 257 386 232.5 Q416 208 434.5 170.5 Q453 133 453 82 Q453 31 434 -9 Q415 -49 383.5 -76.5 Q352 -104 311 -118.5 Q270 -133 225 -133 Q185 -133 152 -122 Q119 -111 92 -92.5 Q65 -74 44.5 -50.5 Q24 -27 9 -3 L46 24 Q59 4 76 -16 Q93 -36 115 -51.5 Q137 -67 164.5 -76.5 Q192 -86 226 -86 Q264 -86 296 -73.5 Q328 -61 351 -39 Q374 -17 387 14 Q400 45 400 83 Q400 155 352 196.5 Q304 238 216 238 L165 238 L165 255 L350 485 L51 485 L51 531 L434 531 L434 515 Z " />
<glyph glyph-name="four" unicode="4" horiz-adv-x="528" d="M408 46 L509 46 L509 0 L408 0 L408 -121 L356 -121 L356 0 L24 0 L24 17 L244 531 L297 531 L89 46 L356 46 L356 285 L408 285 L408 46 Z " />
<glyph glyph-name="five" unicode="5" horiz-adv-x="536" d="M418 485 L147 485 L147 277 Q173 281 197 282.5 Q221 284 253 284 Q298 284 339 272.5 Q380 261 411.5 236 Q443 211 461.5 173 Q480 135 480 83 Q480 31 461 -9 Q442 -49 410.5 -76.5 Q379 -104 338.5 -118.5 Q298 -133 255 -133 Q213 -133 179 -122 Q145 -111 118 -92.5 Q91 -74 70 -50.5 Q49 -27 34 -3 L71 24 Q84 4 101 -16 Q118 -36 140.5 -51.5 Q163 -67 191.5 -76.5 Q220 -86 256 -86 Q292 -86 323.5 -73.5 Q355 -61 378 -39 Q401 -17 414 14 Q427 45 427 83 Q427 156 379 197.5 Q331 239 243 239 L96 239 L96 531 L418 531 L418 485 Z " />
<glyph glyph-name="six" unicode="6" horiz-adv-x="546" d="M193 398 Q230 418 277 418 Q322 418 360.5 401.5 Q399 385 428 356 Q457 327 473.5 288.5 Q490 250 490 205 Q490 160 473 120.5 Q456 81 427 52 Q398 23 358.5 6.5 Q319 -10 273 -10 Q227 -10 187.5 6.5 Q148 23 118.5 52 Q89 81 72.5 120.5 Q56 160 56 206 Q56 237 63.5 264 Q71 291 83.5 316 Q96 341 113 365.5 Q130 390 148 417 L312 660 L373 660 L193 398 Z M272 372 Q237 372 206.5 359 Q176 346 154 323.5 Q132 301 119.5 270.5 Q107 240 107 204 Q107 168 119.5 137.5 Q132 107 154 84.5 Q176 62 206.5 49.5 Q237 37 272 37 Q307 37 337.5 49.5 Q368 62 390.5 84.5 Q413 107 425.5 137.5 Q438 168 438 204 Q438 240 425.5 270.5 Q413 301 390.5 323.5 Q368 346 337.5 359 Q307 372 272 372 Z " />
<glyph glyph-name="seven" unicode="7" horiz-adv-x="490" d="M464 515 L118 -121 L63 -121 L392 485 L33 485 L33 531 L464 531 L464 515 Z " />
<glyph glyph-name="eight" unicode="8" horiz-adv-x="572" d="M286 670 Q325 670 360.5 660 Q396 650 422 629.5 Q448 609 463.5 579.5 Q479 550 479 511 Q479 453 443 413 Q407 373 341 347 Q372 336 402 320 Q432 304 456 282.5 Q480 261 495 232 Q510 203 510 165 Q510 127 494.5 94.5 Q479 62 450 39 Q421 16 379.5 3 Q338 -10 286 -10 Q234 -10 192.5 3 Q151 16 121.5 39.5 Q92 63 76.5 95 Q61 127 61 166 Q61 202 74.5 230.5 Q88 259 111.5 281 Q135 303 165.5 319 Q196 335 230 347 Q169 373 131 411.5 Q93 450 93 512 Q93 550 108 579.5 Q123 609 149.5 629 Q176 649 211 659.5 Q246 670 286 670 Z M458 166 Q458 199 444 223 Q430 247 406.5 265 Q383 283 351.5 296.5 Q320 310 286 322 Q252 310 221 296.5 Q190 283 166 265 Q142 247 128 223 Q114 199 114 166 Q114 108 158.5 71.5 Q203 35 286 35 Q370 35 414 71.5 Q458 108 458 166 Z M286 625 Q256 625 230 617.5 Q204 610 185 595 Q166 580 155 558.5 Q144 537 144 510 Q144 483 154.5 463 Q165 443 183.5 426.5 Q202 410 228 397 Q254 384 285 372 Q316 384 342 397 Q368 410 387 426 Q406 442 416.5 462.5 Q427 483 427 510 Q427 537 416 558.5 Q405 580 386 595 Q367 610 341.5 617.5 Q316 625 286 625 Z " />
<glyph glyph-name="nine" unicode="9" horiz-adv-x="546" d="M273 542 Q319 542 358.5 525.5 Q398 509 427 480 Q456 451 473 411.5 Q490 372 490 327 Q490 296 483.5 270.5 Q477 245 465 220.5 Q453 196 436 170.5 Q419 145 399 115 L239 -121 L178 -121 L353 135 Q317 114 269 114 Q224 114 185.5 130.5 Q147 147 118 176 Q89 205 72.5 243.5 Q56 282 56 327 Q56 372 72.5 411.5 Q89 451 118.5 480 Q148 509 187.5 525.5 Q227 542 273 542 Z M272 495 Q237 495 207 482.5 Q177 470 154.5 447.5 Q132 425 119.5 394.5 Q107 364 107 328 Q107 292 119.5 261 Q132 230 154.5 207.5 Q177 185 207 172 Q237 159 272 159 Q308 159 338 172 Q368 185 390.5 207.5 Q413 230 425.5 261 Q438 292 438 328 Q438 364 425.5 394.5 Q413 425 390.5 447.5 Q368 470 338 482.5 Q308 495 272 495 Z " />
<glyph glyph-name="uni2780" unicode="&#x2780;" horiz-adv-x="977" d="M488 760 Q577 760 655.5 726 Q734 692 792.5 633.5 Q851 575 884.5 497 Q918 419 918 330 Q918 241 884.5 163 Q851 85 792.5 26.5 Q734 -32 655.5 -66 Q577 -100 488 -100 Q399 -100 320.5 -66.5 Q242 -33 183.5 25.5 Q125 84 91.5 162.5 Q58 241 58 330 Q58 419 91.5 497.5 Q125 576 183.5 634.5 Q242 693 320.5 726.5 Q399 760 488 760 Z M489 715 Q409 715 339 685 Q269 655 216.5 603 Q164 551 134 481 Q104 411 104 330 Q104 249 134 179 Q164 109 216.5 57 Q269 5 339 -25 Q409 -55 489 -55 Q569 -55 639 -25 Q709 5 761 57 Q813 109 843 179.5 Q873 250 873 330 Q873 410 843 480.5 Q813 551 761 603 Q709 655 639 685 Q569 715 489 715 Z M517 147 L614 147 L614 105 L364 105 L364 147 L469 147 L469 512 L371 512 L371 554 L517 554 L517 147 Z " />
<glyph glyph-name="uni2781" unicode="&#x2781;" horiz-adv-x="977" d="M488 760 Q577 760 655.5 726 Q734 692 792.5 633.5 Q851 575 884.5 497 Q918 419 918 330 Q918 241 884.5 163 Q851 85 792.5 26.5 Q734 -32 655.5 -66 Q577 -100 488 -100 Q399 -100 320.5 -66.5 Q242 -33 183.5 25.5 Q125 84 91.5 162.5 Q58 241 58 330 Q58 419 91.5 497.5 Q125 576 183.5 634.5 Q242 693 320.5 726.5 Q399 760 488 760 Z M489 715 Q409 715 339 685 Q269 655 216.5 603 Q164 551 134 481 Q104 411 104 330 Q104 249 134 179 Q164 109 216.5 57 Q269 5 339 -25 Q409 -55 489 -55 Q569 -55 639 -25 Q709 5 761 57 Q813 109 843 179.5 Q873 250 873 330 Q873 410 843 480.5 Q813 551 761 603 Q709 655 639 685 Q569 715 489 715 Z M483 561 Q515 561 541 551 Q567 541 585.5 523 Q604 505 614 480.5 Q624 456 624 428 Q624 403 616.5 381.5 Q609 360 596.5 340 Q584 320 567.5 301 Q551 282 533 264 L419 147 L645 147 L645 105 L334 105 L334 118 L495 287 Q527 320 551 353 Q575 386 575 427 Q575 464 551 490.5 Q527 517 481 517 Q433 517 406.5 488.5 Q380 460 380 420 Q380 410 382 399 Q384 388 386 378 L341 378 Q336 401 336 424 Q336 451 346.5 475.5 Q357 500 376 519 Q395 538 422 549.5 Q449 561 483 561 Z " />
<glyph glyph-name="uni2782" unicode="&#x2782;" horiz-adv-x="977" d="M488 760 Q577 760 655.5 726 Q734 692 792.5 633.5 Q851 575 884.5 497 Q918 419 918 330 Q918 241 884.5 163 Q851 85 792.5 26.5 Q734 -32 655.5 -66 Q577 -100 488 -100 Q399 -100 320.5 -66.5 Q242 -33 183.5 25.5 Q125 84 91.5 162.5 Q58 241 58 330 Q58 419 91.5 497.5 Q125 576 183.5 634.5 Q242 693 320.5 726.5 Q399 760 488 760 Z M622 539 L497 382 Q522 380 547 371.5 Q572 363 591 346.5 Q610 330 622 305 Q634 280 634 246 Q634 211 621 184 Q608 157 586 137.5 Q564 118 535 108 Q506 98 475 98 Q448 98 424.5 105.5 Q401 113 382.5 126 Q364 139 349 155 Q334 171 324 189 L359 214 Q376 187 404 164.5 Q432 142 475 142 Q522 142 552.5 171 Q583 200 583 246 Q583 291 553 316.5 Q523 342 466 342 L423 342 L423 356 L547 511 L354 511 L354 554 L622 554 L622 539 Z M489 715 Q409 715 339 685 Q269 655 216.5 603 Q164 551 134 481 Q104 411 104 330 Q104 249 134 179 Q164 109 216.5 57 Q269 5 339 -25 Q409 -55 489 -55 Q569 -55 639 -25 Q709 5 761 57 Q813 109 843 179.5 Q873 250 873 330 Q873 410 843 480.5 Q813 551 761 603 Q709 655 639 685 Q569 715 489 715 Z " />
<glyph glyph-name="uni2783" unicode="&#x2783;" horiz-adv-x="977" d="M488 760 Q577 760 655.5 726 Q734 692 792.5 633.5 Q851 575 884.5 497 Q918 419 918 330 Q918 241 884.5 163 Q851 85 792.5 26.5 Q734 -32 655.5 -66 Q577 -100 488 -100 Q399 -100 320.5 -66.5 Q242 -33 183.5 25.5 Q125 84 91.5 162.5 Q58 241 58 330 Q58 419 91.5 497.5 Q125 576 183.5 634.5 Q242 693 320.5 726.5 Q399 760 488 760 Z M368 232 L534 232 L534 383 L582 383 L582 232 L648 232 L648 189 L582 189 L582 105 L534 105 L534 189 L308 189 L308 204 L454 554 L504 554 L368 232 Z M489 715 Q409 715 339 685 Q269 655 216.5 603 Q164 551 134 481 Q104 411 104 330 Q104 249 134 179 Q164 109 216.5 57 Q269 5 339 -25 Q409 -55 489 -55 Q569 -55 639 -25 Q709 5 761 57 Q813 109 843 179.5 Q873 250 873 330 Q873 410 843 480.5 Q813 551 761 603 Q709 655 639 685 Q569 715 489 715 Z " />
<glyph glyph-name="uni2784" unicode="&#x2784;" horiz-adv-x="977" d="M488 760 Q577 760 655.5 726 Q734 692 792.5 633.5 Q851 575 884.5 497 Q918 419 918 330 Q918 241 884.5 163 Q851 85 792.5 26.5 Q734 -32 655.5 -66 Q577 -100 488 -100 Q399 -100 320.5 -66.5 Q242 -33 183.5 25.5 Q125 84 91.5 162.5 Q58 241 58 330 Q58 419 91.5 497.5 Q125 576 183.5 634.5 Q242 693 320.5 726.5 Q399 760 488 760 Z M605 511 L422 511 L422 381 Q439 383 454.5 384 Q470 385 490 385 Q520 385 548 376.5 Q576 368 597 351 Q618 334 631 308 Q644 282 644 247 Q644 212 631 184 Q618 156 596 136.5 Q574 117 545.5 107 Q517 97 486 97 Q457 97 433.5 105 Q410 113 391 125.5 Q372 138 357 154.5 Q342 171 332 189 L367 214 Q386 187 413.5 164 Q441 141 486 141 Q533 141 563.5 170 Q594 199 594 246 Q594 292 563.5 317 Q533 342 476 342 L375 342 L375 554 L605 554 L605 511 Z M489 715 Q409 715 339 685 Q269 655 216.5 603 Q164 551 134 481 Q104 411 104 330 Q104 249 134 179 Q164 109 216.5 57 Q269 5 339 -25 Q409 -55 489 -55 Q569 -55 639 -25 Q709 5 761 57 Q813 109 843 179.5 Q873 250 873 330 Q873 410 843 480.5 Q813 551 761 603 Q709 655 639 685 Q569 715 489 715 Z " />
<glyph glyph-name="uni2785" unicode="&#x2785;" horiz-adv-x="977" d="M488 760 Q577 760 655.5 726 Q734 692 792.5 633.5 Q851 575 884.5 497 Q918 419 918 330 Q918 241 884.5 163 Q851 85 792.5 26.5 Q734 -32 655.5 -66 Q577 -100 488 -100 Q399 -100 320.5 -66.5 Q242 -33 183.5 25.5 Q125 84 91.5 162.5 Q58 241 58 330 Q58 419 91.5 497.5 Q125 576 183.5 634.5 Q242 693 320.5 726.5 Q399 760 488 760 Z M478 352 Q434 352 405 322 Q376 292 376 247 Q376 224 384 205 Q392 186 405.5 172 Q419 158 437.5 150 Q456 142 478 142 Q523 142 552.5 172 Q582 202 582 247 Q582 292 552.5 322 Q523 352 478 352 Z M438 379 Q463 393 496 390 Q524 388 548.5 376.5 Q573 365 591.5 346 Q610 327 620.5 301.5 Q631 276 631 247 Q631 215 619 188 Q607 161 586.5 141 Q566 121 538 109.5 Q510 98 478 98 Q447 98 419.5 109.5 Q392 121 371.5 141 Q351 161 339 188 Q327 215 327 247 Q327 268 331.5 285.5 Q336 303 344.5 319.5 Q353 336 364 353.5 Q375 371 389 391 L501 554 L558 554 L438 379 Z M489 715 Q409 715 339 685 Q269 655 216.5 603 Q164 551 134 481 Q104 411 104 330 Q104 249 134 179 Q164 109 216.5 57 Q269 5 339 -25 Q409 -55 489 -55 Q569 -55 639 -25 Q709 5 761 57 Q813 109 843 179.5 Q873 250 873 330 Q873 410 843 480.5 Q813 551 761 603 Q709 655 639 685 Q569 715 489 715 Z " />
<glyph glyph-name="uni2786" unicode="&#x2786;" horiz-adv-x="977" d="M488 760 Q577 760 655.5 726 Q734 692 792.5 633.5 Q851 575 884.5 497 Q918 419 918 330 Q918 241 884.5 163 Q851 85 792.5 26.5 Q734 -32 655.5 -66 Q577 -100 488 -100 Q399 -100 320.5 -66.5 Q242 -33 183.5 25.5 Q125 84 91.5 162.5 Q58 241 58 330 Q58 419 91.5 497.5 Q125 576 183.5 634.5 Q242 693 320.5 726.5 Q399 760 488 760 Z M489 715 Q409 715 339 685 Q269 655 216.5 603 Q164 551 134 481 Q104 411 104 330 Q104 249 134 179 Q164 109 216.5 57 Q269 5 339 -25 Q409 -55 489 -55 Q569 -55 639 -25 Q709 5 761 57 Q813 109 843 179.5 Q873 250 873 330 Q873 410 843 480.5 Q813 551 761 603 Q709 655 639 685 Q569 715 489 715 Z M649 541 L419 106 L367 106 L585 511 L351 511 L351 555 L649 555 L649 541 Z " />
<glyph glyph-name="uni2787" unicode="&#x2787;" horiz-adv-x="977" d="M488 760 Q577 760 655.5 726 Q734 692 792.5 633.5 Q851 575 884.5 497 Q918 419 918 330 Q918 241 884.5 163 Q851 85 792.5 26.5 Q734 -32 655.5 -66 Q577 -100 488 -100 Q399 -100 320.5 -66.5 Q242 -33 183.5 25.5 Q125 84 91.5 162.5 Q58 241 58 330 Q58 419 91.5 497.5 Q125 576 183.5 634.5 Q242 693 320.5 726.5 Q399 760 488 760 Z M488 320 Q467 312 447.5 304 Q428 296 413 284.5 Q398 273 389.5 257.5 Q381 242 381 221 Q381 185 408.5 162 Q436 139 489 139 Q540 139 568 162 Q596 185 596 221 Q596 242 587.5 257.5 Q579 273 564 284.5 Q549 296 529.5 304 Q510 312 488 320 Z M489 561 Q517 561 541.5 554 Q566 547 584 532.5 Q602 518 612.5 497.5 Q623 477 623 450 Q623 412 601 385.5 Q579 359 537 341 Q557 333 576.5 322 Q596 311 611 296.5 Q626 282 635.5 262.5 Q645 243 645 219 Q645 165 602.5 131.5 Q560 98 489 98 Q417 98 374.5 132 Q332 166 332 220 Q332 267 364 295.5 Q396 324 442 340 Q402 357 378 383.5 Q354 410 354 451 Q354 478 364.5 498.5 Q375 519 393.5 533 Q412 547 436.5 554 Q461 561 489 561 Z M489 715 Q409 715 339 685 Q269 655 216.5 603 Q164 551 134 481 Q104 411 104 330 Q104 249 134 179 Q164 109 216.5 57 Q269 5 339 -25 Q409 -55 489 -55 Q569 -55 639 -25 Q709 5 761 57 Q813 109 843 179.5 Q873 250 873 330 Q873 410 843 480.5 Q813 551 761 603 Q709 655 639 685 Q569 715 489 715 Z M489 520 Q451 520 426.5 501 Q402 482 402 448 Q402 414 426 395 Q450 376 488 362 Q526 376 551 395 Q576 414 576 448 Q576 482 551 501 Q526 520 489 520 Z " />
<glyph glyph-name="uni2788" unicode="&#x2788;" horiz-adv-x="977" d="M488 760 Q577 760 655.5 726.5 Q734 693 792.5 634.5 Q851 576 884.5 497.5 Q918 419 918 330 Q918 241 884.5 162.5 Q851 84 792.5 25.5 Q734 -33 655.5 -66.5 Q577 -100 488 -100 Q399 -100 320.5 -66 Q242 -32 183.5 26.5 Q125 85 91.5 163 Q58 241 58 330 Q58 419 91.5 497 Q125 575 183.5 633.5 Q242 692 320.5 726 Q399 760 488 760 Z M489 715 Q409 715 339 685 Q269 655 216.5 603 Q164 551 134 480.5 Q104 410 104 330 Q104 250 134 179.5 Q164 109 216.5 57 Q269 5 339 -25 Q409 -55 489 -55 Q569 -55 639 -25 Q709 5 761 57 Q813 109 843 179 Q873 249 873 330 Q873 411 843 481 Q813 551 761 603 Q709 655 639 685 Q569 715 489 715 Z M498 562 Q529 562 557 550.5 Q585 539 605.5 519 Q626 499 638 472 Q650 445 650 413 Q650 372 632.5 340.5 Q615 309 588 269 L476 106 L418 106 L539 281 Q514 267 481 270 Q452 271 427.5 283 Q403 295 385 314 Q367 333 356.5 358.5 Q346 384 346 413 Q346 445 358 472 Q370 499 390.5 519 Q411 539 438.5 550.5 Q466 562 498 562 Z M498 518 Q454 518 424.5 488 Q395 458 395 413 Q395 368 424.5 338.5 Q454 309 498 309 Q543 309 572 339 Q601 369 601 413 Q601 435 593 454.5 Q585 474 571.5 488 Q558 502 539 510 Q520 518 498 518 Z " />
<glyph glyph-name="uni24FF" unicode="&#x24ff;" horiz-adv-x="977" d="M488 760 Q577 760 655.5 726 Q734 692 792.5 633.5 Q851 575 884.5 497 Q918 419 918 330 Q918 241 884.5 163 Q851 85 792.5 26.5 Q734 -32 655.5 -66 Q577 -100 488 -100 Q399 -100 320.5 -66.5 Q242 -33 183.5 25.5 Q125 84 91.5 162.5 Q58 241 58 330 Q58 419 91.5 497.5 Q125 576 183.5 634.5 Q242 693 320.5 726.5 Q399 760 488 760 Z M488 561 Q446 561 415.5 544 Q385 527 365 496.5 Q345 466 335.5 424 Q326 382 326 333 Q326 285 335 242.5 Q344 200 363.5 168 Q383 136 413.5 117 Q444 98 488 98 Q531 98 562 117 Q593 136 612.5 168 Q632 200 641.5 242.5 Q651 285 651 333 Q651 382 641.5 424 Q632 466 612 496.5 Q592 527 561 544 Q530 561 488 561 Z M488 517 Q519 517 540.5 503.5 Q562 490 575.5 465.5 Q589 441 595 407 Q601 373 601 333 Q601 292 595 257 Q589 222 575.5 196.5 Q562 171 540.5 156.5 Q519 142 488 142 Q458 142 436.5 156.5 Q415 171 401.5 196.5 Q388 222 382 257 Q376 292 376 333 Q376 373 382 407 Q388 441 401.5 465.5 Q415 490 436.5 503.5 Q458 517 488 517 Z " />
<glyph glyph-name="uni2776" unicode="&#x2776;" horiz-adv-x="977" d="M488 760 Q577 760 655.5 726 Q734 692 792.5 633.5 Q851 575 884.5 497 Q918 419 918 330 Q918 241 884.5 163 Q851 85 792.5 26.5 Q734 -32 655.5 -66 Q577 -100 488 -100 Q399 -100 320.5 -66.5 Q242 -33 183.5 25.5 Q125 84 91.5 162.5 Q58 241 58 330 Q58 419 91.5 497.5 Q125 576 183.5 634.5 Q242 693 320.5 726.5 Q399 760 488 760 Z M371 554 L371 512 L469 512 L469 147 L364 147 L364 105 L614 105 L614 147 L517 147 L517 554 L371 554 Z " />
<glyph glyph-name="uni2777" unicode="&#x2777;" horiz-adv-x="977" d="M488 760 Q577 760 655.5 726 Q734 692 792.5 633.5 Q851 575 884.5 497 Q918 419 918 330 Q918 241 884.5 163 Q851 85 792.5 26.5 Q734 -32 655.5 -66 Q577 -100 488 -100 Q399 -100 320.5 -66.5 Q242 -33 183.5 25.5 Q125 84 91.5 162.5 Q58 241 58 330 Q58 419 91.5 497.5 Q125 576 183.5 634.5 Q242 693 320.5 726.5 Q399 760 488 760 Z M483 561 Q449 561 422 549.5 Q395 538 376 519 Q357 500 346.5 475.5 Q336 451 336 424 Q336 401 341 378 L386 378 Q384 388 382 399 Q380 410 380 420 Q380 460 406.5 488.5 Q433 517 481 517 Q527 517 551 490.5 Q575 464 575 427 Q575 386 551 353 Q527 320 495 287 L334 118 L334 105 L645 105 L645 147 L420 147 L533 264 Q551 282 567.5 301 Q584 320 596.5 340 Q609 360 616.5 381.5 Q624 403 624 428 Q624 456 614 480.5 Q604 505 585.5 523 Q567 541 541 551 Q515 561 483 561 Z " />
<glyph glyph-name="uni2778" unicode="&#x2778;" horiz-adv-x="977" d="M488 760 Q577 760 655.5 726 Q734 692 792.5 633.5 Q851 575 884.5 497 Q918 419 918 330 Q918 241 884.5 163 Q851 85 792.5 26.5 Q734 -32 655.5 -66 Q577 -100 488 -100 Q399 -100 320.5 -66.5 Q242 -33 183.5 25.5 Q125 84 91.5 162.5 Q58 241 58 330 Q58 419 91.5 497.5 Q125 576 183.5 634.5 Q242 693 320.5 726.5 Q399 760 488 760 Z M354 554 L354 511 L547 511 L423 356 L423 342 L466 342 Q523 342 553 316.5 Q583 291 583 246 Q583 200 552.5 171 Q522 142 475 142 Q432 142 404 164.5 Q376 187 359 214 L324 189 Q334 171 349 155 Q364 139 382.5 126 Q401 113 424.5 105.5 Q448 98 475 98 Q506 98 535 108 Q564 118 586 137.5 Q608 157 621 184 Q634 211 634 246 Q634 280 622 305 Q610 330 591 346.5 Q572 363 547 371.5 Q522 380 497 382 L622 539 L622 554 L354 554 Z " />
<glyph glyph-name="uni2779" unicode="&#x2779;" horiz-adv-x="977" d="M488 760 Q577 760 655.5 726 Q734 692 792.5 633.5 Q851 575 884.5 497 Q918 419 918 330 Q918 241 884.5 163 Q851 85 792.5 26.5 Q734 -32 655.5 -66 Q577 -100 488 -100 Q399 -100 320.5 -66.5 Q242 -33 183.5 25.5 Q125 84 91.5 162.5 Q58 241 58 330 Q58 419 91.5 497.5 Q125 576 183.5 634.5 Q242 693 320.5 726.5 Q399 760 488 760 Z M454 554 L308 204 L308 189 L534 189 L534 105 L582 105 L582 189 L648 189 L648 232 L582 232 L582 383 L534 383 L534 232 L368 232 L504 554 L454 554 Z " />
<glyph glyph-name="uni277A" unicode="&#x277a;" horiz-adv-x="977" d="M488 760 Q577 760 655.5 726 Q734 692 792.5 633.5 Q851 575 884.5 497 Q918 419 918 330 Q918 241 884.5 163 Q851 85 792.5 26.5 Q734 -32 655.5 -66 Q577 -100 488 -100 Q399 -100 320.5 -66.5 Q242 -33 183.5 25.5 Q125 84 91.5 162.5 Q58 241 58 330 Q58 419 91.5 497.5 Q125 576 183.5 634.5 Q242 693 320.5 726.5 Q399 760 488 760 Z M375 554 L375 342 L476 342 Q533 342 563.5 317 Q594 292 594 246 Q594 199 563.5 170 Q533 141 486 141 Q441 141 413 164 Q385 187 367 214 L332 189 Q342 171 356.5 154.5 Q371 138 390.5 125.5 Q410 113 433.5 105 Q457 97 486 97 Q517 97 545 107 Q573 117 595 136.5 Q617 156 630 184 Q643 212 643 247 Q643 282 630.5 308 Q618 334 596.5 351 Q575 368 547.5 376.5 Q520 385 490 385 Q470 385 454.5 384 Q439 383 422 381 L422 511 L604 511 L604 554 L375 554 Z " />
<glyph glyph-name="uni277B" unicode="&#x277b;" horiz-adv-x="977" d="M488 760 Q577 760 655.5 726 Q734 692 792.5 633.5 Q851 575 884.5 497 Q918 419 918 330 Q918 241 884.5 163 Q851 85 792.5 26.5 Q734 -32 655.5 -66 Q577 -100 488 -100 Q399 -100 320.5 -66.5 Q242 -33 183.5 25.5 Q125 84 91.5 162.5 Q58 241 58 330 Q58 419 91.5 497.5 Q125 576 183.5 634.5 Q242 693 320.5 726.5 Q399 760 488 760 Z M478 352 Q523 352 552.5 322 Q582 292 582 247 Q582 202 552.5 172 Q523 142 478 142 Q456 142 437.5 150 Q419 158 405.5 172 Q392 186 384 205 Q376 224 376 247 Q376 292 405 322 Q434 352 478 352 Z M501 554 L389 391 Q375 371 364 353.5 Q353 336 344.5 319.5 Q336 303 331.5 285.5 Q327 268 327 247 Q327 215 339 188 Q351 161 371.5 141 Q392 121 419.5 109.5 Q447 98 478 98 Q510 98 538 109.5 Q566 121 586.5 141 Q607 161 619 188 Q631 215 631 247 Q631 276 620.5 301.5 Q610 327 591.5 346 Q573 365 548.5 376.5 Q524 388 496 390 Q463 393 438 379 L558 554 L501 554 Z " />
<glyph glyph-name="uni277C" unicode="&#x277c;" horiz-adv-x="977" d="M488 760 Q577 760 655.5 726 Q734 692 792.5 633.5 Q851 575 884.5 497 Q918 419 918 330 Q918 241 884.5 163 Q851 85 792.5 26.5 Q734 -32 655.5 -66 Q577 -100 488 -100 Q399 -100 320.5 -66.5 Q242 -33 183.5 25.5 Q125 84 91.5 162.5 Q58 241 58 330 Q58 419 91.5 497.5 Q125 576 183.5 634.5 Q242 693 320.5 726.5 Q399 760 488 760 Z M351 555 L351 511 L585 511 L367 106 L419 106 L649 541 L649 555 L351 555 Z " />
<glyph glyph-name="uni277D" unicode="&#x277d;" horiz-adv-x="977" d="M488 760 Q577 760 655.5 726 Q734 692 792.5 633.5 Q851 575 884.5 497 Q918 419 918 330 Q918 241 884.5 163 Q851 85 792.5 26.5 Q734 -32 655.5 -66 Q577 -100 488 -100 Q399 -100 320.5 -66.5 Q242 -33 183.5 25.5 Q125 84 91.5 162.5 Q58 241 58 330 Q58 419 91.5 497.5 Q125 576 183.5 634.5 Q242 693 320.5 726.5 Q399 760 488 760 Z M488 320 Q510 312 529.5 303.5 Q549 295 564 284 Q579 273 587.5 257.5 Q596 242 596 221 Q596 185 568 162 Q540 139 489 139 Q436 139 408.5 162 Q381 185 381 221 Q381 242 389.5 257.5 Q398 273 413 284 Q428 295 447.5 303.5 Q467 312 488 320 Z M489 561 Q461 561 436.5 554 Q412 547 393.5 533 Q375 519 364.5 498.5 Q354 478 354 451 Q354 410 378 383.5 Q402 357 442 340 Q396 324 364 295.5 Q332 267 332 220 Q332 166 374.5 132 Q417 98 489 98 Q560 98 602.5 131.5 Q645 165 645 219 Q645 243 635.5 262.5 Q626 282 611 296.5 Q596 311 576.5 322 Q557 333 537 341 Q579 359 601 385.5 Q623 412 623 450 Q623 477 612.5 497.5 Q602 518 584 532.5 Q566 547 541.5 554 Q517 561 489 561 Z M489 520 Q526 520 551 501 Q576 482 576 448 Q576 414 551 395 Q526 376 488 362 Q450 376 426 395 Q402 414 402 448 Q402 482 426.5 501 Q451 520 489 520 Z " />
<glyph glyph-name="uni277E" unicode="&#x277e;" horiz-adv-x="977" d="M488 760 Q577 760 655.5 726.5 Q734 693 792.5 634.5 Q851 576 884.5 497.5 Q918 419 918 330 Q918 241 884.5 162.5 Q851 84 792.5 25.5 Q734 -33 655.5 -66.5 Q577 -100 488 -100 Q399 -100 320.5 -66 Q242 -32 183.5 26.5 Q125 85 91.5 163 Q58 241 58 330 Q58 419 91.5 497 Q125 575 183.5 633.5 Q242 692 320.5 726 Q399 760 488 760 Z M498 562 Q466 562 438.5 550.5 Q411 539 390.5 519 Q370 499 358 472 Q346 445 346 413 Q346 384 356.5 358.5 Q367 333 385 314 Q403 295 427.5 283 Q452 271 481 270 Q514 267 539 281 L418 106 L476 106 L588 269 Q615 309 632.5 340.5 Q650 372 650 413 Q650 445 638 472 Q626 499 605.5 519 Q585 539 557 550.5 Q529 562 498 562 Z M498 518 Q520 518 539 510 Q558 502 571.5 488 Q585 474 593 454.5 Q601 435 601 413 Q601 369 572 339 Q543 309 498 309 Q454 309 424.5 338.5 Q395 368 395 413 Q395 458 424.5 488 Q454 518 498 518 Z " />
<glyph glyph-name="uni24EA" unicode="&#x24ea;" horiz-adv-x="977" d="M488 760 Q577 760 655.5 726 Q734 692 792.5 633.5 Q851 575 884.5 497 Q918 419 918 330 Q918 241 884.5 163 Q851 85 792.5 26.5 Q734 -32 655.5 -66 Q577 -100 488 -100 Q399 -100 320.5 -66.5 Q242 -33 183.5 25.5 Q125 84 91.5 162.5 Q58 241 58 330 Q58 419 91.5 497.5 Q125 576 183.5 634.5 Q242 693 320.5 726.5 Q399 760 488 760 Z M488 561 Q530 561 561 544 Q592 527 611.5 496.5 Q631 466 640.5 424 Q650 382 650 333 Q650 285 641 242.5 Q632 200 612.5 168 Q593 136 562 117 Q531 98 488 98 Q445 98 414.5 117 Q384 136 364.5 168 Q345 200 336 242.5 Q327 285 327 333 Q327 382 336.5 424 Q346 466 366 496.5 Q386 527 416 544 Q446 561 488 561 Z M489 519 Q458 519 436 505.5 Q414 492 400.5 467 Q387 442 381 408 Q375 374 375 333 Q375 292 381.5 256.5 Q388 221 401.5 195 Q415 169 436.5 154.5 Q458 140 489 140 Q520 140 542 154.5 Q564 169 577.5 195 Q591 221 597.5 256.5 Q604 292 604 333 Q604 374 597.5 408 Q591 442 577.5 467 Q564 492 542 505.5 Q520 519 489 519 Z M488 717 Q408 717 337.5 687 Q267 657 214.5 604.5 Q162 552 131.5 481.5 Q101 411 101 330 Q101 249 131.5 178.5 Q162 108 214.5 55.5 Q267 3 337.5 -27 Q408 -57 488 -57 Q569 -57 639.5 -27 Q710 3 762.5 55.5 Q815 108 845 178.5 Q875 249 875 330 Q875 411 845 481.5 Q815 552 762.5 604.5 Q710 657 639.5 687 Q569 717 488 717 Z " />
<glyph glyph-name="fraction" unicode="&#x2044;" horiz-adv-x="231" d="M-51 0 L-98 0 L281 660 L329 660 L-51 0 Z " />
<glyph glyph-name="onehalf" unicode="&#xbd;" horiz-adv-x="905" d="M204 286 L300 286 L300 244 L49 244 L49 286 L158 286 L158 618 L51 618 L51 660 L204 660 L204 286 Z M295 0 L248 0 L627 660 L675 660 L295 0 Z M717 423 Q745 423 769 413.5 Q793 404 810.5 387.5 Q828 371 837.5 348.5 Q847 326 847 299 Q847 276 840 256 Q833 236 820.5 217 Q808 198 792 179.5 Q776 161 758 142 L661 43 L864 43 L864 1 L578 1 L578 13 L728 170 Q760 204 780 233 Q800 262 800 296 Q800 330 778 355.5 Q756 381 717 381 Q676 381 654 354.5 Q632 328 632 292 Q632 285 632.5 276.5 Q633 268 634 259 L589 259 Q587 268 586 278 Q585 288 585 295 Q585 319 594 342 Q603 365 620 383 Q637 401 661.5 412 Q686 423 717 423 Z " />
<glyph glyph-name="uni2153" unicode="&#x2153;" horiz-adv-x="929" d="M204 286 L300 286 L300 244 L49 244 L49 286 L158 286 L158 618 L51 618 L51 660 L204 660 L204 286 Z M295 0 L248 0 L627 660 L675 660 L295 0 Z M875 403 L762 259 Q783 257 805 249 Q827 241 845 225.5 Q863 210 874.5 187 Q886 164 886 132 Q886 100 874 74.5 Q862 49 842 31.5 Q822 14 795.5 4.5 Q769 -5 740 -5 Q689 -5 654 20.5 Q619 46 600 79 L633 103 Q649 77 674.5 57 Q700 37 740 37 Q783 37 810.5 63 Q838 89 838 132 Q838 174 810 197 Q782 220 731 220 L693 220 L693 233 L804 375 L627 375 L627 417 L875 417 L875 403 Z " />
<glyph glyph-name="uni2154" unicode="&#x2154;" horiz-adv-x="946" d="M175 666 Q203 666 227 656.5 Q251 647 268.5 630.5 Q286 614 295.5 591.5 Q305 569 305 542 Q305 519 298 499 Q291 479 278.5 460 Q266 441 250 422.5 Q234 404 216 385 L119 286 L322 286 L322 244 L36 244 L36 256 L186 413 Q218 447 238 476 Q258 505 258 539 Q258 573 236 598.5 Q214 624 175 624 Q134 624 112 597.5 Q90 571 90 535 Q90 528 90.5 519.5 Q91 511 92 502 L47 502 Q45 511 44 521 Q43 531 43 538 Q43 562 52 585 Q61 608 78 626 Q95 644 119.5 655 Q144 666 175 666 Z M312 0 L265 0 L644 660 L692 660 L312 0 Z M892 403 L779 259 Q800 257 822 249 Q844 241 862 225.5 Q880 210 891.5 187 Q903 164 903 132 Q903 100 891 74.5 Q879 49 859 31.5 Q839 14 812.5 4.5 Q786 -5 757 -5 Q706 -5 671 20.5 Q636 46 617 79 L650 103 Q666 77 691.5 57 Q717 37 757 37 Q800 37 827.5 63 Q855 89 855 132 Q855 174 827 197 Q799 220 748 220 L710 220 L710 233 L821 375 L644 375 L644 417 L892 417 L892 403 Z " />
<glyph glyph-name="onequarter" unicode="&#xbc;" horiz-adv-x="866" d="M204 286 L300 286 L300 244 L49 244 L49 286 L158 286 L158 618 L51 618 L51 660 L204 660 L204 286 Z M295 0 L248 0 L627 660 L675 660 L295 0 Z M787 119 L848 119 L848 79 L787 79 L787 1 L743 1 L743 79 L535 79 L535 93 L670 417 L718 417 L593 119 L743 119 L743 261 L787 261 L787 119 Z " />
<glyph glyph-name="threequarters" unicode="&#xbe;" horiz-adv-x="837" d="M298 646 L185 502 Q206 500 228 492 Q250 484 268 468.5 Q286 453 297.5 430 Q309 407 309 375 Q309 343 297 317.5 Q285 292 265 274.5 Q245 257 218.5 247.5 Q192 238 163 238 Q112 238 77 263.5 Q42 289 23 322 L56 346 Q72 320 97.5 300 Q123 280 163 280 Q206 280 233.5 306 Q261 332 261 375 Q261 417 233 440 Q205 463 154 463 L116 463 L116 476 L227 618 L50 618 L50 660 L298 660 L298 646 Z M266 0 L219 0 L598 660 L646 660 L266 0 Z M758 119 L819 119 L819 79 L758 79 L758 1 L714 1 L714 79 L506 79 L506 93 L641 417 L689 417 L564 119 L714 119 L714 261 L758 261 L758 119 Z " />
<glyph glyph-name="uni2155" unicode="&#x2155;" horiz-adv-x="933" d="M204 286 L300 286 L300 244 L49 244 L49 286 L158 286 L158 618 L51 618 L51 660 L204 660 L204 286 Z M295 0 L248 0 L627 660 L675 660 L295 0 Z M855 375 L687 375 L687 255 Q701 257 715 258.5 Q729 260 742 260 Q773 260 800 252.5 Q827 245 847 229.5 Q867 214 878.5 190 Q890 166 890 134 Q890 101 878 75 Q866 49 846 31.5 Q826 14 799.5 4.5 Q773 -5 743 -5 Q692 -5 657 20.5 Q622 46 603 79 L636 103 Q652 77 677.5 57 Q703 37 743 37 Q787 37 815 63 Q843 89 843 132 Q843 174 815 197 Q787 220 735 220 L642 220 L642 417 L855 417 L855 375 Z " />
<glyph glyph-name="uni2156" unicode="&#x2156;" horiz-adv-x="950" d="M175 666 Q203 666 227 656.5 Q251 647 268.5 630.5 Q286 614 295.5 591.5 Q305 569 305 542 Q305 519 298 499 Q291 479 278.5 460 Q266 441 250 422.5 Q234 404 216 385 L119 286 L322 286 L322 244 L36 244 L36 256 L186 413 Q218 447 238 476 Q258 505 258 539 Q258 573 236 598.5 Q214 624 175 624 Q134 624 112 597.5 Q90 571 90 535 Q90 528 90.5 519.5 Q91 511 92 502 L47 502 Q45 511 44 521 Q43 531 43 538 Q43 562 52 585 Q61 608 78 626 Q95 644 119.5 655 Q144 666 175 666 Z M312 0 L265 0 L644 660 L692 660 L312 0 Z M872 375 L704 375 L704 255 Q718 257 732 258.5 Q746 260 759 260 Q790 260 817 252.5 Q844 245 864 229.5 Q884 214 895.5 190 Q907 166 907 134 Q907 101 895 75 Q883 49 863 31.5 Q843 14 816.5 4.5 Q790 -5 760 -5 Q709 -5 674 20.5 Q639 46 620 79 L653 103 Q669 77 694.5 57 Q720 37 760 37 Q804 37 832 63 Q860 89 860 132 Q860 174 832 197 Q804 220 752 220 L659 220 L659 417 L872 417 L872 375 Z " />
<glyph glyph-name="uni2157" unicode="&#x2157;" horiz-adv-x="904" d="M298 646 L185 502 Q206 500 228 492 Q250 484 268 468.5 Q286 453 297.5 430 Q309 407 309 375 Q309 343 297 317.5 Q285 292 265 274.5 Q245 257 218.5 247.5 Q192 238 163 238 Q112 238 77 263.5 Q42 289 23 322 L56 346 Q72 320 97.5 300 Q123 280 163 280 Q206 280 233.5 306 Q261 332 261 375 Q261 417 233 440 Q205 463 154 463 L116 463 L116 476 L227 618 L50 618 L50 660 L298 660 L298 646 Z M266 0 L219 0 L598 660 L646 660 L266 0 Z M826 375 L658 375 L658 255 Q672 257 686 258.5 Q700 260 713 260 Q744 260 771 252.5 Q798 245 818 229.5 Q838 214 849.5 190 Q861 166 861 134 Q861 101 849 75 Q837 49 817 31.5 Q797 14 770.5 4.5 Q744 -5 714 -5 Q663 -5 628 20.5 Q593 46 574 79 L607 103 Q623 77 648.5 57 Q674 37 714 37 Q758 37 786 63 Q814 89 814 132 Q814 174 786 197 Q758 220 706 220 L613 220 L613 417 L826 417 L826 375 Z " />
<glyph glyph-name="uni2158" unicode="&#x2158;" horiz-adv-x="946" d="M270 362 L331 362 L331 322 L270 322 L270 244 L226 244 L226 322 L18 322 L18 336 L153 660 L201 660 L76 362 L226 362 L226 504 L270 504 L270 362 Z M308 0 L261 0 L640 660 L688 660 L308 0 Z M868 375 L700 375 L700 255 Q714 257 728 258.5 Q742 260 755 260 Q786 260 813 252.5 Q840 245 860 229.5 Q880 214 891.5 190 Q903 166 903 134 Q903 101 891 75 Q879 49 859 31.5 Q839 14 812.5 4.5 Q786 -5 756 -5 Q705 -5 670 20.5 Q635 46 616 79 L649 103 Q665 77 690.5 57 Q716 37 756 37 Q800 37 828 63 Q856 89 856 132 Q856 174 828 197 Q800 220 748 220 L655 220 L655 417 L868 417 L868 375 Z " />
<glyph glyph-name="uni2159" unicode="&#x2159;" horiz-adv-x="870" d="M204 286 L300 286 L300 244 L49 244 L49 286 L158 286 L158 618 L51 618 L51 660 L204 660 L204 286 Z M295 0 L248 0 L627 660 L675 660 L295 0 Z M651 262 Q666 269 689 269 Q716 269 740.5 258.5 Q765 248 783.5 229.5 Q802 211 813 186 Q824 161 824 132 Q824 103 813 78 Q802 53 783 34.5 Q764 16 738 5.5 Q712 -5 683 -5 Q654 -5 628.5 5.5 Q603 16 584 34.5 Q565 53 554 78.5 Q543 104 543 134 Q543 173 559.5 202.5 Q576 232 600 266 L703 417 L758 417 L651 262 Z M683 229 Q643 229 616.5 201.5 Q590 174 590 132 Q590 90 616.5 63.5 Q643 37 683 37 Q724 37 750.5 63.5 Q777 90 777 132 Q777 174 750.5 201.5 Q724 229 683 229 Z " />
<glyph glyph-name="uni215A" unicode="&#x215a;" horiz-adv-x="853" d="M286 618 L118 618 L118 498 Q132 500 146 501.5 Q160 503 173 503 Q204 503 231 495.5 Q258 488 278 472.5 Q298 457 309.5 433 Q321 409 321 377 Q321 344 309 318 Q297 292 277 274.5 Q257 257 230.5 247.5 Q204 238 174 238 Q123 238 88 263.5 Q53 289 34 322 L67 346 Q83 320 108.5 300 Q134 280 174 280 Q218 280 246 306 Q274 332 274 375 Q274 417 246 440 Q218 463 166 463 L73 463 L73 660 L286 660 L286 618 Z M278 0 L231 0 L610 660 L658 660 L278 0 Z M634 262 Q649 269 672 269 Q699 269 723.5 258.5 Q748 248 766.5 229.5 Q785 211 796 186 Q807 161 807 132 Q807 103 796 78 Q785 53 766 34.5 Q747 16 721 5.5 Q695 -5 666 -5 Q637 -5 611.5 5.5 Q586 16 567 34.5 Q548 53 537 78.5 Q526 104 526 134 Q526 173 542.5 202.5 Q559 232 583 266 L686 417 L741 417 L634 262 Z M666 229 Q626 229 599.5 201.5 Q573 174 573 132 Q573 90 599.5 63.5 Q626 37 666 37 Q707 37 733.5 63.5 Q760 90 760 132 Q760 174 733.5 201.5 Q707 229 666 229 Z " />
<glyph glyph-name="uni2150" unicode="&#x2150;" horiz-adv-x="897" d="M204 286 L300 286 L300 244 L49 244 L49 286 L158 286 L158 618 L51 618 L51 660 L204 660 L204 286 Z M295 0 L248 0 L627 660 L675 660 L295 0 Z M878 403 L667 1 L617 1 L816 375 L603 375 L603 417 L878 417 L878 403 Z " />
<glyph glyph-name="oneeighth" unicode="&#x215b;" horiz-adv-x="912" d="M204 286 L300 286 L300 244 L49 244 L49 286 L158 286 L158 618 L51 618 L51 660 L204 660 L204 286 Z M295 0 L248 0 L627 660 L675 660 L295 0 Z M721 423 Q747 423 769.5 416.5 Q792 410 809 397 Q826 384 836 365 Q846 346 846 321 Q846 285 825 260 Q804 235 766 218 Q786 211 804 201 Q822 191 836 177.5 Q850 164 858 146 Q866 128 866 106 Q866 56 826.5 25.5 Q787 -5 721 -5 Q655 -5 616 25.5 Q577 56 577 107 Q577 150 605 177 Q633 204 675 219 Q640 235 618.5 259.5 Q597 284 597 322 Q597 371 633 397 Q669 423 721 423 Z M821 109 Q821 128 813 141.5 Q805 155 791.5 165.5 Q778 176 759.5 183.5 Q741 191 721 198 Q701 191 683 183.5 Q665 176 651.5 165.5 Q638 155 630 141.5 Q622 128 622 109 Q622 76 647.5 54.5 Q673 33 721 33 Q769 33 795 54.5 Q821 76 821 109 Z M721 385 Q687 385 663.5 368 Q640 351 640 319 Q640 288 663 270 Q686 252 721 238 Q757 252 780 270 Q803 288 803 319 Q803 351 779.5 368 Q756 385 721 385 Z " />
<glyph glyph-name="threeeighths" unicode="&#x215c;" horiz-adv-x="883" d="M298 646 L185 502 Q206 500 228 492 Q250 484 268 468.5 Q286 453 297.5 430 Q309 407 309 375 Q309 343 297 317.5 Q285 292 265 274.5 Q245 257 218.5 247.5 Q192 238 163 238 Q112 238 77 263.5 Q42 289 23 322 L56 346 Q72 320 97.5 300 Q123 280 163 280 Q206 280 233.5 306 Q261 332 261 375 Q261 417 233 440 Q205 463 154 463 L116 463 L116 476 L227 618 L50 618 L50 660 L298 660 L298 646 Z M266 0 L219 0 L598 660 L646 660 L266 0 Z M692 423 Q718 423 740.5 416.5 Q763 410 780 397 Q797 384 807 365 Q817 346 817 321 Q817 285 796 260 Q775 235 737 218 Q757 211 775 201 Q793 191 807 177.5 Q821 164 829 146 Q837 128 837 106 Q837 56 797.5 25.5 Q758 -5 692 -5 Q626 -5 587 25.5 Q548 56 548 107 Q548 150 576 177 Q604 204 646 219 Q611 235 589.5 259.5 Q568 284 568 322 Q568 371 604 397 Q640 423 692 423 Z M792 109 Q792 128 784 141.5 Q776 155 762.5 165.5 Q749 176 730.5 183.5 Q712 191 692 198 Q672 191 654 183.5 Q636 176 622.5 165.5 Q609 155 601 141.5 Q593 128 593 109 Q593 76 618.5 54.5 Q644 33 692 33 Q740 33 766 54.5 Q792 76 792 109 Z M692 385 Q658 385 634.5 368 Q611 351 611 319 Q611 288 634 270 Q657 252 692 238 Q728 252 751 270 Q774 288 774 319 Q774 351 750.5 368 Q727 385 692 385 Z " />
<glyph glyph-name="fiveeighths" unicode="&#x215d;" horiz-adv-x="895" d="M286 618 L118 618 L118 498 Q132 500 146 501.5 Q160 503 173 503 Q204 503 231 495.5 Q258 488 278 472.5 Q298 457 309.5 433 Q321 409 321 377 Q321 344 309 318 Q297 292 277 274.5 Q257 257 230.5 247.5 Q204 238 174 238 Q123 238 88 263.5 Q53 289 34 322 L67 346 Q83 320 108.5 300 Q134 280 174 280 Q218 280 246 306 Q274 332 274 375 Q274 417 246 440 Q218 463 166 463 L73 463 L73 660 L286 660 L286 618 Z M278 0 L231 0 L610 660 L658 660 L278 0 Z M704 423 Q730 423 752.5 416.5 Q775 410 792 397 Q809 384 819 365 Q829 346 829 321 Q829 285 808 260 Q787 235 749 218 Q769 211 787 201 Q805 191 819 177.5 Q833 164 841 146 Q849 128 849 106 Q849 56 809.5 25.5 Q770 -5 704 -5 Q638 -5 599 25.5 Q560 56 560 107 Q560 150 588 177 Q616 204 658 219 Q623 235 601.5 259.5 Q580 284 580 322 Q580 371 616 397 Q652 423 704 423 Z M804 109 Q804 128 796 141.5 Q788 155 774.5 165.5 Q761 176 742.5 183.5 Q724 191 704 198 Q684 191 666 183.5 Q648 176 634.5 165.5 Q621 155 613 141.5 Q605 128 605 109 Q605 76 630.5 54.5 Q656 33 704 33 Q752 33 778 54.5 Q804 76 804 109 Z M704 385 Q670 385 646.5 368 Q623 351 623 319 Q623 288 646 270 Q669 252 704 238 Q740 252 763 270 Q786 288 786 319 Q786 351 762.5 368 Q739 385 704 385 Z " />
<glyph glyph-name="seveneighths" unicode="&#x215e;" horiz-adv-x="788" d="M301 646 L90 244 L40 244 L239 618 L26 618 L26 660 L301 660 L301 646 Z M171 0 L124 0 L503 660 L551 660 L171 0 Z M597 423 Q623 423 645.5 416.5 Q668 410 685 397 Q702 384 712 365 Q722 346 722 321 Q722 285 701 260 Q680 235 642 218 Q662 211 680 201 Q698 191 712 177.5 Q726 164 734 146 Q742 128 742 106 Q742 56 702.5 25.5 Q663 -5 597 -5 Q531 -5 492 25.5 Q453 56 453 107 Q453 150 481 177 Q509 204 551 219 Q516 235 494.5 259.5 Q473 284 473 322 Q473 371 509 397 Q545 423 597 423 Z M697 109 Q697 128 689 141.5 Q681 155 667.5 165.5 Q654 176 635.5 183.5 Q617 191 597 198 Q577 191 559 183.5 Q541 176 527.5 165.5 Q514 155 506 141.5 Q498 128 498 109 Q498 76 523.5 54.5 Q549 33 597 33 Q645 33 671 54.5 Q697 76 697 109 Z M597 385 Q563 385 539.5 368 Q516 351 516 319 Q516 288 539 270 Q562 252 597 238 Q633 252 656 270 Q679 288 679 319 Q679 351 655.5 368 Q632 385 597 385 Z " />
<glyph glyph-name="uni2151" unicode="&#x2151;" horiz-adv-x="920" d="M204 286 L300 286 L300 244 L49 244 L49 286 L158 286 L158 618 L51 618 L51 660 L204 660 L204 286 Z M295 0 L248 0 L627 660 L675 660 L295 0 Z M734 423 Q763 423 788.5 412.5 Q814 402 833 383.5 Q852 365 863 339.5 Q874 314 874 284 Q874 246 857.5 216.5 Q841 187 817 152 L714 1 L659 1 L766 155 Q748 149 728 149 Q701 149 676.5 159.5 Q652 170 633.5 188.5 Q615 207 604 232 Q593 257 593 286 Q593 315 604 340 Q615 365 634 383.5 Q653 402 679 412.5 Q705 423 734 423 Z M734 381 Q693 381 666.5 354.5 Q640 328 640 286 Q640 244 666.5 216.5 Q693 189 734 189 Q775 189 801 216.5 Q827 244 827 286 Q827 328 801 354.5 Q775 381 734 381 Z " />
<glyph glyph-name="uni2152" unicode="&#x2152;" horiz-adv-x="1329" d="M204 286 L300 286 L300 244 L49 244 L49 286 L158 286 L158 618 L51 618 L51 660 L204 660 L204 286 Z M295 0 L248 0 L627 660 L675 660 L295 0 Z M1126 423 Q1165 423 1193.5 407 Q1222 391 1240.5 363 Q1259 335 1267.5 296.5 Q1276 258 1276 213 Q1276 168 1267.5 128.5 Q1259 89 1241 59.5 Q1223 30 1194.5 12.5 Q1166 -5 1126 -5 Q1086 -5 1057.5 12.5 Q1029 30 1011 59.5 Q993 89 984.5 128.5 Q976 168 976 213 Q976 258 985 296.5 Q994 335 1012 363 Q1030 391 1058.5 407 Q1087 423 1126 423 Z M1126 381 Q1098 381 1078.5 368.5 Q1059 356 1046.5 333.5 Q1034 311 1028.5 280.5 Q1023 250 1023 213 Q1023 175 1028.5 143 Q1034 111 1046.5 87 Q1059 63 1078.5 49.5 Q1098 36 1126 36 Q1154 36 1173.5 49.5 Q1193 63 1205.5 87 Q1218 111 1223.5 143 Q1229 175 1229 213 Q1229 250 1223.5 280.5 Q1218 311 1205.5 333.5 Q1193 356 1173.5 368.5 Q1154 381 1126 381 Z M781 43 L877 43 L877 1 L626 1 L626 43 L735 43 L735 375 L628 375 L628 417 L781 417 L781 43 Z " />
<glyph glyph-name="uni2080" unicode="&#x2080;" horiz-adv-x="406" d="M203 303 Q242 303 270.5 287 Q299 271 317.5 243 Q336 215 344.5 176.5 Q353 138 353 93 Q353 48 344.5 8.5 Q336 -31 318 -60.5 Q300 -90 271.5 -107.5 Q243 -125 203 -125 Q163 -125 134.5 -107.5 Q106 -90 88 -60.5 Q70 -31 61.5 8.5 Q53 48 53 93 Q53 138 62 176.5 Q71 215 89 243 Q107 271 135.5 287 Q164 303 203 303 Z M203 261 Q175 261 155.5 248.5 Q136 236 123.5 213.5 Q111 191 105.5 160.5 Q100 130 100 93 Q100 55 105.5 23 Q111 -9 123.5 -33 Q136 -57 155.5 -70.5 Q175 -84 203 -84 Q231 -84 250.5 -70.5 Q270 -57 282.5 -33 Q295 -9 300.5 23 Q306 55 306 93 Q306 130 300.5 160.5 Q295 191 282.5 213.5 Q270 236 250.5 248.5 Q231 261 203 261 Z " />
<glyph glyph-name="uni2081" unicode="&#x2081;" horiz-adv-x="346" d="M204 -77 L300 -77 L300 -119 L49 -119 L49 -77 L158 -77 L158 255 L51 255 L51 297 L204 297 L204 -77 Z " />
<glyph glyph-name="uni2082" unicode="&#x2082;" horiz-adv-x="363" d="M175 303 Q203 303 227 293.5 Q251 284 268.5 267.5 Q286 251 295.5 228.5 Q305 206 305 179 Q305 156 298 136 Q291 116 278.5 97 Q266 78 250 59.5 Q234 41 216 22 L119 -77 L322 -77 L322 -119 L36 -119 L36 -107 L186 50 Q218 84 238 113 Q258 142 258 176 Q258 210 236 235.5 Q214 261 175 261 Q134 261 112 234.5 Q90 208 90 172 Q90 165 90.5 156.5 Q91 148 92 139 L47 139 Q45 148 44 158 Q43 168 43 175 Q43 199 52 222 Q61 245 78 263 Q95 281 119.5 292 Q144 303 175 303 Z " />
<glyph glyph-name="uni2083" unicode="&#x2083;" horiz-adv-x="352" d="M298 283 L185 139 Q206 137 228 129 Q250 121 268 105.5 Q286 90 297.5 67 Q309 44 309 12 Q309 -20 297 -45.5 Q285 -71 265 -88.5 Q245 -106 218.5 -115.5 Q192 -125 163 -125 Q112 -125 77 -99.5 Q42 -74 23 -41 L56 -17 Q72 -43 97.5 -63 Q123 -83 163 -83 Q206 -83 233.5 -57 Q261 -31 261 12 Q261 54 233 77 Q205 100 154 100 L116 100 L116 113 L227 255 L50 255 L50 297 L298 297 L298 283 Z " />
<glyph glyph-name="uni2084" unicode="&#x2084;" horiz-adv-x="349" d="M270 -1 L331 -1 L331 -41 L270 -41 L270 -119 L226 -119 L226 -41 L18 -41 L18 -27 L153 297 L201 297 L76 -1 L226 -1 L226 141 L270 141 L270 -1 Z " />
<glyph glyph-name="uni2085" unicode="&#x2085;" horiz-adv-x="364" d="M286 255 L118 255 L118 135 Q132 137 146 138.5 Q160 140 173 140 Q204 140 231 132.5 Q258 125 278 109.5 Q298 94 309.5 70 Q321 46 321 14 Q321 -19 309 -45 Q297 -71 277 -88.5 Q257 -106 230.5 -115.5 Q204 -125 174 -125 Q123 -125 88 -99.5 Q53 -74 34 -41 L67 -17 Q83 -43 108.5 -63 Q134 -83 174 -83 Q218 -83 246 -57 Q274 -31 274 12 Q274 54 246 77 Q218 100 166 100 L73 100 L73 297 L286 297 L286 255 Z " />
<glyph glyph-name="uni2086" unicode="&#x2086;" horiz-adv-x="373" d="M154 142 Q169 149 192 149 Q219 149 243.5 138.5 Q268 128 286.5 109.5 Q305 91 316 66 Q327 41 327 12 Q327 -17 316 -42 Q305 -67 286 -85.5 Q267 -104 241 -114.5 Q215 -125 186 -125 Q157 -125 131.5 -114.5 Q106 -104 87 -85.5 Q68 -67 57 -41.5 Q46 -16 46 14 Q46 53 62.5 82.5 Q79 112 103 146 L206 297 L261 297 L154 142 Z M186 109 Q146 109 119.5 81.5 Q93 54 93 12 Q93 -30 119.5 -56.5 Q146 -83 186 -83 Q227 -83 253.5 -56.5 Q280 -30 280 12 Q280 54 253.5 81.5 Q227 109 186 109 Z " />
<glyph glyph-name="uni2087" unicode="&#x2087;" horiz-adv-x="320" d="M301 283 L90 -119 L40 -119 L239 255 L26 255 L26 297 L301 297 L301 283 Z " />
<glyph glyph-name="uni2088" unicode="&#x2088;" horiz-adv-x="380" d="M189 303 Q215 303 237.5 296.5 Q260 290 277 277 Q294 264 304 245 Q314 226 314 201 Q314 165 293 140 Q272 115 234 98 Q254 91 272 81 Q290 71 304 57.5 Q318 44 326 26 Q334 8 334 -14 Q334 -64 294.5 -94.5 Q255 -125 189 -125 Q123 -125 84 -94.5 Q45 -64 45 -13 Q45 30 73 57 Q101 84 143 99 Q108 115 86.5 139.5 Q65 164 65 202 Q65 251 101 277 Q137 303 189 303 Z M289 -11 Q289 8 281 21.5 Q273 35 259.5 45.5 Q246 56 227.5 63.5 Q209 71 189 78 Q169 71 151 63.5 Q133 56 119.5 45.5 Q106 35 98 21.5 Q90 8 90 -11 Q90 -44 115.5 -65.5 Q141 -87 189 -87 Q237 -87 263 -65.5 Q289 -44 289 -11 Z M189 265 Q155 265 131.5 248 Q108 231 108 199 Q108 168 131 150 Q154 132 189 118 Q225 132 248 150 Q271 168 271 199 Q271 231 247.5 248 Q224 265 189 265 Z " />
<glyph glyph-name="uni2089" unicode="&#x2089;" horiz-adv-x="373" d="M187 303 Q216 303 241.5 292.5 Q267 282 286 263.5 Q305 245 316 219.5 Q327 194 327 164 Q327 126 310.5 96.5 Q294 67 270 32 L167 -119 L112 -119 L219 35 Q201 29 181 29 Q154 29 129.5 39.5 Q105 50 86.5 68.5 Q68 87 57 112 Q46 137 46 166 Q46 195 57 220 Q68 245 87 263.5 Q106 282 132 292.5 Q158 303 187 303 Z M187 261 Q146 261 119.5 234.5 Q93 208 93 166 Q93 124 119.5 96.5 Q146 69 187 69 Q228 69 254 96.5 Q280 124 280 166 Q280 208 254 234.5 Q228 261 187 261 Z " />
<glyph glyph-name="uni2070" unicode="&#x2070;" horiz-adv-x="406" d="M203 786 Q242 786 270.5 770 Q299 754 317.5 726 Q336 698 344.5 659.5 Q353 621 353 576 Q353 531 344.5 491.5 Q336 452 318 422.5 Q300 393 271.5 375.5 Q243 358 203 358 Q163 358 134.5 375.5 Q106 393 88 422.5 Q70 452 61.5 491.5 Q53 531 53 576 Q53 621 62 659.5 Q71 698 89 726 Q107 754 135.5 770 Q164 786 203 786 Z M203 744 Q175 744 155.5 731.5 Q136 719 123.5 696.5 Q111 674 105.5 643.5 Q100 613 100 576 Q100 538 105.5 506 Q111 474 123.5 450 Q136 426 155.5 412.5 Q175 399 203 399 Q231 399 250.5 412.5 Q270 426 282.5 450 Q295 474 300.5 506 Q306 538 306 576 Q306 613 300.5 643.5 Q295 674 282.5 696.5 Q270 719 250.5 731.5 Q231 744 203 744 Z " />
<glyph glyph-name="uni00B9" unicode="&#xb9;" horiz-adv-x="346" d="M204 406 L300 406 L300 364 L49 364 L49 406 L158 406 L158 738 L51 738 L51 780 L204 780 L204 406 Z " />
<glyph glyph-name="uni00B2" unicode="&#xb2;" horiz-adv-x="363" d="M175 786 Q203 786 227 776.5 Q251 767 268.5 750.5 Q286 734 295.5 711.5 Q305 689 305 662 Q305 639 298 619 Q291 599 278.5 580 Q266 561 250 542.5 Q234 524 216 505 L119 406 L322 406 L322 364 L36 364 L36 376 L186 533 Q218 567 238 596 Q258 625 258 659 Q258 693 236 718.5 Q214 744 175 744 Q134 744 112 717.5 Q90 691 90 655 Q90 648 90.5 639.5 Q91 631 92 622 L47 622 Q45 631 44 641 Q43 651 43 658 Q43 682 52 705 Q61 728 78 746 Q95 764 119.5 775 Q144 786 175 786 Z " />
<glyph glyph-name="uni00B3" unicode="&#xb3;" horiz-adv-x="352" d="M298 766 L185 622 Q206 620 228 612 Q250 604 268 588.5 Q286 573 297.5 550 Q309 527 309 495 Q309 463 297 437.5 Q285 412 265 394.5 Q245 377 218.5 367.5 Q192 358 163 358 Q112 358 77 383.5 Q42 409 23 442 L56 466 Q72 440 97.5 420 Q123 400 163 400 Q206 400 233.5 426 Q261 452 261 495 Q261 537 233 560 Q205 583 154 583 L116 583 L116 596 L227 738 L50 738 L50 780 L298 780 L298 766 Z " />
<glyph glyph-name="uni2074" unicode="&#x2074;" horiz-adv-x="349" d="M270 482 L331 482 L331 442 L270 442 L270 364 L226 364 L226 442 L18 442 L18 456 L153 780 L201 780 L76 482 L226 482 L226 624 L270 624 L270 482 Z " />
<glyph glyph-name="uni2075" unicode="&#x2075;" horiz-adv-x="364" d="M286 738 L118 738 L118 618 Q132 620 146 621.5 Q160 623 173 623 Q204 623 231 615.5 Q258 608 278 592.5 Q298 577 309.5 553 Q321 529 321 497 Q321 464 309 438 Q297 412 277 394.5 Q257 377 230.5 367.5 Q204 358 174 358 Q123 358 88 383.5 Q53 409 34 442 L67 466 Q83 440 108.5 420 Q134 400 174 400 Q218 400 246 426 Q274 452 274 495 Q274 537 246 560 Q218 583 166 583 L73 583 L73 780 L286 780 L286 738 Z " />
<glyph glyph-name="uni2076" unicode="&#x2076;" horiz-adv-x="373" d="M154 625 Q169 632 192 632 Q219 632 243.5 621.5 Q268 611 286.5 592.5 Q305 574 316 549 Q327 524 327 495 Q327 466 316 441 Q305 416 286 397.5 Q267 379 241 368.5 Q215 358 186 358 Q157 358 131.5 368.5 Q106 379 87 397.5 Q68 416 57 441.5 Q46 467 46 497 Q46 536 62.5 565.5 Q79 595 103 629 L206 780 L261 780 L154 625 Z M186 592 Q146 592 119.5 564.5 Q93 537 93 495 Q93 453 119.5 426.5 Q146 400 186 400 Q227 400 253.5 426.5 Q280 453 280 495 Q280 537 253.5 564.5 Q227 592 186 592 Z " />
<glyph glyph-name="uni2077" unicode="&#x2077;" horiz-adv-x="320" d="M301 766 L90 364 L40 364 L239 738 L26 738 L26 780 L301 780 L301 766 Z " />
<glyph glyph-name="uni2078" unicode="&#x2078;" horiz-adv-x="380" d="M189 786 Q215 786 237.5 779.5 Q260 773 277 760 Q294 747 304 728 Q314 709 314 684 Q314 648 293 623 Q272 598 234 581 Q254 574 272 564 Q290 554 304 540.5 Q318 527 326 509 Q334 491 334 469 Q334 419 294.5 388.5 Q255 358 189 358 Q123 358 84 388.5 Q45 419 45 470 Q45 513 73 540 Q101 567 143 582 Q108 598 86.5 622.5 Q65 647 65 685 Q65 734 101 760 Q137 786 189 786 Z M289 472 Q289 491 281 504.5 Q273 518 259.5 528.5 Q246 539 227.5 546.5 Q209 554 189 561 Q169 554 151 546.5 Q133 539 119.5 528.5 Q106 518 98 504.5 Q90 491 90 472 Q90 439 115.5 417.5 Q141 396 189 396 Q237 396 263 417.5 Q289 439 289 472 Z M189 748 Q155 748 131.5 731 Q108 714 108 682 Q108 651 131 633 Q154 615 189 601 Q225 615 248 633 Q271 651 271 682 Q271 714 247.5 731 Q224 748 189 748 Z " />
<glyph glyph-name="uni2079" unicode="&#x2079;" horiz-adv-x="373" d="M187 786 Q216 786 241.5 775.5 Q267 765 286 746.5 Q305 728 316 702.5 Q327 677 327 647 Q327 609 310.5 579.5 Q294 550 270 515 L167 364 L112 364 L219 518 Q201 512 181 512 Q154 512 129.5 522.5 Q105 533 86.5 551.5 Q68 570 57 595 Q46 620 46 649 Q46 678 57 703 Q68 728 87 746.5 Q106 765 132 775.5 Q158 786 187 786 Z M187 744 Q146 744 119.5 717.5 Q93 691 93 649 Q93 607 119.5 579.5 Q146 552 187 552 Q228 552 254 579.5 Q280 607 280 649 Q280 691 254 717.5 Q228 744 187 744 Z " />
<glyph glyph-name="asterisk" unicode="&#x2a;" horiz-adv-x="384" d="M66 688 L169 635 L175 750 L209 750 L215 635 L317 688 L334 658 L237 595 L334 533 L317 503 L215 555 L209 441 L175 441 L169 556 L66 503 L49 533 L145 595 L49 658 L66 688 Z " />
<glyph glyph-name="backslash" unicode="&#x5c;" horiz-adv-x="598" d="M66 780 L589 -121 L532 -121 L9 780 L66 780 Z " />
<glyph glyph-name="periodcentered" unicode="&#xb7;" horiz-adv-x="270" d="M135 360 Q155 360 170 346.5 Q185 333 185 310 Q185 288 170 275 Q155 262 135 262 Q116 262 101 275 Q86 288 86 310 Q86 333 101 346.5 Q116 360 135 360 Z " />
<glyph glyph-name="bullet" unicode="&#x2022;" horiz-adv-x="355" d="M178 382 Q200 382 221.5 373.5 Q243 365 259 350 Q275 335 285 313.5 Q295 292 295 265 Q295 239 285 217.5 Q275 196 259 181 Q243 166 221.5 157.5 Q200 149 178 149 Q155 149 134 157.5 Q113 166 96.5 181 Q80 196 70 217.5 Q60 239 60 265 Q60 292 70 313.5 Q80 335 96.5 350 Q113 365 134 373.5 Q155 382 178 382 Z " />
<glyph glyph-name="colon" unicode="&#x3a;" horiz-adv-x="270" d="M135 486 Q155 486 170 472.5 Q185 459 185 436 Q185 414 170 401 Q155 388 135 388 Q116 388 101 401 Q86 414 86 436 Q86 459 101 472.5 Q116 486 135 486 Z M135 88 Q155 88 170 74.5 Q185 61 185 38 Q185 16 170 3 Q155 -10 135 -10 Q116 -10 101 3 Q86 16 86 38 Q86 61 101 74.5 Q116 88 135 88 Z " />
<glyph glyph-name="comma" unicode="&#x2c;" horiz-adv-x="270" d="M137 -180 L94 -180 L111 75 L173 75 L137 -180 Z " />
<glyph glyph-name="ellipsis" unicode="&#x2026;" horiz-adv-x="758" d="M379 88 Q399 88 414 74.5 Q429 61 429 38 Q429 16 414 3 Q399 -10 379 -10 Q360 -10 345 3 Q330 16 330 38 Q330 61 345 74.5 Q360 88 379 88 Z M135 88 Q155 88 170 74.5 Q185 61 185 38 Q185 16 170 3 Q155 -10 135 -10 Q116 -10 101 3 Q86 16 86 38 Q86 61 101 74.5 Q116 88 135 88 Z M623 88 Q643 88 658 74.5 Q673 61 673 38 Q673 16 658 3 Q643 -10 623 -10 Q604 -10 589 3 Q574 16 574 38 Q574 61 589 74.5 Q604 88 623 88 Z " />
<glyph glyph-name="exclam" unicode="&#x21;" horiz-adv-x="285" d="M164 194 L120 194 L111 660 L173 660 L164 194 Z M142 88 Q162 88 177 74.5 Q192 61 192 38 Q192 16 177 3 Q162 -10 142 -10 Q123 -10 108 3 Q93 16 93 38 Q93 61 108 74.5 Q123 88 142 88 Z " />
<glyph glyph-name="exclamdown" unicode="&#xa1;" horiz-adv-x="285" d="M173 -180 L111 -180 L120 289 L164 289 L173 -180 Z M142 493 Q162 493 177 480 Q192 467 192 445 Q192 422 177 408.5 Q162 395 142 395 Q123 395 108 408.5 Q93 422 93 445 Q93 467 108 480 Q123 493 142 493 Z " />
<glyph glyph-name="numbersign" unicode="&#x23;" horiz-adv-x="581" d="M201 455 L413 455 L441 660 L486 660 L458 455 L551 455 L551 410 L452 410 L430 250 L529 250 L529 205 L424 205 L396 0 L352 0 L379 205 L167 205 L139 0 L95 0 L122 205 L30 205 L30 250 L128 250 L150 410 L52 410 L52 455 L156 455 L184 660 L229 660 L201 455 Z M173 250 L385 250 L407 410 L195 410 L173 250 Z " />
<glyph glyph-name="period" unicode="&#x2e;" horiz-adv-x="270" d="M135 88 Q155 88 170 74.5 Q185 61 185 38 Q185 16 170 3 Q155 -10 135 -10 Q116 -10 101 3 Q86 16 86 38 Q86 61 101 74.5 Q116 88 135 88 Z " />
<glyph glyph-name="question" unicode="&#x3f;" horiz-adv-x="442" d="M224 670 Q258 670 289 658 Q320 646 342.5 624.5 Q365 603 378.5 573 Q392 543 392 508 Q392 481 384 458.5 Q376 436 362 415.5 Q348 395 329.5 376 Q311 357 290 338 Q258 308 238.5 285 Q219 262 219 232 Q219 221 221 212 Q223 203 226 194 L179 194 Q175 202 172.5 212.5 Q170 223 170 237 Q170 274 193 303 Q216 332 251 364 Q272 383 288 399.5 Q304 416 315.5 432.5 Q327 449 333 466.5 Q339 484 339 505 Q339 558 305.5 590.5 Q272 623 223 623 Q180 623 147 597 Q114 571 98 519 L54 536 Q72 598 116.5 634 Q161 670 224 670 Z M208 88 Q228 88 243 75 Q258 62 258 39 Q258 16 243 3 Q228 -10 208 -10 Q189 -10 174 3 Q159 16 159 39 Q159 62 174 75 Q189 88 208 88 Z " />
<glyph glyph-name="questiondown" unicode="&#xbf;" horiz-adv-x="442" d="M263 289 Q267 281 269.5 270.5 Q272 260 272 246 Q272 208 248.5 179 Q225 150 190 118 Q170 98 153.5 81.5 Q137 65 125.5 48.5 Q114 32 108 14 Q102 -4 102 -25 Q102 -51 111 -73 Q120 -95 136 -110.5 Q152 -126 173 -134.5 Q194 -143 218 -143 Q261 -143 294 -117 Q327 -91 344 -39 L387 -56 Q370 -118 325.5 -154 Q281 -190 218 -190 Q183 -190 152.5 -178 Q122 -166 99 -144 Q76 -122 63 -92.5 Q50 -63 50 -27 Q50 1 58 24 Q66 47 80 67 Q94 87 112.5 106 Q131 125 152 144 Q185 175 203.5 198 Q222 221 222 251 Q222 262 220 271 Q218 280 216 289 L263 289 Z M231 493 Q251 493 266 480.5 Q281 468 281 445 Q281 422 266 408 Q251 394 231 394 Q212 394 197 408 Q182 422 182 445 Q182 467 197 480 Q212 493 231 493 Z " />
<glyph glyph-name="quotedbl" unicode="&#x22;" horiz-adv-x="430" d="M141 413 L100 413 L117 660 L178 660 L141 413 Z M300 413 L259 413 L276 660 L337 660 L300 413 Z " />
<glyph glyph-name="quotesingle" unicode="&#x27;" horiz-adv-x="272" d="M141 413 L100 413 L117 660 L178 660 L141 413 Z " />
<glyph glyph-name="semicolon" unicode="&#x3b;" horiz-adv-x="270" d="M135 486 Q155 486 170 472.5 Q185 459 185 436 Q185 414 170 401 Q155 388 135 388 Q116 388 101 401 Q86 414 86 436 Q86 459 101 472.5 Q116 486 135 486 Z M137 -180 L94 -180 L111 75 L173 75 L137 -180 Z " />
<glyph glyph-name="slash" unicode="&#x2f;" horiz-adv-x="598" d="M66 -121 L9 -121 L532 780 L589 780 L66 -121 Z " />
<glyph glyph-name="underscore" unicode="&#x5f;" horiz-adv-x="503" d="M455 -124 L47 -124 L47 -80 L455 -80 L455 -124 Z " />
<glyph glyph-name="uni208D" unicode="&#x208d;" horiz-adv-x="248" d="M226 387 Q204 374 182.5 351.5 Q161 329 143.5 294 Q126 259 115 208.5 Q104 158 104 89 Q104 19 115 -31.5 Q126 -82 143.5 -117.5 Q161 -153 182.5 -175 Q204 -197 226 -209 L208 -240 Q182 -225 156 -200.5 Q130 -176 109 -137 Q88 -98 75 -43 Q62 12 62 89 Q62 166 75 222 Q88 278 109 317 Q130 356 156 379.5 Q182 403 208 416 L226 387 Z " />
<glyph glyph-name="uni208E" unicode="&#x208e;" horiz-adv-x="248" d="M40 416 Q66 403 92 379.5 Q118 356 139 317 Q160 278 173 222 Q186 166 186 89 Q186 11 173 -45 Q160 -101 139 -140 Q118 -179 92 -203 Q66 -227 40 -240 L22 -209 Q44 -197 66 -175 Q88 -153 105.5 -117.5 Q123 -82 134 -31.5 Q145 19 145 89 Q145 158 134 208.5 Q123 259 105.5 294 Q88 329 66 351.5 Q44 374 22 387 L40 416 Z " />
<glyph glyph-name="braceleft" unicode="&#x7b;" horiz-adv-x="395" d="M285 -131 Q256 -131 231.5 -124.5 Q207 -118 189 -103 Q171 -88 161 -63 Q151 -38 151 -1 Q151 25 155.5 54.5 Q160 84 165 113 Q170 142 174.5 168 Q179 194 179 212 Q179 243 163.5 259.5 Q148 276 113 276 L57 276 L57 322 L113 322 Q148 322 163.5 338.5 Q179 355 179 386 Q179 404 174.5 430 Q170 456 165 485.5 Q160 515 155.5 544.5 Q151 574 151 600 Q151 636 161 660.5 Q171 685 188.5 700.5 Q206 716 230.5 722.5 Q255 729 285 729 L339 729 L339 684 L291 684 Q247 684 223.5 662.5 Q200 641 200 590 Q200 567 204.5 539.5 Q209 512 214 484.5 Q219 457 223.5 430.5 Q228 404 228 383 Q228 345 212.5 327 Q197 309 171 299 Q199 288 213.5 269 Q228 250 228 215 Q228 194 223.5 168 Q219 142 214 114 Q209 86 204.5 59 Q200 32 200 9 Q200 -42 223.5 -64 Q247 -86 291 -86 L339 -86 L339 -131 L285 -131 Z " />
<glyph glyph-name="braceright" unicode="&#x7d;" horiz-adv-x="395" d="M56 -86 L104 -86 Q147 -86 171 -64 Q195 -42 195 9 Q195 32 190.5 59 Q186 86 181 114 Q176 142 171.5 168 Q167 194 167 215 Q167 250 181 269 Q195 288 223 299 Q197 309 182 327 Q167 345 167 383 Q167 404 171.5 430.5 Q176 457 181 484.5 Q186 512 190.5 539.5 Q195 567 195 590 Q195 641 171.5 662.5 Q148 684 104 684 L56 684 L56 729 L110 729 Q140 729 164.5 722.5 Q189 716 206.5 700.5 Q224 685 233.5 660.5 Q243 636 243 600 Q243 574 239 544.5 Q235 515 229.5 485.5 Q224 456 220 430 Q216 404 216 386 Q216 355 231 338.5 Q246 322 281 322 L338 322 L338 276 L281 276 Q216 276 216 212 Q216 194 220 168 Q224 142 229.5 113 Q235 84 239 54.5 Q243 25 243 -1 Q243 -38 233 -63 Q223 -88 205.5 -103 Q188 -118 163.5 -124.5 Q139 -131 110 -131 L56 -131 L56 -86 Z " />
<glyph glyph-name="bracketleft" unicode="&#x5b;" horiz-adv-x="340" d="M283 684 L156 684 L156 -85 L283 -85 L283 -131 L107 -131 L107 729 L283 729 L283 684 Z " />
<glyph glyph-name="bracketright" unicode="&#x5d;" horiz-adv-x="340" d="M232 -131 L56 -131 L56 -85 L183 -85 L183 684 L56 684 L56 729 L232 729 L232 -131 Z " />
<glyph glyph-name="parenleft" unicode="&#x28;" horiz-adv-x="323" d="M294 695 Q266 678 237.5 649 Q209 620 185.5 573.5 Q162 527 147.5 460 Q133 393 133 300 Q133 207 147.5 140 Q162 73 185.5 26 Q209 -21 237.5 -50 Q266 -79 294 -95 L272 -131 Q239 -115 205 -83.5 Q171 -52 144 -1 Q117 50 100 124 Q83 198 83 300 Q83 403 100 477 Q117 551 144 602 Q171 653 205 683.5 Q239 714 272 731 L294 695 Z " />
<glyph glyph-name="parenright" unicode="&#x29;" horiz-adv-x="323" d="M51 731 Q84 714 118 683.5 Q152 653 179 602 Q206 551 223 477 Q240 403 240 300 Q240 198 223 124 Q206 50 179 -1 Q152 -52 118 -83.5 Q84 -115 51 -131 L29 -95 Q57 -79 85.5 -50 Q114 -21 137.5 26 Q161 73 175.5 140 Q190 207 190 300 Q190 393 175.5 460 Q161 527 137.5 573.5 Q114 620 85.5 649 Q57 678 29 695 L51 731 Z " />
<glyph glyph-name="uni207D" unicode="&#x207d;" horiz-adv-x="248" d="M226 871 Q204 858 182.5 835.5 Q161 813 143.5 778 Q126 743 115 692.5 Q104 642 104 573 Q104 503 115 452.5 Q126 402 143.5 366.5 Q161 331 182.5 309 Q204 287 226 275 L208 244 Q182 259 156 283.5 Q130 308 109 347 Q88 386 75 441 Q62 496 62 573 Q62 650 75 706 Q88 762 109 801 Q130 840 156 863.5 Q182 887 208 900 L226 871 Z " />
<glyph glyph-name="uni207E" unicode="&#x207e;" horiz-adv-x="248" d="M40 900 Q66 887 92 863.5 Q118 840 139 801 Q160 762 173 706 Q186 650 186 573 Q186 495 173 439 Q160 383 139 344 Q118 305 92 281 Q66 257 40 244 L22 275 Q44 287 66 309 Q88 331 105.5 366.5 Q123 402 134 452.5 Q145 503 145 573 Q145 642 134 692.5 Q123 743 105.5 778 Q88 813 66 835.5 Q44 858 22 871 L40 900 Z " />
<glyph glyph-name="emdash" unicode="&#x2014;" horiz-adv-x="1000" d="M950 289 L50 289 L50 333 L950 333 L950 289 Z " />
<glyph glyph-name="endash" unicode="&#x2013;" horiz-adv-x="503" d="M455 289 L47 289 L47 333 L455 333 L455 289 Z " />
<glyph glyph-name="hyphen" unicode="&#x2d;" horiz-adv-x="343" d="M285 289 L57 289 L57 333 L285 333 L285 289 Z " />
<glyph glyph-name="uni00AD" unicode="&#xad;" horiz-adv-x="343" d="M285 289 L57 289 L57 333 L285 333 L285 289 Z " />
<glyph glyph-name="uni2015" unicode="&#x2015;" horiz-adv-x="1000" d="M950 289 L50 289 L50 333 L950 333 L950 289 Z " />
<glyph glyph-name="guillemotleft" unicode="&#xab;" horiz-adv-x="460" d="M247 427 L102 270 L247 111 L212 82 L43 261 L43 278 L212 457 L247 427 Z M417 427 L272 270 L417 111 L382 82 L213 261 L213 278 L382 457 L417 427 Z " />
<glyph glyph-name="guillemotright" unicode="&#xbb;" horiz-adv-x="460" d="M248 278 L248 261 L78 82 L44 111 L189 270 L44 427 L78 457 L248 278 Z M418 278 L418 261 L248 82 L214 111 L359 270 L214 427 L248 457 L418 278 Z " />
<glyph glyph-name="guilsinglleft" unicode="&#x2039;" horiz-adv-x="290" d="M247 427 L102 270 L247 111 L212 82 L43 261 L43 278 L212 457 L247 427 Z " />
<glyph glyph-name="guilsinglright" unicode="&#x203a;" horiz-adv-x="290" d="M248 278 L248 261 L78 82 L44 111 L189 270 L44 427 L78 457 L248 278 Z " />
<glyph glyph-name="quotedblbase" unicode="&#x201e;" horiz-adv-x="430" d="M141 -173 L100 -173 L117 75 L178 75 L141 -173 Z M300 -173 L259 -173 L276 75 L337 75 L300 -173 Z " />
<glyph glyph-name="quotedblleft" unicode="&#x201c;" horiz-adv-x="430" d="M155 413 L94 413 L131 660 L172 660 L155 413 Z M314 413 L253 413 L290 660 L331 660 L314 413 Z " />
<glyph glyph-name="quotedblright" unicode="&#x201d;" horiz-adv-x="430" d="M300 413 L259 413 L276 660 L337 660 L300 413 Z M141 413 L100 413 L117 660 L178 660 L141 413 Z " />
<glyph glyph-name="quoteleft" unicode="&#x2018;" horiz-adv-x="272" d="M155 413 L94 413 L131 660 L172 660 L155 413 Z " />
<glyph glyph-name="quoteright" unicode="&#x2019;" horiz-adv-x="272" d="M141 413 L100 413 L117 660 L178 660 L141 413 Z " />
<glyph glyph-name="quotesinglbase" unicode="&#x201a;" horiz-adv-x="272" d="M141 -173 L100 -173 L117 75 L178 75 L141 -173 Z " />
<glyph glyph-name="space" unicode="&#x20;" horiz-adv-x="280" d="" />
<glyph glyph-name="uni2009" unicode="&#x2009;" horiz-adv-x="146" d="" />
<glyph glyph-name="A" unicode="A" horiz-adv-x="664" d="M626 0 L571 0 L505 157 L159 157 L94 0 L39 0 L322 670 L343 670 L626 0 Z M179 204 L485 204 L332 576 L179 204 Z " />
<glyph glyph-name="Euro" unicode="&#x20ac;" horiz-adv-x="683" d="M436 229 L172 229 Q195 144 257.5 91.5 Q320 39 415 39 Q475 39 519 61 Q563 83 592 121 L629 90 Q594 43 539 16.5 Q484 -10 413 -10 Q356 -10 307.5 7.5 Q259 25 221 56.5 Q183 88 156.5 132 Q130 176 117 229 L7 229 L7 275 L108 275 Q105 302 105 330 Q105 355 108 381 L9 381 L9 426 L116 426 Q128 480 154.5 524.5 Q181 569 219 601.5 Q257 634 306 652 Q355 670 413 670 Q484 670 539 643.5 Q594 617 629 570 L592 539 Q563 577 519 599.5 Q475 622 415 622 Q367 622 327.5 607.5 Q288 593 257 567 Q226 541 204 505 Q182 469 171 426 L490 426 L478 381 L162 381 Q159 355 159 330 Q159 316 160 302 Q161 288 163 275 L448 275 L436 229 Z " />
<glyph glyph-name="cent" unicode="&#xa2;" horiz-adv-x="554" d="M303 580 Q360 576 405.5 550 Q451 524 482 481 L447 452 Q420 487 384 508.5 Q348 530 303 533 L303 124 Q348 128 384 149.5 Q420 171 446 206 L482 177 Q451 134 405.5 107.5 Q360 81 303 77 L303 -92 L252 -92 L252 79 Q206 85 167 107 Q128 129 99 162 Q70 195 53.5 238 Q37 281 37 329 Q37 377 53.5 419.5 Q70 462 98.5 495 Q127 528 166.5 550 Q206 572 252 578 L252 751 L303 751 L303 580 Z M89 329 Q89 291 101 257 Q113 223 135 196 Q157 169 186.5 151 Q216 133 252 127 L252 531 Q216 525 186.5 507 Q157 489 135 462.5 Q113 436 101 402 Q89 368 89 329 Z " />
<glyph glyph-name="currency" unicode="&#xa4;" horiz-adv-x="657" d="M325 555 Q366 555 402.5 541.5 Q439 528 468 505 L593 630 L625 599 L500 473 Q523 444 536.5 408 Q550 372 550 330 Q550 288 536.5 252 Q523 216 499 187 L625 62 L594 30 L468 156 Q439 132 402.5 118.5 Q366 105 324 105 Q284 105 249 117.5 Q214 130 185 153 L64 30 L32 61 L152 185 Q128 214 114.5 251 Q101 288 101 330 Q101 372 114.5 409 Q128 446 153 475 L32 599 L63 630 L184 506 Q213 529 248.5 542 Q284 555 325 555 Z M326 509 Q289 509 257.5 495 Q226 481 203 457 Q180 433 167 400 Q154 367 154 330 Q154 292 167 259.5 Q180 227 203 203 Q226 179 257 165.5 Q288 152 325 152 Q362 152 393.5 165.5 Q425 179 448.5 203 Q472 227 485 259.5 Q498 292 498 330 Q498 368 485 400.5 Q472 433 449 457 Q426 481 394.5 495 Q363 509 326 509 Z " />
<glyph glyph-name="dollar" unicode="&#x24;" horiz-adv-x="535" d="M292 633 Q349 628 388 600.5 Q427 573 453 531 L416 503 Q390 541 360.5 561 Q331 581 292 585 L292 356 L322 343 Q352 329 378 313.5 Q404 298 423 278.5 Q442 259 453 235 Q464 211 464 180 Q464 145 451 117.5 Q438 90 414.5 69.5 Q391 49 359.5 37.5 Q328 26 292 23 L292 -92 L241 -92 L241 23 Q175 31 125.5 67.5 Q76 104 44 160 L83 187 Q111 139 150 108.5 Q189 78 241 71 L241 326 L227 332 Q203 343 178.5 356.5 Q154 370 134.5 388 Q115 406 103 430 Q91 454 91 487 Q91 518 103 543.5 Q115 569 135 587.5 Q155 606 182.5 617 Q210 628 241 632 L241 751 L292 751 L292 633 Z M292 303 L292 70 Q343 75 377 102.5 Q411 130 411 179 Q411 202 402.5 220 Q394 238 379 252 Q364 266 343.5 277.5 Q323 289 299 300 L292 303 Z M144 489 Q144 466 152 449.5 Q160 433 173 420.5 Q186 408 203.5 398 Q221 388 241 379 L241 583 Q222 580 204.5 573.5 Q187 567 173.5 556 Q160 545 152 528 Q144 511 144 489 Z " />
<glyph glyph-name="florin" unicode="&#x192;" horiz-adv-x="439" d="M371 348 L254 348 L213 12 Q203 -66 163 -99.5 Q123 -133 60 -133 Q33 -133 9 -127 L9 -84 Q36 -87 52 -87 Q100 -87 127.5 -66 Q155 -45 163 14 L204 348 L124 348 L124 394 L209 394 L226 525 Q235 603 275 636.5 Q315 670 378 670 Q406 670 430 664 L430 622 Q416 623 406 623.5 Q396 624 386 624 Q339 624 311 603 Q283 582 276 523 L260 394 L371 394 L371 348 Z " />
<glyph glyph-name="uni20B4" unicode="&#x20b4;" horiz-adv-x="544" d="M515 232 L157 232 Q134 204 134 163 Q134 134 145 111 Q156 88 175 72 Q194 56 220 47.5 Q246 39 276 39 Q342 39 391.5 73.5 Q441 108 473 158 L511 130 Q475 67 414.5 28.5 Q354 -10 277 -10 Q236 -10 200 2 Q164 14 137 36.5 Q110 59 94.5 91 Q79 123 79 162 Q79 203 95 232 L28 232 L28 275 L128 275 Q148 295 175 312 Q202 329 232 346 L288 378 Q289 378 291 380 L30 380 L30 424 L360 424 Q379 439 391 459.5 Q403 480 403 510 Q403 541 390.5 562 Q378 583 358.5 596.5 Q339 610 315.5 616 Q292 622 269 622 Q222 622 183 599.5 Q144 577 115 537 L78 565 Q107 612 156.5 641 Q206 670 271 670 Q309 670 342.5 659.5 Q376 649 401.5 628.5 Q427 608 442 578 Q457 548 457 510 Q457 483 449.5 462 Q442 441 429 424 L515 424 L515 380 L381 380 Q364 368 346.5 358 Q329 348 311 337 L256 304 Q243 296 231 289 Q219 282 208 275 L515 275 L515 232 Z " />
<glyph glyph-name="lira" unicode="&#x20a4;" horiz-adv-x="509" d="M388 182 L247 182 Q242 140 222 105 Q202 70 171 46 L464 46 L464 0 L63 0 L63 15 Q113 44 150 85 Q187 126 195 182 L73 182 L73 227 L196 227 Q193 256 183 281.5 Q173 307 160 332 L73 332 L73 378 L137 378 Q123 407 112 437.5 Q101 468 101 503 Q101 540 114 571 Q127 602 151 624 Q175 646 208 658 Q241 670 280 670 Q353 670 401.5 630 Q450 590 472 515 L425 499 Q407 556 372.5 589 Q338 622 281 622 Q250 622 226.5 612 Q203 602 187 585 Q171 568 163 545 Q155 522 155 496 Q155 464 166 435.5 Q177 407 192 378 L388 378 L388 332 L216 332 Q227 308 236.5 282 Q246 256 248 227 L388 227 L388 182 Z " />
<glyph glyph-name="peseta" unicode="&#x20a7;" horiz-adv-x="575" d="M575 448 L489 448 Q485 412 469.5 382.5 Q454 353 428 331.5 Q402 310 366 298 Q330 286 286 286 L164 286 L164 0 L112 0 L112 448 L28 448 L28 494 L112 494 L112 660 L286 660 Q331 660 367 647.5 Q403 635 429 613 Q455 591 470.5 560.5 Q486 530 490 494 L575 494 L575 448 Z M164 613 L164 493 L436 493 Q430 547 391.5 580 Q353 613 284 613 L164 613 Z M284 333 Q352 333 390 364.5 Q428 396 435 449 L164 449 L164 333 L284 333 Z " />
<glyph glyph-name="sterling" unicode="&#xa3;" horiz-adv-x="509" d="M392 252 L245 252 Q247 241 248 230.5 Q249 220 249 209 Q249 158 227.5 116 Q206 74 171 46 L464 46 L464 0 L63 0 L63 15 Q91 31 115.5 51 Q140 71 158 95 Q176 119 186.5 147 Q197 175 197 208 Q197 229 192 252 L73 252 L73 298 L177 298 Q166 323 153 346.5 Q140 370 128.5 395 Q117 420 109 446.5 Q101 473 101 503 Q101 540 114 571 Q127 602 151 624 Q175 646 208 658 Q241 670 280 670 Q353 670 401.5 630 Q450 590 472 515 L425 499 Q407 556 372.5 589 Q338 622 281 622 Q250 622 226.5 612 Q203 602 187 585 Q171 568 163 545 Q155 522 155 496 Q155 469 163 444.5 Q171 420 183 396 Q195 372 208 348 Q221 324 231 298 L392 298 L392 252 Z " />
</font>
</svg>
