<?xml version="1.0" encoding="UTF-8"?>
<svg xmlns="http://www.w3.org/2000/svg" xmlns:xlink="http://www.w3.org/1999/xlink" version="1.2" >
<font id="Cera Light Italic">
<font-face  font-family="Cera" units-per-em="1000" ascent="808" descent="-192" font-style="italic" font-weight="300" font-stretch="normal" slope="-10" cap-height="660" x-height="480" underline-position="-78" underline-thickness="44" />
<missing-glyph  horiz-adv-x="704" d="M565 0 L56 0 L172 660 L681 660 L565 0 Z M205 621 L528 38 L632 621 L205 621 Z " />
<glyph glyph-name="Aacute" unicode="&#xc1;" horiz-adv-x="664" d="M587 0 L535 0 L497 158 L153 158 L60 0 L1 0 L402 670 L422 670 L587 0 Z M180 204 L486 204 L397 575 L180 204 Z M576 901 L434 724 L392 724 L512 910 L578 910 L576 901 Z " />
<glyph glyph-name="Abreve" unicode="&#x102;" horiz-adv-x="664" d="M587 0 L535 0 L497 158 L153 158 L60 0 L1 0 L402 670 L422 670 L587 0 Z M180 204 L486 204 L397 575 L180 204 Z M587 887 Q577 822 535 783.5 Q493 745 433 745 Q403 745 378.5 755 Q354 765 336.5 782 Q319 799 309.5 822.5 Q300 846 300 872 L300 883 Q300 886 301 887 L345 887 L345 881 Q345 836 370.5 811 Q396 786 436 786 Q476 786 505 812 Q534 838 542 887 L587 887 Z " />
<glyph glyph-name="Acircumflex" unicode="&#xc2;" horiz-adv-x="664" d="M587 0 L535 0 L497 158 L153 158 L60 0 L1 0 L402 670 L422 670 L587 0 Z M180 204 L486 204 L397 575 L180 204 Z M574 724 L536 724 L439 853 L298 724 L252 724 L431 910 L461 910 L574 724 Z " />
<glyph glyph-name="Adieresis" unicode="&#xc4;" horiz-adv-x="664" d="M587 0 L535 0 L497 158 L153 158 L60 0 L1 0 L402 670 L422 670 L587 0 Z M180 204 L486 204 L397 575 L180 204 Z M541 850 Q559 850 571.5 837.5 Q584 825 584 807 Q584 790 571.5 777.5 Q559 765 541 765 Q524 765 511 777.5 Q498 790 498 807 Q498 825 511 837.5 Q524 850 541 850 Z M315 850 Q333 850 345.5 838 Q358 826 358 808 Q358 790 345.5 777.5 Q333 765 315 765 Q298 765 285 777.5 Q272 790 272 808 Q272 826 285 838 Q298 850 315 850 Z " />
<glyph glyph-name="Agrave" unicode="&#xc0;" horiz-adv-x="664" d="M587 0 L535 0 L497 158 L153 158 L60 0 L1 0 L402 670 L422 670 L587 0 Z M180 204 L486 204 L397 575 L180 204 Z M436 724 L397 724 L318 901 L319 910 L377 910 L436 724 Z " />
<glyph glyph-name="Amacron" unicode="&#x100;" horiz-adv-x="664" d="M587 0 L535 0 L497 158 L153 158 L60 0 L1 0 L402 670 L422 670 L587 0 Z M180 204 L486 204 L397 575 L180 204 Z M565 777 L283 777 L291 820 L573 820 L565 777 Z " />
<glyph glyph-name="Aogonek" unicode="&#x104;" horiz-adv-x="664" d="M587 0 L535 0 L497 158 L153 158 L60 0 L1 0 L402 670 L422 670 L587 0 Z M180 204 L486 204 L397 575 L180 204 Z M587 0 L517 -38 Q486 -55 469.5 -70.5 Q453 -86 453 -108 Q453 -148 517 -148 Q536 -148 562 -145 L555 -185 Q527 -190 500 -190 Q457 -190 428.5 -171.5 Q400 -153 400 -115 Q400 -96 409 -78.5 Q418 -61 438.5 -44.5 Q459 -28 492 -10.5 Q525 7 573 27 L587 0 Z " />
<glyph glyph-name="Aring" unicode="&#xc5;" horiz-adv-x="664" d="M587 0 L535 0 L497 158 L153 158 L60 0 L1 0 L402 670 L422 670 L587 0 Z M180 204 L486 204 L397 575 L180 204 Z M438 912 Q459 912 477 904.5 Q495 897 508.5 884 Q522 871 529.5 853.5 Q537 836 537 815 Q537 793 528 773.5 Q519 754 504 739.5 Q489 725 469 716.5 Q449 708 427 708 Q406 708 388 715.5 Q370 723 356.5 736 Q343 749 335.5 767 Q328 785 328 806 Q328 828 336.5 847.5 Q345 867 360 881 Q375 895 395 903.5 Q415 912 438 912 Z M435 871 Q409 871 390.5 852.5 Q372 834 372 808 Q372 783 388 766 Q404 749 429 749 Q455 749 474 767.5 Q493 786 493 813 Q493 837 477 854 Q461 871 435 871 Z " />
<glyph glyph-name="Atilde" unicode="&#xc3;" horiz-adv-x="664" d="M587 0 L535 0 L497 158 L153 158 L60 0 L1 0 L402 670 L422 670 L587 0 Z M180 204 L486 204 L397 575 L180 204 Z M355 867 Q379 867 394.5 858 Q410 849 424 839 L454 815 Q465 806 475.5 800.5 Q486 795 498 795 Q518 795 526.5 811 Q535 827 539 857 L582 857 Q577 808 558 778.5 Q539 749 498 749 Q475 749 460 757.5 Q445 766 431 777 L399 800 Q388 809 378 814.5 Q368 820 357 820 Q337 820 328 804 Q319 788 315 759 L272 759 Q277 807 294.5 837 Q312 867 355 867 Z " />
<glyph glyph-name="AE" unicode="&#xc6;" horiz-adv-x="808" d="M725 0 L432 0 L432 158 L143 158 L35 0 L-25 0 L433 660 L485 660 L485 614 L459 614 L433 577 L434 660 L828 660 L820 614 L485 614 L484 380 L698 380 L690 333 L484 333 L484 46 L733 46 L725 0 Z M432 204 L433 577 L174 204 L432 204 Z M463 620 L459 614 L453 614 L442 660 L462 660 L463 620 Z " />
<glyph glyph-name="AEacute" unicode="&#x1fc;" horiz-adv-x="808" d="M725 0 L432 0 L432 158 L143 158 L35 0 L-25 0 L433 660 L485 660 L485 614 L459 614 L433 577 L434 660 L828 660 L820 614 L485 614 L484 380 L698 380 L690 333 L484 333 L484 46 L733 46 L725 0 Z M432 204 L433 577 L174 204 L432 204 Z M463 620 L459 614 L453 614 L442 660 L462 660 L463 620 Z M645 901 L503 724 L461 724 L581 910 L647 910 L645 901 Z " />
<glyph glyph-name="B" unicode="B" horiz-adv-x="612" d="M376 660 Q418 660 449 649 Q480 638 501 618 Q522 598 532.5 570.5 Q543 543 543 511 Q543 459 517.5 418.5 Q492 378 444 357 Q498 337 526 293.5 Q554 250 554 195 Q554 154 538 118 Q522 82 492 56 Q462 30 419 15 Q376 0 322 0 L56 0 L172 660 L376 660 Z M166 331 L116 46 L321 46 Q363 46 396.5 57.5 Q430 69 453 89 Q476 109 488 136.5 Q500 164 500 196 Q500 224 491 248.5 Q482 273 463.5 291.5 Q445 310 418 320.5 Q391 331 355 331 L166 331 Z M216 614 L174 378 L349 378 Q384 378 410.5 388.5 Q437 399 454.5 417 Q472 435 481 458.5 Q490 482 490 508 Q490 556 460 585 Q430 614 367 614 L216 614 Z " />
<glyph glyph-name="C" unicode="C" horiz-adv-x="711" d="M438 670 Q526 670 593 630 Q660 590 698 521 L656 494 Q622 552 566.5 587 Q511 622 434 622 Q370 622 313.5 597 Q257 572 215 529 Q173 486 149 428.5 Q125 371 125 306 Q125 249 144 200 Q163 151 197 115 Q231 79 279 58.5 Q327 38 386 38 Q456 38 515.5 66.5 Q575 95 619 144 L656 113 Q605 56 534 23 Q463 -10 382 -10 Q313 -10 256 14 Q199 38 158 80.5 Q117 123 94 180.5 Q71 238 71 304 Q71 380 100.5 447 Q130 514 180 563.5 Q230 613 296.5 641.5 Q363 670 438 670 Z " />
<glyph glyph-name="Cacute" unicode="&#x106;" horiz-adv-x="711" d="M438 670 Q526 670 593 630 Q660 590 698 521 L656 494 Q622 552 566.5 587 Q511 622 434 622 Q370 622 313.5 597 Q257 572 215 529 Q173 486 149 428.5 Q125 371 125 306 Q125 249 144 200 Q163 151 197 115 Q231 79 279 58.5 Q327 38 386 38 Q456 38 515.5 66.5 Q575 95 619 144 L656 113 Q605 56 534 23 Q463 -10 382 -10 Q313 -10 256 14 Q199 38 158 80.5 Q117 123 94 180.5 Q71 238 71 304 Q71 380 100.5 447 Q130 514 180 563.5 Q230 613 296.5 641.5 Q363 670 438 670 Z M640 901 L498 724 L456 724 L576 910 L642 910 L640 901 Z " />
<glyph glyph-name="Ccaron" unicode="&#x10c;" horiz-adv-x="711" d="M438 670 Q526 670 593 630 Q660 590 698 521 L656 494 Q622 552 566.5 587 Q511 622 434 622 Q370 622 313.5 597 Q257 572 215 529 Q173 486 149 428.5 Q125 371 125 306 Q125 249 144 200 Q163 151 197 115 Q231 79 279 58.5 Q327 38 386 38 Q456 38 515.5 66.5 Q575 95 619 144 L656 113 Q605 56 534 23 Q463 -10 382 -10 Q313 -10 256 14 Q199 38 158 80.5 Q117 123 94 180.5 Q71 238 71 304 Q71 380 100.5 447 Q130 514 180 563.5 Q230 613 296.5 641.5 Q363 670 438 670 Z M492 724 L462 724 L349 910 L388 910 L483 780 L625 910 L671 910 L492 724 Z " />
<glyph glyph-name="Ccedilla" unicode="&#xc7;" horiz-adv-x="711" d="M438 670 Q526 670 593 630 Q660 590 698 521 L656 494 Q622 552 566.5 587 Q511 622 434 622 Q370 622 313.5 597 Q257 572 215 529 Q173 486 149 428.5 Q125 371 125 306 Q125 249 144 200 Q163 151 197 115 Q231 79 279 58.5 Q327 38 386 38 Q456 38 515.5 66.5 Q575 95 619 144 L656 113 Q605 56 534 23 Q463 -10 382 -10 Q313 -10 256 14 Q199 38 158 80.5 Q117 123 94 180.5 Q71 238 71 304 Q71 380 100.5 447 Q130 514 180 563.5 Q230 613 296.5 641.5 Q363 670 438 670 Z M353 15 Q378 1 393.5 -22 Q409 -45 409 -75 Q409 -97 400.5 -117.5 Q392 -138 375.5 -154 Q359 -170 335.5 -180 Q312 -190 282 -190 Q244 -190 205 -176 L212 -138 Q231 -143 247 -145.5 Q263 -148 277 -148 Q312 -148 337 -129 Q362 -110 363 -68 Q364 -45 355.5 -29.5 Q347 -14 331 3 L353 15 Z " />
<glyph glyph-name="Ccircumflex" unicode="&#x108;" horiz-adv-x="711" d="M438 670 Q526 670 593 630 Q660 590 698 521 L656 494 Q622 552 566.5 587 Q511 622 434 622 Q370 622 313.5 597 Q257 572 215 529 Q173 486 149 428.5 Q125 371 125 306 Q125 249 144 200 Q163 151 197 115 Q231 79 279 58.5 Q327 38 386 38 Q456 38 515.5 66.5 Q575 95 619 144 L656 113 Q605 56 534 23 Q463 -10 382 -10 Q313 -10 256 14 Q199 38 158 80.5 Q117 123 94 180.5 Q71 238 71 304 Q71 380 100.5 447 Q130 514 180 563.5 Q230 613 296.5 641.5 Q363 670 438 670 Z M638 724 L600 724 L503 853 L362 724 L316 724 L495 910 L525 910 L638 724 Z " />
<glyph glyph-name="Cdotaccent" unicode="&#x10a;" horiz-adv-x="711" d="M438 670 Q526 670 593 630 Q660 590 698 521 L656 494 Q622 552 566.5 587 Q511 622 434 622 Q370 622 313.5 597 Q257 572 215 529 Q173 486 149 428.5 Q125 371 125 306 Q125 249 144 200 Q163 151 197 115 Q231 79 279 58.5 Q327 38 386 38 Q456 38 515.5 66.5 Q575 95 619 144 L656 113 Q605 56 534 23 Q463 -10 382 -10 Q313 -10 256 14 Q199 38 158 80.5 Q117 123 94 180.5 Q71 238 71 304 Q71 380 100.5 447 Q130 514 180 563.5 Q230 613 296.5 641.5 Q363 670 438 670 Z M493 851 Q512 851 524.5 838.5 Q537 826 537 808 Q537 789 524.5 776.5 Q512 764 493 764 Q475 764 462 776.5 Q449 789 449 808 Q449 826 462 838.5 Q475 851 493 851 Z " />
<glyph glyph-name="D" unicode="D" horiz-adv-x="700" d="M328 660 Q409 660 471 636 Q533 612 575.5 570.5 Q618 529 639.5 474 Q661 419 661 357 Q661 320 652.5 279 Q644 238 625.5 198.5 Q607 159 576.5 123 Q546 87 502 59.5 Q458 32 399 16 Q340 0 265 0 L56 0 L172 660 L328 660 Z M216 614 L116 46 L268 46 Q361 46 425.5 74.5 Q490 103 530.5 147.5 Q571 192 589 246.5 Q607 301 607 352 Q607 405 589 452.5 Q571 500 535.5 536 Q500 572 447 593 Q394 614 324 614 L216 614 Z " />
<glyph glyph-name="Eth" unicode="&#xd0;" horiz-adv-x="702" d="M329 660 Q410 660 472.5 636 Q535 612 577 570.5 Q619 529 641 474 Q663 419 663 357 Q663 301 643.5 238.5 Q624 176 578 123 Q532 70 455.5 35 Q379 0 266 0 L57 0 L106 281 L5 281 L13 326 L114 326 L173 660 L329 660 Z M218 614 L167 326 L307 326 L299 281 L159 281 L118 46 L270 46 Q363 46 427.5 74.5 Q492 103 532.5 147.5 Q573 192 591 246.5 Q609 301 609 352 Q609 405 591 452.5 Q573 500 537.5 536 Q502 572 449 593 Q396 614 327 614 L218 614 Z " />
<glyph glyph-name="Dcaron" unicode="&#x10e;" horiz-adv-x="700" d="M328 660 Q409 660 471 636 Q533 612 575.5 570.5 Q618 529 639.5 474 Q661 419 661 357 Q661 320 652.5 279 Q644 238 625.5 198.5 Q607 159 576.5 123 Q546 87 502 59.5 Q458 32 399 16 Q340 0 265 0 L56 0 L172 660 L328 660 Z M216 614 L116 46 L268 46 Q361 46 425.5 74.5 Q490 103 530.5 147.5 Q571 192 589 246.5 Q607 301 607 352 Q607 405 589 452.5 Q571 500 535.5 536 Q500 572 447 593 Q394 614 324 614 L216 614 Z M380 724 L350 724 L237 910 L276 910 L371 780 L513 910 L559 910 L380 724 Z " />
<glyph glyph-name="Dcroat" unicode="&#x110;" horiz-adv-x="702" d="M329 660 Q410 660 472.5 636 Q535 612 577 570.5 Q619 529 641 474 Q663 419 663 357 Q663 301 643.5 238.5 Q624 176 578 123 Q532 70 455.5 35 Q379 0 266 0 L57 0 L106 281 L5 281 L13 326 L114 326 L173 660 L329 660 Z M218 614 L167 326 L307 326 L299 281 L159 281 L118 46 L270 46 Q363 46 427.5 74.5 Q492 103 532.5 147.5 Q573 192 591 246.5 Q609 301 609 352 Q609 405 591 452.5 Q573 500 537.5 536 Q502 572 449 593 Q396 614 327 614 L218 614 Z " />
<glyph glyph-name="E" unicode="E" horiz-adv-x="564" d="M577 614 L216 614 L174 380 L455 380 L448 333 L167 333 L116 46 L489 46 L482 0 L56 0 L172 660 L586 660 L577 614 Z " />
<glyph glyph-name="Eacute" unicode="&#xc9;" horiz-adv-x="564" d="M577 614 L216 614 L174 380 L455 380 L448 333 L167 333 L116 46 L489 46 L482 0 L56 0 L172 660 L586 660 L577 614 Z M546 901 L404 724 L362 724 L482 910 L548 910 L546 901 Z " />
<glyph glyph-name="Ebreve" unicode="&#x114;" horiz-adv-x="564" d="M577 614 L216 614 L174 380 L455 380 L448 333 L167 333 L116 46 L489 46 L482 0 L56 0 L172 660 L586 660 L577 614 Z M557 887 Q547 822 505 783.5 Q463 745 403 745 Q373 745 348.5 755 Q324 765 306.5 782 Q289 799 279.5 822.5 Q270 846 270 872 L270 883 Q270 886 271 887 L315 887 L315 881 Q315 836 340.5 811 Q366 786 406 786 Q446 786 475 812 Q504 838 512 887 L557 887 Z " />
<glyph glyph-name="Ecaron" unicode="&#x11a;" horiz-adv-x="564" d="M577 614 L216 614 L174 380 L455 380 L448 333 L167 333 L116 46 L489 46 L482 0 L56 0 L172 660 L586 660 L577 614 Z M398 724 L368 724 L255 910 L294 910 L389 780 L531 910 L577 910 L398 724 Z " />
<glyph glyph-name="Ecircumflex" unicode="&#xca;" horiz-adv-x="564" d="M577 614 L216 614 L174 380 L455 380 L448 333 L167 333 L116 46 L489 46 L482 0 L56 0 L172 660 L586 660 L577 614 Z M544 724 L506 724 L409 853 L268 724 L222 724 L401 910 L431 910 L544 724 Z " />
<glyph glyph-name="Edieresis" unicode="&#xcb;" horiz-adv-x="564" d="M577 614 L216 614 L174 380 L455 380 L448 333 L167 333 L116 46 L489 46 L482 0 L56 0 L172 660 L586 660 L577 614 Z M511 850 Q529 850 541.5 837.5 Q554 825 554 807 Q554 790 541.5 777.5 Q529 765 511 765 Q494 765 481 777.5 Q468 790 468 807 Q468 825 481 837.5 Q494 850 511 850 Z M285 850 Q303 850 315.5 838 Q328 826 328 808 Q328 790 315.5 777.5 Q303 765 285 765 Q268 765 255 777.5 Q242 790 242 808 Q242 826 255 838 Q268 850 285 850 Z " />
<glyph glyph-name="Edotaccent" unicode="&#x116;" horiz-adv-x="564" d="M577 614 L216 614 L174 380 L455 380 L448 333 L167 333 L116 46 L489 46 L482 0 L56 0 L172 660 L586 660 L577 614 Z M399 851 Q418 851 430.5 838.5 Q443 826 443 808 Q443 789 430.5 776.5 Q418 764 399 764 Q381 764 368 776.5 Q355 789 355 808 Q355 826 368 838.5 Q381 851 399 851 Z " />
<glyph glyph-name="Egrave" unicode="&#xc8;" horiz-adv-x="564" d="M577 614 L216 614 L174 380 L455 380 L448 333 L167 333 L116 46 L489 46 L482 0 L56 0 L172 660 L586 660 L577 614 Z M406 724 L367 724 L288 901 L289 910 L347 910 L406 724 Z " />
<glyph glyph-name="Emacron" unicode="&#x112;" horiz-adv-x="564" d="M577 614 L216 614 L174 380 L455 380 L448 333 L167 333 L116 46 L489 46 L482 0 L56 0 L172 660 L586 660 L577 614 Z M535 777 L253 777 L261 820 L543 820 L535 777 Z " />
<glyph glyph-name="Eogonek" unicode="&#x118;" horiz-adv-x="564" d="M577 614 L216 614 L174 380 L455 380 L448 333 L167 333 L116 46 L489 46 L482 0 L56 0 L172 660 L586 660 L577 614 Z M481 0 L411 -38 Q380 -55 363.5 -70.5 Q347 -86 347 -108 Q347 -148 411 -148 Q430 -148 456 -145 L449 -185 Q421 -190 394 -190 Q351 -190 322.5 -171.5 Q294 -153 294 -115 Q294 -96 303 -78.5 Q312 -61 332.5 -44.5 Q353 -28 386 -10.5 Q419 7 467 27 L481 0 Z " />
<glyph glyph-name="F" unicode="F" horiz-adv-x="518" d="M567 614 L216 614 L170 358 L463 358 L455 311 L162 311 L108 0 L56 0 L172 660 L575 660 L567 614 Z " />
<glyph glyph-name="G" unicode="G" horiz-adv-x="749" d="M671 135 Q624 70 548 30 Q472 -10 382 -10 Q314 -10 256.5 14 Q199 38 158 80.5 Q117 123 94 180.5 Q71 238 71 304 Q71 380 100.5 447 Q130 514 180 563.5 Q230 613 296.5 641.5 Q363 670 437 670 Q524 670 590.5 631 Q657 592 697 526 L657 496 Q622 553 566 587.5 Q510 622 434 622 Q370 622 313.5 597 Q257 572 215 529 Q173 486 149 428.5 Q125 371 125 306 Q125 249 144 200 Q163 151 197 115 Q231 79 279 58.5 Q327 38 386 38 Q458 38 518 68.5 Q578 99 620 148 L643 278 L400 278 L408 324 L704 324 L671 135 Z " />
<glyph glyph-name="Gbreve" unicode="&#x11e;" horiz-adv-x="749" d="M671 135 Q624 70 548 30 Q472 -10 382 -10 Q314 -10 256.5 14 Q199 38 158 80.5 Q117 123 94 180.5 Q71 238 71 304 Q71 380 100.5 447 Q130 514 180 563.5 Q230 613 296.5 641.5 Q363 670 437 670 Q524 670 590.5 631 Q657 592 697 526 L657 496 Q622 553 566 587.5 Q510 622 434 622 Q370 622 313.5 597 Q257 572 215 529 Q173 486 149 428.5 Q125 371 125 306 Q125 249 144 200 Q163 151 197 115 Q231 79 279 58.5 Q327 38 386 38 Q458 38 518 68.5 Q578 99 620 148 L643 278 L400 278 L408 324 L704 324 L671 135 Z M649 887 Q639 822 597 783.5 Q555 745 495 745 Q465 745 440.5 755 Q416 765 398.5 782 Q381 799 371.5 822.5 Q362 846 362 872 L362 883 Q362 886 363 887 L407 887 L407 881 Q407 836 432.5 811 Q458 786 498 786 Q538 786 567 812 Q596 838 604 887 L649 887 Z " />
<glyph glyph-name="Gcircumflex" unicode="&#x11c;" horiz-adv-x="749" d="M671 135 Q624 70 548 30 Q472 -10 382 -10 Q314 -10 256.5 14 Q199 38 158 80.5 Q117 123 94 180.5 Q71 238 71 304 Q71 380 100.5 447 Q130 514 180 563.5 Q230 613 296.5 641.5 Q363 670 437 670 Q524 670 590.5 631 Q657 592 697 526 L657 496 Q622 553 566 587.5 Q510 622 434 622 Q370 622 313.5 597 Q257 572 215 529 Q173 486 149 428.5 Q125 371 125 306 Q125 249 144 200 Q163 151 197 115 Q231 79 279 58.5 Q327 38 386 38 Q458 38 518 68.5 Q578 99 620 148 L643 278 L400 278 L408 324 L704 324 L671 135 Z M636 724 L598 724 L501 853 L360 724 L314 724 L493 910 L523 910 L636 724 Z " />
<glyph glyph-name="Gcommaaccent" unicode="&#x122;" horiz-adv-x="749" d="M671 135 Q624 70 548 30 Q472 -10 382 -10 Q314 -10 256.5 14 Q199 38 158 80.5 Q117 123 94 180.5 Q71 238 71 304 Q71 380 100.5 447 Q130 514 180 563.5 Q230 613 296.5 641.5 Q363 670 437 670 Q524 670 590.5 631 Q657 592 697 526 L657 496 Q622 553 566 587.5 Q510 622 434 622 Q370 622 313.5 597 Q257 572 215 529 Q173 486 149 428.5 Q125 371 125 306 Q125 249 144 200 Q163 151 197 115 Q231 79 279 58.5 Q327 38 386 38 Q458 38 518 68.5 Q578 99 620 148 L643 278 L400 278 L408 324 L704 324 L671 135 Z M313 -220 L272 -220 L314 -51 L367 -51 L313 -220 Z " />
<glyph glyph-name="Gdotaccent" unicode="&#x120;" horiz-adv-x="749" d="M671 135 Q624 70 548 30 Q472 -10 382 -10 Q314 -10 256.5 14 Q199 38 158 80.5 Q117 123 94 180.5 Q71 238 71 304 Q71 380 100.5 447 Q130 514 180 563.5 Q230 613 296.5 641.5 Q363 670 437 670 Q524 670 590.5 631 Q657 592 697 526 L657 496 Q622 553 566 587.5 Q510 622 434 622 Q370 622 313.5 597 Q257 572 215 529 Q173 486 149 428.5 Q125 371 125 306 Q125 249 144 200 Q163 151 197 115 Q231 79 279 58.5 Q327 38 386 38 Q458 38 518 68.5 Q578 99 620 148 L643 278 L400 278 L408 324 L704 324 L671 135 Z M491 851 Q510 851 522.5 838.5 Q535 826 535 808 Q535 789 522.5 776.5 Q510 764 491 764 Q473 764 460 776.5 Q447 789 447 808 Q447 826 460 838.5 Q473 851 491 851 Z " />
<glyph glyph-name="H" unicode="H" horiz-adv-x="706" d="M567 0 L515 0 L572 333 L166 333 L108 0 L56 0 L172 660 L224 660 L175 380 L582 380 L631 660 L682 660 L567 0 Z " />
<glyph glyph-name="Hbar" unicode="&#x126;" horiz-adv-x="715" d="M756 471 L653 471 L571 0 L519 0 L566 272 L160 272 L112 0 L60 0 L143 471 L39 471 L47 516 L151 516 L176 660 L228 660 L202 516 L609 516 L635 660 L686 660 L661 516 L764 516 L756 471 Z M574 319 L601 471 L194 471 L168 319 L574 319 Z " />
<glyph glyph-name="Hcircumflex" unicode="&#x124;" horiz-adv-x="706" d="M567 0 L515 0 L572 333 L166 333 L108 0 L56 0 L172 660 L224 660 L175 380 L582 380 L631 660 L682 660 L567 0 Z M598 724 L560 724 L463 853 L322 724 L276 724 L455 910 L485 910 L598 724 Z " />
<glyph glyph-name="I" unicode="I" horiz-adv-x="247" d="M108 0 L56 0 L172 660 L224 660 L108 0 Z " />
<glyph glyph-name="IJ" unicode="&#x132;" horiz-adv-x="614" d="M108 0 L56 0 L172 660 L224 660 L108 0 Z M498 135 Q483 55 439.5 22.5 Q396 -10 334 -10 Q308 -10 282.5 -6 Q257 -2 233 6 L241 50 Q265 45 286.5 41.5 Q308 38 329 38 Q349 38 368 42.5 Q387 47 402.5 58.5 Q418 70 429.5 90 Q441 110 447 142 L538 660 L590 660 L498 135 Z " />
<glyph glyph-name="Iacute" unicode="&#xcd;" horiz-adv-x="247" d="M108 0 L56 0 L172 660 L224 660 L108 0 Z M371 901 L229 724 L187 724 L307 910 L373 910 L371 901 Z " />
<glyph glyph-name="Ibreve" unicode="&#x12c;" horiz-adv-x="247" d="M108 0 L56 0 L172 660 L224 660 L108 0 Z M383 887 Q373 822 331 783.5 Q289 745 229 745 Q199 745 174.5 755 Q150 765 132.5 782 Q115 799 105.5 822.5 Q96 846 96 872 L96 883 Q96 886 97 887 L141 887 L141 881 Q141 836 166.5 811 Q192 786 232 786 Q272 786 301 812 Q330 838 338 887 L383 887 Z " />
<glyph glyph-name="Icircumflex" unicode="&#xce;" horiz-adv-x="247" d="M108 0 L56 0 L172 660 L224 660 L108 0 Z M370 724 L332 724 L235 853 L94 724 L48 724 L227 910 L257 910 L370 724 Z " />
<glyph glyph-name="Idieresis" unicode="&#xcf;" horiz-adv-x="247" d="M108 0 L56 0 L172 660 L224 660 L108 0 Z M337 850 Q355 850 367.5 837.5 Q380 825 380 807 Q380 790 367.5 777.5 Q355 765 337 765 Q320 765 307 777.5 Q294 790 294 807 Q294 825 307 837.5 Q320 850 337 850 Z M111 850 Q129 850 141.5 838 Q154 826 154 808 Q154 790 141.5 777.5 Q129 765 111 765 Q94 765 81 777.5 Q68 790 68 808 Q68 826 81 838 Q94 850 111 850 Z " />
<glyph glyph-name="Idotaccent" unicode="&#x130;" horiz-adv-x="247" d="M108 0 L56 0 L172 660 L224 660 L108 0 Z M224 851 Q243 851 255.5 838.5 Q268 826 268 808 Q268 789 255.5 776.5 Q243 764 224 764 Q206 764 193 776.5 Q180 789 180 808 Q180 826 193 838.5 Q206 851 224 851 Z " />
<glyph glyph-name="Igrave" unicode="&#xcc;" horiz-adv-x="247" d="M108 0 L56 0 L172 660 L224 660 L108 0 Z M232 724 L193 724 L114 901 L115 910 L173 910 L232 724 Z " />
<glyph glyph-name="Imacron" unicode="&#x12a;" horiz-adv-x="247" d="M108 0 L56 0 L172 660 L224 660 L108 0 Z M361 777 L79 777 L87 820 L369 820 L361 777 Z " />
<glyph glyph-name="Iogonek" unicode="&#x12e;" horiz-adv-x="247" d="M108 0 L56 0 L172 660 L224 660 L108 0 Z M109 0 L39 -38 Q8 -55 -8.5 -70.5 Q-25 -86 -25 -108 Q-25 -148 39 -148 Q58 -148 84 -145 L77 -185 Q49 -190 22 -190 Q-21 -190 -49.5 -171.5 Q-78 -153 -78 -115 Q-78 -96 -69 -78.5 Q-60 -61 -39.5 -44.5 Q-19 -28 14 -10.5 Q47 7 95 27 L109 0 Z " />
<glyph glyph-name="Itilde" unicode="&#x128;" horiz-adv-x="247" d="M108 0 L56 0 L172 660 L224 660 L108 0 Z M151 867 Q175 867 190.5 858 Q206 849 220 839 L250 815 Q261 806 271.5 800.5 Q282 795 294 795 Q314 795 322.5 811 Q331 827 335 857 L378 857 Q373 808 354 778.5 Q335 749 294 749 Q271 749 256 757.5 Q241 766 227 777 L195 800 Q184 809 174 814.5 Q164 820 153 820 Q133 820 124 804 Q115 788 111 759 L68 759 Q73 807 90.5 837 Q108 867 151 867 Z " />
<glyph glyph-name="J" unicode="J" horiz-adv-x="367" d="M251 135 Q236 55 192.5 22.5 Q149 -10 87 -10 Q61 -10 35.5 -6 Q10 -2 -14 6 L-6 50 Q18 45 39.5 41.5 Q61 38 82 38 Q102 38 121 42.5 Q140 47 155.5 58.5 Q171 70 182.5 90 Q194 110 200 142 L291 660 L343 660 L251 135 Z " />
<glyph glyph-name="Jcircumflex" unicode="&#x134;" horiz-adv-x="367" d="M251 135 Q236 55 192.5 22.5 Q149 -10 87 -10 Q61 -10 35.5 -6 Q10 -2 -14 6 L-6 50 Q18 45 39.5 41.5 Q61 38 82 38 Q102 38 121 42.5 Q140 47 155.5 58.5 Q171 70 182.5 90 Q194 110 200 142 L291 660 L343 660 L251 135 Z M483 724 L445 724 L348 853 L207 724 L161 724 L340 910 L370 910 L483 724 Z " />
<glyph glyph-name="K" unicode="K" horiz-adv-x="612" d="M252 351 L536 0 L474 0 L185 357 L553 660 L628 660 L252 351 Z M108 0 L56 0 L172 660 L224 660 L108 0 Z " />
<glyph glyph-name="Kcommaaccent" unicode="&#x136;" horiz-adv-x="612" d="M252 351 L536 0 L474 0 L185 357 L553 660 L628 660 L252 351 Z M108 0 L56 0 L172 660 L224 660 L108 0 Z M210 -220 L169 -220 L211 -51 L264 -51 L210 -220 Z " />
<glyph glyph-name="L" unicode="L" horiz-adv-x="499" d="M116 46 L442 46 L433 0 L56 0 L172 660 L224 660 L116 46 Z " />
<glyph glyph-name="Lacute" unicode="&#x139;" horiz-adv-x="499" d="M116 46 L442 46 L433 0 L56 0 L172 660 L224 660 L116 46 Z M371 901 L229 724 L187 724 L307 910 L373 910 L371 901 Z " />
<glyph glyph-name="Lcaron" unicode="&#x13d;" horiz-adv-x="499" d="M116 46 L442 46 L433 0 L56 0 L172 660 L224 660 L116 46 Z M453 512 L414 512 L468 721 L526 721 L453 512 Z " />
<glyph glyph-name="Lcommaaccent" unicode="&#x13b;" horiz-adv-x="499" d="M116 46 L442 46 L433 0 L56 0 L172 660 L224 660 L116 46 Z M204 -220 L163 -220 L205 -51 L258 -51 L204 -220 Z " />
<glyph glyph-name="Ldot" unicode="&#x13f;" horiz-adv-x="499" d="M116 46 L442 46 L433 0 L56 0 L172 660 L224 660 L116 46 Z M395 413 Q415 413 430 399.5 Q445 386 445 363 Q445 341 430 328 Q415 315 395 315 Q376 315 361 328 Q346 341 346 363 Q346 386 361 399.5 Q376 413 395 413 Z " />
<glyph glyph-name="Lslash" unicode="&#x141;" horiz-adv-x="499" d="M411 401 L160 295 L116 46 L442 46 L433 0 L56 0 L104 276 L17 239 L25 288 L113 325 L172 660 L224 660 L168 344 L420 450 L411 401 Z " />
<glyph glyph-name="M" unicode="M" horiz-adv-x="785" d="M195 667 L398 277 L742 670 L763 670 L645 0 L593 0 L687 534 L400 206 L379 206 L203 541 L108 0 L56 0 L174 670 L195 670 L195 667 Z " />
<glyph glyph-name="N" unicode="N" horiz-adv-x="706" d="M564 -10 L543 -10 L205 555 L108 0 L56 0 L174 670 L195 670 L195 667 L532 101 L630 660 L682 660 L564 -10 Z " />
<glyph glyph-name="Nacute" unicode="&#x143;" horiz-adv-x="706" d="M564 -10 L543 -10 L205 555 L108 0 L56 0 L174 670 L195 670 L195 667 L532 101 L630 660 L682 660 L564 -10 Z M600 901 L458 724 L416 724 L536 910 L602 910 L600 901 Z " />
<glyph glyph-name="Ncaron" unicode="&#x147;" horiz-adv-x="706" d="M564 -10 L543 -10 L205 555 L108 0 L56 0 L174 670 L195 670 L195 667 L532 101 L630 660 L682 660 L564 -10 Z M452 724 L422 724 L309 910 L348 910 L443 780 L585 910 L631 910 L452 724 Z " />
<glyph glyph-name="Ncommaaccent" unicode="&#x145;" horiz-adv-x="706" d="M564 -10 L543 -10 L205 555 L108 0 L56 0 L174 670 L195 670 L195 667 L532 101 L630 660 L682 660 L564 -10 Z M275 -220 L234 -220 L276 -51 L329 -51 L275 -220 Z " />
<glyph glyph-name="Eng" unicode="&#x14a;" horiz-adv-x="705" d="M195 667 L527 83 L628 660 L680 660 L555 -59 Q549 -94 535 -119 Q521 -144 501 -160 Q481 -176 456.5 -183 Q432 -190 404 -190 Q363 -190 333 -178 L341 -135 Q355 -138 371 -140 Q387 -142 401 -142 Q439 -142 466.5 -123.5 Q494 -105 504 -52 L514 6 L205 551 L109 0 L57 0 L174 670 L195 670 L195 667 Z " />
<glyph glyph-name="Ntilde" unicode="&#xd1;" horiz-adv-x="706" d="M564 -10 L543 -10 L205 555 L108 0 L56 0 L174 670 L195 670 L195 667 L532 101 L630 660 L682 660 L564 -10 Z M379 867 Q403 867 418.5 858 Q434 849 448 839 L478 815 Q489 806 499.5 800.5 Q510 795 522 795 Q542 795 550.5 811 Q559 827 563 857 L606 857 Q601 808 582 778.5 Q563 749 522 749 Q499 749 484 757.5 Q469 766 455 777 L423 800 Q412 809 402 814.5 Q392 820 381 820 Q361 820 352 804 Q343 788 339 759 L296 759 Q301 807 318.5 837 Q336 867 379 867 Z " />
<glyph glyph-name="O" unicode="O" horiz-adv-x="783" d="M435 670 Q503 670 560 646 Q617 622 658 579.5 Q699 537 722 479.5 Q745 422 745 356 Q745 280 715.5 213.5 Q686 147 636 97.5 Q586 48 520 19 Q454 -10 380 -10 Q312 -10 255.5 14 Q199 38 158 80.5 Q117 123 94 180.5 Q71 238 71 304 Q71 380 100 447 Q129 514 179 563.5 Q229 613 295 641.5 Q361 670 435 670 Z M432 622 Q368 622 312 597 Q256 572 214.5 529 Q173 486 149 428.5 Q125 371 125 306 Q125 249 144 200 Q163 151 197 115 Q231 79 278.5 58.5 Q326 38 383 38 Q446 38 502 63 Q558 88 600 131.5 Q642 175 666 232.5 Q690 290 690 355 Q690 411 671.5 460 Q653 509 619 545 Q585 581 537.5 601.5 Q490 622 432 622 Z " />
<glyph glyph-name="Oacute" unicode="&#xd3;" horiz-adv-x="783" d="M435 670 Q503 670 560 646 Q617 622 658 579.5 Q699 537 722 479.5 Q745 422 745 356 Q745 280 715.5 213.5 Q686 147 636 97.5 Q586 48 520 19 Q454 -10 380 -10 Q312 -10 255.5 14 Q199 38 158 80.5 Q117 123 94 180.5 Q71 238 71 304 Q71 380 100 447 Q129 514 179 563.5 Q229 613 295 641.5 Q361 670 435 670 Z M432 622 Q368 622 312 597 Q256 572 214.5 529 Q173 486 149 428.5 Q125 371 125 306 Q125 249 144 200 Q163 151 197 115 Q231 79 278.5 58.5 Q326 38 383 38 Q446 38 502 63 Q558 88 600 131.5 Q642 175 666 232.5 Q690 290 690 355 Q690 411 671.5 460 Q653 509 619 545 Q585 581 537.5 601.5 Q490 622 432 622 Z M637 901 L495 724 L453 724 L573 910 L639 910 L637 901 Z " />
<glyph glyph-name="Obreve" unicode="&#x14e;" horiz-adv-x="783" d="M435 670 Q503 670 560 646 Q617 622 658 579.5 Q699 537 722 479.5 Q745 422 745 356 Q745 280 715.5 213.5 Q686 147 636 97.5 Q586 48 520 19 Q454 -10 380 -10 Q312 -10 255.5 14 Q199 38 158 80.5 Q117 123 94 180.5 Q71 238 71 304 Q71 380 100 447 Q129 514 179 563.5 Q229 613 295 641.5 Q361 670 435 670 Z M432 622 Q368 622 312 597 Q256 572 214.5 529 Q173 486 149 428.5 Q125 371 125 306 Q125 249 144 200 Q163 151 197 115 Q231 79 278.5 58.5 Q326 38 383 38 Q446 38 502 63 Q558 88 600 131.5 Q642 175 666 232.5 Q690 290 690 355 Q690 411 671.5 460 Q653 509 619 545 Q585 581 537.5 601.5 Q490 622 432 622 Z M648 887 Q638 822 596 783.5 Q554 745 494 745 Q464 745 439.5 755 Q415 765 397.5 782 Q380 799 370.5 822.5 Q361 846 361 872 L361 883 Q361 886 362 887 L406 887 L406 881 Q406 836 431.5 811 Q457 786 497 786 Q537 786 566 812 Q595 838 603 887 L648 887 Z " />
<glyph glyph-name="Ocircumflex" unicode="&#xd4;" horiz-adv-x="783" d="M435 670 Q503 670 560 646 Q617 622 658 579.5 Q699 537 722 479.5 Q745 422 745 356 Q745 280 715.5 213.5 Q686 147 636 97.5 Q586 48 520 19 Q454 -10 380 -10 Q312 -10 255.5 14 Q199 38 158 80.5 Q117 123 94 180.5 Q71 238 71 304 Q71 380 100 447 Q129 514 179 563.5 Q229 613 295 641.5 Q361 670 435 670 Z M432 622 Q368 622 312 597 Q256 572 214.5 529 Q173 486 149 428.5 Q125 371 125 306 Q125 249 144 200 Q163 151 197 115 Q231 79 278.5 58.5 Q326 38 383 38 Q446 38 502 63 Q558 88 600 131.5 Q642 175 666 232.5 Q690 290 690 355 Q690 411 671.5 460 Q653 509 619 545 Q585 581 537.5 601.5 Q490 622 432 622 Z M635 724 L597 724 L500 853 L359 724 L313 724 L492 910 L522 910 L635 724 Z " />
<glyph glyph-name="Odieresis" unicode="&#xd6;" horiz-adv-x="783" d="M435 670 Q503 670 560 646 Q617 622 658 579.5 Q699 537 722 479.5 Q745 422 745 356 Q745 280 715.5 213.5 Q686 147 636 97.5 Q586 48 520 19 Q454 -10 380 -10 Q312 -10 255.5 14 Q199 38 158 80.5 Q117 123 94 180.5 Q71 238 71 304 Q71 380 100 447 Q129 514 179 563.5 Q229 613 295 641.5 Q361 670 435 670 Z M432 622 Q368 622 312 597 Q256 572 214.5 529 Q173 486 149 428.5 Q125 371 125 306 Q125 249 144 200 Q163 151 197 115 Q231 79 278.5 58.5 Q326 38 383 38 Q446 38 502 63 Q558 88 600 131.5 Q642 175 666 232.5 Q690 290 690 355 Q690 411 671.5 460 Q653 509 619 545 Q585 581 537.5 601.5 Q490 622 432 622 Z M602 850 Q620 850 632.5 837.5 Q645 825 645 807 Q645 790 632.5 777.5 Q620 765 602 765 Q585 765 572 777.5 Q559 790 559 807 Q559 825 572 837.5 Q585 850 602 850 Z M376 850 Q394 850 406.5 838 Q419 826 419 808 Q419 790 406.5 777.5 Q394 765 376 765 Q359 765 346 777.5 Q333 790 333 808 Q333 826 346 838 Q359 850 376 850 Z " />
<glyph glyph-name="Ograve" unicode="&#xd2;" horiz-adv-x="783" d="M435 670 Q503 670 560 646 Q617 622 658 579.5 Q699 537 722 479.5 Q745 422 745 356 Q745 280 715.5 213.5 Q686 147 636 97.5 Q586 48 520 19 Q454 -10 380 -10 Q312 -10 255.5 14 Q199 38 158 80.5 Q117 123 94 180.5 Q71 238 71 304 Q71 380 100 447 Q129 514 179 563.5 Q229 613 295 641.5 Q361 670 435 670 Z M432 622 Q368 622 312 597 Q256 572 214.5 529 Q173 486 149 428.5 Q125 371 125 306 Q125 249 144 200 Q163 151 197 115 Q231 79 278.5 58.5 Q326 38 383 38 Q446 38 502 63 Q558 88 600 131.5 Q642 175 666 232.5 Q690 290 690 355 Q690 411 671.5 460 Q653 509 619 545 Q585 581 537.5 601.5 Q490 622 432 622 Z M497 724 L458 724 L379 901 L380 910 L438 910 L497 724 Z " />
<glyph glyph-name="Ohungarumlaut" unicode="&#x150;" horiz-adv-x="783" d="M435 670 Q503 670 560 646 Q617 622 658 579.5 Q699 537 722 479.5 Q745 422 745 356 Q745 280 715.5 213.5 Q686 147 636 97.5 Q586 48 520 19 Q454 -10 380 -10 Q312 -10 255.5 14 Q199 38 158 80.5 Q117 123 94 180.5 Q71 238 71 304 Q71 380 100 447 Q129 514 179 563.5 Q229 613 295 641.5 Q361 670 435 670 Z M432 622 Q368 622 312 597 Q256 572 214.5 529 Q173 486 149 428.5 Q125 371 125 306 Q125 249 144 200 Q163 151 197 115 Q231 79 278.5 58.5 Q326 38 383 38 Q446 38 502 63 Q558 88 600 131.5 Q642 175 666 232.5 Q690 290 690 355 Q690 411 671.5 460 Q653 509 619 545 Q585 581 537.5 601.5 Q490 622 432 622 Z M713 901 L572 724 L530 724 L654 910 L715 910 L713 901 Z M547 901 L406 724 L364 724 L488 910 L549 910 L547 901 Z " />
<glyph glyph-name="Omacron" unicode="&#x14c;" horiz-adv-x="783" d="M435 670 Q503 670 560 646 Q617 622 658 579.5 Q699 537 722 479.5 Q745 422 745 356 Q745 280 715.5 213.5 Q686 147 636 97.5 Q586 48 520 19 Q454 -10 380 -10 Q312 -10 255.5 14 Q199 38 158 80.5 Q117 123 94 180.5 Q71 238 71 304 Q71 380 100 447 Q129 514 179 563.5 Q229 613 295 641.5 Q361 670 435 670 Z M432 622 Q368 622 312 597 Q256 572 214.5 529 Q173 486 149 428.5 Q125 371 125 306 Q125 249 144 200 Q163 151 197 115 Q231 79 278.5 58.5 Q326 38 383 38 Q446 38 502 63 Q558 88 600 131.5 Q642 175 666 232.5 Q690 290 690 355 Q690 411 671.5 460 Q653 509 619 545 Q585 581 537.5 601.5 Q490 622 432 622 Z M626 777 L344 777 L352 820 L634 820 L626 777 Z " />
<glyph glyph-name="Oslash" unicode="&#xd8;" horiz-adv-x="771" d="M429 670 Q492 670 545.5 649 Q599 628 640 590 L727 674 L759 641 L671 556 Q703 515 720.5 464.5 Q738 414 738 356 Q738 280 708.5 213.5 Q679 147 629 97.5 Q579 48 513 19 Q447 -10 373 -10 Q309 -10 255.5 11 Q202 32 162 69 L75 -14 L43 19 L131 103 Q99 144 81.5 194.5 Q64 245 64 304 Q64 380 93 447 Q122 514 172 563.5 Q222 613 288.5 641.5 Q355 670 429 670 Z M425 622 Q361 622 305 597 Q249 572 207.5 529 Q166 486 142 428.5 Q118 371 118 306 Q118 258 131 216 Q144 174 169 140 L602 554 Q568 586 523.5 604 Q479 622 425 622 Z M684 355 Q684 403 670.5 444.5 Q657 486 633 520 L199 105 Q233 73 277.5 55.5 Q322 38 376 38 Q439 38 495 63 Q551 88 593 131.5 Q635 175 659.5 232.5 Q684 290 684 355 Z " />
<glyph glyph-name="Oslashacute" unicode="&#x1fe;" horiz-adv-x="771" d="M429 670 Q492 670 545.5 649 Q599 628 640 590 L727 674 L759 641 L671 556 Q703 515 720.5 464.5 Q738 414 738 356 Q738 280 708.5 213.5 Q679 147 629 97.5 Q579 48 513 19 Q447 -10 373 -10 Q309 -10 255.5 11 Q202 32 162 69 L75 -14 L43 19 L131 103 Q99 144 81.5 194.5 Q64 245 64 304 Q64 380 93 447 Q122 514 172 563.5 Q222 613 288.5 641.5 Q355 670 429 670 Z M425 622 Q361 622 305 597 Q249 572 207.5 529 Q166 486 142 428.5 Q118 371 118 306 Q118 258 131 216 Q144 174 169 140 L602 554 Q568 586 523.5 604 Q479 622 425 622 Z M684 355 Q684 403 670.5 444.5 Q657 486 633 520 L199 105 Q233 73 277.5 55.5 Q322 38 376 38 Q439 38 495 63 Q551 88 593 131.5 Q635 175 659.5 232.5 Q684 290 684 355 Z M630 901 L488 724 L446 724 L566 910 L632 910 L630 901 Z " />
<glyph glyph-name="Otilde" unicode="&#xd5;" horiz-adv-x="783" d="M435 670 Q503 670 560 646 Q617 622 658 579.5 Q699 537 722 479.5 Q745 422 745 356 Q745 280 715.5 213.5 Q686 147 636 97.5 Q586 48 520 19 Q454 -10 380 -10 Q312 -10 255.5 14 Q199 38 158 80.5 Q117 123 94 180.5 Q71 238 71 304 Q71 380 100 447 Q129 514 179 563.5 Q229 613 295 641.5 Q361 670 435 670 Z M432 622 Q368 622 312 597 Q256 572 214.5 529 Q173 486 149 428.5 Q125 371 125 306 Q125 249 144 200 Q163 151 197 115 Q231 79 278.5 58.5 Q326 38 383 38 Q446 38 502 63 Q558 88 600 131.5 Q642 175 666 232.5 Q690 290 690 355 Q690 411 671.5 460 Q653 509 619 545 Q585 581 537.5 601.5 Q490 622 432 622 Z M416 867 Q440 867 455.5 858 Q471 849 485 839 L515 815 Q526 806 536.5 800.5 Q547 795 559 795 Q579 795 587.5 811 Q596 827 600 857 L643 857 Q638 808 619 778.5 Q600 749 559 749 Q536 749 521 757.5 Q506 766 492 777 L460 800 Q449 809 439 814.5 Q429 820 418 820 Q398 820 389 804 Q380 788 376 759 L333 759 Q338 807 355.5 837 Q373 867 416 867 Z " />
<glyph glyph-name="OE" unicode="&#x152;" horiz-adv-x="1141" d="M439 670 Q497 670 544 655 Q591 640 625.5 615 Q660 590 683.5 558.5 Q707 527 719 494 L749 660 L1162 660 L1154 614 L793 614 L751 380 L1032 380 L1024 333 L743 333 L693 46 L1066 46 L1058 0 L636 0 L659 133 Q636 97 604.5 70 Q573 43 536 25.5 Q499 8 458.5 -1 Q418 -10 378 -10 Q308 -10 251.5 15 Q195 40 154.5 83 Q114 126 92 182.5 Q70 239 70 302 Q70 370 95.5 436 Q121 502 169 554 Q217 606 285 638 Q353 670 439 670 Z M440 622 Q372 622 314.5 595.5 Q257 569 215 525 Q173 481 149 424 Q125 367 125 305 Q125 252 142.5 204 Q160 156 194 119 Q228 82 277 60 Q326 38 389 38 Q466 38 523.5 70 Q581 102 619 151.5 Q657 201 676 260.5 Q695 320 695 375 Q695 433 674.5 479 Q654 525 619 557 Q584 589 538 605.5 Q492 622 440 622 Z " />
<glyph glyph-name="P" unicode="P" horiz-adv-x="568" d="M375 660 Q423 660 459 647.5 Q495 635 518.5 612.5 Q542 590 554 559 Q566 528 566 492 Q566 450 550.5 414.5 Q535 379 506 352.5 Q477 326 435 311 Q393 296 339 296 L160 296 L108 0 L56 0 L172 660 L375 660 Z M216 614 L168 342 L341 342 Q384 342 416.5 353.5 Q449 365 470 385.5 Q491 406 501.5 433 Q512 460 512 491 Q512 547 478 580.5 Q444 614 370 614 L216 614 Z " />
<glyph glyph-name="Thorn" unicode="&#xde;" horiz-adv-x="563" d="M202 534 L348 534 Q396 534 432 520.5 Q468 507 491.5 483.5 Q515 460 527 428.5 Q539 397 539 361 Q539 319 523.5 282.5 Q508 246 478.5 218.5 Q449 191 407 175.5 Q365 160 311 160 L136 160 L108 0 L56 0 L172 660 L224 660 L202 534 Z M193 487 L144 206 L314 206 Q357 206 389.5 218.5 Q422 231 443 252 Q464 273 474.5 300.5 Q485 328 485 359 Q485 387 476.5 410.5 Q468 434 450.5 451 Q433 468 406 477.5 Q379 487 342 487 L193 487 Z " />
<glyph glyph-name="Q" unicode="Q" horiz-adv-x="784" d="M435 670 Q503 670 560 646 Q617 622 658 579.5 Q699 537 722 479.5 Q745 422 745 356 Q745 301 729 250.5 Q713 200 684.5 157 Q656 114 617 80 Q578 46 531 24 Q568 -34 610.5 -68 Q653 -102 698.5 -120 Q744 -138 790.5 -143.5 Q837 -149 881 -149 Q905 -149 920.5 -148.5 Q936 -148 949 -147 L942 -188 Q928 -191 907.5 -193.5 Q887 -196 855 -196 Q813 -196 765 -189 Q717 -182 667.5 -160 Q618 -138 571 -98.5 Q524 -59 485 6 Q460 -2 433.5 -6 Q407 -10 380 -10 Q312 -10 255.5 14 Q199 38 158 80.5 Q117 123 94 180.5 Q71 238 71 304 Q71 380 100 447 Q129 514 179 563.5 Q229 613 295 641.5 Q361 670 435 670 Z M432 622 Q368 622 312 597 Q256 572 214.5 529 Q173 486 149 428.5 Q125 371 125 306 Q125 249 144 200 Q163 151 197 115 Q231 79 278.5 58.5 Q326 38 383 38 Q446 38 502 63 Q558 88 600 131.5 Q642 175 666 232.5 Q690 290 690 355 Q690 411 671.5 460 Q653 509 619 545 Q585 581 537.5 601.5 Q490 622 432 622 Z " />
<glyph glyph-name="R" unicode="R" horiz-adv-x="614" d="M375 660 Q423 660 459 647.5 Q495 635 518.5 612.5 Q542 590 554 559.5 Q566 529 566 493 Q566 455 553 422 Q540 389 516 363.5 Q492 338 457 321 Q422 304 378 298 L553 0 L494 0 L320 296 L160 296 L108 0 L56 0 L172 660 L375 660 Z M216 614 L168 342 L341 342 Q384 342 416.5 353.5 Q449 365 470 385.5 Q491 406 501.5 433 Q512 460 512 491 Q512 547 478 580.5 Q444 614 370 614 L216 614 Z " />
<glyph glyph-name="Racute" unicode="&#x154;" horiz-adv-x="614" d="M375 660 Q423 660 459 647.5 Q495 635 518.5 612.5 Q542 590 554 559.5 Q566 529 566 493 Q566 455 553 422 Q540 389 516 363.5 Q492 338 457 321 Q422 304 378 298 L553 0 L494 0 L320 296 L160 296 L108 0 L56 0 L172 660 L375 660 Z M216 614 L168 342 L341 342 Q384 342 416.5 353.5 Q449 365 470 385.5 Q491 406 501.5 433 Q512 460 512 491 Q512 547 478 580.5 Q444 614 370 614 L216 614 Z M511 901 L369 724 L327 724 L447 910 L513 910 L511 901 Z " />
<glyph glyph-name="Rcaron" unicode="&#x158;" horiz-adv-x="614" d="M375 660 Q423 660 459 647.5 Q495 635 518.5 612.5 Q542 590 554 559.5 Q566 529 566 493 Q566 455 553 422 Q540 389 516 363.5 Q492 338 457 321 Q422 304 378 298 L553 0 L494 0 L320 296 L160 296 L108 0 L56 0 L172 660 L375 660 Z M216 614 L168 342 L341 342 Q384 342 416.5 353.5 Q449 365 470 385.5 Q491 406 501.5 433 Q512 460 512 491 Q512 547 478 580.5 Q444 614 370 614 L216 614 Z M363 724 L333 724 L220 910 L259 910 L354 780 L496 910 L542 910 L363 724 Z " />
<glyph glyph-name="Rcommaaccent" unicode="&#x156;" horiz-adv-x="614" d="M375 660 Q423 660 459 647.5 Q495 635 518.5 612.5 Q542 590 554 559.5 Q566 529 566 493 Q566 455 553 422 Q540 389 516 363.5 Q492 338 457 321 Q422 304 378 298 L553 0 L494 0 L320 296 L160 296 L108 0 L56 0 L172 660 L375 660 Z M216 614 L168 342 L341 342 Q384 342 416.5 353.5 Q449 365 470 385.5 Q491 406 501.5 433 Q512 460 512 491 Q512 547 478 580.5 Q444 614 370 614 L216 614 Z M221 -220 L180 -220 L222 -51 L275 -51 L221 -220 Z " />
<glyph glyph-name="S" unicode="S" horiz-adv-x="556" d="M326 670 Q401 670 449.5 637.5 Q498 605 528 554 L487 529 Q458 575 419 598.5 Q380 622 325 622 Q288 622 261.5 612 Q235 602 217.5 585.5 Q200 569 192 547.5 Q184 526 184 504 Q184 481 192 463 Q200 445 213.5 430.5 Q227 416 244.5 404 Q262 392 281 381 L351 340 Q407 307 441 267 Q475 227 475 170 Q475 138 462.5 105.5 Q450 73 425 47.5 Q400 22 361.5 6 Q323 -10 271 -10 Q224 -10 186.5 3 Q149 16 119 37.5 Q89 59 66.5 87 Q44 115 28 146 L71 171 Q103 111 153 74.5 Q203 38 273 38 Q310 38 338 48.5 Q366 59 384.5 77 Q403 95 412 118 Q421 141 421 166 Q421 210 395 239.5 Q369 269 321 297 L249 340 Q228 352 206.5 367.5 Q185 383 167.5 402.5 Q150 422 139.5 446.5 Q129 471 129 501 Q129 531 141 561.5 Q153 592 177.5 616 Q202 640 239 655 Q276 670 326 670 Z " />
<glyph glyph-name="Sacute" unicode="&#x15a;" horiz-adv-x="556" d="M326 670 Q401 670 449.5 637.5 Q498 605 528 554 L487 529 Q458 575 419 598.5 Q380 622 325 622 Q288 622 261.5 612 Q235 602 217.5 585.5 Q200 569 192 547.5 Q184 526 184 504 Q184 481 192 463 Q200 445 213.5 430.5 Q227 416 244.5 404 Q262 392 281 381 L351 340 Q407 307 441 267 Q475 227 475 170 Q475 138 462.5 105.5 Q450 73 425 47.5 Q400 22 361.5 6 Q323 -10 271 -10 Q224 -10 186.5 3 Q149 16 119 37.5 Q89 59 66.5 87 Q44 115 28 146 L71 171 Q103 111 153 74.5 Q203 38 273 38 Q310 38 338 48.5 Q366 59 384.5 77 Q403 95 412 118 Q421 141 421 166 Q421 210 395 239.5 Q369 269 321 297 L249 340 Q228 352 206.5 367.5 Q185 383 167.5 402.5 Q150 422 139.5 446.5 Q129 471 129 501 Q129 531 141 561.5 Q153 592 177.5 616 Q202 640 239 655 Q276 670 326 670 Z M520 901 L378 724 L336 724 L456 910 L522 910 L520 901 Z " />
<glyph glyph-name="Scaron" unicode="&#x160;" horiz-adv-x="556" d="M326 670 Q401 670 449.5 637.5 Q498 605 528 554 L487 529 Q458 575 419 598.5 Q380 622 325 622 Q288 622 261.5 612 Q235 602 217.5 585.5 Q200 569 192 547.5 Q184 526 184 504 Q184 481 192 463 Q200 445 213.5 430.5 Q227 416 244.5 404 Q262 392 281 381 L351 340 Q407 307 441 267 Q475 227 475 170 Q475 138 462.5 105.5 Q450 73 425 47.5 Q400 22 361.5 6 Q323 -10 271 -10 Q224 -10 186.5 3 Q149 16 119 37.5 Q89 59 66.5 87 Q44 115 28 146 L71 171 Q103 111 153 74.5 Q203 38 273 38 Q310 38 338 48.5 Q366 59 384.5 77 Q403 95 412 118 Q421 141 421 166 Q421 210 395 239.5 Q369 269 321 297 L249 340 Q228 352 206.5 367.5 Q185 383 167.5 402.5 Q150 422 139.5 446.5 Q129 471 129 501 Q129 531 141 561.5 Q153 592 177.5 616 Q202 640 239 655 Q276 670 326 670 Z M372 724 L342 724 L229 910 L268 910 L363 780 L505 910 L551 910 L372 724 Z " />
<glyph glyph-name="Scedilla" unicode="&#x15e;" horiz-adv-x="556" d="M326 670 Q401 670 449.5 637.5 Q498 605 528 554 L487 529 Q458 575 419 598.5 Q380 622 325 622 Q288 622 261.5 612 Q235 602 217.5 585.5 Q200 569 192 547.5 Q184 526 184 504 Q184 481 192 463 Q200 445 213.5 430.5 Q227 416 244.5 404 Q262 392 281 381 L351 340 Q407 307 441 267 Q475 227 475 170 Q475 138 462.5 105.5 Q450 73 425 47.5 Q400 22 361.5 6 Q323 -10 271 -10 Q224 -10 186.5 3 Q149 16 119 37.5 Q89 59 66.5 87 Q44 115 28 146 L71 171 Q103 111 153 74.5 Q203 38 273 38 Q310 38 338 48.5 Q366 59 384.5 77 Q403 95 412 118 Q421 141 421 166 Q421 210 395 239.5 Q369 269 321 297 L249 340 Q228 352 206.5 367.5 Q185 383 167.5 402.5 Q150 422 139.5 446.5 Q129 471 129 501 Q129 531 141 561.5 Q153 592 177.5 616 Q202 640 239 655 Q276 670 326 670 Z M234 15 Q259 1 274.5 -22 Q290 -45 290 -75 Q290 -97 281.5 -117.5 Q273 -138 256.5 -154 Q240 -170 216.5 -180 Q193 -190 163 -190 Q125 -190 86 -176 L93 -138 Q112 -143 128 -145.5 Q144 -148 158 -148 Q193 -148 218 -129 Q243 -110 244 -68 Q245 -45 236.5 -29.5 Q228 -14 212 3 L234 15 Z " />
<glyph glyph-name="Scircumflex" unicode="&#x15c;" horiz-adv-x="556" d="M326 670 Q401 670 449.5 637.5 Q498 605 528 554 L487 529 Q458 575 419 598.5 Q380 622 325 622 Q288 622 261.5 612 Q235 602 217.5 585.5 Q200 569 192 547.5 Q184 526 184 504 Q184 481 192 463 Q200 445 213.5 430.5 Q227 416 244.5 404 Q262 392 281 381 L351 340 Q407 307 441 267 Q475 227 475 170 Q475 138 462.5 105.5 Q450 73 425 47.5 Q400 22 361.5 6 Q323 -10 271 -10 Q224 -10 186.5 3 Q149 16 119 37.5 Q89 59 66.5 87 Q44 115 28 146 L71 171 Q103 111 153 74.5 Q203 38 273 38 Q310 38 338 48.5 Q366 59 384.5 77 Q403 95 412 118 Q421 141 421 166 Q421 210 395 239.5 Q369 269 321 297 L249 340 Q228 352 206.5 367.5 Q185 383 167.5 402.5 Q150 422 139.5 446.5 Q129 471 129 501 Q129 531 141 561.5 Q153 592 177.5 616 Q202 640 239 655 Q276 670 326 670 Z M518 724 L480 724 L383 853 L242 724 L196 724 L375 910 L405 910 L518 724 Z " />
<glyph glyph-name="Scommaaccent" unicode="&#x218;" horiz-adv-x="556" d="M326 670 Q401 670 449.5 637.5 Q498 605 528 554 L487 529 Q458 575 419 598.5 Q380 622 325 622 Q288 622 261.5 612 Q235 602 217.5 585.5 Q200 569 192 547.5 Q184 526 184 504 Q184 481 192 463 Q200 445 213.5 430.5 Q227 416 244.5 404 Q262 392 281 381 L351 340 Q407 307 441 267 Q475 227 475 170 Q475 138 462.5 105.5 Q450 73 425 47.5 Q400 22 361.5 6 Q323 -10 271 -10 Q224 -10 186.5 3 Q149 16 119 37.5 Q89 59 66.5 87 Q44 115 28 146 L71 171 Q103 111 153 74.5 Q203 38 273 38 Q310 38 338 48.5 Q366 59 384.5 77 Q403 95 412 118 Q421 141 421 166 Q421 210 395 239.5 Q369 269 321 297 L249 340 Q228 352 206.5 367.5 Q185 383 167.5 402.5 Q150 422 139.5 446.5 Q129 471 129 501 Q129 531 141 561.5 Q153 592 177.5 616 Q202 640 239 655 Q276 670 326 670 Z M196 -220 L155 -220 L197 -51 L250 -51 L196 -220 Z " />
<glyph glyph-name="uni1E9E" unicode="&#x1e9e;" horiz-adv-x="701" d="M665 643 L469 402 Q505 397 535.5 380 Q566 363 588.5 337 Q611 311 623.5 277.5 Q636 244 636 205 Q636 158 618 118.5 Q600 79 569 50.5 Q538 22 498 6 Q458 -10 415 -10 Q358 -10 311 15.5 Q264 41 231 84 L265 118 Q294 80 332.5 59 Q371 38 416 38 Q450 38 480.5 50.5 Q511 63 533.5 85 Q556 107 569 137.5 Q582 168 582 204 Q582 238 570 267 Q558 296 535.5 317 Q513 338 482 349.5 Q451 361 414 361 L386 361 L388 377 L580 614 L216 614 L108 0 L56 0 L172 660 L667 660 L665 643 Z " />
<glyph glyph-name="uni018F" unicode="&#x18f;" horiz-adv-x="770" d="M387 670 Q456 670 513 645 Q570 620 610 578 Q650 536 672 481 Q694 426 694 366 Q694 310 673.5 244 Q653 178 611 121.5 Q569 65 503.5 27.5 Q438 -10 348 -10 Q287 -10 235 9 Q183 28 145 63.5 Q107 99 85.5 150 Q64 201 64 266 Q64 289 66.5 307 Q69 325 72 342 L639 342 Q639 348 639.5 353.5 Q640 359 640 365 Q640 417 622 464 Q604 511 570.5 546 Q537 581 490 601.5 Q443 622 385 622 Q317 622 255.5 594 Q194 566 153 517 L118 549 Q166 606 237 638 Q308 670 387 670 Z M349 38 Q412 38 460.5 61 Q509 84 544 120.5 Q579 157 601 203 Q623 249 632 295 L119 295 Q118 287 118 279 Q118 271 118 263 Q118 210 135.5 168 Q153 126 184 97 Q215 68 257.5 53 Q300 38 349 38 Z " />
<glyph glyph-name="T" unicode="T" horiz-adv-x="585" d="M626 614 L385 614 L277 0 L225 0 L333 614 L91 614 L99 660 L635 660 L626 614 Z " />
<glyph glyph-name="Tbar" unicode="&#x166;" horiz-adv-x="585" d="M528 275 L325 275 L277 0 L225 0 L273 275 L69 275 L77 319 L281 319 L333 614 L91 614 L99 660 L635 660 L626 614 L385 614 L333 319 L536 319 L528 275 Z " />
<glyph glyph-name="Tcaron" unicode="&#x164;" horiz-adv-x="585" d="M626 614 L385 614 L277 0 L225 0 L333 614 L91 614 L99 660 L635 660 L626 614 Z M391 724 L361 724 L248 910 L287 910 L382 780 L524 910 L570 910 L391 724 Z " />
<glyph glyph-name="uni0162" unicode="&#x162;" horiz-adv-x="585" d="M626 614 L385 614 L277 0 L225 0 L333 614 L91 614 L99 660 L635 660 L626 614 Z M252 15 Q277 1 292.5 -22 Q308 -45 308 -75 Q308 -97 299.5 -117.5 Q291 -138 274.5 -154 Q258 -170 234.5 -180 Q211 -190 181 -190 Q143 -190 104 -176 L111 -138 Q130 -143 146 -145.5 Q162 -148 176 -148 Q211 -148 236 -129 Q261 -110 262 -68 Q263 -45 254.5 -29.5 Q246 -14 230 3 L252 15 Z " />
<glyph glyph-name="U" unicode="U" horiz-adv-x="682" d="M592 223 Q582 167 557.5 123.5 Q533 80 497.5 50.5 Q462 21 418 5.5 Q374 -10 325 -10 Q274 -10 230.5 6 Q187 22 155.5 51.5 Q124 81 106.5 122 Q89 163 89 213 Q89 227 90.5 242 Q92 257 94 273 L162 660 L214 660 L145 270 Q143 256 142 242.5 Q141 229 141 218 Q141 176 155.5 142.5 Q170 109 195.5 85.5 Q221 62 255 50 Q289 38 328 38 Q367 38 402 50.5 Q437 63 465.5 87 Q494 111 513.5 146 Q533 181 541 227 L616 660 L668 660 L592 223 Z " />
<glyph glyph-name="Uacute" unicode="&#xda;" horiz-adv-x="682" d="M592 223 Q582 167 557.5 123.5 Q533 80 497.5 50.5 Q462 21 418 5.5 Q374 -10 325 -10 Q274 -10 230.5 6 Q187 22 155.5 51.5 Q124 81 106.5 122 Q89 163 89 213 Q89 227 90.5 242 Q92 257 94 273 L162 660 L214 660 L145 270 Q143 256 142 242.5 Q141 229 141 218 Q141 176 155.5 142.5 Q170 109 195.5 85.5 Q221 62 255 50 Q289 38 328 38 Q367 38 402 50.5 Q437 63 465.5 87 Q494 111 513.5 146 Q533 181 541 227 L616 660 L668 660 L592 223 Z M588 901 L446 724 L404 724 L524 910 L590 910 L588 901 Z " />
<glyph glyph-name="Ubreve" unicode="&#x16c;" horiz-adv-x="682" d="M592 223 Q582 167 557.5 123.5 Q533 80 497.5 50.5 Q462 21 418 5.5 Q374 -10 325 -10 Q274 -10 230.5 6 Q187 22 155.5 51.5 Q124 81 106.5 122 Q89 163 89 213 Q89 227 90.5 242 Q92 257 94 273 L162 660 L214 660 L145 270 Q143 256 142 242.5 Q141 229 141 218 Q141 176 155.5 142.5 Q170 109 195.5 85.5 Q221 62 255 50 Q289 38 328 38 Q367 38 402 50.5 Q437 63 465.5 87 Q494 111 513.5 146 Q533 181 541 227 L616 660 L668 660 L592 223 Z M599 887 Q589 822 547 783.5 Q505 745 445 745 Q415 745 390.5 755 Q366 765 348.5 782 Q331 799 321.5 822.5 Q312 846 312 872 L312 883 Q312 886 313 887 L357 887 L357 881 Q357 836 382.5 811 Q408 786 448 786 Q488 786 517 812 Q546 838 554 887 L599 887 Z " />
<glyph glyph-name="Ucircumflex" unicode="&#xdb;" horiz-adv-x="682" d="M592 223 Q582 167 557.5 123.5 Q533 80 497.5 50.5 Q462 21 418 5.5 Q374 -10 325 -10 Q274 -10 230.5 6 Q187 22 155.5 51.5 Q124 81 106.5 122 Q89 163 89 213 Q89 227 90.5 242 Q92 257 94 273 L162 660 L214 660 L145 270 Q143 256 142 242.5 Q141 229 141 218 Q141 176 155.5 142.5 Q170 109 195.5 85.5 Q221 62 255 50 Q289 38 328 38 Q367 38 402 50.5 Q437 63 465.5 87 Q494 111 513.5 146 Q533 181 541 227 L616 660 L668 660 L592 223 Z M586 724 L548 724 L451 853 L310 724 L264 724 L443 910 L473 910 L586 724 Z " />
<glyph glyph-name="Udieresis" unicode="&#xdc;" horiz-adv-x="682" d="M592 223 Q582 167 557.5 123.5 Q533 80 497.5 50.5 Q462 21 418 5.5 Q374 -10 325 -10 Q274 -10 230.5 6 Q187 22 155.5 51.5 Q124 81 106.5 122 Q89 163 89 213 Q89 227 90.5 242 Q92 257 94 273 L162 660 L214 660 L145 270 Q143 256 142 242.5 Q141 229 141 218 Q141 176 155.5 142.5 Q170 109 195.5 85.5 Q221 62 255 50 Q289 38 328 38 Q367 38 402 50.5 Q437 63 465.5 87 Q494 111 513.5 146 Q533 181 541 227 L616 660 L668 660 L592 223 Z M553 850 Q571 850 583.5 837.5 Q596 825 596 807 Q596 790 583.5 777.5 Q571 765 553 765 Q536 765 523 777.5 Q510 790 510 807 Q510 825 523 837.5 Q536 850 553 850 Z M327 850 Q345 850 357.5 838 Q370 826 370 808 Q370 790 357.5 777.5 Q345 765 327 765 Q310 765 297 777.5 Q284 790 284 808 Q284 826 297 838 Q310 850 327 850 Z " />
<glyph glyph-name="Ugrave" unicode="&#xd9;" horiz-adv-x="682" d="M592 223 Q582 167 557.5 123.5 Q533 80 497.5 50.5 Q462 21 418 5.5 Q374 -10 325 -10 Q274 -10 230.5 6 Q187 22 155.5 51.5 Q124 81 106.5 122 Q89 163 89 213 Q89 227 90.5 242 Q92 257 94 273 L162 660 L214 660 L145 270 Q143 256 142 242.5 Q141 229 141 218 Q141 176 155.5 142.5 Q170 109 195.5 85.5 Q221 62 255 50 Q289 38 328 38 Q367 38 402 50.5 Q437 63 465.5 87 Q494 111 513.5 146 Q533 181 541 227 L616 660 L668 660 L592 223 Z M448 724 L409 724 L330 901 L331 910 L389 910 L448 724 Z " />
<glyph glyph-name="Uhungarumlaut" unicode="&#x170;" horiz-adv-x="682" d="M592 223 Q582 167 557.5 123.5 Q533 80 497.5 50.5 Q462 21 418 5.5 Q374 -10 325 -10 Q274 -10 230.5 6 Q187 22 155.5 51.5 Q124 81 106.5 122 Q89 163 89 213 Q89 227 90.5 242 Q92 257 94 273 L162 660 L214 660 L145 270 Q143 256 142 242.5 Q141 229 141 218 Q141 176 155.5 142.5 Q170 109 195.5 85.5 Q221 62 255 50 Q289 38 328 38 Q367 38 402 50.5 Q437 63 465.5 87 Q494 111 513.5 146 Q533 181 541 227 L616 660 L668 660 L592 223 Z M664 901 L523 724 L481 724 L605 910 L666 910 L664 901 Z M498 901 L357 724 L315 724 L439 910 L500 910 L498 901 Z " />
<glyph glyph-name="Umacron" unicode="&#x16a;" horiz-adv-x="682" d="M592 223 Q582 167 557.5 123.5 Q533 80 497.5 50.5 Q462 21 418 5.5 Q374 -10 325 -10 Q274 -10 230.5 6 Q187 22 155.5 51.5 Q124 81 106.5 122 Q89 163 89 213 Q89 227 90.5 242 Q92 257 94 273 L162 660 L214 660 L145 270 Q143 256 142 242.5 Q141 229 141 218 Q141 176 155.5 142.5 Q170 109 195.5 85.5 Q221 62 255 50 Q289 38 328 38 Q367 38 402 50.5 Q437 63 465.5 87 Q494 111 513.5 146 Q533 181 541 227 L616 660 L668 660 L592 223 Z M577 777 L295 777 L303 820 L585 820 L577 777 Z " />
<glyph glyph-name="Uogonek" unicode="&#x172;" horiz-adv-x="683" d="M592 223 Q584 178 570 146 Q556 114 536.5 89.5 Q517 65 492 45 Q467 25 436 4 Q379 -35 351.5 -58 Q324 -81 324 -107 Q324 -148 390 -148 Q410 -148 434 -145 L427 -185 Q399 -190 372 -190 Q328 -190 300 -171.5 Q272 -153 272 -115 Q272 -86 292 -61.5 Q312 -37 359 -8 Q350 -9 341.5 -9.5 Q333 -10 324 -10 Q273 -10 230 6.5 Q187 23 155.5 52 Q124 81 106.5 122 Q89 163 89 213 Q89 227 90.5 242 Q92 257 94 273 L162 660 L214 660 L145 270 Q143 256 142 242.5 Q141 229 141 218 Q141 176 155.5 142.5 Q170 109 195.5 85.5 Q221 62 255 50 Q289 38 328 38 Q367 38 402 50.5 Q437 63 465.5 87 Q494 111 513.5 146 Q533 181 541 227 L616 660 L668 660 L592 223 Z " />
<glyph glyph-name="Uring" unicode="&#x16e;" horiz-adv-x="682" d="M592 223 Q582 167 557.5 123.5 Q533 80 497.5 50.5 Q462 21 418 5.5 Q374 -10 325 -10 Q274 -10 230.5 6 Q187 22 155.5 51.5 Q124 81 106.5 122 Q89 163 89 213 Q89 227 90.5 242 Q92 257 94 273 L162 660 L214 660 L145 270 Q143 256 142 242.5 Q141 229 141 218 Q141 176 155.5 142.5 Q170 109 195.5 85.5 Q221 62 255 50 Q289 38 328 38 Q367 38 402 50.5 Q437 63 465.5 87 Q494 111 513.5 146 Q533 181 541 227 L616 660 L668 660 L592 223 Z M450 912 Q471 912 489 904.5 Q507 897 520.5 884 Q534 871 541.5 853.5 Q549 836 549 815 Q549 793 540 773.5 Q531 754 516 739.5 Q501 725 481 716.5 Q461 708 439 708 Q418 708 400 715.5 Q382 723 368.5 736 Q355 749 347.5 767 Q340 785 340 806 Q340 828 348.5 847.5 Q357 867 372 881 Q387 895 407 903.5 Q427 912 450 912 Z M447 871 Q421 871 402.5 852.5 Q384 834 384 808 Q384 783 400 766 Q416 749 441 749 Q467 749 486 767.5 Q505 786 505 813 Q505 837 489 854 Q473 871 447 871 Z " />
<glyph glyph-name="Utilde" unicode="&#x168;" horiz-adv-x="682" d="M592 223 Q582 167 557.5 123.5 Q533 80 497.5 50.5 Q462 21 418 5.5 Q374 -10 325 -10 Q274 -10 230.5 6 Q187 22 155.5 51.5 Q124 81 106.5 122 Q89 163 89 213 Q89 227 90.5 242 Q92 257 94 273 L162 660 L214 660 L145 270 Q143 256 142 242.5 Q141 229 141 218 Q141 176 155.5 142.5 Q170 109 195.5 85.5 Q221 62 255 50 Q289 38 328 38 Q367 38 402 50.5 Q437 63 465.5 87 Q494 111 513.5 146 Q533 181 541 227 L616 660 L668 660 L592 223 Z M367 867 Q391 867 406.5 858 Q422 849 436 839 L466 815 Q477 806 487.5 800.5 Q498 795 510 795 Q530 795 538.5 811 Q547 827 551 857 L594 857 Q589 808 570 778.5 Q551 749 510 749 Q487 749 472 757.5 Q457 766 443 777 L411 800 Q400 809 390 814.5 Q380 820 369 820 Q349 820 340 804 Q331 788 327 759 L284 759 Q289 807 306.5 837 Q324 867 367 867 Z " />
<glyph glyph-name="V" unicode="V" horiz-adv-x="664" d="M294 -10 L274 -10 L109 660 L162 660 L299 90 L635 660 L695 660 L294 -10 Z " />
<glyph glyph-name="W" unicode="W" horiz-adv-x="1068" d="M611 670 L728 100 L1027 660 L1085 660 L723 -10 L702 -10 L584 562 L262 -10 L242 -10 L114 660 L167 660 L270 99 L590 670 L611 670 Z " />
<glyph glyph-name="Wacute" unicode="&#x1e82;" horiz-adv-x="1068" d="M611 670 L728 100 L1027 660 L1085 660 L723 -10 L702 -10 L584 562 L262 -10 L242 -10 L114 660 L167 660 L270 99 L590 670 L611 670 Z M786 901 L644 724 L602 724 L722 910 L788 910 L786 901 Z " />
<glyph glyph-name="Wcircumflex" unicode="&#x174;" horiz-adv-x="1068" d="M611 670 L728 100 L1027 660 L1085 660 L723 -10 L702 -10 L584 562 L262 -10 L242 -10 L114 660 L167 660 L270 99 L590 670 L611 670 Z M784 724 L746 724 L649 853 L508 724 L462 724 L641 910 L671 910 L784 724 Z " />
<glyph glyph-name="Wdieresis" unicode="&#x1e84;" horiz-adv-x="1068" d="M611 670 L728 100 L1027 660 L1085 660 L723 -10 L702 -10 L584 562 L262 -10 L242 -10 L114 660 L167 660 L270 99 L590 670 L611 670 Z M751 850 Q769 850 781.5 837.5 Q794 825 794 807 Q794 790 781.5 777.5 Q769 765 751 765 Q734 765 721 777.5 Q708 790 708 807 Q708 825 721 837.5 Q734 850 751 850 Z M525 850 Q543 850 555.5 838 Q568 826 568 808 Q568 790 555.5 777.5 Q543 765 525 765 Q508 765 495 777.5 Q482 790 482 808 Q482 826 495 838 Q508 850 525 850 Z " />
<glyph glyph-name="Wgrave" unicode="&#x1e80;" horiz-adv-x="1068" d="M611 670 L728 100 L1027 660 L1085 660 L723 -10 L702 -10 L584 562 L262 -10 L242 -10 L114 660 L167 660 L270 99 L590 670 L611 670 Z M646 724 L607 724 L528 901 L529 910 L587 910 L646 724 Z " />
<glyph glyph-name="X" unicode="X" horiz-adv-x="584" d="M316 378 L544 660 L608 660 L341 333 L508 0 L452 0 L304 296 L56 0 L-8 0 L280 342 L124 660 L180 660 L316 378 Z " />
<glyph glyph-name="Y" unicode="Y" horiz-adv-x="613" d="M334 279 L285 0 L233 0 L282 281 L119 660 L172 660 L313 328 L569 660 L630 660 L334 279 Z " />
<glyph glyph-name="Yacute" unicode="&#xdd;" horiz-adv-x="613" d="M334 279 L285 0 L233 0 L282 281 L119 660 L172 660 L313 328 L569 660 L630 660 L334 279 Z M547 901 L405 724 L363 724 L483 910 L549 910 L547 901 Z " />
<glyph glyph-name="Ycircumflex" unicode="&#x176;" horiz-adv-x="613" d="M334 279 L285 0 L233 0 L282 281 L119 660 L172 660 L313 328 L569 660 L630 660 L334 279 Z M545 724 L507 724 L410 853 L269 724 L223 724 L402 910 L432 910 L545 724 Z " />
<glyph glyph-name="Ydieresis" unicode="&#x178;" horiz-adv-x="613" d="M334 279 L285 0 L233 0 L282 281 L119 660 L172 660 L313 328 L569 660 L630 660 L334 279 Z M512 850 Q530 850 542.5 837.5 Q555 825 555 807 Q555 790 542.5 777.5 Q530 765 512 765 Q495 765 482 777.5 Q469 790 469 807 Q469 825 482 837.5 Q495 850 512 850 Z M286 850 Q304 850 316.5 838 Q329 826 329 808 Q329 790 316.5 777.5 Q304 765 286 765 Q269 765 256 777.5 Q243 790 243 808 Q243 826 256 838 Q269 850 286 850 Z " />
<glyph glyph-name="Ygrave" unicode="&#x1ef2;" horiz-adv-x="613" d="M334 279 L285 0 L233 0 L282 281 L119 660 L172 660 L313 328 L569 660 L630 660 L334 279 Z M407 724 L368 724 L289 901 L290 910 L348 910 L407 724 Z " />
<glyph glyph-name="Z" unicode="Z" horiz-adv-x="590" d="M622 643 L86 46 L518 46 L511 0 L-4 0 L-1 17 L534 614 L148 614 L156 660 L625 660 L622 643 Z " />
<glyph glyph-name="Zacute" unicode="&#x179;" horiz-adv-x="590" d="M622 643 L86 46 L518 46 L511 0 L-4 0 L-1 17 L534 614 L148 614 L156 660 L625 660 L622 643 Z M545 901 L403 724 L361 724 L481 910 L547 910 L545 901 Z " />
<glyph glyph-name="Zcaron" unicode="&#x17d;" horiz-adv-x="590" d="M622 643 L86 46 L518 46 L511 0 L-4 0 L-1 17 L534 614 L148 614 L156 660 L625 660 L622 643 Z M397 724 L367 724 L254 910 L293 910 L388 780 L530 910 L576 910 L397 724 Z " />
<glyph glyph-name="Zdotaccent" unicode="&#x17b;" horiz-adv-x="590" d="M622 643 L86 46 L518 46 L511 0 L-4 0 L-1 17 L534 614 L148 614 L156 660 L625 660 L622 643 Z M398 851 Q417 851 429.5 838.5 Q442 826 442 808 Q442 789 429.5 776.5 Q417 764 398 764 Q380 764 367 776.5 Q354 789 354 808 Q354 826 367 838.5 Q380 851 398 851 Z " />
<glyph glyph-name="uni021A" unicode="&#x21a;" horiz-adv-x="585" d="M626 614 L385 614 L277 0 L225 0 L333 614 L91 614 L99 660 L635 660 L626 614 Z M214 -220 L173 -220 L215 -51 L268 -51 L214 -220 Z " />
<glyph glyph-name="a" unicode="a" horiz-adv-x="630" d="M313 484 Q352 484 383.5 474.5 Q415 465 439.5 449.5 Q464 434 481.5 413 Q499 392 509 370 L528 474 L578 474 L495 0 L447 0 L461 81 Q429 36 377.5 13 Q326 -10 272 -10 Q223 -10 182.5 8 Q142 26 113.5 57 Q85 88 69 129.5 Q53 171 53 218 Q53 266 70.5 313.5 Q88 361 121 399 Q154 437 202.5 460.5 Q251 484 313 484 Z M315 438 Q270 438 231.5 420 Q193 402 165 372 Q137 342 121.5 302.5 Q106 263 106 221 Q106 185 118 151.5 Q130 118 153 92.5 Q176 67 209 51.5 Q242 36 285 36 Q337 36 376 58 Q415 80 440.5 114 Q466 148 478.5 189 Q491 230 491 267 Q491 308 476.5 340 Q462 372 438 393.5 Q414 415 382 426.5 Q350 438 315 438 Z " />
<glyph glyph-name="aacute" unicode="&#xe1;" horiz-adv-x="630" d="M313 484 Q352 484 383.5 474.5 Q415 465 439.5 449.5 Q464 434 481.5 413 Q499 392 509 370 L528 474 L578 474 L495 0 L447 0 L461 81 Q429 36 377.5 13 Q326 -10 272 -10 Q223 -10 182.5 8 Q142 26 113.5 57 Q85 88 69 129.5 Q53 171 53 218 Q53 266 70.5 313.5 Q88 361 121 399 Q154 437 202.5 460.5 Q251 484 313 484 Z M315 438 Q270 438 231.5 420 Q193 402 165 372 Q137 342 121.5 302.5 Q106 263 106 221 Q106 185 118 151.5 Q130 118 153 92.5 Q176 67 209 51.5 Q242 36 285 36 Q337 36 376 58 Q415 80 440.5 114 Q466 148 478.5 189 Q491 230 491 267 Q491 308 476.5 340 Q462 372 438 393.5 Q414 415 382 426.5 Q350 438 315 438 Z M541 771 L391 564 L347 564 L476 780 L541 780 L541 771 Z " />
<glyph glyph-name="abreve" unicode="&#x103;" horiz-adv-x="630" d="M313 484 Q352 484 383.5 474.5 Q415 465 439.5 449.5 Q464 434 481.5 413 Q499 392 509 370 L528 474 L578 474 L495 0 L447 0 L461 81 Q429 36 377.5 13 Q326 -10 272 -10 Q223 -10 182.5 8 Q142 26 113.5 57 Q85 88 69 129.5 Q53 171 53 218 Q53 266 70.5 313.5 Q88 361 121 399 Q154 437 202.5 460.5 Q251 484 313 484 Z M315 438 Q270 438 231.5 420 Q193 402 165 372 Q137 342 121.5 302.5 Q106 263 106 221 Q106 185 118 151.5 Q130 118 153 92.5 Q176 67 209 51.5 Q242 36 285 36 Q337 36 376 58 Q415 80 440.5 114 Q466 148 478.5 189 Q491 230 491 267 Q491 308 476.5 340 Q462 372 438 393.5 Q414 415 382 426.5 Q350 438 315 438 Z M539 729 Q529 663 487.5 624.5 Q446 586 386 586 Q356 586 331.5 596 Q307 606 289.5 623.5 Q272 641 262.5 664 Q253 687 253 714 Q253 721 253.5 724.5 Q254 728 254 729 L298 729 L298 723 Q298 678 323.5 653 Q349 628 389 628 Q429 628 457.5 653.5 Q486 679 494 729 L539 729 Z " />
<glyph glyph-name="acircumflex" unicode="&#xe2;" horiz-adv-x="630" d="M313 484 Q352 484 383.5 474.5 Q415 465 439.5 449.5 Q464 434 481.5 413 Q499 392 509 370 L528 474 L578 474 L495 0 L447 0 L461 81 Q429 36 377.5 13 Q326 -10 272 -10 Q223 -10 182.5 8 Q142 26 113.5 57 Q85 88 69 129.5 Q53 171 53 218 Q53 266 70.5 313.5 Q88 361 121 399 Q154 437 202.5 460.5 Q251 484 313 484 Z M315 438 Q270 438 231.5 420 Q193 402 165 372 Q137 342 121.5 302.5 Q106 263 106 221 Q106 185 118 151.5 Q130 118 153 92.5 Q176 67 209 51.5 Q242 36 285 36 Q337 36 376 58 Q415 80 440.5 114 Q466 148 478.5 189 Q491 230 491 267 Q491 308 476.5 340 Q462 372 438 393.5 Q414 415 382 426.5 Q350 438 315 438 Z M517 564 L478 564 L396 717 L260 564 L216 564 L390 780 L419 780 L517 564 Z " />
<glyph glyph-name="adieresis" unicode="&#xe4;" horiz-adv-x="630" d="M313 484 Q352 484 383.5 474.5 Q415 465 439.5 449.5 Q464 434 481.5 413 Q499 392 509 370 L528 474 L578 474 L495 0 L447 0 L461 81 Q429 36 377.5 13 Q326 -10 272 -10 Q223 -10 182.5 8 Q142 26 113.5 57 Q85 88 69 129.5 Q53 171 53 218 Q53 266 70.5 313.5 Q88 361 121 399 Q154 437 202.5 460.5 Q251 484 313 484 Z M315 438 Q270 438 231.5 420 Q193 402 165 372 Q137 342 121.5 302.5 Q106 263 106 221 Q106 185 118 151.5 Q130 118 153 92.5 Q176 67 209 51.5 Q242 36 285 36 Q337 36 376 58 Q415 80 440.5 114 Q466 148 478.5 189 Q491 230 491 267 Q491 308 476.5 340 Q462 372 438 393.5 Q414 415 382 426.5 Q350 438 315 438 Z M496 711 Q514 711 526.5 699 Q539 687 539 669 Q539 651 526.5 639 Q514 627 496 627 Q479 627 466 639 Q453 651 453 669 Q453 687 466 699 Q479 711 496 711 Z M285 711 Q303 711 315.5 699 Q328 687 328 669 Q328 651 315.5 639 Q303 627 285 627 Q268 627 255 639 Q242 651 242 669 Q242 687 255 699 Q268 711 285 711 Z " />
<glyph glyph-name="agrave" unicode="&#xe0;" horiz-adv-x="630" d="M313 484 Q352 484 383.5 474.5 Q415 465 439.5 449.5 Q464 434 481.5 413 Q499 392 509 370 L528 474 L578 474 L495 0 L447 0 L461 81 Q429 36 377.5 13 Q326 -10 272 -10 Q223 -10 182.5 8 Q142 26 113.5 57 Q85 88 69 129.5 Q53 171 53 218 Q53 266 70.5 313.5 Q88 361 121 399 Q154 437 202.5 460.5 Q251 484 313 484 Z M315 438 Q270 438 231.5 420 Q193 402 165 372 Q137 342 121.5 302.5 Q106 263 106 221 Q106 185 118 151.5 Q130 118 153 92.5 Q176 67 209 51.5 Q242 36 285 36 Q337 36 376 58 Q415 80 440.5 114 Q466 148 478.5 189 Q491 230 491 267 Q491 308 476.5 340 Q462 372 438 393.5 Q414 415 382 426.5 Q350 438 315 438 Z M362 564 L325 564 L284 771 L287 780 L343 780 L362 564 Z " />
<glyph glyph-name="amacron" unicode="&#x101;" horiz-adv-x="630" d="M313 484 Q352 484 383.5 474.5 Q415 465 439.5 449.5 Q464 434 481.5 413 Q499 392 509 370 L528 474 L578 474 L495 0 L447 0 L461 81 Q429 36 377.5 13 Q326 -10 272 -10 Q223 -10 182.5 8 Q142 26 113.5 57 Q85 88 69 129.5 Q53 171 53 218 Q53 266 70.5 313.5 Q88 361 121 399 Q154 437 202.5 460.5 Q251 484 313 484 Z M315 438 Q270 438 231.5 420 Q193 402 165 372 Q137 342 121.5 302.5 Q106 263 106 221 Q106 185 118 151.5 Q130 118 153 92.5 Q176 67 209 51.5 Q242 36 285 36 Q337 36 376 58 Q415 80 440.5 114 Q466 148 478.5 189 Q491 230 491 267 Q491 308 476.5 340 Q462 372 438 393.5 Q414 415 382 426.5 Q350 438 315 438 Z M513 648 L251 648 L259 691 L521 691 L513 648 Z " />
<glyph glyph-name="aogonek" unicode="&#x105;" horiz-adv-x="630" d="M313 484 Q352 484 383.5 474.5 Q415 465 439.5 449.5 Q464 434 481.5 413 Q499 392 509 370 L528 474 L578 474 L495 0 L447 0 L461 81 Q429 36 377.5 13 Q326 -10 272 -10 Q223 -10 182.5 8 Q142 26 113.5 57 Q85 88 69 129.5 Q53 171 53 218 Q53 266 70.5 313.5 Q88 361 121 399 Q154 437 202.5 460.5 Q251 484 313 484 Z M315 438 Q270 438 231.5 420 Q193 402 165 372 Q137 342 121.5 302.5 Q106 263 106 221 Q106 185 118 151.5 Q130 118 153 92.5 Q176 67 209 51.5 Q242 36 285 36 Q337 36 376 58 Q415 80 440.5 114 Q466 148 478.5 189 Q491 230 491 267 Q491 308 476.5 340 Q462 372 438 393.5 Q414 415 382 426.5 Q350 438 315 438 Z M495 0 L425 -38 Q394 -55 377.5 -70.5 Q361 -86 361 -108 Q361 -148 425 -148 Q444 -148 470 -145 L463 -185 Q435 -190 408 -190 Q365 -190 336.5 -171.5 Q308 -153 308 -115 Q308 -96 317 -78.5 Q326 -61 346.5 -44.5 Q367 -28 400 -10.5 Q433 7 481 27 L495 0 Z " />
<glyph glyph-name="aring" unicode="&#xe5;" horiz-adv-x="630" d="M313 484 Q352 484 383.5 474.5 Q415 465 439.5 449.5 Q464 434 481.5 413 Q499 392 509 370 L528 474 L578 474 L495 0 L447 0 L461 81 Q429 36 377.5 13 Q326 -10 272 -10 Q223 -10 182.5 8 Q142 26 113.5 57 Q85 88 69 129.5 Q53 171 53 218 Q53 266 70.5 313.5 Q88 361 121 399 Q154 437 202.5 460.5 Q251 484 313 484 Z M315 438 Q270 438 231.5 420 Q193 402 165 372 Q137 342 121.5 302.5 Q106 263 106 221 Q106 185 118 151.5 Q130 118 153 92.5 Q176 67 209 51.5 Q242 36 285 36 Q337 36 376 58 Q415 80 440.5 114 Q466 148 478.5 189 Q491 230 491 267 Q491 308 476.5 340 Q462 372 438 393.5 Q414 415 382 426.5 Q350 438 315 438 Z M393 769 Q414 769 432 761.5 Q450 754 463.5 741 Q477 728 484.5 710.5 Q492 693 492 672 Q492 649 483 629.5 Q474 610 459 596 Q444 582 424.5 573.5 Q405 565 383 565 Q341 565 312.5 592.5 Q284 620 284 662 Q284 684 292.5 703.5 Q301 723 316 737.5 Q331 752 351 760.5 Q371 769 393 769 Z M391 728 Q365 728 346.5 709.5 Q328 691 328 664 Q328 639 344 622.5 Q360 606 385 606 Q411 606 429.5 624.5 Q448 643 448 670 Q448 695 432.5 711.5 Q417 728 391 728 Z " />
<glyph glyph-name="atilde" unicode="&#xe3;" horiz-adv-x="630" d="M313 484 Q352 484 383.5 474.5 Q415 465 439.5 449.5 Q464 434 481.5 413 Q499 392 509 370 L528 474 L578 474 L495 0 L447 0 L461 81 Q429 36 377.5 13 Q326 -10 272 -10 Q223 -10 182.5 8 Q142 26 113.5 57 Q85 88 69 129.5 Q53 171 53 218 Q53 266 70.5 313.5 Q88 361 121 399 Q154 437 202.5 460.5 Q251 484 313 484 Z M315 438 Q270 438 231.5 420 Q193 402 165 372 Q137 342 121.5 302.5 Q106 263 106 221 Q106 185 118 151.5 Q130 118 153 92.5 Q176 67 209 51.5 Q242 36 285 36 Q337 36 376 58 Q415 80 440.5 114 Q466 148 478.5 189 Q491 230 491 267 Q491 308 476.5 340 Q462 372 438 393.5 Q414 415 382 426.5 Q350 438 315 438 Z M319 729 Q341 729 356 720.5 Q371 712 383 698 L405 673 Q415 662 424 655.5 Q433 649 444 649 Q464 649 473 666 Q482 683 486 715 L530 715 Q525 668 506.5 635.5 Q488 603 447 603 Q425 603 409.5 612 Q394 621 382 635 L361 659 Q350 670 341.5 676.5 Q333 683 321 683 Q301 683 292.5 666 Q284 649 279 617 L236 617 Q241 664 259 696.5 Q277 729 319 729 Z " />
<glyph glyph-name="ae" unicode="&#xe6;" horiz-adv-x="898" d="M279 484 Q339 484 382.5 456.5 Q426 429 440 375 Q475 424 529 453.5 Q583 483 646 483 Q688 483 724.5 469 Q761 455 789 429.5 Q817 404 833 368 Q849 332 849 287 Q849 267 846 248.5 Q843 230 839 216 L440 216 Q441 176 455 143 Q469 110 493 86 Q517 62 550.5 49 Q584 36 625 36 Q674 36 714 54.5 Q754 73 786 104 L814 71 Q777 33 727.5 11.5 Q678 -10 621 -10 Q546 -10 490.5 26.5 Q435 63 409 125 Q384 61 326.5 25.5 Q269 -10 193 -10 Q160 -10 130.5 -2.5 Q101 5 78.5 20.5 Q56 36 42.5 60 Q29 84 29 118 Q29 145 39 170.5 Q49 196 72 216 Q95 236 132 248 Q169 260 222 260 L390 260 L394 282 Q396 294 397 304.5 Q398 315 398 323 Q398 380 362.5 408.5 Q327 437 273 437 Q225 437 191 418 Q157 399 125 370 L99 406 Q139 444 183 464 Q227 484 279 484 Z M642 437 Q603 437 569.5 423.5 Q536 410 509.5 386.5 Q483 363 465.5 330.5 Q448 298 442 260 L795 260 Q796 267 796.5 274.5 Q797 282 797 290 Q797 324 785 351.5 Q773 379 752.5 398 Q732 417 703.5 427 Q675 437 642 437 Z M197 33 Q230 33 260 43 Q290 53 314 72 Q338 91 354 117 Q370 143 375 176 L382 216 L220 216 Q144 216 113 190 Q82 164 82 123 Q82 97 92 80 Q102 63 118.5 52.5 Q135 42 155.5 37.5 Q176 33 197 33 Z " />
<glyph glyph-name="aeacute" unicode="&#x1fd;" horiz-adv-x="898" d="M279 484 Q339 484 382.5 456.5 Q426 429 440 375 Q475 424 529 453.5 Q583 483 646 483 Q688 483 724.5 469 Q761 455 789 429.5 Q817 404 833 368 Q849 332 849 287 Q849 267 846 248.5 Q843 230 839 216 L440 216 Q441 176 455 143 Q469 110 493 86 Q517 62 550.5 49 Q584 36 625 36 Q674 36 714 54.5 Q754 73 786 104 L814 71 Q777 33 727.5 11.5 Q678 -10 621 -10 Q546 -10 490.5 26.5 Q435 63 409 125 Q384 61 326.5 25.5 Q269 -10 193 -10 Q160 -10 130.5 -2.5 Q101 5 78.5 20.5 Q56 36 42.5 60 Q29 84 29 118 Q29 145 39 170.5 Q49 196 72 216 Q95 236 132 248 Q169 260 222 260 L390 260 L394 282 Q396 294 397 304.5 Q398 315 398 323 Q398 380 362.5 408.5 Q327 437 273 437 Q225 437 191 418 Q157 399 125 370 L99 406 Q139 444 183 464 Q227 484 279 484 Z M642 437 Q603 437 569.5 423.5 Q536 410 509.5 386.5 Q483 363 465.5 330.5 Q448 298 442 260 L795 260 Q796 267 796.5 274.5 Q797 282 797 290 Q797 324 785 351.5 Q773 379 752.5 398 Q732 417 703.5 427 Q675 437 642 437 Z M197 33 Q230 33 260 43 Q290 53 314 72 Q338 91 354 117 Q370 143 375 176 L382 216 L220 216 Q144 216 113 190 Q82 164 82 123 Q82 97 92 80 Q102 63 118.5 52.5 Q135 42 155.5 37.5 Q176 33 197 33 Z M653 771 L503 564 L459 564 L588 780 L653 780 L653 771 Z " />
<glyph glyph-name="b" unicode="b" horiz-adv-x="632" d="M171 394 Q205 439 256 461.5 Q307 484 359 484 Q407 484 447.5 466 Q488 448 516.5 416.5 Q545 385 561 343.5 Q577 302 577 256 Q577 208 560 160 Q543 112 510 74.5 Q477 37 429 13.5 Q381 -10 320 -10 Q281 -10 248.5 -0.5 Q216 9 191 25.5 Q166 42 148.5 63 Q131 84 121 107 L102 0 L52 0 L183 750 L233 750 L171 394 Z M345 438 Q293 438 254 415.5 Q215 393 189.5 359 Q164 325 151.5 284.5 Q139 244 139 208 Q139 167 153.5 135.5 Q168 104 192.5 81.5 Q217 59 249 47.5 Q281 36 317 36 Q362 36 400 53.5 Q438 71 465.5 101 Q493 131 509 170 Q525 209 525 252 Q525 289 513 323 Q501 357 477.5 382.5 Q454 408 420.5 423 Q387 438 345 438 Z " />
<glyph glyph-name="c" unicode="c" horiz-adv-x="557" d="M319 484 Q385 484 436.5 455 Q488 426 518 378 L478 352 Q452 392 411.5 415 Q371 438 319 438 Q276 438 237.5 421.5 Q199 405 169.5 376.5 Q140 348 123 309 Q106 270 106 225 Q106 185 119.5 150.5 Q133 116 158 90.5 Q183 65 217 50.5 Q251 36 292 36 Q342 36 382.5 56.5 Q423 77 452 109 L485 79 Q448 36 399 13 Q350 -10 291 -10 Q241 -10 197.5 7.5 Q154 25 122 55.5 Q90 86 72 128.5 Q54 171 54 222 Q54 277 75.5 325 Q97 373 133 408 Q169 443 217 463.5 Q265 484 319 484 Z " />
<glyph glyph-name="cacute" unicode="&#x107;" horiz-adv-x="557" d="M319 484 Q385 484 436.5 455 Q488 426 518 378 L478 352 Q452 392 411.5 415 Q371 438 319 438 Q276 438 237.5 421.5 Q199 405 169.5 376.5 Q140 348 123 309 Q106 270 106 225 Q106 185 119.5 150.5 Q133 116 158 90.5 Q183 65 217 50.5 Q251 36 292 36 Q342 36 382.5 56.5 Q423 77 452 109 L485 79 Q448 36 399 13 Q350 -10 291 -10 Q241 -10 197.5 7.5 Q154 25 122 55.5 Q90 86 72 128.5 Q54 171 54 222 Q54 277 75.5 325 Q97 373 133 408 Q169 443 217 463.5 Q265 484 319 484 Z M531 771 L381 564 L337 564 L466 780 L531 780 L531 771 Z " />
<glyph glyph-name="ccaron" unicode="&#x10d;" horiz-adv-x="557" d="M319 484 Q385 484 436.5 455 Q488 426 518 378 L478 352 Q452 392 411.5 415 Q371 438 319 438 Q276 438 237.5 421.5 Q199 405 169.5 376.5 Q140 348 123 309 Q106 270 106 225 Q106 185 119.5 150.5 Q133 116 158 90.5 Q183 65 217 50.5 Q251 36 292 36 Q342 36 382.5 56.5 Q423 77 452 109 L485 79 Q448 36 399 13 Q350 -10 291 -10 Q241 -10 197.5 7.5 Q154 25 122 55.5 Q90 86 72 128.5 Q54 171 54 222 Q54 277 75.5 325 Q97 373 133 408 Q169 443 217 463.5 Q265 484 319 484 Z M371 564 L342 564 L244 780 L282 780 L365 628 L501 780 L545 780 L371 564 Z " />
<glyph glyph-name="ccedilla" unicode="&#xe7;" horiz-adv-x="557" d="M319 484 Q385 484 436.5 455 Q488 426 518 378 L478 352 Q452 392 411.5 415 Q371 438 319 438 Q276 438 237.5 421.5 Q199 405 169.5 376.5 Q140 348 123 309 Q106 270 106 225 Q106 185 119.5 150.5 Q133 116 158 90.5 Q183 65 217 50.5 Q251 36 292 36 Q342 36 382.5 56.5 Q423 77 452 109 L485 79 Q448 36 399 13 Q350 -10 291 -10 Q241 -10 197.5 7.5 Q154 25 122 55.5 Q90 86 72 128.5 Q54 171 54 222 Q54 277 75.5 325 Q97 373 133 408 Q169 443 217 463.5 Q265 484 319 484 Z M260 15 Q285 1 300.5 -22 Q316 -45 316 -75 Q316 -97 307.5 -117.5 Q299 -138 282.5 -154 Q266 -170 242.5 -180 Q219 -190 189 -190 Q151 -190 112 -176 L119 -138 Q138 -143 154 -145.5 Q170 -148 184 -148 Q219 -148 244 -129 Q269 -110 270 -68 Q271 -45 262.5 -29.5 Q254 -14 238 3 L260 15 Z " />
<glyph glyph-name="ccircumflex" unicode="&#x109;" horiz-adv-x="557" d="M319 484 Q385 484 436.5 455 Q488 426 518 378 L478 352 Q452 392 411.5 415 Q371 438 319 438 Q276 438 237.5 421.5 Q199 405 169.5 376.5 Q140 348 123 309 Q106 270 106 225 Q106 185 119.5 150.5 Q133 116 158 90.5 Q183 65 217 50.5 Q251 36 292 36 Q342 36 382.5 56.5 Q423 77 452 109 L485 79 Q448 36 399 13 Q350 -10 291 -10 Q241 -10 197.5 7.5 Q154 25 122 55.5 Q90 86 72 128.5 Q54 171 54 222 Q54 277 75.5 325 Q97 373 133 408 Q169 443 217 463.5 Q265 484 319 484 Z M507 564 L468 564 L386 717 L250 564 L206 564 L380 780 L409 780 L507 564 Z " />
<glyph glyph-name="cdotaccent" unicode="&#x10b;" horiz-adv-x="557" d="M319 484 Q385 484 436.5 455 Q488 426 518 378 L478 352 Q452 392 411.5 415 Q371 438 319 438 Q276 438 237.5 421.5 Q199 405 169.5 376.5 Q140 348 123 309 Q106 270 106 225 Q106 185 119.5 150.5 Q133 116 158 90.5 Q183 65 217 50.5 Q251 36 292 36 Q342 36 382.5 56.5 Q423 77 452 109 L485 79 Q448 36 399 13 Q350 -10 291 -10 Q241 -10 197.5 7.5 Q154 25 122 55.5 Q90 86 72 128.5 Q54 171 54 222 Q54 277 75.5 325 Q97 373 133 408 Q169 443 217 463.5 Q265 484 319 484 Z M376 713 Q395 713 407.5 700 Q420 687 420 669 Q420 651 407.5 638 Q395 625 376 625 Q358 625 345 638 Q332 651 332 669 Q332 687 345 700 Q358 713 376 713 Z " />
<glyph glyph-name="d" unicode="d" horiz-adv-x="630" d="M495 0 L447 0 L461 81 Q429 36 378.5 13 Q328 -10 272 -10 Q222 -10 182 8 Q142 26 113 56.5 Q84 87 68.5 128.5 Q53 170 53 217 Q53 265 70.5 313 Q88 361 121 399 Q154 437 202.5 460.5 Q251 484 313 484 Q352 484 383.5 475 Q415 466 439.5 450 Q464 434 481.5 413.5 Q499 393 509 370 L577 750 L627 750 L495 0 Z M315 438 Q270 438 231.5 420 Q193 402 165 371.5 Q137 341 121.5 301.5 Q106 262 106 220 Q106 183 118 150 Q130 117 152.5 91.5 Q175 66 208.5 51 Q242 36 284 36 Q337 36 376 58 Q415 80 440.5 114 Q466 148 478.5 188.5 Q491 229 491 266 Q491 307 476.5 339 Q462 371 438 393 Q414 415 382 426.5 Q350 438 315 438 Z " />
<glyph glyph-name="eth" unicode="&#xf0;" horiz-adv-x="565" d="M476 674 L322 612 L425 441 Q459 385 483 335 Q507 285 507 230 Q507 181 487.5 137.5 Q468 94 434.5 61 Q401 28 356.5 9 Q312 -10 262 -10 Q216 -10 177 6 Q138 22 110 50.5 Q82 79 66 118 Q50 157 50 202 Q50 253 69.5 296.5 Q89 340 122 372 Q155 404 198.5 422 Q242 440 290 440 Q318 440 340.5 434 Q363 428 381 418 L276 594 L112 529 L98 570 L254 631 L187 744 L228 769 L300 649 L461 713 L476 674 Z M291 394 Q253 394 218.5 379 Q184 364 158.5 338.5 Q133 313 118 278 Q103 243 103 203 Q103 167 115 136.5 Q127 106 149 83.5 Q171 61 200.5 48.5 Q230 36 266 36 Q305 36 339 51 Q373 66 399 92 Q425 118 440 152.5 Q455 187 455 227 Q455 262 442.5 292.5 Q430 323 408.5 345.5 Q387 368 357 381 Q327 394 291 394 Z " />
<glyph glyph-name="dcaron" unicode="&#x10f;" horiz-adv-x="630" d="M495 0 L447 0 L461 81 Q429 36 378.5 13 Q328 -10 272 -10 Q222 -10 182 8 Q142 26 113 56.5 Q84 87 68.5 128.5 Q53 170 53 217 Q53 265 70.5 313 Q88 361 121 399 Q154 437 202.5 460.5 Q251 484 313 484 Q352 484 383.5 475 Q415 466 439.5 450 Q464 434 481.5 413.5 Q499 393 509 370 L577 750 L627 750 L495 0 Z M315 438 Q270 438 231.5 420 Q193 402 165 371.5 Q137 341 121.5 301.5 Q106 262 106 220 Q106 183 118 150 Q130 117 152.5 91.5 Q175 66 208.5 51 Q242 36 284 36 Q337 36 376 58 Q415 80 440.5 114 Q466 148 478.5 188.5 Q491 229 491 266 Q491 307 476.5 339 Q462 371 438 393 Q414 415 382 426.5 Q350 438 315 438 Z M740 541 L701 541 L755 750 L813 750 L740 541 Z " />
<glyph glyph-name="dcroat" unicode="&#x111;" horiz-adv-x="631" d="M684 593 L599 593 L495 0 L447 0 L461 77 Q427 34 376 12 Q325 -10 271 -10 Q222 -10 181.5 8 Q141 26 112.5 56.5 Q84 87 68.5 127.5 Q53 168 53 214 Q53 263 71 310.5 Q89 358 123.5 395.5 Q158 433 207 456.5 Q256 480 318 480 Q394 480 441.5 446.5 Q489 413 509 368 L549 593 L324 593 L332 639 L557 639 L577 750 L627 750 L607 639 L692 639 L684 593 Z M318 434 Q273 434 234 416 Q195 398 166.5 367.5 Q138 337 121.5 298 Q105 259 105 217 Q105 182 117 149 Q129 116 151.5 90.5 Q174 65 207.5 50 Q241 35 284 35 Q336 35 375 57 Q414 79 439.5 113 Q465 147 477.5 187.5 Q490 228 490 265 Q490 305 476.5 336.5 Q463 368 439.5 389.5 Q416 411 384.5 422.5 Q353 434 318 434 Z " />
<glyph glyph-name="e" unicode="e" horiz-adv-x="565" d="M312 483 Q355 483 392.5 469.5 Q430 456 458 430.5 Q486 405 502 369 Q518 333 518 288 Q518 264 514 247 Q510 230 508 224 L106 224 Q106 183 119.5 148.5 Q133 114 157.5 89 Q182 64 216.5 50 Q251 36 293 36 Q342 36 382.5 54.5 Q423 73 455 104 L483 71 Q446 33 396.5 11.5 Q347 -10 290 -10 Q239 -10 195.5 7.5 Q152 25 120.5 56 Q89 87 71.5 129.5 Q54 172 54 221 Q54 275 74.5 322.5 Q95 370 130 405.5 Q165 441 212 462 Q259 483 312 483 Z M311 437 Q274 437 240.5 424.5 Q207 412 180.5 390 Q154 368 135.5 337 Q117 306 110 270 L464 270 Q465 275 465.5 279.5 Q466 284 466 290 Q466 324 454 351.5 Q442 379 421 398 Q400 417 372 427 Q344 437 311 437 Z " />
<glyph glyph-name="eacute" unicode="&#xe9;" horiz-adv-x="565" d="M312 483 Q355 483 392.5 469.5 Q430 456 458 430.5 Q486 405 502 369 Q518 333 518 288 Q518 264 514 247 Q510 230 508 224 L106 224 Q106 183 119.5 148.5 Q133 114 157.5 89 Q182 64 216.5 50 Q251 36 293 36 Q342 36 382.5 54.5 Q423 73 455 104 L483 71 Q446 33 396.5 11.5 Q347 -10 290 -10 Q239 -10 195.5 7.5 Q152 25 120.5 56 Q89 87 71.5 129.5 Q54 172 54 221 Q54 275 74.5 322.5 Q95 370 130 405.5 Q165 441 212 462 Q259 483 312 483 Z M311 437 Q274 437 240.5 424.5 Q207 412 180.5 390 Q154 368 135.5 337 Q117 306 110 270 L464 270 Q465 275 465.5 279.5 Q466 284 466 290 Q466 324 454 351.5 Q442 379 421 398 Q400 417 372 427 Q344 437 311 437 Z M515 771 L365 564 L321 564 L450 780 L515 780 L515 771 Z " />
<glyph glyph-name="ebreve" unicode="&#x115;" horiz-adv-x="565" d="M312 483 Q355 483 392.5 469.5 Q430 456 458 430.5 Q486 405 502 369 Q518 333 518 288 Q518 264 514 247 Q510 230 508 224 L106 224 Q106 183 119.5 148.5 Q133 114 157.5 89 Q182 64 216.5 50 Q251 36 293 36 Q342 36 382.5 54.5 Q423 73 455 104 L483 71 Q446 33 396.5 11.5 Q347 -10 290 -10 Q239 -10 195.5 7.5 Q152 25 120.5 56 Q89 87 71.5 129.5 Q54 172 54 221 Q54 275 74.5 322.5 Q95 370 130 405.5 Q165 441 212 462 Q259 483 312 483 Z M311 437 Q274 437 240.5 424.5 Q207 412 180.5 390 Q154 368 135.5 337 Q117 306 110 270 L464 270 Q465 275 465.5 279.5 Q466 284 466 290 Q466 324 454 351.5 Q442 379 421 398 Q400 417 372 427 Q344 437 311 437 Z M513 729 Q503 663 461.5 624.5 Q420 586 360 586 Q330 586 305.5 596 Q281 606 263.5 623.5 Q246 641 236.5 664 Q227 687 227 714 Q227 721 227.5 724.5 Q228 728 228 729 L272 729 L272 723 Q272 678 297.5 653 Q323 628 363 628 Q403 628 431.5 653.5 Q460 679 468 729 L513 729 Z " />
<glyph glyph-name="ecaron" unicode="&#x11b;" horiz-adv-x="565" d="M312 483 Q355 483 392.5 469.5 Q430 456 458 430.5 Q486 405 502 369 Q518 333 518 288 Q518 264 514 247 Q510 230 508 224 L106 224 Q106 183 119.5 148.5 Q133 114 157.5 89 Q182 64 216.5 50 Q251 36 293 36 Q342 36 382.5 54.5 Q423 73 455 104 L483 71 Q446 33 396.5 11.5 Q347 -10 290 -10 Q239 -10 195.5 7.5 Q152 25 120.5 56 Q89 87 71.5 129.5 Q54 172 54 221 Q54 275 74.5 322.5 Q95 370 130 405.5 Q165 441 212 462 Q259 483 312 483 Z M311 437 Q274 437 240.5 424.5 Q207 412 180.5 390 Q154 368 135.5 337 Q117 306 110 270 L464 270 Q465 275 465.5 279.5 Q466 284 466 290 Q466 324 454 351.5 Q442 379 421 398 Q400 417 372 427 Q344 437 311 437 Z M355 564 L326 564 L228 780 L266 780 L349 628 L485 780 L529 780 L355 564 Z " />
<glyph glyph-name="ecircumflex" unicode="&#xea;" horiz-adv-x="565" d="M312 483 Q355 483 392.5 469.5 Q430 456 458 430.5 Q486 405 502 369 Q518 333 518 288 Q518 264 514 247 Q510 230 508 224 L106 224 Q106 183 119.5 148.5 Q133 114 157.5 89 Q182 64 216.5 50 Q251 36 293 36 Q342 36 382.5 54.5 Q423 73 455 104 L483 71 Q446 33 396.5 11.5 Q347 -10 290 -10 Q239 -10 195.5 7.5 Q152 25 120.5 56 Q89 87 71.5 129.5 Q54 172 54 221 Q54 275 74.5 322.5 Q95 370 130 405.5 Q165 441 212 462 Q259 483 312 483 Z M311 437 Q274 437 240.5 424.5 Q207 412 180.5 390 Q154 368 135.5 337 Q117 306 110 270 L464 270 Q465 275 465.5 279.5 Q466 284 466 290 Q466 324 454 351.5 Q442 379 421 398 Q400 417 372 427 Q344 437 311 437 Z M491 564 L452 564 L370 717 L234 564 L190 564 L364 780 L393 780 L491 564 Z " />
<glyph glyph-name="edieresis" unicode="&#xeb;" horiz-adv-x="565" d="M312 483 Q355 483 392.5 469.5 Q430 456 458 430.5 Q486 405 502 369 Q518 333 518 288 Q518 264 514 247 Q510 230 508 224 L106 224 Q106 183 119.5 148.5 Q133 114 157.5 89 Q182 64 216.5 50 Q251 36 293 36 Q342 36 382.5 54.5 Q423 73 455 104 L483 71 Q446 33 396.5 11.5 Q347 -10 290 -10 Q239 -10 195.5 7.5 Q152 25 120.5 56 Q89 87 71.5 129.5 Q54 172 54 221 Q54 275 74.5 322.5 Q95 370 130 405.5 Q165 441 212 462 Q259 483 312 483 Z M311 437 Q274 437 240.5 424.5 Q207 412 180.5 390 Q154 368 135.5 337 Q117 306 110 270 L464 270 Q465 275 465.5 279.5 Q466 284 466 290 Q466 324 454 351.5 Q442 379 421 398 Q400 417 372 427 Q344 437 311 437 Z M470 711 Q488 711 500.5 699 Q513 687 513 669 Q513 651 500.5 639 Q488 627 470 627 Q453 627 440 639 Q427 651 427 669 Q427 687 440 699 Q453 711 470 711 Z M259 711 Q277 711 289.5 699 Q302 687 302 669 Q302 651 289.5 639 Q277 627 259 627 Q242 627 229 639 Q216 651 216 669 Q216 687 229 699 Q242 711 259 711 Z " />
<glyph glyph-name="edotaccent" unicode="&#x117;" horiz-adv-x="565" d="M312 483 Q355 483 392.5 469.5 Q430 456 458 430.5 Q486 405 502 369 Q518 333 518 288 Q518 264 514 247 Q510 230 508 224 L106 224 Q106 183 119.5 148.5 Q133 114 157.5 89 Q182 64 216.5 50 Q251 36 293 36 Q342 36 382.5 54.5 Q423 73 455 104 L483 71 Q446 33 396.5 11.5 Q347 -10 290 -10 Q239 -10 195.5 7.5 Q152 25 120.5 56 Q89 87 71.5 129.5 Q54 172 54 221 Q54 275 74.5 322.5 Q95 370 130 405.5 Q165 441 212 462 Q259 483 312 483 Z M311 437 Q274 437 240.5 424.5 Q207 412 180.5 390 Q154 368 135.5 337 Q117 306 110 270 L464 270 Q465 275 465.5 279.5 Q466 284 466 290 Q466 324 454 351.5 Q442 379 421 398 Q400 417 372 427 Q344 437 311 437 Z M360 713 Q379 713 391.5 700 Q404 687 404 669 Q404 651 391.5 638 Q379 625 360 625 Q342 625 329 638 Q316 651 316 669 Q316 687 329 700 Q342 713 360 713 Z " />
<glyph glyph-name="egrave" unicode="&#xe8;" horiz-adv-x="565" d="M312 483 Q355 483 392.5 469.5 Q430 456 458 430.5 Q486 405 502 369 Q518 333 518 288 Q518 264 514 247 Q510 230 508 224 L106 224 Q106 183 119.5 148.5 Q133 114 157.5 89 Q182 64 216.5 50 Q251 36 293 36 Q342 36 382.5 54.5 Q423 73 455 104 L483 71 Q446 33 396.5 11.5 Q347 -10 290 -10 Q239 -10 195.5 7.5 Q152 25 120.5 56 Q89 87 71.5 129.5 Q54 172 54 221 Q54 275 74.5 322.5 Q95 370 130 405.5 Q165 441 212 462 Q259 483 312 483 Z M311 437 Q274 437 240.5 424.5 Q207 412 180.5 390 Q154 368 135.5 337 Q117 306 110 270 L464 270 Q465 275 465.5 279.5 Q466 284 466 290 Q466 324 454 351.5 Q442 379 421 398 Q400 417 372 427 Q344 437 311 437 Z M336 564 L299 564 L258 771 L261 780 L317 780 L336 564 Z " />
<glyph glyph-name="emacron" unicode="&#x113;" horiz-adv-x="565" d="M312 483 Q355 483 392.5 469.5 Q430 456 458 430.5 Q486 405 502 369 Q518 333 518 288 Q518 264 514 247 Q510 230 508 224 L106 224 Q106 183 119.5 148.5 Q133 114 157.5 89 Q182 64 216.5 50 Q251 36 293 36 Q342 36 382.5 54.5 Q423 73 455 104 L483 71 Q446 33 396.5 11.5 Q347 -10 290 -10 Q239 -10 195.5 7.5 Q152 25 120.5 56 Q89 87 71.5 129.5 Q54 172 54 221 Q54 275 74.5 322.5 Q95 370 130 405.5 Q165 441 212 462 Q259 483 312 483 Z M311 437 Q274 437 240.5 424.5 Q207 412 180.5 390 Q154 368 135.5 337 Q117 306 110 270 L464 270 Q465 275 465.5 279.5 Q466 284 466 290 Q466 324 454 351.5 Q442 379 421 398 Q400 417 372 427 Q344 437 311 437 Z M487 648 L225 648 L233 691 L495 691 L487 648 Z " />
<glyph glyph-name="eogonek" unicode="&#x119;" horiz-adv-x="565" d="M312 483 Q355 483 392.5 469.5 Q430 456 458 430.5 Q486 405 502 369 Q518 333 518 288 Q518 264 514 247 Q510 230 508 224 L106 224 Q106 183 119.5 148.5 Q133 114 157.5 89 Q182 64 216.5 50 Q251 36 293 36 Q342 36 382.5 54.5 Q423 73 455 104 L483 70 Q451 39 412 17 Q373 -5 335 -25 Q293 -48 275 -66 Q257 -84 257 -106 Q257 -148 322 -148 Q341 -148 367 -145 L361 -185 Q333 -190 305 -190 Q262 -190 233.5 -171.5 Q205 -153 205 -115 Q205 -86 225.5 -61 Q246 -36 294 -10 L290 -10 Q239 -10 195.5 7.5 Q152 25 120.5 56 Q89 87 71.5 129.5 Q54 172 54 221 Q54 275 74.5 322.5 Q95 370 130 405.5 Q165 441 212 462 Q259 483 312 483 Z M311 437 Q274 437 240.5 424.5 Q207 412 180.5 390 Q154 368 135.5 337 Q117 306 110 270 L464 270 Q465 275 465.5 279.5 Q466 284 466 290 Q466 324 454 351.5 Q442 379 421 398 Q400 417 372 427 Q344 437 311 437 Z " />
<glyph glyph-name="f" unicode="f" horiz-adv-x="284" d="M311 428 L184 428 L99 -57 Q93 -93 79 -118 Q65 -143 45 -159 Q25 -175 0.5 -182.5 Q-24 -190 -52 -190 Q-69 -190 -86.5 -187.5 Q-104 -185 -124 -178 L-116 -137 Q-99 -142 -84.5 -143.5 Q-70 -145 -58 -145 Q-17 -145 12 -122.5 Q41 -100 51 -43 L134 428 L64 428 L72 474 L142 474 L169 626 Q182 698 223 729 Q264 760 320 760 Q337 760 354.5 757.5 Q372 755 392 748 L385 707 Q351 714 327 714 Q285 714 256 692 Q227 670 217 613 L192 474 L319 474 L311 428 Z " />
<glyph glyph-name="g" unicode="g" horiz-adv-x="631" d="M319 484 Q358 484 389 474.5 Q420 465 443.5 449 Q467 433 483.5 412.5 Q500 392 510 370 L529 474 L579 474 L500 24 Q491 -30 467.5 -70 Q444 -110 410.5 -136.5 Q377 -163 335 -176.5 Q293 -190 247 -190 Q172 -190 114 -158.5 Q56 -127 22 -78 L58 -48 Q87 -91 136 -117.5 Q185 -144 248 -144 Q324 -144 379.5 -101.5 Q435 -59 450 27 L459 79 Q424 36 373.5 15.5 Q323 -5 272 -5 Q223 -5 183 13 Q143 31 114.5 61.5 Q86 92 70 132.5 Q54 173 54 218 Q54 267 72 314.5 Q90 362 124.5 399.5 Q159 437 208 460.5 Q257 484 319 484 Z M319 438 Q273 438 234 420 Q195 402 166.5 372 Q138 342 122 303 Q106 264 106 222 Q106 186 118 153.5 Q130 121 152.5 96 Q175 71 208 56 Q241 41 284 41 Q337 41 376 62.5 Q415 84 441 117.5 Q467 151 479.5 191.5 Q492 232 492 269 Q492 309 478 340.5 Q464 372 440.5 393.5 Q417 415 385.5 426.5 Q354 438 319 438 Z " />
<glyph glyph-name="gbreve" unicode="&#x11f;" horiz-adv-x="631" d="M319 484 Q358 484 389 474.5 Q420 465 443.5 449 Q467 433 483.5 412.5 Q500 392 510 370 L529 474 L579 474 L500 24 Q491 -30 467.5 -70 Q444 -110 410.5 -136.5 Q377 -163 335 -176.5 Q293 -190 247 -190 Q172 -190 114 -158.5 Q56 -127 22 -78 L58 -48 Q87 -91 136 -117.5 Q185 -144 248 -144 Q324 -144 379.5 -101.5 Q435 -59 450 27 L459 79 Q424 36 373.5 15.5 Q323 -5 272 -5 Q223 -5 183 13 Q143 31 114.5 61.5 Q86 92 70 132.5 Q54 173 54 218 Q54 267 72 314.5 Q90 362 124.5 399.5 Q159 437 208 460.5 Q257 484 319 484 Z M319 438 Q273 438 234 420 Q195 402 166.5 372 Q138 342 122 303 Q106 264 106 222 Q106 186 118 153.5 Q130 121 152.5 96 Q175 71 208 56 Q241 41 284 41 Q337 41 376 62.5 Q415 84 441 117.5 Q467 151 479.5 191.5 Q492 232 492 269 Q492 309 478 340.5 Q464 372 440.5 393.5 Q417 415 385.5 426.5 Q354 438 319 438 Z M532 729 Q522 663 480.5 624.5 Q439 586 379 586 Q349 586 324.5 596 Q300 606 282.5 623.5 Q265 641 255.5 664 Q246 687 246 714 Q246 721 246.5 724.5 Q247 728 247 729 L291 729 L291 723 Q291 678 316.5 653 Q342 628 382 628 Q422 628 450.5 653.5 Q479 679 487 729 L532 729 Z " />
<glyph glyph-name="gcircumflex" unicode="&#x11d;" horiz-adv-x="631" d="M319 484 Q358 484 389 474.5 Q420 465 443.5 449 Q467 433 483.5 412.5 Q500 392 510 370 L529 474 L579 474 L500 24 Q491 -30 467.5 -70 Q444 -110 410.5 -136.5 Q377 -163 335 -176.5 Q293 -190 247 -190 Q172 -190 114 -158.5 Q56 -127 22 -78 L58 -48 Q87 -91 136 -117.5 Q185 -144 248 -144 Q324 -144 379.5 -101.5 Q435 -59 450 27 L459 79 Q424 36 373.5 15.5 Q323 -5 272 -5 Q223 -5 183 13 Q143 31 114.5 61.5 Q86 92 70 132.5 Q54 173 54 218 Q54 267 72 314.5 Q90 362 124.5 399.5 Q159 437 208 460.5 Q257 484 319 484 Z M319 438 Q273 438 234 420 Q195 402 166.5 372 Q138 342 122 303 Q106 264 106 222 Q106 186 118 153.5 Q130 121 152.5 96 Q175 71 208 56 Q241 41 284 41 Q337 41 376 62.5 Q415 84 441 117.5 Q467 151 479.5 191.5 Q492 232 492 269 Q492 309 478 340.5 Q464 372 440.5 393.5 Q417 415 385.5 426.5 Q354 438 319 438 Z M510 564 L471 564 L389 717 L253 564 L209 564 L383 780 L412 780 L510 564 Z " />
<glyph glyph-name="gcommaaccent" unicode="&#x123;" horiz-adv-x="631" d="M319 484 Q358 484 389 474.5 Q420 465 443.5 449 Q467 433 483.5 412.5 Q500 392 510 370 L529 474 L579 474 L500 24 Q491 -30 467.5 -70 Q444 -110 410.5 -136.5 Q377 -163 335 -176.5 Q293 -190 247 -190 Q172 -190 114 -158.5 Q56 -127 22 -78 L58 -48 Q87 -91 136 -117.5 Q185 -144 248 -144 Q324 -144 379.5 -101.5 Q435 -59 450 27 L459 79 Q424 36 373.5 15.5 Q323 -5 272 -5 Q223 -5 183 13 Q143 31 114.5 61.5 Q86 92 70 132.5 Q54 173 54 218 Q54 267 72 314.5 Q90 362 124.5 399.5 Q159 437 208 460.5 Q257 484 319 484 Z M319 438 Q273 438 234 420 Q195 402 166.5 372 Q138 342 122 303 Q106 264 106 222 Q106 186 118 153.5 Q130 121 152.5 96 Q175 71 208 56 Q241 41 284 41 Q337 41 376 62.5 Q415 84 441 117.5 Q467 151 479.5 191.5 Q492 232 492 269 Q492 309 478 340.5 Q464 372 440.5 393.5 Q417 415 385.5 426.5 Q354 438 319 438 Z M384 564 L330 564 L398 780 L439 780 L384 564 Z " />
<glyph glyph-name="gdotaccent" unicode="&#x121;" horiz-adv-x="631" d="M319 484 Q358 484 389 474.5 Q420 465 443.5 449 Q467 433 483.5 412.5 Q500 392 510 370 L529 474 L579 474 L500 24 Q491 -30 467.5 -70 Q444 -110 410.5 -136.5 Q377 -163 335 -176.5 Q293 -190 247 -190 Q172 -190 114 -158.5 Q56 -127 22 -78 L58 -48 Q87 -91 136 -117.5 Q185 -144 248 -144 Q324 -144 379.5 -101.5 Q435 -59 450 27 L459 79 Q424 36 373.5 15.5 Q323 -5 272 -5 Q223 -5 183 13 Q143 31 114.5 61.5 Q86 92 70 132.5 Q54 173 54 218 Q54 267 72 314.5 Q90 362 124.5 399.5 Q159 437 208 460.5 Q257 484 319 484 Z M319 438 Q273 438 234 420 Q195 402 166.5 372 Q138 342 122 303 Q106 264 106 222 Q106 186 118 153.5 Q130 121 152.5 96 Q175 71 208 56 Q241 41 284 41 Q337 41 376 62.5 Q415 84 441 117.5 Q467 151 479.5 191.5 Q492 232 492 269 Q492 309 478 340.5 Q464 372 440.5 393.5 Q417 415 385.5 426.5 Q354 438 319 438 Z M379 713 Q398 713 410.5 700 Q423 687 423 669 Q423 651 410.5 638 Q398 625 379 625 Q361 625 348 638 Q335 651 335 669 Q335 687 348 700 Q361 713 379 713 Z " />
<glyph glyph-name="h" unicode="h" horiz-adv-x="558" d="M175 419 Q202 450 239 467 Q276 484 322 484 Q359 484 389.5 472.5 Q420 461 441 440.5 Q462 420 473.5 391.5 Q485 363 485 329 Q485 315 483 302.5 Q481 290 479 275 L431 0 L380 0 L429 278 Q431 291 432.5 300.5 Q434 310 434 321 Q434 375 402 406.5 Q370 438 313 438 Q284 438 258 429 Q232 420 211 402.5 Q190 385 176 360 Q162 335 156 303 L102 0 L52 0 L183 750 L233 750 L175 419 Z " />
<glyph glyph-name="hbar" unicode="&#x127;" horiz-adv-x="559" d="M413 593 L206 593 L176 417 Q203 446 239.5 463 Q276 480 321 480 Q358 480 388.5 468.5 Q419 457 440 436 Q461 415 472.5 386.5 Q484 358 484 324 Q484 310 482 297.5 Q480 285 478 270 L431 0 L380 0 L428 274 Q431 286 432 295.5 Q433 305 433 316 Q433 370 401 401.5 Q369 433 312 433 Q283 433 257 424 Q231 415 210 397.5 Q189 380 175 355 Q161 330 155 298 L102 0 L52 0 L155 593 L72 593 L80 639 L163 639 L183 750 L233 750 L214 639 L421 639 L413 593 Z " />
<glyph glyph-name="hcircumflex" unicode="&#x125;" horiz-adv-x="558" d="M175 419 Q202 450 239 467 Q276 484 322 484 Q359 484 389.5 472.5 Q420 461 441 440.5 Q462 420 473.5 391.5 Q485 363 485 329 Q485 315 483 302.5 Q481 290 479 275 L431 0 L380 0 L429 278 Q431 291 432.5 300.5 Q434 310 434 321 Q434 375 402 406.5 Q370 438 313 438 Q284 438 258 429 Q232 420 211 402.5 Q190 385 176 360 Q162 335 156 303 L102 0 L52 0 L183 750 L233 750 L175 419 Z M405 814 L367 814 L270 943 L129 814 L83 814 L262 1000 L292 1000 L405 814 Z " />
<glyph glyph-name="i" unicode="i" horiz-adv-x="236" d="M101 0 L51 0 L134 474 L185 474 L101 0 Z M194 713 Q213 713 225.5 700 Q238 687 238 669 Q238 651 225.5 638 Q213 625 194 625 Q176 625 163 638 Q150 651 150 669 Q150 687 163 700 Q176 713 194 713 Z " />
<glyph glyph-name="dotlessi" unicode="&#x131;" horiz-adv-x="236" d="M101 0 L51 0 L134 474 L185 474 L101 0 Z " />
<glyph glyph-name="iacute" unicode="&#xed;" horiz-adv-x="236" d="M101 0 L51 0 L134 474 L185 474 L101 0 Z M316 771 L197 564 L154 564 L253 780 L318 780 L316 771 Z " />
<glyph glyph-name="ibreve" unicode="&#x12d;" horiz-adv-x="236" d="M101 0 L51 0 L134 474 L185 474 L101 0 Z M348 729 Q338 663 296.5 624.5 Q255 586 195 586 Q165 586 140.5 596 Q116 606 98.5 623.5 Q81 641 71.5 664 Q62 687 62 714 Q62 721 62.5 724.5 Q63 728 63 729 L107 729 L107 723 Q107 678 132.5 653 Q158 628 198 628 Q238 628 266.5 653.5 Q295 679 303 729 L348 729 Z " />
<glyph glyph-name="icircumflex" unicode="&#xee;" horiz-adv-x="236" d="M101 0 L51 0 L134 474 L185 474 L101 0 Z M326 564 L287 564 L205 717 L69 564 L25 564 L199 780 L228 780 L326 564 Z " />
<glyph glyph-name="idieresis" unicode="&#xef;" horiz-adv-x="236" d="M101 0 L51 0 L134 474 L185 474 L101 0 Z M278 712 Q296 712 308.5 699.5 Q321 687 321 669 Q321 652 308.5 639.5 Q296 627 278 627 Q261 627 248 639.5 Q235 652 235 669 Q235 687 248 699.5 Q261 712 278 712 Z M106 712 Q124 712 136.5 699.5 Q149 687 149 669 Q149 652 136.5 639.5 Q124 627 106 627 Q89 627 76 639.5 Q63 652 63 669 Q63 687 76 699.5 Q89 712 106 712 Z " />
<glyph glyph-name="igrave" unicode="&#xec;" horiz-adv-x="236" d="M101 0 L51 0 L134 474 L185 474 L101 0 Z M196 564 L157 564 L113 771 L114 780 L173 780 L196 564 Z " />
<glyph glyph-name="ij" unicode="&#x133;" horiz-adv-x="474" d="M328 -58 Q316 -129 275.5 -159.5 Q235 -190 178 -190 Q138 -190 108 -178 L115 -136 Q130 -141 145.5 -142.5 Q161 -144 174 -144 Q214 -144 242 -124.5 Q270 -105 279 -52 L371 474 L422 474 L328 -58 Z M431 713 Q450 713 462.5 700 Q475 687 475 669 Q475 651 462.5 638 Q450 625 431 625 Q413 625 400 638 Q387 651 387 669 Q387 687 400 700 Q413 713 431 713 Z M101 0 L51 0 L134 474 L185 474 L101 0 Z M194 713 Q213 713 225.5 700 Q238 687 238 669 Q238 651 225.5 638 Q213 625 194 625 Q176 625 163 638 Q150 651 150 669 Q150 687 163 700 Q176 713 194 713 Z " />
<glyph glyph-name="imacron" unicode="&#x12b;" horiz-adv-x="236" d="M101 0 L51 0 L134 474 L185 474 L101 0 Z M294 647 L89 647 L97 691 L301 691 L294 647 Z " />
<glyph glyph-name="iogonek" unicode="&#x12f;" horiz-adv-x="236" d="M101 0 L51 0 L134 474 L185 474 L101 0 Z M194 713 Q213 713 225.5 700 Q238 687 238 669 Q238 651 225.5 638 Q213 625 194 625 Q176 625 163 638 Q150 651 150 669 Q150 687 163 700 Q176 713 194 713 Z M102 0 L32 -38 Q1 -55 -15.5 -70.5 Q-32 -86 -32 -108 Q-32 -148 32 -148 Q51 -148 77 -145 L70 -185 Q42 -190 15 -190 Q-28 -190 -56.5 -171.5 Q-85 -153 -85 -115 Q-85 -96 -76 -78.5 Q-67 -61 -46.5 -44.5 Q-26 -28 7 -10.5 Q40 7 88 27 L102 0 Z " />
<glyph glyph-name="itilde" unicode="&#x129;" horiz-adv-x="236" d="M101 0 L51 0 L134 474 L185 474 L101 0 Z M139 729 Q162 729 175 719 Q188 709 199 695 L215 673 Q223 662 230 655.5 Q237 649 248 649 Q268 649 276 667 Q284 685 289 715 L332 715 Q330 693 324.5 672.5 Q319 652 309 636.5 Q299 621 284.5 612 Q270 603 250 603 Q227 603 213 613.5 Q199 624 190 637 L174 659 Q166 670 158.5 676.5 Q151 683 140 683 Q120 683 112 665 Q104 647 99 617 L56 617 Q58 639 63.5 659.5 Q69 680 79 695.5 Q89 711 103.5 720 Q118 729 139 729 Z " />
<glyph glyph-name="j" unicode="j" horiz-adv-x="238" d="M92 -58 Q80 -129 39.5 -159.5 Q-1 -190 -58 -190 Q-98 -190 -128 -178 L-121 -136 Q-106 -141 -90.5 -142.5 Q-75 -144 -62 -144 Q-22 -144 6 -124.5 Q34 -105 43 -52 L135 474 L186 474 L92 -58 Z M195 713 Q214 713 226.5 700 Q239 687 239 669 Q239 651 226.5 638 Q214 625 195 625 Q177 625 164 638 Q151 651 151 669 Q151 687 164 700 Q177 713 195 713 Z " />
<glyph glyph-name="dotlessj" unicode="&#x237;" horiz-adv-x="238" d="M92 -58 Q80 -129 39.5 -159.5 Q-1 -190 -58 -190 Q-98 -190 -128 -178 L-121 -136 Q-106 -141 -90.5 -142.5 Q-75 -144 -62 -144 Q-22 -144 6 -124.5 Q34 -105 43 -52 L135 474 L186 474 L92 -58 Z " />
<glyph glyph-name="jcircumflex" unicode="&#x135;" horiz-adv-x="238" d="M92 -58 Q80 -129 39.5 -159.5 Q-1 -190 -58 -190 Q-98 -190 -128 -178 L-121 -136 Q-106 -141 -90.5 -142.5 Q-75 -144 -62 -144 Q-22 -144 6 -124.5 Q34 -105 43 -52 L135 474 L186 474 L92 -58 Z M327 564 L288 564 L206 717 L70 564 L26 564 L200 780 L229 780 L327 564 Z " />
<glyph glyph-name="k" unicode="k" horiz-adv-x="481" d="M101 0 L51 0 L183 750 L233 750 L101 0 Z M226 261 L421 0 L360 0 L163 267 L413 474 L484 474 L226 261 Z " />
<glyph glyph-name="kcommaaccent" unicode="&#x137;" horiz-adv-x="481" d="M101 0 L51 0 L183 750 L233 750 L101 0 Z M226 261 L421 0 L360 0 L163 267 L413 474 L484 474 L226 261 Z M163 -220 L122 -220 L164 -51 L217 -51 L163 -220 Z " />
<glyph glyph-name="l" unicode="l" horiz-adv-x="236" d="M101 0 L51 0 L183 750 L233 750 L101 0 Z " />
<glyph glyph-name="lacute" unicode="&#x13a;" horiz-adv-x="236" d="M101 0 L51 0 L183 750 L233 750 L101 0 Z M381 991 L239 814 L197 814 L317 1000 L383 1000 L381 991 Z " />
<glyph glyph-name="lcaron" unicode="&#x13e;" horiz-adv-x="236" d="M101 0 L51 0 L183 750 L233 750 L101 0 Z M336 541 L297 541 L351 750 L409 750 L336 541 Z " />
<glyph glyph-name="lcommaaccent" unicode="&#x13c;" horiz-adv-x="236" d="M101 0 L51 0 L183 750 L233 750 L101 0 Z M40 -220 L-1 -220 L41 -51 L94 -51 L40 -220 Z " />
<glyph glyph-name="ldot" unicode="&#x140;" horiz-adv-x="267" d="M101 0 L51 0 L183 750 L233 750 L101 0 Z M264 360 Q284 360 299 346.5 Q314 333 314 310 Q314 288 299 275 Q284 262 264 262 Q245 262 230 275 Q215 288 215 310 Q215 333 230 346.5 Q245 360 264 360 Z " />
<glyph glyph-name="lslash" unicode="&#x142;" horiz-adv-x="239" d="M255 379 L160 338 L101 0 L51 0 L107 318 L19 281 L27 330 L115 368 L183 750 L233 750 L169 386 L263 427 L255 379 Z " />
<glyph glyph-name="m" unicode="m" horiz-adv-x="867" d="M634 484 Q709 484 751.5 440.5 Q794 397 794 329 Q794 315 792 302.5 Q790 290 788 275 L740 0 L690 0 L739 278 Q741 291 742.5 300.5 Q744 310 744 321 Q744 375 713 406.5 Q682 438 628 438 Q574 438 530 403.5 Q486 369 474 303 L421 0 L371 0 L420 278 Q422 291 423.5 300.5 Q425 310 425 321 Q425 375 394 406.5 Q363 438 309 438 Q282 438 257 429.5 Q232 421 211.5 403.5 Q191 386 176.5 361 Q162 336 156 303 L102 0 L52 0 L134 474 L183 474 L173 417 Q200 449 236.5 466.5 Q273 484 318 484 Q372 484 410 458.5 Q448 433 464 390 Q490 432 533.5 458 Q577 484 634 484 Z " />
<glyph glyph-name="n" unicode="n" horiz-adv-x="558" d="M322 484 Q359 484 389.5 472.5 Q420 461 441 440.5 Q462 420 473.5 391.5 Q485 363 485 329 Q485 315 483 302.5 Q481 290 479 275 L431 0 L380 0 L429 278 Q431 291 432.5 300.5 Q434 310 434 321 Q434 375 402 406.5 Q370 438 313 438 Q284 438 258 429 Q232 420 211 402.5 Q190 385 176 360 Q162 335 156 303 L102 0 L52 0 L134 474 L183 474 L173 416 Q200 448 237.5 466 Q275 484 322 484 Z " />
<glyph glyph-name="nacute" unicode="&#x144;" horiz-adv-x="558" d="M322 484 Q359 484 389.5 472.5 Q420 461 441 440.5 Q462 420 473.5 391.5 Q485 363 485 329 Q485 315 483 302.5 Q481 290 479 275 L431 0 L380 0 L429 278 Q431 291 432.5 300.5 Q434 310 434 321 Q434 375 402 406.5 Q370 438 313 438 Q284 438 258 429 Q232 420 211 402.5 Q190 385 176 360 Q162 335 156 303 L102 0 L52 0 L134 474 L183 474 L173 416 Q200 448 237.5 466 Q275 484 322 484 Z M514 771 L364 564 L320 564 L449 780 L514 780 L514 771 Z " />
<glyph glyph-name="ncaron" unicode="&#x148;" horiz-adv-x="558" d="M322 484 Q359 484 389.5 472.5 Q420 461 441 440.5 Q462 420 473.5 391.5 Q485 363 485 329 Q485 315 483 302.5 Q481 290 479 275 L431 0 L380 0 L429 278 Q431 291 432.5 300.5 Q434 310 434 321 Q434 375 402 406.5 Q370 438 313 438 Q284 438 258 429 Q232 420 211 402.5 Q190 385 176 360 Q162 335 156 303 L102 0 L52 0 L134 474 L183 474 L173 416 Q200 448 237.5 466 Q275 484 322 484 Z M354 564 L325 564 L227 780 L265 780 L348 628 L484 780 L528 780 L354 564 Z " />
<glyph glyph-name="ncommaaccent" unicode="&#x146;" horiz-adv-x="558" d="M322 484 Q359 484 389.5 472.5 Q420 461 441 440.5 Q462 420 473.5 391.5 Q485 363 485 329 Q485 315 483 302.5 Q481 290 479 275 L431 0 L380 0 L429 278 Q431 291 432.5 300.5 Q434 310 434 321 Q434 375 402 406.5 Q370 438 313 438 Q284 438 258 429 Q232 420 211 402.5 Q190 385 176 360 Q162 335 156 303 L102 0 L52 0 L134 474 L183 474 L173 416 Q200 448 237.5 466 Q275 484 322 484 Z M209 -220 L168 -220 L210 -51 L263 -51 L209 -220 Z " />
<glyph glyph-name="eng" unicode="&#x14b;" horiz-adv-x="558" d="M322 484 Q359 484 389.5 472.5 Q420 461 441 440.5 Q462 420 473.5 391.5 Q485 363 485 329 Q485 315 483 302.5 Q481 290 479 275 L421 -55 Q408 -129 367.5 -159.5 Q327 -190 271 -190 Q251 -190 233 -187 Q215 -184 201 -178 L208 -136 Q223 -141 238 -142.5 Q253 -144 267 -144 Q307 -144 334.5 -123.5 Q362 -103 372 -47 L429 278 Q431 291 432.5 300.5 Q434 310 434 321 Q434 375 402 406.5 Q370 438 313 438 Q284 438 258 429 Q232 420 211 402.5 Q190 385 176 360 Q162 335 156 303 L102 0 L52 0 L134 474 L183 474 L173 416 Q200 448 237.5 466 Q275 484 322 484 Z " />
<glyph glyph-name="ntilde" unicode="&#xf1;" horiz-adv-x="558" d="M322 484 Q359 484 389.5 472.5 Q420 461 441 440.5 Q462 420 473.5 391.5 Q485 363 485 329 Q485 315 483 302.5 Q481 290 479 275 L431 0 L380 0 L429 278 Q431 291 432.5 300.5 Q434 310 434 321 Q434 375 402 406.5 Q370 438 313 438 Q284 438 258 429 Q232 420 211 402.5 Q190 385 176 360 Q162 335 156 303 L102 0 L52 0 L134 474 L183 474 L173 416 Q200 448 237.5 466 Q275 484 322 484 Z M292 729 Q314 729 329 720.5 Q344 712 356 698 L378 673 Q388 662 397 655.5 Q406 649 417 649 Q437 649 446 666 Q455 683 459 715 L503 715 Q498 668 479.5 635.5 Q461 603 420 603 Q398 603 382.5 612 Q367 621 355 635 L334 659 Q323 670 314.5 676.5 Q306 683 294 683 Q274 683 265.5 666 Q257 649 252 617 L209 617 Q214 664 232 696.5 Q250 729 292 729 Z " />
<glyph glyph-name="o" unicode="o" horiz-adv-x="612" d="M319 484 Q370 484 413.5 466 Q457 448 489 416.5 Q521 385 539 342 Q557 299 557 250 Q557 196 535 148.5 Q513 101 476.5 65.5 Q440 30 391.5 10 Q343 -10 289 -10 Q239 -10 196 8 Q153 26 121.5 57 Q90 88 72 130.5 Q54 173 54 223 Q54 278 75.5 325.5 Q97 373 133.5 408 Q170 443 218 463.5 Q266 484 319 484 Z M318 438 Q274 438 236 421 Q198 404 169 375 Q140 346 123.5 307 Q107 268 107 223 Q107 183 120.5 148.5 Q134 114 159 89 Q184 64 217.5 50 Q251 36 292 36 Q336 36 375 53 Q414 70 443 99 Q472 128 488.5 166.5 Q505 205 505 249 Q505 289 491 323.5 Q477 358 452 383.5 Q427 409 392.5 423.5 Q358 438 318 438 Z " />
<glyph glyph-name="oacute" unicode="&#xf3;" horiz-adv-x="612" d="M319 484 Q370 484 413.5 466 Q457 448 489 416.5 Q521 385 539 342 Q557 299 557 250 Q557 196 535 148.5 Q513 101 476.5 65.5 Q440 30 391.5 10 Q343 -10 289 -10 Q239 -10 196 8 Q153 26 121.5 57 Q90 88 72 130.5 Q54 173 54 223 Q54 278 75.5 325.5 Q97 373 133.5 408 Q170 443 218 463.5 Q266 484 319 484 Z M318 438 Q274 438 236 421 Q198 404 169 375 Q140 346 123.5 307 Q107 268 107 223 Q107 183 120.5 148.5 Q134 114 159 89 Q184 64 217.5 50 Q251 36 292 36 Q336 36 375 53 Q414 70 443 99 Q472 128 488.5 166.5 Q505 205 505 249 Q505 289 491 323.5 Q477 358 452 383.5 Q427 409 392.5 423.5 Q358 438 318 438 Z M531 771 L381 564 L337 564 L466 780 L531 780 L531 771 Z " />
<glyph glyph-name="obreve" unicode="&#x14f;" horiz-adv-x="612" d="M319 484 Q370 484 413.5 466 Q457 448 489 416.5 Q521 385 539 342 Q557 299 557 250 Q557 196 535 148.5 Q513 101 476.5 65.5 Q440 30 391.5 10 Q343 -10 289 -10 Q239 -10 196 8 Q153 26 121.5 57 Q90 88 72 130.5 Q54 173 54 223 Q54 278 75.5 325.5 Q97 373 133.5 408 Q170 443 218 463.5 Q266 484 319 484 Z M318 438 Q274 438 236 421 Q198 404 169 375 Q140 346 123.5 307 Q107 268 107 223 Q107 183 120.5 148.5 Q134 114 159 89 Q184 64 217.5 50 Q251 36 292 36 Q336 36 375 53 Q414 70 443 99 Q472 128 488.5 166.5 Q505 205 505 249 Q505 289 491 323.5 Q477 358 452 383.5 Q427 409 392.5 423.5 Q358 438 318 438 Z M529 729 Q519 663 477.5 624.5 Q436 586 376 586 Q346 586 321.5 596 Q297 606 279.5 623.5 Q262 641 252.5 664 Q243 687 243 714 Q243 721 243.5 724.5 Q244 728 244 729 L288 729 L288 723 Q288 678 313.5 653 Q339 628 379 628 Q419 628 447.5 653.5 Q476 679 484 729 L529 729 Z " />
<glyph glyph-name="ocircumflex" unicode="&#xf4;" horiz-adv-x="612" d="M319 484 Q370 484 413.5 466 Q457 448 489 416.5 Q521 385 539 342 Q557 299 557 250 Q557 196 535 148.5 Q513 101 476.5 65.5 Q440 30 391.5 10 Q343 -10 289 -10 Q239 -10 196 8 Q153 26 121.5 57 Q90 88 72 130.5 Q54 173 54 223 Q54 278 75.5 325.5 Q97 373 133.5 408 Q170 443 218 463.5 Q266 484 319 484 Z M318 438 Q274 438 236 421 Q198 404 169 375 Q140 346 123.5 307 Q107 268 107 223 Q107 183 120.5 148.5 Q134 114 159 89 Q184 64 217.5 50 Q251 36 292 36 Q336 36 375 53 Q414 70 443 99 Q472 128 488.5 166.5 Q505 205 505 249 Q505 289 491 323.5 Q477 358 452 383.5 Q427 409 392.5 423.5 Q358 438 318 438 Z M507 564 L468 564 L386 717 L250 564 L206 564 L380 780 L409 780 L507 564 Z " />
<glyph glyph-name="odieresis" unicode="&#xf6;" horiz-adv-x="612" d="M319 484 Q370 484 413.5 466 Q457 448 489 416.5 Q521 385 539 342 Q557 299 557 250 Q557 196 535 148.5 Q513 101 476.5 65.5 Q440 30 391.5 10 Q343 -10 289 -10 Q239 -10 196 8 Q153 26 121.5 57 Q90 88 72 130.5 Q54 173 54 223 Q54 278 75.5 325.5 Q97 373 133.5 408 Q170 443 218 463.5 Q266 484 319 484 Z M318 438 Q274 438 236 421 Q198 404 169 375 Q140 346 123.5 307 Q107 268 107 223 Q107 183 120.5 148.5 Q134 114 159 89 Q184 64 217.5 50 Q251 36 292 36 Q336 36 375 53 Q414 70 443 99 Q472 128 488.5 166.5 Q505 205 505 249 Q505 289 491 323.5 Q477 358 452 383.5 Q427 409 392.5 423.5 Q358 438 318 438 Z M486 711 Q504 711 516.5 699 Q529 687 529 669 Q529 651 516.5 639 Q504 627 486 627 Q469 627 456 639 Q443 651 443 669 Q443 687 456 699 Q469 711 486 711 Z M275 711 Q293 711 305.5 699 Q318 687 318 669 Q318 651 305.5 639 Q293 627 275 627 Q258 627 245 639 Q232 651 232 669 Q232 687 245 699 Q258 711 275 711 Z " />
<glyph glyph-name="ograve" unicode="&#xf2;" horiz-adv-x="612" d="M319 484 Q370 484 413.5 466 Q457 448 489 416.5 Q521 385 539 342 Q557 299 557 250 Q557 196 535 148.5 Q513 101 476.5 65.5 Q440 30 391.5 10 Q343 -10 289 -10 Q239 -10 196 8 Q153 26 121.5 57 Q90 88 72 130.5 Q54 173 54 223 Q54 278 75.5 325.5 Q97 373 133.5 408 Q170 443 218 463.5 Q266 484 319 484 Z M318 438 Q274 438 236 421 Q198 404 169 375 Q140 346 123.5 307 Q107 268 107 223 Q107 183 120.5 148.5 Q134 114 159 89 Q184 64 217.5 50 Q251 36 292 36 Q336 36 375 53 Q414 70 443 99 Q472 128 488.5 166.5 Q505 205 505 249 Q505 289 491 323.5 Q477 358 452 383.5 Q427 409 392.5 423.5 Q358 438 318 438 Z M352 564 L315 564 L274 771 L277 780 L333 780 L352 564 Z " />
<glyph glyph-name="ohungarumlaut" unicode="&#x151;" horiz-adv-x="612" d="M319 484 Q370 484 413.5 466 Q457 448 489 416.5 Q521 385 539 342 Q557 299 557 250 Q557 196 535 148.5 Q513 101 476.5 65.5 Q440 30 391.5 10 Q343 -10 289 -10 Q239 -10 196 8 Q153 26 121.5 57 Q90 88 72 130.5 Q54 173 54 223 Q54 278 75.5 325.5 Q97 373 133.5 408 Q170 443 218 463.5 Q266 484 319 484 Z M318 438 Q274 438 236 421 Q198 404 169 375 Q140 346 123.5 307 Q107 268 107 223 Q107 183 120.5 148.5 Q134 114 159 89 Q184 64 217.5 50 Q251 36 292 36 Q336 36 375 53 Q414 70 443 99 Q472 128 488.5 166.5 Q505 205 505 249 Q505 289 491 323.5 Q477 358 452 383.5 Q427 409 392.5 423.5 Q358 438 318 438 Z M598 771 L453 564 L410 564 L539 780 L600 780 L598 771 Z M452 771 L307 564 L264 564 L393 780 L454 780 L452 771 Z " />
<glyph glyph-name="omacron" unicode="&#x14d;" horiz-adv-x="612" d="M319 484 Q370 484 413.5 466 Q457 448 489 416.5 Q521 385 539 342 Q557 299 557 250 Q557 196 535 148.5 Q513 101 476.5 65.5 Q440 30 391.5 10 Q343 -10 289 -10 Q239 -10 196 8 Q153 26 121.5 57 Q90 88 72 130.5 Q54 173 54 223 Q54 278 75.5 325.5 Q97 373 133.5 408 Q170 443 218 463.5 Q266 484 319 484 Z M318 438 Q274 438 236 421 Q198 404 169 375 Q140 346 123.5 307 Q107 268 107 223 Q107 183 120.5 148.5 Q134 114 159 89 Q184 64 217.5 50 Q251 36 292 36 Q336 36 375 53 Q414 70 443 99 Q472 128 488.5 166.5 Q505 205 505 249 Q505 289 491 323.5 Q477 358 452 383.5 Q427 409 392.5 423.5 Q358 438 318 438 Z M503 648 L241 648 L249 691 L511 691 L503 648 Z " />
<glyph glyph-name="oslash" unicode="&#xf8;" horiz-adv-x="621" d="M323 485 Q368 485 406 471 Q444 457 475 432 L535 492 L567 460 L507 400 Q533 369 547 331 Q561 293 561 250 Q561 195 539 147.5 Q517 100 480 65 Q443 30 394.5 10 Q346 -10 293 -10 Q249 -10 211.5 3.5 Q174 17 144 40 L85 -18 L53 15 L111 72 Q85 103 71.5 141.5 Q58 180 58 224 Q58 279 79.5 326.5 Q101 374 137.5 409.5 Q174 445 222 465 Q270 485 323 485 Z M322 439 Q279 439 240.5 422 Q202 405 173.5 376 Q145 347 128 308 Q111 269 111 225 Q111 191 121 161.5 Q131 132 149 108 L440 397 Q417 417 387 428 Q357 439 322 439 Z M508 248 Q508 281 498 310.5 Q488 340 471 365 L179 75 Q202 57 231.5 47 Q261 37 296 37 Q339 37 378 53.5 Q417 70 445.5 98.5 Q474 127 491 165.5 Q508 204 508 248 Z " />
<glyph glyph-name="oslashacute" unicode="&#x1ff;" horiz-adv-x="621" d="M323 485 Q368 485 406 471 Q444 457 475 432 L535 492 L567 460 L507 400 Q533 369 547 331 Q561 293 561 250 Q561 195 539 147.5 Q517 100 480 65 Q443 30 394.5 10 Q346 -10 293 -10 Q249 -10 211.5 3.5 Q174 17 144 40 L85 -18 L53 15 L111 72 Q85 103 71.5 141.5 Q58 180 58 224 Q58 279 79.5 326.5 Q101 374 137.5 409.5 Q174 445 222 465 Q270 485 323 485 Z M322 439 Q279 439 240.5 422 Q202 405 173.5 376 Q145 347 128 308 Q111 269 111 225 Q111 191 121 161.5 Q131 132 149 108 L440 397 Q417 417 387 428 Q357 439 322 439 Z M508 248 Q508 281 498 310.5 Q488 340 471 365 L179 75 Q202 57 231.5 47 Q261 37 296 37 Q339 37 378 53.5 Q417 70 445.5 98.5 Q474 127 491 165.5 Q508 204 508 248 Z M535 771 L385 564 L341 564 L470 780 L535 780 L535 771 Z " />
<glyph glyph-name="otilde" unicode="&#xf5;" horiz-adv-x="612" d="M319 484 Q370 484 413.5 466 Q457 448 489 416.5 Q521 385 539 342 Q557 299 557 250 Q557 196 535 148.5 Q513 101 476.5 65.5 Q440 30 391.5 10 Q343 -10 289 -10 Q239 -10 196 8 Q153 26 121.5 57 Q90 88 72 130.5 Q54 173 54 223 Q54 278 75.5 325.5 Q97 373 133.5 408 Q170 443 218 463.5 Q266 484 319 484 Z M318 438 Q274 438 236 421 Q198 404 169 375 Q140 346 123.5 307 Q107 268 107 223 Q107 183 120.5 148.5 Q134 114 159 89 Q184 64 217.5 50 Q251 36 292 36 Q336 36 375 53 Q414 70 443 99 Q472 128 488.5 166.5 Q505 205 505 249 Q505 289 491 323.5 Q477 358 452 383.5 Q427 409 392.5 423.5 Q358 438 318 438 Z M309 729 Q331 729 346 720.5 Q361 712 373 698 L395 673 Q405 662 414 655.5 Q423 649 434 649 Q454 649 463 666 Q472 683 476 715 L520 715 Q515 668 496.5 635.5 Q478 603 437 603 Q415 603 399.5 612 Q384 621 372 635 L351 659 Q340 670 331.5 676.5 Q323 683 311 683 Q291 683 282.5 666 Q274 649 269 617 L226 617 Q231 664 249 696.5 Q267 729 309 729 Z " />
<glyph glyph-name="oe" unicode="&#x153;" horiz-adv-x="998" d="M747 483 Q788 483 825 469.5 Q862 456 889.5 430.5 Q917 405 933.5 369 Q950 333 950 288 Q950 264 946 247 Q942 230 940 224 L542 224 Q542 183 555.5 148.5 Q569 114 593 89 Q617 64 651 50 Q685 36 726 36 Q774 36 814.5 54.5 Q855 73 887 104 L915 71 Q879 34 829.5 12 Q780 -10 723 -10 Q648 -10 592 29 Q536 68 511 132 Q495 100 471 74 Q447 48 417.5 29 Q388 10 353.5 0 Q319 -10 283 -10 Q235 -10 193.5 8 Q152 26 121 57 Q90 88 72.5 130.5 Q55 173 55 223 Q55 278 76.5 325.5 Q98 373 134 408 Q170 443 217 463.5 Q264 484 315 484 Q389 484 444 444.5 Q499 405 523 341 Q555 404 614.5 443.5 Q674 483 747 483 Z M313 438 Q271 438 234 421 Q197 404 168.5 375 Q140 346 123.5 307 Q107 268 107 223 Q107 183 120.5 148.5 Q134 114 158 89 Q182 64 214.5 50 Q247 36 286 36 Q328 36 365.5 53 Q403 70 431.5 99 Q460 128 476.5 166.5 Q493 205 493 249 Q493 289 479.5 323.5 Q466 358 442 383.5 Q418 409 385 423.5 Q352 438 313 438 Z M744 437 Q708 437 675 424.5 Q642 412 616 390 Q590 368 571.5 337 Q553 306 546 270 L897 270 Q897 275 897.5 280 Q898 285 898 290 Q898 324 886 351.5 Q874 379 853 398 Q832 417 804 427 Q776 437 744 437 Z " />
<glyph glyph-name="p" unicode="p" horiz-adv-x="631" d="M357 484 Q406 484 446.5 466 Q487 448 516 417 Q545 386 561 344.5 Q577 303 577 256 Q577 207 559.5 159 Q542 111 509 73.5 Q476 36 428 13 Q380 -10 319 -10 Q279 -10 247 0 Q215 10 190 26.5 Q165 43 147.5 64.5 Q130 86 120 109 L69 -180 L19 -180 L134 474 L183 474 L169 393 Q201 438 252.5 461 Q304 484 357 484 Z M345 438 Q293 438 254 415.5 Q215 393 189.5 359 Q164 325 151.5 284 Q139 243 139 207 Q139 166 153.5 134.5 Q168 103 192.5 81 Q217 59 249 47.5 Q281 36 317 36 Q362 36 400.5 54 Q439 72 466.5 102 Q494 132 509.5 171 Q525 210 525 252 Q525 289 513 322.5 Q501 356 478 381.5 Q455 407 421.5 422.5 Q388 438 345 438 Z " />
<glyph glyph-name="thorn" unicode="&#xfe;" horiz-adv-x="631" d="M171 395 Q204 440 254.5 462 Q305 484 358 484 Q407 484 447.5 466 Q488 448 516.5 417 Q545 386 561 344.5 Q577 303 577 257 Q577 207 559 159.5 Q541 112 507 74 Q473 36 424 13 Q375 -10 314 -10 Q274 -10 242.5 -0.5 Q211 9 187 25 Q163 41 146 61.5 Q129 82 120 105 L69 -180 L19 -180 L183 750 L233 750 L171 395 Z M345 438 Q293 438 254 415.5 Q215 393 189.5 359 Q164 325 151.5 284 Q139 243 139 206 Q139 166 153 134.5 Q167 103 191 81 Q215 59 246.5 47.5 Q278 36 313 36 Q358 36 397 54 Q436 72 464.5 102.5 Q493 133 509 172 Q525 211 525 253 Q525 289 513 322.5 Q501 356 478 381.5 Q455 407 421.5 422.5 Q388 438 345 438 Z " />
<glyph glyph-name="q" unicode="q" horiz-adv-x="630" d="M313 484 Q352 484 384 474.5 Q416 465 440.5 449 Q465 433 482 412 Q499 391 509 369 L528 474 L578 474 L463 -180 L413 -180 L458 76 Q425 32 374.5 11 Q324 -10 273 -10 Q224 -10 183.5 8 Q143 26 114 57.5 Q85 89 69 130.5 Q53 172 53 219 Q53 267 70.5 314.5 Q88 362 121 399.5 Q154 437 202.5 460.5 Q251 484 313 484 Z M315 438 Q270 438 231.5 420 Q193 402 165 372 Q137 342 121.5 303 Q106 264 106 221 Q106 184 118 150.5 Q130 117 153 91.5 Q176 66 209 51 Q242 36 285 36 Q337 36 376 58 Q415 80 440.5 114 Q466 148 478.5 189 Q491 230 491 267 Q491 308 476.5 340 Q462 372 438 393.5 Q414 415 382 426.5 Q350 438 315 438 Z " />
<glyph glyph-name="r" unicode="r" horiz-adv-x="350" d="M326 481 Q349 481 373 474 L366 431 Q352 433 342.5 434 Q333 435 325 435 Q297 435 269 426 Q241 417 217 399 Q193 381 176 354 Q159 327 152 291 L101 0 L51 0 L134 474 L183 474 L172 412 Q201 447 241 464 Q281 481 326 481 Z " />
<glyph glyph-name="racute" unicode="&#x155;" horiz-adv-x="350" d="M326 481 Q349 481 373 474 L366 431 Q352 433 342.5 434 Q333 435 325 435 Q297 435 269 426 Q241 417 217 399 Q193 381 176 354 Q159 327 152 291 L101 0 L51 0 L134 474 L183 474 L172 412 Q201 447 241 464 Q281 481 326 481 Z M386 771 L236 564 L192 564 L321 780 L386 780 L386 771 Z " />
<glyph glyph-name="rcaron" unicode="&#x159;" horiz-adv-x="350" d="M326 481 Q349 481 373 474 L366 431 Q352 433 342.5 434 Q333 435 325 435 Q297 435 269 426 Q241 417 217 399 Q193 381 176 354 Q159 327 152 291 L101 0 L51 0 L134 474 L183 474 L172 412 Q201 447 241 464 Q281 481 326 481 Z M227 564 L198 564 L100 780 L138 780 L221 628 L357 780 L401 780 L227 564 Z " />
<glyph glyph-name="rcommaaccent" unicode="&#x157;" horiz-adv-x="350" d="M326 481 Q349 481 373 474 L366 431 Q352 433 342.5 434 Q333 435 325 435 Q297 435 269 426 Q241 417 217 399 Q193 381 176 354 Q159 327 152 291 L101 0 L51 0 L134 474 L183 474 L172 412 Q201 447 241 464 Q281 481 326 481 Z M40 -220 L-1 -220 L41 -51 L94 -51 L40 -220 Z " />
<glyph glyph-name="s" unicode="s" horiz-adv-x="456" d="M251 484 Q307 484 345 460.5 Q383 437 407 402 L370 372 Q347 402 318 420 Q289 438 248 438 Q209 438 179 419 Q149 400 149 363 Q149 335 169 316.5 Q189 298 227 278 L269 255 Q321 229 351.5 199.5 Q382 170 382 123 Q382 90 368 64.5 Q354 39 331 22.5 Q308 6 278 -2.5 Q248 -11 216 -11 Q182 -11 153.5 -2 Q125 7 102 22 Q79 37 61.5 57 Q44 77 32 99 L71 128 Q97 87 131 61.5 Q165 36 217 36 Q271 36 300.5 62 Q330 88 330 121 Q330 138 322.5 151 Q315 164 302.5 175 Q290 186 274 195.5 Q258 205 240 214 L197 236 Q153 259 124.5 287 Q96 315 96 360 Q96 390 108.5 413 Q121 436 142.5 451.5 Q164 467 192 475.5 Q220 484 251 484 Z " />
<glyph glyph-name="sacute" unicode="&#x15b;" horiz-adv-x="456" d="M251 484 Q307 484 345 460.5 Q383 437 407 402 L370 372 Q347 402 318 420 Q289 438 248 438 Q209 438 179 419 Q149 400 149 363 Q149 335 169 316.5 Q189 298 227 278 L269 255 Q321 229 351.5 199.5 Q382 170 382 123 Q382 90 368 64.5 Q354 39 331 22.5 Q308 6 278 -2.5 Q248 -11 216 -11 Q182 -11 153.5 -2 Q125 7 102 22 Q79 37 61.5 57 Q44 77 32 99 L71 128 Q97 87 131 61.5 Q165 36 217 36 Q271 36 300.5 62 Q330 88 330 121 Q330 138 322.5 151 Q315 164 302.5 175 Q290 186 274 195.5 Q258 205 240 214 L197 236 Q153 259 124.5 287 Q96 315 96 360 Q96 390 108.5 413 Q121 436 142.5 451.5 Q164 467 192 475.5 Q220 484 251 484 Z M464 771 L314 564 L270 564 L399 780 L464 780 L464 771 Z " />
<glyph glyph-name="scaron" unicode="&#x161;" horiz-adv-x="456" d="M251 484 Q307 484 345 460.5 Q383 437 407 402 L370 372 Q347 402 318 420 Q289 438 248 438 Q209 438 179 419 Q149 400 149 363 Q149 335 169 316.5 Q189 298 227 278 L269 255 Q321 229 351.5 199.5 Q382 170 382 123 Q382 90 368 64.5 Q354 39 331 22.5 Q308 6 278 -2.5 Q248 -11 216 -11 Q182 -11 153.5 -2 Q125 7 102 22 Q79 37 61.5 57 Q44 77 32 99 L71 128 Q97 87 131 61.5 Q165 36 217 36 Q271 36 300.5 62 Q330 88 330 121 Q330 138 322.5 151 Q315 164 302.5 175 Q290 186 274 195.5 Q258 205 240 214 L197 236 Q153 259 124.5 287 Q96 315 96 360 Q96 390 108.5 413 Q121 436 142.5 451.5 Q164 467 192 475.5 Q220 484 251 484 Z M304 564 L275 564 L177 780 L215 780 L298 628 L434 780 L478 780 L304 564 Z " />
<glyph glyph-name="scedilla" unicode="&#x15f;" horiz-adv-x="456" d="M251 484 Q307 484 345 460.5 Q383 437 407 402 L370 372 Q347 402 318 420 Q289 438 248 438 Q209 438 179 419 Q149 400 149 363 Q149 335 169 316.5 Q189 298 227 278 L269 255 Q321 229 351.5 199.5 Q382 170 382 123 Q382 90 368 64.5 Q354 39 331 22.5 Q308 6 278 -2.5 Q248 -11 216 -11 Q182 -11 153.5 -2 Q125 7 102 22 Q79 37 61.5 57 Q44 77 32 99 L71 128 Q97 87 131 61.5 Q165 36 217 36 Q271 36 300.5 62 Q330 88 330 121 Q330 138 322.5 151 Q315 164 302.5 175 Q290 186 274 195.5 Q258 205 240 214 L197 236 Q153 259 124.5 287 Q96 315 96 360 Q96 390 108.5 413 Q121 436 142.5 451.5 Q164 467 192 475.5 Q220 484 251 484 Z M218 15 Q243 1 258.5 -22 Q274 -45 274 -75 Q274 -97 265.5 -117.5 Q257 -138 240.5 -154 Q224 -170 200.5 -180 Q177 -190 147 -190 Q109 -190 70 -176 L77 -138 Q96 -143 112 -145.5 Q128 -148 142 -148 Q177 -148 202 -129 Q227 -110 228 -68 Q229 -45 220.5 -29.5 Q212 -14 196 3 L218 15 Z " />
<glyph glyph-name="scircumflex" unicode="&#x15d;" horiz-adv-x="456" d="M251 484 Q307 484 345 460.5 Q383 437 407 402 L370 372 Q347 402 318 420 Q289 438 248 438 Q209 438 179 419 Q149 400 149 363 Q149 335 169 316.5 Q189 298 227 278 L269 255 Q321 229 351.5 199.5 Q382 170 382 123 Q382 90 368 64.5 Q354 39 331 22.5 Q308 6 278 -2.5 Q248 -11 216 -11 Q182 -11 153.5 -2 Q125 7 102 22 Q79 37 61.5 57 Q44 77 32 99 L71 128 Q97 87 131 61.5 Q165 36 217 36 Q271 36 300.5 62 Q330 88 330 121 Q330 138 322.5 151 Q315 164 302.5 175 Q290 186 274 195.5 Q258 205 240 214 L197 236 Q153 259 124.5 287 Q96 315 96 360 Q96 390 108.5 413 Q121 436 142.5 451.5 Q164 467 192 475.5 Q220 484 251 484 Z M440 564 L401 564 L319 717 L183 564 L139 564 L313 780 L342 780 L440 564 Z " />
<glyph glyph-name="scommaaccent" unicode="&#x219;" horiz-adv-x="456" d="M251 484 Q307 484 345 460.5 Q383 437 407 402 L370 372 Q347 402 318 420 Q289 438 248 438 Q209 438 179 419 Q149 400 149 363 Q149 335 169 316.5 Q189 298 227 278 L269 255 Q321 229 351.5 199.5 Q382 170 382 123 Q382 90 368 64.5 Q354 39 331 22.5 Q308 6 278 -2.5 Q248 -11 216 -11 Q182 -11 153.5 -2 Q125 7 102 22 Q79 37 61.5 57 Q44 77 32 99 L71 128 Q97 87 131 61.5 Q165 36 217 36 Q271 36 300.5 62 Q330 88 330 121 Q330 138 322.5 151 Q315 164 302.5 175 Q290 186 274 195.5 Q258 205 240 214 L197 236 Q153 259 124.5 287 Q96 315 96 360 Q96 390 108.5 413 Q121 436 142.5 451.5 Q164 467 192 475.5 Q220 484 251 484 Z M180 -220 L139 -220 L181 -51 L234 -51 L180 -220 Z " />
<glyph glyph-name="germandbls" unicode="&#xdf;" horiz-adv-x="595" d="M364 760 Q394 760 420.5 752.5 Q447 745 467.5 729.5 Q488 714 500 691 Q512 668 512 637 Q512 584 479 524 L412 398 Q400 375 391 355.5 Q382 336 382 320 Q382 300 399 283.5 Q416 267 454 241 Q473 227 490 214 Q507 201 519.5 187 Q532 173 539 157 Q546 141 546 121 Q546 97 535.5 74 Q525 51 504.5 32 Q484 13 453.5 1.5 Q423 -10 383 -10 Q323 -10 284 14.5 Q245 39 216 75 L247 108 Q275 76 306.5 56 Q338 36 386 36 Q438 36 466 59.5 Q494 83 494 119 Q494 132 489.5 142 Q485 152 475.5 161.5 Q466 171 451.5 181.5 Q437 192 416 207 Q371 239 350 261.5 Q329 284 329 314 Q329 334 338.5 357.5 Q348 381 363 408 L429 534 Q443 560 451.5 584 Q460 608 460 630 Q460 668 433 691 Q406 714 360 714 Q300 714 257 675 Q214 636 200 558 L102 0 L52 0 L150 562 Q159 611 179 648 Q199 685 227.5 710 Q256 735 291 747.5 Q326 760 364 760 Z " />
<glyph glyph-name="uni0259" unicode="&#x259;" horiz-adv-x="566" d="M279 483 Q329 483 371.5 465.5 Q414 448 445 417 Q476 386 493.5 343.5 Q511 301 511 252 Q511 198 490.5 150.5 Q470 103 434.5 67.5 Q399 32 352 11 Q305 -10 252 -10 Q209 -10 171.5 3.5 Q134 17 106.5 42.5 Q79 68 63 104 Q47 140 47 185 Q47 209 51 226 Q55 243 57 249 L458 249 L458 250 Q458 290 445 324.5 Q432 359 408 384 Q384 409 350.5 423 Q317 437 276 437 Q227 437 188 418.5 Q149 400 118 369 L90 402 Q125 440 173.5 461.5 Q222 483 279 483 Z M254 36 Q291 36 324 48.5 Q357 61 383 83 Q409 105 427 135.5 Q445 166 453 203 L100 203 Q99 198 99 193 Q99 188 99 183 Q99 148 111 121 Q123 94 143.5 75 Q164 56 192.5 46 Q221 36 254 36 Z " />
<glyph glyph-name="t" unicode="t" horiz-adv-x="363" d="M353 428 L196 428 L145 145 Q142 128 142 116 Q142 92 151 76.5 Q160 61 175 52 Q190 43 210.5 39.5 Q231 36 254 36 Q266 36 276.5 36.5 Q287 37 301 38 L293 -5 Q280 -8 267.5 -9 Q255 -10 241 -10 Q211 -10 184 -4 Q157 2 136.5 16 Q116 30 104 53 Q92 76 92 110 Q92 126 95 146 L145 428 L62 428 L69 474 L153 474 L179 620 L230 620 L204 474 L360 474 L353 428 Z " />
<glyph glyph-name="tbar" unicode="&#x167;" horiz-adv-x="379" d="M327 227 L169 227 L155 145 Q152 128 152 116 Q152 92 161 76.5 Q170 61 185 52 Q200 43 220.5 39.5 Q241 36 264 36 Q276 36 286.5 36.5 Q297 37 311 38 L303 -5 Q290 -8 277.5 -9 Q265 -10 251 -10 Q221 -10 194 -4 Q167 2 146.5 16 Q126 30 114 53 Q102 76 102 110 Q102 126 105 146 L119 227 L36 227 L43 272 L127 272 L155 430 L72 430 L79 474 L163 474 L189 620 L240 620 L214 474 L370 474 L363 430 L206 430 L177 272 L334 272 L327 227 Z " />
<glyph glyph-name="tcaron" unicode="&#x165;" horiz-adv-x="363" d="M353 428 L196 428 L145 145 Q142 128 142 116 Q142 92 151 76.5 Q160 61 175 52 Q190 43 210.5 39.5 Q231 36 254 36 Q266 36 276.5 36.5 Q287 37 301 38 L293 -5 Q280 -8 267.5 -9 Q255 -10 241 -10 Q211 -10 184 -4 Q157 2 136.5 16 Q116 30 104 53 Q92 76 92 110 Q92 126 95 146 L145 428 L62 428 L69 474 L153 474 L179 620 L230 620 L204 474 L360 474 L353 428 Z M356 541 L317 541 L371 750 L429 750 L356 541 Z " />
<glyph glyph-name="uni0163" unicode="&#x163;" horiz-adv-x="363" d="M353 428 L196 428 L145 145 Q142 128 142 116 Q142 92 151 76.5 Q160 61 175 52 Q190 43 210.5 39.5 Q231 36 254 36 Q266 36 276.5 36.5 Q287 37 301 38 L293 -5 Q280 -8 267.5 -9 Q255 -10 241 -10 Q211 -10 184 -4 Q157 2 136.5 16 Q116 30 104 53 Q92 76 92 110 Q92 126 95 146 L145 428 L62 428 L69 474 L153 474 L179 620 L230 620 L204 474 L360 474 L353 428 Z M185 15 Q210 1 225.5 -22 Q241 -45 241 -75 Q241 -97 232.5 -117.5 Q224 -138 207.5 -154 Q191 -170 167.5 -180 Q144 -190 114 -190 Q76 -190 37 -176 L44 -138 Q63 -143 79 -145.5 Q95 -148 109 -148 Q144 -148 169 -129 Q194 -110 195 -68 Q196 -45 187.5 -29.5 Q179 -14 163 3 L185 15 Z " />
<glyph glyph-name="u" unicode="u" horiz-adv-x="551" d="M451 164 Q444 122 425.5 90 Q407 58 380 35.5 Q353 13 320 1.5 Q287 -10 251 -10 Q213 -10 180.5 2 Q148 14 124.5 36 Q101 58 88 89 Q75 120 75 158 Q75 177 78 197 L126 474 L177 474 L127 191 Q124 176 124 160 Q124 131 134 108.5 Q144 86 161.5 69.5 Q179 53 203 44.5 Q227 36 255 36 Q280 36 304 44.5 Q328 53 347.5 69.5 Q367 86 381 110 Q395 134 401 166 L455 474 L506 474 L451 164 Z " />
<glyph glyph-name="uacute" unicode="&#xfa;" horiz-adv-x="551" d="M451 164 Q444 122 425.5 90 Q407 58 380 35.5 Q353 13 320 1.5 Q287 -10 251 -10 Q213 -10 180.5 2 Q148 14 124.5 36 Q101 58 88 89 Q75 120 75 158 Q75 177 78 197 L126 474 L177 474 L127 191 Q124 176 124 160 Q124 131 134 108.5 Q144 86 161.5 69.5 Q179 53 203 44.5 Q227 36 255 36 Q280 36 304 44.5 Q328 53 347.5 69.5 Q367 86 381 110 Q395 134 401 166 L455 474 L506 474 L451 164 Z M507 771 L357 564 L313 564 L442 780 L507 780 L507 771 Z " />
<glyph glyph-name="ubreve" unicode="&#x16d;" horiz-adv-x="551" d="M451 164 Q444 122 425.5 90 Q407 58 380 35.5 Q353 13 320 1.5 Q287 -10 251 -10 Q213 -10 180.5 2 Q148 14 124.5 36 Q101 58 88 89 Q75 120 75 158 Q75 177 78 197 L126 474 L177 474 L127 191 Q124 176 124 160 Q124 131 134 108.5 Q144 86 161.5 69.5 Q179 53 203 44.5 Q227 36 255 36 Q280 36 304 44.5 Q328 53 347.5 69.5 Q367 86 381 110 Q395 134 401 166 L455 474 L506 474 L451 164 Z M505 729 Q495 663 453.5 624.5 Q412 586 352 586 Q322 586 297.5 596 Q273 606 255.5 623.5 Q238 641 228.5 664 Q219 687 219 714 Q219 721 219.5 724.5 Q220 728 220 729 L264 729 L264 723 Q264 678 289.5 653 Q315 628 355 628 Q395 628 423.5 653.5 Q452 679 460 729 L505 729 Z " />
<glyph glyph-name="uni01D4" unicode="&#x1d4;" horiz-adv-x="551" d="M451 164 Q444 122 425.5 90 Q407 58 380 35.5 Q353 13 320 1.5 Q287 -10 251 -10 Q213 -10 180.5 2 Q148 14 124.5 36 Q101 58 88 89 Q75 120 75 158 Q75 177 78 197 L126 474 L177 474 L127 191 Q124 176 124 160 Q124 131 134 108.5 Q144 86 161.5 69.5 Q179 53 203 44.5 Q227 36 255 36 Q280 36 304 44.5 Q328 53 347.5 69.5 Q367 86 381 110 Q395 134 401 166 L455 474 L506 474 L451 164 Z M347 564 L318 564 L220 780 L258 780 L341 628 L477 780 L521 780 L347 564 Z " />
<glyph glyph-name="ucircumflex" unicode="&#xfb;" horiz-adv-x="551" d="M451 164 Q444 122 425.5 90 Q407 58 380 35.5 Q353 13 320 1.5 Q287 -10 251 -10 Q213 -10 180.5 2 Q148 14 124.5 36 Q101 58 88 89 Q75 120 75 158 Q75 177 78 197 L126 474 L177 474 L127 191 Q124 176 124 160 Q124 131 134 108.5 Q144 86 161.5 69.5 Q179 53 203 44.5 Q227 36 255 36 Q280 36 304 44.5 Q328 53 347.5 69.5 Q367 86 381 110 Q395 134 401 166 L455 474 L506 474 L451 164 Z M483 564 L444 564 L362 717 L226 564 L182 564 L356 780 L385 780 L483 564 Z " />
<glyph glyph-name="udieresis" unicode="&#xfc;" horiz-adv-x="551" d="M451 164 Q444 122 425.5 90 Q407 58 380 35.5 Q353 13 320 1.5 Q287 -10 251 -10 Q213 -10 180.5 2 Q148 14 124.5 36 Q101 58 88 89 Q75 120 75 158 Q75 177 78 197 L126 474 L177 474 L127 191 Q124 176 124 160 Q124 131 134 108.5 Q144 86 161.5 69.5 Q179 53 203 44.5 Q227 36 255 36 Q280 36 304 44.5 Q328 53 347.5 69.5 Q367 86 381 110 Q395 134 401 166 L455 474 L506 474 L451 164 Z M462 711 Q480 711 492.5 699 Q505 687 505 669 Q505 651 492.5 639 Q480 627 462 627 Q445 627 432 639 Q419 651 419 669 Q419 687 432 699 Q445 711 462 711 Z M251 711 Q269 711 281.5 699 Q294 687 294 669 Q294 651 281.5 639 Q269 627 251 627 Q234 627 221 639 Q208 651 208 669 Q208 687 221 699 Q234 711 251 711 Z " />
<glyph glyph-name="ugrave" unicode="&#xf9;" horiz-adv-x="551" d="M451 164 Q444 122 425.5 90 Q407 58 380 35.5 Q353 13 320 1.5 Q287 -10 251 -10 Q213 -10 180.5 2 Q148 14 124.5 36 Q101 58 88 89 Q75 120 75 158 Q75 177 78 197 L126 474 L177 474 L127 191 Q124 176 124 160 Q124 131 134 108.5 Q144 86 161.5 69.5 Q179 53 203 44.5 Q227 36 255 36 Q280 36 304 44.5 Q328 53 347.5 69.5 Q367 86 381 110 Q395 134 401 166 L455 474 L506 474 L451 164 Z M328 564 L291 564 L250 771 L253 780 L309 780 L328 564 Z " />
<glyph glyph-name="uhungarumlaut" unicode="&#x171;" horiz-adv-x="551" d="M451 164 Q444 122 425.5 90 Q407 58 380 35.5 Q353 13 320 1.5 Q287 -10 251 -10 Q213 -10 180.5 2 Q148 14 124.5 36 Q101 58 88 89 Q75 120 75 158 Q75 177 78 197 L126 474 L177 474 L127 191 Q124 176 124 160 Q124 131 134 108.5 Q144 86 161.5 69.5 Q179 53 203 44.5 Q227 36 255 36 Q280 36 304 44.5 Q328 53 347.5 69.5 Q367 86 381 110 Q395 134 401 166 L455 474 L506 474 L451 164 Z M574 771 L429 564 L386 564 L515 780 L576 780 L574 771 Z M428 771 L283 564 L240 564 L369 780 L430 780 L428 771 Z " />
<glyph glyph-name="umacron" unicode="&#x16b;" horiz-adv-x="551" d="M451 164 Q444 122 425.5 90 Q407 58 380 35.5 Q353 13 320 1.5 Q287 -10 251 -10 Q213 -10 180.5 2 Q148 14 124.5 36 Q101 58 88 89 Q75 120 75 158 Q75 177 78 197 L126 474 L177 474 L127 191 Q124 176 124 160 Q124 131 134 108.5 Q144 86 161.5 69.5 Q179 53 203 44.5 Q227 36 255 36 Q280 36 304 44.5 Q328 53 347.5 69.5 Q367 86 381 110 Q395 134 401 166 L455 474 L506 474 L451 164 Z M479 648 L217 648 L225 691 L487 691 L479 648 Z " />
<glyph glyph-name="uni021B" unicode="&#x21b;" horiz-adv-x="363" d="M353 428 L196 428 L145 145 Q142 128 142 116 Q142 92 151 76.5 Q160 61 175 52 Q190 43 210.5 39.5 Q231 36 254 36 Q266 36 276.5 36.5 Q287 37 301 38 L293 -5 Q280 -8 267.5 -9 Q255 -10 241 -10 Q211 -10 184 -4 Q157 2 136.5 16 Q116 30 104 53 Q92 76 92 110 Q92 126 95 146 L145 428 L62 428 L69 474 L153 474 L179 620 L230 620 L204 474 L360 474 L353 428 Z M147 -220 L106 -220 L148 -51 L201 -51 L147 -220 Z " />
<glyph glyph-name="uogonek" unicode="&#x173;" horiz-adv-x="551" d="M451 164 Q445 130 434.5 106.5 Q424 83 407.5 63.5 Q391 44 367.5 26.5 Q344 9 312 -13 Q265 -46 245 -65 Q225 -84 225 -107 Q225 -148 290 -148 Q310 -148 334 -145 L328 -185 Q300 -190 273 -190 Q230 -190 201.5 -171.5 Q173 -153 173 -114 Q173 -85 191 -61.5 Q209 -38 254 -10 L251 -10 Q213 -10 180.5 2 Q148 14 124.5 36 Q101 58 88 88.5 Q75 119 75 157 Q75 177 78 197 L126 474 L177 474 L127 191 Q124 176 124 160 Q124 131 134 108.5 Q144 86 161.5 69.5 Q179 53 203 44.5 Q227 36 254 36 Q308 36 349 69.5 Q390 103 401 166 L455 474 L506 474 L451 164 Z " />
<glyph glyph-name="uring" unicode="&#x16f;" horiz-adv-x="551" d="M451 164 Q444 122 425.5 90 Q407 58 380 35.5 Q353 13 320 1.5 Q287 -10 251 -10 Q213 -10 180.5 2 Q148 14 124.5 36 Q101 58 88 89 Q75 120 75 158 Q75 177 78 197 L126 474 L177 474 L127 191 Q124 176 124 160 Q124 131 134 108.5 Q144 86 161.5 69.5 Q179 53 203 44.5 Q227 36 255 36 Q280 36 304 44.5 Q328 53 347.5 69.5 Q367 86 381 110 Q395 134 401 166 L455 474 L506 474 L451 164 Z M359 769 Q380 769 398 761.5 Q416 754 429.5 741 Q443 728 450.5 710.5 Q458 693 458 672 Q458 649 449 629.5 Q440 610 425 596 Q410 582 390.5 573.5 Q371 565 349 565 Q307 565 278.5 592.5 Q250 620 250 662 Q250 684 258.5 703.5 Q267 723 282 737.5 Q297 752 317 760.5 Q337 769 359 769 Z M357 728 Q331 728 312.5 709.5 Q294 691 294 664 Q294 639 310 622.5 Q326 606 351 606 Q377 606 395.5 624.5 Q414 643 414 670 Q414 695 398.5 711.5 Q383 728 357 728 Z " />
<glyph glyph-name="utilde" unicode="&#x169;" horiz-adv-x="551" d="M451 164 Q444 122 425.5 90 Q407 58 380 35.5 Q353 13 320 1.5 Q287 -10 251 -10 Q213 -10 180.5 2 Q148 14 124.5 36 Q101 58 88 89 Q75 120 75 158 Q75 177 78 197 L126 474 L177 474 L127 191 Q124 176 124 160 Q124 131 134 108.5 Q144 86 161.5 69.5 Q179 53 203 44.5 Q227 36 255 36 Q280 36 304 44.5 Q328 53 347.5 69.5 Q367 86 381 110 Q395 134 401 166 L455 474 L506 474 L451 164 Z M285 729 Q307 729 322 720.5 Q337 712 349 698 L371 673 Q381 662 390 655.5 Q399 649 410 649 Q430 649 439 666 Q448 683 452 715 L496 715 Q491 668 472.5 635.5 Q454 603 413 603 Q391 603 375.5 612 Q360 621 348 635 L327 659 Q316 670 307.5 676.5 Q299 683 287 683 Q267 683 258.5 666 Q250 649 245 617 L202 617 Q207 664 225 696.5 Q243 729 285 729 Z " />
<glyph glyph-name="v" unicode="v" horiz-adv-x="527" d="M224 -10 L203 -10 L66 474 L118 474 L226 77 L472 474 L530 474 L224 -10 Z " />
<glyph glyph-name="w" unicode="w" horiz-adv-x="844" d="M468 484 L572 82 L792 474 L848 474 L569 -10 L548 -10 L443 387 L197 -10 L176 -10 L66 474 L118 474 L202 82 L447 484 L468 484 Z " />
<glyph glyph-name="wacute" unicode="&#x1e83;" horiz-adv-x="844" d="M468 484 L572 82 L792 474 L848 474 L569 -10 L548 -10 L443 387 L197 -10 L176 -10 L66 474 L118 474 L202 82 L447 484 L468 484 Z M645 771 L495 564 L451 564 L580 780 L645 780 L645 771 Z " />
<glyph glyph-name="wcircumflex" unicode="&#x175;" horiz-adv-x="844" d="M468 484 L572 82 L792 474 L848 474 L569 -10 L548 -10 L443 387 L197 -10 L176 -10 L66 474 L118 474 L202 82 L447 484 L468 484 Z M621 564 L582 564 L500 717 L364 564 L320 564 L494 780 L523 780 L621 564 Z " />
<glyph glyph-name="wdieresis" unicode="&#x1e85;" horiz-adv-x="844" d="M468 484 L572 82 L792 474 L848 474 L569 -10 L548 -10 L443 387 L197 -10 L176 -10 L66 474 L118 474 L202 82 L447 484 L468 484 Z M600 711 Q618 711 630.5 699 Q643 687 643 669 Q643 651 630.5 639 Q618 627 600 627 Q583 627 570 639 Q557 651 557 669 Q557 687 570 699 Q583 711 600 711 Z M389 711 Q407 711 419.5 699 Q432 687 432 669 Q432 651 419.5 639 Q407 627 389 627 Q372 627 359 639 Q346 651 346 669 Q346 687 359 699 Q372 711 389 711 Z " />
<glyph glyph-name="wgrave" unicode="&#x1e81;" horiz-adv-x="844" d="M468 484 L572 82 L792 474 L848 474 L569 -10 L548 -10 L443 387 L197 -10 L176 -10 L66 474 L118 474 L202 82 L447 484 L468 484 Z M466 564 L429 564 L388 771 L391 780 L447 780 L466 564 Z " />
<glyph glyph-name="x" unicode="x" horiz-adv-x="479" d="M247 285 L417 474 L481 474 L272 246 L412 0 L354 0 L236 211 L48 0 L-16 0 L211 251 L83 474 L141 474 L247 285 Z " />
<glyph glyph-name="y" unicode="y" horiz-adv-x="568" d="M433 -5 Q425 -51 405.5 -85.5 Q386 -120 358 -143.5 Q330 -167 296 -178.5 Q262 -190 224 -190 Q161 -190 110.5 -160.5 Q60 -131 29 -79 L65 -48 Q89 -88 128 -116 Q167 -144 224 -144 Q281 -144 325 -109.5 Q369 -75 382 -3 L393 58 Q366 28 329.5 11.5 Q293 -5 248 -5 Q210 -5 180 6.5 Q150 18 129 38.5 Q108 59 96.5 87.5 Q85 116 85 150 Q85 164 87 177 Q89 190 91 204 L138 474 L189 474 L141 201 Q139 189 137.5 179 Q136 169 136 158 Q136 105 168 73 Q200 41 257 41 Q286 41 312 50 Q338 59 359 76.5 Q380 94 394 119.5 Q408 145 414 177 L466 474 L517 474 L433 -5 Z " />
<glyph glyph-name="yacute" unicode="&#xfd;" horiz-adv-x="568" d="M433 -5 Q425 -51 405.5 -85.5 Q386 -120 358 -143.5 Q330 -167 296 -178.5 Q262 -190 224 -190 Q161 -190 110.5 -160.5 Q60 -131 29 -79 L65 -48 Q89 -88 128 -116 Q167 -144 224 -144 Q281 -144 325 -109.5 Q369 -75 382 -3 L393 58 Q366 28 329.5 11.5 Q293 -5 248 -5 Q210 -5 180 6.5 Q150 18 129 38.5 Q108 59 96.5 87.5 Q85 116 85 150 Q85 164 87 177 Q89 190 91 204 L138 474 L189 474 L141 201 Q139 189 137.5 179 Q136 169 136 158 Q136 105 168 73 Q200 41 257 41 Q286 41 312 50 Q338 59 359 76.5 Q380 94 394 119.5 Q408 145 414 177 L466 474 L517 474 L433 -5 Z M516 771 L366 564 L322 564 L451 780 L516 780 L516 771 Z " />
<glyph glyph-name="ycircumflex" unicode="&#x177;" horiz-adv-x="568" d="M433 -5 Q425 -51 405.5 -85.5 Q386 -120 358 -143.5 Q330 -167 296 -178.5 Q262 -190 224 -190 Q161 -190 110.5 -160.5 Q60 -131 29 -79 L65 -48 Q89 -88 128 -116 Q167 -144 224 -144 Q281 -144 325 -109.5 Q369 -75 382 -3 L393 58 Q366 28 329.5 11.5 Q293 -5 248 -5 Q210 -5 180 6.5 Q150 18 129 38.5 Q108 59 96.5 87.5 Q85 116 85 150 Q85 164 87 177 Q89 190 91 204 L138 474 L189 474 L141 201 Q139 189 137.5 179 Q136 169 136 158 Q136 105 168 73 Q200 41 257 41 Q286 41 312 50 Q338 59 359 76.5 Q380 94 394 119.5 Q408 145 414 177 L466 474 L517 474 L433 -5 Z M492 564 L453 564 L371 717 L235 564 L191 564 L365 780 L394 780 L492 564 Z " />
<glyph glyph-name="ydieresis" unicode="&#xff;" horiz-adv-x="568" d="M433 -5 Q425 -51 405.5 -85.5 Q386 -120 358 -143.5 Q330 -167 296 -178.5 Q262 -190 224 -190 Q161 -190 110.5 -160.5 Q60 -131 29 -79 L65 -48 Q89 -88 128 -116 Q167 -144 224 -144 Q281 -144 325 -109.5 Q369 -75 382 -3 L393 58 Q366 28 329.5 11.5 Q293 -5 248 -5 Q210 -5 180 6.5 Q150 18 129 38.5 Q108 59 96.5 87.5 Q85 116 85 150 Q85 164 87 177 Q89 190 91 204 L138 474 L189 474 L141 201 Q139 189 137.5 179 Q136 169 136 158 Q136 105 168 73 Q200 41 257 41 Q286 41 312 50 Q338 59 359 76.5 Q380 94 394 119.5 Q408 145 414 177 L466 474 L517 474 L433 -5 Z M471 711 Q489 711 501.5 699 Q514 687 514 669 Q514 651 501.5 639 Q489 627 471 627 Q454 627 441 639 Q428 651 428 669 Q428 687 441 699 Q454 711 471 711 Z M260 711 Q278 711 290.5 699 Q303 687 303 669 Q303 651 290.5 639 Q278 627 260 627 Q243 627 230 639 Q217 651 217 669 Q217 687 230 699 Q243 711 260 711 Z " />
<glyph glyph-name="ygrave" unicode="&#x1ef3;" horiz-adv-x="568" d="M433 -5 Q425 -51 405.5 -85.5 Q386 -120 358 -143.5 Q330 -167 296 -178.5 Q262 -190 224 -190 Q161 -190 110.5 -160.5 Q60 -131 29 -79 L65 -48 Q89 -88 128 -116 Q167 -144 224 -144 Q281 -144 325 -109.5 Q369 -75 382 -3 L393 58 Q366 28 329.5 11.5 Q293 -5 248 -5 Q210 -5 180 6.5 Q150 18 129 38.5 Q108 59 96.5 87.5 Q85 116 85 150 Q85 164 87 177 Q89 190 91 204 L138 474 L189 474 L141 201 Q139 189 137.5 179 Q136 169 136 158 Q136 105 168 73 Q200 41 257 41 Q286 41 312 50 Q338 59 359 76.5 Q380 94 394 119.5 Q408 145 414 177 L466 474 L517 474 L433 -5 Z M337 564 L300 564 L259 771 L262 780 L318 780 L337 564 Z " />
<glyph glyph-name="z" unicode="z" horiz-adv-x="450" d="M451 457 L81 46 L384 46 L376 0 L-8 0 L-5 17 L364 428 L89 428 L97 474 L454 474 L451 457 Z " />
<glyph glyph-name="zacute" unicode="&#x17a;" horiz-adv-x="450" d="M451 457 L81 46 L384 46 L376 0 L-8 0 L-5 17 L364 428 L89 428 L97 474 L454 474 L451 457 Z M465 771 L315 564 L271 564 L400 780 L465 780 L465 771 Z " />
<glyph glyph-name="zcaron" unicode="&#x17e;" horiz-adv-x="450" d="M451 457 L81 46 L384 46 L376 0 L-8 0 L-5 17 L364 428 L89 428 L97 474 L454 474 L451 457 Z M305 564 L276 564 L178 780 L216 780 L299 628 L435 780 L479 780 L305 564 Z " />
<glyph glyph-name="zdotaccent" unicode="&#x17c;" horiz-adv-x="450" d="M451 457 L81 46 L384 46 L376 0 L-8 0 L-5 17 L364 428 L89 428 L97 474 L454 474 L451 457 Z M310 713 Q329 713 341.5 700 Q354 687 354 669 Q354 651 341.5 638 Q329 625 310 625 Q292 625 279 638 Q266 651 266 669 Q266 687 279 700 Q292 713 310 713 Z " />
<glyph glyph-name="fi" unicode="&#xfb01;" horiz-adv-x="535" d="M311 428 L184 428 L99 -57 Q93 -93 79 -118 Q65 -143 45 -159 Q25 -175 0.5 -182.5 Q-24 -190 -52 -190 Q-69 -190 -86.5 -187.5 Q-104 -185 -124 -178 L-116 -137 Q-99 -142 -84.5 -143.5 Q-70 -145 -58 -145 Q-17 -145 12 -122.5 Q41 -100 51 -43 L134 428 L64 428 L72 474 L142 474 L169 626 Q182 698 223 729 Q264 760 320 760 Q337 760 354.5 757.5 Q372 755 392 748 L385 707 Q351 714 327 714 Q285 714 256 692 Q227 670 217 613 L192 474 L319 474 L311 428 Z M400 0 L350 0 L433 474 L484 474 L400 0 Z M493 713 Q512 713 524.5 700 Q537 687 537 669 Q537 651 524.5 638 Q512 625 493 625 Q475 625 462 638 Q449 651 449 669 Q449 687 462 700 Q475 713 493 713 Z " />
<glyph glyph-name="fl" unicode="&#xfb02;" horiz-adv-x="535" d="M311 428 L184 428 L99 -57 Q93 -93 79 -118 Q65 -143 45 -159 Q25 -175 0.5 -182.5 Q-24 -190 -52 -190 Q-69 -190 -86.5 -187.5 Q-104 -185 -124 -178 L-116 -137 Q-99 -142 -84.5 -143.5 Q-70 -145 -58 -145 Q-17 -145 12 -122.5 Q41 -100 51 -43 L134 428 L64 428 L72 474 L142 474 L169 626 Q182 698 223 729 Q264 760 320 760 Q337 760 354.5 757.5 Q372 755 392 748 L385 707 Q351 714 327 714 Q285 714 256 692 Q227 670 217 613 L192 474 L319 474 L311 428 Z M400 0 L350 0 L482 750 L532 750 L400 0 Z " />
<glyph glyph-name="ordfeminine" unicode="&#xaa;" horiz-adv-x="428" d="M240 557 Q287 557 315.5 537 Q344 517 357 489 L367 549 L413 549 L359 244 L316 244 L324 291 Q304 264 273 250.5 Q242 237 210 237 Q179 237 154 248.5 Q129 260 111 280 Q93 300 83.5 326 Q74 352 74 382 Q74 413 85 444.5 Q96 476 117 501 Q138 526 169 541.5 Q200 557 240 557 Z M242 515 Q216 515 193.5 504.5 Q171 494 154.5 476 Q138 458 128.5 435 Q119 412 119 387 Q119 365 126 345.5 Q133 326 146.5 311 Q160 296 179.5 287 Q199 278 223 278 Q252 278 274 290.5 Q296 303 311 323 Q326 343 333.5 366.5 Q341 390 341 413 Q342 460 312.5 487.5 Q283 515 242 515 Z " />
<glyph glyph-name="ordmasculine" unicode="&#xba;" horiz-adv-x="414" d="M244 557 Q276 557 303.5 545.5 Q331 534 351.5 513.5 Q372 493 383.5 465.5 Q395 438 395 406 Q395 370 381 339.5 Q367 309 343.5 286.5 Q320 264 289 251 Q258 238 224 238 Q192 238 164.5 249.5 Q137 261 117 281 Q97 301 85.5 328.5 Q74 356 74 388 Q74 424 88 454.5 Q102 485 125 508 Q148 531 179 544 Q210 557 244 557 Z M243 514 Q217 514 195 504.5 Q173 495 156.5 478 Q140 461 130.5 438 Q121 415 121 389 Q121 341 150 310.5 Q179 280 226 280 Q252 280 274.5 290 Q297 300 313.5 317 Q330 334 339.5 356.5 Q349 379 349 405 Q349 453 319.5 483.5 Q290 514 243 514 Z " />
<glyph glyph-name="zero" unicode="0" horiz-adv-x="665" d="M352 542 Q407 542 455 522 Q503 502 538.5 466.5 Q574 431 594.5 383 Q615 335 615 280 Q615 220 591 167 Q567 114 526.5 75 Q486 36 432 13 Q378 -10 319 -10 Q264 -10 216.5 10 Q169 30 134 65 Q99 100 79 147.5 Q59 195 59 250 Q59 311 83 364.5 Q107 418 147 457.5 Q187 497 240 519.5 Q293 542 352 542 Z M352 495 Q302 495 258.5 475.5 Q215 456 182 423 Q149 390 130 345.5 Q111 301 111 250 Q111 205 126.5 165.5 Q142 126 169.5 97.5 Q197 69 235.5 52.5 Q274 36 320 36 Q370 36 414 55.5 Q458 75 491 108 Q524 141 543.5 185.5 Q563 230 563 281 Q563 326 547 365 Q531 404 503 433 Q475 462 436 478.5 Q397 495 352 495 Z " />
<glyph glyph-name="one" unicode="1" horiz-adv-x="481" d="M256 46 L402 46 L395 0 L40 0 L48 46 L204 46 L282 485 L136 485 L144 531 L341 531 L256 46 Z " />
<glyph glyph-name="two" unicode="2" horiz-adv-x="541" d="M300 542 Q340 542 372.5 529.5 Q405 517 428 494.5 Q451 472 464 441.5 Q477 411 477 376 Q477 335 460 300.5 Q443 266 414 236 Q385 206 346.5 179.5 Q308 153 265 126 L138 46 L451 46 L443 0 L5 0 L7 16 L234 159 Q273 184 308 207.5 Q343 231 369 256 Q395 281 410 309.5 Q425 338 425 373 Q425 397 417 419.5 Q409 442 392.5 458.5 Q376 475 352 485 Q328 495 296 495 Q255 495 227 479.5 Q199 464 182 441 Q165 418 157.5 392 Q150 366 150 345 Q150 328 153 307 L102 307 Q100 319 99 329.5 Q98 340 98 348 Q98 385 112.5 420 Q127 455 153.5 482 Q180 509 217 525.5 Q254 542 300 542 Z " />
<glyph glyph-name="three" unicode="3" horiz-adv-x="510" d="M478 515 L251 284 Q286 279 317 264 Q348 249 371.5 225 Q395 201 409 167.5 Q423 134 423 94 Q423 52 407.5 11.5 Q392 -29 361.5 -61 Q331 -93 286.5 -113 Q242 -133 184 -133 Q138 -133 103 -120.5 Q68 -108 42 -87 Q16 -66 -2 -39.5 Q-20 -13 -32 15 L11 38 Q22 12 37 -10.5 Q52 -33 73 -49.5 Q94 -66 121.5 -76 Q149 -86 185 -86 Q232 -86 267 -70.5 Q302 -55 325 -29.5 Q348 -4 359.5 28 Q371 60 371 92 Q371 162 322.5 202 Q274 242 194 242 L160 242 L163 258 L385 485 L89 485 L97 531 L480 531 L478 515 Z " />
<glyph glyph-name="four" unicode="4" horiz-adv-x="528" d="M374 46 L475 46 L467 0 L366 0 L345 -121 L293 -121 L314 0 L-18 0 L-15 17 L294 531 L349 531 L57 46 L322 46 L364 285 L416 285 L374 46 Z " />
<glyph glyph-name="five" unicode="5" horiz-adv-x="536" d="M462 486 L190 486 L155 280 Q178 282 199.5 283 Q221 284 233 284 Q336 284 393 233.5 Q450 183 450 95 Q450 51 434.5 10 Q419 -31 389 -63 Q359 -95 314.5 -114 Q270 -133 213 -133 Q167 -133 131.5 -120.5 Q96 -108 69.5 -87.5 Q43 -67 24.5 -40.5 Q6 -14 -6 15 L36 38 Q62 -19 103 -52.5 Q144 -86 213 -86 Q260 -86 295 -70.5 Q330 -55 353 -29.5 Q376 -4 387 27.5 Q398 59 398 92 Q398 124 387.5 151 Q377 178 355 197.5 Q333 217 300.5 228 Q268 239 225 239 L96 239 L147 531 L470 531 L462 486 Z " />
<glyph glyph-name="six" unicode="6" horiz-adv-x="546" d="M206 399 Q240 416 284 416 Q327 416 364 400.5 Q401 385 428 358 Q455 331 470 294 Q485 257 485 214 Q485 167 467 126 Q449 85 417.5 55 Q386 25 344.5 8 Q303 -9 257 -9 Q212 -9 174 6.5 Q136 22 108.5 49.5 Q81 77 65 114.5 Q49 152 49 196 Q49 232 59 262 Q69 292 85.5 319.5 Q102 347 123 372.5 Q144 398 165 424 L357 660 L423 660 L206 399 Z M277 371 Q240 371 208 357.5 Q176 344 152 320 Q128 296 114.5 264 Q101 232 101 195 Q101 161 112.5 132 Q124 103 144.5 82 Q165 61 193.5 49 Q222 37 257 37 Q293 37 325 50.5 Q357 64 381 87.5 Q405 111 418.5 143 Q432 175 432 213 Q432 247 420.5 276 Q409 305 389 326 Q369 347 340 359 Q311 371 277 371 Z " />
<glyph glyph-name="seven" unicode="7" horiz-adv-x="490" d="M512 515 L58 -121 L-2 -121 L435 486 L76 486 L84 531 L515 531 L512 515 Z " />
<glyph glyph-name="eight" unicode="8" horiz-adv-x="572" d="M338 669 Q376 669 410.5 659.5 Q445 650 471 631 Q497 612 512.5 583 Q528 554 528 516 Q528 452 484.5 408 Q441 364 360 341 Q387 328 411.5 312 Q436 296 455.5 275.5 Q475 255 486.5 229.5 Q498 204 498 174 Q498 146 486.5 114 Q475 82 448.5 54.5 Q422 27 378.5 8.5 Q335 -10 272 -10 Q223 -10 181.5 2 Q140 14 110 36 Q80 58 63 89.5 Q46 121 46 160 Q46 199 62 230 Q78 261 105.5 284.5 Q133 308 170 324.5 Q207 341 249 351 Q200 378 169.5 413.5 Q139 449 139 500 Q139 531 151.5 561 Q164 591 189 615 Q214 639 251 654 Q288 669 338 669 Z M445 176 Q445 203 433 224 Q421 245 401 262 Q381 279 354.5 293.5 Q328 308 298 322 Q198 299 148 261 Q98 223 98 165 Q98 110 142 73 Q186 36 270 36 Q321 36 354.5 49.5 Q388 63 408 84 Q428 105 436.5 129.5 Q445 154 445 176 Z M337 622 Q302 622 274.5 612 Q247 602 228.5 585.5 Q210 569 200.5 547 Q191 525 191 501 Q191 456 222.5 427 Q254 398 308 370 Q341 379 371.5 391 Q402 403 425 419.5 Q448 436 461.5 458.5 Q475 481 475 511 Q475 538 464.5 558.5 Q454 579 435.5 593 Q417 607 392 614.5 Q367 622 337 622 Z " />
<glyph glyph-name="nine" unicode="9" horiz-adv-x="546" d="M299 542 Q344 542 382 526.5 Q420 511 447.5 483.5 Q475 456 491 418.5 Q507 381 507 337 Q507 301 497 270.5 Q487 240 470.5 213 Q454 186 433.5 160.5 Q413 135 392 109 L204 -121 L138 -121 L350 132 Q317 116 272 116 Q229 116 192 131.5 Q155 147 128 174 Q101 201 86 238 Q71 275 71 318 Q71 365 89 406 Q107 447 138.5 477 Q170 507 211 524.5 Q252 542 299 542 Z M298 495 Q262 495 230 482 Q198 469 174 445.5 Q150 422 136.5 389.5 Q123 357 123 319 Q123 285 134.5 256 Q146 227 166.5 206 Q187 185 215.5 173 Q244 161 279 161 Q316 161 348 174.5 Q380 188 403.5 212 Q427 236 440.5 268 Q454 300 454 337 Q454 371 442.5 400 Q431 429 410.5 450 Q390 471 361 483 Q332 495 298 495 Z " />
<glyph glyph-name="uni2780" unicode="&#x2780;" horiz-adv-x="984" d="M507 760 Q596 760 674.5 726 Q753 692 811.5 633.5 Q870 575 903.5 497 Q937 419 937 330 Q937 241 903.5 163 Q870 85 811.5 26.5 Q753 -32 674.5 -66 Q596 -100 507 -100 Q418 -100 339.5 -66.5 Q261 -33 202.5 25.5 Q144 84 110.5 162.5 Q77 241 77 330 Q77 419 110.5 497.5 Q144 576 202.5 634.5 Q261 693 339.5 726.5 Q418 760 507 760 Z M507 715 Q427 715 357 685 Q287 655 234.5 603 Q182 551 152 481 Q122 411 122 330 Q122 249 152 179 Q182 109 234.5 57 Q287 5 357 -25 Q427 -55 507 -55 Q587 -55 657 -25 Q727 5 779 57 Q831 109 861 179.5 Q891 250 891 330 Q891 410 861 480.5 Q831 551 779 603 Q727 655 657 685 Q587 715 507 715 Z M536 147 L633 147 L633 105 L383 105 L383 147 L488 147 L488 512 L390 512 L390 554 L536 554 L536 147 Z " />
<glyph glyph-name="uni2781" unicode="&#x2781;" horiz-adv-x="984" d="M507 760 Q596 760 674.5 726 Q753 692 811.5 633.5 Q870 575 903.5 497 Q937 419 937 330 Q937 241 903.5 163 Q870 85 811.5 26.5 Q753 -32 674.5 -66 Q596 -100 507 -100 Q418 -100 339.5 -66.5 Q261 -33 202.5 25.5 Q144 84 110.5 162.5 Q77 241 77 330 Q77 419 110.5 497.5 Q144 576 202.5 634.5 Q261 693 339.5 726.5 Q418 760 507 760 Z M507 715 Q427 715 357 685 Q287 655 234.5 603 Q182 551 152 481 Q122 411 122 330 Q122 249 152 179 Q182 109 234.5 57 Q287 5 357 -25 Q427 -55 507 -55 Q587 -55 657 -25 Q727 5 779 57 Q831 109 861 179.5 Q891 250 891 330 Q891 410 861 480.5 Q831 551 779 603 Q727 655 657 685 Q587 715 507 715 Z M502 561 Q534 561 560 551 Q586 541 604.5 523 Q623 505 633 480.5 Q643 456 643 428 Q643 403 635.5 381.5 Q628 360 615.5 340 Q603 320 586.5 301 Q570 282 552 264 L438 147 L664 147 L664 105 L353 105 L353 118 L514 287 Q546 320 570 353 Q594 386 594 427 Q594 464 570 490.5 Q546 517 500 517 Q452 517 425.5 488.5 Q399 460 399 420 Q399 410 401 399 Q403 388 405 378 L360 378 Q355 401 355 424 Q355 451 365.5 475.5 Q376 500 395 519 Q414 538 441 549.5 Q468 561 502 561 Z " />
<glyph glyph-name="uni2782" unicode="&#x2782;" horiz-adv-x="984" d="M507 760 Q596 760 674.5 726 Q753 692 811.5 633.5 Q870 575 903.5 497 Q937 419 937 330 Q937 241 903.5 163 Q870 85 811.5 26.5 Q753 -32 674.5 -66 Q596 -100 507 -100 Q418 -100 339.5 -66.5 Q261 -33 202.5 25.5 Q144 84 110.5 162.5 Q77 241 77 330 Q77 419 110.5 497.5 Q144 576 202.5 634.5 Q261 693 339.5 726.5 Q418 760 507 760 Z M640 539 L515 382 Q540 380 565 371.5 Q590 363 609 346.5 Q628 330 640 305 Q652 280 652 246 Q652 211 639 184 Q626 157 604 137.5 Q582 118 553 108 Q524 98 493 98 Q466 98 442.5 105.5 Q419 113 400.5 126 Q382 139 367 155 Q352 171 342 189 L377 214 Q395 187 422.5 164.5 Q450 142 493 142 Q540 142 570.5 171 Q601 200 601 246 Q601 291 571 316.5 Q541 342 484 342 L441 342 L441 356 L565 511 L372 511 L372 554 L640 554 L640 539 Z M507 715 Q427 715 357 685 Q287 655 234.5 603 Q182 551 152 481 Q122 411 122 330 Q122 249 152 179 Q182 109 234.5 57 Q287 5 357 -25 Q427 -55 507 -55 Q587 -55 657 -25 Q727 5 779 57 Q831 109 861 179.5 Q891 250 891 330 Q891 410 861 480.5 Q831 551 779 603 Q727 655 657 685 Q587 715 507 715 Z " />
<glyph glyph-name="uni2783" unicode="&#x2783;" horiz-adv-x="984" d="M507 760 Q596 760 674.5 726 Q753 692 811.5 633.5 Q870 575 903.5 497 Q937 419 937 330 Q937 241 903.5 163 Q870 85 811.5 26.5 Q753 -32 674.5 -66 Q596 -100 507 -100 Q418 -100 339.5 -66.5 Q261 -33 202.5 25.5 Q144 84 110.5 162.5 Q77 241 77 330 Q77 419 110.5 497.5 Q144 576 202.5 634.5 Q261 693 339.5 726.5 Q418 760 507 760 Z M387 232 L553 232 L553 383 L601 383 L601 232 L667 232 L667 189 L601 189 L601 105 L553 105 L553 189 L327 189 L327 204 L473 554 L523 554 L387 232 Z M507 715 Q427 715 357 685 Q287 655 234.5 603 Q182 551 152 481 Q122 411 122 330 Q122 249 152 179 Q182 109 234.5 57 Q287 5 357 -25 Q427 -55 507 -55 Q587 -55 657 -25 Q727 5 779 57 Q831 109 861 179.5 Q891 250 891 330 Q891 410 861 480.5 Q831 551 779 603 Q727 655 657 685 Q587 715 507 715 Z " />
<glyph glyph-name="uni2784" unicode="&#x2784;" horiz-adv-x="984" d="M507 760 Q596 760 674.5 726 Q753 692 811.5 633.5 Q870 575 903.5 497 Q937 419 937 330 Q937 241 903.5 163 Q870 85 811.5 26.5 Q753 -32 674.5 -66 Q596 -100 507 -100 Q418 -100 339.5 -66.5 Q261 -33 202.5 25.5 Q144 84 110.5 162.5 Q77 241 77 330 Q77 419 110.5 497.5 Q144 576 202.5 634.5 Q261 693 339.5 726.5 Q418 760 507 760 Z M624 511 L441 511 L441 381 Q458 383 473.5 384 Q489 385 509 385 Q539 385 567 376.5 Q595 368 616 351 Q637 334 650 308 Q663 282 663 247 Q663 212 650 184 Q637 156 615 136.5 Q593 117 564.5 107 Q536 97 505 97 Q476 97 452.5 105 Q429 113 410 125.5 Q391 138 376 154.5 Q361 171 351 189 L386 214 Q405 187 432.5 164 Q460 141 505 141 Q552 141 582.5 170 Q613 199 613 246 Q613 292 582.5 317 Q552 342 495 342 L394 342 L394 554 L624 554 L624 511 Z M507 715 Q427 715 357 685 Q287 655 234.5 603 Q182 551 152 481 Q122 411 122 330 Q122 249 152 179 Q182 109 234.5 57 Q287 5 357 -25 Q427 -55 507 -55 Q587 -55 657 -25 Q727 5 779 57 Q831 109 861 179.5 Q891 250 891 330 Q891 410 861 480.5 Q831 551 779 603 Q727 655 657 685 Q587 715 507 715 Z " />
<glyph glyph-name="uni2785" unicode="&#x2785;" horiz-adv-x="984" d="M507 760 Q596 760 674.5 726 Q753 692 811.5 633.5 Q870 575 903.5 497 Q937 419 937 330 Q937 241 903.5 163 Q870 85 811.5 26.5 Q753 -32 674.5 -66 Q596 -100 507 -100 Q418 -100 339.5 -66.5 Q261 -33 202.5 25.5 Q144 84 110.5 162.5 Q77 241 77 330 Q77 419 110.5 497.5 Q144 576 202.5 634.5 Q261 693 339.5 726.5 Q418 760 507 760 Z M497 352 Q453 352 424 322 Q395 292 395 247 Q395 224 403 205 Q411 186 424.5 172 Q438 158 456.5 150 Q475 142 497 142 Q542 142 571.5 172 Q601 202 601 247 Q601 292 571.5 322 Q542 352 497 352 Z M457 379 Q482 393 515 390 Q543 388 567.5 376.5 Q592 365 610.5 346 Q629 327 639.5 301.5 Q650 276 650 247 Q650 215 638 188 Q626 161 605.5 141 Q585 121 557 109.5 Q529 98 497 98 Q466 98 438.5 109.5 Q411 121 390.5 141 Q370 161 358 188 Q346 215 346 247 Q346 268 350.5 285.5 Q355 303 363.5 319.5 Q372 336 383 353.5 Q394 371 408 391 L520 554 L577 554 L457 379 Z M507 715 Q427 715 357 685 Q287 655 234.5 603 Q182 551 152 481 Q122 411 122 330 Q122 249 152 179 Q182 109 234.5 57 Q287 5 357 -25 Q427 -55 507 -55 Q587 -55 657 -25 Q727 5 779 57 Q831 109 861 179.5 Q891 250 891 330 Q891 410 861 480.5 Q831 551 779 603 Q727 655 657 685 Q587 715 507 715 Z " />
<glyph glyph-name="uni2786" unicode="&#x2786;" horiz-adv-x="984" d="M507 760 Q596 760 674.5 726 Q753 692 811.5 633.5 Q870 575 903.5 497 Q937 419 937 330 Q937 241 903.5 163 Q870 85 811.5 26.5 Q753 -32 674.5 -66 Q596 -100 507 -100 Q418 -100 339.5 -66.5 Q261 -33 202.5 25.5 Q144 84 110.5 162.5 Q77 241 77 330 Q77 419 110.5 497.5 Q144 576 202.5 634.5 Q261 693 339.5 726.5 Q418 760 507 760 Z M507 715 Q427 715 357 685 Q287 655 234.5 603 Q182 551 152 481 Q122 411 122 330 Q122 249 152 179 Q182 109 234.5 57 Q287 5 357 -25 Q427 -55 507 -55 Q587 -55 657 -25 Q727 5 779 57 Q831 109 861 179.5 Q891 250 891 330 Q891 410 861 480.5 Q831 551 779 603 Q727 655 657 685 Q587 715 507 715 Z M667 541 L437 106 L385 106 L603 511 L369 511 L369 555 L667 555 L667 541 Z " />
<glyph glyph-name="uni2787" unicode="&#x2787;" horiz-adv-x="984" d="M507 760 Q596 760 674.5 726 Q753 692 811.5 633.5 Q870 575 903.5 497 Q937 419 937 330 Q937 241 903.5 163 Q870 85 811.5 26.5 Q753 -32 674.5 -66 Q596 -100 507 -100 Q418 -100 339.5 -66.5 Q261 -33 202.5 25.5 Q144 84 110.5 162.5 Q77 241 77 330 Q77 419 110.5 497.5 Q144 576 202.5 634.5 Q261 693 339.5 726.5 Q418 760 507 760 Z M507 320 Q486 312 466.5 304 Q447 296 432 284.5 Q417 273 408.5 257.5 Q400 242 400 221 Q400 185 427.5 162 Q455 139 508 139 Q559 139 587 162 Q615 185 615 221 Q615 242 606.5 257.5 Q598 273 583 284.5 Q568 296 548.5 304 Q529 312 507 320 Z M508 561 Q536 561 560.5 554 Q585 547 603 532.5 Q621 518 631.5 497.5 Q642 477 642 450 Q642 412 620 385.5 Q598 359 556 341 Q576 333 595.5 322 Q615 311 630 296.5 Q645 282 654.5 262.5 Q664 243 664 219 Q664 165 621.5 131.5 Q579 98 508 98 Q436 98 393.5 132 Q351 166 351 220 Q351 267 383 295.5 Q415 324 461 340 Q421 357 397 383.5 Q373 410 373 451 Q373 478 383.5 498.5 Q394 519 412.5 533 Q431 547 455.5 554 Q480 561 508 561 Z M507 715 Q427 715 357 685 Q287 655 234.5 603 Q182 551 152 481 Q122 411 122 330 Q122 249 152 179 Q182 109 234.5 57 Q287 5 357 -25 Q427 -55 507 -55 Q587 -55 657 -25 Q727 5 779 57 Q831 109 861 179.5 Q891 250 891 330 Q891 410 861 480.5 Q831 551 779 603 Q727 655 657 685 Q587 715 507 715 Z M508 521 Q470 521 445.5 501.5 Q421 482 421 448 Q421 414 445 395 Q469 376 507 362 Q545 376 570 395 Q595 414 595 448 Q595 482 570 501.5 Q545 521 508 521 Z " />
<glyph glyph-name="uni2788" unicode="&#x2788;" horiz-adv-x="984" d="M507 760 Q596 760 674.5 726.5 Q753 693 811.5 634.5 Q870 576 903.5 497.5 Q937 419 937 330 Q937 241 903.5 162.5 Q870 84 811.5 25.5 Q753 -33 674.5 -66.5 Q596 -100 507 -100 Q418 -100 339.5 -66 Q261 -32 202.5 26.5 Q144 85 110.5 163 Q77 241 77 330 Q77 419 110.5 497 Q144 575 202.5 633.5 Q261 692 339.5 726 Q418 760 507 760 Z M507 715 Q427 715 357 685 Q287 655 234.5 603 Q182 551 152 480.5 Q122 410 122 330 Q122 250 152 179.5 Q182 109 234.5 57 Q287 5 357 -25 Q427 -55 507 -55 Q587 -55 657 -25 Q727 5 779 57 Q831 109 861 179 Q891 249 891 330 Q891 411 861 481 Q831 551 779 603 Q727 655 657 685 Q587 715 507 715 Z M517 562 Q548 562 576 550.5 Q604 539 624.5 519 Q645 499 657 472 Q669 445 669 413 Q669 372 651.5 340.5 Q634 309 607 269 L495 106 L437 106 L558 281 Q533 267 500 270 Q471 271 446.5 283 Q422 295 404 314 Q386 333 375.5 358.5 Q365 384 365 413 Q365 445 377 472 Q389 499 409.5 519 Q430 539 457.5 550.5 Q485 562 517 562 Z M517 518 Q473 518 443.5 488 Q414 458 414 413 Q414 368 443.5 338 Q473 308 517 308 Q562 308 591 338.5 Q620 369 620 413 Q620 435 612 454.5 Q604 474 590.5 488 Q577 502 558 510 Q539 518 517 518 Z " />
<glyph glyph-name="uni24FF" unicode="&#x24ff;" horiz-adv-x="984" d="M507 760 Q596 760 674.5 726 Q753 692 811.5 633.5 Q870 575 903.5 497 Q937 419 937 330 Q937 241 903.5 163 Q870 85 811.5 26.5 Q753 -32 674.5 -66 Q596 -100 507 -100 Q418 -100 339.5 -66.5 Q261 -33 202.5 25.5 Q144 84 110.5 162.5 Q77 241 77 330 Q77 419 110.5 497.5 Q144 576 202.5 634.5 Q261 693 339.5 726.5 Q418 760 507 760 Z M507 561 Q465 561 434.5 544 Q404 527 384 496.5 Q364 466 354.5 424 Q345 382 345 333 Q345 285 354 242.5 Q363 200 382.5 168 Q402 136 432.5 117 Q463 98 507 98 Q550 98 581 117 Q612 136 631.5 168 Q651 200 660.5 242.5 Q670 285 670 333 Q670 382 660.5 424 Q651 466 631 496.5 Q611 527 580 544 Q549 561 507 561 Z M507 517 Q538 517 559.5 503.5 Q581 490 594.5 465.5 Q608 441 614 407 Q620 373 620 333 Q620 292 614 257 Q608 222 594.5 196.5 Q581 171 559.5 156.5 Q538 142 507 142 Q477 142 455.5 156.5 Q434 171 420.5 196.5 Q407 222 401 257 Q395 292 395 333 Q395 373 401 407 Q407 441 420.5 465.5 Q434 490 455.5 503.5 Q477 517 507 517 Z " />
<glyph glyph-name="uni2776" unicode="&#x2776;" horiz-adv-x="984" d="M507 760 Q596 760 674.5 726 Q753 692 811.5 633.5 Q870 575 903.5 497 Q937 419 937 330 Q937 241 903.5 163 Q870 85 811.5 26.5 Q753 -32 674.5 -66 Q596 -100 507 -100 Q418 -100 339.5 -66.5 Q261 -33 202.5 25.5 Q144 84 110.5 162.5 Q77 241 77 330 Q77 419 110.5 497.5 Q144 576 202.5 634.5 Q261 693 339.5 726.5 Q418 760 507 760 Z M390 554 L390 512 L488 512 L488 147 L383 147 L383 105 L633 105 L633 147 L536 147 L536 554 L390 554 Z " />
<glyph glyph-name="uni2777" unicode="&#x2777;" horiz-adv-x="984" d="M507 760 Q596 760 674.5 726 Q753 692 811.5 633.5 Q870 575 903.5 497 Q937 419 937 330 Q937 241 903.5 163 Q870 85 811.5 26.5 Q753 -32 674.5 -66 Q596 -100 507 -100 Q418 -100 339.5 -66.5 Q261 -33 202.5 25.5 Q144 84 110.5 162.5 Q77 241 77 330 Q77 419 110.5 497.5 Q144 576 202.5 634.5 Q261 693 339.5 726.5 Q418 760 507 760 Z M502 561 Q468 561 441 549.5 Q414 538 395 519 Q376 500 365.5 475.5 Q355 451 355 424 Q355 401 360 378 L405 378 Q403 388 401 399 Q399 410 399 420 Q399 460 425.5 488.5 Q452 517 500 517 Q546 517 570 490.5 Q594 464 594 427 Q594 386 570 353 Q546 320 514 287 L353 118 L353 105 L664 105 L664 147 L438 147 L552 264 Q570 282 586.5 301 Q603 320 615.5 340 Q628 360 635.5 381.5 Q643 403 643 428 Q643 456 633 480.5 Q623 505 604.5 523 Q586 541 560 551 Q534 561 502 561 Z " />
<glyph glyph-name="uni2778" unicode="&#x2778;" horiz-adv-x="984" d="M507 760 Q596 760 674.5 726 Q753 692 811.5 633.5 Q870 575 903.5 497 Q937 419 937 330 Q937 241 903.5 163 Q870 85 811.5 26.5 Q753 -32 674.5 -66 Q596 -100 507 -100 Q418 -100 339.5 -66.5 Q261 -33 202.5 25.5 Q144 84 110.5 162.5 Q77 241 77 330 Q77 419 110.5 497.5 Q144 576 202.5 634.5 Q261 693 339.5 726.5 Q418 760 507 760 Z M372 554 L372 511 L565 511 L441 356 L441 342 L484 342 Q541 342 571 316.5 Q601 291 601 246 Q601 200 570.5 171 Q540 142 493 142 Q450 142 422.5 164.5 Q395 187 377 214 L342 189 Q352 171 367 155 Q382 139 400.5 126 Q419 113 442.5 105.5 Q466 98 493 98 Q524 98 553 108 Q582 118 604 137.5 Q626 157 639 184 Q652 211 652 246 Q652 280 640 305 Q628 330 609 346.5 Q590 363 565 371.5 Q540 380 515 382 L640 539 L640 554 L372 554 Z " />
<glyph glyph-name="uni2779" unicode="&#x2779;" horiz-adv-x="984" d="M507 760 Q596 760 674.5 726 Q753 692 811.5 633.5 Q870 575 903.5 497 Q937 419 937 330 Q937 241 903.5 163 Q870 85 811.5 26.5 Q753 -32 674.5 -66 Q596 -100 507 -100 Q418 -100 339.5 -66.5 Q261 -33 202.5 25.5 Q144 84 110.5 162.5 Q77 241 77 330 Q77 419 110.5 497.5 Q144 576 202.5 634.5 Q261 693 339.5 726.5 Q418 760 507 760 Z M473 554 L327 204 L327 189 L553 189 L553 105 L601 105 L601 189 L667 189 L667 232 L601 232 L601 383 L553 383 L553 232 L387 232 L523 554 L473 554 Z " />
<glyph glyph-name="uni277A" unicode="&#x277a;" horiz-adv-x="984" d="M507 760 Q596 760 674.5 726 Q753 692 811.5 633.5 Q870 575 903.5 497 Q937 419 937 330 Q937 241 903.5 163 Q870 85 811.5 26.5 Q753 -32 674.5 -66 Q596 -100 507 -100 Q418 -100 339.5 -66.5 Q261 -33 202.5 25.5 Q144 84 110.5 162.5 Q77 241 77 330 Q77 419 110.5 497.5 Q144 576 202.5 634.5 Q261 693 339.5 726.5 Q418 760 507 760 Z M394 554 L394 342 L495 342 Q552 342 582.5 317 Q613 292 613 246 Q613 199 582.5 170 Q552 141 505 141 Q460 141 432 164 Q404 187 386 214 L351 189 Q361 171 375.5 154.5 Q390 138 409.5 125.5 Q429 113 452.5 105 Q476 97 505 97 Q536 97 564 107 Q592 117 614 136.5 Q636 156 649 184 Q662 212 662 247 Q662 282 649.5 308 Q637 334 615.5 351 Q594 368 566.5 376.5 Q539 385 509 385 Q489 385 473.5 384 Q458 383 441 381 L441 511 L623 511 L623 554 L394 554 Z " />
<glyph glyph-name="uni277B" unicode="&#x277b;" horiz-adv-x="984" d="M507 760 Q596 760 674.5 726 Q753 692 811.5 633.5 Q870 575 903.5 497 Q937 419 937 330 Q937 241 903.5 163 Q870 85 811.5 26.5 Q753 -32 674.5 -66 Q596 -100 507 -100 Q418 -100 339.5 -66.5 Q261 -33 202.5 25.5 Q144 84 110.5 162.5 Q77 241 77 330 Q77 419 110.5 497.5 Q144 576 202.5 634.5 Q261 693 339.5 726.5 Q418 760 507 760 Z M497 352 Q542 352 571.5 322 Q601 292 601 247 Q601 202 571.5 172 Q542 142 497 142 Q475 142 456.5 150 Q438 158 424.5 172 Q411 186 403 205 Q395 224 395 247 Q395 292 424 322 Q453 352 497 352 Z M520 554 L408 391 Q394 371 383 353.5 Q372 336 363.5 319.5 Q355 303 350.5 285.5 Q346 268 346 247 Q346 215 358 188 Q370 161 390.5 141 Q411 121 438.5 109.5 Q466 98 497 98 Q529 98 557 109.5 Q585 121 605.5 141 Q626 161 638 188 Q650 215 650 247 Q650 276 639.5 301.5 Q629 327 610.5 346 Q592 365 567.5 376.5 Q543 388 515 390 Q482 393 457 379 L577 554 L520 554 Z " />
<glyph glyph-name="uni277C" unicode="&#x277c;" horiz-adv-x="984" d="M507 760 Q596 760 674.5 726 Q753 692 811.5 633.5 Q870 575 903.5 497 Q937 419 937 330 Q937 241 903.5 163 Q870 85 811.5 26.5 Q753 -32 674.5 -66 Q596 -100 507 -100 Q418 -100 339.5 -66.5 Q261 -33 202.5 25.5 Q144 84 110.5 162.5 Q77 241 77 330 Q77 419 110.5 497.5 Q144 576 202.5 634.5 Q261 693 339.5 726.5 Q418 760 507 760 Z M370 555 L370 511 L604 511 L386 106 L438 106 L668 541 L668 555 L370 555 Z " />
<glyph glyph-name="uni277D" unicode="&#x277d;" horiz-adv-x="984" d="M507 760 Q596 760 674.5 726 Q753 692 811.5 633.5 Q870 575 903.5 497 Q937 419 937 330 Q937 241 903.5 163 Q870 85 811.5 26.5 Q753 -32 674.5 -66 Q596 -100 507 -100 Q418 -100 339.5 -66.5 Q261 -33 202.5 25.5 Q144 84 110.5 162.5 Q77 241 77 330 Q77 419 110.5 497.5 Q144 576 202.5 634.5 Q261 693 339.5 726.5 Q418 760 507 760 Z M507 320 Q529 312 548.5 304 Q568 296 583 284.5 Q598 273 606.5 257.5 Q615 242 615 221 Q615 185 587 162 Q559 139 508 139 Q455 139 427.5 162 Q400 185 400 221 Q400 242 408.5 257.5 Q417 273 432 284.5 Q447 296 466.5 304 Q486 312 507 320 Z M508 561 Q480 561 455.5 554 Q431 547 412.5 533 Q394 519 383.5 498.5 Q373 478 373 451 Q373 410 397 383.5 Q421 357 461 340 Q415 324 383 295.5 Q351 267 351 220 Q351 166 393.5 132 Q436 98 508 98 Q579 98 621.5 131.5 Q664 165 664 219 Q664 243 654.5 262.5 Q645 282 630 296.5 Q615 311 595.5 322 Q576 333 556 341 Q598 359 620 385.5 Q642 412 642 450 Q642 477 631.5 497.5 Q621 518 603 532.5 Q585 547 560.5 554 Q536 561 508 561 Z M508 521 Q545 521 570 501.5 Q595 482 595 448 Q595 414 570 395 Q545 376 507 362 Q469 376 445 395 Q421 414 421 448 Q421 482 445.5 501.5 Q470 521 508 521 Z " />
<glyph glyph-name="uni277E" unicode="&#x277e;" horiz-adv-x="984" d="M507 760 Q596 760 674.5 726.5 Q753 693 811.5 634.5 Q870 576 903.5 497.5 Q937 419 937 330 Q937 241 903.5 162.5 Q870 84 811.5 25.5 Q753 -33 674.5 -66.5 Q596 -100 507 -100 Q418 -100 339.5 -66 Q261 -32 202.5 26.5 Q144 85 110.5 163 Q77 241 77 330 Q77 419 110.5 497 Q144 575 202.5 633.5 Q261 692 339.5 726 Q418 760 507 760 Z M517 562 Q485 562 457.5 550.5 Q430 539 409.5 519 Q389 499 377 472 Q365 445 365 413 Q365 384 375.5 358.5 Q386 333 404 314 Q422 295 446.5 283 Q471 271 500 270 Q533 267 558 281 L437 106 L495 106 L607 269 Q634 309 651.5 340.5 Q669 372 669 413 Q669 445 657 472 Q645 499 624.5 519 Q604 539 576 550.5 Q548 562 517 562 Z M517 518 Q539 518 558 510 Q577 502 590.5 488 Q604 474 612 454.5 Q620 435 620 413 Q620 369 591 338.5 Q562 308 517 308 Q473 308 443.5 338 Q414 368 414 413 Q414 458 443.5 488 Q473 518 517 518 Z " />
<glyph glyph-name="uni24EA" unicode="&#x24ea;" horiz-adv-x="984" d="M507 760 Q596 760 674.5 726 Q753 692 811.5 633.5 Q870 575 903.5 497 Q937 419 937 330 Q937 241 903.5 163 Q870 85 811.5 26.5 Q753 -32 674.5 -66 Q596 -100 507 -100 Q418 -100 339.5 -66.5 Q261 -33 202.5 25.5 Q144 84 110.5 162.5 Q77 241 77 330 Q77 419 110.5 497.5 Q144 576 202.5 634.5 Q261 693 339.5 726.5 Q418 760 507 760 Z M507 561 Q549 561 580 544 Q611 527 630.5 496.5 Q650 466 659.5 424 Q669 382 669 333 Q669 285 660 242.5 Q651 200 631.5 168 Q612 136 581 117 Q550 98 507 98 Q464 98 433.5 117 Q403 136 383.5 168 Q364 200 355 242.5 Q346 285 346 333 Q346 382 355.5 424 Q365 466 385 496.5 Q405 527 435 544 Q465 561 507 561 Z M507 519 Q476 519 454 505.5 Q432 492 418.5 467 Q405 442 399 408 Q393 374 393 333 Q393 292 399.5 256.5 Q406 221 419.5 195 Q433 169 454.5 154.5 Q476 140 507 140 Q538 140 560 154.5 Q582 169 595.5 195 Q609 221 615.5 256.5 Q622 292 622 333 Q622 374 615.5 408 Q609 442 595.5 467 Q582 492 560 505.5 Q538 519 507 519 Z M507 718 Q427 718 356.5 687.5 Q286 657 233.5 604.5 Q181 552 150.5 481.5 Q120 411 120 330 Q120 249 150.5 178 Q181 107 233.5 54.5 Q286 2 356.5 -28 Q427 -58 507 -58 Q588 -58 658.5 -27.5 Q729 3 781.5 55.5 Q834 108 864 178.5 Q894 249 894 330 Q894 411 864 481.5 Q834 552 781.5 604.5 Q729 657 658.5 687.5 Q588 718 507 718 Z " />
<glyph glyph-name="fraction" unicode="&#x2044;" horiz-adv-x="250" d="M-83 0 L-131 0 L364 660 L412 660 L-83 0 Z " />
<glyph glyph-name="onehalf" unicode="&#xbd;" horiz-adv-x="924" d="M211 286 L307 286 L300 244 L50 244 L58 286 L165 286 L224 618 L117 618 L125 660 L277 660 L211 286 Z M263 0 L215 0 L710 660 L758 660 L263 0 Z M751 423 Q810 423 842.5 390 Q875 357 875 306 Q875 261 847 220.5 Q819 180 759 131 L651 43 L849 43 L841 1 L555 1 L557 13 L735 162 Q783 201 805.5 234.5 Q828 268 828 303 Q828 338 807 359.5 Q786 381 749 381 Q725 381 708 372 Q691 363 680 348.5 Q669 334 664 315.5 Q659 297 659 279 L659 262 L614 262 Q613 266 613 271 Q613 276 613 281 Q613 306 621 331.5 Q629 357 646 377 Q663 397 689 410 Q715 423 751 423 Z " />
<glyph glyph-name="uni2153" unicode="&#x2153;" horiz-adv-x="948" d="M211 286 L307 286 L300 244 L50 244 L58 286 L165 286 L224 618 L117 618 L125 660 L277 660 L211 286 Z M263 0 L215 0 L710 660 L758 660 L263 0 Z M919 403 L783 259 Q825 251 854.5 219.5 Q884 188 884 139 Q884 113 874.5 87 Q865 61 845.5 40.5 Q826 20 797.5 7.5 Q769 -5 732 -5 Q702 -5 679.5 3 Q657 11 640 24.5 Q623 38 611.5 55 Q600 72 593 91 L630 111 Q644 79 667.5 57.5 Q691 36 732 36 Q759 36 779 45 Q799 54 811.5 68.5 Q824 83 830.5 101 Q837 119 837 137 Q837 177 810 199.5 Q783 222 735 222 L708 222 L707 222 L709 236 L839 375 L668 375 L676 417 L922 417 L919 403 Z " />
<glyph glyph-name="uni2154" unicode="&#x2154;" horiz-adv-x="965" d="M233 666 Q292 666 324.5 633 Q357 600 357 549 Q357 504 329 463.5 Q301 423 241 374 L133 286 L331 286 L323 244 L37 244 L39 256 L217 405 Q265 444 287.5 477.5 Q310 511 310 546 Q310 581 289 602.5 Q268 624 231 624 Q207 624 190 615 Q173 606 162 591.5 Q151 577 146 558.5 Q141 540 141 522 L141 505 L96 505 Q95 509 95 514 Q95 519 95 524 Q95 549 103 574.5 Q111 600 128 620 Q145 640 171 653 Q197 666 233 666 Z M280 0 L232 0 L727 660 L775 660 L280 0 Z M936 403 L800 259 Q842 251 871.5 219.5 Q901 188 901 139 Q901 113 891.5 87 Q882 61 862.5 40.5 Q843 20 814.5 7.5 Q786 -5 749 -5 Q719 -5 696.5 3 Q674 11 657 24.5 Q640 38 628.5 55 Q617 72 610 91 L647 111 Q661 79 684.5 57.5 Q708 36 749 36 Q776 36 796 45 Q816 54 828.5 68.5 Q841 83 847.5 101 Q854 119 854 137 Q854 177 827 199.5 Q800 222 752 222 L725 222 L724 222 L726 236 L856 375 L685 375 L693 417 L939 417 L936 403 Z " />
<glyph glyph-name="onequarter" unicode="&#xbc;" horiz-adv-x="885" d="M211 286 L307 286 L300 244 L50 244 L58 286 L165 286 L224 618 L117 618 L125 660 L277 660 L211 286 Z M263 0 L215 0 L710 660 L758 660 L263 0 Z M783 120 L844 120 L837 79 L776 79 L763 1 L718 1 L732 79 L524 79 L526 93 L714 417 L765 417 L591 120 L739 120 L764 260 L808 260 L783 120 Z " />
<glyph glyph-name="threequarters" unicode="&#xbe;" horiz-adv-x="855" d="M366 646 L230 502 Q272 494 301.5 462.5 Q331 431 331 382 Q331 356 321.5 330 Q312 304 292.5 283.5 Q273 263 244.5 250.5 Q216 238 179 238 Q149 238 126.5 246 Q104 254 87 267.5 Q70 281 58.5 298 Q47 315 40 334 L77 354 Q91 322 114.5 300.5 Q138 279 179 279 Q206 279 226 288 Q246 297 258.5 311.5 Q271 326 277.5 344 Q284 362 284 380 Q284 420 257 442.5 Q230 465 182 465 L155 465 L154 465 L156 479 L286 618 L115 618 L123 660 L369 660 L366 646 Z M233 0 L185 0 L680 660 L728 660 L233 0 Z M753 120 L814 120 L807 79 L746 79 L733 1 L688 1 L702 79 L494 79 L496 93 L684 417 L735 417 L561 120 L709 120 L734 260 L778 260 L753 120 Z " />
<glyph glyph-name="uni2155" unicode="&#x2155;" horiz-adv-x="952" d="M211 286 L307 286 L300 244 L50 244 L58 286 L165 286 L224 618 L117 618 L125 660 L277 660 L211 286 Z M263 0 L215 0 L710 660 L758 660 L263 0 Z M897 375 L730 375 L710 258 Q721 259 732.5 259.5 Q744 260 753 260 Q816 260 852.5 229 Q889 198 889 141 Q889 113 879 86.5 Q869 60 849.5 40 Q830 20 802 7.5 Q774 -5 737 -5 Q707 -5 684 3 Q661 11 644 24 Q627 37 614.5 54.5 Q602 72 595 91 L632 111 Q648 76 672.5 56.5 Q697 37 737 37 Q764 37 783.5 45.5 Q803 54 815.5 68.5 Q828 83 834.5 101 Q841 119 841 137 Q841 174 817 197.5 Q793 221 742 221 L658 221 L693 417 L905 417 L897 375 Z " />
<glyph glyph-name="uni2156" unicode="&#x2156;" horiz-adv-x="969" d="M233 666 Q292 666 324.5 633 Q357 600 357 549 Q357 504 329 463.5 Q301 423 241 374 L133 286 L331 286 L323 244 L37 244 L39 256 L217 405 Q265 444 287.5 477.5 Q310 511 310 546 Q310 581 289 602.5 Q268 624 231 624 Q207 624 190 615 Q173 606 162 591.5 Q151 577 146 558.5 Q141 540 141 522 L141 505 L96 505 Q95 509 95 514 Q95 519 95 524 Q95 549 103 574.5 Q111 600 128 620 Q145 640 171 653 Q197 666 233 666 Z M280 0 L232 0 L727 660 L775 660 L280 0 Z M914 375 L747 375 L727 258 Q738 259 749.5 259.5 Q761 260 770 260 Q833 260 869.5 229 Q906 198 906 141 Q906 113 896 86.5 Q886 60 866.5 40 Q847 20 819 7.5 Q791 -5 754 -5 Q724 -5 701 3 Q678 11 661 24 Q644 37 631.5 54.5 Q619 72 612 91 L649 111 Q665 76 689.5 56.5 Q714 37 754 37 Q781 37 800.5 45.5 Q820 54 832.5 68.5 Q845 83 851.5 101 Q858 119 858 137 Q858 174 834 197.5 Q810 221 759 221 L675 221 L710 417 L922 417 L914 375 Z " />
<glyph glyph-name="uni2157" unicode="&#x2157;" horiz-adv-x="922" d="M366 646 L230 502 Q272 494 301.5 462.5 Q331 431 331 382 Q331 356 321.5 330 Q312 304 292.5 283.5 Q273 263 244.5 250.5 Q216 238 179 238 Q149 238 126.5 246 Q104 254 87 267.5 Q70 281 58.5 298 Q47 315 40 334 L77 354 Q91 322 114.5 300.5 Q138 279 179 279 Q206 279 226 288 Q246 297 258.5 311.5 Q271 326 277.5 344 Q284 362 284 380 Q284 420 257 442.5 Q230 465 182 465 L155 465 L154 465 L156 479 L286 618 L115 618 L123 660 L369 660 L366 646 Z M233 0 L185 0 L680 660 L728 660 L233 0 Z M867 375 L700 375 L680 258 Q691 259 702.5 259.5 Q714 260 723 260 Q786 260 822.5 229 Q859 198 859 141 Q859 113 849 86.5 Q839 60 819.5 40 Q800 20 772 7.5 Q744 -5 707 -5 Q677 -5 654 3 Q631 11 614 24 Q597 37 584.5 54.5 Q572 72 565 91 L602 111 Q618 76 642.5 56.5 Q667 37 707 37 Q734 37 753.5 45.5 Q773 54 785.5 68.5 Q798 83 804.5 101 Q811 119 811 137 Q811 174 787 197.5 Q763 221 712 221 L628 221 L663 417 L875 417 L867 375 Z " />
<glyph glyph-name="uni2158" unicode="&#x2158;" horiz-adv-x="965" d="M290 363 L351 363 L344 322 L283 322 L270 244 L225 244 L239 322 L31 322 L33 336 L221 660 L272 660 L98 363 L246 363 L271 503 L315 503 L290 363 Z M276 0 L228 0 L723 660 L771 660 L276 0 Z M910 375 L743 375 L723 258 Q734 259 745.5 259.5 Q757 260 766 260 Q829 260 865.5 229 Q902 198 902 141 Q902 113 892 86.5 Q882 60 862.5 40 Q843 20 815 7.5 Q787 -5 750 -5 Q720 -5 697 3 Q674 11 657 24 Q640 37 627.5 54.5 Q615 72 608 91 L645 111 Q661 76 685.5 56.5 Q710 37 750 37 Q777 37 796.5 45.5 Q816 54 828.5 68.5 Q841 83 847.5 101 Q854 119 854 137 Q854 174 830 197.5 Q806 221 755 221 L671 221 L706 417 L918 417 L910 375 Z " />
<glyph glyph-name="uni2159" unicode="&#x2159;" horiz-adv-x="889" d="M211 286 L307 286 L300 244 L50 244 L58 286 L165 286 L224 618 L117 618 L125 660 L277 660 L211 286 Z M263 0 L215 0 L710 660 L758 660 L263 0 Z M666 264 Q681 269 697 269 Q723 269 746 259 Q769 249 786 232 Q803 215 812.5 191.5 Q822 168 822 140 Q822 109 810.5 82.5 Q799 56 778.5 36.5 Q758 17 731.5 6 Q705 -5 675 -5 Q647 -5 623 5 Q599 15 581 32.5 Q563 50 552.5 74.5 Q542 99 542 128 Q542 150 548 168.5 Q554 187 564.5 204 Q575 221 587.5 237.5 Q600 254 614 271 L734 417 L793 417 L666 264 Z M689 228 Q668 228 649.5 220 Q631 212 617.5 198.5 Q604 185 596.5 166.5 Q589 148 589 127 Q589 88 614 62.5 Q639 37 678 37 Q719 37 747 65.5 Q775 94 775 138 Q775 178 751.5 203 Q728 228 689 228 Z " />
<glyph glyph-name="uni215A" unicode="&#x215a;" horiz-adv-x="872" d="M352 618 L185 618 L165 501 Q176 502 187.5 502.5 Q199 503 208 503 Q271 503 307.5 472 Q344 441 344 384 Q344 356 334 329.5 Q324 303 304.5 283 Q285 263 257 250.5 Q229 238 192 238 Q162 238 139 246 Q116 254 99 267 Q82 280 69.5 297.5 Q57 315 50 334 L87 354 Q103 319 127.5 299.5 Q152 280 192 280 Q219 280 238.5 288.5 Q258 297 270.5 311.5 Q283 326 289.5 344 Q296 362 296 380 Q296 417 272 440.5 Q248 464 197 464 L113 464 L148 660 L360 660 L352 618 Z M246 0 L198 0 L693 660 L741 660 L246 0 Z M649 264 Q664 269 680 269 Q706 269 729 259 Q752 249 769 232 Q786 215 795.5 191.5 Q805 168 805 140 Q805 109 793.5 82.5 Q782 56 761.5 36.5 Q741 17 714.5 6 Q688 -5 658 -5 Q630 -5 606 5 Q582 15 564 32.5 Q546 50 535.5 74.5 Q525 99 525 128 Q525 150 531 168.5 Q537 187 547.5 204 Q558 221 570.5 237.5 Q583 254 597 271 L717 417 L776 417 L649 264 Z M672 228 Q651 228 632.5 220 Q614 212 600.5 198.5 Q587 185 579.5 166.5 Q572 148 572 127 Q572 88 597 62.5 Q622 37 661 37 Q702 37 730 65.5 Q758 94 758 138 Q758 178 734.5 203 Q711 228 672 228 Z " />
<glyph glyph-name="uni2150" unicode="&#x2150;" horiz-adv-x="916" d="M211 286 L307 286 L300 244 L50 244 L58 286 L165 286 L224 618 L117 618 L125 660 L277 660 L211 286 Z M263 0 L215 0 L710 660 L758 660 L263 0 Z M925 403 L647 1 L594 1 L855 375 L646 375 L653 417 L928 417 L925 403 Z " />
<glyph glyph-name="oneeighth" unicode="&#x215b;" horiz-adv-x="931" d="M211 286 L307 286 L300 244 L50 244 L58 286 L165 286 L224 618 L117 618 L125 660 L277 660 L211 286 Z M263 0 L215 0 L710 660 L758 660 L263 0 Z M758 423 Q782 423 804.5 417 Q827 411 844 399 Q861 387 871.5 368.5 Q882 350 882 325 Q882 248 783 214 Q815 198 838.5 173.5 Q862 149 862 114 Q862 96 854.5 75 Q847 54 830 36.5 Q813 19 785.5 7.5 Q758 -4 718 -4 Q689 -4 663 3 Q637 10 617.5 23.5 Q598 37 586 57.5 Q574 78 574 105 Q574 150 607.5 180 Q641 210 694 223 Q665 240 648.5 262 Q632 284 632 314 Q632 334 640 353.5 Q648 373 663.5 388.5 Q679 404 702.5 413.5 Q726 423 758 423 Z M816 114 Q816 145 792.5 163.5 Q769 182 734 199 Q676 185 648 163 Q620 141 620 108 Q620 76 644.5 55 Q669 34 716 34 Q744 34 763.5 42 Q783 50 794.5 62 Q806 74 811 88 Q816 102 816 114 Z M758 386 Q719 386 697 364.5 Q675 343 675 315 Q675 289 692.5 272.5 Q710 256 741 239 Q760 244 777.5 251 Q795 258 808 267.5 Q821 277 829 290 Q837 303 837 320 Q837 350 814.5 368 Q792 386 758 386 Z " />
<glyph glyph-name="threeeighths" unicode="&#x215c;" horiz-adv-x="901" d="M366 646 L230 502 Q272 494 301.5 462.5 Q331 431 331 382 Q331 356 321.5 330 Q312 304 292.5 283.5 Q273 263 244.5 250.5 Q216 238 179 238 Q149 238 126.5 246 Q104 254 87 267.5 Q70 281 58.5 298 Q47 315 40 334 L77 354 Q91 322 114.5 300.5 Q138 279 179 279 Q206 279 226 288 Q246 297 258.5 311.5 Q271 326 277.5 344 Q284 362 284 380 Q284 420 257 442.5 Q230 465 182 465 L155 465 L154 465 L156 479 L286 618 L115 618 L123 660 L369 660 L366 646 Z M233 0 L185 0 L680 660 L728 660 L233 0 Z M728 423 Q752 423 774.5 417 Q797 411 814 399 Q831 387 841.5 368.5 Q852 350 852 325 Q852 248 753 214 Q785 198 808.5 173.5 Q832 149 832 114 Q832 96 824.5 75 Q817 54 800 36.5 Q783 19 755.5 7.5 Q728 -4 688 -4 Q659 -4 633 3 Q607 10 587.5 23.5 Q568 37 556 57.5 Q544 78 544 105 Q544 150 577.5 180 Q611 210 664 223 Q635 240 618.5 262 Q602 284 602 314 Q602 334 610 353.5 Q618 373 633.5 388.5 Q649 404 672.5 413.5 Q696 423 728 423 Z M786 114 Q786 145 762.5 163.5 Q739 182 704 199 Q646 185 618 163 Q590 141 590 108 Q590 76 614.5 55 Q639 34 686 34 Q714 34 733.5 42 Q753 50 764.5 62 Q776 74 781 88 Q786 102 786 114 Z M728 386 Q689 386 667 364.5 Q645 343 645 315 Q645 289 662.5 272.5 Q680 256 711 239 Q730 244 747.5 251 Q765 258 778 267.5 Q791 277 799 290 Q807 303 807 320 Q807 350 784.5 368 Q762 386 728 386 Z " />
<glyph glyph-name="fiveeighths" unicode="&#x215d;" horiz-adv-x="914" d="M352 618 L185 618 L165 501 Q176 502 187.5 502.5 Q199 503 208 503 Q271 503 307.5 472 Q344 441 344 384 Q344 356 334 329.5 Q324 303 304.5 283 Q285 263 257 250.5 Q229 238 192 238 Q162 238 139 246 Q116 254 99 267 Q82 280 69.5 297.5 Q57 315 50 334 L87 354 Q103 319 127.5 299.5 Q152 280 192 280 Q219 280 238.5 288.5 Q258 297 270.5 311.5 Q283 326 289.5 344 Q296 362 296 380 Q296 417 272 440.5 Q248 464 197 464 L113 464 L148 660 L360 660 L352 618 Z M246 0 L198 0 L693 660 L741 660 L246 0 Z M741 423 Q765 423 787.5 417 Q810 411 827 399 Q844 387 854.5 368.5 Q865 350 865 325 Q865 248 766 214 Q798 198 821.5 173.5 Q845 149 845 114 Q845 96 837.5 75 Q830 54 813 36.5 Q796 19 768.5 7.5 Q741 -4 701 -4 Q672 -4 646 3 Q620 10 600.5 23.5 Q581 37 569 57.5 Q557 78 557 105 Q557 150 590.5 180 Q624 210 677 223 Q648 240 631.5 262 Q615 284 615 314 Q615 334 623 353.5 Q631 373 646.5 388.5 Q662 404 685.5 413.5 Q709 423 741 423 Z M799 114 Q799 145 775.5 163.5 Q752 182 717 199 Q659 185 631 163 Q603 141 603 108 Q603 76 627.5 55 Q652 34 699 34 Q727 34 746.5 42 Q766 50 777.5 62 Q789 74 794 88 Q799 102 799 114 Z M741 386 Q702 386 680 364.5 Q658 343 658 315 Q658 289 675.5 272.5 Q693 256 724 239 Q743 244 760.5 251 Q778 258 791 267.5 Q804 277 812 290 Q820 303 820 320 Q820 350 797.5 368 Q775 386 741 386 Z " />
<glyph glyph-name="seveneighths" unicode="&#x215e;" horiz-adv-x="807" d="M372 646 L94 244 L41 244 L302 618 L93 618 L100 660 L375 660 L372 646 Z M139 0 L91 0 L586 660 L634 660 L139 0 Z M634 423 Q658 423 680.5 417 Q703 411 720 399 Q737 387 747.5 368.5 Q758 350 758 325 Q758 248 659 214 Q691 198 714.5 173.5 Q738 149 738 114 Q738 96 730.5 75 Q723 54 706 36.5 Q689 19 661.5 7.5 Q634 -4 594 -4 Q565 -4 539 3 Q513 10 493.5 23.5 Q474 37 462 57.5 Q450 78 450 105 Q450 150 483.5 180 Q517 210 570 223 Q541 240 524.5 262 Q508 284 508 314 Q508 334 516 353.5 Q524 373 539.5 388.5 Q555 404 578.5 413.5 Q602 423 634 423 Z M692 114 Q692 145 668.5 163.5 Q645 182 610 199 Q552 185 524 163 Q496 141 496 108 Q496 76 520.5 55 Q545 34 592 34 Q620 34 639.5 42 Q659 50 670.5 62 Q682 74 687 88 Q692 102 692 114 Z M634 386 Q595 386 573 364.5 Q551 343 551 315 Q551 289 568.5 272.5 Q586 256 617 239 Q636 244 653.5 251 Q671 258 684 267.5 Q697 277 705 290 Q713 303 713 320 Q713 350 690.5 368 Q668 386 634 386 Z " />
<glyph glyph-name="uni2151" unicode="&#x2151;" horiz-adv-x="938" d="M211 286 L307 286 L300 244 L50 244 L58 286 L165 286 L224 618 L117 618 L125 660 L277 660 L211 286 Z M263 0 L215 0 L710 660 L758 660 L263 0 Z M767 423 Q795 423 819 413 Q843 403 861 385.5 Q879 368 889.5 343.5 Q900 319 900 290 Q900 268 894 249.5 Q888 231 878 214 Q868 197 855 180.5 Q842 164 828 147 L708 1 L649 1 L775 153 Q763 149 745 149 Q719 149 696 158.5 Q673 168 656 185.5 Q639 203 629.5 226.5 Q620 250 620 278 Q620 309 632 335.5 Q644 362 664 381.5 Q684 401 710.5 412 Q737 423 767 423 Z M765 381 Q723 381 695 352.5 Q667 324 667 280 Q667 241 691 215.5 Q715 190 754 190 Q775 190 793 197.5 Q811 205 824.5 218.5 Q838 232 845.5 250.5 Q853 269 853 290 Q853 330 828.5 355.5 Q804 381 765 381 Z " />
<glyph glyph-name="uni2152" unicode="&#x2152;" horiz-adv-x="1349" d="M211 286 L307 286 L300 244 L50 244 L58 286 L165 286 L224 618 L117 618 L125 660 L277 660 L211 286 Z M263 0 L215 0 L710 660 L758 660 L263 0 Z M1169 423 Q1233 423 1264 381 Q1295 339 1295 267 Q1295 243 1291.5 213.5 Q1288 184 1279.5 154 Q1271 124 1257 95.5 Q1243 67 1222.5 44.5 Q1202 22 1174.5 8.5 Q1147 -5 1111 -5 Q1048 -5 1016 37.5 Q984 80 984 152 Q984 187 992.5 234 Q1001 281 1022.5 323 Q1044 365 1079.5 394 Q1115 423 1169 423 Z M1164 381 Q1125 381 1099.5 355.5 Q1074 330 1059 294 Q1044 258 1038 218.5 Q1032 179 1032 151 Q1032 118 1039 96 Q1046 74 1058 61 Q1070 48 1085.5 42.5 Q1101 37 1117 37 Q1156 37 1181.5 63 Q1207 89 1222 125 Q1237 161 1243 200.5 Q1249 240 1249 267 Q1249 300 1241.5 322 Q1234 344 1222 357 Q1210 370 1195 375.5 Q1180 381 1164 381 Z M764 43 L860 43 L853 1 L603 1 L611 43 L718 43 L777 375 L670 375 L678 417 L830 417 L764 43 Z " />
<glyph glyph-name="uni2080" unicode="&#x2080;" horiz-adv-x="407" d="M207 303 Q271 303 302 261 Q333 219 333 147 Q333 123 329.5 93.5 Q326 64 317.5 34 Q309 4 295 -24.5 Q281 -53 260.5 -75.5 Q240 -98 212.5 -111.5 Q185 -125 149 -125 Q86 -125 54 -82.5 Q22 -40 22 32 Q22 67 30.5 114 Q39 161 60.5 203 Q82 245 117.5 274 Q153 303 207 303 Z M202 261 Q163 261 137.5 235.5 Q112 210 97 174 Q82 138 76 98.5 Q70 59 70 31 Q70 -2 77 -24 Q84 -46 96 -59 Q108 -72 123.5 -77.5 Q139 -83 155 -83 Q194 -83 219.5 -57 Q245 -31 260 5 Q275 41 281 80.5 Q287 120 287 147 Q287 180 279.5 202 Q272 224 260 237 Q248 250 233 255.5 Q218 261 202 261 Z " />
<glyph glyph-name="uni2081" unicode="&#x2081;" horiz-adv-x="346" d="M148 -77 L244 -77 L237 -119 L-13 -119 L-5 -77 L102 -77 L161 255 L54 255 L62 297 L214 297 L148 -77 Z " />
<glyph glyph-name="uni2082" unicode="&#x2082;" horiz-adv-x="363" d="M170 303 Q229 303 261.5 270 Q294 237 294 186 Q294 141 266 100.5 Q238 60 178 11 L70 -77 L268 -77 L260 -119 L-26 -119 L-24 -107 L154 42 Q202 81 224.5 114.5 Q247 148 247 183 Q247 218 226 239.5 Q205 261 168 261 Q144 261 127 252 Q110 243 99 228.5 Q88 214 83 195.5 Q78 177 78 159 L78 142 L33 142 Q32 146 32 151 Q32 156 32 161 Q32 186 40 211.5 Q48 237 65 257 Q82 277 108 290 Q134 303 170 303 Z " />
<glyph glyph-name="uni2083" unicode="&#x2083;" horiz-adv-x="351" d="M303 283 L167 139 Q209 131 238.5 99.5 Q268 68 268 19 Q268 -7 258.5 -33 Q249 -59 229.5 -79.5 Q210 -100 181.5 -112.5 Q153 -125 116 -125 Q86 -125 63.5 -117 Q41 -109 24 -95.5 Q7 -82 -4.5 -65 Q-16 -48 -23 -29 L14 -9 Q28 -41 51.5 -62.5 Q75 -84 116 -84 Q143 -84 163 -75 Q183 -66 195.5 -51.5 Q208 -37 214.5 -19 Q221 -1 221 17 Q221 57 194 79.5 Q167 102 119 102 L92 102 L91 102 L93 116 L223 255 L52 255 L60 297 L306 297 L303 283 Z " />
<glyph glyph-name="uni2084" unicode="&#x2084;" horiz-adv-x="349" d="M227 0 L288 0 L281 -41 L220 -41 L207 -119 L162 -119 L176 -41 L-32 -41 L-30 -27 L158 297 L209 297 L35 0 L183 0 L208 140 L252 140 L227 0 Z " />
<glyph glyph-name="uni2085" unicode="&#x2085;" horiz-adv-x="364" d="M289 255 L122 255 L102 138 Q113 139 124.5 139.5 Q136 140 145 140 Q208 140 244.5 109 Q281 78 281 21 Q281 -7 271 -33.5 Q261 -60 241.5 -80 Q222 -100 194 -112.5 Q166 -125 129 -125 Q99 -125 76 -117 Q53 -109 36 -96 Q19 -83 6.5 -65.5 Q-6 -48 -13 -29 L24 -9 Q40 -44 64.5 -63.5 Q89 -83 129 -83 Q156 -83 175.5 -74.5 Q195 -66 207.5 -51.5 Q220 -37 226.5 -19 Q233 -1 233 17 Q233 54 209 77.5 Q185 101 134 101 L50 101 L85 297 L297 297 L289 255 Z " />
<glyph glyph-name="uni2086" unicode="&#x2086;" horiz-adv-x="373" d="M130 144 Q145 149 161 149 Q187 149 210 139 Q233 129 250 112 Q267 95 276.5 71.5 Q286 48 286 20 Q286 -11 274.5 -37.5 Q263 -64 242.5 -83.5 Q222 -103 195.5 -114 Q169 -125 139 -125 Q111 -125 87 -115 Q63 -105 45 -87.5 Q27 -70 16.5 -45.5 Q6 -21 6 8 Q6 30 12 48.5 Q18 67 28.5 84 Q39 101 51.5 117.5 Q64 134 78 151 L198 297 L257 297 L130 144 Z M153 108 Q132 108 113.5 100 Q95 92 81.5 78.5 Q68 65 60.5 46.5 Q53 28 53 7 Q53 -32 78 -57.5 Q103 -83 142 -83 Q183 -83 211 -54.5 Q239 -26 239 18 Q239 58 215.5 83 Q192 108 153 108 Z " />
<glyph glyph-name="uni2087" unicode="&#x2087;" horiz-adv-x="320" d="M309 283 L31 -119 L-22 -119 L239 255 L30 255 L37 297 L312 297 L309 283 Z " />
<glyph glyph-name="uni2088" unicode="&#x2088;" horiz-adv-x="380" d="M187 303 Q211 303 233.5 297 Q256 291 273 279 Q290 267 300.5 248.5 Q311 230 311 205 Q311 128 212 94 Q244 78 267.5 53.5 Q291 29 291 -6 Q291 -24 283.5 -45 Q276 -66 259 -83.5 Q242 -101 214.5 -112.5 Q187 -124 147 -124 Q118 -124 92 -117 Q66 -110 46.5 -96.5 Q27 -83 15 -62.5 Q3 -42 3 -15 Q3 30 36.5 60 Q70 90 123 103 Q94 120 77.5 142 Q61 164 61 194 Q61 214 69 233.5 Q77 253 92.5 268.5 Q108 284 131.5 293.5 Q155 303 187 303 Z M245 -6 Q245 25 221.5 43.5 Q198 62 163 79 Q105 65 77 43 Q49 21 49 -12 Q49 -44 73.5 -65 Q98 -86 145 -86 Q173 -86 192.5 -78 Q212 -70 223.5 -58 Q235 -46 240 -32 Q245 -18 245 -6 Z M187 266 Q148 266 126 244.5 Q104 223 104 195 Q104 169 121.5 152.5 Q139 136 170 119 Q189 124 206.5 131 Q224 138 237 147.5 Q250 157 258 170 Q266 183 266 200 Q266 230 243.5 248 Q221 266 187 266 Z " />
<glyph glyph-name="uni2089" unicode="&#x2089;" horiz-adv-x="372" d="M181 303 Q209 303 233 293 Q257 283 275 265.5 Q293 248 303.5 223.5 Q314 199 314 170 Q314 148 308 129.5 Q302 111 292 94 Q282 77 269 60.5 Q256 44 242 27 L122 -119 L63 -119 L189 33 Q177 29 159 29 Q133 29 110 38.5 Q87 48 70 65.5 Q53 83 43.5 106.5 Q34 130 34 158 Q34 189 46 215.5 Q58 242 78 261.5 Q98 281 124.5 292 Q151 303 181 303 Z M179 261 Q137 261 109 232.5 Q81 204 81 160 Q81 121 105 95.5 Q129 70 168 70 Q189 70 207 77.5 Q225 85 238.5 98.5 Q252 112 259.5 130.5 Q267 149 267 170 Q267 210 242.5 235.5 Q218 261 179 261 Z " />
<glyph glyph-name="uni2070" unicode="&#x2070;" horiz-adv-x="407" d="M291 786 Q355 786 386 744 Q417 702 417 630 Q417 606 413.5 576.5 Q410 547 401.5 517 Q393 487 379 458.5 Q365 430 344.5 407.5 Q324 385 296.5 371.5 Q269 358 233 358 Q170 358 138 400.5 Q106 443 106 515 Q106 550 114.5 597 Q123 644 144.5 686 Q166 728 201.5 757 Q237 786 291 786 Z M286 744 Q247 744 221.5 718.5 Q196 693 181 657 Q166 621 160 581.5 Q154 542 154 514 Q154 481 161 459 Q168 437 180 424 Q192 411 207.5 405.5 Q223 400 239 400 Q278 400 303.5 426 Q329 452 344 488 Q359 524 365 563.5 Q371 603 371 630 Q371 663 363.5 685 Q356 707 344 720 Q332 733 317 738.5 Q302 744 286 744 Z " />
<glyph glyph-name="uni00B9" unicode="&#xb9;" horiz-adv-x="346" d="M232 406 L328 406 L321 364 L71 364 L79 406 L186 406 L245 738 L138 738 L146 780 L298 780 L232 406 Z " />
<glyph glyph-name="uni00B2" unicode="&#xb2;" horiz-adv-x="363" d="M254 786 Q313 786 345.5 753 Q378 720 378 669 Q378 624 350 583.5 Q322 543 262 494 L154 406 L352 406 L344 364 L58 364 L60 376 L238 525 Q286 564 308.5 597.5 Q331 631 331 666 Q331 701 310 722.5 Q289 744 252 744 Q228 744 211 735 Q194 726 183 711.5 Q172 697 167 678.5 Q162 660 162 642 L162 625 L117 625 Q116 629 116 634 Q116 639 116 644 Q116 669 124 694.5 Q132 720 149 740 Q166 760 192 773 Q218 786 254 786 Z " />
<glyph glyph-name="uni00B3" unicode="&#xb3;" horiz-adv-x="351" d="M387 766 L251 622 Q293 614 322.5 582.5 Q352 551 352 502 Q352 476 342.5 450 Q333 424 313.5 403.5 Q294 383 265.5 370.5 Q237 358 200 358 Q170 358 147.5 366 Q125 374 108 387.5 Q91 401 79.5 418 Q68 435 61 454 L98 474 Q112 442 135.5 420.5 Q159 399 200 399 Q227 399 247 408 Q267 417 279.5 431.5 Q292 446 298.5 464 Q305 482 305 500 Q305 540 278 562.5 Q251 585 203 585 L176 585 L175 585 L177 599 L307 738 L136 738 L144 780 L390 780 L387 766 Z " />
<glyph glyph-name="uni2074" unicode="&#x2074;" horiz-adv-x="349" d="M311 483 L372 483 L365 442 L304 442 L291 364 L246 364 L260 442 L52 442 L54 456 L242 780 L293 780 L119 483 L267 483 L292 623 L336 623 L311 483 Z " />
<glyph glyph-name="uni2075" unicode="&#x2075;" horiz-adv-x="364" d="M373 738 L206 738 L186 621 Q197 622 208.5 622.5 Q220 623 229 623 Q292 623 328.5 592 Q365 561 365 504 Q365 476 355 449.5 Q345 423 325.5 403 Q306 383 278 370.5 Q250 358 213 358 Q183 358 160 366 Q137 374 120 387 Q103 400 90.5 417.5 Q78 435 71 454 L108 474 Q124 439 148.5 419.5 Q173 400 213 400 Q240 400 259.5 408.5 Q279 417 291.5 431.5 Q304 446 310.5 464 Q317 482 317 500 Q317 537 293 560.5 Q269 584 218 584 L134 584 L169 780 L381 780 L373 738 Z " />
<glyph glyph-name="uni2076" unicode="&#x2076;" horiz-adv-x="373" d="M215 627 Q230 632 246 632 Q272 632 295 622 Q318 612 335 595 Q352 578 361.5 554.5 Q371 531 371 503 Q371 472 359.5 445.5 Q348 419 327.5 399.5 Q307 380 280.5 369 Q254 358 224 358 Q196 358 172 368 Q148 378 130 395.5 Q112 413 101.5 437.5 Q91 462 91 491 Q91 513 97 531.5 Q103 550 113.5 567 Q124 584 136.5 600.5 Q149 617 163 634 L283 780 L342 780 L215 627 Z M238 591 Q217 591 198.5 583 Q180 575 166.5 561.5 Q153 548 145.5 529.5 Q138 511 138 490 Q138 451 163 425.5 Q188 400 227 400 Q268 400 296 428.5 Q324 457 324 501 Q324 541 300.5 566 Q277 591 238 591 Z " />
<glyph glyph-name="uni2077" unicode="&#x2077;" horiz-adv-x="320" d="M393 766 L115 364 L62 364 L323 738 L114 738 L121 780 L396 780 L393 766 Z " />
<glyph glyph-name="uni2078" unicode="&#x2078;" horiz-adv-x="380" d="M271 786 Q295 786 317.5 780 Q340 774 357 762 Q374 750 384.5 731.5 Q395 713 395 688 Q395 611 296 577 Q328 561 351.5 536.5 Q375 512 375 477 Q375 459 367.5 438 Q360 417 343 399.5 Q326 382 298.5 370.5 Q271 359 231 359 Q202 359 176 366 Q150 373 130.5 386.5 Q111 400 99 420.5 Q87 441 87 468 Q87 513 120.5 543 Q154 573 207 586 Q178 603 161.5 625 Q145 647 145 677 Q145 697 153 716.5 Q161 736 176.5 751.5 Q192 767 215.5 776.5 Q239 786 271 786 Z M329 477 Q329 508 305.5 526.5 Q282 545 247 562 Q189 548 161 526 Q133 504 133 471 Q133 439 157.5 418 Q182 397 229 397 Q257 397 276.5 405 Q296 413 307.5 425 Q319 437 324 451 Q329 465 329 477 Z M271 749 Q232 749 210 727.5 Q188 706 188 678 Q188 652 205.5 635.5 Q223 619 254 602 Q273 607 290.5 614 Q308 621 321 630.5 Q334 640 342 653 Q350 666 350 683 Q350 713 327.5 731 Q305 749 271 749 Z " />
<glyph glyph-name="uni2079" unicode="&#x2079;" horiz-adv-x="372" d="M266 786 Q294 786 318 776 Q342 766 360 748.5 Q378 731 388.5 706.5 Q399 682 399 653 Q399 631 393 612.5 Q387 594 377 577 Q367 560 354 543.5 Q341 527 327 510 L207 364 L148 364 L274 516 Q262 512 244 512 Q218 512 195 521.5 Q172 531 155 548.5 Q138 566 128.5 589.5 Q119 613 119 641 Q119 672 131 698.5 Q143 725 163 744.5 Q183 764 209.5 775 Q236 786 266 786 Z M264 744 Q222 744 194 715.5 Q166 687 166 643 Q166 604 190 578.5 Q214 553 253 553 Q274 553 292 560.5 Q310 568 323.5 581.5 Q337 595 344.5 613.5 Q352 632 352 653 Q352 693 327.5 718.5 Q303 744 264 744 Z " />
<glyph glyph-name="asterisk" unicode="&#x2a;" horiz-adv-x="384" d="M405 632 L297 587 L382 509 L361 483 L269 552 L244 440 L210 446 L224 560 L114 527 L102 559 L208 603 L124 682 L146 708 L237 638 L264 750 L297 745 L283 630 L392 664 L405 632 Z " />
<glyph glyph-name="backslash" unicode="&#x5c;" horiz-adv-x="597" d="M523 -121 L473 -121 L104 780 L153 780 L523 -121 Z " />
<glyph glyph-name="periodcentered" unicode="&#xb7;" horiz-adv-x="271" d="M147 360 Q167 360 182 346.5 Q197 333 197 310 Q197 288 182 275 Q167 262 147 262 Q128 262 113 275 Q98 288 98 310 Q98 333 113 346.5 Q128 360 147 360 Z " />
<glyph glyph-name="bullet" unicode="&#x2022;" horiz-adv-x="354" d="M182 382 Q204 382 225.5 373.5 Q247 365 263 350 Q279 335 289 313.5 Q299 292 299 265 Q299 239 289 217.5 Q279 196 263 181 Q247 166 225.5 157.5 Q204 149 182 149 Q159 149 138 157.5 Q117 166 100.5 181 Q84 196 74 217.5 Q64 239 64 265 Q64 292 74 313.5 Q84 335 100.5 350 Q117 365 138 373.5 Q159 382 182 382 Z " />
<glyph glyph-name="colon" unicode="&#x3a;" horiz-adv-x="270" d="M169 486 Q189 486 204 472.5 Q219 459 219 436 Q219 414 204 401 Q189 388 169 388 Q150 388 135 401 Q120 414 120 436 Q120 459 135 472.5 Q150 486 169 486 Z M99 88 Q119 88 134 74.5 Q149 61 149 38 Q149 16 134 3 Q119 -10 99 -10 Q80 -10 65 3 Q50 16 50 38 Q50 61 65 74.5 Q80 88 99 88 Z " />
<glyph glyph-name="comma" unicode="&#x2c;" horiz-adv-x="270" d="M63 -180 L20 -180 L81 75 L143 75 L63 -180 Z " />
<glyph glyph-name="ellipsis" unicode="&#x2026;" horiz-adv-x="757" d="M343 88 Q363 88 378 74.5 Q393 61 393 38 Q393 16 378 3 Q363 -10 343 -10 Q324 -10 309 3 Q294 16 294 38 Q294 61 309 74.5 Q324 88 343 88 Z M99 88 Q119 88 134 74.5 Q149 61 149 38 Q149 16 134 3 Q119 -10 99 -10 Q80 -10 65 3 Q50 16 50 38 Q50 61 65 74.5 Q80 88 99 88 Z M586 88 Q606 88 621 74.5 Q636 61 636 38 Q636 16 621 3 Q606 -10 586 -10 Q567 -10 552 3 Q537 16 537 38 Q537 61 552 74.5 Q567 88 586 88 Z " />
<glyph glyph-name="exclam" unicode="&#x21;" horiz-adv-x="285" d="M156 194 L112 194 L184 660 L247 660 L156 194 Z M107 88 Q127 88 142 74.5 Q157 61 157 38 Q157 16 142 3 Q127 -10 107 -10 Q88 -10 73 3 Q58 16 58 38 Q58 61 73 74.5 Q88 88 107 88 Z " />
<glyph glyph-name="exclamdown" unicode="&#xa1;" horiz-adv-x="286" d="M101 -180 L38 -180 L128 280 L172 280 L101 -180 Z M178 484 Q197 484 212 471 Q227 458 227 436 Q227 412 212 398.5 Q197 385 178 385 Q158 385 143 398.5 Q128 412 128 436 Q128 458 143 471 Q158 484 178 484 Z " />
<glyph glyph-name="numbersign" unicode="&#x23;" horiz-adv-x="547" d="M206 455 L417 455 L453 660 L498 660 L462 455 L561 455 L553 411 L454 411 L426 250 L524 250 L516 205 L418 205 L382 0 L337 0 L373 205 L162 205 L126 0 L81 0 L117 205 L19 205 L27 250 L125 250 L153 411 L56 411 L64 455 L161 455 L197 660 L242 660 L206 455 Z M170 250 L381 250 L409 411 L198 411 L170 250 Z " />
<glyph glyph-name="period" unicode="&#x2e;" horiz-adv-x="270" d="M99 88 Q119 88 134 74.5 Q149 61 149 38 Q149 16 134 3 Q119 -10 99 -10 Q80 -10 65 3 Q50 16 50 38 Q50 61 65 74.5 Q80 88 99 88 Z " />
<glyph glyph-name="question" unicode="&#x3f;" horiz-adv-x="442" d="M288 670 Q320 670 347.5 660 Q375 650 395.5 631.5 Q416 613 427.5 586.5 Q439 560 439 527 Q439 492 426.5 464 Q414 436 394.5 413 Q375 390 351.5 371 Q328 352 307 334 Q283 314 267.5 297 Q252 280 242 264 Q232 248 226.5 231 Q221 214 218 194 L171 194 Q173 216 178 236 Q183 256 194 276.5 Q205 297 223.5 318 Q242 339 270 363 Q299 387 321 406.5 Q343 426 357.5 444.5 Q372 463 379.5 481.5 Q387 500 387 523 Q387 571 357.5 597.5 Q328 624 283 624 Q238 624 205.5 598.5 Q173 573 150 530 L110 553 Q139 607 184 638.5 Q229 670 288 670 Z M180 88 Q200 88 215 74.5 Q230 61 230 39 Q230 16 215 3 Q200 -10 180 -10 Q161 -10 146 3 Q131 16 131 39 Q131 62 146 75 Q161 88 180 88 Z " />
<glyph glyph-name="questiondown" unicode="&#xbf;" horiz-adv-x="442" d="M270 280 Q268 258 263 238.5 Q258 219 247 199.5 Q236 180 217.5 159.5 Q199 139 171 116 Q142 92 120 72.5 Q98 53 83.5 34.5 Q69 16 61.5 -2.5 Q54 -21 54 -44 Q54 -92 83.5 -118 Q113 -144 158 -144 Q204 -144 236.5 -118 Q269 -92 291 -50 L331 -73 Q303 -127 258 -158.5 Q213 -190 153 -190 Q121 -190 93.5 -180 Q66 -170 46 -152 Q26 -134 14 -107.5 Q2 -81 2 -48 Q2 -13 14.5 15 Q27 43 46.5 66 Q66 89 89.5 108 Q113 127 135 145 Q159 165 174.5 181.5 Q190 198 200 213.5 Q210 229 215.5 244.5 Q221 260 224 280 L270 280 Z M261 484 Q281 484 296 471 Q311 458 311 435 Q311 412 296 398.5 Q281 385 261 385 Q242 385 227 398.5 Q212 412 212 435 Q212 458 227 471 Q242 484 261 484 Z " />
<glyph glyph-name="quotedbl" unicode="&#x22;" horiz-adv-x="431" d="M173 413 L131 413 L191 660 L253 660 L173 413 Z M332 413 L290 413 L350 660 L412 660 L332 413 Z " />
<glyph glyph-name="quotesingle" unicode="&#x27;" horiz-adv-x="272" d="M173 413 L131 413 L191 660 L253 660 L173 413 Z " />
<glyph glyph-name="semicolon" unicode="&#x3b;" horiz-adv-x="270" d="M169 486 Q189 486 204 472.5 Q219 459 219 436 Q219 414 204 401 Q189 388 169 388 Q150 388 135 401 Q120 414 120 436 Q120 459 135 472.5 Q150 486 169 486 Z M63 -180 L20 -180 L81 75 L143 75 L63 -180 Z " />
<glyph glyph-name="slash" unicode="&#x2f;" horiz-adv-x="593" d="M3 -121 L-54 -121 L622 780 L680 780 L3 -121 Z " />
<glyph glyph-name="underscore" unicode="&#x5f;" horiz-adv-x="500" d="M389 -124 L-16 -124 L-9 -80 L397 -80 L389 -124 Z " />
<glyph glyph-name="uni208D" unicode="&#x208d;" horiz-adv-x="250" d="M258 386 Q211 362 176 320 Q141 278 117.5 225.5 Q94 173 82.5 114.5 Q71 56 71 -1 Q71 -46 77.5 -79.5 Q84 -113 95.5 -138.5 Q107 -164 121.5 -182 Q136 -200 152 -213 L130 -240 Q110 -225 91.5 -204.5 Q73 -184 59 -155.5 Q45 -127 37 -89 Q29 -51 29 -1 Q29 59 42.5 123.5 Q56 188 82.5 245.5 Q109 303 149.5 348 Q190 393 244 416 L258 386 Z " />
<glyph glyph-name="uni208E" unicode="&#x208e;" horiz-adv-x="249" d="M68 417 Q88 402 106.5 381.5 Q125 361 139 332.5 Q153 304 161 265.5 Q169 227 169 178 Q169 118 155.5 53.5 Q142 -11 115 -68.5 Q88 -126 47.5 -171.5 Q7 -217 -47 -239 L-60 -209 Q-13 -185 22 -143 Q57 -101 80.5 -48.5 Q104 4 115.5 62.5 Q127 121 127 178 Q127 223 120 256.5 Q113 290 102 315.5 Q91 341 76.5 359 Q62 377 46 390 L68 417 Z " />
<glyph glyph-name="braceleft" unicode="&#x7b;" horiz-adv-x="394" d="M415 684 L369 684 Q334 684 312 672 Q290 660 277.5 639.5 Q265 619 260.5 591 Q256 563 256 531 L256 423 Q256 370 240 337.5 Q224 305 178 297 Q200 291 212.5 276.5 Q225 262 225 237 Q225 212 214 179.5 Q203 147 190.5 112.5 Q178 78 167 44.5 Q156 11 156 -17 Q156 -86 236 -86 L281 -86 L273 -131 L223 -131 Q199 -131 177.5 -125 Q156 -119 140.5 -106 Q125 -93 115.5 -73 Q106 -53 106 -25 Q106 6 117 41.5 Q128 77 140.5 111.5 Q153 146 164 177 Q175 208 175 231 Q175 254 161.5 265 Q148 276 118 276 L61 276 L69 321 L124 321 Q170 321 188.5 345 Q207 369 207 423 L207 534 Q207 577 215 613 Q223 649 242.5 674.5 Q262 700 293.5 714.5 Q325 729 372 729 L423 729 L415 684 Z " />
<glyph glyph-name="braceright" unicode="&#x7d;" horiz-adv-x="395" d="M192 729 Q216 729 237.5 723 Q259 717 275 704 Q291 691 300.5 671 Q310 651 310 623 Q310 591 299 556 Q288 521 275 486.5 Q262 452 251 421 Q240 390 240 367 Q240 322 297 322 L354 322 L346 276 L291 276 Q245 276 226.5 252.5 Q208 229 208 175 L208 64 Q208 21 200 -15 Q192 -51 172.5 -76.5 Q153 -102 121.5 -116.5 Q90 -131 43 -131 L-8 -131 L0 -86 L46 -86 Q81 -86 103 -74 Q125 -62 137.5 -41.5 Q150 -21 154.5 7 Q159 35 159 67 L159 175 Q159 227 174.5 259.5 Q190 292 237 300 Q190 313 190 361 Q190 386 201 418.5 Q212 451 225 485.5 Q238 520 249 553.5 Q260 587 260 615 Q260 650 239 667 Q218 684 179 684 L134 684 L142 729 L192 729 Z " />
<glyph glyph-name="bracketleft" unicode="&#x5b;" horiz-adv-x="341" d="M362 684 L235 684 L100 -85 L227 -85 L219 -131 L43 -131 L193 729 L369 729 L362 684 Z " />
<glyph glyph-name="bracketright" unicode="&#x5d;" horiz-adv-x="341" d="M168 -131 L-8 -131 L0 -86 L127 -86 L262 683 L135 683 L143 729 L319 729 L168 -131 Z " />
<glyph glyph-name="parenleft" unicode="&#x28;" horiz-adv-x="326" d="M380 694 Q314 664 267.5 605.5 Q221 547 191 475 Q161 403 147.5 325.5 Q134 248 134 180 Q134 121 143 76.5 Q152 32 167 -1.5 Q182 -35 201 -58.5 Q220 -82 240 -99 L214 -131 Q188 -113 164.5 -86.5 Q141 -60 123 -22.5 Q105 15 94.5 65.5 Q84 116 84 182 Q84 233 91 288.5 Q98 344 113 398.5 Q128 453 150.5 505 Q173 557 204.5 601 Q236 645 276 678.5 Q316 712 365 731 L380 694 Z " />
<glyph glyph-name="parenright" unicode="&#x29;" horiz-adv-x="325" d="M131 731 Q156 712 180 685.5 Q204 659 222 621.5 Q240 584 251 533.5 Q262 483 262 417 Q262 366 255 311 Q248 256 233 201 Q218 146 195.5 94 Q173 42 141.5 -2 Q110 -46 70 -79.5 Q30 -113 -19 -131 L-34 -95 Q32 -65 78.5 -6.5 Q125 52 155 124 Q185 196 198.5 274 Q212 352 212 420 Q212 478 203 523 Q194 568 179 601 Q164 634 145 657.5 Q126 681 105 698 L131 731 Z " />
<glyph glyph-name="uni207D" unicode="&#x207d;" horiz-adv-x="250" d="M342 870 Q295 846 260 804 Q225 762 201.5 709.5 Q178 657 166.5 598.5 Q155 540 155 483 Q155 438 161.5 404.5 Q168 371 179.5 345.5 Q191 320 205.5 302 Q220 284 236 271 L214 244 Q194 259 175.5 279.5 Q157 300 143 328.5 Q129 357 121 395 Q113 433 113 483 Q113 543 126.5 607.5 Q140 672 166.5 729.5 Q193 787 233.5 832 Q274 877 328 900 L342 870 Z " />
<glyph glyph-name="uni207E" unicode="&#x207e;" horiz-adv-x="250" d="M153 901 Q173 886 191.5 865.5 Q210 845 224 816.5 Q238 788 246 749.5 Q254 711 254 662 Q254 602 240.5 537.5 Q227 473 200 415.5 Q173 358 132.5 312.5 Q92 267 38 245 L25 275 Q72 299 107 341 Q142 383 165.5 435.5 Q189 488 200.5 546.5 Q212 605 212 662 Q212 707 205 740.5 Q198 774 187 799.5 Q176 825 161.5 843 Q147 861 131 874 L153 901 Z " />
<glyph glyph-name="emdash" unicode="&#x2014;" horiz-adv-x="1000" d="M959 289 L59 289 L67 333 L967 333 L959 289 Z " />
<glyph glyph-name="endash" unicode="&#x2013;" horiz-adv-x="500" d="M462 289 L56 289 L64 333 L470 333 L462 289 Z " />
<glyph glyph-name="hyphen" unicode="&#x2d;" horiz-adv-x="340" d="M292 289 L66 289 L74 333 L300 333 L292 289 Z " />
<glyph glyph-name="uni00AD" unicode="&#xad;" horiz-adv-x="340" d="M292 289 L66 289 L74 333 L300 333 L292 289 Z " />
<glyph glyph-name="uni2015" unicode="&#x2015;" horiz-adv-x="1000" d="M959 289 L59 289 L67 333 L967 333 L959 289 Z " />
<glyph glyph-name="guillemotleft" unicode="&#xab;" horiz-adv-x="459" d="M448 424 L276 267 L392 110 L354 82 L216 261 L219 278 L417 457 L448 424 Z M278 424 L106 267 L222 110 L184 82 L46 261 L49 278 L247 457 L278 424 Z " />
<glyph glyph-name="guillemotright" unicode="&#xbb;" horiz-adv-x="460" d="M424 278 L421 261 L223 82 L192 115 L364 273 L248 430 L285 457 L424 278 Z M254 278 L251 261 L53 82 L22 115 L194 273 L78 430 L115 457 L254 278 Z " />
<glyph glyph-name="guilsinglleft" unicode="&#x2039;" horiz-adv-x="289" d="M278 424 L106 267 L222 110 L184 82 L46 261 L49 278 L247 457 L278 424 Z " />
<glyph glyph-name="guilsinglright" unicode="&#x203a;" horiz-adv-x="290" d="M254 278 L251 261 L53 82 L22 115 L194 273 L78 430 L115 457 L254 278 Z " />
<glyph glyph-name="quotedblbase" unicode="&#x201e;" horiz-adv-x="431" d="M227 -173 L185 -173 L245 75 L308 75 L227 -173 Z M69 -173 L27 -173 L87 75 L150 75 L69 -173 Z " />
<glyph glyph-name="quotedblleft" unicode="&#x201c;" horiz-adv-x="431" d="M346 413 L284 413 L363 660 L406 660 L346 413 Z M186 413 L124 413 L203 660 L246 660 L186 413 Z " />
<glyph glyph-name="quotedblright" unicode="&#x201d;" horiz-adv-x="431" d="M332 413 L290 413 L350 660 L412 660 L332 413 Z M173 413 L131 413 L191 660 L253 660 L173 413 Z " />
<glyph glyph-name="quoteleft" unicode="&#x2018;" horiz-adv-x="272" d="M186 413 L124 413 L203 660 L246 660 L186 413 Z " />
<glyph glyph-name="quoteright" unicode="&#x2019;" horiz-adv-x="272" d="M173 413 L131 413 L191 660 L253 660 L173 413 Z " />
<glyph glyph-name="quotesinglbase" unicode="&#x201a;" horiz-adv-x="272" d="M69 -173 L27 -173 L87 75 L150 75 L69 -173 Z " />
<glyph glyph-name="space" unicode="&#x20;" horiz-adv-x="280" d="" />
<glyph glyph-name="uni2009" unicode="&#x2009;" horiz-adv-x="146" d="" />
<glyph glyph-name="A" unicode="A" horiz-adv-x="664" d="M587 0 L535 0 L497 158 L153 158 L60 0 L1 0 L402 670 L422 670 L587 0 Z M180 204 L486 204 L397 575 L180 204 Z " />
<glyph glyph-name="Euro" unicode="&#x20ac;" horiz-adv-x="682" d="M435 229 L180 229 Q188 188 206.5 153 Q225 118 253.5 92.5 Q282 67 320 52.5 Q358 38 406 38 Q457 38 499.5 55.5 Q542 73 575 111 L609 80 Q574 40 522.5 15 Q471 -10 402 -10 Q344 -10 296.5 8 Q249 26 214 58.5 Q179 91 156 134.5 Q133 178 125 229 L6 229 L14 275 L121 275 L121 286 Q121 332 131 381 L35 381 L43 426 L143 426 Q158 472 183.5 516 Q209 560 247 594 Q285 628 336.5 649 Q388 670 454 670 Q533 670 588 640 Q643 610 677 560 L638 532 Q610 574 565.5 598 Q521 622 455 622 Q401 622 359.5 605.5 Q318 589 286.5 562 Q255 535 233.5 499.5 Q212 464 199 426 L524 426 L504 381 L186 381 Q180 356 177.5 333 Q175 310 175 289 L175 275 L455 275 L435 229 Z " />
</font>
</svg>
