<?xml version="1.0" encoding="UTF-8"?>
<svg xmlns="http://www.w3.org/2000/svg" xmlns:xlink="http://www.w3.org/1999/xlink" version="1.2" >
<font id="Cera Medium">
<font-face  font-family="Cera" units-per-em="1000" ascent="808" descent="-192" font-style="normal" font-weight="500" font-stretch="normal" cap-height="660" x-height="480" underline-position="-60" underline-thickness="80" />
<missing-glyph  horiz-adv-x="710" d="M626 0 L83 0 L83 660 L626 660 L626 0 Z M156 592 L552 65 L552 592 L156 592 Z " />
<glyph glyph-name="Aacute" unicode="&#xc1;" horiz-adv-x="662" d="M640 0 L526 0 L479 110 L182 110 L135 0 L22 0 L313 671 L349 671 L640 0 Z M220 201 L440 201 L331 474 L220 201 Z M496 891 L368 724 L290 724 L369 910 L496 910 L496 891 Z " />
<glyph glyph-name="Abreve" unicode="&#x102;" horiz-adv-x="662" d="M640 0 L526 0 L479 110 L182 110 L135 0 L22 0 L313 671 L349 671 L640 0 Z M220 201 L440 201 L331 474 L220 201 Z M493 897 Q493 862 481 832.5 Q469 803 447.5 781 Q426 759 396.5 747 Q367 735 331 735 Q295 735 265.5 747 Q236 759 214.5 781 Q193 803 181 832.5 Q169 862 169 897 L254 897 Q254 859 276 837 Q298 815 331 815 Q365 815 386.5 837 Q408 859 408 897 L493 897 Z " />
<glyph glyph-name="Acircumflex" unicode="&#xc2;" horiz-adv-x="662" d="M640 0 L526 0 L479 110 L182 110 L135 0 L22 0 L313 671 L349 671 L640 0 Z M220 201 L440 201 L331 474 L220 201 Z M512 724 L431 724 L330 817 L230 724 L149 724 L297 910 L364 910 L512 724 Z " />
<glyph glyph-name="Adieresis" unicode="&#xc4;" horiz-adv-x="662" d="M640 0 L526 0 L479 110 L182 110 L135 0 L22 0 L313 671 L349 671 L640 0 Z M220 201 L440 201 L331 474 L220 201 Z M453 877 Q481 877 500.5 858 Q520 839 520 811 Q520 785 500.5 765.5 Q481 746 453 746 Q427 746 406 765.5 Q385 785 385 811 Q385 839 406 858 Q427 877 453 877 Z M208 877 Q236 877 255.5 858.5 Q275 840 275 812 Q275 786 255.5 766.5 Q236 747 208 747 Q182 747 161 766.5 Q140 786 140 812 Q140 840 161 858.5 Q182 877 208 877 Z " />
<glyph glyph-name="Agrave" unicode="&#xc0;" horiz-adv-x="662" d="M640 0 L526 0 L479 110 L182 110 L135 0 L22 0 L313 671 L349 671 L640 0 Z M220 201 L440 201 L331 474 L220 201 Z M370 724 L292 724 L164 891 L164 910 L291 910 L370 724 Z " />
<glyph glyph-name="Amacron" unicode="&#x100;" horiz-adv-x="662" d="M640 0 L526 0 L479 110 L182 110 L135 0 L22 0 L313 671 L349 671 L640 0 Z M220 201 L440 201 L331 474 L220 201 Z M485 762 L177 762 L177 847 L485 847 L485 762 Z " />
<glyph glyph-name="Aogonek" unicode="&#x104;" horiz-adv-x="662" d="M640 0 L526 0 L479 110 L182 110 L135 0 L22 0 L313 671 L349 671 L640 0 Z M220 201 L440 201 L331 474 L220 201 Z M641 0 L596 -29 Q576 -42 563.5 -52 Q551 -62 551 -79 Q551 -112 593 -112 Q603 -112 615.5 -110 Q628 -108 641 -106 L641 -179 Q626 -184 604.5 -187.5 Q583 -191 562 -191 Q509 -191 478.5 -165.5 Q448 -140 448 -98 Q448 -77 456.5 -59.5 Q465 -42 483 -25 Q501 -8 529.5 8.5 Q558 25 598 44 L641 0 Z " />
<glyph glyph-name="Aring" unicode="&#xc5;" horiz-adv-x="662" d="M640 0 L526 0 L479 110 L182 110 L135 0 L22 0 L313 671 L349 671 L640 0 Z M220 201 L440 201 L331 474 L220 201 Z M330 917 Q356 917 378 908 Q400 899 415.5 883.5 Q431 868 440 847 Q449 826 449 802 Q449 753 415.5 720 Q382 687 330 687 Q304 687 282.5 696 Q261 705 245.5 720.5 Q230 736 221 757 Q212 778 212 802 Q212 826 221 847 Q230 868 245.5 883.5 Q261 899 282.5 908 Q304 917 330 917 Z M331 848 Q311 848 298 835 Q285 822 285 802 Q285 782 298 769 Q311 756 331 756 Q350 756 363 769 Q376 782 376 802 Q376 822 363.5 835 Q351 848 331 848 Z " />
<glyph glyph-name="Atilde" unicode="&#xc3;" horiz-adv-x="662" d="M640 0 L526 0 L479 110 L182 110 L135 0 L22 0 L313 671 L349 671 L640 0 Z M220 201 L440 201 L331 474 L220 201 Z M250 890 Q286 890 322 868 L355 848 Q367 841 377 835.5 Q387 830 399 830 Q413 830 420 840 Q427 850 427 865 L427 880 L511 880 Q512 873 512 866 Q512 859 512 851 Q512 798 484 766 Q456 734 413 734 Q394 734 375.5 740 Q357 746 338 757 L307 775 Q295 782 284.5 787.5 Q274 793 263 793 Q249 793 242 782.5 Q235 772 235 757 L235 744 L151 744 Q150 751 149.5 758 Q149 765 149 773 Q149 825 177.5 857.5 Q206 890 250 890 Z " />
<glyph glyph-name="AE" unicode="&#xc6;" horiz-adv-x="836" d="M704 304 L516 304 L551 95 L796 95 L796 0 L461 0 L442 110 L181 110 L123 0 L9 0 L350 660 L784 660 L784 565 L472 565 L500 396 L704 396 L704 304 Z M228 201 L427 201 L378 504 L228 201 Z " />
<glyph glyph-name="AEacute" unicode="&#x1fc;" horiz-adv-x="836" d="M704 304 L516 304 L551 95 L796 95 L796 0 L461 0 L442 110 L181 110 L123 0 L9 0 L350 660 L784 660 L784 565 L472 565 L500 396 L704 396 L704 304 Z M228 201 L427 201 L378 504 L228 201 Z M584 891 L456 724 L378 724 L457 910 L584 910 L584 891 Z " />
<glyph glyph-name="B" unicode="B" horiz-adv-x="618" d="M314 660 Q359 660 395.5 647 Q432 634 458 610.5 Q484 587 498 555 Q512 523 512 484 Q512 407 456 360 Q515 341 547.5 297.5 Q580 254 580 192 Q580 150 565 115 Q550 80 522 54.5 Q494 29 454.5 14.5 Q415 0 366 0 L83 0 L83 660 L314 660 Z M187 298 L187 93 L357 93 Q414 93 443.5 120.5 Q473 148 473 195 Q473 242 443.5 270 Q414 298 357 298 L187 298 Z M187 567 L187 389 L304 389 Q355 389 380 414 Q405 439 405 479 Q405 519 380 543 Q355 567 304 567 L187 567 Z " />
<glyph glyph-name="C" unicode="C" horiz-adv-x="717" d="M390 671 Q483 671 556.5 629.5 Q630 588 673 519 L593 460 Q558 514 507 544 Q456 574 390 574 Q339 574 295.5 555.5 Q252 537 220 504.5 Q188 472 170 427.5 Q152 383 152 330 Q152 277 170 232.5 Q188 188 220 155.5 Q252 123 295.5 104.5 Q339 86 390 86 Q456 86 507 116 Q558 146 593 200 L673 141 Q631 72 557 30.5 Q483 -11 390 -11 Q317 -11 254 15 Q191 41 144 86.5 Q97 132 70 194.5 Q43 257 43 330 Q43 402 70 464.5 Q97 527 144 573 Q191 619 254 645 Q317 671 390 671 Z " />
<glyph glyph-name="Cacute" unicode="&#x106;" horiz-adv-x="717" d="M390 671 Q483 671 556.5 629.5 Q630 588 673 519 L593 460 Q558 514 507 544 Q456 574 390 574 Q339 574 295.5 555.5 Q252 537 220 504.5 Q188 472 170 427.5 Q152 383 152 330 Q152 277 170 232.5 Q188 188 220 155.5 Q252 123 295.5 104.5 Q339 86 390 86 Q456 86 507 116 Q558 146 593 200 L673 141 Q631 72 557 30.5 Q483 -11 390 -11 Q317 -11 254 15 Q191 41 144 86.5 Q97 132 70 194.5 Q43 257 43 330 Q43 402 70 464.5 Q97 527 144 573 Q191 619 254 645 Q317 671 390 671 Z M556 891 L428 724 L350 724 L429 910 L556 910 L556 891 Z " />
<glyph glyph-name="Ccaron" unicode="&#x10c;" horiz-adv-x="717" d="M390 671 Q483 671 556.5 629.5 Q630 588 673 519 L593 460 Q558 514 507 544 Q456 574 390 574 Q339 574 295.5 555.5 Q252 537 220 504.5 Q188 472 170 427.5 Q152 383 152 330 Q152 277 170 232.5 Q188 188 220 155.5 Q252 123 295.5 104.5 Q339 86 390 86 Q456 86 507 116 Q558 146 593 200 L673 141 Q631 72 557 30.5 Q483 -11 390 -11 Q317 -11 254 15 Q191 41 144 86.5 Q97 132 70 194.5 Q43 257 43 330 Q43 402 70 464.5 Q97 527 144 573 Q191 619 254 645 Q317 671 390 671 Z M424 724 L357 724 L209 910 L290 910 L390 816 L491 910 L572 910 L424 724 Z " />
<glyph glyph-name="Ccedilla" unicode="&#xc7;" horiz-adv-x="717" d="M390 671 Q483 671 556.5 629.5 Q630 588 673 519 L593 460 Q558 514 507 544 Q456 574 390 574 Q339 574 295.5 555.5 Q252 537 220 504.5 Q188 472 170 427.5 Q152 383 152 330 Q152 277 170 232.5 Q188 188 220 155.5 Q252 123 295.5 104.5 Q339 86 390 86 Q456 86 507 116 Q558 146 593 200 L673 141 Q631 72 557 30.5 Q483 -11 390 -11 Q317 -11 254 15 Q191 41 144 86.5 Q97 132 70 194.5 Q43 257 43 330 Q43 402 70 464.5 Q97 527 144 573 Q191 619 254 645 Q317 671 390 671 Z M410 35 Q440 19 458 -8 Q476 -35 476 -71 Q476 -96 466.5 -117.5 Q457 -139 438.5 -155.5 Q420 -172 393.5 -181.5 Q367 -191 333 -191 Q315 -191 296.5 -188.5 Q278 -186 262 -182 L262 -110 Q299 -113 320 -113 Q351 -113 370.5 -98.5 Q390 -84 390 -52 Q390 -32 383 -15.5 Q376 1 367 14 L410 35 Z " />
<glyph glyph-name="Ccircumflex" unicode="&#x108;" horiz-adv-x="717" d="M390 671 Q483 671 556.5 629.5 Q630 588 673 519 L593 460 Q558 514 507 544 Q456 574 390 574 Q339 574 295.5 555.5 Q252 537 220 504.5 Q188 472 170 427.5 Q152 383 152 330 Q152 277 170 232.5 Q188 188 220 155.5 Q252 123 295.5 104.5 Q339 86 390 86 Q456 86 507 116 Q558 146 593 200 L673 141 Q631 72 557 30.5 Q483 -11 390 -11 Q317 -11 254 15 Q191 41 144 86.5 Q97 132 70 194.5 Q43 257 43 330 Q43 402 70 464.5 Q97 527 144 573 Q191 619 254 645 Q317 671 390 671 Z M572 724 L491 724 L390 817 L290 724 L209 724 L357 910 L424 910 L572 724 Z " />
<glyph glyph-name="Cdotaccent" unicode="&#x10a;" horiz-adv-x="717" d="M390 671 Q483 671 556.5 629.5 Q630 588 673 519 L593 460 Q558 514 507 544 Q456 574 390 574 Q339 574 295.5 555.5 Q252 537 220 504.5 Q188 472 170 427.5 Q152 383 152 330 Q152 277 170 232.5 Q188 188 220 155.5 Q252 123 295.5 104.5 Q339 86 390 86 Q456 86 507 116 Q558 146 593 200 L673 141 Q631 72 557 30.5 Q483 -11 390 -11 Q317 -11 254 15 Q191 41 144 86.5 Q97 132 70 194.5 Q43 257 43 330 Q43 402 70 464.5 Q97 527 144 573 Q191 619 254 645 Q317 671 390 671 Z M391 882 Q420 882 441.5 862 Q463 842 463 812 Q463 783 441.5 763 Q420 743 391 743 Q361 743 340 763 Q319 783 319 812 Q319 842 340 862 Q361 882 391 882 Z " />
<glyph glyph-name="D" unicode="D" horiz-adv-x="692" d="M289 660 Q371 660 437.5 636 Q504 612 551 568.5 Q598 525 623.5 464.5 Q649 404 649 331 Q649 259 623.5 198.5 Q598 138 551 93.5 Q504 49 437.5 24.5 Q371 0 289 0 L83 0 L83 660 L289 660 Z M189 564 L189 95 L288 95 Q346 95 393 112.5 Q440 130 472 161.5 Q504 193 521.5 236.5 Q539 280 539 331 Q539 384 521.5 427 Q504 470 472 500.5 Q440 531 393 547.5 Q346 564 288 564 L189 564 Z " />
<glyph glyph-name="Eth" unicode="&#xd0;" horiz-adv-x="692" d="M289 660 Q371 660 437.5 636 Q504 612 551 568.5 Q598 525 623.5 464.5 Q649 404 649 331 Q649 259 623.5 198.5 Q598 138 551 93.5 Q504 49 437.5 24.5 Q371 0 289 0 L83 0 L83 265 L-5 265 L-5 355 L83 355 L83 660 L289 660 Z M189 564 L189 355 L309 355 L309 265 L189 265 L189 95 L288 95 Q346 95 393 112.5 Q440 130 472 161.5 Q504 193 521.5 236.5 Q539 280 539 331 Q539 384 521.5 427 Q504 470 472 500.5 Q440 531 393 547.5 Q346 564 288 564 L189 564 Z " />
<glyph glyph-name="Dcaron" unicode="&#x10e;" horiz-adv-x="692" d="M289 660 Q371 660 437.5 636 Q504 612 551 568.5 Q598 525 623.5 464.5 Q649 404 649 331 Q649 259 623.5 198.5 Q598 138 551 93.5 Q504 49 437.5 24.5 Q371 0 289 0 L83 0 L83 660 L289 660 Z M189 564 L189 95 L288 95 Q346 95 393 112.5 Q440 130 472 161.5 Q504 193 521.5 236.5 Q539 280 539 331 Q539 384 521.5 427 Q504 470 472 500.5 Q440 531 393 547.5 Q346 564 288 564 L189 564 Z M315 724 L248 724 L100 910 L181 910 L281 816 L382 910 L463 910 L315 724 Z " />
<glyph glyph-name="Dcroat" unicode="&#x110;" horiz-adv-x="692" d="M289 660 Q371 660 437.5 636 Q504 612 551 568.5 Q598 525 623.5 464.5 Q649 404 649 331 Q649 259 623.5 198.5 Q598 138 551 93.5 Q504 49 437.5 24.5 Q371 0 289 0 L83 0 L83 265 L-5 265 L-5 355 L83 355 L83 660 L289 660 Z M189 564 L189 355 L309 355 L309 265 L189 265 L189 95 L288 95 Q346 95 393 112.5 Q440 130 472 161.5 Q504 193 521.5 236.5 Q539 280 539 331 Q539 384 521.5 427 Q504 470 472 500.5 Q440 531 393 547.5 Q346 564 288 564 L189 564 Z " />
<glyph glyph-name="E" unicode="E" horiz-adv-x="569" d="M517 565 L189 565 L189 396 L435 396 L435 304 L189 304 L189 95 L529 95 L529 0 L83 0 L83 660 L517 660 L517 565 Z " />
<glyph glyph-name="Eacute" unicode="&#xc9;" horiz-adv-x="569" d="M517 565 L189 565 L189 396 L435 396 L435 304 L189 304 L189 95 L529 95 L529 0 L83 0 L83 660 L517 660 L517 565 Z M464 891 L336 724 L258 724 L337 910 L464 910 L464 891 Z " />
<glyph glyph-name="Ebreve" unicode="&#x114;" horiz-adv-x="569" d="M517 565 L189 565 L189 396 L435 396 L435 304 L189 304 L189 95 L529 95 L529 0 L83 0 L83 660 L517 660 L517 565 Z M461 897 Q461 862 449 832.5 Q437 803 415.5 781 Q394 759 364.5 747 Q335 735 299 735 Q263 735 233.5 747 Q204 759 182.5 781 Q161 803 149 832.5 Q137 862 137 897 L222 897 Q222 859 244 837 Q266 815 299 815 Q333 815 354.5 837 Q376 859 376 897 L461 897 Z " />
<glyph glyph-name="Ecaron" unicode="&#x11a;" horiz-adv-x="569" d="M517 565 L189 565 L189 396 L435 396 L435 304 L189 304 L189 95 L529 95 L529 0 L83 0 L83 660 L517 660 L517 565 Z M332 724 L265 724 L117 910 L198 910 L298 816 L399 910 L480 910 L332 724 Z " />
<glyph glyph-name="Ecircumflex" unicode="&#xca;" horiz-adv-x="569" d="M517 565 L189 565 L189 396 L435 396 L435 304 L189 304 L189 95 L529 95 L529 0 L83 0 L83 660 L517 660 L517 565 Z M480 724 L399 724 L298 817 L198 724 L117 724 L265 910 L332 910 L480 724 Z " />
<glyph glyph-name="Edieresis" unicode="&#xcb;" horiz-adv-x="569" d="M517 565 L189 565 L189 396 L435 396 L435 304 L189 304 L189 95 L529 95 L529 0 L83 0 L83 660 L517 660 L517 565 Z M421 877 Q449 877 468.5 858 Q488 839 488 811 Q488 785 468.5 765.5 Q449 746 421 746 Q395 746 374 765.5 Q353 785 353 811 Q353 839 374 858 Q395 877 421 877 Z M176 877 Q204 877 223.5 858.5 Q243 840 243 812 Q243 786 223.5 766.5 Q204 747 176 747 Q150 747 129 766.5 Q108 786 108 812 Q108 840 129 858.5 Q150 877 176 877 Z " />
<glyph glyph-name="Edotaccent" unicode="&#x116;" horiz-adv-x="569" d="M517 565 L189 565 L189 396 L435 396 L435 304 L189 304 L189 95 L529 95 L529 0 L83 0 L83 660 L517 660 L517 565 Z M299 882 Q328 882 349.5 862 Q371 842 371 812 Q371 783 349.5 763 Q328 743 299 743 Q269 743 248 763 Q227 783 227 812 Q227 842 248 862 Q269 882 299 882 Z " />
<glyph glyph-name="Egrave" unicode="&#xc8;" horiz-adv-x="569" d="M517 565 L189 565 L189 396 L435 396 L435 304 L189 304 L189 95 L529 95 L529 0 L83 0 L83 660 L517 660 L517 565 Z M338 724 L260 724 L132 891 L132 910 L259 910 L338 724 Z " />
<glyph glyph-name="Emacron" unicode="&#x112;" horiz-adv-x="569" d="M517 565 L189 565 L189 396 L435 396 L435 304 L189 304 L189 95 L529 95 L529 0 L83 0 L83 660 L517 660 L517 565 Z M453 762 L145 762 L145 847 L453 847 L453 762 Z " />
<glyph glyph-name="Eogonek" unicode="&#x118;" horiz-adv-x="569" d="M517 565 L189 565 L189 396 L435 396 L435 304 L189 304 L189 95 L529 95 L529 0 L83 0 L83 660 L517 660 L517 565 Z M530 0 L485 -29 Q465 -42 452.5 -52 Q440 -62 440 -79 Q440 -112 482 -112 Q492 -112 504.5 -110 Q517 -108 530 -106 L530 -179 Q515 -184 493.5 -187.5 Q472 -191 451 -191 Q398 -191 367.5 -165.5 Q337 -140 337 -98 Q337 -77 345.5 -59.5 Q354 -42 372 -25 Q390 -8 418.5 8.5 Q447 25 487 44 L530 0 Z " />
<glyph glyph-name="F" unicode="F" horiz-adv-x="529" d="M507 565 L189 565 L189 368 L451 368 L451 272 L189 272 L189 0 L83 0 L83 660 L507 660 L507 565 Z " />
<glyph glyph-name="G" unicode="G" horiz-adv-x="746" d="M391 671 Q478 671 547.5 635 Q617 599 664 533 L587 470 Q552 519 503 546.5 Q454 574 390 574 Q337 574 293.5 555.5 Q250 537 218.5 504.5 Q187 472 169.5 427.5 Q152 383 152 331 Q152 278 170 232.5 Q188 187 220 154 Q252 121 296.5 102.5 Q341 84 395 84 Q462 84 512.5 111.5 Q563 139 593 184 L593 255 L389 255 L389 349 L699 349 L699 163 Q677 124 645.5 92 Q614 60 574.5 37 Q535 14 488.5 1.5 Q442 -11 391 -11 Q317 -11 253.5 15 Q190 41 143.5 87 Q97 133 70 195.5 Q43 258 43 330 Q43 402 70 464.5 Q97 527 143.5 573 Q190 619 253.5 645 Q317 671 391 671 Z " />
<glyph glyph-name="Gbreve" unicode="&#x11e;" horiz-adv-x="746" d="M391 671 Q478 671 547.5 635 Q617 599 664 533 L587 470 Q552 519 503 546.5 Q454 574 390 574 Q337 574 293.5 555.5 Q250 537 218.5 504.5 Q187 472 169.5 427.5 Q152 383 152 331 Q152 278 170 232.5 Q188 187 220 154 Q252 121 296.5 102.5 Q341 84 395 84 Q462 84 512.5 111.5 Q563 139 593 184 L593 255 L389 255 L389 349 L699 349 L699 163 Q677 124 645.5 92 Q614 60 574.5 37 Q535 14 488.5 1.5 Q442 -11 391 -11 Q317 -11 253.5 15 Q190 41 143.5 87 Q97 133 70 195.5 Q43 258 43 330 Q43 402 70 464.5 Q97 527 143.5 573 Q190 619 253.5 645 Q317 671 391 671 Z M554 897 Q554 862 542 832.5 Q530 803 508.5 781 Q487 759 457.5 747 Q428 735 392 735 Q356 735 326.5 747 Q297 759 275.5 781 Q254 803 242 832.5 Q230 862 230 897 L315 897 Q315 859 337 837 Q359 815 392 815 Q426 815 447.5 837 Q469 859 469 897 L554 897 Z " />
<glyph glyph-name="Gcircumflex" unicode="&#x11c;" horiz-adv-x="746" d="M391 671 Q478 671 547.5 635 Q617 599 664 533 L587 470 Q552 519 503 546.5 Q454 574 390 574 Q337 574 293.5 555.5 Q250 537 218.5 504.5 Q187 472 169.5 427.5 Q152 383 152 331 Q152 278 170 232.5 Q188 187 220 154 Q252 121 296.5 102.5 Q341 84 395 84 Q462 84 512.5 111.5 Q563 139 593 184 L593 255 L389 255 L389 349 L699 349 L699 163 Q677 124 645.5 92 Q614 60 574.5 37 Q535 14 488.5 1.5 Q442 -11 391 -11 Q317 -11 253.5 15 Q190 41 143.5 87 Q97 133 70 195.5 Q43 258 43 330 Q43 402 70 464.5 Q97 527 143.5 573 Q190 619 253.5 645 Q317 671 391 671 Z M573 724 L492 724 L391 817 L291 724 L210 724 L358 910 L425 910 L573 724 Z " />
<glyph glyph-name="Gcommaaccent" unicode="&#x122;" horiz-adv-x="746" d="M391 671 Q478 671 547.5 635 Q617 599 664 533 L587 470 Q552 519 503 546.5 Q454 574 390 574 Q337 574 293.5 555.5 Q250 537 218.5 504.5 Q187 472 169.5 427.5 Q152 383 152 331 Q152 278 170 232.5 Q188 187 220 154 Q252 121 296.5 102.5 Q341 84 395 84 Q462 84 512.5 111.5 Q563 139 593 184 L593 255 L389 255 L389 349 L699 349 L699 163 Q677 124 645.5 92 Q614 60 574.5 37 Q535 14 488.5 1.5 Q442 -11 391 -11 Q317 -11 253.5 15 Q190 41 143.5 87 Q97 133 70 195.5 Q43 258 43 330 Q43 402 70 464.5 Q97 527 143.5 573 Q190 619 253.5 645 Q317 671 391 671 Z M416 -220 L335 -220 L341 -48 L442 -48 L416 -220 Z " />
<glyph glyph-name="Gdotaccent" unicode="&#x120;" horiz-adv-x="746" d="M391 671 Q478 671 547.5 635 Q617 599 664 533 L587 470 Q552 519 503 546.5 Q454 574 390 574 Q337 574 293.5 555.5 Q250 537 218.5 504.5 Q187 472 169.5 427.5 Q152 383 152 331 Q152 278 170 232.5 Q188 187 220 154 Q252 121 296.5 102.5 Q341 84 395 84 Q462 84 512.5 111.5 Q563 139 593 184 L593 255 L389 255 L389 349 L699 349 L699 163 Q677 124 645.5 92 Q614 60 574.5 37 Q535 14 488.5 1.5 Q442 -11 391 -11 Q317 -11 253.5 15 Q190 41 143.5 87 Q97 133 70 195.5 Q43 258 43 330 Q43 402 70 464.5 Q97 527 143.5 573 Q190 619 253.5 645 Q317 671 391 671 Z M392 882 Q421 882 442.5 862 Q464 842 464 812 Q464 783 442.5 763 Q421 743 392 743 Q362 743 341 763 Q320 783 320 812 Q320 842 341 862 Q362 882 392 882 Z " />
<glyph glyph-name="H" unicode="H" horiz-adv-x="711" d="M627 0 L521 0 L521 302 L189 302 L189 0 L83 0 L83 660 L189 660 L189 397 L521 397 L521 660 L627 660 L627 0 Z " />
<glyph glyph-name="Hbar" unicode="&#x126;" horiz-adv-x="725" d="M635 537 L731 537 L731 448 L635 448 L635 0 L529 0 L529 234 L197 234 L197 0 L91 0 L91 448 L-5 448 L-5 537 L91 537 L91 660 L197 660 L197 537 L529 537 L529 660 L635 660 L635 537 Z M196 448 L196 327 L528 327 L528 448 L196 448 Z " />
<glyph glyph-name="Hcircumflex" unicode="&#x124;" horiz-adv-x="711" d="M627 0 L521 0 L521 302 L189 302 L189 0 L83 0 L83 660 L189 660 L189 397 L521 397 L521 660 L627 660 L627 0 Z M536 724 L455 724 L354 817 L254 724 L173 724 L321 910 L388 910 L536 724 Z " />
<glyph glyph-name="I" unicode="I" horiz-adv-x="272" d="M189 0 L83 0 L83 660 L189 660 L189 0 Z " />
<glyph glyph-name="IJ" unicode="&#x132;" horiz-adv-x="653" d="M189 0 L83 0 L83 660 L189 660 L189 0 Z M570 164 Q570 73 519.5 31 Q469 -11 384 -11 Q358 -11 335.5 -8 Q313 -5 293 0 L293 91 Q313 89 330.5 87.5 Q348 86 362 86 Q411 86 437.5 104.5 Q464 123 464 175 L464 660 L570 660 L570 164 Z " />
<glyph glyph-name="Iacute" unicode="&#xcd;" horiz-adv-x="272" d="M189 0 L83 0 L83 660 L189 660 L189 0 Z M302 891 L174 724 L96 724 L175 910 L302 910 L302 891 Z " />
<glyph glyph-name="Ibreve" unicode="&#x12c;" horiz-adv-x="272" d="M189 0 L83 0 L83 660 L189 660 L189 0 Z M300 897 Q300 862 288 832.5 Q276 803 254.5 781 Q233 759 203.5 747 Q174 735 138 735 Q102 735 72.5 747 Q43 759 21.5 781 Q0 803 -12 832.5 Q-24 862 -24 897 L61 897 Q61 859 83 837 Q105 815 138 815 Q172 815 193.5 837 Q215 859 215 897 L300 897 Z " />
<glyph glyph-name="Icircumflex" unicode="&#xce;" horiz-adv-x="272" d="M189 0 L83 0 L83 660 L189 660 L189 0 Z M319 724 L238 724 L137 817 L37 724 L-44 724 L104 910 L171 910 L319 724 Z " />
<glyph glyph-name="Idieresis" unicode="&#xcf;" horiz-adv-x="272" d="M189 0 L83 0 L83 660 L189 660 L189 0 Z M260 877 Q288 877 307.5 858 Q327 839 327 811 Q327 785 307.5 765.5 Q288 746 260 746 Q234 746 213 765.5 Q192 785 192 811 Q192 839 213 858 Q234 877 260 877 Z M15 877 Q43 877 62.5 858.5 Q82 840 82 812 Q82 786 62.5 766.5 Q43 747 15 747 Q-11 747 -32 766.5 Q-53 786 -53 812 Q-53 840 -32 858.5 Q-11 877 15 877 Z " />
<glyph glyph-name="Idotaccent" unicode="&#x130;" horiz-adv-x="272" d="M189 0 L83 0 L83 660 L189 660 L189 0 Z M137 882 Q166 882 187.5 862 Q209 842 209 812 Q209 783 187.5 763 Q166 743 137 743 Q107 743 86 763 Q65 783 65 812 Q65 842 86 862 Q107 882 137 882 Z " />
<glyph glyph-name="Igrave" unicode="&#xcc;" horiz-adv-x="272" d="M189 0 L83 0 L83 660 L189 660 L189 0 Z M177 724 L99 724 L-29 891 L-29 910 L98 910 L177 724 Z " />
<glyph glyph-name="Imacron" unicode="&#x12a;" horiz-adv-x="272" d="M189 0 L83 0 L83 660 L189 660 L189 0 Z M292 762 L-16 762 L-16 847 L292 847 L292 762 Z " />
<glyph glyph-name="Iogonek" unicode="&#x12e;" horiz-adv-x="272" d="M189 0 L83 0 L83 660 L189 660 L189 0 Z M191 0 L146 -29 Q126 -42 113.5 -52 Q101 -62 101 -79 Q101 -112 143 -112 Q153 -112 165.5 -110 Q178 -108 191 -106 L191 -179 Q176 -184 154.5 -187.5 Q133 -191 112 -191 Q59 -191 28.5 -165.5 Q-2 -140 -2 -98 Q-2 -77 6.5 -59.5 Q15 -42 33 -25 Q51 -8 79.5 8.5 Q108 25 148 44 L191 0 Z " />
<glyph glyph-name="Itilde" unicode="&#x128;" horiz-adv-x="272" d="M189 0 L83 0 L83 660 L189 660 L189 0 Z M57 890 Q93 890 129 868 L162 848 Q174 841 184 835.5 Q194 830 206 830 Q220 830 227 840 Q234 850 234 865 L234 880 L318 880 Q319 873 319 866 Q319 859 319 851 Q319 798 291 766 Q263 734 220 734 Q201 734 182.5 740 Q164 746 145 757 L114 775 Q102 782 91.5 787.5 Q81 793 70 793 Q56 793 49 782.5 Q42 772 42 757 L42 744 L-42 744 Q-43 751 -43.5 758 Q-44 765 -44 773 Q-44 825 -15.5 857.5 Q13 890 57 890 Z " />
<glyph glyph-name="J" unicode="J" horiz-adv-x="381" d="M298 164 Q298 73 247.5 31 Q197 -11 112 -11 Q86 -11 63.5 -8 Q41 -5 21 0 L21 91 Q41 89 58.5 87.5 Q76 86 90 86 Q139 86 165.5 104.5 Q192 123 192 175 L192 660 L298 660 L298 164 Z " />
<glyph glyph-name="Jcircumflex" unicode="&#x134;" horiz-adv-x="381" d="M298 164 Q298 73 247.5 31 Q197 -11 112 -11 Q86 -11 63.5 -8 Q41 -5 21 0 L21 91 Q41 89 58.5 87.5 Q76 86 90 86 Q139 86 165.5 104.5 Q192 123 192 175 L192 660 L298 660 L298 164 Z M413 724 L332 724 L231 817 L131 724 L50 724 L198 910 L265 910 L413 724 Z " />
<glyph glyph-name="K" unicode="K" horiz-adv-x="651" d="M324 351 L629 0 L498 0 L192 351 L469 660 L599 660 L324 351 Z M189 0 L83 0 L83 660 L189 660 L189 0 Z " />
<glyph glyph-name="Kcommaaccent" unicode="&#x136;" horiz-adv-x="651" d="M324 351 L629 0 L498 0 L192 351 L469 660 L599 660 L324 351 Z M189 0 L83 0 L83 660 L189 660 L189 0 Z M336 -220 L255 -220 L261 -48 L362 -48 L336 -220 Z " />
<glyph glyph-name="L" unicode="L" horiz-adv-x="515" d="M189 95 L491 95 L491 0 L83 0 L83 660 L189 660 L189 95 Z " />
<glyph glyph-name="Lacute" unicode="&#x139;" horiz-adv-x="515" d="M189 95 L491 95 L491 0 L83 0 L83 660 L189 660 L189 95 Z M301 891 L173 724 L95 724 L174 910 L301 910 L301 891 Z " />
<glyph glyph-name="Lcaron" unicode="&#x13d;" horiz-adv-x="515" d="M189 95 L491 95 L491 0 L83 0 L83 660 L189 660 L189 95 Z M438 513 L362 513 L371 721 L482 721 L438 513 Z " />
<glyph glyph-name="Lcommaaccent" unicode="&#x13b;" horiz-adv-x="515" d="M189 95 L491 95 L491 0 L83 0 L83 660 L189 660 L189 95 Z M305 -220 L224 -220 L230 -48 L331 -48 L305 -220 Z " />
<glyph glyph-name="Ldot" unicode="&#x13f;" horiz-adv-x="515" d="M189 95 L491 95 L491 0 L83 0 L83 660 L189 660 L189 95 Z M394 451 Q426 451 448.5 429 Q471 407 471 373 Q471 339 448.5 317.5 Q426 296 394 296 Q361 296 338.5 317.5 Q316 339 316 373 Q316 407 338.5 429 Q361 451 394 451 Z " />
<glyph glyph-name="Lslash" unicode="&#x141;" horiz-adv-x="515" d="M189 368 L400 465 L400 366 L189 270 L189 95 L491 95 L491 0 L83 0 L83 229 L8 196 L8 294 L83 327 L83 660 L189 660 L189 368 Z " />
<glyph glyph-name="M" unicode="M" horiz-adv-x="793" d="M710 0 L604 0 L604 414 L414 166 L379 166 L189 415 L189 0 L83 0 L83 671 L119 671 L396 302 L674 671 L710 671 L710 0 Z " />
<glyph glyph-name="N" unicode="N" horiz-adv-x="711" d="M521 214 L521 660 L627 660 L627 -11 L591 -11 L189 446 L189 0 L83 0 L83 671 L119 671 L521 214 Z " />
<glyph glyph-name="Nacute" unicode="&#x143;" horiz-adv-x="711" d="M521 214 L521 660 L627 660 L627 -11 L591 -11 L189 446 L189 0 L83 0 L83 671 L119 671 L521 214 Z M520 891 L392 724 L314 724 L393 910 L520 910 L520 891 Z " />
<glyph glyph-name="Ncaron" unicode="&#x147;" horiz-adv-x="711" d="M521 214 L521 660 L627 660 L627 -11 L591 -11 L189 446 L189 0 L83 0 L83 671 L119 671 L521 214 Z M388 724 L321 724 L173 910 L254 910 L354 816 L455 910 L536 910 L388 724 Z " />
<glyph glyph-name="Ncommaaccent" unicode="&#x145;" horiz-adv-x="711" d="M521 214 L521 660 L627 660 L627 -11 L591 -11 L189 446 L189 0 L83 0 L83 671 L119 671 L521 214 Z M379 -220 L298 -220 L304 -48 L405 -48 L379 -220 Z " />
<glyph glyph-name="Eng" unicode="&#x14a;" horiz-adv-x="711" d="M521 175 L521 660 L627 660 L627 -20 Q627 -109 578.5 -150 Q530 -191 452 -191 Q412 -191 384 -182 L384 -93 Q397 -95 406.5 -95.5 Q416 -96 428 -96 Q473 -96 497 -77.5 Q521 -59 521 -11 L521 19 L189 431 L189 0 L83 0 L83 671 L119 671 L521 175 Z " />
<glyph glyph-name="Ntilde" unicode="&#xd1;" horiz-adv-x="711" d="M521 214 L521 660 L627 660 L627 -11 L591 -11 L189 446 L189 0 L83 0 L83 671 L119 671 L521 214 Z M274 890 Q310 890 346 868 L379 848 Q391 841 401 835.5 Q411 830 423 830 Q437 830 444 840 Q451 850 451 865 L451 880 L535 880 Q536 873 536 866 Q536 859 536 851 Q536 798 508 766 Q480 734 437 734 Q418 734 399.5 740 Q381 746 362 757 L331 775 Q319 782 308.5 787.5 Q298 793 287 793 Q273 793 266 782.5 Q259 772 259 757 L259 744 L175 744 Q174 751 173.5 758 Q173 765 173 773 Q173 825 201.5 857.5 Q230 890 274 890 Z " />
<glyph glyph-name="O" unicode="O" horiz-adv-x="780" d="M389 671 Q461 671 524 645 Q587 619 634 573 Q681 527 708.5 464.5 Q736 402 736 330 Q736 257 708.5 194.5 Q681 132 634 86.5 Q587 41 524 15 Q461 -11 389 -11 Q317 -11 253.5 15 Q190 41 143.5 87 Q97 133 70 195.5 Q43 258 43 330 Q43 402 70 464.5 Q97 527 144 573 Q191 619 254 645 Q317 671 389 671 Z M390 574 Q339 574 295.5 555.5 Q252 537 220.5 505 Q189 473 171 428 Q153 383 153 331 Q153 278 171 233 Q189 188 220.5 155.5 Q252 123 295.5 104.5 Q339 86 390 86 Q441 86 484 104.5 Q527 123 559 155.5 Q591 188 609 233 Q627 278 627 331 Q627 383 609 427.5 Q591 472 559 504.5 Q527 537 484 555.5 Q441 574 390 574 Z " />
<glyph glyph-name="Oacute" unicode="&#xd3;" horiz-adv-x="780" d="M389 671 Q461 671 524 645 Q587 619 634 573 Q681 527 708.5 464.5 Q736 402 736 330 Q736 257 708.5 194.5 Q681 132 634 86.5 Q587 41 524 15 Q461 -11 389 -11 Q317 -11 253.5 15 Q190 41 143.5 87 Q97 133 70 195.5 Q43 258 43 330 Q43 402 70 464.5 Q97 527 144 573 Q191 619 254 645 Q317 671 389 671 Z M390 574 Q339 574 295.5 555.5 Q252 537 220.5 505 Q189 473 171 428 Q153 383 153 331 Q153 278 171 233 Q189 188 220.5 155.5 Q252 123 295.5 104.5 Q339 86 390 86 Q441 86 484 104.5 Q527 123 559 155.5 Q591 188 609 233 Q627 278 627 331 Q627 383 609 427.5 Q591 472 559 504.5 Q527 537 484 555.5 Q441 574 390 574 Z M555 891 L427 724 L349 724 L428 910 L555 910 L555 891 Z " />
<glyph glyph-name="Obreve" unicode="&#x14e;" horiz-adv-x="780" d="M389 671 Q461 671 524 645 Q587 619 634 573 Q681 527 708.5 464.5 Q736 402 736 330 Q736 257 708.5 194.5 Q681 132 634 86.5 Q587 41 524 15 Q461 -11 389 -11 Q317 -11 253.5 15 Q190 41 143.5 87 Q97 133 70 195.5 Q43 258 43 330 Q43 402 70 464.5 Q97 527 144 573 Q191 619 254 645 Q317 671 389 671 Z M390 574 Q339 574 295.5 555.5 Q252 537 220.5 505 Q189 473 171 428 Q153 383 153 331 Q153 278 171 233 Q189 188 220.5 155.5 Q252 123 295.5 104.5 Q339 86 390 86 Q441 86 484 104.5 Q527 123 559 155.5 Q591 188 609 233 Q627 278 627 331 Q627 383 609 427.5 Q591 472 559 504.5 Q527 537 484 555.5 Q441 574 390 574 Z M552 897 Q552 862 540 832.5 Q528 803 506.5 781 Q485 759 455.5 747 Q426 735 390 735 Q354 735 324.5 747 Q295 759 273.5 781 Q252 803 240 832.5 Q228 862 228 897 L313 897 Q313 859 335 837 Q357 815 390 815 Q424 815 445.5 837 Q467 859 467 897 L552 897 Z " />
<glyph glyph-name="Ocircumflex" unicode="&#xd4;" horiz-adv-x="780" d="M389 671 Q461 671 524 645 Q587 619 634 573 Q681 527 708.5 464.5 Q736 402 736 330 Q736 257 708.5 194.5 Q681 132 634 86.5 Q587 41 524 15 Q461 -11 389 -11 Q317 -11 253.5 15 Q190 41 143.5 87 Q97 133 70 195.5 Q43 258 43 330 Q43 402 70 464.5 Q97 527 144 573 Q191 619 254 645 Q317 671 389 671 Z M390 574 Q339 574 295.5 555.5 Q252 537 220.5 505 Q189 473 171 428 Q153 383 153 331 Q153 278 171 233 Q189 188 220.5 155.5 Q252 123 295.5 104.5 Q339 86 390 86 Q441 86 484 104.5 Q527 123 559 155.5 Q591 188 609 233 Q627 278 627 331 Q627 383 609 427.5 Q591 472 559 504.5 Q527 537 484 555.5 Q441 574 390 574 Z M571 724 L490 724 L389 817 L289 724 L208 724 L356 910 L423 910 L571 724 Z " />
<glyph glyph-name="Odieresis" unicode="&#xd6;" horiz-adv-x="780" d="M389 671 Q461 671 524 645 Q587 619 634 573 Q681 527 708.5 464.5 Q736 402 736 330 Q736 257 708.5 194.5 Q681 132 634 86.5 Q587 41 524 15 Q461 -11 389 -11 Q317 -11 253.5 15 Q190 41 143.5 87 Q97 133 70 195.5 Q43 258 43 330 Q43 402 70 464.5 Q97 527 144 573 Q191 619 254 645 Q317 671 389 671 Z M390 574 Q339 574 295.5 555.5 Q252 537 220.5 505 Q189 473 171 428 Q153 383 153 331 Q153 278 171 233 Q189 188 220.5 155.5 Q252 123 295.5 104.5 Q339 86 390 86 Q441 86 484 104.5 Q527 123 559 155.5 Q591 188 609 233 Q627 278 627 331 Q627 383 609 427.5 Q591 472 559 504.5 Q527 537 484 555.5 Q441 574 390 574 Z M512 877 Q540 877 559.5 858 Q579 839 579 811 Q579 785 559.5 765.5 Q540 746 512 746 Q486 746 465 765.5 Q444 785 444 811 Q444 839 465 858 Q486 877 512 877 Z M267 877 Q295 877 314.5 858.5 Q334 840 334 812 Q334 786 314.5 766.5 Q295 747 267 747 Q241 747 220 766.5 Q199 786 199 812 Q199 840 220 858.5 Q241 877 267 877 Z " />
<glyph glyph-name="Ograve" unicode="&#xd2;" horiz-adv-x="780" d="M389 671 Q461 671 524 645 Q587 619 634 573 Q681 527 708.5 464.5 Q736 402 736 330 Q736 257 708.5 194.5 Q681 132 634 86.5 Q587 41 524 15 Q461 -11 389 -11 Q317 -11 253.5 15 Q190 41 143.5 87 Q97 133 70 195.5 Q43 258 43 330 Q43 402 70 464.5 Q97 527 144 573 Q191 619 254 645 Q317 671 389 671 Z M390 574 Q339 574 295.5 555.5 Q252 537 220.5 505 Q189 473 171 428 Q153 383 153 331 Q153 278 171 233 Q189 188 220.5 155.5 Q252 123 295.5 104.5 Q339 86 390 86 Q441 86 484 104.5 Q527 123 559 155.5 Q591 188 609 233 Q627 278 627 331 Q627 383 609 427.5 Q591 472 559 504.5 Q527 537 484 555.5 Q441 574 390 574 Z M429 724 L351 724 L223 891 L223 910 L350 910 L429 724 Z " />
<glyph glyph-name="Ohungarumlaut" unicode="&#x150;" horiz-adv-x="780" d="M389 671 Q461 671 524 645 Q587 619 634 573 Q681 527 708.5 464.5 Q736 402 736 330 Q736 257 708.5 194.5 Q681 132 634 86.5 Q587 41 524 15 Q461 -11 389 -11 Q317 -11 253.5 15 Q190 41 143.5 87 Q97 133 70 195.5 Q43 258 43 330 Q43 402 70 464.5 Q97 527 144 573 Q191 619 254 645 Q317 671 389 671 Z M390 574 Q339 574 295.5 555.5 Q252 537 220.5 505 Q189 473 171 428 Q153 383 153 331 Q153 278 171 233 Q189 188 220.5 155.5 Q252 123 295.5 104.5 Q339 86 390 86 Q441 86 484 104.5 Q527 123 559 155.5 Q591 188 609 233 Q627 278 627 331 Q627 383 609 427.5 Q591 472 559 504.5 Q527 537 484 555.5 Q441 574 390 574 Z M636 891 L519 724 L446 724 L525 910 L636 910 L636 891 Z M437 891 L319 724 L247 724 L326 910 L437 910 L437 891 Z " />
<glyph glyph-name="Omacron" unicode="&#x14c;" horiz-adv-x="780" d="M389 671 Q461 671 524 645 Q587 619 634 573 Q681 527 708.5 464.5 Q736 402 736 330 Q736 257 708.5 194.5 Q681 132 634 86.5 Q587 41 524 15 Q461 -11 389 -11 Q317 -11 253.5 15 Q190 41 143.5 87 Q97 133 70 195.5 Q43 258 43 330 Q43 402 70 464.5 Q97 527 144 573 Q191 619 254 645 Q317 671 389 671 Z M390 574 Q339 574 295.5 555.5 Q252 537 220.5 505 Q189 473 171 428 Q153 383 153 331 Q153 278 171 233 Q189 188 220.5 155.5 Q252 123 295.5 104.5 Q339 86 390 86 Q441 86 484 104.5 Q527 123 559 155.5 Q591 188 609 233 Q627 278 627 331 Q627 383 609 427.5 Q591 472 559 504.5 Q527 537 484 555.5 Q441 574 390 574 Z M544 762 L236 762 L236 847 L544 847 L544 762 Z " />
<glyph glyph-name="Oslash" unicode="&#xd8;" horiz-adv-x="780" d="M389 671 Q448 671 501 653 Q554 635 598 603 L679 684 L743 620 L663 540 Q698 497 717 443.5 Q736 390 736 330 Q736 257 708.5 194.5 Q681 132 634 86.5 Q587 41 524 15 Q461 -11 389 -11 Q329 -11 276.5 6.5 Q224 24 180 56 L101 -24 L37 40 L115 118 Q80 162 61.5 215.5 Q43 269 43 330 Q43 402 70 464.5 Q97 527 144 573 Q191 619 254 645 Q317 671 389 671 Z M390 578 Q337 578 293 559.5 Q249 541 216.5 508 Q184 475 166 429.5 Q148 384 148 331 Q148 290 158 255 Q168 220 186 190 L530 534 Q501 555 465.5 566.5 Q430 578 390 578 Z M631 331 Q631 370 621 405 Q611 440 592 469 L249 125 Q309 82 390 82 Q441 82 485.5 100.5 Q530 119 562 152.5 Q594 186 612.5 231.5 Q631 277 631 331 Z " />
<glyph glyph-name="Oslashacute" unicode="&#x1fe;" horiz-adv-x="780" d="M389 671 Q448 671 501 653 Q554 635 598 603 L679 684 L743 620 L663 540 Q698 497 717 443.5 Q736 390 736 330 Q736 257 708.5 194.5 Q681 132 634 86.5 Q587 41 524 15 Q461 -11 389 -11 Q329 -11 276.5 6.5 Q224 24 180 56 L101 -24 L37 40 L115 118 Q80 162 61.5 215.5 Q43 269 43 330 Q43 402 70 464.5 Q97 527 144 573 Q191 619 254 645 Q317 671 389 671 Z M390 578 Q337 578 293 559.5 Q249 541 216.5 508 Q184 475 166 429.5 Q148 384 148 331 Q148 290 158 255 Q168 220 186 190 L530 534 Q501 555 465.5 566.5 Q430 578 390 578 Z M631 331 Q631 370 621 405 Q611 440 592 469 L249 125 Q309 82 390 82 Q441 82 485.5 100.5 Q530 119 562 152.5 Q594 186 612.5 231.5 Q631 277 631 331 Z M555 891 L427 724 L349 724 L428 910 L555 910 L555 891 Z " />
<glyph glyph-name="Otilde" unicode="&#xd5;" horiz-adv-x="780" d="M389 671 Q461 671 524 645 Q587 619 634 573 Q681 527 708.5 464.5 Q736 402 736 330 Q736 257 708.5 194.5 Q681 132 634 86.5 Q587 41 524 15 Q461 -11 389 -11 Q317 -11 253.5 15 Q190 41 143.5 87 Q97 133 70 195.5 Q43 258 43 330 Q43 402 70 464.5 Q97 527 144 573 Q191 619 254 645 Q317 671 389 671 Z M390 574 Q339 574 295.5 555.5 Q252 537 220.5 505 Q189 473 171 428 Q153 383 153 331 Q153 278 171 233 Q189 188 220.5 155.5 Q252 123 295.5 104.5 Q339 86 390 86 Q441 86 484 104.5 Q527 123 559 155.5 Q591 188 609 233 Q627 278 627 331 Q627 383 609 427.5 Q591 472 559 504.5 Q527 537 484 555.5 Q441 574 390 574 Z M309 890 Q345 890 381 868 L414 848 Q426 841 436 835.5 Q446 830 458 830 Q472 830 479 840 Q486 850 486 865 L486 880 L570 880 Q571 873 571 866 Q571 859 571 851 Q571 798 543 766 Q515 734 472 734 Q453 734 434.5 740 Q416 746 397 757 L366 775 Q354 782 343.5 787.5 Q333 793 322 793 Q308 793 301 782.5 Q294 772 294 757 L294 744 L210 744 Q209 751 208.5 758 Q208 765 208 773 Q208 825 236.5 857.5 Q265 890 309 890 Z " />
<glyph glyph-name="OE" unicode="&#x152;" horiz-adv-x="1113" d="M1061 565 L733 565 L733 395 L979 395 L979 305 L733 305 L733 95 L1073 95 L1073 0 L627 0 L627 96 Q586 45 524 17 Q462 -11 388 -11 Q315 -11 252 15 Q189 41 142.5 87 Q96 133 69.5 195.5 Q43 258 43 330 Q43 402 69.5 464.5 Q96 527 142.5 573 Q189 619 252.5 645 Q316 671 389 671 Q464 671 525.5 642.5 Q587 614 627 564 L627 660 L1061 660 L1061 565 Z M389 574 Q338 574 294.5 555.5 Q251 537 219.5 504.5 Q188 472 170.5 427.5 Q153 383 153 330 Q153 277 170.5 232.5 Q188 188 219.5 155.5 Q251 123 294.5 104.5 Q338 86 389 86 Q438 86 481 103.5 Q524 121 555.5 152 Q587 183 606 225.5 Q625 268 627 319 L627 330 Q627 382 609 427 Q591 472 559.5 504.5 Q528 537 484 555.5 Q440 574 389 574 Z " />
<glyph glyph-name="P" unicode="P" horiz-adv-x="583" d="M323 660 Q374 660 415.5 645.5 Q457 631 486.5 604 Q516 577 532 540 Q548 503 548 458 Q548 413 532 376 Q516 339 486.5 312 Q457 285 415.5 270 Q374 255 323 255 L189 255 L189 0 L83 0 L83 660 L323 660 Z M189 566 L189 349 L322 349 Q379 349 409 379 Q439 409 439 457 Q439 505 409 535.5 Q379 566 322 566 L189 566 Z " />
<glyph glyph-name="Thorn" unicode="&#xde;" horiz-adv-x="583" d="M189 550 L323 550 Q374 550 415.5 535.5 Q457 521 486.5 494 Q516 467 532 429 Q548 391 548 345 Q548 300 532 262 Q516 224 486.5 196.5 Q457 169 415.5 153.5 Q374 138 323 138 L189 138 L189 0 L83 0 L83 660 L189 660 L189 550 Z M189 456 L189 232 L322 232 Q379 232 409 263.5 Q439 295 439 344 Q439 394 409 425 Q379 456 322 456 L189 456 Z " />
<glyph glyph-name="Q" unicode="Q" horiz-adv-x="780" d="M389 671 Q461 671 524 645 Q587 619 634 573 Q681 527 708.5 464.5 Q736 402 736 330 Q736 243 698 172.5 Q660 102 597 56 Q665 -33 751 -77 Q837 -121 955 -121 Q975 -121 999 -120 Q1023 -119 1049 -117 L1049 -201 Q1025 -206 997 -209 Q969 -212 937 -212 Q805 -212 696.5 -156 Q588 -100 510 9 Q452 -11 389 -11 Q317 -11 253.5 15 Q190 41 143.5 87 Q97 133 70 195.5 Q43 258 43 330 Q43 402 70 464.5 Q97 527 144 573 Q191 619 254 645 Q317 671 389 671 Z M390 574 Q339 574 295.5 555.5 Q252 537 220.5 505 Q189 473 171 428 Q153 383 153 331 Q153 278 171 233 Q189 188 220.5 155.5 Q252 123 295.5 104.5 Q339 86 390 86 Q441 86 484 104.5 Q527 123 559 155.5 Q591 188 609 232.5 Q627 277 627 330 Q627 382 609 427 Q591 472 559.5 504.5 Q528 537 484.5 555.5 Q441 574 390 574 Z " />
<glyph glyph-name="R" unicode="R" horiz-adv-x="631" d="M323 660 Q374 660 415.5 645.5 Q457 631 486.5 604 Q516 577 532 540 Q548 503 548 458 Q548 392 514 343.5 Q480 295 420 272 L619 0 L498 0 L309 255 L189 255 L189 0 L83 0 L83 660 L323 660 Z M189 566 L189 349 L321 349 Q378 349 408.5 379 Q439 409 439 457 Q439 505 408.5 535.5 Q378 566 321 566 L189 566 Z " />
<glyph glyph-name="Racute" unicode="&#x154;" horiz-adv-x="631" d="M323 660 Q374 660 415.5 645.5 Q457 631 486.5 604 Q516 577 532 540 Q548 503 548 458 Q548 392 514 343.5 Q480 295 420 272 L619 0 L498 0 L309 255 L189 255 L189 0 L83 0 L83 660 L323 660 Z M189 566 L189 349 L321 349 Q378 349 408.5 379 Q439 409 439 457 Q439 505 408.5 535.5 Q378 566 321 566 L189 566 Z M428 891 L300 724 L222 724 L301 910 L428 910 L428 891 Z " />
<glyph glyph-name="Rcaron" unicode="&#x158;" horiz-adv-x="631" d="M323 660 Q374 660 415.5 645.5 Q457 631 486.5 604 Q516 577 532 540 Q548 503 548 458 Q548 392 514 343.5 Q480 295 420 272 L619 0 L498 0 L309 255 L189 255 L189 0 L83 0 L83 660 L323 660 Z M189 566 L189 349 L321 349 Q378 349 408.5 379 Q439 409 439 457 Q439 505 408.5 535.5 Q378 566 321 566 L189 566 Z M296 724 L229 724 L81 910 L162 910 L262 816 L363 910 L444 910 L296 724 Z " />
<glyph glyph-name="Rcommaaccent" unicode="&#x156;" horiz-adv-x="631" d="M323 660 Q374 660 415.5 645.5 Q457 631 486.5 604 Q516 577 532 540 Q548 503 548 458 Q548 392 514 343.5 Q480 295 420 272 L619 0 L498 0 L309 255 L189 255 L189 0 L83 0 L83 660 L323 660 Z M189 566 L189 349 L321 349 Q378 349 408.5 379 Q439 409 439 457 Q439 505 408.5 535.5 Q378 566 321 566 L189 566 Z M333 -220 L252 -220 L258 -48 L359 -48 L333 -220 Z " />
<glyph glyph-name="S" unicode="S" horiz-adv-x="559" d="M282 671 Q355 671 410 637.5 Q465 604 495 553 L421 496 Q395 534 360 555 Q325 576 282 576 Q242 576 212 556.5 Q182 537 182 496 Q182 477 189 463.5 Q196 450 208 439.5 Q220 429 237 420.5 Q254 412 274 402 L348 368 Q385 351 415 332 Q445 313 465 290.5 Q485 268 496 241 Q507 214 507 180 Q507 136 490 100.5 Q473 65 443 40.5 Q413 16 372.5 2.5 Q332 -11 285 -11 Q202 -11 138 27.5 Q74 66 36 132 L111 189 Q125 168 142.5 149 Q160 130 181 115.5 Q202 101 227.5 92.5 Q253 84 284 84 Q335 84 366.5 108.5 Q398 133 398 176 Q398 195 391 209.5 Q384 224 371 235 Q358 246 340.5 255.5 Q323 265 301 275 L228 309 Q196 324 168 341 Q140 358 119 380 Q98 402 86 429.5 Q74 457 74 492 Q74 533 90.5 566 Q107 599 135.5 622.5 Q164 646 201.5 658.5 Q239 671 282 671 Z " />
<glyph glyph-name="Sacute" unicode="&#x15a;" horiz-adv-x="559" d="M282 671 Q355 671 410 637.5 Q465 604 495 553 L421 496 Q395 534 360 555 Q325 576 282 576 Q242 576 212 556.5 Q182 537 182 496 Q182 477 189 463.5 Q196 450 208 439.5 Q220 429 237 420.5 Q254 412 274 402 L348 368 Q385 351 415 332 Q445 313 465 290.5 Q485 268 496 241 Q507 214 507 180 Q507 136 490 100.5 Q473 65 443 40.5 Q413 16 372.5 2.5 Q332 -11 285 -11 Q202 -11 138 27.5 Q74 66 36 132 L111 189 Q125 168 142.5 149 Q160 130 181 115.5 Q202 101 227.5 92.5 Q253 84 284 84 Q335 84 366.5 108.5 Q398 133 398 176 Q398 195 391 209.5 Q384 224 371 235 Q358 246 340.5 255.5 Q323 265 301 275 L228 309 Q196 324 168 341 Q140 358 119 380 Q98 402 86 429.5 Q74 457 74 492 Q74 533 90.5 566 Q107 599 135.5 622.5 Q164 646 201.5 658.5 Q239 671 282 671 Z M447 891 L319 724 L241 724 L320 910 L447 910 L447 891 Z " />
<glyph glyph-name="Scaron" unicode="&#x160;" horiz-adv-x="559" d="M282 671 Q355 671 410 637.5 Q465 604 495 553 L421 496 Q395 534 360 555 Q325 576 282 576 Q242 576 212 556.5 Q182 537 182 496 Q182 477 189 463.5 Q196 450 208 439.5 Q220 429 237 420.5 Q254 412 274 402 L348 368 Q385 351 415 332 Q445 313 465 290.5 Q485 268 496 241 Q507 214 507 180 Q507 136 490 100.5 Q473 65 443 40.5 Q413 16 372.5 2.5 Q332 -11 285 -11 Q202 -11 138 27.5 Q74 66 36 132 L111 189 Q125 168 142.5 149 Q160 130 181 115.5 Q202 101 227.5 92.5 Q253 84 284 84 Q335 84 366.5 108.5 Q398 133 398 176 Q398 195 391 209.5 Q384 224 371 235 Q358 246 340.5 255.5 Q323 265 301 275 L228 309 Q196 324 168 341 Q140 358 119 380 Q98 402 86 429.5 Q74 457 74 492 Q74 533 90.5 566 Q107 599 135.5 622.5 Q164 646 201.5 658.5 Q239 671 282 671 Z M315 724 L248 724 L100 910 L181 910 L281 816 L382 910 L463 910 L315 724 Z " />
<glyph glyph-name="Scedilla" unicode="&#x15e;" horiz-adv-x="559" d="M282 671 Q355 671 410 637.5 Q465 604 495 553 L421 496 Q395 534 360 555 Q325 576 282 576 Q242 576 212 556.5 Q182 537 182 496 Q182 477 189 463.5 Q196 450 208 439.5 Q220 429 237 420.5 Q254 412 274 402 L348 368 Q385 351 415 332 Q445 313 465 290.5 Q485 268 496 241 Q507 214 507 180 Q507 136 490 100.5 Q473 65 443 40.5 Q413 16 372.5 2.5 Q332 -11 285 -11 Q202 -11 138 27.5 Q74 66 36 132 L111 189 Q125 168 142.5 149 Q160 130 181 115.5 Q202 101 227.5 92.5 Q253 84 284 84 Q335 84 366.5 108.5 Q398 133 398 176 Q398 195 391 209.5 Q384 224 371 235 Q358 246 340.5 255.5 Q323 265 301 275 L228 309 Q196 324 168 341 Q140 358 119 380 Q98 402 86 429.5 Q74 457 74 492 Q74 533 90.5 566 Q107 599 135.5 622.5 Q164 646 201.5 658.5 Q239 671 282 671 Z M301 35 Q331 19 349 -8 Q367 -35 367 -71 Q367 -96 357.5 -117.5 Q348 -139 329.5 -155.5 Q311 -172 284.5 -181.5 Q258 -191 224 -191 Q206 -191 187.5 -188.5 Q169 -186 153 -182 L153 -110 Q190 -113 211 -113 Q242 -113 261.5 -98.5 Q281 -84 281 -52 Q281 -32 274 -15.5 Q267 1 258 14 L301 35 Z " />
<glyph glyph-name="Scircumflex" unicode="&#x15c;" horiz-adv-x="559" d="M282 671 Q355 671 410 637.5 Q465 604 495 553 L421 496 Q395 534 360 555 Q325 576 282 576 Q242 576 212 556.5 Q182 537 182 496 Q182 477 189 463.5 Q196 450 208 439.5 Q220 429 237 420.5 Q254 412 274 402 L348 368 Q385 351 415 332 Q445 313 465 290.5 Q485 268 496 241 Q507 214 507 180 Q507 136 490 100.5 Q473 65 443 40.5 Q413 16 372.5 2.5 Q332 -11 285 -11 Q202 -11 138 27.5 Q74 66 36 132 L111 189 Q125 168 142.5 149 Q160 130 181 115.5 Q202 101 227.5 92.5 Q253 84 284 84 Q335 84 366.5 108.5 Q398 133 398 176 Q398 195 391 209.5 Q384 224 371 235 Q358 246 340.5 255.5 Q323 265 301 275 L228 309 Q196 324 168 341 Q140 358 119 380 Q98 402 86 429.5 Q74 457 74 492 Q74 533 90.5 566 Q107 599 135.5 622.5 Q164 646 201.5 658.5 Q239 671 282 671 Z M463 724 L382 724 L281 817 L181 724 L100 724 L248 910 L315 910 L463 724 Z " />
<glyph glyph-name="Scommaaccent" unicode="&#x218;" horiz-adv-x="559" d="M282 671 Q355 671 410 637.5 Q465 604 495 553 L421 496 Q395 534 360 555 Q325 576 282 576 Q242 576 212 556.5 Q182 537 182 496 Q182 477 189 463.5 Q196 450 208 439.5 Q220 429 237 420.5 Q254 412 274 402 L348 368 Q385 351 415 332 Q445 313 465 290.5 Q485 268 496 241 Q507 214 507 180 Q507 136 490 100.5 Q473 65 443 40.5 Q413 16 372.5 2.5 Q332 -11 285 -11 Q202 -11 138 27.5 Q74 66 36 132 L111 189 Q125 168 142.5 149 Q160 130 181 115.5 Q202 101 227.5 92.5 Q253 84 284 84 Q335 84 366.5 108.5 Q398 133 398 176 Q398 195 391 209.5 Q384 224 371 235 Q358 246 340.5 255.5 Q323 265 301 275 L228 309 Q196 324 168 341 Q140 358 119 380 Q98 402 86 429.5 Q74 457 74 492 Q74 533 90.5 566 Q107 599 135.5 622.5 Q164 646 201.5 658.5 Q239 671 282 671 Z M313 -220 L232 -220 L238 -48 L339 -48 L313 -220 Z " />
<glyph glyph-name="uni1E9E" unicode="&#x1e9e;" horiz-adv-x="720" d="M625 631 L499 415 Q535 408 567 390.5 Q599 373 623 346 Q647 319 661.5 283 Q676 247 676 204 Q676 155 658 115.5 Q640 76 610 48 Q580 20 539.5 4.5 Q499 -11 454 -11 Q399 -11 349 11.5 Q299 34 263 73 L322 148 Q348 121 379.5 103.5 Q411 86 449 86 Q474 86 496 95 Q518 104 533.5 119.5 Q549 135 558 157 Q567 179 567 206 Q567 264 526.5 296 Q486 328 414 328 L354 328 L354 356 L476 565 L189 565 L189 0 L83 0 L83 660 L625 660 L625 631 Z " />
<glyph glyph-name="uni018F" unicode="&#x18f;" horiz-adv-x="732" d="M351 671 Q422 671 483.5 644.5 Q545 618 590.5 572.5 Q636 527 662 465 Q688 403 688 332 Q688 260 661 197 Q634 134 588 88 Q542 42 479.5 15.5 Q417 -11 347 -11 Q284 -11 228.5 10.5 Q173 32 131.5 71 Q90 110 66.5 164.5 Q43 219 43 286 Q43 310 45.5 331 Q48 352 50 365 L577 365 Q572 411 552.5 449.5 Q533 488 503 516 Q473 544 434 559 Q395 574 350 574 Q288 574 237 546 Q186 518 149 468 L77 529 Q123 593 192.5 632 Q262 671 351 671 Z M349 86 Q391 86 428 99.5 Q465 113 494 137.5 Q523 162 543 196 Q563 230 572 272 L146 272 Q146 227 163.5 192.5 Q181 158 209 134.5 Q237 111 273.5 98.5 Q310 86 349 86 Z " />
<glyph glyph-name="T" unicode="T" horiz-adv-x="583" d="M566 565 L344 565 L344 0 L238 0 L238 565 L16 565 L16 660 L566 660 L566 565 Z " />
<glyph glyph-name="Tbar" unicode="&#x166;" horiz-adv-x="583" d="M566 565 L344 565 L344 333 L530 333 L530 244 L344 244 L344 0 L238 0 L238 244 L52 244 L52 333 L238 333 L238 565 L16 565 L16 660 L566 660 L566 565 Z " />
<glyph glyph-name="Tcaron" unicode="&#x164;" horiz-adv-x="583" d="M566 565 L344 565 L344 0 L238 0 L238 565 L16 565 L16 660 L566 660 L566 565 Z M325 724 L258 724 L110 910 L191 910 L291 816 L392 910 L473 910 L325 724 Z " />
<glyph glyph-name="uni0162" unicode="&#x162;" horiz-adv-x="583" d="M566 565 L344 565 L344 0 L238 0 L238 565 L16 565 L16 660 L566 660 L566 565 Z M304 35 Q334 19 352 -8 Q370 -35 370 -71 Q370 -96 360.5 -117.5 Q351 -139 332.5 -155.5 Q314 -172 287.5 -181.5 Q261 -191 227 -191 Q209 -191 190.5 -188.5 Q172 -186 156 -182 L156 -110 Q193 -113 214 -113 Q245 -113 264.5 -98.5 Q284 -84 284 -52 Q284 -32 277 -15.5 Q270 1 261 14 L304 35 Z " />
<glyph glyph-name="U" unicode="U" horiz-adv-x="694" d="M618 267 Q618 201 597.5 149.5 Q577 98 540.5 62 Q504 26 454.5 7.5 Q405 -11 347 -11 Q288 -11 238.5 7.5 Q189 26 153 62 Q117 98 96.5 149.5 Q76 201 76 267 L76 660 L182 660 L182 260 Q182 216 194.5 183.5 Q207 151 229.5 129.5 Q252 108 282 97 Q312 86 347 86 Q381 86 411.5 97 Q442 108 464 129.5 Q486 151 499 183.5 Q512 216 512 260 L512 660 L618 660 L618 267 Z " />
<glyph glyph-name="Uacute" unicode="&#xda;" horiz-adv-x="694" d="M618 267 Q618 201 597.5 149.5 Q577 98 540.5 62 Q504 26 454.5 7.5 Q405 -11 347 -11 Q288 -11 238.5 7.5 Q189 26 153 62 Q117 98 96.5 149.5 Q76 201 76 267 L76 660 L182 660 L182 260 Q182 216 194.5 183.5 Q207 151 229.5 129.5 Q252 108 282 97 Q312 86 347 86 Q381 86 411.5 97 Q442 108 464 129.5 Q486 151 499 183.5 Q512 216 512 260 L512 660 L618 660 L618 267 Z M512 891 L384 724 L306 724 L385 910 L512 910 L512 891 Z " />
<glyph glyph-name="Ubreve" unicode="&#x16c;" horiz-adv-x="694" d="M618 267 Q618 201 597.5 149.5 Q577 98 540.5 62 Q504 26 454.5 7.5 Q405 -11 347 -11 Q288 -11 238.5 7.5 Q189 26 153 62 Q117 98 96.5 149.5 Q76 201 76 267 L76 660 L182 660 L182 260 Q182 216 194.5 183.5 Q207 151 229.5 129.5 Q252 108 282 97 Q312 86 347 86 Q381 86 411.5 97 Q442 108 464 129.5 Q486 151 499 183.5 Q512 216 512 260 L512 660 L618 660 L618 267 Z M509 897 Q509 862 497 832.5 Q485 803 463.5 781 Q442 759 412.5 747 Q383 735 347 735 Q311 735 281.5 747 Q252 759 230.5 781 Q209 803 197 832.5 Q185 862 185 897 L270 897 Q270 859 292 837 Q314 815 347 815 Q381 815 402.5 837 Q424 859 424 897 L509 897 Z " />
<glyph glyph-name="Ucircumflex" unicode="&#xdb;" horiz-adv-x="694" d="M618 267 Q618 201 597.5 149.5 Q577 98 540.5 62 Q504 26 454.5 7.5 Q405 -11 347 -11 Q288 -11 238.5 7.5 Q189 26 153 62 Q117 98 96.5 149.5 Q76 201 76 267 L76 660 L182 660 L182 260 Q182 216 194.5 183.5 Q207 151 229.5 129.5 Q252 108 282 97 Q312 86 347 86 Q381 86 411.5 97 Q442 108 464 129.5 Q486 151 499 183.5 Q512 216 512 260 L512 660 L618 660 L618 267 Z M528 724 L447 724 L346 817 L246 724 L165 724 L313 910 L380 910 L528 724 Z " />
<glyph glyph-name="Udieresis" unicode="&#xdc;" horiz-adv-x="694" d="M618 267 Q618 201 597.5 149.5 Q577 98 540.5 62 Q504 26 454.5 7.5 Q405 -11 347 -11 Q288 -11 238.5 7.5 Q189 26 153 62 Q117 98 96.5 149.5 Q76 201 76 267 L76 660 L182 660 L182 260 Q182 216 194.5 183.5 Q207 151 229.5 129.5 Q252 108 282 97 Q312 86 347 86 Q381 86 411.5 97 Q442 108 464 129.5 Q486 151 499 183.5 Q512 216 512 260 L512 660 L618 660 L618 267 Z M469 877 Q497 877 516.5 858 Q536 839 536 811 Q536 785 516.5 765.5 Q497 746 469 746 Q443 746 422 765.5 Q401 785 401 811 Q401 839 422 858 Q443 877 469 877 Z M224 877 Q252 877 271.5 858.5 Q291 840 291 812 Q291 786 271.5 766.5 Q252 747 224 747 Q198 747 177 766.5 Q156 786 156 812 Q156 840 177 858.5 Q198 877 224 877 Z " />
<glyph glyph-name="Ugrave" unicode="&#xd9;" horiz-adv-x="694" d="M618 267 Q618 201 597.5 149.5 Q577 98 540.5 62 Q504 26 454.5 7.5 Q405 -11 347 -11 Q288 -11 238.5 7.5 Q189 26 153 62 Q117 98 96.5 149.5 Q76 201 76 267 L76 660 L182 660 L182 260 Q182 216 194.5 183.5 Q207 151 229.5 129.5 Q252 108 282 97 Q312 86 347 86 Q381 86 411.5 97 Q442 108 464 129.5 Q486 151 499 183.5 Q512 216 512 260 L512 660 L618 660 L618 267 Z M386 724 L308 724 L180 891 L180 910 L307 910 L386 724 Z " />
<glyph glyph-name="Uhungarumlaut" unicode="&#x170;" horiz-adv-x="694" d="M618 267 Q618 201 597.5 149.5 Q577 98 540.5 62 Q504 26 454.5 7.5 Q405 -11 347 -11 Q288 -11 238.5 7.5 Q189 26 153 62 Q117 98 96.5 149.5 Q76 201 76 267 L76 660 L182 660 L182 260 Q182 216 194.5 183.5 Q207 151 229.5 129.5 Q252 108 282 97 Q312 86 347 86 Q381 86 411.5 97 Q442 108 464 129.5 Q486 151 499 183.5 Q512 216 512 260 L512 660 L618 660 L618 267 Z M593 891 L476 724 L403 724 L482 910 L593 910 L593 891 Z M394 891 L276 724 L204 724 L283 910 L394 910 L394 891 Z " />
<glyph glyph-name="Umacron" unicode="&#x16a;" horiz-adv-x="694" d="M618 267 Q618 201 597.5 149.5 Q577 98 540.5 62 Q504 26 454.5 7.5 Q405 -11 347 -11 Q288 -11 238.5 7.5 Q189 26 153 62 Q117 98 96.5 149.5 Q76 201 76 267 L76 660 L182 660 L182 260 Q182 216 194.5 183.5 Q207 151 229.5 129.5 Q252 108 282 97 Q312 86 347 86 Q381 86 411.5 97 Q442 108 464 129.5 Q486 151 499 183.5 Q512 216 512 260 L512 660 L618 660 L618 267 Z M501 762 L193 762 L193 847 L501 847 L501 762 Z " />
<glyph glyph-name="Uogonek" unicode="&#x172;" horiz-adv-x="694" d="M618 267 Q618 209 604 168 Q590 127 568 95.5 Q546 64 518.5 39.5 Q491 15 464 -10 Q446 -26 435 -40.5 Q424 -55 424 -75 Q424 -112 468 -112 Q478 -112 490 -110 Q502 -108 516 -106 L516 -178 Q500 -183 479.5 -187 Q459 -191 435 -191 Q384 -191 353 -169 Q322 -147 322 -103 Q322 -75 335 -52.5 Q348 -30 373 -9 Q365 -10 358 -10.5 Q351 -11 343 -11 Q287 -11 238 9 Q189 29 153 65 Q117 101 96.5 152.5 Q76 204 76 267 L76 660 L182 660 L182 260 Q182 219 194.5 187 Q207 155 229.5 132.5 Q252 110 281.5 98 Q311 86 346 86 Q381 86 411 98 Q441 110 463.5 132.5 Q486 155 499 187 Q512 219 512 260 L512 660 L618 660 L618 267 Z " />
<glyph glyph-name="Uring" unicode="&#x16e;" horiz-adv-x="694" d="M618 267 Q618 201 597.5 149.5 Q577 98 540.5 62 Q504 26 454.5 7.5 Q405 -11 347 -11 Q288 -11 238.5 7.5 Q189 26 153 62 Q117 98 96.5 149.5 Q76 201 76 267 L76 660 L182 660 L182 260 Q182 216 194.5 183.5 Q207 151 229.5 129.5 Q252 108 282 97 Q312 86 347 86 Q381 86 411.5 97 Q442 108 464 129.5 Q486 151 499 183.5 Q512 216 512 260 L512 660 L618 660 L618 267 Z M346 917 Q372 917 394 908 Q416 899 431.5 883.5 Q447 868 456 847 Q465 826 465 802 Q465 753 431.5 720 Q398 687 346 687 Q320 687 298.5 696 Q277 705 261.5 720.5 Q246 736 237 757 Q228 778 228 802 Q228 826 237 847 Q246 868 261.5 883.5 Q277 899 298.5 908 Q320 917 346 917 Z M347 848 Q327 848 314 835 Q301 822 301 802 Q301 782 314 769 Q327 756 347 756 Q366 756 379 769 Q392 782 392 802 Q392 822 379.5 835 Q367 848 347 848 Z " />
<glyph glyph-name="Utilde" unicode="&#x168;" horiz-adv-x="694" d="M618 267 Q618 201 597.5 149.5 Q577 98 540.5 62 Q504 26 454.5 7.5 Q405 -11 347 -11 Q288 -11 238.5 7.5 Q189 26 153 62 Q117 98 96.5 149.5 Q76 201 76 267 L76 660 L182 660 L182 260 Q182 216 194.5 183.5 Q207 151 229.5 129.5 Q252 108 282 97 Q312 86 347 86 Q381 86 411.5 97 Q442 108 464 129.5 Q486 151 499 183.5 Q512 216 512 260 L512 660 L618 660 L618 267 Z M266 890 Q302 890 338 868 L371 848 Q383 841 393 835.5 Q403 830 415 830 Q429 830 436 840 Q443 850 443 865 L443 880 L527 880 Q528 873 528 866 Q528 859 528 851 Q528 798 500 766 Q472 734 429 734 Q410 734 391.5 740 Q373 746 354 757 L323 775 Q311 782 300.5 787.5 Q290 793 279 793 Q265 793 258 782.5 Q251 772 251 757 L251 744 L167 744 Q166 751 165.5 758 Q165 765 165 773 Q165 825 193.5 857.5 Q222 890 266 890 Z " />
<glyph glyph-name="V" unicode="V" horiz-adv-x="662" d="M349 -11 L313 -11 L22 660 L141 660 L331 201 L521 660 L640 660 L349 -11 Z " />
<glyph glyph-name="W" unicode="W" horiz-adv-x="1051" d="M734 214 L899 660 L1016 660 L759 -11 L723 -11 L526 457 L329 -11 L293 -11 L36 660 L153 660 L317 213 L508 671 L544 671 L734 214 Z " />
<glyph glyph-name="Wacute" unicode="&#x1e82;" horiz-adv-x="1051" d="M734 214 L899 660 L1016 660 L759 -11 L723 -11 L526 457 L329 -11 L293 -11 L36 660 L153 660 L317 213 L508 671 L544 671 L734 214 Z M691 891 L563 724 L485 724 L564 910 L691 910 L691 891 Z " />
<glyph glyph-name="Wcircumflex" unicode="&#x174;" horiz-adv-x="1051" d="M734 214 L899 660 L1016 660 L759 -11 L723 -11 L526 457 L329 -11 L293 -11 L36 660 L153 660 L317 213 L508 671 L544 671 L734 214 Z M707 724 L626 724 L525 817 L425 724 L344 724 L492 910 L559 910 L707 724 Z " />
<glyph glyph-name="Wdieresis" unicode="&#x1e84;" horiz-adv-x="1051" d="M734 214 L899 660 L1016 660 L759 -11 L723 -11 L526 457 L329 -11 L293 -11 L36 660 L153 660 L317 213 L508 671 L544 671 L734 214 Z M648 877 Q676 877 695.5 858 Q715 839 715 811 Q715 785 695.5 765.5 Q676 746 648 746 Q622 746 601 765.5 Q580 785 580 811 Q580 839 601 858 Q622 877 648 877 Z M403 877 Q431 877 450.5 858.5 Q470 840 470 812 Q470 786 450.5 766.5 Q431 747 403 747 Q377 747 356 766.5 Q335 786 335 812 Q335 840 356 858.5 Q377 877 403 877 Z " />
<glyph glyph-name="Wgrave" unicode="&#x1e80;" horiz-adv-x="1051" d="M734 214 L899 660 L1016 660 L759 -11 L723 -11 L526 457 L329 -11 L293 -11 L36 660 L153 660 L317 213 L508 671 L544 671 L734 214 Z M565 724 L487 724 L359 891 L359 910 L486 910 L565 724 Z " />
<glyph glyph-name="X" unicode="X" horiz-adv-x="607" d="M363 336 L584 0 L463 0 L303 245 L144 0 L22 0 L245 336 L36 660 L158 660 L303 426 L448 660 L569 660 L363 336 Z " />
<glyph glyph-name="Y" unicode="Y" horiz-adv-x="620" d="M363 266 L363 0 L257 0 L257 266 L29 660 L147 660 L310 372 L474 660 L592 660 L363 266 Z " />
<glyph glyph-name="Yacute" unicode="&#xdd;" horiz-adv-x="620" d="M363 266 L363 0 L257 0 L257 266 L29 660 L147 660 L310 372 L474 660 L592 660 L363 266 Z M473 891 L345 724 L267 724 L346 910 L473 910 L473 891 Z " />
<glyph glyph-name="Ycircumflex" unicode="&#x176;" horiz-adv-x="620" d="M363 266 L363 0 L257 0 L257 266 L29 660 L147 660 L310 372 L474 660 L592 660 L363 266 Z M489 724 L408 724 L307 817 L207 724 L126 724 L274 910 L341 910 L489 724 Z " />
<glyph glyph-name="Ydieresis" unicode="&#x178;" horiz-adv-x="620" d="M363 266 L363 0 L257 0 L257 266 L29 660 L147 660 L310 372 L474 660 L592 660 L363 266 Z M430 877 Q458 877 477.5 858 Q497 839 497 811 Q497 785 477.5 765.5 Q458 746 430 746 Q404 746 383 765.5 Q362 785 362 811 Q362 839 383 858 Q404 877 430 877 Z M185 877 Q213 877 232.5 858.5 Q252 840 252 812 Q252 786 232.5 766.5 Q213 747 185 747 Q159 747 138 766.5 Q117 786 117 812 Q117 840 138 858.5 Q159 877 185 877 Z " />
<glyph glyph-name="Ygrave" unicode="&#x1ef2;" horiz-adv-x="620" d="M363 266 L363 0 L257 0 L257 266 L29 660 L147 660 L310 372 L474 660 L592 660 L363 266 Z M347 724 L269 724 L141 891 L141 910 L268 910 L347 724 Z " />
<glyph glyph-name="Z" unicode="Z" horiz-adv-x="588" d="M556 631 L189 95 L557 95 L557 0 L26 0 L26 29 L390 565 L69 565 L69 660 L556 660 L556 631 Z " />
<glyph glyph-name="Zacute" unicode="&#x179;" horiz-adv-x="588" d="M556 631 L189 95 L557 95 L557 0 L26 0 L26 29 L390 565 L69 565 L69 660 L556 660 L556 631 Z M465 891 L337 724 L259 724 L338 910 L465 910 L465 891 Z " />
<glyph glyph-name="Zcaron" unicode="&#x17d;" horiz-adv-x="588" d="M556 631 L189 95 L557 95 L557 0 L26 0 L26 29 L390 565 L69 565 L69 660 L556 660 L556 631 Z M333 724 L266 724 L118 910 L199 910 L299 816 L400 910 L481 910 L333 724 Z " />
<glyph glyph-name="Zdotaccent" unicode="&#x17b;" horiz-adv-x="588" d="M556 631 L189 95 L557 95 L557 0 L26 0 L26 29 L390 565 L69 565 L69 660 L556 660 L556 631 Z M300 882 Q329 882 350.5 862 Q372 842 372 812 Q372 783 350.5 763 Q329 743 300 743 Q270 743 249 763 Q228 783 228 812 Q228 842 249 862 Q270 882 300 882 Z " />
<glyph glyph-name="uni021A" unicode="&#x21a;" horiz-adv-x="583" d="M566 565 L344 565 L344 0 L238 0 L238 565 L16 565 L16 660 L566 660 L566 565 Z M316 -220 L235 -220 L241 -48 L342 -48 L316 -220 Z " />
<glyph glyph-name="a" unicode="a" horiz-adv-x="536" d="M264 502 Q309 502 346 489 Q383 476 409.5 450.5 Q436 425 451 386.5 Q466 348 466 297 L466 0 L368 0 L368 55 Q342 24 302 6.5 Q262 -11 211 -11 Q172 -11 140.5 -1 Q109 9 86.5 28 Q64 47 52 73 Q40 99 40 131 Q40 196 89 233.5 Q138 271 221 271 L360 271 L360 303 Q360 354 333 381 Q306 408 255 408 Q212 408 180 389 Q148 370 118 335 L58 397 Q96 451 149 476.5 Q202 502 264 502 Z M233 70 Q259 70 282 78.5 Q305 87 322.5 102.5 Q340 118 350 139.5 Q360 161 360 186 L360 195 L234 195 Q192 195 169.5 180 Q147 165 147 135 Q147 103 172 86.5 Q197 70 233 70 Z " />
<glyph glyph-name="aacute" unicode="&#xe1;" horiz-adv-x="536" d="M264 502 Q309 502 346 489 Q383 476 409.5 450.5 Q436 425 451 386.5 Q466 348 466 297 L466 0 L368 0 L368 55 Q342 24 302 6.5 Q262 -11 211 -11 Q172 -11 140.5 -1 Q109 9 86.5 28 Q64 47 52 73 Q40 99 40 131 Q40 196 89 233.5 Q138 271 221 271 L360 271 L360 303 Q360 354 333 381 Q306 408 255 408 Q212 408 180 389 Q148 370 118 335 L58 397 Q96 451 149 476.5 Q202 502 264 502 Z M233 70 Q259 70 282 78.5 Q305 87 322.5 102.5 Q340 118 350 139.5 Q360 161 360 186 L360 195 L234 195 Q192 195 169.5 180 Q147 165 147 135 Q147 103 172 86.5 Q197 70 233 70 Z M433 761 L305 568 L227 568 L306 780 L433 780 L433 761 Z " />
<glyph glyph-name="abreve" unicode="&#x103;" horiz-adv-x="536" d="M264 502 Q309 502 346 489 Q383 476 409.5 450.5 Q436 425 451 386.5 Q466 348 466 297 L466 0 L368 0 L368 55 Q342 24 302 6.5 Q262 -11 211 -11 Q172 -11 140.5 -1 Q109 9 86.5 28 Q64 47 52 73 Q40 99 40 131 Q40 196 89 233.5 Q138 271 221 271 L360 271 L360 303 Q360 354 333 381 Q306 408 255 408 Q212 408 180 389 Q148 370 118 335 L58 397 Q96 451 149 476.5 Q202 502 264 502 Z M233 70 Q259 70 282 78.5 Q305 87 322.5 102.5 Q340 118 350 139.5 Q360 161 360 186 L360 195 L234 195 Q192 195 169.5 180 Q147 165 147 135 Q147 103 172 86.5 Q197 70 233 70 Z M427 742 Q427 707 415 677.5 Q403 648 381.5 626 Q360 604 330.5 592 Q301 580 265 580 Q229 580 199.5 592 Q170 604 148.5 626 Q127 648 115 677.5 Q103 707 103 742 L188 742 Q188 704 210 682 Q232 660 265 660 Q299 660 321 682 Q343 704 343 742 L427 742 Z " />
<glyph glyph-name="acircumflex" unicode="&#xe2;" horiz-adv-x="536" d="M264 502 Q309 502 346 489 Q383 476 409.5 450.5 Q436 425 451 386.5 Q466 348 466 297 L466 0 L368 0 L368 55 Q342 24 302 6.5 Q262 -11 211 -11 Q172 -11 140.5 -1 Q109 9 86.5 28 Q64 47 52 73 Q40 99 40 131 Q40 196 89 233.5 Q138 271 221 271 L360 271 L360 303 Q360 354 333 381 Q306 408 255 408 Q212 408 180 389 Q148 370 118 335 L58 397 Q96 451 149 476.5 Q202 502 264 502 Z M233 70 Q259 70 282 78.5 Q305 87 322.5 102.5 Q340 118 350 139.5 Q360 161 360 186 L360 195 L234 195 Q192 195 169.5 180 Q147 165 147 135 Q147 103 172 86.5 Q197 70 233 70 Z M434 568 L355 568 L265 677 L175 568 L96 568 L231 780 L299 780 L434 568 Z " />
<glyph glyph-name="adieresis" unicode="&#xe4;" horiz-adv-x="536" d="M264 502 Q309 502 346 489 Q383 476 409.5 450.5 Q436 425 451 386.5 Q466 348 466 297 L466 0 L368 0 L368 55 Q342 24 302 6.5 Q262 -11 211 -11 Q172 -11 140.5 -1 Q109 9 86.5 28 Q64 47 52 73 Q40 99 40 131 Q40 196 89 233.5 Q138 271 221 271 L360 271 L360 303 Q360 354 333 381 Q306 408 255 408 Q212 408 180 389 Q148 370 118 335 L58 397 Q96 451 149 476.5 Q202 502 264 502 Z M233 70 Q259 70 282 78.5 Q305 87 322.5 102.5 Q340 118 350 139.5 Q360 161 360 186 L360 195 L234 195 Q192 195 169.5 180 Q147 165 147 135 Q147 103 172 86.5 Q197 70 233 70 Z M377 740 Q405 740 424.5 721.5 Q444 703 444 674 Q444 648 424.5 628.5 Q405 609 377 609 Q351 609 330 628.5 Q309 648 309 674 Q309 703 330 721.5 Q351 740 377 740 Z M152 740 Q180 740 199.5 721.5 Q219 703 219 674 Q219 648 199.5 628.5 Q180 609 152 609 Q126 609 105 628.5 Q84 648 84 674 Q84 703 105 721.5 Q126 740 152 740 Z " />
<glyph glyph-name="agrave" unicode="&#xe0;" horiz-adv-x="536" d="M264 502 Q309 502 346 489 Q383 476 409.5 450.5 Q436 425 451 386.5 Q466 348 466 297 L466 0 L368 0 L368 55 Q342 24 302 6.5 Q262 -11 211 -11 Q172 -11 140.5 -1 Q109 9 86.5 28 Q64 47 52 73 Q40 99 40 131 Q40 196 89 233.5 Q138 271 221 271 L360 271 L360 303 Q360 354 333 381 Q306 408 255 408 Q212 408 180 389 Q148 370 118 335 L58 397 Q96 451 149 476.5 Q202 502 264 502 Z M233 70 Q259 70 282 78.5 Q305 87 322.5 102.5 Q340 118 350 139.5 Q360 161 360 186 L360 195 L234 195 Q192 195 169.5 180 Q147 165 147 135 Q147 103 172 86.5 Q197 70 233 70 Z M304 568 L226 568 L98 761 L98 780 L225 780 L304 568 Z " />
<glyph glyph-name="amacron" unicode="&#x101;" horiz-adv-x="536" d="M264 502 Q309 502 346 489 Q383 476 409.5 450.5 Q436 425 451 386.5 Q466 348 466 297 L466 0 L368 0 L368 55 Q342 24 302 6.5 Q262 -11 211 -11 Q172 -11 140.5 -1 Q109 9 86.5 28 Q64 47 52 73 Q40 99 40 131 Q40 196 89 233.5 Q138 271 221 271 L360 271 L360 303 Q360 354 333 381 Q306 408 255 408 Q212 408 180 389 Q148 370 118 335 L58 397 Q96 451 149 476.5 Q202 502 264 502 Z M233 70 Q259 70 282 78.5 Q305 87 322.5 102.5 Q340 118 350 139.5 Q360 161 360 186 L360 195 L234 195 Q192 195 169.5 180 Q147 165 147 135 Q147 103 172 86.5 Q197 70 233 70 Z M409 632 L121 632 L121 716 L409 716 L409 632 Z " />
<glyph glyph-name="aogonek" unicode="&#x105;" horiz-adv-x="536" d="M264 502 Q309 502 346 489 Q383 476 409.5 450.5 Q436 425 451 386.5 Q466 348 466 297 L466 0 L368 0 L368 55 Q342 24 302 6.5 Q262 -11 211 -11 Q172 -11 140.5 -1 Q109 9 86.5 28 Q64 47 52 73 Q40 99 40 131 Q40 196 89 233.5 Q138 271 221 271 L360 271 L360 303 Q360 354 333 381 Q306 408 255 408 Q212 408 180 389 Q148 370 118 335 L58 397 Q96 451 149 476.5 Q202 502 264 502 Z M233 70 Q259 70 282 78.5 Q305 87 322.5 102.5 Q340 118 350 139.5 Q360 161 360 186 L360 195 L234 195 Q192 195 169.5 180 Q147 165 147 135 Q147 103 172 86.5 Q197 70 233 70 Z M467 0 L422 -29 Q402 -42 389.5 -52 Q377 -62 377 -79 Q377 -112 419 -112 Q429 -112 441.5 -110 Q454 -108 467 -106 L467 -179 Q452 -184 430.5 -187.5 Q409 -191 388 -191 Q335 -191 304.5 -165.5 Q274 -140 274 -98 Q274 -77 282.5 -59.5 Q291 -42 309 -25 Q327 -8 355.5 8.5 Q384 25 424 44 L467 0 Z " />
<glyph glyph-name="aring" unicode="&#xe5;" horiz-adv-x="536" d="M264 502 Q309 502 346 489 Q383 476 409.5 450.5 Q436 425 451 386.5 Q466 348 466 297 L466 0 L368 0 L368 55 Q342 24 302 6.5 Q262 -11 211 -11 Q172 -11 140.5 -1 Q109 9 86.5 28 Q64 47 52 73 Q40 99 40 131 Q40 196 89 233.5 Q138 271 221 271 L360 271 L360 303 Q360 354 333 381 Q306 408 255 408 Q212 408 180 389 Q148 370 118 335 L58 397 Q96 451 149 476.5 Q202 502 264 502 Z M233 70 Q259 70 282 78.5 Q305 87 322.5 102.5 Q340 118 350 139.5 Q360 161 360 186 L360 195 L234 195 Q192 195 169.5 180 Q147 165 147 135 Q147 103 172 86.5 Q197 70 233 70 Z M264 785 Q290 785 312 776 Q334 767 349.5 751.5 Q365 736 374 714.5 Q383 693 383 669 Q383 645 374 624 Q365 603 349.5 587.5 Q334 572 312 563 Q290 554 264 554 Q238 554 216.5 563 Q195 572 179.5 587.5 Q164 603 155 624 Q146 645 146 669 Q146 693 155 714.5 Q164 736 179.5 751.5 Q195 767 216.5 776 Q238 785 264 785 Z M265 716 Q245 716 232 702.5 Q219 689 219 669 Q219 649 232 636.5 Q245 624 265 624 Q284 624 297 636.5 Q310 649 310 669 Q310 689 297 702.5 Q284 716 265 716 Z " />
<glyph glyph-name="atilde" unicode="&#xe3;" horiz-adv-x="536" d="M264 502 Q309 502 346 489 Q383 476 409.5 450.5 Q436 425 451 386.5 Q466 348 466 297 L466 0 L368 0 L368 55 Q342 24 302 6.5 Q262 -11 211 -11 Q172 -11 140.5 -1 Q109 9 86.5 28 Q64 47 52 73 Q40 99 40 131 Q40 196 89 233.5 Q138 271 221 271 L360 271 L360 303 Q360 354 333 381 Q306 408 255 408 Q212 408 180 389 Q148 370 118 335 L58 397 Q96 451 149 476.5 Q202 502 264 502 Z M233 70 Q259 70 282 78.5 Q305 87 322.5 102.5 Q340 118 350 139.5 Q360 161 360 186 L360 195 L234 195 Q192 195 169.5 180 Q147 165 147 135 Q147 103 172 86.5 Q197 70 233 70 Z M189 748 Q227 748 259 724 L286 704 Q297 695 306.5 689.5 Q316 684 327 684 Q342 684 348.5 695 Q355 706 355 722 L355 736 L438 736 Q439 728 439 721.5 Q439 715 439 707 Q439 654 412 620.5 Q385 587 340 587 Q305 587 270 611 L244 631 Q232 640 223 646 Q214 652 202 652 Q187 652 180.5 641.5 Q174 631 174 614 L174 600 L92 600 Q90 608 90 614.5 Q90 621 90 629 Q90 683 117.5 715.5 Q145 748 189 748 Z " />
<glyph glyph-name="ae" unicode="&#xe6;" horiz-adv-x="887" d="M265 502 Q321 502 363.5 480.5 Q406 459 430 415 Q462 455 510 478.5 Q558 502 616 502 Q665 502 706.5 485 Q748 468 778 438 Q808 408 825 366.5 Q842 325 842 276 Q842 256 839.5 235.5 Q837 215 834 204 L470 204 Q482 146 524 114 Q566 82 628 82 Q670 82 704.5 97 Q739 112 770 139 L821 68 Q781 30 732 9.5 Q683 -11 626 -11 Q556 -11 501.5 18 Q447 47 414 97 Q387 43 335 16 Q283 -11 217 -11 Q132 -11 86 29.5 Q40 70 40 133 Q40 200 89 240 Q138 280 221 280 L360 280 L360 303 Q360 354 332.5 381 Q305 408 256 408 Q214 408 181.5 388.5 Q149 369 120 335 L59 397 Q98 451 151 476.5 Q204 502 265 502 Z M612 413 Q555 413 516 376.5 Q477 340 468 280 L737 280 Q739 312 729.5 336.5 Q720 361 702.5 378 Q685 395 661.5 404 Q638 413 612 413 Z M233 71 Q259 71 282 79.5 Q305 88 322.5 103 Q340 118 350 139 Q360 160 360 185 L360 204 L234 204 Q192 204 169.5 188.5 Q147 173 147 141 Q147 106 172 88.5 Q197 71 233 71 Z " />
<glyph glyph-name="aeacute" unicode="&#x1fd;" horiz-adv-x="887" d="M265 502 Q321 502 363.5 480.5 Q406 459 430 415 Q462 455 510 478.5 Q558 502 616 502 Q665 502 706.5 485 Q748 468 778 438 Q808 408 825 366.5 Q842 325 842 276 Q842 256 839.5 235.5 Q837 215 834 204 L470 204 Q482 146 524 114 Q566 82 628 82 Q670 82 704.5 97 Q739 112 770 139 L821 68 Q781 30 732 9.5 Q683 -11 626 -11 Q556 -11 501.5 18 Q447 47 414 97 Q387 43 335 16 Q283 -11 217 -11 Q132 -11 86 29.5 Q40 70 40 133 Q40 200 89 240 Q138 280 221 280 L360 280 L360 303 Q360 354 332.5 381 Q305 408 256 408 Q214 408 181.5 388.5 Q149 369 120 335 L59 397 Q98 451 151 476.5 Q204 502 265 502 Z M612 413 Q555 413 516 376.5 Q477 340 468 280 L737 280 Q739 312 729.5 336.5 Q720 361 702.5 378 Q685 395 661.5 404 Q638 413 612 413 Z M233 71 Q259 71 282 79.5 Q305 88 322.5 103 Q340 118 350 139 Q360 160 360 185 L360 204 L234 204 Q192 204 169.5 188.5 Q147 173 147 141 Q147 106 172 88.5 Q197 71 233 71 Z M597 761 L469 568 L391 568 L470 780 L597 780 L597 761 Z " />
<glyph glyph-name="b" unicode="b" horiz-adv-x="631" d="M181 431 Q209 464 251.5 483 Q294 502 345 502 Q397 502 441 482.5 Q485 463 517.5 428.5 Q550 394 568 347 Q586 300 586 245 Q586 190 568 143.5 Q550 97 518 62.5 Q486 28 442 8.5 Q398 -11 346 -11 Q291 -11 245.5 10 Q200 31 173 70 L173 0 L76 0 L76 750 L181 750 L181 431 Z M328 406 Q300 406 273.5 396.5 Q247 387 226 367 Q205 347 192.5 317 Q180 287 180 245 Q180 203 193 172.5 Q206 142 227 122.5 Q248 103 274.5 94 Q301 85 328 85 Q360 85 387.5 97 Q415 109 435 130 Q455 151 466.5 180.5 Q478 210 478 246 Q478 282 466.5 311.5 Q455 341 434.5 362 Q414 383 386.5 394.5 Q359 406 328 406 Z " />
<glyph glyph-name="c" unicode="c" horiz-adv-x="552" d="M305 502 Q375 502 428 471 Q481 440 513 388 L439 330 Q414 364 382.5 384.5 Q351 405 306 405 Q273 405 244.5 392.5 Q216 380 196 358.5 Q176 337 164.5 308 Q153 279 153 246 Q153 212 164.5 182.5 Q176 153 196 131.5 Q216 110 244.5 98 Q273 86 306 86 Q351 86 382 106 Q413 126 438 160 L512 103 Q480 51 427 20 Q374 -11 305 -11 Q251 -11 203.5 9 Q156 29 120.5 63.5 Q85 98 65 145 Q45 192 45 246 Q45 300 65 346.5 Q85 393 120.5 427.5 Q156 462 203.5 482 Q251 502 305 502 Z " />
<glyph glyph-name="cacute" unicode="&#x107;" horiz-adv-x="552" d="M305 502 Q375 502 428 471 Q481 440 513 388 L439 330 Q414 364 382.5 384.5 Q351 405 306 405 Q273 405 244.5 392.5 Q216 380 196 358.5 Q176 337 164.5 308 Q153 279 153 246 Q153 212 164.5 182.5 Q176 153 196 131.5 Q216 110 244.5 98 Q273 86 306 86 Q351 86 382 106 Q413 126 438 160 L512 103 Q480 51 427 20 Q374 -11 305 -11 Q251 -11 203.5 9 Q156 29 120.5 63.5 Q85 98 65 145 Q45 192 45 246 Q45 300 65 346.5 Q85 393 120.5 427.5 Q156 462 203.5 482 Q251 502 305 502 Z M471 761 L343 568 L265 568 L344 780 L471 780 L471 761 Z " />
<glyph glyph-name="ccaron" unicode="&#x10d;" horiz-adv-x="552" d="M305 502 Q375 502 428 471 Q481 440 513 388 L439 330 Q414 364 382.5 384.5 Q351 405 306 405 Q273 405 244.5 392.5 Q216 380 196 358.5 Q176 337 164.5 308 Q153 279 153 246 Q153 212 164.5 182.5 Q176 153 196 131.5 Q216 110 244.5 98 Q273 86 306 86 Q351 86 382 106 Q413 126 438 160 L512 103 Q480 51 427 20 Q374 -11 305 -11 Q251 -11 203.5 9 Q156 29 120.5 63.5 Q85 98 65 145 Q45 192 45 246 Q45 300 65 346.5 Q85 393 120.5 427.5 Q156 462 203.5 482 Q251 502 305 502 Z M337 568 L269 568 L134 780 L213 780 L303 671 L393 780 L472 780 L337 568 Z " />
<glyph glyph-name="ccedilla" unicode="&#xe7;" horiz-adv-x="552" d="M305 502 Q375 502 428 471 Q481 440 513 388 L439 330 Q414 364 382.5 384.5 Q351 405 306 405 Q273 405 244.5 392.5 Q216 380 196 358.5 Q176 337 164.5 308 Q153 279 153 246 Q153 212 164.5 182.5 Q176 153 196 131.5 Q216 110 244.5 98 Q273 86 306 86 Q351 86 382 106 Q413 126 438 160 L512 103 Q480 51 427 20 Q374 -11 305 -11 Q251 -11 203.5 9 Q156 29 120.5 63.5 Q85 98 65 145 Q45 192 45 246 Q45 300 65 346.5 Q85 393 120.5 427.5 Q156 462 203.5 482 Q251 502 305 502 Z M315 35 Q345 19 363 -8 Q381 -35 381 -71 Q381 -96 371.5 -117.5 Q362 -139 343.5 -155.5 Q325 -172 298.5 -181.5 Q272 -191 238 -191 Q220 -191 201.5 -188.5 Q183 -186 167 -182 L167 -110 Q204 -113 225 -113 Q256 -113 275.5 -98.5 Q295 -84 295 -52 Q295 -32 288 -15.5 Q281 1 272 14 L315 35 Z " />
<glyph glyph-name="ccircumflex" unicode="&#x109;" horiz-adv-x="552" d="M305 502 Q375 502 428 471 Q481 440 513 388 L439 330 Q414 364 382.5 384.5 Q351 405 306 405 Q273 405 244.5 392.5 Q216 380 196 358.5 Q176 337 164.5 308 Q153 279 153 246 Q153 212 164.5 182.5 Q176 153 196 131.5 Q216 110 244.5 98 Q273 86 306 86 Q351 86 382 106 Q413 126 438 160 L512 103 Q480 51 427 20 Q374 -11 305 -11 Q251 -11 203.5 9 Q156 29 120.5 63.5 Q85 98 65 145 Q45 192 45 246 Q45 300 65 346.5 Q85 393 120.5 427.5 Q156 462 203.5 482 Q251 502 305 502 Z M472 568 L393 568 L303 677 L213 568 L134 568 L269 780 L337 780 L472 568 Z " />
<glyph glyph-name="cdotaccent" unicode="&#x10b;" horiz-adv-x="552" d="M305 502 Q375 502 428 471 Q481 440 513 388 L439 330 Q414 364 382.5 384.5 Q351 405 306 405 Q273 405 244.5 392.5 Q216 380 196 358.5 Q176 337 164.5 308 Q153 279 153 246 Q153 212 164.5 182.5 Q176 153 196 131.5 Q216 110 244.5 98 Q273 86 306 86 Q351 86 382 106 Q413 126 438 160 L512 103 Q480 51 427 20 Q374 -11 305 -11 Q251 -11 203.5 9 Q156 29 120.5 63.5 Q85 98 65 145 Q45 192 45 246 Q45 300 65 346.5 Q85 393 120.5 427.5 Q156 462 203.5 482 Q251 502 305 502 Z M303 744 Q332 744 353.5 723.5 Q375 703 375 674 Q375 645 353.5 625 Q332 605 303 605 Q273 605 252 625 Q231 645 231 674 Q231 703 252 723.5 Q273 744 303 744 Z " />
<glyph glyph-name="d" unicode="d" horiz-adv-x="631" d="M555 0 L457 0 L457 69 Q429 31 384.5 10 Q340 -11 286 -11 Q233 -11 189 8.5 Q145 28 113 62.5 Q81 97 63 143.5 Q45 190 45 245 Q45 300 63 347 Q81 394 113 428.5 Q145 463 189 482.5 Q233 502 286 502 Q337 502 379.5 483 Q422 464 450 430 L450 750 L555 750 L555 0 Z M302 406 Q270 406 243 394.5 Q216 383 195.5 362 Q175 341 163.5 311.5 Q152 282 152 246 Q152 210 163.5 180.5 Q175 151 195 130 Q215 109 242.5 97 Q270 85 302 85 Q329 85 355.5 94 Q382 103 403 122.5 Q424 142 437 172.5 Q450 203 450 245 Q450 287 437.5 317 Q425 347 404 367 Q383 387 356.5 396.5 Q330 406 302 406 Z " />
<glyph glyph-name="eth" unicode="&#xf0;" horiz-adv-x="571" d="M460 665 L319 596 L413 470 Q437 438 457.5 409 Q478 380 493.5 350.5 Q509 321 517.5 290 Q526 259 526 224 Q526 173 508 130 Q490 87 458 55.5 Q426 24 382 6.5 Q338 -11 286 -11 Q233 -11 189 6.5 Q145 24 113 55 Q81 86 63 128 Q45 170 45 218 Q45 267 63 308.5 Q81 350 112 380 Q143 410 184.5 426.5 Q226 443 273 443 Q290 443 307 440 L227 551 L84 482 L47 558 L176 621 L117 703 L196 761 L267 665 L422 740 L460 665 Z M285 353 Q256 353 231.5 343 Q207 333 189.5 315 Q172 297 162 272.5 Q152 248 152 218 Q152 159 189 121.5 Q226 84 285 84 Q314 84 338.5 94 Q363 104 381 122 Q399 140 409 164.5 Q419 189 419 219 Q419 248 409 272.5 Q399 297 381 315 Q363 333 338.5 343 Q314 353 285 353 Z " />
<glyph glyph-name="dcaron" unicode="&#x10f;" horiz-adv-x="631" d="M555 0 L457 0 L457 69 Q429 31 384.5 10 Q340 -11 286 -11 Q233 -11 189 8.5 Q145 28 113 62.5 Q81 97 63 143.5 Q45 190 45 245 Q45 300 63 347 Q81 394 113 428.5 Q145 463 189 482.5 Q233 502 286 502 Q337 502 379.5 483 Q422 464 450 430 L450 750 L555 750 L555 0 Z M302 406 Q270 406 243 394.5 Q216 383 195.5 362 Q175 341 163.5 311.5 Q152 282 152 246 Q152 210 163.5 180.5 Q175 151 195 130 Q215 109 242.5 97 Q270 85 302 85 Q329 85 355.5 94 Q382 103 403 122.5 Q424 142 437 172.5 Q450 203 450 245 Q450 287 437.5 317 Q425 347 404 367 Q383 387 356.5 396.5 Q330 406 302 406 Z M725 542 L649 542 L658 750 L769 750 L725 542 Z " />
<glyph glyph-name="dcroat" unicode="&#x111;" horiz-adv-x="635" d="M634 567 L554 567 L554 0 L456 0 L456 70 Q428 32 382 10.5 Q336 -11 281 -11 Q231 -11 187.5 7.5 Q144 26 112 58.5 Q80 91 62 136 Q44 181 44 234 Q44 287 62 332.5 Q80 378 112 411 Q144 444 187 462.5 Q230 481 281 481 Q333 481 376.5 461.5 Q420 442 449 407 L449 567 L237 567 L237 653 L449 653 L449 750 L554 750 L554 653 L634 653 L634 567 Z M302 389 Q270 389 243 378 Q216 367 195.5 346.5 Q175 326 163.5 297.5 Q152 269 152 234 Q152 199 163.5 171 Q175 143 195 122.5 Q215 102 242.5 91 Q270 80 302 80 Q329 80 355.5 88.5 Q382 97 403 116 Q424 135 437 164 Q450 193 450 234 Q450 275 437.5 304.5 Q425 334 404 352.5 Q383 371 356.5 380 Q330 389 302 389 Z " />
<glyph glyph-name="e" unicode="e" horiz-adv-x="570" d="M299 502 Q348 502 390 485 Q432 468 462 438 Q492 408 509 366.5 Q526 325 526 277 Q526 257 523.5 239 Q521 221 518 211 L152 211 Q163 150 206 116 Q249 82 312 82 Q355 82 390 97.5 Q425 113 455 140 L506 68 Q467 31 418 10 Q369 -11 310 -11 Q253 -11 204 8.5 Q155 28 120 62.5 Q85 97 65 144 Q45 191 45 245 Q45 299 64.5 346 Q84 393 118.5 427.5 Q153 462 199 482 Q245 502 299 502 Z M296 413 Q242 413 204 380.5 Q166 348 154 293 L421 293 Q419 351 382.5 382 Q346 413 296 413 Z " />
<glyph glyph-name="eacute" unicode="&#xe9;" horiz-adv-x="570" d="M299 502 Q348 502 390 485 Q432 468 462 438 Q492 408 509 366.5 Q526 325 526 277 Q526 257 523.5 239 Q521 221 518 211 L152 211 Q163 150 206 116 Q249 82 312 82 Q355 82 390 97.5 Q425 113 455 140 L506 68 Q467 31 418 10 Q369 -11 310 -11 Q253 -11 204 8.5 Q155 28 120 62.5 Q85 97 65 144 Q45 191 45 245 Q45 299 64.5 346 Q84 393 118.5 427.5 Q153 462 199 482 Q245 502 299 502 Z M296 413 Q242 413 204 380.5 Q166 348 154 293 L421 293 Q419 351 382.5 382 Q346 413 296 413 Z M465 761 L337 568 L259 568 L338 780 L465 780 L465 761 Z " />
<glyph glyph-name="ebreve" unicode="&#x115;" horiz-adv-x="570" d="M299 502 Q348 502 390 485 Q432 468 462 438 Q492 408 509 366.5 Q526 325 526 277 Q526 257 523.5 239 Q521 221 518 211 L152 211 Q163 150 206 116 Q249 82 312 82 Q355 82 390 97.5 Q425 113 455 140 L506 68 Q467 31 418 10 Q369 -11 310 -11 Q253 -11 204 8.5 Q155 28 120 62.5 Q85 97 65 144 Q45 191 45 245 Q45 299 64.5 346 Q84 393 118.5 427.5 Q153 462 199 482 Q245 502 299 502 Z M296 413 Q242 413 204 380.5 Q166 348 154 293 L421 293 Q419 351 382.5 382 Q346 413 296 413 Z M459 742 Q459 707 447 677.5 Q435 648 413.5 626 Q392 604 362.5 592 Q333 580 297 580 Q261 580 231.5 592 Q202 604 180.5 626 Q159 648 147 677.5 Q135 707 135 742 L220 742 Q220 704 242 682 Q264 660 297 660 Q331 660 353 682 Q375 704 375 742 L459 742 Z " />
<glyph glyph-name="ecaron" unicode="&#x11b;" horiz-adv-x="570" d="M299 502 Q348 502 390 485 Q432 468 462 438 Q492 408 509 366.5 Q526 325 526 277 Q526 257 523.5 239 Q521 221 518 211 L152 211 Q163 150 206 116 Q249 82 312 82 Q355 82 390 97.5 Q425 113 455 140 L506 68 Q467 31 418 10 Q369 -11 310 -11 Q253 -11 204 8.5 Q155 28 120 62.5 Q85 97 65 144 Q45 191 45 245 Q45 299 64.5 346 Q84 393 118.5 427.5 Q153 462 199 482 Q245 502 299 502 Z M296 413 Q242 413 204 380.5 Q166 348 154 293 L421 293 Q419 351 382.5 382 Q346 413 296 413 Z M331 568 L263 568 L128 780 L207 780 L297 671 L387 780 L466 780 L331 568 Z " />
<glyph glyph-name="ecircumflex" unicode="&#xea;" horiz-adv-x="570" d="M299 502 Q348 502 390 485 Q432 468 462 438 Q492 408 509 366.5 Q526 325 526 277 Q526 257 523.5 239 Q521 221 518 211 L152 211 Q163 150 206 116 Q249 82 312 82 Q355 82 390 97.5 Q425 113 455 140 L506 68 Q467 31 418 10 Q369 -11 310 -11 Q253 -11 204 8.5 Q155 28 120 62.5 Q85 97 65 144 Q45 191 45 245 Q45 299 64.5 346 Q84 393 118.5 427.5 Q153 462 199 482 Q245 502 299 502 Z M296 413 Q242 413 204 380.5 Q166 348 154 293 L421 293 Q419 351 382.5 382 Q346 413 296 413 Z M466 568 L387 568 L297 677 L207 568 L128 568 L263 780 L331 780 L466 568 Z " />
<glyph glyph-name="edieresis" unicode="&#xeb;" horiz-adv-x="570" d="M299 502 Q348 502 390 485 Q432 468 462 438 Q492 408 509 366.5 Q526 325 526 277 Q526 257 523.5 239 Q521 221 518 211 L152 211 Q163 150 206 116 Q249 82 312 82 Q355 82 390 97.5 Q425 113 455 140 L506 68 Q467 31 418 10 Q369 -11 310 -11 Q253 -11 204 8.5 Q155 28 120 62.5 Q85 97 65 144 Q45 191 45 245 Q45 299 64.5 346 Q84 393 118.5 427.5 Q153 462 199 482 Q245 502 299 502 Z M296 413 Q242 413 204 380.5 Q166 348 154 293 L421 293 Q419 351 382.5 382 Q346 413 296 413 Z M409 740 Q437 740 456.5 721.5 Q476 703 476 674 Q476 648 456.5 628.5 Q437 609 409 609 Q383 609 362 628.5 Q341 648 341 674 Q341 703 362 721.5 Q383 740 409 740 Z M184 740 Q212 740 231.5 721.5 Q251 703 251 674 Q251 648 231.5 628.5 Q212 609 184 609 Q158 609 137 628.5 Q116 648 116 674 Q116 703 137 721.5 Q158 740 184 740 Z " />
<glyph glyph-name="edotaccent" unicode="&#x117;" horiz-adv-x="570" d="M299 502 Q348 502 390 485 Q432 468 462 438 Q492 408 509 366.5 Q526 325 526 277 Q526 257 523.5 239 Q521 221 518 211 L152 211 Q163 150 206 116 Q249 82 312 82 Q355 82 390 97.5 Q425 113 455 140 L506 68 Q467 31 418 10 Q369 -11 310 -11 Q253 -11 204 8.5 Q155 28 120 62.5 Q85 97 65 144 Q45 191 45 245 Q45 299 64.5 346 Q84 393 118.5 427.5 Q153 462 199 482 Q245 502 299 502 Z M296 413 Q242 413 204 380.5 Q166 348 154 293 L421 293 Q419 351 382.5 382 Q346 413 296 413 Z M297 744 Q326 744 347.5 723.5 Q369 703 369 674 Q369 645 347.5 625 Q326 605 297 605 Q267 605 246 625 Q225 645 225 674 Q225 703 246 723.5 Q267 744 297 744 Z " />
<glyph glyph-name="egrave" unicode="&#xe8;" horiz-adv-x="570" d="M299 502 Q348 502 390 485 Q432 468 462 438 Q492 408 509 366.5 Q526 325 526 277 Q526 257 523.5 239 Q521 221 518 211 L152 211 Q163 150 206 116 Q249 82 312 82 Q355 82 390 97.5 Q425 113 455 140 L506 68 Q467 31 418 10 Q369 -11 310 -11 Q253 -11 204 8.5 Q155 28 120 62.5 Q85 97 65 144 Q45 191 45 245 Q45 299 64.5 346 Q84 393 118.5 427.5 Q153 462 199 482 Q245 502 299 502 Z M296 413 Q242 413 204 380.5 Q166 348 154 293 L421 293 Q419 351 382.5 382 Q346 413 296 413 Z M336 568 L258 568 L130 761 L130 780 L257 780 L336 568 Z " />
<glyph glyph-name="emacron" unicode="&#x113;" horiz-adv-x="570" d="M299 502 Q348 502 390 485 Q432 468 462 438 Q492 408 509 366.5 Q526 325 526 277 Q526 257 523.5 239 Q521 221 518 211 L152 211 Q163 150 206 116 Q249 82 312 82 Q355 82 390 97.5 Q425 113 455 140 L506 68 Q467 31 418 10 Q369 -11 310 -11 Q253 -11 204 8.5 Q155 28 120 62.5 Q85 97 65 144 Q45 191 45 245 Q45 299 64.5 346 Q84 393 118.5 427.5 Q153 462 199 482 Q245 502 299 502 Z M296 413 Q242 413 204 380.5 Q166 348 154 293 L421 293 Q419 351 382.5 382 Q346 413 296 413 Z M441 632 L153 632 L153 716 L441 716 L441 632 Z " />
<glyph glyph-name="eogonek" unicode="&#x119;" horiz-adv-x="570" d="M299 502 Q348 502 390 485 Q432 468 462 438 Q492 408 509 366.5 Q526 325 526 277 Q526 257 523.5 239 Q521 221 518 211 L152 211 Q163 150 206 116 Q249 82 312 82 Q355 82 391 97.5 Q427 113 457 141 L505 69 Q483 46 459 30 Q435 14 404 -6 Q381 -22 365 -38.5 Q349 -55 349 -76 Q349 -113 393 -113 Q403 -113 415.5 -111 Q428 -109 441 -106 L441 -177 Q428 -182 407 -186.5 Q386 -191 363 -191 Q310 -191 279.5 -165.5 Q249 -140 249 -98 Q249 -49 297 -11 Q244 -10 198.5 9.5 Q153 29 118.5 63.5 Q84 98 64.5 144.5 Q45 191 45 245 Q45 299 64.5 346 Q84 393 118.5 427.5 Q153 462 199.5 482 Q246 502 299 502 Z M296 413 Q242 413 204 380.5 Q166 348 154 293 L421 293 Q419 351 382.5 382 Q346 413 296 413 Z " />
<glyph glyph-name="f" unicode="f" horiz-adv-x="322" d="M315 400 L199 400 L199 0 L94 0 L94 400 L24 400 L24 491 L94 491 L94 590 Q94 679 142.5 720 Q191 761 270 761 Q308 761 337 752 L337 663 Q313 666 295 666 Q250 666 224.5 648 Q199 630 199 581 L199 491 L315 491 L315 400 Z " />
<glyph glyph-name="g" unicode="g" horiz-adv-x="634" d="M286 502 Q342 502 387 480.5 Q432 459 460 421 L460 491 L558 491 L558 51 Q558 -8 540 -53.5 Q522 -99 489.5 -129.5 Q457 -160 412 -175.5 Q367 -191 312 -191 Q233 -191 174 -163 Q115 -135 76 -98 L133 -25 Q170 -54 211 -74.5 Q252 -95 306 -95 Q372 -95 412.5 -60.5 Q453 -26 453 45 L453 80 Q424 46 380.5 28 Q337 10 286 10 Q235 10 191.5 28 Q148 46 116 78.5 Q84 111 66 156.5 Q48 202 48 256 Q48 310 66 355.5 Q84 401 116 433.5 Q148 466 191.5 484 Q235 502 286 502 Z M306 408 Q274 408 247 397 Q220 386 199.5 366.5 Q179 347 167.5 318.5 Q156 290 156 256 Q156 221 167.5 192.5 Q179 164 199.5 144 Q220 124 247 113 Q274 102 306 102 Q334 102 360.5 111 Q387 120 408 139 Q429 158 441.5 187.5 Q454 217 454 257 Q454 297 441 325.5 Q428 354 407 372.5 Q386 391 359.5 399.5 Q333 408 306 408 Z " />
<glyph glyph-name="gbreve" unicode="&#x11f;" horiz-adv-x="634" d="M286 502 Q342 502 387 480.5 Q432 459 460 421 L460 491 L558 491 L558 51 Q558 -8 540 -53.5 Q522 -99 489.5 -129.5 Q457 -160 412 -175.5 Q367 -191 312 -191 Q233 -191 174 -163 Q115 -135 76 -98 L133 -25 Q170 -54 211 -74.5 Q252 -95 306 -95 Q372 -95 412.5 -60.5 Q453 -26 453 45 L453 80 Q424 46 380.5 28 Q337 10 286 10 Q235 10 191.5 28 Q148 46 116 78.5 Q84 111 66 156.5 Q48 202 48 256 Q48 310 66 355.5 Q84 401 116 433.5 Q148 466 191.5 484 Q235 502 286 502 Z M306 408 Q274 408 247 397 Q220 386 199.5 366.5 Q179 347 167.5 318.5 Q156 290 156 256 Q156 221 167.5 192.5 Q179 164 199.5 144 Q220 124 247 113 Q274 102 306 102 Q334 102 360.5 111 Q387 120 408 139 Q429 158 441.5 187.5 Q454 217 454 257 Q454 297 441 325.5 Q428 354 407 372.5 Q386 391 359.5 399.5 Q333 408 306 408 Z M474 742 Q474 707 462 677.5 Q450 648 428.5 626 Q407 604 377.5 592 Q348 580 312 580 Q276 580 246.5 592 Q217 604 195.5 626 Q174 648 162 677.5 Q150 707 150 742 L235 742 Q235 704 257 682 Q279 660 312 660 Q346 660 368 682 Q390 704 390 742 L474 742 Z " />
<glyph glyph-name="gcircumflex" unicode="&#x11d;" horiz-adv-x="634" d="M286 502 Q342 502 387 480.5 Q432 459 460 421 L460 491 L558 491 L558 51 Q558 -8 540 -53.5 Q522 -99 489.5 -129.5 Q457 -160 412 -175.5 Q367 -191 312 -191 Q233 -191 174 -163 Q115 -135 76 -98 L133 -25 Q170 -54 211 -74.5 Q252 -95 306 -95 Q372 -95 412.5 -60.5 Q453 -26 453 45 L453 80 Q424 46 380.5 28 Q337 10 286 10 Q235 10 191.5 28 Q148 46 116 78.5 Q84 111 66 156.5 Q48 202 48 256 Q48 310 66 355.5 Q84 401 116 433.5 Q148 466 191.5 484 Q235 502 286 502 Z M306 408 Q274 408 247 397 Q220 386 199.5 366.5 Q179 347 167.5 318.5 Q156 290 156 256 Q156 221 167.5 192.5 Q179 164 199.5 144 Q220 124 247 113 Q274 102 306 102 Q334 102 360.5 111 Q387 120 408 139 Q429 158 441.5 187.5 Q454 217 454 257 Q454 297 441 325.5 Q428 354 407 372.5 Q386 391 359.5 399.5 Q333 408 306 408 Z M481 568 L402 568 L312 677 L222 568 L143 568 L278 780 L346 780 L481 568 Z " />
<glyph glyph-name="gcommaaccent" unicode="&#x123;" horiz-adv-x="634" d="M286 502 Q342 502 387 480.5 Q432 459 460 421 L460 491 L558 491 L558 51 Q558 -8 540 -53.5 Q522 -99 489.5 -129.5 Q457 -160 412 -175.5 Q367 -191 312 -191 Q233 -191 174 -163 Q115 -135 76 -98 L133 -25 Q170 -54 211 -74.5 Q252 -95 306 -95 Q372 -95 412.5 -60.5 Q453 -26 453 45 L453 80 Q424 46 380.5 28 Q337 10 286 10 Q235 10 191.5 28 Q148 46 116 78.5 Q84 111 66 156.5 Q48 202 48 256 Q48 310 66 355.5 Q84 401 116 433.5 Q148 466 191.5 484 Q235 502 286 502 Z M306 408 Q274 408 247 397 Q220 386 199.5 366.5 Q179 347 167.5 318.5 Q156 290 156 256 Q156 221 167.5 192.5 Q179 164 199.5 144 Q220 124 247 113 Q274 102 306 102 Q334 102 360.5 111 Q387 120 408 139 Q429 158 441.5 187.5 Q454 217 454 257 Q454 297 441 325.5 Q428 354 407 372.5 Q386 391 359.5 399.5 Q333 408 306 408 Z M361 568 L260 568 L293 780 L371 780 L361 568 Z " />
<glyph glyph-name="gdotaccent" unicode="&#x121;" horiz-adv-x="634" d="M286 502 Q342 502 387 480.5 Q432 459 460 421 L460 491 L558 491 L558 51 Q558 -8 540 -53.5 Q522 -99 489.5 -129.5 Q457 -160 412 -175.5 Q367 -191 312 -191 Q233 -191 174 -163 Q115 -135 76 -98 L133 -25 Q170 -54 211 -74.5 Q252 -95 306 -95 Q372 -95 412.5 -60.5 Q453 -26 453 45 L453 80 Q424 46 380.5 28 Q337 10 286 10 Q235 10 191.5 28 Q148 46 116 78.5 Q84 111 66 156.5 Q48 202 48 256 Q48 310 66 355.5 Q84 401 116 433.5 Q148 466 191.5 484 Q235 502 286 502 Z M306 408 Q274 408 247 397 Q220 386 199.5 366.5 Q179 347 167.5 318.5 Q156 290 156 256 Q156 221 167.5 192.5 Q179 164 199.5 144 Q220 124 247 113 Q274 102 306 102 Q334 102 360.5 111 Q387 120 408 139 Q429 158 441.5 187.5 Q454 217 454 257 Q454 297 441 325.5 Q428 354 407 372.5 Q386 391 359.5 399.5 Q333 408 306 408 Z M312 744 Q341 744 362.5 723.5 Q384 703 384 674 Q384 645 362.5 625 Q341 605 312 605 Q282 605 261 625 Q240 645 240 674 Q240 703 261 723.5 Q282 744 312 744 Z " />
<glyph glyph-name="h" unicode="h" horiz-adv-x="575" d="M181 441 Q206 470 241.5 486 Q277 502 323 502 Q365 502 399 487.5 Q433 473 456.5 447.5 Q480 422 492.5 386 Q505 350 505 307 L505 0 L399 0 L399 292 Q399 343 370.5 374.5 Q342 406 293 406 Q244 406 212.5 374.5 Q181 343 181 292 L181 0 L76 0 L76 750 L181 750 L181 441 Z " />
<glyph glyph-name="hbar" unicode="&#x127;" horiz-adv-x="581" d="M383 565 L187 565 L187 421 Q212 450 247.5 465.5 Q283 481 328 481 Q370 481 404 466.5 Q438 452 462 426.5 Q486 401 498.5 364.5 Q511 328 511 285 L511 0 L405 0 L405 272 Q405 322 376.5 353 Q348 384 299 384 Q249 384 218 353 Q187 322 187 272 L187 0 L82 0 L82 565 L1 565 L1 655 L82 655 L82 750 L187 750 L187 655 L383 655 L383 565 Z " />
<glyph glyph-name="hcircumflex" unicode="&#x125;" horiz-adv-x="575" d="M181 441 Q206 470 241.5 486 Q277 502 323 502 Q365 502 399 487.5 Q433 473 456.5 447.5 Q480 422 492.5 386 Q505 350 505 307 L505 0 L399 0 L399 292 Q399 343 370.5 374.5 Q342 406 293 406 Q244 406 212.5 374.5 Q181 343 181 292 L181 0 L76 0 L76 750 L181 750 L181 441 Z M363 814 L282 814 L181 907 L81 814 L0 814 L148 1000 L215 1000 L363 814 Z " />
<glyph glyph-name="i" unicode="i" horiz-adv-x="257" d="M181 0 L76 0 L76 491 L181 491 L181 0 Z M129 744 Q158 744 179.5 723.5 Q201 703 201 674 Q201 645 179.5 625 Q158 605 129 605 Q99 605 78 625 Q57 645 57 674 Q57 703 78 723.5 Q99 744 129 744 Z " />
<glyph glyph-name="dotlessi" unicode="&#x131;" horiz-adv-x="257" d="M181 0 L76 0 L76 491 L181 491 L181 0 Z " />
<glyph glyph-name="iacute" unicode="&#xed;" horiz-adv-x="257" d="M181 0 L76 0 L76 491 L181 491 L181 0 Z M265 761 L167 568 L89 568 L138 780 L265 780 L265 761 Z " />
<glyph glyph-name="ibreve" unicode="&#x12d;" horiz-adv-x="257" d="M181 0 L76 0 L76 491 L181 491 L181 0 Z M292 742 Q292 707 280 677.5 Q268 648 246.5 626 Q225 604 195.5 592 Q166 580 130 580 Q94 580 64.5 592 Q35 604 13.5 626 Q-8 648 -20 677.5 Q-32 707 -32 742 L53 742 Q53 704 75 682 Q97 660 130 660 Q164 660 186 682 Q208 704 208 742 L292 742 Z " />
<glyph glyph-name="icircumflex" unicode="&#xee;" horiz-adv-x="257" d="M181 0 L76 0 L76 491 L181 491 L181 0 Z M299 568 L220 568 L130 677 L40 568 L-39 568 L96 780 L164 780 L299 568 Z " />
<glyph glyph-name="idieresis" unicode="&#xef;" horiz-adv-x="257" d="M181 0 L76 0 L76 491 L181 491 L181 0 Z M231 740 Q259 740 278.5 721.5 Q298 703 298 674 Q298 648 278.5 628.5 Q259 609 231 609 Q205 609 184 628.5 Q163 648 163 674 Q163 703 184 721.5 Q205 740 231 740 Z M30 740 Q58 740 77.5 721.5 Q97 703 97 674 Q97 648 77.5 628.5 Q58 609 30 609 Q3 609 -17.5 628.5 Q-38 648 -38 674 Q-38 703 -17.5 721.5 Q3 740 30 740 Z " />
<glyph glyph-name="igrave" unicode="&#xec;" horiz-adv-x="257" d="M181 0 L76 0 L76 491 L181 491 L181 0 Z M170 568 L92 568 L-6 761 L-6 780 L121 780 L170 568 Z " />
<glyph glyph-name="ij" unicode="&#x133;" horiz-adv-x="514" d="M438 -20 Q438 -109 389.5 -150 Q341 -191 263 -191 Q223 -191 195 -182 L195 -93 Q208 -95 217.5 -95.5 Q227 -96 238 -96 Q283 -96 308 -77.5 Q333 -59 333 -11 L333 491 L438 491 L438 -20 Z M386 744 Q415 744 436.5 723.5 Q458 703 458 674 Q458 645 436.5 625 Q415 605 386 605 Q356 605 335 625 Q314 645 314 674 Q314 703 335 723.5 Q356 744 386 744 Z M181 0 L76 0 L76 491 L181 491 L181 0 Z M129 744 Q158 744 179.5 723.5 Q201 703 201 674 Q201 645 179.5 625 Q158 605 129 605 Q99 605 78 625 Q57 645 57 674 Q57 703 78 723.5 Q99 744 129 744 Z " />
<glyph glyph-name="imacron" unicode="&#x12b;" horiz-adv-x="257" d="M181 0 L76 0 L76 491 L181 491 L181 0 Z M249 632 L11 632 L11 717 L249 717 L249 632 Z " />
<glyph glyph-name="iogonek" unicode="&#x12f;" horiz-adv-x="257" d="M181 0 L76 0 L76 491 L181 491 L181 0 Z M129 744 Q158 744 179.5 723.5 Q201 703 201 674 Q201 645 179.5 625 Q158 605 129 605 Q99 605 78 625 Q57 645 57 674 Q57 703 78 723.5 Q99 744 129 744 Z M183 0 L138 -29 Q118 -42 105.5 -52 Q93 -62 93 -79 Q93 -112 135 -112 Q145 -112 157.5 -110 Q170 -108 183 -106 L183 -179 Q168 -184 146.5 -187.5 Q125 -191 104 -191 Q51 -191 20.5 -165.5 Q-10 -140 -10 -98 Q-10 -77 -1.5 -59.5 Q7 -42 25 -25 Q43 -8 71.5 8.5 Q100 25 140 44 L183 0 Z " />
<glyph glyph-name="itilde" unicode="&#x129;" horiz-adv-x="257" d="M181 0 L76 0 L76 491 L181 491 L181 0 Z M63 748 Q83 748 99 741 Q115 734 130 721 L149 703 Q160 693 167.5 688.5 Q175 684 183 684 Q197 684 203 695 Q209 706 209 722 L209 736 L291 736 Q292 731 292.5 723 Q293 715 293 707 Q293 655 267 621 Q241 587 198 587 Q178 587 162.5 594.5 Q147 602 131 616 L112 632 Q101 643 93.5 647.5 Q86 652 78 652 Q63 652 57 640.5 Q51 629 51 614 L51 600 L-32 600 Q-33 605 -33.5 612.5 Q-34 620 -34 628 Q-34 681 -8 714.5 Q18 748 63 748 Z " />
<glyph glyph-name="j" unicode="j" horiz-adv-x="257" d="M181 -20 Q181 -109 132.5 -150 Q84 -191 6 -191 Q-34 -191 -62 -182 L-62 -93 Q-49 -95 -39.5 -95.5 Q-30 -96 -19 -96 Q26 -96 51 -77.5 Q76 -59 76 -11 L76 491 L181 491 L181 -20 Z M129 744 Q158 744 179.5 723.5 Q201 703 201 674 Q201 645 179.5 625 Q158 605 129 605 Q99 605 78 625 Q57 645 57 674 Q57 703 78 723.5 Q99 744 129 744 Z " />
<glyph glyph-name="dotlessj" unicode="&#x237;" horiz-adv-x="257" d="M181 -20 Q181 -109 132.5 -150 Q84 -191 6 -191 Q-34 -191 -62 -182 L-62 -93 Q-49 -95 -39.5 -95.5 Q-30 -96 -19 -96 Q26 -96 51 -77.5 Q76 -59 76 -11 L76 491 L181 491 L181 -20 Z " />
<glyph glyph-name="jcircumflex" unicode="&#x135;" horiz-adv-x="257" d="M181 -20 Q181 -109 132.5 -150 Q84 -191 6 -191 Q-34 -191 -62 -182 L-62 -93 Q-49 -95 -39.5 -95.5 Q-30 -96 -19 -96 Q26 -96 51 -77.5 Q76 -59 76 -11 L76 491 L181 491 L181 -20 Z M299 568 L220 568 L130 677 L40 568 L-39 568 L96 780 L164 780 L299 568 Z " />
<glyph glyph-name="k" unicode="k" horiz-adv-x="533" d="M181 0 L76 0 L76 750 L181 750 L181 0 Z M308 274 L524 0 L398 0 L184 276 L376 491 L507 491 L308 274 Z " />
<glyph glyph-name="kcommaaccent" unicode="&#x137;" horiz-adv-x="533" d="M181 0 L76 0 L76 750 L181 750 L181 0 Z M308 274 L524 0 L398 0 L184 276 L376 491 L507 491 L308 274 Z M293 -220 L212 -220 L218 -48 L319 -48 L293 -220 Z " />
<glyph glyph-name="l" unicode="l" horiz-adv-x="257" d="M181 0 L76 0 L76 750 L181 750 L181 0 Z " />
<glyph glyph-name="lacute" unicode="&#x13a;" horiz-adv-x="257" d="M181 0 L76 0 L76 750 L181 750 L181 0 Z M294 981 L166 814 L88 814 L167 1000 L294 1000 L294 981 Z " />
<glyph glyph-name="lcaron" unicode="&#x13e;" horiz-adv-x="257" d="M181 0 L76 0 L76 750 L181 750 L181 0 Z M348 542 L272 542 L281 750 L392 750 L348 542 Z " />
<glyph glyph-name="lcommaaccent" unicode="&#x13c;" horiz-adv-x="257" d="M181 0 L76 0 L76 750 L181 750 L181 0 Z M153 -220 L72 -220 L78 -48 L179 -48 L153 -220 Z " />
<glyph glyph-name="ldot" unicode="&#x140;" horiz-adv-x="257" d="M181 0 L76 0 L76 750 L181 750 L181 0 Z M307 395 Q339 395 361.5 373 Q384 351 384 317 Q384 283 361.5 261.5 Q339 240 307 240 Q274 240 251.5 261.5 Q229 283 229 317 Q229 351 251.5 373 Q274 395 307 395 Z " />
<glyph glyph-name="lslash" unicode="&#x142;" horiz-adv-x="350" d="M305 359 L218 319 L218 0 L113 0 L113 280 L39 246 L39 345 L113 379 L113 750 L218 750 L218 417 L305 458 L305 359 Z " />
<glyph glyph-name="m" unicode="m" horiz-adv-x="883" d="M631 502 Q674 502 708 487.5 Q742 473 765 447.5 Q788 422 800 386 Q812 350 812 307 L812 0 L707 0 L707 292 Q707 343 680 374.5 Q653 406 605 406 Q557 406 527 375 Q497 344 497 297 L497 0 L392 0 L392 292 Q392 343 364.5 374.5 Q337 406 289 406 Q241 406 211 374.5 Q181 343 181 292 L181 0 L76 0 L76 491 L173 491 L173 443 Q198 471 234.5 486.5 Q271 502 316 502 Q369 502 406 481 Q443 460 465 424 Q491 459 533.5 480.5 Q576 502 631 502 Z " />
<glyph glyph-name="n" unicode="n" horiz-adv-x="575" d="M321 502 Q364 502 398 487.5 Q432 473 456 447.5 Q480 422 492.5 386 Q505 350 505 307 L505 0 L399 0 L399 293 Q399 344 370.5 375.5 Q342 407 293 407 Q244 407 212.5 375.5 Q181 344 181 293 L181 0 L76 0 L76 491 L173 491 L173 441 Q199 470 236.5 486 Q274 502 321 502 Z " />
<glyph glyph-name="nacute" unicode="&#x144;" horiz-adv-x="575" d="M321 502 Q364 502 398 487.5 Q432 473 456 447.5 Q480 422 492.5 386 Q505 350 505 307 L505 0 L399 0 L399 293 Q399 344 370.5 375.5 Q342 407 293 407 Q244 407 212.5 375.5 Q181 344 181 293 L181 0 L76 0 L76 491 L173 491 L173 441 Q199 470 236.5 486 Q274 502 321 502 Z M451 761 L323 568 L245 568 L324 780 L451 780 L451 761 Z " />
<glyph glyph-name="ncaron" unicode="&#x148;" horiz-adv-x="575" d="M321 502 Q364 502 398 487.5 Q432 473 456 447.5 Q480 422 492.5 386 Q505 350 505 307 L505 0 L399 0 L399 293 Q399 344 370.5 375.5 Q342 407 293 407 Q244 407 212.5 375.5 Q181 344 181 293 L181 0 L76 0 L76 491 L173 491 L173 441 Q199 470 236.5 486 Q274 502 321 502 Z M317 568 L249 568 L114 780 L193 780 L283 671 L373 780 L452 780 L317 568 Z " />
<glyph glyph-name="ncommaaccent" unicode="&#x146;" horiz-adv-x="575" d="M321 502 Q364 502 398 487.5 Q432 473 456 447.5 Q480 422 492.5 386 Q505 350 505 307 L505 0 L399 0 L399 293 Q399 344 370.5 375.5 Q342 407 293 407 Q244 407 212.5 375.5 Q181 344 181 293 L181 0 L76 0 L76 491 L173 491 L173 441 Q199 470 236.5 486 Q274 502 321 502 Z M315 -220 L234 -220 L240 -48 L341 -48 L315 -220 Z " />
<glyph glyph-name="eng" unicode="&#x14b;" horiz-adv-x="575" d="M321 502 Q364 502 398 487.5 Q432 473 456 447.5 Q480 422 492.5 386 Q505 350 505 307 L505 -20 Q505 -109 456.5 -150 Q408 -191 330 -191 Q290 -191 262 -182 L262 -93 Q286 -96 304 -96 Q349 -96 374 -78 Q399 -60 399 -11 L399 292 Q399 343 370.5 374.5 Q342 406 293 406 Q244 406 212.5 374.5 Q181 343 181 292 L181 0 L76 0 L76 491 L173 491 L173 441 Q199 470 236.5 486 Q274 502 321 502 Z " />
<glyph glyph-name="ntilde" unicode="&#xf1;" horiz-adv-x="575" d="M321 502 Q364 502 398 487.5 Q432 473 456 447.5 Q480 422 492.5 386 Q505 350 505 307 L505 0 L399 0 L399 293 Q399 344 370.5 375.5 Q342 407 293 407 Q244 407 212.5 375.5 Q181 344 181 293 L181 0 L76 0 L76 491 L173 491 L173 441 Q199 470 236.5 486 Q274 502 321 502 Z M207 748 Q245 748 277 724 L304 704 Q315 695 324.5 689.5 Q334 684 345 684 Q360 684 366.5 695 Q373 706 373 722 L373 736 L456 736 Q457 728 457 721.5 Q457 715 457 707 Q457 654 430 620.5 Q403 587 358 587 Q323 587 288 611 L262 631 Q250 640 241 646 Q232 652 220 652 Q205 652 198.5 641.5 Q192 631 192 614 L192 600 L110 600 Q108 608 108 614.5 Q108 621 108 629 Q108 683 135.5 715.5 Q163 748 207 748 Z " />
<glyph glyph-name="o" unicode="o" horiz-adv-x="609" d="M305 502 Q359 502 406 482 Q453 462 488.5 427.5 Q524 393 544.5 346.5 Q565 300 565 246 Q565 192 544.5 145 Q524 98 488.5 63.5 Q453 29 405.5 9 Q358 -11 304 -11 Q250 -11 203 9 Q156 29 120.5 63.5 Q85 98 65 145 Q45 192 45 246 Q45 300 65 346.5 Q85 393 120.5 427.5 Q156 462 203.5 482 Q251 502 305 502 Z M305 406 Q272 406 243.5 393.5 Q215 381 195 359.5 Q175 338 164 308.5 Q153 279 153 245 Q153 211 164 182 Q175 153 195.5 131.5 Q216 110 243.5 98 Q271 86 304 86 Q337 86 365 98 Q393 110 413.5 131.5 Q434 153 445.5 182 Q457 211 457 245 Q457 279 445.5 308.5 Q434 338 413.5 359.5 Q393 381 365 393.5 Q337 406 305 406 Z " />
<glyph glyph-name="oacute" unicode="&#xf3;" horiz-adv-x="609" d="M305 502 Q359 502 406 482 Q453 462 488.5 427.5 Q524 393 544.5 346.5 Q565 300 565 246 Q565 192 544.5 145 Q524 98 488.5 63.5 Q453 29 405.5 9 Q358 -11 304 -11 Q250 -11 203 9 Q156 29 120.5 63.5 Q85 98 65 145 Q45 192 45 246 Q45 300 65 346.5 Q85 393 120.5 427.5 Q156 462 203.5 482 Q251 502 305 502 Z M305 406 Q272 406 243.5 393.5 Q215 381 195 359.5 Q175 338 164 308.5 Q153 279 153 245 Q153 211 164 182 Q175 153 195.5 131.5 Q216 110 243.5 98 Q271 86 304 86 Q337 86 365 98 Q393 110 413.5 131.5 Q434 153 445.5 182 Q457 211 457 245 Q457 279 445.5 308.5 Q434 338 413.5 359.5 Q393 381 365 393.5 Q337 406 305 406 Z M473 761 L345 568 L267 568 L346 780 L473 780 L473 761 Z " />
<glyph glyph-name="obreve" unicode="&#x14f;" horiz-adv-x="609" d="M305 502 Q359 502 406 482 Q453 462 488.5 427.5 Q524 393 544.5 346.5 Q565 300 565 246 Q565 192 544.5 145 Q524 98 488.5 63.5 Q453 29 405.5 9 Q358 -11 304 -11 Q250 -11 203 9 Q156 29 120.5 63.5 Q85 98 65 145 Q45 192 45 246 Q45 300 65 346.5 Q85 393 120.5 427.5 Q156 462 203.5 482 Q251 502 305 502 Z M305 406 Q272 406 243.5 393.5 Q215 381 195 359.5 Q175 338 164 308.5 Q153 279 153 245 Q153 211 164 182 Q175 153 195.5 131.5 Q216 110 243.5 98 Q271 86 304 86 Q337 86 365 98 Q393 110 413.5 131.5 Q434 153 445.5 182 Q457 211 457 245 Q457 279 445.5 308.5 Q434 338 413.5 359.5 Q393 381 365 393.5 Q337 406 305 406 Z M467 742 Q467 707 455 677.5 Q443 648 421.5 626 Q400 604 370.5 592 Q341 580 305 580 Q269 580 239.5 592 Q210 604 188.5 626 Q167 648 155 677.5 Q143 707 143 742 L228 742 Q228 704 250 682 Q272 660 305 660 Q339 660 361 682 Q383 704 383 742 L467 742 Z " />
<glyph glyph-name="ocircumflex" unicode="&#xf4;" horiz-adv-x="609" d="M305 502 Q359 502 406 482 Q453 462 488.5 427.5 Q524 393 544.5 346.5 Q565 300 565 246 Q565 192 544.5 145 Q524 98 488.5 63.5 Q453 29 405.5 9 Q358 -11 304 -11 Q250 -11 203 9 Q156 29 120.5 63.5 Q85 98 65 145 Q45 192 45 246 Q45 300 65 346.5 Q85 393 120.5 427.5 Q156 462 203.5 482 Q251 502 305 502 Z M305 406 Q272 406 243.5 393.5 Q215 381 195 359.5 Q175 338 164 308.5 Q153 279 153 245 Q153 211 164 182 Q175 153 195.5 131.5 Q216 110 243.5 98 Q271 86 304 86 Q337 86 365 98 Q393 110 413.5 131.5 Q434 153 445.5 182 Q457 211 457 245 Q457 279 445.5 308.5 Q434 338 413.5 359.5 Q393 381 365 393.5 Q337 406 305 406 Z M474 568 L395 568 L305 677 L215 568 L136 568 L271 780 L339 780 L474 568 Z " />
<glyph glyph-name="odieresis" unicode="&#xf6;" horiz-adv-x="609" d="M305 502 Q359 502 406 482 Q453 462 488.5 427.5 Q524 393 544.5 346.5 Q565 300 565 246 Q565 192 544.5 145 Q524 98 488.5 63.5 Q453 29 405.5 9 Q358 -11 304 -11 Q250 -11 203 9 Q156 29 120.5 63.5 Q85 98 65 145 Q45 192 45 246 Q45 300 65 346.5 Q85 393 120.5 427.5 Q156 462 203.5 482 Q251 502 305 502 Z M305 406 Q272 406 243.5 393.5 Q215 381 195 359.5 Q175 338 164 308.5 Q153 279 153 245 Q153 211 164 182 Q175 153 195.5 131.5 Q216 110 243.5 98 Q271 86 304 86 Q337 86 365 98 Q393 110 413.5 131.5 Q434 153 445.5 182 Q457 211 457 245 Q457 279 445.5 308.5 Q434 338 413.5 359.5 Q393 381 365 393.5 Q337 406 305 406 Z M417 740 Q445 740 464.5 721.5 Q484 703 484 674 Q484 648 464.5 628.5 Q445 609 417 609 Q391 609 370 628.5 Q349 648 349 674 Q349 703 370 721.5 Q391 740 417 740 Z M192 740 Q220 740 239.5 721.5 Q259 703 259 674 Q259 648 239.5 628.5 Q220 609 192 609 Q166 609 145 628.5 Q124 648 124 674 Q124 703 145 721.5 Q166 740 192 740 Z " />
<glyph glyph-name="ograve" unicode="&#xf2;" horiz-adv-x="609" d="M305 502 Q359 502 406 482 Q453 462 488.5 427.5 Q524 393 544.5 346.5 Q565 300 565 246 Q565 192 544.5 145 Q524 98 488.5 63.5 Q453 29 405.5 9 Q358 -11 304 -11 Q250 -11 203 9 Q156 29 120.5 63.5 Q85 98 65 145 Q45 192 45 246 Q45 300 65 346.5 Q85 393 120.5 427.5 Q156 462 203.5 482 Q251 502 305 502 Z M305 406 Q272 406 243.5 393.5 Q215 381 195 359.5 Q175 338 164 308.5 Q153 279 153 245 Q153 211 164 182 Q175 153 195.5 131.5 Q216 110 243.5 98 Q271 86 304 86 Q337 86 365 98 Q393 110 413.5 131.5 Q434 153 445.5 182 Q457 211 457 245 Q457 279 445.5 308.5 Q434 338 413.5 359.5 Q393 381 365 393.5 Q337 406 305 406 Z M344 568 L266 568 L138 761 L138 780 L265 780 L344 568 Z " />
<glyph glyph-name="ohungarumlaut" unicode="&#x151;" horiz-adv-x="609" d="M305 502 Q359 502 406 482 Q453 462 488.5 427.5 Q524 393 544.5 346.5 Q565 300 565 246 Q565 192 544.5 145 Q524 98 488.5 63.5 Q453 29 405.5 9 Q358 -11 304 -11 Q250 -11 203 9 Q156 29 120.5 63.5 Q85 98 65 145 Q45 192 45 246 Q45 300 65 346.5 Q85 393 120.5 427.5 Q156 462 203.5 482 Q251 502 305 502 Z M305 406 Q272 406 243.5 393.5 Q215 381 195 359.5 Q175 338 164 308.5 Q153 279 153 245 Q153 211 164 182 Q175 153 195.5 131.5 Q216 110 243.5 98 Q271 86 304 86 Q337 86 365 98 Q393 110 413.5 131.5 Q434 153 445.5 182 Q457 211 457 245 Q457 279 445.5 308.5 Q434 338 413.5 359.5 Q393 381 365 393.5 Q337 406 305 406 Z M544 761 L427 568 L354 568 L433 780 L544 780 L544 761 Z M365 761 L247 568 L175 568 L254 780 L365 780 L365 761 Z " />
<glyph glyph-name="omacron" unicode="&#x14d;" horiz-adv-x="609" d="M305 502 Q359 502 406 482 Q453 462 488.5 427.5 Q524 393 544.5 346.5 Q565 300 565 246 Q565 192 544.5 145 Q524 98 488.5 63.5 Q453 29 405.5 9 Q358 -11 304 -11 Q250 -11 203 9 Q156 29 120.5 63.5 Q85 98 65 145 Q45 192 45 246 Q45 300 65 346.5 Q85 393 120.5 427.5 Q156 462 203.5 482 Q251 502 305 502 Z M305 406 Q272 406 243.5 393.5 Q215 381 195 359.5 Q175 338 164 308.5 Q153 279 153 245 Q153 211 164 182 Q175 153 195.5 131.5 Q216 110 243.5 98 Q271 86 304 86 Q337 86 365 98 Q393 110 413.5 131.5 Q434 153 445.5 182 Q457 211 457 245 Q457 279 445.5 308.5 Q434 338 413.5 359.5 Q393 381 365 393.5 Q337 406 305 406 Z M449 632 L161 632 L161 716 L449 716 L449 632 Z " />
<glyph glyph-name="oslash" unicode="&#xf8;" horiz-adv-x="617" d="M577 450 L521 393 Q543 362 555.5 324.5 Q568 287 568 245 Q568 191 547.5 144.5 Q527 98 491.5 63.5 Q456 29 408.5 9 Q361 -11 307 -11 Q265 -11 228.5 0.5 Q192 12 160 33 L104 -24 L40 40 L95 95 Q72 127 60 165 Q48 203 48 245 Q48 299 68 346 Q88 393 123.5 427.5 Q159 462 206.5 482 Q254 502 308 502 Q350 502 387 490 Q424 478 456 457 L513 513 L577 450 Z M308 411 Q273 411 243.5 398.5 Q214 386 193 364 Q172 342 160 311.5 Q148 281 148 245 Q148 197 168 159 L395 386 Q357 411 308 411 Z M468 245 Q468 292 448 330 L220 103 Q257 78 307 78 Q341 78 370.5 90.5 Q400 103 422 125.5 Q444 148 456 178.5 Q468 209 468 245 Z " />
<glyph glyph-name="oslashacute" unicode="&#x1ff;" horiz-adv-x="617" d="M577 450 L521 393 Q543 362 555.5 324.5 Q568 287 568 245 Q568 191 547.5 144.5 Q527 98 491.5 63.5 Q456 29 408.5 9 Q361 -11 307 -11 Q265 -11 228.5 0.5 Q192 12 160 33 L104 -24 L40 40 L95 95 Q72 127 60 165 Q48 203 48 245 Q48 299 68 346 Q88 393 123.5 427.5 Q159 462 206.5 482 Q254 502 308 502 Q350 502 387 490 Q424 478 456 457 L513 513 L577 450 Z M308 411 Q273 411 243.5 398.5 Q214 386 193 364 Q172 342 160 311.5 Q148 281 148 245 Q148 197 168 159 L395 386 Q357 411 308 411 Z M468 245 Q468 292 448 330 L220 103 Q257 78 307 78 Q341 78 370.5 90.5 Q400 103 422 125.5 Q444 148 456 178.5 Q468 209 468 245 Z M477 761 L349 568 L271 568 L350 780 L477 780 L477 761 Z " />
<glyph glyph-name="otilde" unicode="&#xf5;" horiz-adv-x="609" d="M305 502 Q359 502 406 482 Q453 462 488.5 427.5 Q524 393 544.5 346.5 Q565 300 565 246 Q565 192 544.5 145 Q524 98 488.5 63.5 Q453 29 405.5 9 Q358 -11 304 -11 Q250 -11 203 9 Q156 29 120.5 63.5 Q85 98 65 145 Q45 192 45 246 Q45 300 65 346.5 Q85 393 120.5 427.5 Q156 462 203.5 482 Q251 502 305 502 Z M305 406 Q272 406 243.5 393.5 Q215 381 195 359.5 Q175 338 164 308.5 Q153 279 153 245 Q153 211 164 182 Q175 153 195.5 131.5 Q216 110 243.5 98 Q271 86 304 86 Q337 86 365 98 Q393 110 413.5 131.5 Q434 153 445.5 182 Q457 211 457 245 Q457 279 445.5 308.5 Q434 338 413.5 359.5 Q393 381 365 393.5 Q337 406 305 406 Z M229 748 Q267 748 299 724 L326 704 Q337 695 346.5 689.5 Q356 684 367 684 Q382 684 388.5 695 Q395 706 395 722 L395 736 L478 736 Q479 728 479 721.5 Q479 715 479 707 Q479 654 452 620.5 Q425 587 380 587 Q345 587 310 611 L284 631 Q272 640 263 646 Q254 652 242 652 Q227 652 220.5 641.5 Q214 631 214 614 L214 600 L132 600 Q130 608 130 614.5 Q130 621 130 629 Q130 683 157.5 715.5 Q185 748 229 748 Z " />
<glyph glyph-name="oe" unicode="&#x153;" horiz-adv-x="962" d="M694 501 Q742 501 783 484 Q824 467 854 437 Q884 407 901 365.5 Q918 324 918 276 Q918 256 915 238 Q912 220 910 210 L550 210 Q560 149 601 115 Q642 81 705 81 Q746 81 780 96 Q814 111 845 139 L897 68 Q857 30 807.5 9 Q758 -12 702 -12 Q636 -12 583 16 Q530 44 497 93 Q466 45 416 17 Q366 -11 302 -11 Q248 -11 201.5 8.5 Q155 28 120 62.5 Q85 97 65 144 Q45 191 45 245 Q45 299 65.5 346 Q86 393 121 427.5 Q156 462 203 482 Q250 502 303 502 Q367 502 417 473.5 Q467 445 498 396 Q530 444 580.5 472.5 Q631 501 694 501 Z M303 405 Q270 405 242.5 393 Q215 381 194.5 359.5 Q174 338 163 308.5 Q152 279 152 245 Q152 211 163 182 Q174 153 194 131.5 Q214 110 241.5 98 Q269 86 302 86 Q335 86 361.5 98 Q388 110 407.5 131.5 Q427 153 437.5 182 Q448 211 448 245 Q448 279 437.5 308.5 Q427 338 408 359.5 Q389 381 362 393 Q335 405 303 405 Z M688 412 Q637 412 600 379.5 Q563 347 552 292 L813 292 Q811 349 774.5 380.5 Q738 412 688 412 Z " />
<glyph glyph-name="p" unicode="p" horiz-adv-x="631" d="M345 502 Q397 502 441.5 482.5 Q486 463 518 428.5 Q550 394 568 347.5 Q586 301 586 246 Q586 191 568 144 Q550 97 517.5 62.5 Q485 28 441 8.5 Q397 -11 345 -11 Q294 -11 251.5 7 Q209 25 181 59 L181 -180 L76 -180 L76 491 L173 491 L173 420 Q200 459 245 480.5 Q290 502 345 502 Z M328 406 Q301 406 274.5 396.5 Q248 387 227 367.5 Q206 348 193 318 Q180 288 180 246 Q180 204 192.5 174 Q205 144 226 124 Q247 104 273.5 94.5 Q300 85 328 85 Q359 85 386.5 96.5 Q414 108 434.5 129 Q455 150 466.5 179.5 Q478 209 478 245 Q478 281 466.5 310.5 Q455 340 435 361 Q415 382 387.5 394 Q360 406 328 406 Z " />
<glyph glyph-name="thorn" unicode="&#xfe;" horiz-adv-x="631" d="M181 431 Q209 465 251.5 483.5 Q294 502 345 502 Q397 502 441.5 482.5 Q486 463 518 428.5 Q550 394 568 347.5 Q586 301 586 246 Q586 191 568 144 Q550 97 517.5 62.5 Q485 28 441 8.5 Q397 -11 345 -11 Q294 -11 251.5 7 Q209 25 181 59 L181 -180 L76 -180 L76 750 L181 750 L181 431 Z M328 406 Q301 406 274.5 396.5 Q248 387 227 367.5 Q206 348 193 318 Q180 288 180 246 Q180 204 192.5 174 Q205 144 226 124 Q247 104 273.5 94.5 Q300 85 328 85 Q359 85 386.5 96.5 Q414 108 434.5 129 Q455 150 466.5 179.5 Q478 209 478 245 Q478 281 466.5 310.5 Q455 340 435 361 Q415 382 387.5 394 Q360 406 328 406 Z " />
<glyph glyph-name="q" unicode="q" horiz-adv-x="631" d="M286 502 Q340 502 384.5 480.5 Q429 459 457 421 L457 491 L555 491 L555 -180 L450 -180 L450 59 Q421 25 378.5 7 Q336 -11 286 -11 Q233 -11 189 8.5 Q145 28 113 62.5 Q81 97 63 144 Q45 191 45 246 Q45 301 63 347.5 Q81 394 113 428.5 Q145 463 189 482.5 Q233 502 286 502 Z M302 406 Q270 406 242.5 394 Q215 382 195 360.5 Q175 339 163.5 309.5 Q152 280 152 245 Q152 209 163.5 179.5 Q175 150 195.5 129 Q216 108 243 96.5 Q270 85 302 85 Q330 85 356.5 94.5 Q383 104 404 124 Q425 144 437.5 174 Q450 204 450 246 Q450 288 437 318 Q424 348 403 367.5 Q382 387 355.5 396.5 Q329 406 302 406 Z " />
<glyph glyph-name="r" unicode="r" horiz-adv-x="375" d="M317 496 Q330 496 339.5 494.5 Q349 493 357 491 L357 398 L325 398 Q296 398 269.5 389.5 Q243 381 223.5 364 Q204 347 192.5 321.5 Q181 296 181 262 L181 0 L76 0 L76 491 L173 491 L173 425 Q199 460 236.5 478 Q274 496 317 496 Z " />
<glyph glyph-name="racute" unicode="&#x155;" horiz-adv-x="375" d="M317 496 Q330 496 339.5 494.5 Q349 493 357 491 L357 398 L325 398 Q296 398 269.5 389.5 Q243 381 223.5 364 Q204 347 192.5 321.5 Q181 296 181 262 L181 0 L76 0 L76 491 L173 491 L173 425 Q199 460 236.5 478 Q274 496 317 496 Z M350 761 L222 568 L144 568 L223 780 L350 780 L350 761 Z " />
<glyph glyph-name="rcaron" unicode="&#x159;" horiz-adv-x="375" d="M317 496 Q330 496 339.5 494.5 Q349 493 357 491 L357 398 L325 398 Q296 398 269.5 389.5 Q243 381 223.5 364 Q204 347 192.5 321.5 Q181 296 181 262 L181 0 L76 0 L76 491 L173 491 L173 425 Q199 460 236.5 478 Q274 496 317 496 Z M217 568 L149 568 L14 780 L93 780 L183 671 L273 780 L352 780 L217 568 Z " />
<glyph glyph-name="rcommaaccent" unicode="&#x157;" horiz-adv-x="375" d="M317 496 Q330 496 339.5 494.5 Q349 493 357 491 L357 398 L325 398 Q296 398 269.5 389.5 Q243 381 223.5 364 Q204 347 192.5 321.5 Q181 296 181 262 L181 0 L76 0 L76 491 L173 491 L173 425 Q199 460 236.5 478 Q274 496 317 496 Z M152 -220 L71 -220 L77 -48 L178 -48 L152 -220 Z " />
<glyph glyph-name="s" unicode="s" horiz-adv-x="455" d="M233 502 Q287 502 329.5 482.5 Q372 463 403 426 L346 361 Q322 385 292 398 Q262 411 230 411 Q201 411 182 399.5 Q163 388 163 364 Q163 344 179 332 Q195 320 229 306 L275 287 Q342 259 376 226 Q410 193 410 139 Q410 102 395.5 74 Q381 46 356 27 Q331 8 298 -1.5 Q265 -11 228 -11 Q162 -11 112 15.5 Q62 42 30 84 L89 150 Q119 119 152.5 99.5 Q186 80 228 80 Q260 80 283 93.5 Q306 107 306 135 Q306 159 287 171.5 Q268 184 238 196 L188 217 Q158 229 134.5 242.5 Q111 256 94.5 273 Q78 290 69 311 Q60 332 60 360 Q60 394 73.5 420.5 Q87 447 110 465 Q133 483 165 492.5 Q197 502 233 502 Z " />
<glyph glyph-name="sacute" unicode="&#x15b;" horiz-adv-x="455" d="M233 502 Q287 502 329.5 482.5 Q372 463 403 426 L346 361 Q322 385 292 398 Q262 411 230 411 Q201 411 182 399.5 Q163 388 163 364 Q163 344 179 332 Q195 320 229 306 L275 287 Q342 259 376 226 Q410 193 410 139 Q410 102 395.5 74 Q381 46 356 27 Q331 8 298 -1.5 Q265 -11 228 -11 Q162 -11 112 15.5 Q62 42 30 84 L89 150 Q119 119 152.5 99.5 Q186 80 228 80 Q260 80 283 93.5 Q306 107 306 135 Q306 159 287 171.5 Q268 184 238 196 L188 217 Q158 229 134.5 242.5 Q111 256 94.5 273 Q78 290 69 311 Q60 332 60 360 Q60 394 73.5 420.5 Q87 447 110 465 Q133 483 165 492.5 Q197 502 233 502 Z M399 761 L271 568 L193 568 L272 780 L399 780 L399 761 Z " />
<glyph glyph-name="scaron" unicode="&#x161;" horiz-adv-x="455" d="M233 502 Q287 502 329.5 482.5 Q372 463 403 426 L346 361 Q322 385 292 398 Q262 411 230 411 Q201 411 182 399.5 Q163 388 163 364 Q163 344 179 332 Q195 320 229 306 L275 287 Q342 259 376 226 Q410 193 410 139 Q410 102 395.5 74 Q381 46 356 27 Q331 8 298 -1.5 Q265 -11 228 -11 Q162 -11 112 15.5 Q62 42 30 84 L89 150 Q119 119 152.5 99.5 Q186 80 228 80 Q260 80 283 93.5 Q306 107 306 135 Q306 159 287 171.5 Q268 184 238 196 L188 217 Q158 229 134.5 242.5 Q111 256 94.5 273 Q78 290 69 311 Q60 332 60 360 Q60 394 73.5 420.5 Q87 447 110 465 Q133 483 165 492.5 Q197 502 233 502 Z M265 568 L197 568 L62 780 L141 780 L231 671 L321 780 L400 780 L265 568 Z " />
<glyph glyph-name="scedilla" unicode="&#x15f;" horiz-adv-x="455" d="M233 502 Q287 502 329.5 482.5 Q372 463 403 426 L346 361 Q322 385 292 398 Q262 411 230 411 Q201 411 182 399.5 Q163 388 163 364 Q163 344 179 332 Q195 320 229 306 L275 287 Q342 259 376 226 Q410 193 410 139 Q410 102 395.5 74 Q381 46 356 27 Q331 8 298 -1.5 Q265 -11 228 -11 Q162 -11 112 15.5 Q62 42 30 84 L89 150 Q119 119 152.5 99.5 Q186 80 228 80 Q260 80 283 93.5 Q306 107 306 135 Q306 159 287 171.5 Q268 184 238 196 L188 217 Q158 229 134.5 242.5 Q111 256 94.5 273 Q78 290 69 311 Q60 332 60 360 Q60 394 73.5 420.5 Q87 447 110 465 Q133 483 165 492.5 Q197 502 233 502 Z M253 35 Q283 19 301 -8 Q319 -35 319 -71 Q319 -96 309.5 -117.5 Q300 -139 281.5 -155.5 Q263 -172 236.5 -181.5 Q210 -191 176 -191 Q158 -191 139.5 -188.5 Q121 -186 105 -182 L105 -110 Q142 -113 163 -113 Q194 -113 213.5 -98.5 Q233 -84 233 -52 Q233 -32 226 -15.5 Q219 1 210 14 L253 35 Z " />
<glyph glyph-name="scircumflex" unicode="&#x15d;" horiz-adv-x="455" d="M233 502 Q287 502 329.5 482.5 Q372 463 403 426 L346 361 Q322 385 292 398 Q262 411 230 411 Q201 411 182 399.5 Q163 388 163 364 Q163 344 179 332 Q195 320 229 306 L275 287 Q342 259 376 226 Q410 193 410 139 Q410 102 395.5 74 Q381 46 356 27 Q331 8 298 -1.5 Q265 -11 228 -11 Q162 -11 112 15.5 Q62 42 30 84 L89 150 Q119 119 152.5 99.5 Q186 80 228 80 Q260 80 283 93.5 Q306 107 306 135 Q306 159 287 171.5 Q268 184 238 196 L188 217 Q158 229 134.5 242.5 Q111 256 94.5 273 Q78 290 69 311 Q60 332 60 360 Q60 394 73.5 420.5 Q87 447 110 465 Q133 483 165 492.5 Q197 502 233 502 Z M400 568 L321 568 L231 677 L141 568 L62 568 L197 780 L265 780 L400 568 Z " />
<glyph glyph-name="scommaaccent" unicode="&#x219;" horiz-adv-x="455" d="M233 502 Q287 502 329.5 482.5 Q372 463 403 426 L346 361 Q322 385 292 398 Q262 411 230 411 Q201 411 182 399.5 Q163 388 163 364 Q163 344 179 332 Q195 320 229 306 L275 287 Q342 259 376 226 Q410 193 410 139 Q410 102 395.5 74 Q381 46 356 27 Q331 8 298 -1.5 Q265 -11 228 -11 Q162 -11 112 15.5 Q62 42 30 84 L89 150 Q119 119 152.5 99.5 Q186 80 228 80 Q260 80 283 93.5 Q306 107 306 135 Q306 159 287 171.5 Q268 184 238 196 L188 217 Q158 229 134.5 242.5 Q111 256 94.5 273 Q78 290 69 311 Q60 332 60 360 Q60 394 73.5 420.5 Q87 447 110 465 Q133 483 165 492.5 Q197 502 233 502 Z M265 -220 L184 -220 L190 -48 L291 -48 L265 -220 Z " />
<glyph glyph-name="germandbls" unicode="&#xdf;" horiz-adv-x="630" d="M301 761 Q387 761 438 720 Q489 679 489 607 Q489 592 486 571.5 Q483 551 474 527 L435 420 Q428 403 423.5 387.5 Q419 372 419 359 Q419 332 441 316 Q463 300 500 278 Q547 249 575 217 Q603 185 603 135 Q603 101 589.5 73.5 Q576 46 552.5 27 Q529 8 496.5 -2 Q464 -12 425 -12 Q369 -12 326 7 Q283 26 254 53 L302 128 Q329 107 361 93.5 Q393 80 428 80 Q459 80 479 92.5 Q499 105 499 132 Q499 159 477 175 Q455 191 417 214 Q369 242 340.5 269.5 Q312 297 312 337 Q312 354 317 373.5 Q322 393 330 413 L368 515 Q375 534 379 551 Q383 568 383 584 Q383 620 360.5 642.5 Q338 665 296 665 Q248 665 214 632 Q180 599 180 526 L180 0 L76 0 L76 531 Q76 586 92 628.5 Q108 671 137.5 700.5 Q167 730 208.5 745.5 Q250 761 301 761 Z " />
<glyph glyph-name="uni0259" unicode="&#x259;" horiz-adv-x="570" d="M270 502 Q325 502 372 482.5 Q419 463 453 428.5 Q487 394 506.5 347.5 Q526 301 526 247 Q526 192 506.5 145 Q487 98 452.5 63.5 Q418 29 372 9 Q326 -11 272 -11 Q222 -11 180.5 6 Q139 23 109 53 Q79 83 62 124 Q45 165 45 214 Q45 234 47.5 251.5 Q50 269 52 280 L419 280 Q409 340 368.5 374.5 Q328 409 267 409 Q226 409 191 393.5 Q156 378 126 351 L75 423 Q114 460 163.5 481 Q213 502 270 502 Z M275 78 Q328 78 366 110 Q404 142 417 198 L149 198 Q149 169 159.5 146.5 Q170 124 187 109 Q204 94 227 86 Q250 78 275 78 Z " />
<glyph glyph-name="t" unicode="t" horiz-adv-x="398" d="M352 400 L205 400 L205 169 Q205 120 230.5 102 Q256 84 303 84 Q316 84 332 85.5 Q348 87 367 89 L367 0 Q347 -5 326.5 -8 Q306 -11 281 -11 Q199 -11 149.5 30 Q100 71 100 160 L100 400 L20 400 L20 491 L100 491 L100 620 L205 620 L205 491 L352 491 L352 400 Z " />
<glyph glyph-name="tbar" unicode="&#x167;" horiz-adv-x="412" d="M361 208 L215 208 L215 169 Q215 120 240 102 Q265 84 311 84 Q326 84 341.5 85.5 Q357 87 376 89 L376 0 Q357 -5 336 -8 Q315 -11 290 -11 Q209 -11 159.5 30 Q110 71 110 160 L110 208 L29 208 L29 295 L110 295 L110 404 L29 404 L29 491 L110 491 L110 620 L215 620 L215 491 L361 491 L361 404 L215 404 L215 295 L361 295 L361 208 Z " />
<glyph glyph-name="tcaron" unicode="&#x165;" horiz-adv-x="398" d="M352 400 L205 400 L205 169 Q205 120 230.5 102 Q256 84 303 84 Q316 84 332 85.5 Q348 87 367 89 L367 0 Q347 -5 326.5 -8 Q306 -11 281 -11 Q199 -11 149.5 30 Q100 71 100 160 L100 400 L20 400 L20 491 L100 491 L100 620 L205 620 L205 491 L352 491 L352 400 Z M372 542 L296 542 L305 750 L416 750 L372 542 Z " />
<glyph glyph-name="uni0163" unicode="&#x163;" horiz-adv-x="398" d="M352 400 L205 400 L205 169 Q205 120 230.5 102 Q256 84 303 84 Q316 84 332 85.5 Q348 87 367 89 L367 0 Q347 -5 326.5 -8 Q306 -11 281 -11 Q199 -11 149.5 30 Q100 71 100 160 L100 400 L20 400 L20 491 L100 491 L100 620 L205 620 L205 491 L352 491 L352 400 Z M238 35 Q268 19 286 -8 Q304 -35 304 -71 Q304 -96 294.5 -117.5 Q285 -139 266.5 -155.5 Q248 -172 221.5 -181.5 Q195 -191 161 -191 Q143 -191 124.5 -188.5 Q106 -186 90 -182 L90 -110 Q127 -113 148 -113 Q179 -113 198.5 -98.5 Q218 -84 218 -52 Q218 -32 211 -15.5 Q204 1 195 14 L238 35 Z " />
<glyph glyph-name="u" unicode="u" horiz-adv-x="570" d="M500 206 Q500 156 483.5 116 Q467 76 438.5 47.5 Q410 19 370.5 4 Q331 -11 286 -11 Q240 -11 201 4 Q162 19 133 47.5 Q104 76 87.5 116 Q71 156 71 206 L71 491 L176 491 L176 198 Q176 146 208 116 Q240 86 286 86 Q331 86 362.5 116 Q394 146 394 198 L394 491 L500 491 L500 206 Z " />
<glyph glyph-name="uacute" unicode="&#xfa;" horiz-adv-x="570" d="M500 206 Q500 156 483.5 116 Q467 76 438.5 47.5 Q410 19 370.5 4 Q331 -11 286 -11 Q240 -11 201 4 Q162 19 133 47.5 Q104 76 87.5 116 Q71 156 71 206 L71 491 L176 491 L176 198 Q176 146 208 116 Q240 86 286 86 Q331 86 362.5 116 Q394 146 394 198 L394 491 L500 491 L500 206 Z M453 761 L325 568 L247 568 L326 780 L453 780 L453 761 Z " />
<glyph glyph-name="ubreve" unicode="&#x16d;" horiz-adv-x="570" d="M500 206 Q500 156 483.5 116 Q467 76 438.5 47.5 Q410 19 370.5 4 Q331 -11 286 -11 Q240 -11 201 4 Q162 19 133 47.5 Q104 76 87.5 116 Q71 156 71 206 L71 491 L176 491 L176 198 Q176 146 208 116 Q240 86 286 86 Q331 86 362.5 116 Q394 146 394 198 L394 491 L500 491 L500 206 Z M447 742 Q447 707 435 677.5 Q423 648 401.5 626 Q380 604 350.5 592 Q321 580 285 580 Q249 580 219.5 592 Q190 604 168.5 626 Q147 648 135 677.5 Q123 707 123 742 L208 742 Q208 704 230 682 Q252 660 285 660 Q319 660 341 682 Q363 704 363 742 L447 742 Z " />
<glyph glyph-name="uni01D4" unicode="&#x1d4;" horiz-adv-x="570" d="M500 206 Q500 156 483.5 116 Q467 76 438.5 47.5 Q410 19 370.5 4 Q331 -11 286 -11 Q240 -11 201 4 Q162 19 133 47.5 Q104 76 87.5 116 Q71 156 71 206 L71 491 L176 491 L176 198 Q176 146 208 116 Q240 86 286 86 Q331 86 362.5 116 Q394 146 394 198 L394 491 L500 491 L500 206 Z M319 568 L251 568 L116 780 L195 780 L285 671 L375 780 L454 780 L319 568 Z " />
<glyph glyph-name="ucircumflex" unicode="&#xfb;" horiz-adv-x="570" d="M500 206 Q500 156 483.5 116 Q467 76 438.5 47.5 Q410 19 370.5 4 Q331 -11 286 -11 Q240 -11 201 4 Q162 19 133 47.5 Q104 76 87.5 116 Q71 156 71 206 L71 491 L176 491 L176 198 Q176 146 208 116 Q240 86 286 86 Q331 86 362.5 116 Q394 146 394 198 L394 491 L500 491 L500 206 Z M454 568 L375 568 L285 677 L195 568 L116 568 L251 780 L319 780 L454 568 Z " />
<glyph glyph-name="udieresis" unicode="&#xfc;" horiz-adv-x="570" d="M500 206 Q500 156 483.5 116 Q467 76 438.5 47.5 Q410 19 370.5 4 Q331 -11 286 -11 Q240 -11 201 4 Q162 19 133 47.5 Q104 76 87.5 116 Q71 156 71 206 L71 491 L176 491 L176 198 Q176 146 208 116 Q240 86 286 86 Q331 86 362.5 116 Q394 146 394 198 L394 491 L500 491 L500 206 Z M397 740 Q425 740 444.5 721.5 Q464 703 464 674 Q464 648 444.5 628.5 Q425 609 397 609 Q371 609 350 628.5 Q329 648 329 674 Q329 703 350 721.5 Q371 740 397 740 Z M172 740 Q200 740 219.5 721.5 Q239 703 239 674 Q239 648 219.5 628.5 Q200 609 172 609 Q146 609 125 628.5 Q104 648 104 674 Q104 703 125 721.5 Q146 740 172 740 Z " />
<glyph glyph-name="ugrave" unicode="&#xf9;" horiz-adv-x="570" d="M500 206 Q500 156 483.5 116 Q467 76 438.5 47.5 Q410 19 370.5 4 Q331 -11 286 -11 Q240 -11 201 4 Q162 19 133 47.5 Q104 76 87.5 116 Q71 156 71 206 L71 491 L176 491 L176 198 Q176 146 208 116 Q240 86 286 86 Q331 86 362.5 116 Q394 146 394 198 L394 491 L500 491 L500 206 Z M324 568 L246 568 L118 761 L118 780 L245 780 L324 568 Z " />
<glyph glyph-name="uhungarumlaut" unicode="&#x171;" horiz-adv-x="570" d="M500 206 Q500 156 483.5 116 Q467 76 438.5 47.5 Q410 19 370.5 4 Q331 -11 286 -11 Q240 -11 201 4 Q162 19 133 47.5 Q104 76 87.5 116 Q71 156 71 206 L71 491 L176 491 L176 198 Q176 146 208 116 Q240 86 286 86 Q331 86 362.5 116 Q394 146 394 198 L394 491 L500 491 L500 206 Z M524 761 L407 568 L334 568 L413 780 L524 780 L524 761 Z M345 761 L227 568 L155 568 L234 780 L345 780 L345 761 Z " />
<glyph glyph-name="umacron" unicode="&#x16b;" horiz-adv-x="570" d="M500 206 Q500 156 483.5 116 Q467 76 438.5 47.5 Q410 19 370.5 4 Q331 -11 286 -11 Q240 -11 201 4 Q162 19 133 47.5 Q104 76 87.5 116 Q71 156 71 206 L71 491 L176 491 L176 198 Q176 146 208 116 Q240 86 286 86 Q331 86 362.5 116 Q394 146 394 198 L394 491 L500 491 L500 206 Z M429 632 L141 632 L141 716 L429 716 L429 632 Z " />
<glyph glyph-name="uni021B" unicode="&#x21b;" horiz-adv-x="398" d="M352 400 L205 400 L205 169 Q205 120 230.5 102 Q256 84 303 84 Q316 84 332 85.5 Q348 87 367 89 L367 0 Q347 -5 326.5 -8 Q306 -11 281 -11 Q199 -11 149.5 30 Q100 71 100 160 L100 400 L20 400 L20 491 L100 491 L100 620 L205 620 L205 491 L352 491 L352 400 Z M250 -220 L169 -220 L175 -48 L276 -48 L250 -220 Z " />
<glyph glyph-name="uogonek" unicode="&#x173;" horiz-adv-x="570" d="M500 206 Q500 165 491 135.5 Q482 106 465.5 82 Q449 58 425.5 35.5 Q402 13 373 -13 Q354 -30 343.5 -44.5 Q333 -59 333 -76 Q333 -114 377 -114 Q399 -114 425 -108 L425 -177 Q410 -182 389.5 -186.5 Q369 -191 344 -191 Q293 -191 263.5 -169 Q234 -147 234 -103 Q234 -50 283 -11 Q237 -10 198.5 5.5 Q160 21 131.5 49 Q103 77 87 116.5 Q71 156 71 206 L71 491 L176 491 L176 198 Q176 146 208 116 Q240 86 286 86 Q331 86 362.5 116 Q394 146 394 198 L394 491 L500 491 L500 206 Z " />
<glyph glyph-name="uring" unicode="&#x16f;" horiz-adv-x="570" d="M500 206 Q500 156 483.5 116 Q467 76 438.5 47.5 Q410 19 370.5 4 Q331 -11 286 -11 Q240 -11 201 4 Q162 19 133 47.5 Q104 76 87.5 116 Q71 156 71 206 L71 491 L176 491 L176 198 Q176 146 208 116 Q240 86 286 86 Q331 86 362.5 116 Q394 146 394 198 L394 491 L500 491 L500 206 Z M284 785 Q310 785 332 776 Q354 767 369.5 751.5 Q385 736 394 714.5 Q403 693 403 669 Q403 645 394 624 Q385 603 369.5 587.5 Q354 572 332 563 Q310 554 284 554 Q258 554 236.5 563 Q215 572 199.5 587.5 Q184 603 175 624 Q166 645 166 669 Q166 693 175 714.5 Q184 736 199.5 751.5 Q215 767 236.5 776 Q258 785 284 785 Z M285 716 Q265 716 252 702.5 Q239 689 239 669 Q239 649 252 636.5 Q265 624 285 624 Q304 624 317 636.5 Q330 649 330 669 Q330 689 317 702.5 Q304 716 285 716 Z " />
<glyph glyph-name="utilde" unicode="&#x169;" horiz-adv-x="570" d="M500 206 Q500 156 483.5 116 Q467 76 438.5 47.5 Q410 19 370.5 4 Q331 -11 286 -11 Q240 -11 201 4 Q162 19 133 47.5 Q104 76 87.5 116 Q71 156 71 206 L71 491 L176 491 L176 198 Q176 146 208 116 Q240 86 286 86 Q331 86 362.5 116 Q394 146 394 198 L394 491 L500 491 L500 206 Z M209 748 Q247 748 279 724 L306 704 Q317 695 326.5 689.5 Q336 684 347 684 Q362 684 368.5 695 Q375 706 375 722 L375 736 L458 736 Q459 728 459 721.5 Q459 715 459 707 Q459 654 432 620.5 Q405 587 360 587 Q325 587 290 611 L264 631 Q252 640 243 646 Q234 652 222 652 Q207 652 200.5 641.5 Q194 631 194 614 L194 600 L112 600 Q110 608 110 614.5 Q110 621 110 629 Q110 683 137.5 715.5 Q165 748 209 748 Z " />
<glyph glyph-name="v" unicode="v" horiz-adv-x="549" d="M293 -11 L256 -11 L19 491 L131 491 L274 166 L418 491 L529 491 L293 -11 Z " />
<glyph glyph-name="w" unicode="w" horiz-adv-x="854" d="M596 173 L723 491 L834 491 L617 -11 L581 -11 L426 317 L273 -11 L237 -11 L19 491 L131 491 L260 170 L409 502 L445 502 L596 173 Z " />
<glyph glyph-name="wacute" unicode="&#x1e83;" horiz-adv-x="854" d="M596 173 L723 491 L834 491 L617 -11 L581 -11 L426 317 L273 -11 L237 -11 L19 491 L131 491 L260 170 L409 502 L445 502 L596 173 Z M593 761 L465 568 L387 568 L466 780 L593 780 L593 761 Z " />
<glyph glyph-name="wcircumflex" unicode="&#x175;" horiz-adv-x="854" d="M596 173 L723 491 L834 491 L617 -11 L581 -11 L426 317 L273 -11 L237 -11 L19 491 L131 491 L260 170 L409 502 L445 502 L596 173 Z M594 568 L515 568 L425 677 L335 568 L256 568 L391 780 L459 780 L594 568 Z " />
<glyph glyph-name="wdieresis" unicode="&#x1e85;" horiz-adv-x="854" d="M596 173 L723 491 L834 491 L617 -11 L581 -11 L426 317 L273 -11 L237 -11 L19 491 L131 491 L260 170 L409 502 L445 502 L596 173 Z M537 740 Q565 740 584.5 721.5 Q604 703 604 674 Q604 648 584.5 628.5 Q565 609 537 609 Q511 609 490 628.5 Q469 648 469 674 Q469 703 490 721.5 Q511 740 537 740 Z M312 740 Q340 740 359.5 721.5 Q379 703 379 674 Q379 648 359.5 628.5 Q340 609 312 609 Q286 609 265 628.5 Q244 648 244 674 Q244 703 265 721.5 Q286 740 312 740 Z " />
<glyph glyph-name="wgrave" unicode="&#x1e81;" horiz-adv-x="854" d="M596 173 L723 491 L834 491 L617 -11 L581 -11 L426 317 L273 -11 L237 -11 L19 491 L131 491 L260 170 L409 502 L445 502 L596 173 Z M464 568 L386 568 L258 761 L258 780 L385 780 L464 568 Z " />
<glyph glyph-name="x" unicode="x" horiz-adv-x="514" d="M315 254 L499 0 L379 0 L256 178 L134 0 L14 0 L196 255 L27 491 L147 491 L256 331 L366 491 L486 491 L315 254 Z " />
<glyph glyph-name="y" unicode="y" horiz-adv-x="549" d="M291 -56 Q260 -127 216.5 -159 Q173 -191 110 -191 Q90 -191 69 -188.5 Q48 -186 29 -181 L29 -92 Q47 -94 61 -95 Q75 -96 88 -96 Q122 -96 148.5 -82 Q175 -68 195 -24 L215 22 L19 491 L132 491 L272 133 L418 491 L530 491 L291 -56 Z " />
<glyph glyph-name="yacute" unicode="&#xfd;" horiz-adv-x="549" d="M291 -56 Q260 -127 216.5 -159 Q173 -191 110 -191 Q90 -191 69 -188.5 Q48 -186 29 -181 L29 -92 Q47 -94 61 -95 Q75 -96 88 -96 Q122 -96 148.5 -82 Q175 -68 195 -24 L215 22 L19 491 L132 491 L272 133 L418 491 L530 491 L291 -56 Z M441 761 L313 568 L235 568 L314 780 L441 780 L441 761 Z " />
<glyph glyph-name="ycircumflex" unicode="&#x177;" horiz-adv-x="549" d="M291 -56 Q260 -127 216.5 -159 Q173 -191 110 -191 Q90 -191 69 -188.5 Q48 -186 29 -181 L29 -92 Q47 -94 61 -95 Q75 -96 88 -96 Q122 -96 148.5 -82 Q175 -68 195 -24 L215 22 L19 491 L132 491 L272 133 L418 491 L530 491 L291 -56 Z M442 568 L363 568 L273 677 L183 568 L104 568 L239 780 L307 780 L442 568 Z " />
<glyph glyph-name="ydieresis" unicode="&#xff;" horiz-adv-x="549" d="M291 -56 Q260 -127 216.5 -159 Q173 -191 110 -191 Q90 -191 69 -188.5 Q48 -186 29 -181 L29 -92 Q47 -94 61 -95 Q75 -96 88 -96 Q122 -96 148.5 -82 Q175 -68 195 -24 L215 22 L19 491 L132 491 L272 133 L418 491 L530 491 L291 -56 Z M385 740 Q413 740 432.5 721.5 Q452 703 452 674 Q452 648 432.5 628.5 Q413 609 385 609 Q359 609 338 628.5 Q317 648 317 674 Q317 703 338 721.5 Q359 740 385 740 Z M160 740 Q188 740 207.5 721.5 Q227 703 227 674 Q227 648 207.5 628.5 Q188 609 160 609 Q134 609 113 628.5 Q92 648 92 674 Q92 703 113 721.5 Q134 740 160 740 Z " />
<glyph glyph-name="ygrave" unicode="&#x1ef3;" horiz-adv-x="549" d="M291 -56 Q260 -127 216.5 -159 Q173 -191 110 -191 Q90 -191 69 -188.5 Q48 -186 29 -181 L29 -92 Q47 -94 61 -95 Q75 -96 88 -96 Q122 -96 148.5 -82 Q175 -68 195 -24 L215 22 L19 491 L132 491 L272 133 L418 491 L530 491 L291 -56 Z M312 568 L234 568 L106 761 L106 780 L233 780 L312 568 Z " />
<glyph glyph-name="z" unicode="z" horiz-adv-x="461" d="M437 461 L179 91 L439 91 L439 0 L22 0 L22 29 L279 400 L45 400 L45 491 L437 491 L437 461 Z " />
<glyph glyph-name="zacute" unicode="&#x17a;" horiz-adv-x="461" d="M437 461 L179 91 L439 91 L439 0 L22 0 L22 29 L279 400 L45 400 L45 491 L437 491 L437 461 Z M406 761 L278 568 L200 568 L279 780 L406 780 L406 761 Z " />
<glyph glyph-name="zcaron" unicode="&#x17e;" horiz-adv-x="461" d="M437 461 L179 91 L439 91 L439 0 L22 0 L22 29 L279 400 L45 400 L45 491 L437 491 L437 461 Z M272 568 L204 568 L69 780 L148 780 L238 671 L328 780 L407 780 L272 568 Z " />
<glyph glyph-name="zdotaccent" unicode="&#x17c;" horiz-adv-x="461" d="M437 461 L179 91 L439 91 L439 0 L22 0 L22 29 L279 400 L45 400 L45 491 L437 491 L437 461 Z M238 744 Q267 744 288.5 723.5 Q310 703 310 674 Q310 645 288.5 625 Q267 605 238 605 Q208 605 187 625 Q166 645 166 674 Q166 703 187 723.5 Q208 744 238 744 Z " />
<glyph glyph-name="fi" unicode="&#xfb01;" horiz-adv-x="594" d="M315 400 L199 400 L199 0 L94 0 L94 400 L24 400 L24 491 L94 491 L94 590 Q94 679 142.5 720 Q191 761 270 761 Q308 761 337 752 L337 663 Q313 666 295 666 Q250 666 224.5 648 Q199 630 199 581 L199 491 L315 491 L315 400 Z M518 0 L413 0 L413 491 L518 491 L518 0 Z M466 744 Q495 744 516.5 723.5 Q538 703 538 674 Q538 645 516.5 625 Q495 605 466 605 Q436 605 415 625 Q394 645 394 674 Q394 703 415 723.5 Q436 744 466 744 Z " />
<glyph glyph-name="fl" unicode="&#xfb02;" horiz-adv-x="594" d="M315 400 L199 400 L199 0 L94 0 L94 400 L24 400 L24 491 L94 491 L94 590 Q94 679 142.5 720 Q191 761 270 761 Q308 761 337 752 L337 663 Q313 666 295 666 Q250 666 224.5 648 Q199 630 199 581 L199 491 L315 491 L315 400 Z M518 0 L413 0 L413 750 L518 750 L518 0 Z " />
<glyph glyph-name="ordfeminine" unicode="&#xaa;" horiz-adv-x="367" d="M181 563 Q242 563 278.5 529.5 Q315 496 315 430 L315 244 L237 244 L237 271 Q220 255 197 246 Q174 237 145 237 Q93 237 65 263.5 Q37 290 37 331 Q37 375 68.5 398.5 Q100 422 154 422 L230 422 L230 436 Q230 462 215.5 476 Q201 490 172 490 Q148 490 128 480.5 Q108 471 88 454 L50 509 Q107 563 181 563 Z M168 300 Q194 300 212 316 Q230 332 230 358 L230 368 L168 368 Q146 368 134.5 358.5 Q123 349 123 334 Q123 317 136 308.5 Q149 300 168 300 Z " />
<glyph glyph-name="ordmasculine" unicode="&#xba;" horiz-adv-x="404" d="M201 562 Q235 562 266 549.5 Q297 537 319.5 515.5 Q342 494 355.5 464 Q369 434 369 399 Q369 364 355.5 334.5 Q342 305 319.5 283.5 Q297 262 266 249.5 Q235 237 201 237 Q166 237 136 249.5 Q106 262 83.5 283.5 Q61 305 48 334.5 Q35 364 35 399 Q35 434 48 464 Q61 494 83.5 515.5 Q106 537 136 549.5 Q166 562 201 562 Z M201 486 Q164 486 141.5 462 Q119 438 119 399 Q119 361 141.5 337 Q164 313 201 313 Q238 313 261 337 Q284 361 284 399 Q284 437 261 461.5 Q238 486 201 486 Z " />
<glyph glyph-name="zero" unicode="0" horiz-adv-x="661" d="M330 546 Q389 546 441 524.5 Q493 503 531.5 465.5 Q570 428 592.5 377 Q615 326 615 267 Q615 208 592.5 157.5 Q570 107 531 69 Q492 31 440 9.5 Q388 -12 329 -12 Q270 -12 218.5 9.5 Q167 31 128.5 69 Q90 107 68 157.5 Q46 208 46 267 Q46 326 68 377 Q90 428 128.5 465.5 Q167 503 219 524.5 Q271 546 330 546 Z M331 449 Q292 449 260 435 Q228 421 204.5 397 Q181 373 168 339.5 Q155 306 155 267 Q155 228 168 195 Q181 162 204.5 137.5 Q228 113 260 99 Q292 85 331 85 Q368 85 400.5 99 Q433 113 456.5 137.5 Q480 162 493.5 195 Q507 228 507 267 Q507 306 493.5 339.5 Q480 373 456.5 397 Q433 421 400.5 435 Q368 449 331 449 Z " />
<glyph glyph-name="one" unicode="1" horiz-adv-x="504" d="M326 91 L462 91 L462 0 L74 0 L74 91 L220 91 L220 439 L84 439 L84 535 L326 535 L326 91 Z " />
<glyph glyph-name="two" unicode="2" horiz-adv-x="567" d="M281 546 Q327 546 365.5 532 Q404 518 432 492.5 Q460 467 475.5 432 Q491 397 491 356 Q491 320 479 289 Q467 258 446 230.5 Q425 203 396.5 178 Q368 153 335 128 L285 91 L515 91 L515 0 L43 0 L43 24 L244 174 Q273 196 298.5 215.5 Q324 235 342.5 255 Q361 275 372 297 Q383 319 383 346 Q383 388 356 419 Q329 450 278 450 Q252 450 232.5 441.5 Q213 433 199 418.5 Q185 404 178 385 Q171 366 171 346 Q171 327 176 299 L72 299 Q68 313 66.5 327.5 Q65 342 65 355 Q65 391 80 425.5 Q95 460 123 487 Q151 514 191 530 Q231 546 281 546 Z " />
<glyph glyph-name="three" unicode="3" horiz-adv-x="527" d="M463 506 L304 294 Q336 288 367.5 272 Q399 256 423.5 230.5 Q448 205 463 170 Q478 135 478 90 Q478 39 458.5 -2 Q439 -43 406 -72.5 Q373 -102 329 -117.5 Q285 -133 237 -133 Q195 -133 159.5 -122 Q124 -111 94.5 -91.5 Q65 -72 42.5 -46 Q20 -20 5 9 L79 62 Q106 20 142.5 -8 Q179 -36 234 -36 Q263 -36 288 -27 Q313 -18 331 -2 Q349 14 359.5 37 Q370 60 370 89 Q370 145 330.5 176 Q291 207 217 207 L147 207 L147 236 L299 439 L52 439 L52 535 L463 535 L463 506 Z " />
<glyph glyph-name="four" unicode="4" horiz-adv-x="559" d="M454 91 L545 91 L545 0 L454 0 L454 -121 L349 -121 L349 0 L19 0 L19 29 L225 535 L334 535 L151 91 L349 91 L349 295 L454 295 L454 91 Z " />
<glyph glyph-name="five" unicode="5" horiz-adv-x="547" d="M447 439 L188 439 L188 289 Q208 294 229.5 296.5 Q251 299 274 299 Q316 299 356.5 286 Q397 273 428.5 247 Q460 221 479 182 Q498 143 498 91 Q498 40 478.5 -1.5 Q459 -43 426 -72.5 Q393 -102 349 -117.5 Q305 -133 256 -133 Q213 -133 176.5 -122 Q140 -111 110 -91.5 Q80 -72 57.5 -46 Q35 -20 19 9 L93 62 Q120 20 157.5 -8 Q195 -36 253 -36 Q282 -36 307 -27 Q332 -18 350.5 -1.5 Q369 15 379.5 38 Q390 61 390 90 Q390 147 350.5 177 Q311 207 238 207 L86 207 L86 535 L447 535 L447 439 Z " />
<glyph glyph-name="six" unicode="6" horiz-adv-x="556" d="M266 435 Q279 438 295 438 Q338 438 377 421.5 Q416 405 446 375.5 Q476 346 494 305.5 Q512 265 512 217 Q512 168 493.5 126 Q475 84 443 53.5 Q411 23 368.5 6 Q326 -11 278 -11 Q231 -11 188.5 6 Q146 23 114 53.5 Q82 84 63.5 126 Q45 168 45 218 Q45 248 52 274 Q59 300 71 325 Q83 350 99.5 374.5 Q116 399 136 427 L300 660 L426 660 L266 435 Z M277 348 Q250 348 226.5 338 Q203 328 186 310.5 Q169 293 159 269 Q149 245 149 217 Q149 189 159 165 Q169 141 186 123.5 Q203 106 226.5 96 Q250 86 277 86 Q304 86 328 96 Q352 106 369.5 123.5 Q387 141 397 165 Q407 189 407 217 Q407 245 397 269 Q387 293 369.5 310.5 Q352 328 328 338 Q304 348 277 348 Z " />
<glyph glyph-name="seven" unicode="7" horiz-adv-x="513" d="M488 506 L171 -121 L56 -121 L344 439 L36 439 L36 535 L488 535 L488 506 Z " />
<glyph glyph-name="eight" unicode="8" horiz-adv-x="583" d="M291 671 Q334 671 372 660 Q410 649 438.5 627.5 Q467 606 483.5 574.5 Q500 543 500 502 Q500 448 470.5 409 Q441 370 387 343 Q416 332 442 316.5 Q468 301 487.5 280 Q507 259 518.5 232.5 Q530 206 530 172 Q530 130 512.5 96.5 Q495 63 463.5 39 Q432 15 388 2 Q344 -11 291 -11 Q238 -11 193.5 2 Q149 15 117.5 39 Q86 63 68.5 96.5 Q51 130 51 172 Q51 237 91.5 278.5 Q132 320 193 343 Q141 370 111 408 Q81 446 81 502 Q81 543 97.5 574.5 Q114 606 142.5 627.5 Q171 649 209 660 Q247 671 291 671 Z M425 176 Q425 200 414.5 218 Q404 236 386 250 Q368 264 343.5 275 Q319 286 291 297 Q262 286 238 275 Q214 264 196 250 Q178 236 168 218 Q158 200 158 176 Q158 132 192 104.5 Q226 77 292 77 Q358 77 391.5 104.5 Q425 132 425 176 Z M292 584 Q245 584 214 562 Q183 540 183 498 Q183 459 212 435.5 Q241 412 291 390 Q340 411 369.5 434.5 Q399 458 399 498 Q399 540 368 562 Q337 584 292 584 Z " />
<glyph glyph-name="nine" unicode="9" horiz-adv-x="556" d="M279 546 Q326 546 368.5 529 Q411 512 443 481.5 Q475 451 493.5 409 Q512 367 512 317 Q512 287 505.5 262 Q499 237 487.5 212.5 Q476 188 459 163 Q442 138 421 109 L259 -121 L134 -121 L291 101 Q277 98 262 98 Q219 98 180 114.5 Q141 131 111 160.5 Q81 190 63 230 Q45 270 45 318 Q45 367 63.5 409 Q82 451 114 481.5 Q146 512 188.5 529 Q231 546 279 546 Z M277 450 Q250 450 227 440 Q204 430 186.5 412.5 Q169 395 159 370.5 Q149 346 149 318 Q149 290 159 266 Q169 242 186.5 224.5 Q204 207 227 197 Q250 187 277 187 Q305 187 328.5 197 Q352 207 369.5 224.5 Q387 242 397 266 Q407 290 407 318 Q407 346 397 370 Q387 394 369.5 412 Q352 430 328.5 440 Q305 450 277 450 Z " />
<glyph glyph-name="uni2780" unicode="&#x2780;" horiz-adv-x="973" d="M487 761 Q577 761 655.5 727 Q734 693 792.5 634.5 Q851 576 884.5 497.5 Q918 419 918 330 Q918 241 884.5 162.5 Q851 84 792.5 25.5 Q734 -33 655.5 -67 Q577 -101 487 -101 Q397 -101 318.5 -67 Q240 -33 181.5 25.5 Q123 84 89.5 162.5 Q56 241 56 330 Q56 419 89.5 497.5 Q123 576 181.5 634.5 Q240 693 318.5 727 Q397 761 487 761 Z M486 676 Q414 676 351.5 649.5 Q289 623 242.5 576.5 Q196 530 169.5 467 Q143 404 143 330 Q143 256 169.5 193 Q196 130 242.5 83.5 Q289 37 351.5 10.5 Q414 -16 486 -16 Q558 -16 620.5 10.5 Q683 37 729.5 83.5 Q776 130 802.5 193 Q829 256 829 330 Q829 403 802.5 466.5 Q776 530 729.5 576.5 Q683 623 620.5 649.5 Q558 676 486 676 Z M536 182 L625 182 L625 105 L348 105 L348 182 L445 182 L445 477 L355 477 L355 554 L536 554 L536 182 Z " />
<glyph glyph-name="uni2781" unicode="&#x2781;" horiz-adv-x="973" d="M487 761 Q577 761 655.5 727 Q734 693 792.5 634.5 Q851 576 884.5 497.5 Q918 419 918 330 Q918 241 884.5 162.5 Q851 84 792.5 25.5 Q734 -33 655.5 -67 Q577 -101 487 -101 Q397 -101 318.5 -67 Q240 -33 181.5 25.5 Q123 84 89.5 162.5 Q56 241 56 330 Q56 419 89.5 497.5 Q123 576 181.5 634.5 Q240 693 318.5 727 Q397 761 487 761 Z M486 676 Q414 676 351.5 649.5 Q289 623 242.5 576.5 Q196 530 169.5 467 Q143 404 143 330 Q143 256 169.5 193 Q196 130 242.5 83.5 Q289 37 351.5 10.5 Q414 -16 486 -16 Q558 -16 620.5 10.5 Q683 37 729.5 83.5 Q776 130 802.5 193 Q829 256 829 330 Q829 403 802.5 466.5 Q776 530 729.5 576.5 Q683 623 620.5 649.5 Q558 676 486 676 Z M483 561 Q517 561 545.5 550.5 Q574 540 595 521 Q616 502 627.5 476 Q639 450 639 419 Q639 371 614 334 Q589 297 555 262 L480 182 L654 182 L654 105 L323 105 L323 124 L481 298 Q510 329 528 355 Q546 381 546 412 Q546 441 528.5 460 Q511 479 479 479 Q444 479 425 457.5 Q406 436 406 406 Q406 398 407 389.5 Q408 381 410 373 L327 373 Q322 396 322 413 Q322 442 333.5 468.5 Q345 495 366 515.5 Q387 536 416.5 548.5 Q446 561 483 561 Z " />
<glyph glyph-name="uni2782" unicode="&#x2782;" horiz-adv-x="973" d="M487 761 Q577 761 655.5 727 Q734 693 792.5 634.5 Q851 576 884.5 497.5 Q918 419 918 330 Q918 241 884.5 162.5 Q851 84 792.5 25.5 Q734 -33 655.5 -67 Q577 -101 487 -101 Q397 -101 318.5 -67 Q240 -33 181.5 25.5 Q123 84 89.5 162.5 Q56 241 56 330 Q56 419 89.5 497.5 Q123 576 181.5 634.5 Q240 693 318.5 727 Q397 761 487 761 Z M634 530 L530 387 Q552 382 572.5 371 Q593 360 608.5 343 Q624 326 633.5 303 Q643 280 643 251 Q643 217 629.5 189 Q616 161 592.5 140.5 Q569 120 538 109 Q507 98 473 98 Q415 98 374 126 Q333 154 310 198 L373 243 Q393 215 415.5 197.5 Q438 180 471 180 Q504 180 526.5 199.5 Q549 219 549 251 Q549 316 456 316 L400 316 L400 340 L497 472 L344 472 L344 554 L634 554 L634 530 Z M486 676 Q414 676 351.5 649.5 Q289 623 242.5 576.5 Q196 530 169.5 467 Q143 404 143 330 Q143 256 169.5 193 Q196 130 242.5 83.5 Q289 37 351.5 10.5 Q414 -16 486 -16 Q558 -16 620.5 10.5 Q683 37 729.5 83.5 Q776 130 802.5 193 Q829 256 829 330 Q829 403 802.5 466.5 Q776 530 729.5 576.5 Q683 623 620.5 649.5 Q558 676 486 676 Z " />
<glyph glyph-name="uni2783" unicode="&#x2783;" horiz-adv-x="973" d="M487 761 Q577 761 655.5 727 Q734 693 792.5 634.5 Q851 576 884.5 497.5 Q918 419 918 330 Q918 241 884.5 162.5 Q851 84 792.5 25.5 Q734 -33 655.5 -67 Q577 -101 487 -101 Q397 -101 318.5 -67 Q240 -33 181.5 25.5 Q123 84 89.5 162.5 Q56 241 56 330 Q56 419 89.5 497.5 Q123 576 181.5 634.5 Q240 693 318.5 727 Q397 761 487 761 Z M400 257 L516 257 L516 376 L606 376 L606 257 L663 257 L663 177 L606 177 L606 105 L516 105 L516 177 L290 177 L290 203 L423 554 L519 554 L400 257 Z M486 676 Q414 676 351.5 649.5 Q289 623 242.5 576.5 Q196 530 169.5 467 Q143 404 143 330 Q143 256 169.5 193 Q196 130 242.5 83.5 Q289 37 351.5 10.5 Q414 -16 486 -16 Q558 -16 620.5 10.5 Q683 37 729.5 83.5 Q776 130 802.5 193 Q829 256 829 330 Q829 403 802.5 466.5 Q776 530 729.5 576.5 Q683 623 620.5 649.5 Q558 676 486 676 Z " />
<glyph glyph-name="uni2784" unicode="&#x2784;" horiz-adv-x="973" d="M487 761 Q577 761 655.5 727 Q734 693 792.5 634.5 Q851 576 884.5 497.5 Q918 419 918 330 Q918 241 884.5 162.5 Q851 84 792.5 25.5 Q734 -33 655.5 -67 Q577 -101 487 -101 Q397 -101 318.5 -67 Q240 -33 181.5 25.5 Q123 84 89.5 162.5 Q56 241 56 330 Q56 419 89.5 497.5 Q123 576 181.5 634.5 Q240 693 318.5 727 Q397 761 487 761 Z M622 472 L449 472 L449 390 Q472 394 501 394 Q529 394 556.5 385 Q584 376 605.5 358.5 Q627 341 640.5 314.5 Q654 288 654 253 Q654 218 640.5 189.5 Q627 161 603.5 140.5 Q580 120 548.5 108.5 Q517 97 482 97 Q422 97 380 125.5 Q338 154 315 198 L379 243 Q398 215 420.5 197.5 Q443 180 478 180 Q513 180 536.5 199 Q560 218 560 251 Q560 283 536 299.5 Q512 316 467 316 L362 316 L362 554 L622 554 L622 472 Z M486 676 Q414 676 351.5 649.5 Q289 623 242.5 576.5 Q196 530 169.5 467 Q143 404 143 330 Q143 256 169.5 193 Q196 130 242.5 83.5 Q289 37 351.5 10.5 Q414 -16 486 -16 Q558 -16 620.5 10.5 Q683 37 729.5 83.5 Q776 130 802.5 193 Q829 256 829 330 Q829 403 802.5 466.5 Q776 530 729.5 576.5 Q683 623 620.5 649.5 Q558 676 486 676 Z " />
<glyph glyph-name="uni2785" unicode="&#x2785;" horiz-adv-x="973" d="M487 761 Q577 761 655.5 727 Q734 693 792.5 634.5 Q851 576 884.5 497.5 Q918 419 918 330 Q918 241 884.5 162.5 Q851 84 792.5 25.5 Q734 -33 655.5 -67 Q577 -101 487 -101 Q397 -101 318.5 -67 Q240 -33 181.5 25.5 Q123 84 89.5 162.5 Q56 241 56 330 Q56 419 89.5 497.5 Q123 576 181.5 634.5 Q240 693 318.5 727 Q397 761 487 761 Z M476 333 Q444 333 423 311.5 Q402 290 402 258 Q402 225 423 202.5 Q444 180 476 180 Q508 180 529.5 202.5 Q551 225 551 257 Q551 290 529.5 311.5 Q508 333 476 333 Z M481 400 Q505 406 532 398 Q555 393 575 380 Q595 367 609.5 348.5 Q624 330 632.5 306.5 Q641 283 641 256 Q641 221 627.5 192 Q614 163 591 142 Q568 121 538 109.5 Q508 98 475 98 Q442 98 412.5 110 Q383 122 360.5 143 Q338 164 324.5 193 Q311 222 311 257 Q311 277 315.5 294.5 Q320 312 328 328.5 Q336 345 347.5 362 Q359 379 373 399 L485 554 L592 554 L481 400 Z M486 676 Q414 676 351.5 649.5 Q289 623 242.5 576.5 Q196 530 169.5 467 Q143 404 143 330 Q143 256 169.5 193 Q196 130 242.5 83.5 Q289 37 351.5 10.5 Q414 -16 486 -16 Q558 -16 620.5 10.5 Q683 37 729.5 83.5 Q776 130 802.5 193 Q829 256 829 330 Q829 403 802.5 466.5 Q776 530 729.5 576.5 Q683 623 620.5 649.5 Q558 676 486 676 Z " />
<glyph glyph-name="uni2786" unicode="&#x2786;" horiz-adv-x="973" d="M487 761 Q577 761 655.5 727 Q734 693 792.5 634.5 Q851 576 884.5 497.5 Q918 419 918 330 Q918 241 884.5 162.5 Q851 84 792.5 25.5 Q734 -33 655.5 -67 Q577 -101 487 -101 Q397 -101 318.5 -67 Q240 -33 181.5 25.5 Q123 84 89.5 162.5 Q56 241 56 330 Q56 419 89.5 497.5 Q123 576 181.5 634.5 Q240 693 318.5 727 Q397 761 487 761 Z M486 676 Q414 676 351.5 649.5 Q289 623 242.5 576.5 Q196 530 169.5 467 Q143 404 143 330 Q143 256 169.5 193 Q196 130 242.5 83.5 Q289 37 351.5 10.5 Q414 -16 486 -16 Q558 -16 620.5 10.5 Q683 37 729.5 83.5 Q776 130 802.5 193 Q829 256 829 330 Q829 403 802.5 466.5 Q776 530 729.5 576.5 Q683 623 620.5 649.5 Q558 676 486 676 Z M654 530 L448 106 L349 106 L533 472 L339 472 L339 555 L654 555 L654 530 Z " />
<glyph glyph-name="uni2787" unicode="&#x2787;" horiz-adv-x="973" d="M487 761 Q577 761 655.5 727 Q734 693 792.5 634.5 Q851 576 884.5 497.5 Q918 419 918 330 Q918 241 884.5 162.5 Q851 84 792.5 25.5 Q734 -33 655.5 -67 Q577 -101 487 -101 Q397 -101 318.5 -67 Q240 -33 181.5 25.5 Q123 84 89.5 162.5 Q56 241 56 330 Q56 419 89.5 497.5 Q123 576 181.5 634.5 Q240 693 318.5 727 Q397 761 487 761 Z M487 306 Q455 294 432 278 Q409 262 409 231 Q409 205 428.5 187 Q448 169 488 169 Q526 169 545.5 186.5 Q565 204 565 230 Q565 262 542 278 Q519 294 487 306 Z M487 561 Q518 561 544.5 553.5 Q571 546 591 531 Q611 516 622.5 494 Q634 472 634 443 Q634 376 564 339 Q603 323 629 295.5 Q655 268 655 225 Q655 195 642.5 171.5 Q630 148 607.5 131.5 Q585 115 554 106.5 Q523 98 487 98 Q450 98 419 106.5 Q388 115 365.5 131.5 Q343 148 330.5 171.5 Q318 195 318 225 Q318 267 343.5 294.5 Q369 322 410 338 Q377 356 357.5 381.5 Q338 407 338 443 Q338 472 349.5 494 Q361 516 381 531 Q401 546 428 553.5 Q455 561 487 561 Z M486 676 Q414 676 351.5 649.5 Q289 623 242.5 576.5 Q196 530 169.5 467 Q143 404 143 330 Q143 256 169.5 193 Q196 130 242.5 83.5 Q289 37 351.5 10.5 Q414 -16 486 -16 Q558 -16 620.5 10.5 Q683 37 729.5 83.5 Q776 130 802.5 193 Q829 256 829 330 Q829 403 802.5 466.5 Q776 530 729.5 576.5 Q683 623 620.5 649.5 Q558 676 486 676 Z M487 490 Q460 490 442.5 476 Q425 462 425 437 Q425 413 441.5 399 Q458 385 486 374 Q514 385 531.5 399 Q549 413 549 437 Q549 462 531 476 Q513 490 487 490 Z " />
<glyph glyph-name="uni2788" unicode="&#x2788;" horiz-adv-x="973" d="M487 761 Q577 761 655.5 727 Q734 693 792.5 634.5 Q851 576 884.5 497.5 Q918 419 918 330 Q918 241 884.5 162.5 Q851 84 792.5 25.5 Q734 -33 655.5 -67 Q577 -101 487 -101 Q397 -101 318.5 -67 Q240 -33 181.5 25.5 Q123 84 89.5 162.5 Q56 241 56 330 Q56 419 89.5 497.5 Q123 576 181.5 634.5 Q240 693 318.5 727 Q397 761 487 761 Z M486 676 Q414 676 351.5 649.5 Q289 623 242.5 576.5 Q196 530 169.5 466.5 Q143 403 143 330 Q143 256 169.5 193 Q196 130 242.5 83.5 Q289 37 351.5 10.5 Q414 -16 486 -16 Q558 -16 620.5 10.5 Q683 37 729.5 83.5 Q776 130 802.5 193 Q829 256 829 330 Q829 404 802.5 467 Q776 530 729.5 576.5 Q683 623 620.5 649.5 Q558 676 486 676 Z M498 562 Q531 562 560.5 550 Q590 538 612.5 517 Q635 496 648.5 467 Q662 438 662 403 Q662 383 657.5 365.5 Q653 348 645 331.5 Q637 315 625.5 298 Q614 281 600 261 L488 106 L381 106 L492 260 Q480 258 467 258 Q454 258 441 262 Q418 267 398 280 Q378 293 363.5 311.5 Q349 330 340.5 353.5 Q332 377 332 404 Q332 438 345.5 467 Q359 496 382 517 Q405 538 435 550 Q465 562 498 562 Z M497 480 Q465 480 443.5 457.5 Q422 435 422 403 Q422 370 443.5 348.5 Q465 327 497 327 Q529 327 550 348.5 Q571 370 571 402 Q571 435 550 457.5 Q529 480 497 480 Z " />
<glyph glyph-name="uni24FF" unicode="&#x24ff;" horiz-adv-x="973" d="M487 761 Q577 761 655.5 727 Q734 693 792.5 634.5 Q851 576 884.5 497.5 Q918 419 918 330 Q918 241 884.5 162.5 Q851 84 792.5 25.5 Q734 -33 655.5 -67 Q577 -101 487 -101 Q397 -101 318.5 -67 Q240 -33 181.5 25.5 Q123 84 89.5 162.5 Q56 241 56 330 Q56 419 89.5 497.5 Q123 576 181.5 634.5 Q240 693 318.5 727 Q397 761 487 761 Z M487 561 Q442 561 408.5 543.5 Q375 526 353.5 495.5 Q332 465 321 423.5 Q310 382 310 333 Q310 285 320.5 242 Q331 199 352.5 167 Q374 135 407.5 116.5 Q441 98 487 98 Q532 98 565.5 116.5 Q599 135 621 167 Q643 199 653.5 242 Q664 285 664 333 Q664 382 653.5 423.5 Q643 465 621 495.5 Q599 526 565.5 543.5 Q532 561 487 561 Z M486 479 Q531 479 551 441 Q571 403 571 333 Q571 261 551 220.5 Q531 180 486 180 Q442 180 422.5 220.5 Q403 261 403 333 Q403 403 422.5 441 Q442 479 486 479 Z " />
<glyph glyph-name="uni2776" unicode="&#x2776;" horiz-adv-x="973" d="M487 761 Q577 761 655.5 727 Q734 693 792.5 634.5 Q851 576 884.5 497.5 Q918 419 918 330 Q918 241 884.5 162.5 Q851 84 792.5 25.5 Q734 -33 655.5 -67 Q577 -101 487 -101 Q397 -101 318.5 -67 Q240 -33 181.5 25.5 Q123 84 89.5 162.5 Q56 241 56 330 Q56 419 89.5 497.5 Q123 576 181.5 634.5 Q240 693 318.5 727 Q397 761 487 761 Z M355 554 L355 477 L445 477 L445 182 L348 182 L348 105 L625 105 L625 182 L536 182 L536 554 L355 554 Z " />
<glyph glyph-name="uni2777" unicode="&#x2777;" horiz-adv-x="973" d="M487 761 Q577 761 655.5 727 Q734 693 792.5 634.5 Q851 576 884.5 497.5 Q918 419 918 330 Q918 241 884.5 162.5 Q851 84 792.5 25.5 Q734 -33 655.5 -67 Q577 -101 487 -101 Q397 -101 318.5 -67 Q240 -33 181.5 25.5 Q123 84 89.5 162.5 Q56 241 56 330 Q56 419 89.5 497.5 Q123 576 181.5 634.5 Q240 693 318.5 727 Q397 761 487 761 Z M483 561 Q446 561 416.5 548.5 Q387 536 366 515.5 Q345 495 333.5 468.5 Q322 442 322 413 Q322 396 327 373 L410 373 Q408 381 407 389.5 Q406 398 406 406 Q406 436 425 457.5 Q444 479 479 479 Q511 479 528.5 460 Q546 441 546 412 Q546 381 528 355 Q510 329 481 298 L323 124 L323 105 L654 105 L654 182 L480 182 L555 262 Q589 297 614 334 Q639 371 639 419 Q639 450 627.5 476 Q616 502 595 521 Q574 540 545.5 550.5 Q517 561 483 561 Z " />
<glyph glyph-name="uni2778" unicode="&#x2778;" horiz-adv-x="973" d="M487 761 Q577 761 655.5 727 Q734 693 792.5 634.5 Q851 576 884.5 497.5 Q918 419 918 330 Q918 241 884.5 162.5 Q851 84 792.5 25.5 Q734 -33 655.5 -67 Q577 -101 487 -101 Q397 -101 318.5 -67 Q240 -33 181.5 25.5 Q123 84 89.5 162.5 Q56 241 56 330 Q56 419 89.5 497.5 Q123 576 181.5 634.5 Q240 693 318.5 727 Q397 761 487 761 Z M344 554 L344 472 L497 472 L400 340 L400 316 L456 316 Q549 316 549 251 Q549 219 526.5 199.5 Q504 180 471 180 Q438 180 415.5 197.5 Q393 215 373 243 L310 198 Q333 154 374 126 Q415 98 473 98 Q507 98 538 109 Q569 120 592.5 140.5 Q616 161 629.5 189 Q643 217 643 251 Q643 280 633.5 303 Q624 326 608.5 343 Q593 360 572.5 371 Q552 382 530 387 L634 530 L634 554 L344 554 Z " />
<glyph glyph-name="uni2779" unicode="&#x2779;" horiz-adv-x="973" d="M487 761 Q577 761 655.5 727 Q734 693 792.5 634.5 Q851 576 884.5 497.5 Q918 419 918 330 Q918 241 884.5 162.5 Q851 84 792.5 25.5 Q734 -33 655.5 -67 Q577 -101 487 -101 Q397 -101 318.5 -67 Q240 -33 181.5 25.5 Q123 84 89.5 162.5 Q56 241 56 330 Q56 419 89.5 497.5 Q123 576 181.5 634.5 Q240 693 318.5 727 Q397 761 487 761 Z M423 554 L290 203 L290 177 L516 177 L516 105 L606 105 L606 177 L663 177 L663 257 L606 257 L606 376 L516 376 L516 257 L400 257 L519 554 L423 554 Z " />
<glyph glyph-name="uni277A" unicode="&#x277a;" horiz-adv-x="973" d="M487 761 Q577 761 655.5 727 Q734 693 792.5 634.5 Q851 576 884.5 497.5 Q918 419 918 330 Q918 241 884.5 162.5 Q851 84 792.5 25.5 Q734 -33 655.5 -67 Q577 -101 487 -101 Q397 -101 318.5 -67 Q240 -33 181.5 25.5 Q123 84 89.5 162.5 Q56 241 56 330 Q56 419 89.5 497.5 Q123 576 181.5 634.5 Q240 693 318.5 727 Q397 761 487 761 Z M361 554 L361 316 L465 316 Q558 316 558 251 Q558 218 535 199 Q512 180 477 180 Q442 180 419.5 197.5 Q397 215 377 243 L314 198 Q336 154 378.5 125.5 Q421 97 481 97 Q516 97 547 108.5 Q578 120 601 140.5 Q624 161 637.5 189.5 Q651 218 651 253 Q651 288 638 314.5 Q625 341 603.5 358.5 Q582 376 555 385 Q528 394 500 394 Q471 394 448 390 L448 472 L621 472 L621 554 L361 554 Z " />
<glyph glyph-name="uni277B" unicode="&#x277b;" horiz-adv-x="973" d="M487 761 Q577 761 655.5 727 Q734 693 792.5 634.5 Q851 576 884.5 497.5 Q918 419 918 330 Q918 241 884.5 162.5 Q851 84 792.5 25.5 Q734 -33 655.5 -67 Q577 -101 487 -101 Q397 -101 318.5 -67 Q240 -33 181.5 25.5 Q123 84 89.5 162.5 Q56 241 56 330 Q56 419 89.5 497.5 Q123 576 181.5 634.5 Q240 693 318.5 727 Q397 761 487 761 Z M476 333 Q508 333 529.5 311.5 Q551 290 551 257 Q551 225 529.5 202.5 Q508 180 476 180 Q444 180 423 202.5 Q402 225 402 258 Q402 290 423 311.5 Q444 333 476 333 Z M485 554 L373 399 Q359 379 347.5 362 Q336 345 328 328.5 Q320 312 315.5 294.5 Q311 277 311 257 Q311 222 324.5 193 Q338 164 360.5 143 Q383 122 412.5 110 Q442 98 475 98 Q508 98 538 109.5 Q568 121 591 142 Q614 163 627.5 192 Q641 221 641 256 Q641 283 632.5 306.5 Q624 330 609.5 348.5 Q595 367 575 380 Q555 393 532 398 Q505 406 481 400 L592 554 L485 554 Z " />
<glyph glyph-name="uni277C" unicode="&#x277c;" horiz-adv-x="973" d="M487 761 Q577 761 655.5 727 Q734 693 792.5 634.5 Q851 576 884.5 497.5 Q918 419 918 330 Q918 241 884.5 162.5 Q851 84 792.5 25.5 Q734 -33 655.5 -67 Q577 -101 487 -101 Q397 -101 318.5 -67 Q240 -33 181.5 25.5 Q123 84 89.5 162.5 Q56 241 56 330 Q56 419 89.5 497.5 Q123 576 181.5 634.5 Q240 693 318.5 727 Q397 761 487 761 Z M339 555 L339 472 L533 472 L349 106 L448 106 L654 530 L654 555 L339 555 Z " />
<glyph glyph-name="uni277D" unicode="&#x277d;" horiz-adv-x="973" d="M487 761 Q577 761 655.5 727 Q734 693 792.5 634.5 Q851 576 884.5 497.5 Q918 419 918 330 Q918 241 884.5 162.5 Q851 84 792.5 25.5 Q734 -33 655.5 -67 Q577 -101 487 -101 Q397 -101 318.5 -67 Q240 -33 181.5 25.5 Q123 84 89.5 162.5 Q56 241 56 330 Q56 419 89.5 497.5 Q123 576 181.5 634.5 Q240 693 318.5 727 Q397 761 487 761 Z M487 306 Q519 294 542 278 Q565 262 565 230 Q565 204 545.5 186.5 Q526 169 488 169 Q448 169 428.5 187 Q409 205 409 231 Q409 262 432 278 Q455 294 487 306 Z M487 561 Q455 561 428 553.5 Q401 546 381 531 Q361 516 349.5 494 Q338 472 338 443 Q338 407 357.5 381.5 Q377 356 410 338 Q369 322 343.5 294.5 Q318 267 318 225 Q318 195 330.5 171.5 Q343 148 365.5 131.5 Q388 115 419 106.5 Q450 98 487 98 Q523 98 554 106.5 Q585 115 607.5 131.5 Q630 148 642.5 171.5 Q655 195 655 225 Q655 268 629 295.5 Q603 323 564 339 Q634 376 634 443 Q634 472 622.5 494 Q611 516 591 531 Q571 546 544.5 553.5 Q518 561 487 561 Z M487 490 Q513 490 531 476 Q549 462 549 437 Q549 413 531.5 399 Q514 385 486 374 Q458 385 441.5 399 Q425 413 425 437 Q425 462 442.5 476 Q460 490 487 490 Z " />
<glyph glyph-name="uni277E" unicode="&#x277e;" horiz-adv-x="973" d="M487 761 Q577 761 655.5 727 Q734 693 792.5 634.5 Q851 576 884.5 497.5 Q918 419 918 330 Q918 241 884.5 162.5 Q851 84 792.5 25.5 Q734 -33 655.5 -67 Q577 -101 487 -101 Q397 -101 318.5 -67 Q240 -33 181.5 25.5 Q123 84 89.5 162.5 Q56 241 56 330 Q56 419 89.5 497.5 Q123 576 181.5 634.5 Q240 693 318.5 727 Q397 761 487 761 Z M498 562 Q465 562 435 550 Q405 538 382 517 Q359 496 345.5 467 Q332 438 332 404 Q332 377 340.5 353.5 Q349 330 363.5 311.5 Q378 293 398 280 Q418 267 441 262 Q454 258 467 258 Q480 258 492 260 L381 106 L488 106 L600 261 Q614 281 625.5 298 Q637 315 645 331.5 Q653 348 657.5 365.5 Q662 383 662 403 Q662 438 648.5 467 Q635 496 612.5 517 Q590 538 560.5 550 Q531 562 498 562 Z M497 480 Q529 480 550 457.5 Q571 435 571 402 Q571 370 550 348.5 Q529 327 497 327 Q465 327 443.5 348.5 Q422 370 422 403 Q422 435 443.5 457.5 Q465 480 497 480 Z " />
<glyph glyph-name="uni24EA" unicode="&#x24ea;" horiz-adv-x="973" d="M487 761 Q577 761 655.5 727 Q734 693 792.5 634.5 Q851 576 884.5 497.5 Q918 419 918 330 Q918 241 884.5 162.5 Q851 84 792.5 25.5 Q734 -33 655.5 -67 Q577 -101 487 -101 Q397 -101 318.5 -67 Q240 -33 181.5 25.5 Q123 84 89.5 162.5 Q56 241 56 330 Q56 419 89.5 497.5 Q123 576 181.5 634.5 Q240 693 318.5 727 Q397 761 487 761 Z M486 561 Q531 561 564.5 543.5 Q598 526 619.5 495.5 Q641 465 652 423.5 Q663 382 663 333 Q663 285 652.5 242 Q642 199 620 167 Q598 135 564.5 116.5 Q531 98 486 98 Q441 98 408 116.5 Q375 135 353.5 167 Q332 199 321.5 242 Q311 285 311 333 Q311 382 321.5 423.5 Q332 465 354 495.5 Q376 526 408.5 543.5 Q441 561 486 561 Z M486 482 Q440 482 420 443 Q400 404 400 333 Q400 261 420 219 Q440 177 486 177 Q533 177 553.5 219 Q574 261 574 333 Q574 404 553 443 Q532 482 486 482 Z M486 680 Q414 680 350.5 653.5 Q287 627 240 580 Q193 533 166 469 Q139 405 139 330 Q139 255 166 191 Q193 127 240 80 Q287 33 350.5 6.5 Q414 -20 486 -20 Q559 -20 622.5 7 Q686 34 733 81 Q780 128 807 192 Q834 256 834 330 Q834 404 807 468 Q780 532 733 579 Q686 626 622.5 653 Q559 680 486 680 Z " />
<glyph glyph-name="fraction" unicode="&#x2044;" horiz-adv-x="244" d="M-23 0 L-111 0 L267 660 L356 660 L-23 0 Z " />
<glyph glyph-name="onehalf" unicode="&#xbd;" horiz-adv-x="946" d="M232 319 L320 319 L320 244 L45 244 L45 319 L149 319 L149 585 L52 585 L52 660 L232 660 L232 319 Z M338 0 L250 0 L628 660 L717 660 L338 0 Z M752 424 Q783 424 809 414 Q835 404 854 386.5 Q873 369 884 344.5 Q895 320 895 292 Q895 269 888 248 Q881 227 869 207.5 Q857 188 840.5 169 Q824 150 805 130 L754 76 L907 76 L907 1 L604 1 L604 19 L752 179 Q781 211 795.5 235 Q810 259 810 285 Q810 312 794 330 Q778 348 752 348 Q725 348 708.5 330 Q692 312 692 283 Q692 276 692.5 268.5 Q693 261 694 252 L612 252 Q610 261 609 270.5 Q608 280 608 288 Q608 313 618 337.5 Q628 362 646.5 381.5 Q665 401 691.5 412.5 Q718 424 752 424 Z " />
<glyph glyph-name="uni2153" unicode="&#x2153;" horiz-adv-x="962" d="M232 319 L320 319 L320 244 L45 244 L45 319 L149 319 L149 585 L52 585 L52 660 L232 660 L232 319 Z M338 0 L250 0 L628 660 L717 660 L338 0 Z M916 394 L824 264 Q842 259 860 249 Q878 239 892.5 223 Q907 207 915.5 185.5 Q924 164 924 137 Q924 105 911.5 78.5 Q899 52 878 33 Q857 14 829 4 Q801 -6 770 -6 Q716 -6 678 20.5 Q640 47 620 87 L677 128 Q694 101 715 85.5 Q736 70 767 70 Q799 70 819.5 87.5 Q840 105 840 137 Q840 198 754 198 L709 198 L709 219 L796 342 L651 342 L651 417 L916 417 L916 394 Z " />
<glyph glyph-name="uni2154" unicode="&#x2154;" horiz-adv-x="977" d="M182 667 Q213 667 239 657 Q265 647 284 629.5 Q303 612 314 587.5 Q325 563 325 535 Q325 512 318 491 Q311 470 299 450.5 Q287 431 270.5 412 Q254 393 235 373 L184 319 L337 319 L337 244 L34 244 L34 262 L182 422 Q211 454 225.5 478 Q240 502 240 528 Q240 555 224 573 Q208 591 182 591 Q155 591 138.5 573 Q122 555 122 526 Q122 519 122.5 511.5 Q123 504 124 495 L42 495 Q40 504 39 513.5 Q38 523 38 531 Q38 556 48 580.5 Q58 605 76.5 624.5 Q95 644 121.5 655.5 Q148 667 182 667 Z M353 0 L265 0 L643 660 L732 660 L353 0 Z M931 394 L839 264 Q857 259 875 249 Q893 239 907.5 223 Q922 207 930.5 185.5 Q939 164 939 137 Q939 105 926.5 78.5 Q914 52 893 33 Q872 14 844 4 Q816 -6 785 -6 Q731 -6 693 20.5 Q655 47 635 87 L692 128 Q709 101 730 85.5 Q751 70 782 70 Q814 70 834.5 87.5 Q855 105 855 137 Q855 198 769 198 L724 198 L724 219 L811 342 L666 342 L666 417 L931 417 L931 394 Z " />
<glyph glyph-name="onequarter" unicode="&#xbc;" horiz-adv-x="910" d="M232 319 L320 319 L320 244 L45 244 L45 319 L149 319 L149 585 L52 585 L52 660 L232 660 L232 319 Z M338 0 L250 0 L628 660 L717 660 L338 0 Z M844 138 L897 138 L897 70 L844 70 L844 1 L768 1 L768 70 L559 70 L559 92 L686 417 L771 417 L661 138 L768 138 L768 258 L844 258 L844 138 Z " />
<glyph glyph-name="threequarters" unicode="&#xbe;" horiz-adv-x="871" d="M311 637 L219 507 Q237 502 255 492 Q273 482 287.5 466 Q302 450 310.5 428.5 Q319 407 319 380 Q319 348 306.5 321.5 Q294 295 273 276 Q252 257 224 247 Q196 237 165 237 Q111 237 73 263.5 Q35 290 15 330 L72 371 Q89 344 110 328.5 Q131 313 162 313 Q194 313 214.5 330.5 Q235 348 235 380 Q235 441 149 441 L104 441 L104 462 L191 585 L46 585 L46 660 L311 660 L311 637 Z M299 0 L211 0 L589 660 L678 660 L299 0 Z M805 138 L858 138 L858 70 L805 70 L805 1 L729 1 L729 70 L520 70 L520 92 L647 417 L732 417 L622 138 L729 138 L729 258 L805 258 L805 138 Z " />
<glyph glyph-name="uni2155" unicode="&#x2155;" horiz-adv-x="965" d="M232 319 L320 319 L320 244 L45 244 L45 319 L149 319 L149 585 L52 585 L52 660 L232 660 L232 319 Z M338 0 L250 0 L628 660 L717 660 L338 0 Z M900 342 L741 342 L741 264 Q766 269 786 269 Q813 269 839 261 Q865 253 884.5 236.5 Q904 220 916 195.5 Q928 171 928 139 Q928 106 915.5 79 Q903 52 882 33.5 Q861 15 832.5 4.5 Q804 -6 771 -6 Q717 -6 678 20.5 Q639 47 619 87 L676 128 Q693 101 715 85.5 Q737 70 768 70 Q800 70 822 87.5 Q844 105 844 136 Q844 198 757 198 L662 198 L662 417 L900 417 L900 342 Z " />
<glyph glyph-name="uni2156" unicode="&#x2156;" horiz-adv-x="980" d="M182 667 Q213 667 239 657 Q265 647 284 629.5 Q303 612 314 587.5 Q325 563 325 535 Q325 512 318 491 Q311 470 299 450.5 Q287 431 270.5 412 Q254 393 235 373 L184 319 L337 319 L337 244 L34 244 L34 262 L182 422 Q211 454 225.5 478 Q240 502 240 528 Q240 555 224 573 Q208 591 182 591 Q155 591 138.5 573 Q122 555 122 526 Q122 519 122.5 511.5 Q123 504 124 495 L42 495 Q40 504 39 513.5 Q38 523 38 531 Q38 556 48 580.5 Q58 605 76.5 624.5 Q95 644 121.5 655.5 Q148 667 182 667 Z M353 0 L265 0 L643 660 L732 660 L353 0 Z M915 342 L756 342 L756 264 Q781 269 801 269 Q828 269 854 261 Q880 253 899.5 236.5 Q919 220 931 195.5 Q943 171 943 139 Q943 106 930.5 79 Q918 52 897 33.5 Q876 15 847.5 4.5 Q819 -6 786 -6 Q732 -6 693 20.5 Q654 47 634 87 L691 128 Q708 101 730 85.5 Q752 70 783 70 Q815 70 837 87.5 Q859 105 859 136 Q859 198 772 198 L677 198 L677 417 L915 417 L915 342 Z " />
<glyph glyph-name="uni2157" unicode="&#x2157;" horiz-adv-x="926" d="M311 637 L219 507 Q237 502 255 492 Q273 482 287.5 466 Q302 450 310.5 428.5 Q319 407 319 380 Q319 348 306.5 321.5 Q294 295 273 276 Q252 257 224 247 Q196 237 165 237 Q111 237 73 263.5 Q35 290 15 330 L72 371 Q89 344 110 328.5 Q131 313 162 313 Q194 313 214.5 330.5 Q235 348 235 380 Q235 441 149 441 L104 441 L104 462 L191 585 L46 585 L46 660 L311 660 L311 637 Z M299 0 L211 0 L589 660 L678 660 L299 0 Z M861 342 L702 342 L702 264 Q727 269 747 269 Q774 269 800 261 Q826 253 845.5 236.5 Q865 220 877 195.5 Q889 171 889 139 Q889 106 876.5 79 Q864 52 843 33.5 Q822 15 793.5 4.5 Q765 -6 732 -6 Q678 -6 639 20.5 Q600 47 580 87 L637 128 Q654 101 676 85.5 Q698 70 729 70 Q761 70 783 87.5 Q805 105 805 136 Q805 198 718 198 L623 198 L623 417 L861 417 L861 342 Z " />
<glyph glyph-name="uni2158" unicode="&#x2158;" horiz-adv-x="979" d="M299 381 L352 381 L352 313 L299 313 L299 244 L223 244 L223 313 L14 313 L14 335 L141 660 L226 660 L116 381 L223 381 L223 501 L299 501 L299 381 Z M352 0 L264 0 L642 660 L731 660 L352 0 Z M914 342 L755 342 L755 264 Q780 269 800 269 Q827 269 853 261 Q879 253 898.5 236.5 Q918 220 930 195.5 Q942 171 942 139 Q942 106 929.5 79 Q917 52 896 33.5 Q875 15 846.5 4.5 Q818 -6 785 -6 Q731 -6 692 20.5 Q653 47 633 87 L690 128 Q707 101 729 85.5 Q751 70 782 70 Q814 70 836 87.5 Q858 105 858 136 Q858 198 771 198 L676 198 L676 417 L914 417 L914 342 Z " />
<glyph glyph-name="uni2159" unicode="&#x2159;" horiz-adv-x="898" d="M232 319 L320 319 L320 244 L45 244 L45 319 L149 319 L149 585 L52 585 L52 660 L232 660 L232 319 Z M338 0 L250 0 L628 660 L717 660 L338 0 Z M722 283 L727 283 Q752 283 776.5 272.5 Q801 262 820.5 243 Q840 224 851.5 198 Q863 172 863 141 Q863 109 851 82 Q839 55 818 35.5 Q797 16 769.5 5 Q742 -6 711 -6 Q681 -6 654 5 Q627 16 606 35.5 Q585 55 573 82.5 Q561 110 561 143 Q561 180 576 209 Q591 238 617 273 L721 417 L818 417 L722 283 Z M711 213 Q682 213 662.5 192.5 Q643 172 643 141 Q643 110 662.5 90 Q682 70 711 70 Q740 70 760.5 90 Q781 110 781 141 Q781 172 760.5 192.5 Q740 213 711 213 Z " />
<glyph glyph-name="uni215A" unicode="&#x215a;" horiz-adv-x="870" d="M303 585 L144 585 L144 507 Q169 512 189 512 Q216 512 242 504 Q268 496 287.5 479.5 Q307 463 319 438.5 Q331 414 331 382 Q331 349 318.5 322 Q306 295 285 276.5 Q264 258 235.5 247.5 Q207 237 174 237 Q120 237 81 263.5 Q42 290 22 330 L79 371 Q96 344 118 328.5 Q140 313 171 313 Q203 313 225 330.5 Q247 348 247 379 Q247 441 160 441 L65 441 L65 660 L303 660 L303 585 Z M310 0 L222 0 L600 660 L689 660 L310 0 Z M694 283 L699 283 Q724 283 748.5 272.5 Q773 262 792.5 243 Q812 224 823.5 198 Q835 172 835 141 Q835 109 823 82 Q811 55 790 35.5 Q769 16 741.5 5 Q714 -6 683 -6 Q653 -6 626 5 Q599 16 578 35.5 Q557 55 545 82.5 Q533 110 533 143 Q533 180 548 209 Q563 238 589 273 L693 417 L790 417 L694 283 Z M683 213 Q654 213 634.5 192.5 Q615 172 615 141 Q615 110 634.5 90 Q654 70 683 70 Q712 70 732.5 90 Q753 110 753 141 Q753 172 732.5 192.5 Q712 213 683 213 Z " />
<glyph glyph-name="uni2150" unicode="&#x2150;" horiz-adv-x="941" d="M232 319 L320 319 L320 244 L45 244 L45 319 L149 319 L149 585 L52 585 L52 660 L232 660 L232 319 Z M338 0 L250 0 L628 660 L717 660 L338 0 Z M923 394 L734 1 L644 1 L812 342 L635 342 L635 417 L923 417 L923 394 Z " />
<glyph glyph-name="oneeighth" unicode="&#x215b;" horiz-adv-x="945" d="M232 319 L320 319 L320 244 L45 244 L45 319 L149 319 L149 585 L52 585 L52 660 L232 660 L232 319 Z M338 0 L250 0 L628 660 L717 660 L338 0 Z M752 424 Q810 424 849 396 Q888 368 888 314 Q888 281 871.5 257 Q855 233 825 216 Q861 201 884 175.5 Q907 150 907 111 Q907 84 895.5 62.5 Q884 41 863.5 25.5 Q843 10 814.5 2 Q786 -6 752 -6 Q685 -6 642 25.5 Q599 57 599 112 Q599 150 621 175.5 Q643 201 680 216 Q651 233 634.5 257 Q618 281 618 315 Q618 341 628.5 361.5 Q639 382 657 396 Q675 410 699.5 417 Q724 424 752 424 Z M825 115 Q825 141 804.5 156 Q784 171 752 182 Q720 171 700 156 Q680 141 680 115 Q680 92 698 76.5 Q716 61 752 61 Q788 61 806.5 76.5 Q825 92 825 115 Z M752 358 Q727 358 710 346 Q693 334 693 311 Q693 289 709 276 Q725 263 752 250 Q778 262 794.5 275.5 Q811 289 811 311 Q811 334 794 346 Q777 358 752 358 Z " />
<glyph glyph-name="threeeighths" unicode="&#x215c;" horiz-adv-x="906" d="M311 637 L219 507 Q237 502 255 492 Q273 482 287.5 466 Q302 450 310.5 428.5 Q319 407 319 380 Q319 348 306.5 321.5 Q294 295 273 276 Q252 257 224 247 Q196 237 165 237 Q111 237 73 263.5 Q35 290 15 330 L72 371 Q89 344 110 328.5 Q131 313 162 313 Q194 313 214.5 330.5 Q235 348 235 380 Q235 441 149 441 L104 441 L104 462 L191 585 L46 585 L46 660 L311 660 L311 637 Z M299 0 L211 0 L589 660 L678 660 L299 0 Z M713 424 Q771 424 810 396 Q849 368 849 314 Q849 281 832.5 257 Q816 233 786 216 Q822 201 845 175.5 Q868 150 868 111 Q868 84 856.5 62.5 Q845 41 824.5 25.5 Q804 10 775.5 2 Q747 -6 713 -6 Q646 -6 603 25.5 Q560 57 560 112 Q560 150 582 175.5 Q604 201 641 216 Q612 233 595.5 257 Q579 281 579 315 Q579 341 589.5 361.5 Q600 382 618 396 Q636 410 660.5 417 Q685 424 713 424 Z M786 115 Q786 141 765.5 156 Q745 171 713 182 Q681 171 661 156 Q641 141 641 115 Q641 92 659 76.5 Q677 61 713 61 Q749 61 767.5 76.5 Q786 92 786 115 Z M713 358 Q688 358 671 346 Q654 334 654 311 Q654 289 670 276 Q686 263 713 250 Q739 262 755.5 275.5 Q772 289 772 311 Q772 334 755 346 Q738 358 713 358 Z " />
<glyph glyph-name="fiveeighths" unicode="&#x215d;" horiz-adv-x="917" d="M303 585 L144 585 L144 507 Q169 512 189 512 Q216 512 242 504 Q268 496 287.5 479.5 Q307 463 319 438.5 Q331 414 331 382 Q331 349 318.5 322 Q306 295 285 276.5 Q264 258 235.5 247.5 Q207 237 174 237 Q120 237 81 263.5 Q42 290 22 330 L79 371 Q96 344 118 328.5 Q140 313 171 313 Q203 313 225 330.5 Q247 348 247 379 Q247 441 160 441 L65 441 L65 660 L303 660 L303 585 Z M310 0 L222 0 L600 660 L689 660 L310 0 Z M724 424 Q782 424 821 396 Q860 368 860 314 Q860 281 843.5 257 Q827 233 797 216 Q833 201 856 175.5 Q879 150 879 111 Q879 84 867.5 62.5 Q856 41 835.5 25.5 Q815 10 786.5 2 Q758 -6 724 -6 Q657 -6 614 25.5 Q571 57 571 112 Q571 150 593 175.5 Q615 201 652 216 Q623 233 606.5 257 Q590 281 590 315 Q590 341 600.5 361.5 Q611 382 629 396 Q647 410 671.5 417 Q696 424 724 424 Z M797 115 Q797 141 776.5 156 Q756 171 724 182 Q692 171 672 156 Q652 141 652 115 Q652 92 670 76.5 Q688 61 724 61 Q760 61 778.5 76.5 Q797 92 797 115 Z M724 358 Q699 358 682 346 Q665 334 665 311 Q665 289 681 276 Q697 263 724 250 Q750 262 766.5 275.5 Q783 289 783 311 Q783 334 766 346 Q749 358 724 358 Z " />
<glyph glyph-name="seveneighths" unicode="&#x215e;" horiz-adv-x="822" d="M318 637 L129 244 L39 244 L207 585 L30 585 L30 660 L318 660 L318 637 Z M215 0 L127 0 L505 660 L594 660 L215 0 Z M629 424 Q687 424 726 396 Q765 368 765 314 Q765 281 748.5 257 Q732 233 702 216 Q738 201 761 175.5 Q784 150 784 111 Q784 84 772.5 62.5 Q761 41 740.5 25.5 Q720 10 691.5 2 Q663 -6 629 -6 Q562 -6 519 25.5 Q476 57 476 112 Q476 150 498 175.5 Q520 201 557 216 Q528 233 511.5 257 Q495 281 495 315 Q495 341 505.5 361.5 Q516 382 534 396 Q552 410 576.5 417 Q601 424 629 424 Z M702 115 Q702 141 681.5 156 Q661 171 629 182 Q597 171 577 156 Q557 141 557 115 Q557 92 575 76.5 Q593 61 629 61 Q665 61 683.5 76.5 Q702 92 702 115 Z M629 358 Q604 358 587 346 Q570 334 570 311 Q570 289 586 276 Q602 263 629 250 Q655 262 671.5 275.5 Q688 289 688 311 Q688 334 671 346 Q654 358 629 358 Z " />
<glyph glyph-name="uni2151" unicode="&#x2151;" horiz-adv-x="948" d="M232 319 L320 319 L320 244 L45 244 L45 319 L149 319 L149 585 L52 585 L52 660 L232 660 L232 319 Z M338 0 L250 0 L628 660 L717 660 L338 0 Z M762 424 Q792 424 819.5 413 Q847 402 867.5 382.5 Q888 363 900 335.5 Q912 308 912 275 Q912 238 897 209 Q882 180 856 145 L753 1 L656 1 L750 135 L746 135 Q721 135 696.5 145.5 Q672 156 653 175 Q634 194 622 220 Q610 246 610 277 Q610 309 622.5 336 Q635 363 656 382.5 Q677 402 704.5 413 Q732 424 762 424 Z M762 348 Q733 348 713 328 Q693 308 693 277 Q693 246 713 225.5 Q733 205 762 205 Q791 205 811 225.5 Q831 246 831 277 Q831 308 811 328 Q791 348 762 348 Z " />
<glyph glyph-name="uni2152" unicode="&#x2152;" horiz-adv-x="1381" d="M232 319 L320 319 L320 244 L45 244 L45 319 L149 319 L149 585 L52 585 L52 660 L232 660 L232 319 Z M338 0 L250 0 L628 660 L717 660 L338 0 Z M1174 424 Q1216 424 1246.5 408 Q1277 392 1297 363.5 Q1317 335 1326.5 296.5 Q1336 258 1336 213 Q1336 168 1326.5 128 Q1317 88 1297 58 Q1277 28 1246.5 11 Q1216 -6 1174 -6 Q1133 -6 1102.5 11 Q1072 28 1052 58 Q1032 88 1022 128 Q1012 168 1012 213 Q1012 258 1022 296.5 Q1032 335 1052 363.5 Q1072 392 1102.5 408 Q1133 424 1174 424 Z M1173 348 Q1132 348 1114 313 Q1096 278 1096 212 Q1096 146 1114.5 107.5 Q1133 69 1173 69 Q1215 69 1233 107.5 Q1251 146 1251 212 Q1251 278 1233 313 Q1215 348 1173 348 Z M837 76 L925 76 L925 1 L650 1 L650 76 L754 76 L754 342 L657 342 L657 417 L837 417 L837 76 Z " />
<glyph glyph-name="uni2080" unicode="&#x2080;" horiz-adv-x="415" d="M208 304 Q250 304 280.5 288 Q311 272 331 243.5 Q351 215 360.5 176.5 Q370 138 370 93 Q370 48 360.5 8 Q351 -32 331 -62 Q311 -92 280.5 -109 Q250 -126 208 -126 Q167 -126 136.5 -109 Q106 -92 86 -62 Q66 -32 56 8 Q46 48 46 93 Q46 138 56 176.5 Q66 215 86 243.5 Q106 272 136.5 288 Q167 304 208 304 Z M207 228 Q166 228 148 193 Q130 158 130 92 Q130 26 148.5 -12.5 Q167 -51 207 -51 Q249 -51 267 -12.5 Q285 26 285 92 Q285 158 267 193 Q249 228 207 228 Z " />
<glyph glyph-name="uni2081" unicode="&#x2081;" horiz-adv-x="361" d="M232 -44 L320 -44 L320 -119 L45 -119 L45 -44 L149 -44 L149 222 L52 222 L52 297 L232 297 L232 -44 Z " />
<glyph glyph-name="uni2082" unicode="&#x2082;" horiz-adv-x="376" d="M182 304 Q213 304 239 294 Q265 284 284 266.5 Q303 249 314 224.5 Q325 200 325 172 Q325 149 318 128 Q311 107 299 87.5 Q287 68 270.5 49 Q254 30 235 10 L184 -44 L337 -44 L337 -119 L34 -119 L34 -101 L182 59 Q211 91 225.5 115 Q240 139 240 165 Q240 192 224 210 Q208 228 182 228 Q155 228 138.5 210 Q122 192 122 163 Q122 156 122.5 148.5 Q123 141 124 132 L42 132 Q40 141 39 150.5 Q38 160 38 168 Q38 193 48 217.5 Q58 242 76.5 261.5 Q95 281 121.5 292.5 Q148 304 182 304 Z " />
<glyph glyph-name="uni2083" unicode="&#x2083;" horiz-adv-x="357" d="M311 274 L219 144 Q237 139 255 129 Q273 119 287.5 103 Q302 87 310.5 65.5 Q319 44 319 17 Q319 -15 306.5 -41.5 Q294 -68 273 -87 Q252 -106 224 -116 Q196 -126 165 -126 Q111 -126 73 -99.5 Q35 -73 15 -33 L72 8 Q89 -19 110 -34.5 Q131 -50 162 -50 Q194 -50 214.5 -32.5 Q235 -15 235 17 Q235 78 149 78 L104 78 L104 99 L191 222 L46 222 L46 297 L311 297 L311 274 Z " />
<glyph glyph-name="uni2084" unicode="&#x2084;" horiz-adv-x="365" d="M299 18 L352 18 L352 -50 L299 -50 L299 -119 L223 -119 L223 -50 L14 -50 L14 -28 L141 297 L226 297 L116 18 L223 18 L223 138 L299 138 L299 18 Z " />
<glyph glyph-name="uni2085" unicode="&#x2085;" horiz-adv-x="368" d="M303 222 L144 222 L144 144 Q169 149 189 149 Q216 149 242 141 Q268 133 287.5 116.5 Q307 100 319 75.5 Q331 51 331 19 Q331 -14 318.5 -41 Q306 -68 285 -86.5 Q264 -105 235.5 -115.5 Q207 -126 174 -126 Q120 -126 81 -99.5 Q42 -73 22 -33 L79 8 Q96 -19 118 -34.5 Q140 -50 171 -50 Q203 -50 225 -32.5 Q247 -15 247 16 Q247 78 160 78 L65 78 L65 297 L303 297 L303 222 Z " />
<glyph glyph-name="uni2086" unicode="&#x2086;" horiz-adv-x="373" d="M197 163 L202 163 Q227 163 251.5 152.5 Q276 142 295.5 123 Q315 104 326.5 78 Q338 52 338 21 Q338 -11 326 -38 Q314 -65 293 -84.5 Q272 -104 244.5 -115 Q217 -126 186 -126 Q156 -126 129 -115 Q102 -104 81 -84.5 Q60 -65 48 -37.5 Q36 -10 36 23 Q36 60 51 89 Q66 118 92 153 L196 297 L293 297 L197 163 Z M186 93 Q157 93 137.5 72.5 Q118 52 118 21 Q118 -10 137.5 -30 Q157 -50 186 -50 Q215 -50 235.5 -30 Q256 -10 256 21 Q256 52 235.5 72.5 Q215 93 186 93 Z " />
<glyph glyph-name="uni2087" unicode="&#x2087;" horiz-adv-x="336" d="M318 274 L129 -119 L39 -119 L207 222 L30 222 L30 297 L318 297 L318 274 Z " />
<glyph glyph-name="uni2088" unicode="&#x2088;" horiz-adv-x="385" d="M192 304 Q250 304 289 276 Q328 248 328 194 Q328 161 311.5 137 Q295 113 265 96 Q301 81 324 55.5 Q347 30 347 -9 Q347 -36 335.5 -57.5 Q324 -79 303.5 -94.5 Q283 -110 254.5 -118 Q226 -126 192 -126 Q125 -126 82 -94.5 Q39 -63 39 -8 Q39 30 61 55.5 Q83 81 120 96 Q91 113 74.5 137 Q58 161 58 195 Q58 221 68.5 241.5 Q79 262 97 276 Q115 290 139.5 297 Q164 304 192 304 Z M265 -5 Q265 21 244.5 36 Q224 51 192 62 Q160 51 140 36 Q120 21 120 -5 Q120 -28 138 -43.5 Q156 -59 192 -59 Q228 -59 246.5 -43.5 Q265 -28 265 -5 Z M192 238 Q167 238 150 226 Q133 214 133 191 Q133 169 149 156 Q165 143 192 130 Q218 142 234.5 155.5 Q251 169 251 191 Q251 214 234 226 Q217 238 192 238 Z " />
<glyph glyph-name="uni2089" unicode="&#x2089;" horiz-adv-x="373" d="M187 304 Q217 304 244.5 293 Q272 282 292.5 262.5 Q313 243 325 215.5 Q337 188 337 155 Q337 118 322 89 Q307 60 281 25 L178 -119 L81 -119 L175 15 L171 15 Q146 15 121.5 25.5 Q97 36 78 55 Q59 74 47 100 Q35 126 35 157 Q35 189 47.5 216 Q60 243 81 262.5 Q102 282 129.5 293 Q157 304 187 304 Z M187 228 Q158 228 138 208 Q118 188 118 157 Q118 126 138 105.5 Q158 85 187 85 Q216 85 236 105.5 Q256 126 256 157 Q256 188 236 208 Q216 228 187 228 Z " />
<glyph glyph-name="uni2070" unicode="&#x2070;" horiz-adv-x="415" d="M208 787 Q250 787 280.5 771 Q311 755 331 726.5 Q351 698 360.5 659.5 Q370 621 370 576 Q370 531 360.5 491 Q351 451 331 421 Q311 391 280.5 374 Q250 357 208 357 Q167 357 136.5 374 Q106 391 86 421 Q66 451 56 491 Q46 531 46 576 Q46 621 56 659.5 Q66 698 86 726.5 Q106 755 136.5 771 Q167 787 208 787 Z M207 711 Q166 711 148 676 Q130 641 130 575 Q130 509 148.5 470.5 Q167 432 207 432 Q249 432 267 470.5 Q285 509 285 575 Q285 641 267 676 Q249 711 207 711 Z " />
<glyph glyph-name="uni00B9" unicode="&#xb9;" horiz-adv-x="361" d="M232 439 L320 439 L320 364 L45 364 L45 439 L149 439 L149 705 L52 705 L52 780 L232 780 L232 439 Z " />
<glyph glyph-name="uni00B2" unicode="&#xb2;" horiz-adv-x="376" d="M182 787 Q213 787 239 777 Q265 767 284 749.5 Q303 732 314 707.5 Q325 683 325 655 Q325 632 318 611 Q311 590 299 570.5 Q287 551 270.5 532 Q254 513 235 493 L184 439 L337 439 L337 364 L34 364 L34 382 L182 542 Q211 574 225.5 598 Q240 622 240 648 Q240 675 224 693 Q208 711 182 711 Q155 711 138.5 693 Q122 675 122 646 Q122 639 122.5 631.5 Q123 624 124 615 L42 615 Q40 624 39 633.5 Q38 643 38 651 Q38 676 48 700.5 Q58 725 76.5 744.5 Q95 764 121.5 775.5 Q148 787 182 787 Z " />
<glyph glyph-name="uni00B3" unicode="&#xb3;" horiz-adv-x="357" d="M311 757 L219 627 Q237 622 255 612 Q273 602 287.5 586 Q302 570 310.5 548.5 Q319 527 319 500 Q319 468 306.5 441.5 Q294 415 273 396 Q252 377 224 367 Q196 357 165 357 Q111 357 73 383.5 Q35 410 15 450 L72 491 Q89 464 110 448.5 Q131 433 162 433 Q194 433 214.5 450.5 Q235 468 235 500 Q235 561 149 561 L104 561 L104 582 L191 705 L46 705 L46 780 L311 780 L311 757 Z " />
<glyph glyph-name="uni2074" unicode="&#x2074;" horiz-adv-x="365" d="M299 501 L352 501 L352 433 L299 433 L299 364 L223 364 L223 433 L14 433 L14 455 L141 780 L226 780 L116 501 L223 501 L223 621 L299 621 L299 501 Z " />
<glyph glyph-name="uni2075" unicode="&#x2075;" horiz-adv-x="368" d="M303 705 L144 705 L144 627 Q169 632 189 632 Q216 632 242 624 Q268 616 287.5 599.5 Q307 583 319 558.5 Q331 534 331 502 Q331 469 318.5 442 Q306 415 285 396.5 Q264 378 235.5 367.5 Q207 357 174 357 Q120 357 81 383.5 Q42 410 22 450 L79 491 Q96 464 118 448.5 Q140 433 171 433 Q203 433 225 450.5 Q247 468 247 499 Q247 561 160 561 L65 561 L65 780 L303 780 L303 705 Z " />
<glyph glyph-name="uni2076" unicode="&#x2076;" horiz-adv-x="373" d="M197 646 L202 646 Q227 646 251.5 635.5 Q276 625 295.5 606 Q315 587 326.5 561 Q338 535 338 504 Q338 472 326 445 Q314 418 293 398.5 Q272 379 244.5 368 Q217 357 186 357 Q156 357 129 368 Q102 379 81 398.5 Q60 418 48 445.5 Q36 473 36 506 Q36 543 51 572 Q66 601 92 636 L196 780 L293 780 L197 646 Z M186 576 Q157 576 137.5 555.5 Q118 535 118 504 Q118 473 137.5 453 Q157 433 186 433 Q215 433 235.5 453 Q256 473 256 504 Q256 535 235.5 555.5 Q215 576 186 576 Z " />
<glyph glyph-name="uni2077" unicode="&#x2077;" horiz-adv-x="336" d="M318 757 L129 364 L39 364 L207 705 L30 705 L30 780 L318 780 L318 757 Z " />
<glyph glyph-name="uni2078" unicode="&#x2078;" horiz-adv-x="385" d="M192 787 Q250 787 289 759 Q328 731 328 677 Q328 644 311.5 620 Q295 596 265 579 Q301 564 324 538.5 Q347 513 347 474 Q347 447 335.5 425.5 Q324 404 303.5 388.5 Q283 373 254.5 365 Q226 357 192 357 Q125 357 82 388.5 Q39 420 39 475 Q39 513 61 538.5 Q83 564 120 579 Q91 596 74.5 620 Q58 644 58 678 Q58 704 68.5 724.5 Q79 745 97 759 Q115 773 139.5 780 Q164 787 192 787 Z M265 478 Q265 504 244.5 519 Q224 534 192 545 Q160 534 140 519 Q120 504 120 478 Q120 455 138 439.5 Q156 424 192 424 Q228 424 246.5 439.5 Q265 455 265 478 Z M192 721 Q167 721 150 709 Q133 697 133 674 Q133 652 149 639 Q165 626 192 613 Q218 625 234.5 638.5 Q251 652 251 674 Q251 697 234 709 Q217 721 192 721 Z " />
<glyph glyph-name="uni2079" unicode="&#x2079;" horiz-adv-x="373" d="M187 787 Q217 787 244.5 776 Q272 765 292.5 745.5 Q313 726 325 698.5 Q337 671 337 638 Q337 601 322 572 Q307 543 281 508 L178 364 L81 364 L175 498 L171 498 Q146 498 121.5 508.5 Q97 519 78 538 Q59 557 47 583 Q35 609 35 640 Q35 672 47.5 699 Q60 726 81 745.5 Q102 765 129.5 776 Q157 787 187 787 Z M187 711 Q158 711 138 691 Q118 671 118 640 Q118 609 138 588.5 Q158 568 187 568 Q216 568 236 588.5 Q256 609 256 640 Q256 671 236 691 Q216 711 187 711 Z " />
<glyph glyph-name="asterisk" unicode="&#x2a;" horiz-adv-x="438" d="M74 684 L177 637 L188 750 L250 750 L261 637 L364 684 L395 630 L302 564 L395 498 L364 445 L261 491 L250 379 L188 379 L177 492 L74 445 L43 498 L135 564 L43 630 L74 684 Z " />
<glyph glyph-name="backslash" unicode="&#x5c;" horiz-adv-x="650" d="M122 780 L645 -121 L528 -121 L5 780 L122 780 Z " />
<glyph glyph-name="periodcentered" unicode="&#xb7;" horiz-adv-x="270" d="M135 395 Q167 395 189.5 373 Q212 351 212 317 Q212 283 189.5 261.5 Q167 240 135 240 Q102 240 79.5 261.5 Q57 283 57 317 Q57 351 79.5 373 Q102 395 135 395 Z " />
<glyph glyph-name="bullet" unicode="&#x2022;" horiz-adv-x="402" d="M201 413 Q231 413 257.5 402.5 Q284 392 304 372.5 Q324 353 335.5 326.5 Q347 300 347 269 Q347 238 335.5 211.5 Q324 185 304 166 Q284 147 257.5 136.5 Q231 126 201 126 Q171 126 144.5 136.5 Q118 147 98 166 Q78 185 66 211.5 Q54 238 54 269 Q54 300 66 326.5 Q78 353 98 372.5 Q118 392 144.5 402.5 Q171 413 201 413 Z " />
<glyph glyph-name="colon" unicode="&#x3a;" horiz-adv-x="270" d="M135 498 Q167 498 189.5 476 Q212 454 212 420 Q212 386 189.5 364.5 Q167 343 135 343 Q102 343 79.5 364.5 Q57 386 57 420 Q57 454 79.5 476 Q102 498 135 498 Z M135 144 Q167 144 189.5 122 Q212 100 212 66 Q212 32 189.5 10.5 Q167 -11 135 -11 Q102 -11 79.5 10.5 Q57 32 57 66 Q57 100 79.5 122 Q102 144 135 144 Z " />
<glyph glyph-name="comma" unicode="&#x2c;" horiz-adv-x="270" d="M159 -178 L74 -178 L83 106 L205 106 L159 -178 Z " />
<glyph glyph-name="ellipsis" unicode="&#x2026;" horiz-adv-x="778" d="M389 144 Q421 144 443.5 122 Q466 100 466 66 Q466 32 443.5 10.5 Q421 -11 389 -11 Q356 -11 333.5 10.5 Q311 32 311 66 Q311 100 333.5 122 Q356 144 389 144 Z M135 144 Q167 144 189.5 122 Q212 100 212 66 Q212 32 189.5 10.5 Q167 -11 135 -11 Q102 -11 79.5 10.5 Q57 32 57 66 Q57 100 79.5 122 Q102 144 135 144 Z M643 144 Q675 144 697.5 122 Q720 100 720 66 Q720 32 697.5 10.5 Q675 -11 643 -11 Q610 -11 587.5 10.5 Q565 32 565 66 Q565 100 587.5 122 Q610 144 643 144 Z " />
<glyph glyph-name="exclam" unicode="&#x21;" horiz-adv-x="326" d="M206 225 L119 225 L99 660 L225 660 L206 225 Z M163 144 Q195 144 217.5 122 Q240 100 240 66 Q240 32 217.5 10.5 Q195 -11 163 -11 Q130 -11 107.5 10.5 Q85 32 85 66 Q85 100 107.5 122 Q130 144 163 144 Z " />
<glyph glyph-name="exclamdown" unicode="&#xa1;" horiz-adv-x="326" d="M226 -180 L99 -180 L119 265 L206 265 L226 -180 Z M163 502 Q195 502 217.5 480 Q240 458 240 424 Q240 391 217.5 369 Q195 347 163 347 Q130 347 107.5 369 Q85 391 85 424 Q85 458 107.5 480 Q130 502 163 502 Z " />
<glyph glyph-name="numbersign" unicode="&#x23;" horiz-adv-x="614" d="M241 480 L412 480 L436 660 L524 660 L500 480 L586 480 L586 391 L488 391 L471 269 L565 269 L565 180 L459 180 L435 0 L348 0 L372 180 L201 180 L177 0 L90 0 L114 180 L28 180 L28 269 L126 269 L142 391 L50 391 L50 480 L154 480 L178 660 L266 660 L241 480 Z M213 266 L383 266 L400 394 L230 394 L213 266 Z " />
<glyph glyph-name="period" unicode="&#x2e;" horiz-adv-x="270" d="M135 144 Q167 144 189.5 122 Q212 100 212 66 Q212 32 189.5 10.5 Q167 -11 135 -11 Q102 -11 79.5 10.5 Q57 32 57 66 Q57 100 79.5 122 Q102 144 135 144 Z " />
<glyph glyph-name="question" unicode="&#x3f;" horiz-adv-x="448" d="M222 671 Q261 671 295 658.5 Q329 646 354.5 623.5 Q380 601 394.5 570 Q409 539 409 501 Q409 476 402.5 455.5 Q396 435 384 416.5 Q372 398 355.5 381 Q339 364 319 346 Q287 318 268 297.5 Q249 277 249 252 Q249 244 250 237.5 Q251 231 252 225 L162 225 Q152 247 152 271 Q152 289 159 305 Q166 321 177 335.5 Q188 350 202 363 Q216 376 231 389 Q248 404 261 416.5 Q274 429 282.5 440.5 Q291 452 295.5 464.5 Q300 477 300 492 Q300 530 276 552 Q252 574 219 574 Q151 574 122 488 L34 526 Q54 598 103.5 634.5 Q153 671 222 671 Z M212 144 Q245 144 267.5 122 Q290 100 290 66 Q290 32 267.5 10.5 Q245 -11 212 -11 Q180 -11 157 10.5 Q134 32 134 66 Q134 100 157 122 Q180 144 212 144 Z " />
<glyph glyph-name="questiondown" unicode="&#xbf;" horiz-adv-x="447" d="M285 265 Q290 256 293 244 Q296 232 296 220 Q296 201 288.5 184 Q281 167 269.5 152 Q258 137 243.5 123.5 Q229 110 216 98 Q183 67 165 44 Q147 21 147 -11 Q147 -49 171.5 -71.5 Q196 -94 229 -94 Q296 -94 326 -8 L413 -46 Q393 -118 343 -154.5 Q293 -191 226 -191 Q187 -191 153 -178.5 Q119 -166 93.5 -143 Q68 -120 53.5 -88 Q39 -56 39 -17 Q39 10 46 32 Q53 54 65 73 Q77 92 93.5 108.5 Q110 125 128 141 Q163 172 180.5 193 Q198 214 198 239 Q198 254 195 265 L285 265 Z M234 502 Q267 502 289.5 480 Q312 458 312 424 Q312 391 289.5 368.5 Q267 346 234 346 Q202 346 179.5 368.5 Q157 391 157 424 Q157 458 179.5 480 Q202 502 234 502 Z " />
<glyph glyph-name="quotedbl" unicode="&#x22;" horiz-adv-x="500" d="M170 392 L89 392 L98 660 L219 660 L170 392 Z M380 392 L299 392 L308 660 L429 660 L380 392 Z " />
<glyph glyph-name="quotesingle" unicode="&#x27;" horiz-adv-x="291" d="M170 392 L89 392 L98 660 L219 660 L170 392 Z " />
<glyph glyph-name="semicolon" unicode="&#x3b;" horiz-adv-x="270" d="M135 498 Q167 498 189.5 476 Q212 454 212 420 Q212 386 189.5 364.5 Q167 343 135 343 Q102 343 79.5 364.5 Q57 386 57 420 Q57 454 79.5 476 Q102 498 135 498 Z M159 -178 L74 -178 L83 106 L205 106 L159 -178 Z " />
<glyph glyph-name="slash" unicode="&#x2f;" horiz-adv-x="650" d="M122 -121 L5 -121 L528 780 L645 780 L122 -121 Z " />
<glyph glyph-name="underscore" unicode="&#x5f;" horiz-adv-x="504" d="M465 -155 L39 -155 L39 -70 L465 -70 L465 -155 Z " />
<glyph glyph-name="uni208D" unicode="&#x208d;" horiz-adv-x="265" d="M245 368 Q222 353 201 331 Q180 309 163.5 275.5 Q147 242 137 196 Q127 150 127 88 Q127 26 137 -20 Q147 -66 163.5 -99.5 Q180 -133 201 -155 Q222 -177 245 -191 L212 -242 Q182 -224 153.5 -197 Q125 -170 103.5 -131 Q82 -92 68.5 -38 Q55 16 55 88 Q55 161 68.5 216.5 Q82 272 103.5 312 Q125 352 153.5 378 Q182 404 212 418 L245 368 Z " />
<glyph glyph-name="uni208E" unicode="&#x208e;" horiz-adv-x="265" d="M53 418 Q83 404 111.5 378 Q140 352 161.5 312 Q183 272 196.5 216.5 Q210 161 210 88 Q210 14 196.5 -41 Q183 -96 161.5 -136 Q140 -176 111.5 -202 Q83 -228 53 -242 L20 -191 Q42 -177 63.5 -155 Q85 -133 101.5 -99.5 Q118 -66 128 -20 Q138 26 138 88 Q138 150 128 196 Q118 242 101.5 275.5 Q85 309 63.5 331 Q42 353 20 368 L53 418 Z " />
<glyph glyph-name="braceleft" unicode="&#x7b;" horiz-adv-x="404" d="M288 -131 Q221 -131 181.5 -99.5 Q142 -68 142 6 Q142 30 145.5 57 Q149 84 153.5 110.5 Q158 137 162 160 Q166 183 166 199 Q166 228 151.5 241 Q137 254 108 254 L49 254 L49 345 L108 345 Q137 345 151.5 357.5 Q166 370 166 399 Q166 415 162 438.5 Q158 462 153.5 488 Q149 514 145.5 541.5 Q142 569 142 593 Q142 667 181.5 698 Q221 729 288 729 L360 729 L360 641 L306 641 Q273 641 254.5 623 Q236 605 236 567 Q236 549 239.5 525 Q243 501 247.5 476.5 Q252 452 256 428 Q260 404 260 385 Q260 349 244.5 329.5 Q229 310 197 299 Q229 288 244.5 268.5 Q260 249 260 214 Q260 195 256 171 Q252 147 247.5 122 Q243 97 239.5 73.5 Q236 50 236 32 Q236 -7 254.5 -25 Q273 -43 306 -43 L360 -43 L360 -131 L288 -131 Z " />
<glyph glyph-name="braceright" unicode="&#x7d;" horiz-adv-x="404" d="M44 -43 L97 -43 Q131 -43 149.5 -25 Q168 -7 168 32 Q168 50 164 73.5 Q160 97 155.5 122 Q151 147 147.5 171 Q144 195 144 214 Q144 249 159 268.5 Q174 288 206 299 Q174 310 159 329.5 Q144 349 144 385 Q144 404 147.5 428 Q151 452 155.5 476.5 Q160 501 164 525 Q168 549 168 567 Q168 605 149.5 623 Q131 641 97 641 L44 641 L44 729 L116 729 Q183 729 222.5 698 Q262 667 262 593 Q262 569 258 541.5 Q254 514 249.5 488 Q245 462 241.5 438.5 Q238 415 238 399 Q238 370 252.5 357.5 Q267 345 295 345 L355 345 L355 254 L295 254 Q267 254 252.5 241 Q238 228 238 199 Q238 183 241.5 160 Q245 137 249.5 110.5 Q254 84 258 57 Q262 30 262 6 Q262 -68 222.5 -99.5 Q183 -131 116 -131 L44 -131 L44 -43 Z " />
<glyph glyph-name="bracketleft" unicode="&#x5b;" horiz-adv-x="350" d="M306 641 L191 641 L191 -41 L306 -41 L306 -131 L96 -131 L96 729 L306 729 L306 641 Z " />
<glyph glyph-name="bracketright" unicode="&#x5d;" horiz-adv-x="350" d="M254 -131 L44 -131 L44 -41 L159 -41 L159 641 L44 641 L44 729 L254 729 L254 -131 Z " />
<glyph glyph-name="parenleft" unicode="&#x28;" horiz-adv-x="349" d="M321 670 Q292 651 265 622 Q238 593 217 549 Q196 505 183 444.5 Q170 384 170 302 Q170 220 183 159.5 Q196 99 217 55.5 Q238 12 265 -17 Q292 -46 321 -65 L278 -131 Q239 -113 202 -79 Q165 -45 136.5 7.5 Q108 60 90.5 132.5 Q73 205 73 302 Q73 399 90.5 472 Q108 545 136.5 597.5 Q165 650 202 684 Q239 718 278 736 L321 670 Z " />
<glyph glyph-name="parenright" unicode="&#x29;" horiz-adv-x="349" d="M71 736 Q110 718 147 684 Q184 650 212.5 597.5 Q241 545 258 472 Q275 399 275 302 Q275 205 258 132.5 Q241 60 212.5 7.5 Q184 -45 147 -79 Q110 -113 71 -131 L27 -65 Q56 -46 83.5 -17 Q111 12 132 55.5 Q153 99 166 159.5 Q179 220 179 302 Q179 384 166 444.5 Q153 505 132 549 Q111 593 83.5 622 Q56 651 27 670 L71 736 Z " />
<glyph glyph-name="uni207D" unicode="&#x207d;" horiz-adv-x="265" d="M245 852 Q222 837 201 815 Q180 793 163.5 759.5 Q147 726 137 680 Q127 634 127 572 Q127 510 137 464 Q147 418 163.5 384.5 Q180 351 201 329 Q222 307 245 293 L212 242 Q182 260 153.5 287 Q125 314 103.5 353 Q82 392 68.5 446 Q55 500 55 572 Q55 645 68.5 700.5 Q82 756 103.5 796 Q125 836 153.5 862 Q182 888 212 902 L245 852 Z " />
<glyph glyph-name="uni207E" unicode="&#x207e;" horiz-adv-x="265" d="M53 902 Q83 888 111.5 862 Q140 836 161.5 796 Q183 756 196.5 700.5 Q210 645 210 572 Q210 498 196.5 443 Q183 388 161.5 348 Q140 308 111.5 282 Q83 256 53 242 L20 293 Q42 307 63.5 329 Q85 351 101.5 384.5 Q118 418 128 464 Q138 510 138 572 Q138 634 128 680 Q118 726 101.5 759.5 Q85 793 63.5 815 Q42 837 20 852 L53 902 Z " />
<glyph glyph-name="emdash" unicode="&#x2014;" horiz-adv-x="1000" d="M950 273 L50 273 L50 362 L950 362 L950 273 Z " />
<glyph glyph-name="endash" unicode="&#x2013;" horiz-adv-x="504" d="M465 273 L39 273 L39 362 L465 362 L465 273 Z " />
<glyph glyph-name="hyphen" unicode="&#x2d;" horiz-adv-x="344" d="M295 273 L49 273 L49 362 L295 362 L295 273 Z " />
<glyph glyph-name="uni00AD" unicode="&#xad;" horiz-adv-x="344" d="M295 273 L49 273 L49 362 L295 362 L295 273 Z " />
<glyph glyph-name="uni2015" unicode="&#x2015;" horiz-adv-x="1000" d="M950 273 L50 273 L50 362 L950 362 L950 273 Z " />
<glyph glyph-name="guillemotleft" unicode="&#xab;" horiz-adv-x="550" d="M288 425 L150 272 L288 117 L220 58 L34 257 L34 286 L220 485 L288 425 Z M515 425 L377 272 L515 117 L447 58 L261 257 L261 286 L447 485 L515 425 Z " />
<glyph glyph-name="guillemotright" unicode="&#xbb;" horiz-adv-x="550" d="M289 286 L289 257 L103 58 L35 117 L173 272 L35 425 L103 485 L289 286 Z M516 286 L516 257 L330 58 L262 117 L400 272 L262 425 L330 485 L516 286 Z " />
<glyph glyph-name="guilsinglleft" unicode="&#x2039;" horiz-adv-x="323" d="M288 425 L150 272 L288 117 L220 58 L34 257 L34 286 L220 485 L288 425 Z " />
<glyph glyph-name="guilsinglright" unicode="&#x203a;" horiz-adv-x="323" d="M289 286 L289 257 L103 58 L35 117 L173 272 L35 425 L103 485 L289 286 Z " />
<glyph glyph-name="quotedblbase" unicode="&#x201e;" horiz-adv-x="500" d="M170 -161 L89 -161 L98 106 L219 106 L170 -161 Z M380 -161 L299 -161 L308 106 L429 106 L380 -161 Z " />
<glyph glyph-name="quotedblleft" unicode="&#x201c;" horiz-adv-x="500" d="M192 392 L71 392 L120 660 L201 660 L192 392 Z M402 392 L281 392 L330 660 L411 660 L402 392 Z " />
<glyph glyph-name="quotedblright" unicode="&#x201d;" horiz-adv-x="500" d="M380 392 L299 392 L308 660 L429 660 L380 392 Z M170 392 L89 392 L98 660 L219 660 L170 392 Z " />
<glyph glyph-name="quoteleft" unicode="&#x2018;" horiz-adv-x="291" d="M192 392 L71 392 L120 660 L201 660 L192 392 Z " />
<glyph glyph-name="quoteright" unicode="&#x2019;" horiz-adv-x="291" d="M170 392 L89 392 L98 660 L219 660 L170 392 Z " />
<glyph glyph-name="quotesinglbase" unicode="&#x201a;" horiz-adv-x="291" d="M170 -161 L89 -161 L98 106 L219 106 L170 -161 Z " />
<glyph glyph-name="space" unicode="&#x20;" horiz-adv-x="280" d="" />
<glyph glyph-name="uni2009" unicode="&#x2009;" horiz-adv-x="147" d="" />
<glyph glyph-name="A" unicode="A" horiz-adv-x="662" d="M640 0 L526 0 L479 110 L182 110 L135 0 L22 0 L313 671 L349 671 L640 0 Z M220 201 L440 201 L331 474 L220 201 Z " />
<glyph glyph-name="Euro" unicode="&#x20ac;" horiz-adv-x="679" d="M420 209 L221 209 Q245 152 292 119 Q339 86 405 86 Q457 86 495.5 107.5 Q534 129 560 164 L634 105 Q600 51 539.5 20 Q479 -11 401 -11 Q346 -11 298.5 5 Q251 21 213.5 50 Q176 79 148.5 119.5 Q121 160 106 209 L4 209 L4 292 L90 292 Q89 301 89 310.5 Q89 320 89 330 Q89 338 89 347 Q89 356 90 364 L5 364 L5 447 L105 447 Q120 497 147 538 Q174 579 212 608.5 Q250 638 297.5 654.5 Q345 671 401 671 Q479 671 539.5 640 Q600 609 634 555 L560 497 Q534 531 495.5 552.5 Q457 574 405 574 Q337 574 290 539.5 Q243 505 219 447 L484 447 L463 364 L200 364 Q199 356 198.5 347 Q198 338 198 330 Q198 320 198 310.5 Q198 301 200 292 L442 292 L420 209 Z " />
<glyph glyph-name="cent" unicode="&#xa2;" horiz-adv-x="555" d="M327 581 Q385 574 429.5 544.5 Q474 515 503 470 L430 412 Q410 439 384.5 457.5 Q359 476 327 483 L327 170 Q359 176 384 195 Q409 214 429 242 L502 184 Q474 138 429.5 108.5 Q385 79 327 72 L327 -95 L230 -95 L230 78 Q188 88 152 111 Q116 134 90 166.5 Q64 199 49.5 240 Q35 281 35 327 Q35 372 49.5 412.5 Q64 453 90 485.5 Q116 518 152 541 Q188 564 230 575 L230 749 L327 749 L327 581 Z M143 327 Q143 277 166.5 238.5 Q190 200 230 181 L230 472 Q190 453 166.5 414.5 Q143 376 143 327 Z " />
<glyph glyph-name="currency" unicode="&#xa4;" horiz-adv-x="649" d="M323 560 Q359 560 392 550 Q425 540 453 523 L563 633 L626 570 L519 463 Q539 435 550.5 401.5 Q562 368 562 330 Q562 292 550.5 258.5 Q539 225 519 197 L627 88 L564 25 L453 137 Q424 120 391 110 Q358 100 322 100 Q286 100 253.5 109.5 Q221 119 193 136 L85 25 L22 88 L127 197 Q107 225 96 258.5 Q85 292 85 330 Q85 367 96 400.5 Q107 434 127 462 L22 570 L85 633 L193 523 Q221 540 254 550 Q287 560 323 560 Z M323 463 Q294 463 270 453 Q246 443 229 425 Q212 407 202.5 382.5 Q193 358 193 329 Q193 301 202.5 277 Q212 253 229 235 Q246 217 270 207 Q294 197 323 197 Q351 197 375 207 Q399 217 416.5 235 Q434 253 444 277 Q454 301 454 329 Q454 358 444 382.5 Q434 407 416.5 425 Q399 443 375 453 Q351 463 323 463 Z " />
<glyph glyph-name="dollar" unicode="&#x24;" horiz-adv-x="537" d="M316 631 Q370 622 407 592.5 Q444 563 468 521 L396 467 Q360 520 316 534 L316 371 L334 364 Q404 337 443.5 296.5 Q483 256 483 193 Q483 158 470.5 129 Q458 100 435.5 78.5 Q413 57 382.5 43 Q352 29 316 24 L316 -95 L219 -95 L219 25 Q156 36 110.5 71.5 Q65 107 36 161 L109 215 Q130 180 157 156.5 Q184 133 219 122 L219 306 Q189 318 162.5 333.5 Q136 349 116.5 369.5 Q97 390 86 415.5 Q75 441 75 473 Q75 536 115.5 576.5 Q156 617 219 630 L219 749 L316 749 L316 631 Z M378 191 Q378 218 361 235 Q344 252 316 266 L316 119 Q343 127 360.5 145 Q378 163 378 191 Z M180 474 Q180 452 190.5 437.5 Q201 423 219 412 L219 531 Q202 523 191 509.5 Q180 496 180 474 Z " />
<glyph glyph-name="florin" unicode="&#x192;" horiz-adv-x="447" d="M391 311 L280 311 L247 38 Q236 -50 190 -91.5 Q144 -133 67 -133 Q47 -133 31 -130.5 Q15 -128 1 -125 L1 -36 Q13 -38 25 -38.5 Q37 -39 46 -39 Q90 -39 113.5 -20 Q137 -1 143 47 L175 311 L101 311 L101 402 L187 402 L199 500 Q210 588 256 629.5 Q302 671 380 671 Q419 671 445 662 L445 574 Q433 575 421 575.5 Q409 576 400 576 Q356 576 332.5 557.5 Q309 539 303 491 L292 402 L391 402 L391 311 Z " />
<glyph glyph-name="uni20B4" unicode="&#x20b4;" horiz-adv-x="541" d="M526 213 L173 213 Q167 198 167 178 Q167 136 195.5 111 Q224 86 274 86 Q303 86 328 94.5 Q353 103 374 117 Q395 131 412.5 150 Q430 169 444 189 L519 132 Q484 67 419.5 28 Q355 -11 272 -11 Q226 -11 187 2 Q148 15 119.5 39.5 Q91 64 74.5 98.5 Q58 133 58 176 Q58 195 61 213 L16 213 L16 298 L115 298 Q134 314 157.5 328 Q181 342 209 357 L16 357 L16 442 L348 442 Q355 451 359 462.5 Q363 474 363 490 Q363 512 355 527.5 Q347 543 333.5 553.5 Q320 564 302.5 569 Q285 574 266 574 Q223 574 191 551.5 Q159 529 136 497 L61 553 Q90 606 143 638.5 Q196 671 270 671 Q314 671 351 658.5 Q388 646 415 623.5 Q442 601 457 568 Q472 535 472 495 Q472 464 463 442 L526 442 L526 357 L387 357 Q371 346 354 336.5 Q337 327 318 317 L285 298 L526 298 L526 213 Z " />
<glyph glyph-name="lira" unicode="&#x20a4;" horiz-adv-x="548" d="M403 170 L282 170 Q272 124 240 88 L504 88 L504 0 L49 0 L49 24 Q97 56 130 91 Q163 126 176 170 L59 170 L59 250 L178 250 Q173 269 166 286 Q159 303 151 320 L59 320 L59 400 L111 400 Q103 420 98 441.5 Q93 463 93 488 Q93 530 108.5 563.5 Q124 597 151 621 Q178 645 215.5 658 Q253 671 297 671 Q376 671 433 628 Q490 585 513 499 L422 466 Q406 517 377 545.5 Q348 574 303 574 Q253 574 227 544 Q201 514 201 471 Q201 451 205.5 434 Q210 417 218 400 L403 400 L403 320 L260 320 Q268 303 274 286 Q280 269 284 250 L403 250 L403 170 Z " />
<glyph glyph-name="peseta" unicode="&#x20a7;" horiz-adv-x="607" d="M608 394 L527 394 Q519 354 498.5 321.5 Q478 289 447 265.5 Q416 242 375 229.5 Q334 217 286 217 L206 217 L206 0 L100 0 L100 394 L20 394 L20 482 L100 482 L100 660 L286 660 Q334 660 375 647 Q416 634 447.5 611 Q479 588 499 555 Q519 522 527 482 L608 482 L608 394 Z M206 569 L206 478 L420 478 Q409 523 374 546 Q339 569 285 569 L206 569 Z M285 308 Q339 308 374 330.5 Q409 353 420 398 L206 398 L206 308 L285 308 Z " />
<glyph glyph-name="sterling" unicode="&#xa3;" horiz-adv-x="548" d="M416 235 L286 235 Q286 230 286.5 225 Q287 220 287 215 Q287 180 275.5 148 Q264 116 242 91 L504 91 L504 0 L49 0 L49 24 Q78 44 102.5 65 Q127 86 144.5 109 Q162 132 172 158 Q182 184 182 214 Q182 219 181.5 224.5 Q181 230 180 235 L59 235 L59 326 L148 326 Q129 362 111 400 Q93 438 93 488 Q93 530 108.5 563.5 Q124 597 151 621 Q178 645 215.5 658 Q253 671 297 671 Q376 671 433 628 Q490 585 513 499 L422 466 Q406 517 377 545.5 Q348 574 303 574 Q253 574 227 544 Q201 514 201 471 Q201 451 206 432.5 Q211 414 219.5 396.5 Q228 379 238 361.5 Q248 344 257 326 L416 326 L416 235 Z " />
<glyph glyph-name="uni20AE" unicode="&#x20ae;" horiz-adv-x="583" d="M517 219 L344 160 L344 0 L238 0 L238 125 L67 67 L67 160 L238 218 L238 293 L67 235 L67 329 L238 386 L238 565 L16 565 L16 660 L566 660 L566 565 L344 565 L344 422 L517 480 L517 387 L344 328 L344 253 L517 312 L517 219 Z " />
<glyph glyph-name="uni20B8" unicode="&#x20b8;" horiz-adv-x="583" d="M566 396 L344 396 L344 0 L238 0 L238 396 L16 396 L16 492 L566 492 L566 396 Z M566 565 L16 565 L16 660 L566 660 L566 565 Z " />
<glyph glyph-name="uni20B9" unicode="&#x20b9;" horiz-adv-x="525" d="M451 423 L374 423 Q364 353 315.5 310.5 Q267 268 189 258 L451 0 L318 0 L58 255 L58 340 L143 340 Q194 340 224 361.5 Q254 383 264 423 L57 423 L57 506 L261 506 Q236 576 143 576 L58 576 L58 660 L451 660 L451 578 L338 578 Q363 549 372 506 L451 506 L451 423 Z " />
<glyph glyph-name="uni20BA" unicode="&#x20ba;" horiz-adv-x="528" d="M394 349 L216 267 L216 88 Q253 92 287.5 103 Q322 114 347.5 133 Q373 152 388.5 179 Q404 206 404 241 Q404 252 403 266 Q402 280 400 294 L489 294 Q493 279 495 264 Q497 249 497 232 Q497 168 469.5 122 Q442 76 391 46.5 Q340 17 268.5 3 Q197 -11 110 -11 L110 218 L19 177 L19 270 L110 311 L110 386 L19 345 L19 439 L110 480 L110 660 L216 660 L216 529 L394 610 L394 517 L216 435 L216 360 L394 442 L394 349 Z " />
<glyph glyph-name="uni20BD" unicode="&#x20bd;" horiz-adv-x="587" d="M337 660 Q383 660 421 647 Q459 634 486.5 609.5 Q514 585 529 550 Q544 515 544 472 Q544 429 529 394.5 Q514 360 486.5 335.5 Q459 311 421 297.5 Q383 284 337 284 L206 284 L206 207 L465 207 L465 119 L206 119 L206 0 L100 0 L100 119 L20 119 L20 207 L100 207 L100 284 L20 284 L20 375 L100 375 L100 660 L337 660 Z M206 569 L206 375 L333 375 Q382 375 410.5 400.5 Q439 426 439 471 Q439 516 411 542.5 Q383 569 333 569 L206 569 Z " />
<glyph glyph-name="yen" unicode="&#xa5;" horiz-adv-x="575" d="M529 114 L341 114 L341 0 L235 0 L235 114 L48 114 L48 202 L235 202 L235 279 L48 279 L48 368 L211 368 L7 660 L125 660 L288 423 L451 660 L569 660 L365 368 L529 368 L529 279 L341 279 L341 202 L529 202 L529 114 Z " />
<glyph glyph-name="approxequal" unicode="&#x2248;" horiz-adv-x="560" d="M154 527 Q174 527 195.5 520 Q217 513 238 501 L329 445 Q347 435 361 428 Q375 421 388 421 Q405 421 414 433.5 Q423 446 423 463 L423 480 L506 480 Q507 475 507.5 466.5 Q508 458 508 450 Q508 423 500 400.5 Q492 378 477.5 361.5 Q463 345 443 335.5 Q423 326 399 326 Q359 326 316 352 L225 407 Q207 418 193 425 Q179 432 166 432 Q149 432 139.5 420 Q130 408 130 390 L130 373 L48 373 Q47 378 46.5 386.5 Q46 395 46 403 Q46 456 76 491.5 Q106 527 154 527 Z M154 307 Q174 307 195.5 300 Q217 293 238 281 L329 225 Q347 215 361 208 Q375 201 388 201 Q405 201 414 213.5 Q423 226 423 243 L423 260 L506 260 Q507 255 507.5 246.5 Q508 238 508 230 Q508 203 500 180.5 Q492 158 477.5 141.5 Q463 125 443 115.5 Q423 106 399 106 Q359 106 316 132 L225 187 Q207 198 193 205 Q179 212 166 212 Q149 212 139.5 200 Q130 188 130 170 L130 153 L48 153 Q47 158 46.5 166.5 Q46 175 46 183 Q46 236 76 271.5 Q106 307 154 307 Z " />
<glyph glyph-name="asciitilde" unicode="&#x7e;" horiz-adv-x="560" d="M157 417 Q177 417 198.5 410 Q220 403 241 391 L332 335 Q350 325 364 318 Q378 311 391 311 Q408 311 417 323.5 Q426 336 426 353 L426 370 L509 370 Q510 365 510.5 356.5 Q511 348 511 340 Q511 313 503 290.5 Q495 268 480.5 251.5 Q466 235 446 225.5 Q426 216 402 216 Q362 216 319 242 L228 297 Q210 308 196 315 Q182 322 169 322 Q152 322 142.5 310 Q133 298 133 280 L133 263 L51 263 Q50 268 49.5 276.5 Q49 285 49 293 Q49 346 79 381.5 Q109 417 157 417 Z " />
<glyph glyph-name="uni2219" unicode="&#x2219;" horiz-adv-x="270" d="M135 395 Q167 395 189.5 373 Q212 351 212 317 Q212 283 189.5 261.5 Q167 240 135 240 Q102 240 79.5 261.5 Q57 283 57 317 Q57 351 79.5 373 Q102 395 135 395 Z " />
<glyph glyph-name="divide" unicode="&#xf7;" horiz-adv-x="560" d="M278 564 Q306 564 326 545.5 Q346 527 346 499 Q346 472 326 453 Q306 434 278 434 Q249 434 229.5 453 Q210 472 210 499 Q210 527 229.5 545.5 Q249 564 278 564 Z M278 199 Q306 199 326 180.5 Q346 162 346 134 Q346 106 326 87.5 Q306 69 278 69 Q249 69 229.5 87.5 Q210 106 210 134 Q210 162 229.5 180.5 Q249 199 278 199 Z M508 272 L50 272 L50 363 L508 363 L508 272 Z " />
<glyph glyph-name="equal" unicode="&#x3d;" horiz-adv-x="560" d="M500 378 L61 378 L61 469 L500 469 L500 378 Z M500 166 L61 166 L61 257 L500 257 L500 166 Z " />
<glyph glyph-name="uni207C" unicode="&#x207c;" horiz-adv-x="427" d="M46 689 L382 689 L382 617 L46 617 L46 689 Z M46 529 L382 529 L382 456 L46 456 L46 529 Z " />
<glyph glyph-name="greater" unicode="&#x3e;" horiz-adv-x="560" d="M516 333 L516 303 L65 107 L65 202 L341 318 L65 434 L65 529 L516 333 Z " />
<glyph glyph-name="greaterequal" unicode="&#x2265;" horiz-adv-x="560" d="M515 367 L515 338 L64 162 L64 256 L324 352 L64 449 L64 543 L515 367 Z M503 0 L64 0 L64 88 L503 88 L503 0 Z " />
<glyph glyph-name="uni2206" unicode="&#x2206;" horiz-adv-x="662" d="M640 0 L22 0 L313 671 L349 671 L640 0 Z M175 95 L485 95 L331 459 L175 95 Z " />
<glyph glyph-name="infinity" unicode="&#x221e;" horiz-adv-x="849" d="M216 500 Q251 500 280.5 491 Q310 482 335 466.5 Q360 451 382 430.5 Q404 410 424 388 Q443 410 465 430.5 Q487 451 512 466.5 Q537 482 566.5 491 Q596 500 631 500 Q675 500 711 485 Q747 470 772 444.5 Q797 419 810.5 386 Q824 353 824 316 Q824 279 810.5 245.5 Q797 212 772 187 Q747 162 711.5 147.5 Q676 133 632 133 Q597 133 567.5 142.5 Q538 152 512.5 167.5 Q487 183 465 204 Q443 225 423 248 Q403 225 381 204 Q359 183 334 167.5 Q309 152 279.5 142.5 Q250 133 215 133 Q171 133 136 147.5 Q101 162 76.5 187 Q52 212 38.5 245.5 Q25 279 25 316 Q25 353 38 386 Q51 419 76 444.5 Q101 470 136.5 485 Q172 500 216 500 Z M621 405 Q579 405 546.5 379.5 Q514 354 482 318 Q514 280 547 254 Q580 228 622 228 Q665 228 692 251.5 Q719 275 719 317 Q719 359 691 382 Q663 405 621 405 Z M227 228 Q269 228 301 254 Q333 280 365 317 Q334 354 301.5 379.5 Q269 405 227 405 Q185 405 157.5 382 Q130 359 130 317 Q130 275 157 251.5 Q184 228 227 228 Z " />
<glyph glyph-name="integral" unicode="&#x222b;" horiz-adv-x="343" d="M267 788 Q310 788 340 780 L340 692 Q324 693 311.5 693.5 Q299 694 291 694 Q247 694 219.5 669.5 Q192 645 192 583 Q192 557 197.5 516.5 Q203 476 210.5 427.5 Q218 379 226.5 326.5 Q235 274 242.5 224 Q250 174 255 130 Q260 86 260 56 Q260 8 247 -26.5 Q234 -61 210 -84 Q186 -107 152 -118 Q118 -129 77 -129 Q36 -129 4 -121 L4 -33 Q20 -34 33 -34.5 Q46 -35 54 -35 Q98 -35 125 -10.5 Q152 14 152 75 Q152 101 147 142.5 Q142 184 134.5 232.5 Q127 281 118 334 Q109 387 101.5 436.5 Q94 486 89 529.5 Q84 573 84 603 Q84 698 134 743 Q184 788 267 788 Z " />
<glyph glyph-name="less" unicode="&#x3c;" horiz-adv-x="560" d="M495 434 L219 318 L495 202 L495 107 L44 303 L44 333 L495 529 L495 434 Z " />
<glyph glyph-name="lessequal" unicode="&#x2264;" horiz-adv-x="560" d="M495 449 L233 352 L495 256 L495 162 L44 338 L44 367 L495 543 L495 449 Z M495 0 L56 0 L56 88 L495 88 L495 0 Z " />
<glyph glyph-name="logicalnot" unicode="&#xac;" horiz-adv-x="560" d="M478 99 L377 99 L377 272 L49 272 L49 363 L478 363 L478 99 Z " />
<glyph glyph-name="minus" unicode="&#x2212;" horiz-adv-x="560" d="M508 272 L50 272 L50 363 L508 363 L508 272 Z " />
<glyph glyph-name="multiply" unicode="&#xd7;" horiz-adv-x="560" d="M495 471 L343 319 L495 167 L433 104 L280 255 L128 104 L65 167 L217 319 L65 471 L128 534 L280 383 L432 534 L495 471 Z " />
<glyph glyph-name="notequal" unicode="&#x2260;" horiz-adv-x="560" d="M500 166 L235 166 L171 61 L76 61 L140 166 L61 166 L61 257 L196 257 L271 378 L61 378 L61 469 L327 469 L390 571 L485 571 L422 469 L500 469 L500 378 L366 378 L291 257 L500 257 L500 166 Z " />
<glyph glyph-name="partialdiff" unicode="&#x2202;" horiz-adv-x="596" d="M304 672 Q359 672 404.5 652 Q450 632 482 593 Q514 554 531.5 497 Q549 440 549 365 Q549 284 528 214.5 Q507 145 469 95 Q431 45 377.5 16.5 Q324 -12 260 -12 Q218 -12 179 1 Q140 14 110.5 39.5 Q81 65 63.5 102.5 Q46 140 46 189 Q46 236 62.5 275.5 Q79 315 111 343.5 Q143 372 189 388 Q235 404 294 404 Q332 404 370 398 Q408 392 441 383 Q438 485 401 531 Q364 577 300 577 Q256 577 224.5 557.5 Q193 538 165 503 L97 560 Q127 610 179.5 641 Q232 672 304 672 Z M267 81 Q332 81 378 136 Q424 191 437 294 Q399 303 362 308 Q325 313 299 313 Q259 313 231.5 303 Q204 293 186.5 276.5 Q169 260 161.5 238 Q154 216 154 193 Q154 143 185 112 Q216 81 267 81 Z " />
</font>
</svg>
