<?xml version="1.0" encoding="UTF-8"?>
<svg width="400px" height="400px" viewBox="0 0 400 400" version="1.1" xmlns="http://www.w3.org/2000/svg" xmlns:xlink="http://www.w3.org/1999/xlink">
    <!-- Generator: Sketch 45.2 (43514) - http://www.bohemiancoding.com/sketch -->
    <title>repeating-geo-pattern</title>
    <desc>Created with Sketch.</desc>
    <defs></defs>
    <g id="Page-1" stroke="none" stroke-width="1" fill="none" fill-rule="evenodd" opacity="0.5">
        <g id="Desktop-HD" transform="translate(-395.000000, -1516.000000)" fill="#f9db80">
            <g id="repeating-geo-pattern" transform="translate(395.000000, 1516.000000)">
                <path d="M264.86096,19.0324 C264.86096,14.7316 261.36256,11.2324 257.06096,11.2324 C252.76096,11.2324 249.26096,14.7316 249.26096,19.0324 C249.26096,23.3332 252.76096,26.8324 257.06096,26.8324 C261.36256,26.8324 264.86096,23.3332 264.86096,19.0324 M257.06096,31.2324 C250.33456,31.2324 244.86096,25.7596 244.86096,19.0324 C244.86096,12.3052 250.33456,6.8324 257.06096,6.8324 C263.78896,6.8324 269.26096,12.3052 269.26096,19.0324 C269.26096,25.7596 263.78896,31.2324 257.06096,31.2324 Z M225.26088,94.41952 C224.54648,94.08992 224.06248,93.40512 223.99048,92.62272 C223.91848,91.83952 224.27048,91.07872 224.91208,90.62512 L243.77368,77.29872 C244.41528,76.84512 245.25048,76.76832 245.96488,77.09792 C246.67848,77.42672 247.16168,78.11152 247.23368,78.89392 L249.34408,101.89152 C249.41528,102.67392 249.06408,103.43552 248.42248,103.88912 C247.78008,104.34272 246.94488,104.41952 246.23128,104.08992 L225.26088,94.41952 Z M230.56328,92.01952 L244.61368,98.49952 L243.20088,83.09072 L230.56328,92.01952 Z M323.758,53.88752 L315.2452,68.37072 C314.63,69.41792 313.2812,69.76832 312.2332,69.15232 L297.75,60.63952 C296.7028,60.02352 296.3532,58.67472 296.9684,57.62752 L305.4812,43.14432 C306.0972,42.09712 307.4452,41.74672 308.4932,42.36272 L322.9764,50.87552 C324.0236,51.49072 324.3732,52.83952 323.758,53.88752 Z M318.85,53.55392 L308.1604,47.27072 L301.8764,57.96112 L312.5668,64.24432 L318.85,53.55392 Z M299.08048,113.8152 C295.61088,116.1664 294.70128,120.9008 297.05248,124.3704 C297.79648,125.4672 297.50848,126.96 296.41168,127.7032 C295.31488,128.4472 293.82208,128.16 293.07888,127.0632 C289.24288,121.4024 290.72768,113.6776 296.38768,109.8416 C302.04768,106.0064 309.77328,107.4904 313.60848,113.1504 C314.35248,114.248 314.06528,115.7408 312.96848,116.484 C311.87008,117.228 310.37888,116.94 309.63488,115.8432 C307.28448,112.3744 302.54928,111.4648 299.08048,113.8152 Z M362.43592,106.42464 C361.28872,106.02224 360.68552,104.76624 361.08792,103.61984 L363.67192,96.25984 L356.31272,93.67664 C355.16632,93.27424 354.56232,92.01824 354.96552,90.87184 C355.36792,89.72544 356.62312,89.12224 357.76952,89.52464 L365.12952,92.10864 L367.71352,84.74944 C368.11592,83.60304 369.37112,82.99984 370.51752,83.40224 C371.66392,83.80464 372.26712,85.05984 371.86472,86.20624 L369.28152,93.56624 L376.64072,96.14944 C377.78712,96.55264 378.39032,97.80784 377.98712,98.95424 C377.58472,100.10064 376.32952,100.70384 375.18392,100.30144 L367.82312,97.71824 L365.23992,105.07744 C364.83752,106.22384 363.58232,106.82704 362.43592,106.42464 Z M382.90232,29.118 C382.90232,34.7428 378.32632,39.3196 372.70232,39.3196 C367.07752,39.3196 362.50232,34.7428 362.50232,29.118 C362.50232,25.7004 365.28392,22.9212 368.70152,22.9212 C372.12072,22.9212 374.90232,25.7004 374.90232,29.118 C374.90232,30.3332 373.91752,31.318 372.70232,31.318 C371.48712,31.318 370.50232,30.3332 370.50232,29.118 C370.50232,28.1276 369.69432,27.3212 368.70152,27.3212 C367.70952,27.3212 366.90232,28.1276 366.90232,29.118 C366.90232,32.3172 369.50392,34.9196 372.70232,34.9196 C375.90072,34.9196 378.50232,32.3172 378.50232,29.118 C378.50232,23.7148 374.10552,19.3196 368.70152,19.3196 C363.29832,19.3196 358.90232,23.7148 358.90232,29.118 C358.90232,30.3332 357.91752,31.318 356.70232,31.318 C355.48712,31.318 354.50232,30.3332 354.50232,29.118 C354.50232,21.2892 360.87272,14.9196 368.70152,14.9196 C376.53192,14.9196 382.90232,21.2892 382.90232,29.118 Z M261.28984,157.59376 C261.45784,158.79616 260.62024,159.90976 259.41784,160.07856 L227.72824,164.52896 C226.52424,164.69856 225.41304,163.86016 225.24344,162.65696 C225.07464,161.45296 225.91384,160.34176 227.11544,160.17296 L258.80584,155.72096 C260.00744,155.55136 261.12104,156.39136 261.28984,157.59376 Z M333.46408,159.64528 L351.98408,162.44128 L358.77928,144.98608 C359.15128,144.02848 360.14008,143.45568 361.15688,143.60848 L381.41848,146.66688 C382.62088,146.84768 383.44808,147.96928 383.26568,149.17088 C383.16168,149.85888 382.75048,150.42288 382.19208,150.74608 C381.77448,150.98848 381.27688,151.09488 380.76248,151.01808 L362.24088,148.22208 L355.44648,165.67728 C355.07288,166.63568 354.08408,167.20848 353.06728,167.05568 L334.54728,164.25888 L327.75528,181.71248 C327.38248,182.67088 326.39448,183.24288 325.37768,183.09008 L305.11688,180.03088 C303.91608,179.84848 303.08968,178.72768 303.27048,177.52768 C303.45208,176.32608 304.57368,175.49808 305.77448,175.68048 L324.29368,178.47728 L331.08488,161.02288 C331.45928,160.06288 332.44728,159.49168 333.46408,159.64528 Z M159.43752,1.6348 C159.41352,1.0812 159.38952,0.5364 159.35832,-0.000399999976 L163.76312,-0.000399999976 C163.78952,0.486 163.81272,0.9684 163.83272,1.4436 C164.02952,5.922 164.19832,9.7908 168.37992,13.782 C172.56232,17.774 176.43592,17.7636 180.91912,17.75 C185.66552,17.7364 191.04632,17.7212 196.50952,22.9356 C201.97192,28.1492 202.20872,33.5252 202.41432,38.2668 C202.61112,42.7468 202.78072,46.6156 206.96232,50.6076 C207.84072,51.446 207.87432,52.8388 207.03592,53.7172 C206.19672,54.5972 204.80472,54.6292 203.92392,53.79 C198.46232,48.5764 198.22632,43.2012 198.01912,38.4588 C197.82232,33.9796 197.65352,30.1108 193.47112,26.118 C189.28872,22.126 185.41592,22.138 180.93192,22.1492 C176.18552,22.1644 170.80472,22.1796 165.34232,16.9652 C159.87992,11.7516 159.64472,6.3772 159.43752,1.6348 Z M301.07736,242.57816 C301.07736,235.85176 306.55096,230.37816 313.27736,230.37816 C320.00536,230.37816 325.47736,235.85176 325.47736,242.57816 C325.47736,249.30536 320.00536,254.77816 313.27736,254.77816 C306.55096,254.77816 301.07736,249.30536 301.07736,242.57816 Z M305.47736,242.57816 C305.47736,246.87976 308.97736,250.37816 313.27736,250.37816 C317.57896,250.37816 321.07736,246.87976 321.07736,242.57816 C321.07736,238.27816 317.57896,234.77816 313.27736,234.77816 C308.97736,234.77816 305.47736,238.27816 305.47736,242.57816 Z M351.05096,278.58792 L369.08136,293.01912 C369.69496,293.51032 369.99896,294.29032 369.88216,295.06872 C369.76296,295.84552 369.23896,296.49992 368.50616,296.78632 L346.99496,305.18472 C346.26296,305.47192 345.43336,305.34552 344.81976,304.85352 C344.20616,304.36312 343.90056,303.58152 344.02056,302.80472 L347.50136,279.97432 C347.62056,279.19752 348.14456,278.54312 348.87736,278.25592 C349.60856,277.97112 350.43656,278.09672 351.05096,278.58792 Z M351.27736,284.40472 L348.94456,299.70072 L363.35736,294.07352 L351.27736,284.40472 Z M31.92168,142.20064 L48.54808,139.79584 C49.75048,139.62224 50.86648,140.45584 51.04088,141.65744 L53.44728,158.28224 C53.62168,159.48384 52.78808,160.60064 51.58488,160.77424 L34.95928,163.18224 C33.75688,163.35584 32.64088,162.52144 32.46648,161.31824 L30.05928,144.69264 C29.88568,143.49184 30.71848,142.37504 31.92168,142.20064 Z M34.72968,146.23984 L36.50648,158.51184 L48.77848,156.73504 L47.00168,144.46304 L34.72968,146.23984 Z M293.66952,293.82112 C294.90792,294.29152 295.52952,295.67872 295.05832,296.91712 C292.62632,303.30752 285.44952,306.52752 279.05832,304.09552 C272.66872,301.66352 269.44872,294.48592 271.88152,288.09552 C272.35272,286.85712 273.73832,286.23552 274.97752,286.70592 C276.21752,287.17792 276.83752,288.56512 276.36632,289.80352 C274.87592,293.72032 276.85032,298.11872 280.76632,299.60912 C284.68392,301.10032 289.08232,299.12672 290.57192,295.20992 C291.04312,293.97072 292.43112,293.34912 293.66952,293.82112 Z M256.17344,218.2984 C256.43904,219.484 255.69344,220.6608 254.50864,220.9264 L246.89744,222.6344 L248.60464,230.2448 C248.87104,231.4296 248.12544,232.6064 246.94064,232.8736 C245.75504,233.1392 244.57824,232.3936 244.31184,231.208 L242.60384,223.5968 L234.99344,225.3048 C233.80864,225.5704 232.63104,224.8248 232.36544,223.6392 C232.09904,222.4536 232.84544,221.2776 234.03024,221.0112 L241.64144,219.304 L239.93424,211.6928 C239.66784,210.508 240.41344,209.3312 241.59824,209.0648 C242.78464,208.7992 243.96064,209.5448 244.22704,210.7296 L245.93424,218.34 L253.54544,216.6336 C254.73024,216.3672 255.90784,217.1128 256.17344,218.2984 Z M177.94528,131.29496 C178.91248,131.08376 179.52848,130.12216 179.31728,129.15176 C179.10448,128.18296 178.14528,127.56616 177.17728,127.77736 C174.05168,128.45976 172.06368,131.55656 172.74688,134.68136 C173.42848,137.80696 176.52528,139.79256 179.65168,139.11096 C184.92928,137.95816 188.28608,132.72536 187.13408,127.44536 C185.98128,122.16696 180.75008,118.80936 175.47168,119.96136 C174.28368,120.22136 173.11168,119.46776 172.85328,118.28136 C172.59408,117.09416 173.34528,115.92216 174.53248,115.66296 C182.18128,113.99336 189.76368,118.85816 191.43248,126.50776 C193.10208,134.15816 188.23728,141.73976 180.58928,143.41016 C175.09408,144.60856 169.64688,141.11496 168.44688,135.61976 C167.24768,130.12376 170.74368,124.67816 176.23888,123.47896 C179.57808,122.75016 182.88608,124.87496 183.61568,128.21416 C184.34528,131.55496 182.22208,134.86456 178.88288,135.59416 C177.69568,135.85336 176.52368,135.10056 176.26368,133.91336 C176.00608,132.72616 176.75808,131.55416 177.94528,131.29496 Z M290.31328,366.668 L269.19488,342.6248 C268.39168,341.7112 268.48288,340.3232 269.39488,339.5208 C270.30848,338.7192 271.69648,338.8104 272.49968,339.7208 L293.61888,363.7632 C294.42128,364.6752 294.33008,366.0664 293.41888,366.8672 C292.50368,367.6688 291.11568,367.5792 290.31328,366.668 Z M192.1016,284.62184 L183.9968,267.73704 L165.7464,271.93784 C164.744,272.16824 163.7144,271.67304 163.2704,270.74424 L154.4048,252.27304 C153.88,251.17704 154.3416,249.86344 155.436,249.33704 C156.5312,248.81064 157.8464,249.27384 158.372,250.37064 L166.4744,267.25544 L184.7256,263.05384 C185.7288,262.82504 186.7576,263.31944 187.2032,264.24504 L195.3072,281.13304 L213.5656,276.93464 C214.5664,276.70424 215.596,277.19864 216.0416,278.12584 L224.9112,296.60024 C225.4368,297.69544 224.9752,299.00824 223.8784,299.53544 C223.2528,299.83544 222.552,299.81224 221.9728,299.53544 C221.5368,299.32504 221.1704,298.97144 220.944,298.50264 L212.836,281.61704 L194.5784,285.81544 C193.576,286.04584 192.5472,285.54984 192.1016,284.62184 Z M369.06408,342.97424 C364.61048,343.48944 360.76408,343.93424 357.08168,348.39184 C353.39848,352.84864 353.68728,356.71104 354.02088,361.18304 C354.37368,365.91584 354.77448,371.28144 349.96408,377.10304 C345.15368,382.92464 339.80888,383.54384 335.09288,384.08944 C330.63928,384.60624 326.79368,385.05184 323.10968,389.50944 C322.33608,390.44544 320.94888,390.57904 320.01288,389.80464 C319.07688,389.02944 318.94408,387.64464 319.71848,386.70624 C324.52888,380.88464 329.87208,380.26624 334.58728,379.71984 C339.04248,379.20304 342.88968,378.75744 346.57208,374.30064 C350.25448,369.84384 349.96728,365.98144 349.63288,361.51104 C349.27928,356.77664 348.88008,351.41264 353.68888,345.58944 C358.49848,339.76784 363.84328,339.14944 368.55848,338.60384 C373.01128,338.08784 376.85928,337.64144 380.54088,333.18544 C381.31368,332.24864 382.70168,332.11824 383.63848,332.89184 C384.57448,333.66464 384.70648,335.05264 383.93288,335.98864 C379.12328,341.81024 373.77928,342.42784 369.06408,342.97424 Z M118.59528,164.75544 C111.86888,164.75544 106.39528,159.28264 106.39528,152.55544 C106.39528,145.82904 111.86888,140.35544 118.59528,140.35544 C125.32328,140.35544 130.79528,145.82904 130.79528,152.55544 C130.79528,159.28264 125.32328,164.75544 118.59528,164.75544 Z M118.59528,160.35544 C122.89688,160.35544 126.39528,156.85704 126.39528,152.55544 C126.39528,148.25544 122.89688,144.75544 118.59528,144.75544 C114.29528,144.75544 110.79528,148.25544 110.79528,152.55544 C110.79528,156.85704 114.29528,160.35544 118.59528,160.35544 Z M83.28144,269.13872 C82.66704,268.64832 82.36224,267.86592 82.48144,267.08912 L85.96224,244.25952 C86.08144,243.48272 86.60624,242.82832 87.33904,242.54032 C88.07024,242.25632 88.89824,242.38112 89.51264,242.87312 L107.54224,257.30272 C108.15584,257.79552 108.46064,258.57472 108.34384,259.35312 C108.22464,260.12992 107.69984,260.78432 106.96704,261.06992 L85.45584,269.46992 C84.72464,269.75632 83.89504,269.62992 83.28144,269.13872 Z M87.40624,263.98592 L101.81904,258.35792 L89.73904,248.68912 L87.40624,263.98592 Z M166.03776,193.21312 L182.69856,195.37072 C183.90176,195.52912 184.75376,196.63152 184.59696,197.83472 L182.43776,214.49472 C182.28096,215.69952 181.17776,216.54912 179.97376,216.39312 L163.31296,214.23472 C162.10816,214.07792 161.25776,212.97472 161.41376,211.76832 L163.57216,195.11232 C163.72896,193.90672 164.83296,193.05712 166.03776,193.21312 Z M166.05936,210.15392 L178.35776,211.74752 L179.95056,199.45072 L167.65376,197.85872 L166.05936,210.15392 Z M134.92656,75.61408 C134.65936,74.42848 135.40656,73.25248 136.59056,72.98608 L144.20176,71.27888 L142.49536,63.66768 C142.22816,62.48288 142.97376,61.30608 144.15936,61.03968 C145.34496,60.77408 146.52176,61.51968 146.78736,62.70448 L148.49536,70.31488 L156.10656,68.60848 C157.29056,68.34208 158.46896,69.08768 158.73456,70.27328 C159.00016,71.45888 158.25456,72.63568 157.06896,72.90128 L149.45776,74.60928 L151.16576,82.21968 C151.43136,83.40448 150.68576,84.58128 149.50176,84.84848 C148.31536,85.11408 147.13936,84.36848 146.87216,83.18288 L145.16416,75.57168 L137.55456,77.27968 C136.36896,77.54528 135.19216,76.79968 134.92656,75.61408 Z M15.24688,102.78832 C14.15648,102.24992 13.70928,100.93152 14.24528,99.84272 L28.40128,71.14272 C28.94048,70.05312 30.25808,69.60672 31.34688,70.14352 C32.43728,70.68192 32.88368,72.00032 32.34688,73.08912 L18.19248,101.78832 C17.65648,102.87792 16.33408,103.32592 15.24688,102.78832 Z M114.48752,25.92536 C113.98192,27.02936 112.67632,27.51576 111.57152,27.00936 L94.54192,19.21256 L83.20032,34.11736 C82.57472,34.93576 81.46912,35.21256 80.53392,34.78536 L63.50352,26.99016 L52.15632,41.89576 C51.53312,42.71336 50.42512,42.99176 49.49072,42.56376 L30.85632,34.03736 C29.74992,33.53256 29.26512,32.22616 29.77152,31.12056 C30.06032,30.48856 30.61232,30.05896 31.23792,29.90296 C31.70592,29.78536 32.21312,29.82056 32.68672,30.03656 L49.72032,37.82936 L61.06832,22.92456 C61.69072,22.10616 62.79872,21.82936 63.73472,22.25656 L80.76432,30.05256 L92.10672,15.14856 C92.72992,14.33016 93.83792,14.05256 94.77232,14.48056 L113.40352,23.00856 C114.50752,23.51496 114.99312,24.82056 114.48752,25.92536 Z M113.93592,201.67888 C114.22792,202.85808 113.50952,204.05248 112.33112,204.34528 C105.00232,206.16448 100.33832,203.48208 96.22312,201.11488 C92.33592,198.87808 88.97992,196.95008 83.36792,198.34048 C77.75592,199.73328 75.69032,203.01088 73.29992,206.80688 C70.76872,210.82208 67.89832,215.37168 60.56872,217.19248 C53.23912,219.01088 48.57512,216.32848 44.45912,213.96288 C40.57192,211.72928 37.21512,209.79968 31.60152,211.19168 C30.42312,211.48448 29.22952,210.76608 28.93672,209.58768 C28.64552,208.40768 29.36232,207.21328 30.54392,206.92128 C37.87272,205.10128 42.53672,207.78448 46.65272,210.14928 C50.53992,212.38368 53.89832,214.31328 59.50872,212.92128 C65.12152,211.52928 67.18632,208.25328 69.57832,204.45968 C72.10792,200.44128 74.97832,195.89328 82.30792,194.07328 C89.63752,192.25568 94.29992,194.93488 98.41592,197.29808 C102.30232,199.53328 105.66072,201.46448 111.27032,200.07088 C112.44952,199.77968 113.64232,200.49888 113.93592,201.67888 Z M91.92032,107.52536 C90.67952,107.05656 90.05552,105.67176 90.52352,104.43176 C92.00352,100.51176 90.01872,96.11736 86.09952,94.63656 C82.17792,93.15656 77.78432,95.14136 76.30432,99.06056 C75.83632,100.30056 74.44992,100.92616 73.21072,100.45816 C71.97072,99.99016 71.34512,98.60456 71.81392,97.36536 C74.22992,90.96856 81.39872,87.73016 87.79552,90.14616 C94.19152,92.56216 97.42992,99.73176 95.01312,106.12856 C94.54512,107.36776 93.16112,107.99336 91.92032,107.52536 Z M80.08592,370.45232 C80.08592,363.72512 85.55952,358.25232 92.28592,358.25232 C99.01392,358.25232 104.48592,363.72512 104.48592,370.45232 C104.48592,377.17872 99.01392,382.65232 92.28592,382.65232 C85.55952,382.65232 80.08592,377.17872 80.08592,370.45232 Z M84.48592,370.45232 C84.48592,374.75232 87.98592,378.25232 92.28592,378.25232 C96.58752,378.25232 100.08592,374.75232 100.08592,370.45232 C100.08592,366.15072 96.58752,362.65232 92.28592,362.65232 C87.98592,362.65232 84.48592,366.15072 84.48592,370.45232 Z M12.35792,357.12536 C12.10352,356.38056 12.26592,355.55816 12.78432,354.96536 C13.30192,354.37496 14.09552,354.10456 14.86592,354.25656 L37.52352,358.72376 C38.29392,358.87576 38.92512,359.42856 39.17952,360.17176 C39.43392,360.91576 39.27072,361.73896 38.75312,362.33016 L23.55632,379.71816 C23.03792,380.31016 22.24512,380.58136 21.47312,380.42936 C20.70192,380.27736 20.07152,379.72536 19.81712,378.98056 L12.35792,357.12536 Z M17.75312,359.31016 L22.75072,373.95336 L32.93312,362.30376 L17.75312,359.31016 Z M151.30616,325.32568 C150.85496,324.19848 151.40296,322.91688 152.53096,322.46488 L168.12536,316.21528 C169.25176,315.76408 170.53256,316.31128 170.98616,317.43928 L177.23496,333.03368 C177.68696,334.16088 177.13896,335.44248 176.01096,335.89368 L160.41736,342.14408 C159.28936,342.59608 158.00856,342.04808 157.55656,340.92008 L151.30616,325.32568 Z M156.20936,325.73128 L160.82216,337.24168 L172.33256,332.62808 L167.71976,321.11848 L156.20936,325.73128 Z M107.60472,310.16016 C105.25352,306.69136 100.51912,305.78096 97.05032,308.13216 C93.57992,310.48336 92.67032,315.21776 95.02152,318.68656 C95.76552,319.78336 95.47832,321.27696 94.38152,322.02016 C93.28472,322.76416 91.79032,322.47696 91.04872,321.37936 C87.21272,315.71936 88.69672,307.99456 94.35592,304.15856 C100.01752,300.32256 107.74232,301.80736 111.57832,307.46816 C112.32152,308.56496 112.03432,310.05696 110.93752,310.80096 C109.83912,311.54416 108.34872,311.25696 107.60472,310.16016 Z M33.9344,296.16096 C34.736,297.07456 34.6456,298.46496 33.7328,299.26576 L27.8704,304.40976 L33.0152,310.27296 C33.816,311.18656 33.7264,312.57696 32.8128,313.37696 C31.8984,314.17856 30.5088,314.08896 29.708,313.17536 L24.5624,307.31296 L18.7,312.45776 C17.7864,313.25856 16.3968,313.16896 15.5952,312.25536 C14.7936,311.34256 14.8848,309.95216 15.7976,309.14976 L21.66,304.00576 L16.516,298.14256 C15.7144,297.23056 15.8048,295.83936 16.7184,295.03856 C17.6312,294.23776 19.0216,294.32816 19.8232,295.24016 L24.9672,301.10416 L30.8296,295.95936 C31.744,295.15696 33.1336,295.24736 33.9344,296.16096 Z M236.12888,375.5992 C229.42328,379.64 220.67928,377.4704 216.63688,370.7648 C212.59368,364.0576 214.76248,355.3144 221.47208,351.2736 C226.28968,348.3704 232.57128,349.928 235.47448,354.7456 C238.37768,359.5632 236.81768,365.844 232.00008,368.7472 C229.07368,370.5104 225.25688,369.5632 223.49288,366.6352 C221.72808,363.7064 222.67368,359.8896 225.60088,358.1256 C226.64168,357.4984 227.99368,357.8344 228.62008,358.8752 C229.24728,359.916 228.91208,361.2672 227.87128,361.8944 C227.02248,362.4064 226.74888,363.5144 227.26168,364.364 C227.77448,365.2144 228.88088,365.4888 229.72968,364.9784 C232.46968,363.3272 233.35608,359.7552 231.70568,357.016 C230.05448,354.2768 226.48248,353.3912 223.74248,355.0424 C219.11368,357.8312 217.61688,363.8656 220.40808,368.4944 C223.19688,373.1216 229.23048,374.6184 233.85848,371.8304 C234.89928,371.2032 236.25048,371.5392 236.87848,372.5792 C237.50568,373.6192 237.17048,374.972 236.12888,375.5992 Z M0,256.11488 L0,251.67568 L27.0056,255.34128 C28.2096,255.50368 29.0528,256.61408 28.8888,257.81728 C28.7248,259.01968 27.6168,259.86448 26.4144,259.70128 L0,256.11488 Z M382.35312,203.08832 C384.51552,210.61152 380.15152,218.49392 372.62672,220.65632 C365.10192,222.81792 357.21872,218.45632 355.05792,210.92992 C353.50512,205.52352 356.63872,199.86352 362.04512,198.31072 C367.45152,196.75792 373.11232,199.89312 374.66432,205.29792 C375.60752,208.58112 373.70272,212.02112 370.41712,212.96592 C367.13152,213.90912 363.69072,212.00512 362.74672,208.72192 C362.41072,207.55312 363.08592,206.33472 364.25472,205.99952 C365.42192,205.66432 366.64032,206.33792 366.97472,207.50672 C367.24992,208.45792 368.24832,209.00992 369.20352,208.73552 C370.15632,208.46112 370.70912,207.46432 370.43632,206.51232 C369.55312,203.43712 366.33472,201.65392 363.26112,202.53712 C360.18592,203.42032 358.40352,206.64032 359.28592,209.71552 C360.77792,214.90832 366.21872,217.91952 371.41232,216.42752 C376.60512,214.93392 379.61552,209.49632 378.12512,204.30272 C377.78912,203.13472 378.46432,201.91632 379.63152,201.58112 C380.79872,201.24512 382.01712,201.91952 382.35312,203.08832 Z M157.92888,386.11248 C162.84488,390.80448 163.52568,395.62608 163.76328,399.99968 L159.35848,399.99968 C159.13928,396.19728 158.55608,392.79408 154.89048,389.29648 C154.01208,388.45728 153.97928,387.06368 154.81848,386.18608 C155.65768,385.30688 157.04968,385.27488 157.92888,386.11248 Z M400,251.67496 L400,256.11496 L394.7064,255.39576 C393.5016,255.23256 392.6592,254.12536 392.8216,252.92056 C392.9856,251.71576 394.0952,250.87336 395.2968,251.03656 L400,251.67496 Z" id="Combined-Shape"></path>
            </g>
        </g>
    </g>
</svg>
